<?xml version="1.0" encoding="UTF-8" standalone="no"?>
<!-- Created with Inkscape (http://www.inkscape.org/) -->

<svg
   xmlns:dc="http://purl.org/dc/elements/1.1/"
   xmlns:cc="http://creativecommons.org/ns#"
   xmlns:rdf="http://www.w3.org/1999/02/22-rdf-syntax-ns#"
   xmlns:svg="http://www.w3.org/2000/svg"
   xmlns="http://www.w3.org/2000/svg"
   xmlns:xlink="http://www.w3.org/1999/xlink"
   xmlns:sodipodi="http://sodipodi.sourceforge.net/DTD/sodipodi-0.dtd"
   xmlns:inkscape="http://www.inkscape.org/namespaces/inkscape"
   width="297mm"
   height="210mm"
   viewBox="0 0 297 210"
   version="1.1"
   id="svg8"
   inkscape:version="0.92.3 (d244b95, 2018-08-02)"
   sodipodi:docname="heraldic1.svg">
  <defs
     id="defs2">
    <linearGradient
       inkscape:collect="always"
       id="linearGradient836">
      <stop
         style="stop-color:#000000;stop-opacity:1;"
         offset="0"
         id="stop832" />
      <stop
         style="stop-color:#000000;stop-opacity:0;"
         offset="1"
         id="stop834" />
    </linearGradient>
    <linearGradient
       inkscape:collect="always"
       xlink:href="#linearGradient836"
       id="linearGradient838"
       x1="104.2675"
       y1="148.5"
       x2="105"
       y2="0.71131051"
       gradientUnits="userSpaceOnUse"
       spreadMethod="reflect"
       gradientTransform="rotate(90,105,192)" />
    <linearGradient
       gradientTransform="matrix(-1,0,0,-0.67007674,331.4566,291.5064)"
       inkscape:collect="always"
       xlink:href="#linearGradient836"
       id="linearGradient838-1"
       x1="104.2675"
       y1="148.5"
       x2="105"
       y2="0.71131051"
       gradientUnits="userSpaceOnUse"
       spreadMethod="reflect" />
    <linearGradient
       gradientTransform="matrix(-1,0,0,-0.67007673,180.76561,291.5064)"
       inkscape:collect="always"
       xlink:href="#linearGradient836"
       id="linearGradient838-1-4"
       x1="104.2675"
       y1="148.5"
       x2="105"
       y2="0.71131051"
       gradientUnits="userSpaceOnUse"
       spreadMethod="reflect" />
    <linearGradient
       gradientTransform="matrix(-1,0,0,-0.67007673,256.11112,291.5064)"
       inkscape:collect="always"
       xlink:href="#linearGradient836"
       id="linearGradient838-1-3"
       x1="104.2675"
       y1="148.5"
       x2="105"
       y2="0.71131051"
       gradientUnits="userSpaceOnUse"
       spreadMethod="reflect" />
  </defs>
  <sodipodi:namedview
     id="base"
     pagecolor="#ffffff"
     bordercolor="#666666"
     borderopacity="1.0"
     inkscape:pageopacity="0.0"
     inkscape:pageshadow="2"
     inkscape:zoom="0.5"
     inkscape:cx="576.30147"
     inkscape:cy="62.68887"
     inkscape:document-units="mm"
     inkscape:current-layer="layer1"
     showgrid="false"
     showguides="true"
     inkscape:window-width="1920"
     inkscape:window-height="1025"
     inkscape:window-x="0"
     inkscape:window-y="27"
     inkscape:window-maximized="1"
     inkscape:guide-bbox="true" />
  <metadata
     id="metadata5">
    <rdf:RDF>
      <cc:Work
         rdf:about="">
        <dc:format>image/svg+xml</dc:format>
        <dc:type
           rdf:resource="http://purl.org/dc/dcmitype/StillImage" />
        <dc:title />
      </cc:Work>
    </rdf:RDF>
  </metadata>
  <g
     inkscape:label="Calque 1"
     inkscape:groupmode="layer"
     id="layer1"
     transform="translate(0,-87)">
    <path
       id="rect4136-8-6-0-9-1-9-9-6-6-7-9"
       style="opacity:1;fill:#0055d4;fill-opacity:1;stroke:#000000;stroke-width:1.04969692;stroke-miterlimit:4;stroke-dasharray:none;stroke-opacity:1"
       d="m 158.03982,203.9361 0.0974,77.82225 0.0936,2.71279 c 2.60415,3.64104 27.43621,-0.0868 29.08729,2.64882 1.65107,-2.78734 26.48313,0.94051 29.08728,-2.70053 l 0.0935,-2.71279 0.0974,-77.82225 z"
       inkscape:connector-curvature="0"
       sodipodi:nodetypes="cccccccc" />
    <path
       id="rect4136-8-6-0-9-1-9-9-6-6-7"
       style="opacity:1;fill:#f2f2f2;fill-opacity:1;stroke:#000000;stroke-width:1.04969692;stroke-miterlimit:4;stroke-dasharray:none;stroke-opacity:1"
       d="m 158.03982,99.865094 0.0974,77.822246 0.0936,2.71279 c 2.60415,3.64104 27.43621,-0.0868 29.08728,2.64882 1.65108,-2.78734 26.48313,0.94051 29.08729,-2.70053 l 0.0935,-2.71279 0.0974,-77.822246 z"
       inkscape:connector-curvature="0"
       sodipodi:nodetypes="cccccccc" />
    <path
       id="rect4136-8-6-0-9-1-9-9-6-6-1"
       style="opacity:1;fill:#0055d4;fill-opacity:1;stroke:#000000;stroke-width:1.04969692;stroke-miterlimit:4;stroke-dasharray:none;stroke-opacity:1"
       d="m 7.0039964,203.93611 0.09743,77.82226 0.09354,2.71279 c 2.6041565,3.64104 27.4362096,-0.0868 29.0872866,2.64882 1.651077,-2.78734 26.48313,0.94051 29.087286,-2.70053 l 0.09354,-2.71279 0.09743,-77.82226 z"
       inkscape:connector-curvature="0"
       sodipodi:nodetypes="cccccccc" />
    <path
       id="rect4136-8-6-0-9-1-9-9-6-6"
       style="opacity:1;fill:#ff0000;fill-opacity:1;stroke:#000000;stroke-width:1.04969692;stroke-miterlimit:4;stroke-dasharray:none;stroke-opacity:1"
       d="m 6.6298207,102.26956 0.097434,77.82226 0.093544,2.71279 c 2.6041559,3.64104 27.4362083,-0.0868 29.0872863,2.64882 1.651077,-2.78734 26.483131,0.94051 29.087286,-2.70053 l 0.09354,-2.71279 0.09743,-77.82226 z"
       inkscape:connector-curvature="0"
       sodipodi:nodetypes="cccccccc" />
    <path
       style="fill:none;stroke:url(#linearGradient838);stroke-width:0.5;stroke-linecap:butt;stroke-linejoin:miter;stroke-miterlimit:4;stroke-dasharray:none;stroke-opacity:1"
       d="M 296.28869,192 H 0.71131"
       id="path830"
       inkscape:connector-curvature="0"
       sodipodi:nodetypes="cc" />
    <path
       style="fill:none;stroke:url(#linearGradient838-1);stroke-width:0.5;stroke-linecap:butt;stroke-linejoin:miter;stroke-miterlimit:4;stroke-dasharray:none;stroke-opacity:1"
       d="M 226.45661,291.02977 V 92.970229"
       id="path830-8"
       inkscape:connector-curvature="0"
       sodipodi:nodetypes="cc" />
    <path
       style="fill:none;stroke:url(#linearGradient838-1-4);stroke-width:0.5;stroke-linecap:butt;stroke-linejoin:miter;stroke-miterlimit:4;stroke-dasharray:none;stroke-opacity:1"
       d="M 75.76561,291.02977 V 92.970226"
       id="path830-8-0"
       inkscape:connector-curvature="0"
       sodipodi:nodetypes="cc" />
    <path
       style="fill:none;stroke:url(#linearGradient838-1-3);stroke-width:0.5;stroke-linecap:butt;stroke-linejoin:miter;stroke-miterlimit:4;stroke-dasharray:none;stroke-opacity:1"
       d="M 151.11111,291.02977 V 92.970228"
       id="path830-8-4"
       inkscape:connector-curvature="0"
       sodipodi:nodetypes="cc" />
    <text
       xml:space="preserve"
       style="font-style:normal;font-variant:normal;font-weight:normal;font-stretch:normal;font-size:10.58333302px;line-height:1;font-family:'Noto Serif CJK JP';-inkscape-font-specification:'Noto Serif CJK JP';text-align:center;letter-spacing:0px;word-spacing:0px;text-anchor:middle;fill:#000000;fill-opacity:1;stroke:none;stroke-width:0.26458332"
       x="260.43729"
       y="211.93867"
       id="text901"><tspan
         sodipodi:role="line"
         id="tspan899"
         x="260.43729"
         y="211.93867"
         style="font-style:normal;font-variant:normal;font-weight:bold;font-stretch:normal;font-size:8.46666622px;line-height:1;font-family:'Noto Serif CJK JP';-inkscape-font-specification:'Noto Serif CJK JP';text-align:center;text-anchor:middle;stroke-width:0.26458332">Villandry</tspan><tspan
         sodipodi:role="line"
         x="260.43729"
         y="222.522"
         style="font-style:normal;font-variant:normal;font-weight:normal;font-stretch:normal;font-size:8.46666622px;line-height:1;font-family:'Noto Serif CJK JP';-inkscape-font-specification:'Noto Serif CJK JP';text-align:center;text-anchor:middle;stroke-width:0.26458332"
         id="tspan903">D'azur,</tspan><tspan
         sodipodi:role="line"
         x="260.43729"
         y="233.10535"
         style="font-style:normal;font-variant:normal;font-weight:normal;font-stretch:normal;font-size:8.46666622px;line-height:1;font-family:'Noto Serif CJK JP';-inkscape-font-specification:'Noto Serif CJK JP';text-align:center;text-anchor:middle;stroke-width:0.26458332"
         id="tspan956">au chevron</tspan><tspan
         sodipodi:role="line"
         x="260.43729"
         y="243.68867"
         style="font-style:normal;font-variant:normal;font-weight:normal;font-stretch:normal;font-size:8.46666622px;line-height:1;font-family:'Noto Serif CJK JP';-inkscape-font-specification:'Noto Serif CJK JP';text-align:center;text-anchor:middle;stroke-width:0.26458332"
         id="tspan905">d'argent,</tspan><tspan
         sodipodi:role="line"
         x="260.43729"
         y="254.272"
         style="font-style:normal;font-variant:normal;font-weight:normal;font-stretch:normal;font-size:8.46666622px;line-height:1;font-family:'Noto Serif CJK JP';-inkscape-font-specification:'Noto Serif CJK JP';text-align:center;text-anchor:middle;stroke-width:0.26458332"
         id="tspan958">au chef</tspan><tspan
         sodipodi:role="line"
         x="260.43729"
         y="264.85535"
         style="font-style:normal;font-variant:normal;font-weight:normal;font-stretch:normal;font-size:8.46666622px;line-height:1;font-family:'Noto Serif CJK JP';-inkscape-font-specification:'Noto Serif CJK JP';text-align:center;text-anchor:middle;stroke-width:0.26458332"
         id="tspan907">de gueules,</tspan><tspan
         sodipodi:role="line"
         x="260.43729"
         y="275.43866"
         style="font-style:normal;font-variant:normal;font-weight:normal;font-stretch:normal;font-size:8.46666622px;line-height:1;font-family:'Noto Serif CJK JP';-inkscape-font-specification:'Noto Serif CJK JP';text-align:center;text-anchor:middle;stroke-width:0.26458332"
         id="tspan909">chargé de trois</tspan><tspan
         sodipodi:role="line"
         x="260.43729"
         y="286.022"
         style="font-style:normal;font-variant:normal;font-weight:normal;font-stretch:normal;font-size:8.46666622px;line-height:1;font-family:'Noto Serif CJK JP';-inkscape-font-specification:'Noto Serif CJK JP';text-align:center;text-anchor:middle;stroke-width:0.26458332"
         id="tspan964">besants d'or.</tspan></text>
    <text
       xml:space="preserve"
       style="font-style:normal;font-variant:normal;font-weight:normal;font-stretch:normal;font-size:10.58333302px;line-height:1;font-family:'Noto Serif CJK JP';-inkscape-font-specification:'Noto Serif CJK JP';text-align:center;letter-spacing:0px;word-spacing:0px;text-anchor:middle;fill:#000000;fill-opacity:1;stroke:none;stroke-width:0.26458332"
       x="260.69751"
       y="107.77453"
       id="text901-8"><tspan
         sodipodi:role="line"
         x="260.69751"
         y="107.77453"
         style="font-style:normal;font-variant:normal;font-weight:bold;font-stretch:normal;font-size:8.46666622px;line-height:1;font-family:'Noto Serif CJK JP';-inkscape-font-specification:'Noto Serif CJK JP';text-align:center;text-anchor:middle;stroke-width:0.26458332"
         id="tspan909-3">St-Patrice</tspan><tspan
         sodipodi:role="line"
         x="260.69751"
         y="118.35786"
         style="font-style:normal;font-variant:normal;font-weight:normal;font-stretch:normal;font-size:8.46666622px;line-height:1;font-family:'Noto Serif CJK JP';-inkscape-font-specification:'Noto Serif CJK JP';text-align:center;text-anchor:middle;stroke-width:0.26458332"
         id="tspan910">D'argent,</tspan><tspan
         sodipodi:role="line"
         x="260.69751"
         y="128.94121"
         style="font-style:normal;font-variant:normal;font-weight:normal;font-stretch:normal;font-size:8.46666622px;line-height:1;font-family:'Noto Serif CJK JP';-inkscape-font-specification:'Noto Serif CJK JP';text-align:center;text-anchor:middle;stroke-width:0.26458332"
         id="tspan942">à trois trèfles</tspan><tspan
         sodipodi:role="line"
         x="260.69751"
         y="139.52454"
         style="font-style:normal;font-variant:normal;font-weight:normal;font-stretch:normal;font-size:8.46666622px;line-height:1;font-family:'Noto Serif CJK JP';-inkscape-font-specification:'Noto Serif CJK JP';text-align:center;text-anchor:middle;stroke-width:0.26458332"
         id="tspan912">de sinople,</tspan><tspan
         sodipodi:role="line"
         x="260.69751"
         y="150.10786"
         style="font-style:normal;font-variant:normal;font-weight:normal;font-stretch:normal;font-size:8.46666622px;line-height:1;font-family:'Noto Serif CJK JP';-inkscape-font-specification:'Noto Serif CJK JP';text-align:center;text-anchor:middle;stroke-width:0.26458332"
         id="tspan914">au chef d'azur,</tspan><tspan
         sodipodi:role="line"
         x="260.69751"
         y="160.69121"
         style="font-style:normal;font-variant:normal;font-weight:normal;font-stretch:normal;font-size:8.46666622px;line-height:1;font-family:'Noto Serif CJK JP';-inkscape-font-specification:'Noto Serif CJK JP';text-align:center;text-anchor:middle;stroke-width:0.26458332"
         id="tspan916">chargé de trois</tspan><tspan
         sodipodi:role="line"
         x="260.69751"
         y="171.27454"
         style="font-style:normal;font-variant:normal;font-weight:normal;font-stretch:normal;font-size:8.46666622px;line-height:1;font-family:'Noto Serif CJK JP';-inkscape-font-specification:'Noto Serif CJK JP';text-align:center;text-anchor:middle;stroke-width:0.26458332"
         id="tspan918">fleurs de lys</tspan><tspan
         sodipodi:role="line"
         x="260.69751"
         y="181.85786"
         style="font-style:normal;font-variant:normal;font-weight:normal;font-stretch:normal;font-size:8.46666622px;line-height:1;font-family:'Noto Serif CJK JP';-inkscape-font-specification:'Noto Serif CJK JP';text-align:center;text-anchor:middle;stroke-width:0.26458332"
         id="tspan941">d'or.</tspan></text>
    <text
       xml:space="preserve"
       style="font-style:normal;font-variant:normal;font-weight:normal;font-stretch:normal;font-size:10.58333302px;line-height:1;font-family:'Noto Serif CJK JP';-inkscape-font-specification:'Noto Serif CJK JP';text-align:center;letter-spacing:0px;word-spacing:0px;text-anchor:middle;fill:#000000;fill-opacity:1;stroke:none;stroke-width:0.26458332"
       x="113.69771"
       y="238.39702"
       id="text901-8-3"><tspan
         sodipodi:role="line"
         x="113.69771"
         y="238.39702"
         style="font-style:normal;font-variant:normal;font-weight:bold;font-stretch:normal;font-size:8.46666622px;line-height:1;font-family:'Noto Serif CJK JP';-inkscape-font-specification:'Noto Serif CJK JP';text-align:center;text-anchor:middle;stroke-width:0.26458332"
         id="tspan918-0">Neuvy le roi</tspan><tspan
         sodipodi:role="line"
         x="113.69771"
         y="248.98035"
         style="font-style:normal;font-variant:normal;font-weight:normal;font-stretch:normal;font-size:8.46666622px;line-height:1;font-family:'Noto Serif CJK JP';-inkscape-font-specification:'Noto Serif CJK JP';text-align:center;text-anchor:middle;stroke-width:0.26458332"
         id="tspan981">D'azur,</tspan><tspan
         sodipodi:role="line"
         x="113.69771"
         y="259.56369"
         style="font-style:normal;font-variant:normal;font-weight:normal;font-stretch:normal;font-size:8.46666622px;line-height:1;font-family:'Noto Serif CJK JP';-inkscape-font-specification:'Noto Serif CJK JP';text-align:center;text-anchor:middle;stroke-width:0.26458332"
         id="tspan940">à la bande d'or</tspan></text>
    <text
       xml:space="preserve"
       style="font-style:normal;font-variant:normal;font-weight:normal;font-stretch:normal;font-size:10.58333302px;line-height:1;font-family:'Noto Serif CJK JP';-inkscape-font-specification:'Noto Serif CJK JP';text-align:center;letter-spacing:0px;word-spacing:0px;text-anchor:middle;fill:#000000;fill-opacity:1;stroke:none;stroke-width:0.26458332"
       x="112.81116"
       y="118.84146"
       id="text901-8-5"><tspan
         sodipodi:role="line"
         x="112.81116"
         y="118.84146"
         style="font-style:normal;font-variant:normal;font-weight:bold;font-stretch:normal;font-size:8.46666622px;line-height:1;font-family:'Noto Serif CJK JP';-inkscape-font-specification:'Noto Serif CJK JP Bold';text-align:center;text-anchor:middle;stroke-width:0.26458332"
         id="tspan918-8">Mettray</tspan><tspan
         sodipodi:role="line"
         x="112.81116"
         y="129.42479"
         style="font-style:normal;font-variant:normal;font-weight:normal;font-stretch:normal;font-size:8.46666622px;line-height:1;font-family:'Noto Serif CJK JP';-inkscape-font-specification:'Noto Serif CJK JP';text-align:center;text-anchor:middle;stroke-width:0.26458332"
         id="tspan1023">De gueules,</tspan><tspan
         sodipodi:role="line"
         x="112.81116"
         y="140.00813"
         style="font-style:normal;font-variant:normal;font-weight:normal;font-stretch:normal;font-size:8.46666622px;line-height:1;font-family:'Noto Serif CJK JP';-inkscape-font-specification:'Noto Serif CJK JP';text-align:center;text-anchor:middle;stroke-width:0.26458332"
         id="tspan1027">à cinq fasces</tspan><tspan
         sodipodi:role="line"
         x="112.81116"
         y="150.59146"
         style="font-style:normal;font-variant:normal;font-weight:normal;font-stretch:normal;font-size:8.46666622px;line-height:1;font-family:'Noto Serif CJK JP';-inkscape-font-specification:'Noto Serif CJK JP';text-align:center;text-anchor:middle;stroke-width:0.26458332"
         id="tspan936">ondées</tspan><tspan
         sodipodi:role="line"
         x="112.81116"
         y="161.17479"
         style="font-style:normal;font-variant:normal;font-weight:normal;font-stretch:normal;font-size:8.46666622px;line-height:1;font-family:'Noto Serif CJK JP';-inkscape-font-specification:'Noto Serif CJK JP';text-align:center;text-anchor:middle;stroke-width:0.26458332"
         id="tspan1029">d'argent</tspan><tspan
         sodipodi:role="line"
         x="112.81116"
         y="171.75813"
         style="font-style:normal;font-variant:normal;font-weight:normal;font-stretch:normal;font-size:8.46666622px;line-height:1;font-family:'Noto Serif CJK JP';-inkscape-font-specification:'Noto Serif CJK JP';text-align:center;text-anchor:middle;stroke-width:0.26458332"
         id="tspan938">et d'azur.</tspan></text>
    <path
       style="fill:#ff0000;stroke:#000000;stroke-width:1;stroke-linecap:butt;stroke-linejoin:miter;stroke-opacity:1;stroke-miterlimit:4;stroke-dasharray:none"
       d="m 158.03982,203.9361 -0.0839,20.00539 58.01143,-0.0468 0.31115,-19.95859 z"
       id="path1223"
       inkscape:connector-curvature="0"
       sodipodi:nodetypes="ccccc" />
    <g
       id="g1221"
       transform="rotate(90,56.063663,165.48728)">
      <circle
         transform="rotate(-90)"
         r="7.1905255"
         cy="105"
         cx="-52.083351"
         id="path4274-5-6"
         style="opacity:1;fill:#ffd42a;fill-opacity:1;stroke:#000000;stroke-width:0.85287875;stroke-miterlimit:4;stroke-dasharray:none;stroke-opacity:1" />
      <circle
         transform="rotate(-90)"
         r="7.1905255"
         cy="105"
         cx="-33.957924"
         id="path4274-5-6-7"
         style="opacity:1;fill:#ffd42a;fill-opacity:1;stroke:#000000;stroke-width:0.85287875;stroke-miterlimit:4;stroke-dasharray:none;stroke-opacity:1" />
      <circle
         transform="rotate(-90)"
         r="7.1905255"
         cy="105"
         cx="-15.832457"
         id="path4274-5-6-7-2"
         style="opacity:1;fill:#ffd42a;fill-opacity:1;stroke:#000000;stroke-width:0.85287875;stroke-miterlimit:4;stroke-dasharray:none;stroke-opacity:1" />
    </g>
    <path
       style="fill:#f2f2f2;stroke:#000000;stroke-width:1;stroke-linecap:butt;stroke-linejoin:miter;stroke-miterlimit:4;stroke-dasharray:none;stroke-opacity:1"
       d="m 158.13447,256.89645 0.02,19.58684 29.34498,-29.98133 28.94099,30.17735 0.0267,-22.0327 -28.96769,-28.85736 z"
       id="path1288"
       inkscape:connector-curvature="0"
       sodipodi:nodetypes="ccccccc" />
    <path
       style="fill:#0055d4;fill-opacity:1;stroke:#000000;stroke-width:0.26458332px;stroke-linecap:butt;stroke-linejoin:miter;stroke-opacity:1"
       d="m 158.03982,99.865094 -0.0778,20.090876 58.00534,-0.13229 0.31116,-19.958586 z"
       id="path1223-4"
       inkscape:connector-curvature="0"
       sodipodi:nodetypes="ccccc" />
    <path
       style="fill:none;fill-rule:evenodd;stroke:#000000;stroke-width:0.87155014;stroke-linecap:butt;stroke-linejoin:miter;stroke-miterlimit:4;stroke-dasharray:none;stroke-opacity:1"
       d="m 215.96732,119.82368 -58.0053,0.13229"
       id="path4221-1-0-5-1"
       inkscape:connector-curvature="0"
       sodipodi:nodetypes="cc" />
    <path
       style="fill:#ffd42a;stroke:#000000;stroke-width:0.36950716;stroke-linecap:butt;stroke-linejoin:miter;stroke-miterlimit:4;stroke-dasharray:none;stroke-opacity:1"
       d="m 187.81728,101.40866 -0.56288,1.58299 c -1.14338,2.80648 -3.05224,1.79245 -2.34522,6.00378 0.27275,1.62468 2.05208,2.68534 2.05208,2.68534 l -0.0587,0.80913 -0.64488,-0.76224 c -0.55918,-0.66084 -0.92638,-1.37193 -2.74395,-1.37193 -1.81755,0 -2.80061,0.59123 -2.88469,2.35693 -0.0586,1.23125 0.70362,1.82932 1.70034,1.82932 0.99673,0 1.23125,-1.11406 1.23125,-1.11406 0,0 -0.23453,0.35182 -0.93811,0.35182 -0.70356,0 -0.35177,-1.58307 1.34852,-1.58307 1.7003,0 2.81424,2.11076 2.81424,2.11076 l -1.17256,0.29315 1.46579,1.05537 c 0,0 -1e-5,0.87943 -0.93811,0.87943 -0.93809,0 -1.9348,-0.58628 -1.9348,-0.58628 0,0 0.46902,1.2312 1.81753,1.17257 1.34851,-0.0586 1.23125,-0.87943 1.23125,-0.87943 l 0.52769,1.40712 0.52769,-1.40712 c 0,0 -0.11726,0.8208 1.23125,0.87943 1.34851,0.0586 1.81753,-1.17257 1.81753,-1.17257 0,0 -0.99671,0.58628 -1.93481,0.58628 -0.93809,0 -0.9381,-0.87943 -0.9381,-0.87943 l 1.46579,-1.05537 -1.17264,-0.29315 c 0,0 1.11401,-2.11076 2.81431,-2.11076 1.7003,0 2.05201,1.58307 1.34844,1.58307 -0.70358,0 -0.93802,-0.35182 -0.93802,-0.35182 0,0 0.23452,1.11398 1.23124,1.11398 0.99673,0 1.75889,-0.59799 1.70026,-1.82924 -0.0841,-1.7657 -1.06706,-2.35693 -2.88461,-2.35693 -1.81756,0 -2.18476,0.71109 -2.74393,1.37193 l -0.64497,0.76224 -0.0586,-0.80913 c 0,0 1.77932,-1.06066 2.05208,-2.68534 0.70702,-4.21133 -1.58469,-3.07032 -2.34523,-6.00378 z"
       id="path1290-1-7"
       inkscape:connector-curvature="0"
       sodipodi:nodetypes="ccscccssscsscccscscccscscccsscssscccscc" />
    <path
       style="fill:#ffd42a;stroke:#000000;stroke-width:0.36950719;stroke-linecap:butt;stroke-linejoin:miter;stroke-miterlimit:4;stroke-dasharray:none;stroke-opacity:1"
       d="m 169.86341,101.40866 -0.56288,1.58299 c -1.14338,2.80647 -3.05224,1.79245 -2.34522,6.00378 0.27275,1.62468 2.05208,2.68534 2.05208,2.68534 l -0.0587,0.80913 -0.64488,-0.76224 c -0.55918,-0.66084 -0.92638,-1.37193 -2.74395,-1.37193 -1.81755,0 -2.80061,0.59123 -2.88469,2.35693 -0.0586,1.23125 0.70362,1.82932 1.70034,1.82932 0.99673,0 1.23125,-1.11406 1.23125,-1.11406 0,0 -0.23453,0.35182 -0.93811,0.35182 -0.70356,0 -0.35177,-1.58307 1.34852,-1.58307 1.7003,0 2.81424,2.11076 2.81424,2.11076 l -1.17256,0.29315 1.46579,1.05537 c 0,0 -1e-5,0.87943 -0.93811,0.87943 -0.93809,0 -1.9348,-0.58628 -1.9348,-0.58628 0,0 0.46902,1.2312 1.81753,1.17257 1.34851,-0.0586 1.23125,-0.87943 1.23125,-0.87943 l 0.52769,1.40712 0.52769,-1.40712 c 0,0 -0.11726,0.8208 1.23125,0.87943 1.34851,0.0586 1.81753,-1.17257 1.81753,-1.17257 0,0 -0.99671,0.58628 -1.93481,0.58628 -0.93809,0 -0.9381,-0.87943 -0.9381,-0.87943 l 1.46579,-1.05537 -1.17264,-0.29315 c 0,0 1.11401,-2.11076 2.81431,-2.11076 1.7003,0 2.05201,1.58307 1.34844,1.58307 -0.70358,0 -0.93802,-0.35182 -0.93802,-0.35182 0,0 0.23452,1.11398 1.23124,1.11398 0.99673,0 1.75889,-0.59799 1.70026,-1.82924 -0.0841,-1.7657 -1.06706,-2.35693 -2.88461,-2.35693 -1.81756,0 -2.18476,0.71109 -2.74393,1.37193 l -0.64497,0.76224 -0.0586,-0.80913 c 0,0 1.77932,-1.06066 2.05208,-2.68534 0.70702,-4.21133 -1.58469,-3.07032 -2.34523,-6.00378 z"
       id="path1290-1-7-2"
       inkscape:connector-curvature="0"
       sodipodi:nodetypes="ccscccssscsscccscscccscscccsscssscccscc" />
    <path
       style="fill:#ffd42a;stroke:#000000;stroke-width:0.36950722;stroke-linecap:butt;stroke-linejoin:miter;stroke-miterlimit:4;stroke-dasharray:none;stroke-opacity:1"
       d="m 205.77114,101.40866 -0.56288,1.58299 c -1.14338,2.80647 -3.05224,1.79245 -2.34522,6.00378 0.27275,1.62468 2.05208,2.68534 2.05208,2.68534 l -0.0587,0.80913 -0.64488,-0.76224 c -0.55918,-0.66084 -0.92638,-1.37193 -2.74395,-1.37193 -1.81755,0 -2.80061,0.59123 -2.88469,2.35693 -0.0586,1.23125 0.70362,1.82932 1.70034,1.82932 0.99673,0 1.23125,-1.11406 1.23125,-1.11406 0,0 -0.23453,0.35182 -0.93811,0.35182 -0.70356,0 -0.35177,-1.58307 1.34852,-1.58307 1.7003,0 2.81424,2.11076 2.81424,2.11076 l -1.17256,0.29315 1.46579,1.05537 c 0,0 -10e-6,0.87943 -0.93811,0.87943 -0.93809,0 -1.9348,-0.58628 -1.9348,-0.58628 0,0 0.46902,1.2312 1.81753,1.17257 1.34851,-0.0586 1.23125,-0.87943 1.23125,-0.87943 l 0.52769,1.40712 0.52769,-1.40712 c 0,0 -0.11726,0.8208 1.23125,0.87943 1.34851,0.0586 1.81753,-1.17257 1.81753,-1.17257 0,0 -0.99671,0.58628 -1.93481,0.58628 -0.93809,0 -0.9381,-0.87943 -0.9381,-0.87943 l 1.46579,-1.05537 -1.17264,-0.29315 c 0,0 1.11401,-2.11076 2.81431,-2.11076 1.7003,0 2.05201,1.58307 1.34844,1.58307 -0.70358,0 -0.93802,-0.35182 -0.93802,-0.35182 0,0 0.23452,1.11398 1.23124,1.11398 0.99673,0 1.75889,-0.59799 1.70026,-1.82924 -0.0841,-1.7657 -1.06706,-2.35693 -2.88461,-2.35693 -1.81756,0 -2.18476,0.71109 -2.74393,1.37193 l -0.64497,0.76224 -0.0586,-0.80913 c 0,0 1.77932,-1.06066 2.05208,-2.68534 0.70702,-4.21133 -1.58469,-3.07032 -2.34523,-6.00378 z"
       id="path1290-1-7-2-9"
       inkscape:connector-curvature="0"
       sodipodi:nodetypes="ccscccssscsscccscscccscscccsscssscccscc" />
    <path
       style="fill:#00d400;fill-opacity:1;stroke:#000000;stroke-width:0.3178331;stroke-miterlimit:4;stroke-dasharray:none;stroke-dashoffset:0;stroke-opacity:1"
       d="m 204.55343,128.3895 a 4.6718524,4.6718524 0 0 0 -4.67185,4.67185 4.6718524,4.6718524 0 0 0 0.009,0.25914 4.671852,4.671852 0 0 0 -2.14503,-0.52631 4.671852,4.671852 0 0 0 -4.67185,4.67185 4.671852,4.671852 0 0 0 4.67185,4.67185 4.671852,4.671852 0 0 0 0.76136,-0.0639 l -1.42856,1.93261 1.33477,3.73749 2.11912,-6.53439 a 4.671852,4.671852 0 0 0 0.16023,-0.12154 4.6718524,4.6718524 0 0 0 4.66163,4.38679 4.6718524,4.6718524 0 0 0 4.67185,-4.67185 4.6718524,4.6718524 0 0 0 -2.50711,-4.13641 4.6718524,4.6718524 0 0 0 1.70632,-3.60536 4.6718524,4.6718524 0 0 0 -4.67185,-4.67185 z"
       id="path1487-0"
       inkscape:connector-curvature="0" />
    <path
       style="fill:#00d400;fill-opacity:1;stroke:#000000;stroke-width:0.31783313;stroke-miterlimit:4;stroke-dasharray:none;stroke-dashoffset:0;stroke-opacity:1"
       d="m 176.08224,128.53306 a 4.6718524,4.6718524 0 0 0 -4.67185,4.67185 4.6718524,4.6718524 0 0 0 0.009,0.25915 4.6718522,4.6718522 0 0 0 -2.14503,-0.52632 4.6718522,4.6718522 0 0 0 -4.67186,4.67185 4.6718522,4.6718522 0 0 0 4.67186,4.67186 4.6718522,4.6718522 0 0 0 0.76136,-0.0639 l -1.42856,1.93261 1.33477,3.73748 2.11912,-6.53439 a 4.6718522,4.6718522 0 0 0 0.16023,-0.12154 4.6718524,4.6718524 0 0 0 4.66163,4.3868 4.6718524,4.6718524 0 0 0 4.67185,-4.67185 4.6718524,4.6718524 0 0 0 -2.50711,-4.13642 4.6718524,4.6718524 0 0 0 1.70632,-3.60535 4.6718524,4.6718524 0 0 0 -4.67185,-4.67186 z"
       id="path1487-0-2"
       inkscape:connector-curvature="0" />
    <path
       style="fill:#00d400;fill-opacity:1;stroke:#000000;stroke-width:0.31783313;stroke-miterlimit:4;stroke-dasharray:none;stroke-dashoffset:0;stroke-opacity:1"
       d="m 189.99179,154.38663 a 4.6718524,4.6718524 0 0 0 -4.67185,4.67185 4.6718524,4.6718524 0 0 0 0.009,0.25915 4.6718522,4.6718522 0 0 0 -2.14504,-0.52632 4.6718522,4.6718522 0 0 0 -4.67185,4.67186 4.6718522,4.6718522 0 0 0 4.67185,4.67185 4.6718522,4.6718522 0 0 0 0.76137,-0.0639 l -1.42856,1.93261 1.33476,3.73748 2.11912,-6.53438 a 4.6718522,4.6718522 0 0 0 0.16023,-0.12155 4.6718524,4.6718524 0 0 0 4.66163,4.3868 4.6718524,4.6718524 0 0 0 4.67185,-4.67185 4.6718524,4.6718524 0 0 0 -2.5071,-4.13642 4.6718524,4.6718524 0 0 0 1.70632,-3.60535 4.6718524,4.6718524 0 0 0 -4.67185,-4.67186 z"
       id="path1487-0-7"
       inkscape:connector-curvature="0" />
    <path
       style="fill:#ffcc00;stroke:#000000;stroke-width:0.86500001;stroke-linecap:butt;stroke-linejoin:miter;stroke-miterlimit:4;stroke-dasharray:none;stroke-opacity:1"
       d="m 7.0039964,203.93611 18.4796596,-0.16657 40.265069,66.90687 -0.379186,13.74304 c -2.224936,1.81459 -3.199641,1.35785 -5.898148,1.631 L 52.503389,285.91288 7.0086764,215.66629 Z"
       id="path1597"
       inkscape:connector-curvature="0"
       sodipodi:nodetypes="cccccccc" />
    <path
       id="path1211-2-9-6"
       style="fill:#0055d4;fill-opacity:1;stroke:#000000;stroke-width:0.87599999;stroke-linecap:butt;stroke-linejoin:miter;stroke-miterlimit:4;stroke-dasharray:none;stroke-opacity:1"
       d="m 36.72078,130.41944 c -1.37947,1.20271 -5.19111,1.75395 -6.93357,0 -1.47022,-1.36976 -5.98975,-1.18601 -7.13323,0 v 0 c -1.37948,1.20271 -5.19112,1.75395 -6.93358,0 -1.47021,-1.36976 -7.5683124,-1.46998 -8.7117924,-0.28397 l -0.012659,5.76909 c 1.14348,-1.18601 7.2332314,-2.03793 8.7034414,-0.66817 1.74246,1.75395 5.5541,1.20271 6.93358,0 v 0 c 1.14348,-1.18601 5.66301,-1.36976 7.13323,0 1.74246,1.75396 5.5541,1.20271 6.93357,0 m 0.021,-4.81695 c 1.14348,-1.18601 5.66302,-1.36976 7.13324,0 1.74246,1.75395 5.5541,1.20271 6.93357,0 v 0 c 1.14348,-1.18601 5.66302,-1.36976 7.13324,0 1.74246,1.75395 5.967505,1.02554 7.346985,-0.17718 l 0.02623,5.19493 c -1.37948,1.20272 -5.651767,1.55315 -7.394227,-0.2008 -1.47022,-1.36976 -5.98976,-1.18601 -7.13324,0 v 0 c -1.37947,1.20271 -5.19111,1.75395 -6.93357,0 -1.47022,-1.36976 -5.98976,-1.18601 -7.13324,0"
       inkscape:connector-curvature="0"
       sodipodi:nodetypes="cccccccccccccccccccccccc" />
    <path
       id="path1211-2-9-6-3"
       style="fill:#f2f2f2;fill-opacity:1;stroke:#000000;stroke-width:0.87599999;stroke-linecap:butt;stroke-linejoin:miter;stroke-miterlimit:4;stroke-dasharray:none;stroke-opacity:1"
       d="m 36.74181,125.60249 c -1.37948,1.20271 -5.19112,1.75395 -6.93357,0 -1.47023,-1.36976 -5.98976,-1.18601 -7.13323,0 v 0 c -1.37949,1.20271 -5.19113,1.75395 -6.93359,0 -1.47021,-1.36976 -7.7186515,-1.43657 -8.8621315,-0.25056 l 0.1293191,4.78354 c 1.14348,-1.18601 7.2416124,-1.08579 8.7118224,0.28397 1.74247,1.75395 5.55411,1.20271 6.93358,0 v 0 c 1.14348,-1.18601 5.66301,-1.36976 7.13324,0 1.74245,1.75395 5.55409,1.20271 6.93357,0 m 0.021,-4.81695 c 1.14347,-1.18601 5.66301,-1.36976 7.13323,0 1.74246,1.75395 5.5541,1.20271 6.93357,0 v 0 c 1.14348,-1.18601 5.66302,-1.36976 7.13324,0 1.74246,1.75395 5.854113,1.11058 7.233593,-0.0921 l 0.09235,4.73191 c -1.37948,1.20271 -5.604495,1.93113 -7.346955,0.17718 -1.47022,-1.36976 -5.98976,-1.18601 -7.13324,0 v 0 c -1.37947,1.20271 -5.19111,1.75395 -6.93357,0 -1.47022,-1.36976 -5.98976,-1.18601 -7.13324,0"
       inkscape:connector-curvature="0"
       sodipodi:nodetypes="cccccccccccccccccccccccc" />
    <path
       id="path1211-2-9-6-7"
       style="fill:#0055d4;fill-opacity:1;stroke:#000000;stroke-width:0.87599999;stroke-linecap:butt;stroke-linejoin:miter;stroke-miterlimit:4;stroke-dasharray:none;stroke-opacity:1"
       d="m 36.67875,140.05334 c -1.37947,1.20271 -5.19111,1.75396 -6.93357,0 -1.47022,-1.36976 -5.98975,-1.18601 -7.13323,0 v 0 c -1.37948,1.20271 -4.801332,1.6949 -6.543792,-0.0591 -1.47021,-1.36976 -7.8692485,-0.42453 -9.0127285,0.76148 l -0.080058,4.82876 c 1.14348,-1.186 7.2117785,-2.08398 8.6819885,-0.71423 1.74246,1.75396 5.5541,1.20272 6.93358,0 v 0 c 1.14348,-1.186 5.66301,-1.36975 7.13323,0 1.74246,1.75396 5.5541,1.20272 6.93357,0 m 0.021,-4.81695 c 1.14348,-1.18601 5.66302,-1.36976 7.13324,0 1.74246,1.75396 5.5541,1.20271 6.93357,0 v 0 c 1.14348,-1.18601 5.66302,-1.36976 7.13324,0 1.74246,1.75396 6.079374,1.57461 7.458854,0.3719 l -0.170147,4.93846 c -1.37948,1.20271 -5.567257,1.26055 -7.309717,-0.49341 -1.47022,-1.36975 -5.98976,-1.186 -7.13324,0 v 0 c -1.37947,1.20272 -5.19111,1.75396 -6.93357,0 -1.47022,-1.36975 -5.98976,-1.186 -7.13324,0"
       inkscape:connector-curvature="0"
       sodipodi:nodetypes="cccccccccccccccccccccccc" />
    <path
       id="path1211-2-9-6-3-6"
       style="fill:#f2f2f2;fill-opacity:1;stroke:#000000;stroke-width:0.87599999;stroke-linecap:butt;stroke-linejoin:miter;stroke-miterlimit:4;stroke-dasharray:none;stroke-opacity:1"
       d="m 36.69976,135.23639 c -1.37948,1.20271 -5.19112,1.75396 -6.93357,0 -1.47023,-1.36976 -5.98976,-1.18601 -7.13323,0 v 0 c -1.37949,1.20271 -5.19113,1.75395 -6.93359,0 -1.47021,-1.36976 -7.5599411,-0.51784 -8.7034211,0.66817 l 0.059481,4.85116 c 1.14348,-1.18601 7.1527201,-2.07214 8.6229301,-0.70238 1.74247,1.75396 5.55411,1.20271 6.93358,0 v 0 c 1.14348,-1.18601 5.66301,-1.36976 7.13324,0 1.74245,1.75396 5.55409,1.20271 6.93357,0 m 0.021,-4.81695 c 1.14347,-1.18601 5.66301,-1.36976 7.13323,0 1.74246,1.75395 5.5541,1.20271 6.93357,0 v 0 c 1.14348,-1.18601 5.66302,-1.36976 7.13324,0 1.74245,1.75395 6.014767,1.40352 7.394247,0.2008 l 0.04361,4.98801 c -1.37948,1.20271 -5.716414,1.3821 -7.458874,-0.37186 -1.47022,-1.36976 -5.98976,-1.18601 -7.13324,0 v 0 c -1.37947,1.20271 -5.19111,1.75396 -6.93357,0 -1.47022,-1.36976 -5.98976,-1.18601 -7.13324,0"
       inkscape:connector-curvature="0"
       sodipodi:nodetypes="cccccccccccccccccccccccc" />
    <path
       id="path1211-2-9-6-3-4"
       style="fill:#f2f2f2;fill-opacity:1;stroke:#000000;stroke-width:0.87599999;stroke-linecap:butt;stroke-linejoin:miter;stroke-miterlimit:4;stroke-dasharray:none;stroke-opacity:1"
       d="m 36.65775,144.87029 c -1.37948,1.20272 -5.19112,1.75396 -6.93357,0 -1.47023,-1.36975 -5.98976,-1.186 -7.13323,0 v 0 c -1.37949,1.20272 -5.19113,1.75396 -6.93359,0 -1.47021,-1.36975 -7.5385084,-0.47177 -8.6819884,0.71423 l -0.039905,5.41226 c 1.14348,-1.186 7.2306734,-2.67929 8.7008834,-1.30953 1.74247,1.75395 5.55411,1.20271 6.93358,0 v 0 c 1.14348,-1.18601 5.66301,-1.36976 7.13324,0 1.74245,1.75395 5.55409,1.20271 6.93357,0 m 0.021,-4.81696 c 1.14347,-1.186 5.66301,-1.36975 7.13323,0 1.74246,1.75396 5.5541,1.20272 6.93357,0 v 0 c 1.14348,-1.186 5.66302,-1.36975 7.13324,0 1.74245,1.75396 5.930237,1.69609 7.309717,0.49337 l -0.115998,4.70526 c -1.37948,1.20272 -5.472279,1.37228 -7.214739,-0.38167 -1.47022,-1.36976 -5.98976,-1.18601 -7.13324,0 v 0 c -1.37947,1.20271 -5.19111,1.75395 -6.93357,0 -1.47022,-1.36976 -5.98976,-1.18601 -7.13324,0"
       inkscape:connector-curvature="0"
       sodipodi:nodetypes="cccccccccccccccccccccccc" />
    <text
       xml:space="preserve"
       style="font-style:italic;font-weight:normal;font-size:3.52777767px;line-height:1.25;font-family:sans-serif;letter-spacing:0px;word-spacing:0px;fill:#a0a0a0;fill-opacity:1;stroke:none;stroke-width:0.26458332;-inkscape-font-specification:'sans-serif Italic';font-stretch:normal;font-variant:normal;"
       x="98.623436"
       y="190.37291"
       id="text1011"><tspan
         sodipodi:role="line"
         id="tspan1009"
         x="98.623436"
         y="190.37291"
         style="font-size:3.52777767px;stroke-width:0.26458332;-inkscape-font-specification:'sans-serif Italic';font-family:sans-serif;font-weight:normal;font-style:italic;font-stretch:normal;font-variant:normal;fill:#a0a0a0;fill-opacity:1;">http://www.art-heraldique.fr/</tspan></text>
    <text
       xml:space="preserve"
       style="font-style:italic;font-variant:normal;font-weight:normal;font-stretch:normal;font-size:3.52777767px;line-height:1.25;font-family:sans-serif;-inkscape-font-specification:'sans-serif Italic';letter-spacing:0px;word-spacing:0px;fill:#a0a0a0;fill-opacity:1;stroke:none;stroke-width:0.26458332"
       x="243.17079"
       y="190.21016"
       id="text1011-3"><tspan
         sodipodi:role="line"
         id="tspan1009-0"
         x="243.17079"
         y="190.21016"
         style="font-style:italic;font-variant:normal;font-weight:normal;font-stretch:normal;font-size:3.52777767px;font-family:sans-serif;-inkscape-font-specification:'sans-serif Italic';fill:#a0a0a0;fill-opacity:1;stroke-width:0.26458332">http://www.art-heraldique.fr/</tspan></text>
    <text
       xml:space="preserve"
       style="font-style:italic;font-variant:normal;font-weight:normal;font-stretch:normal;font-size:3.52777767px;line-height:1.25;font-family:sans-serif;-inkscape-font-specification:'sans-serif Italic';letter-spacing:0px;word-spacing:0px;fill:#a0a0a0;fill-opacity:1;stroke:none;stroke-width:0.26458332"
       x="98.623436"
       y="294.60565"
       id="text1011-4"><tspan
         sodipodi:role="line"
         id="tspan1009-4"
         x="98.623436"
         y="294.60565"
         style="font-style:italic;font-variant:normal;font-weight:normal;font-stretch:normal;font-size:3.52777767px;font-family:sans-serif;-inkscape-font-specification:'sans-serif Italic';fill:#a0a0a0;fill-opacity:1;stroke-width:0.26458332">http://www.art-heraldique.fr/</tspan></text>
    <text
       xml:space="preserve"
       style="font-style:italic;font-variant:normal;font-weight:normal;font-stretch:normal;font-size:3.52777767px;line-height:1.25;font-family:sans-serif;-inkscape-font-specification:'sans-serif Italic';letter-spacing:0px;word-spacing:0px;fill:#a0a0a0;fill-opacity:1;stroke:none;stroke-width:0.26458332"
       x="243.17079"
       y="294.97983"
       id="text1011-44"><tspan
         sodipodi:role="line"
         id="tspan1009-7"
         x="243.17079"
         y="294.97983"
         style="font-style:italic;font-variant:normal;font-weight:normal;font-stretch:normal;font-size:3.52777767px;font-family:sans-serif;-inkscape-font-specification:'sans-serif Italic';fill:#a0a0a0;fill-opacity:1;stroke-width:0.26458332">http://www.art-heraldique.fr/</tspan></text>
    <path
       id="rect4136-8-6-0-9-1-9-9-6-6-7-5"
       style="opacity:1;fill:none;fill-opacity:1;stroke:#000000;stroke-width:1.04969692;stroke-miterlimit:4;stroke-dasharray:none;stroke-opacity:1"
       d="m 158.03982,99.865094 0.0974,77.822236 0.0936,2.71279 c 2.60415,3.64104 27.43621,-0.0868 29.08729,2.64882 1.65107,-2.78734 26.48313,0.94051 29.08728,-2.70053 l 0.0935,-2.71279 0.0974,-77.822236 z"
       inkscape:connector-curvature="0"
       sodipodi:nodetypes="cccccccc" />
  </g>
</svg>
