<?xml version="1.0" encoding="UTF-8" standalone="no"?>
<!DOCTYPE svg PUBLIC "-//W3C//DTD SVG 1.1//EN"
 "http://www.w3.org/Graphics/SVG/1.1/DTD/svg11.dtd">
<!-- Generated by graphviz version 2.40.1 (20161225.0304)
 -->
<!-- Title: %3 Pages: 1 -->
<svg width="789pt" height="44pt"
 viewBox="0.00 0.00 788.66 44.00" xmlns="http://www.w3.org/2000/svg" xmlns:xlink="http://www.w3.org/1999/xlink">
<g id="graph0" class="graph" transform="scale(1 1) rotate(0) translate(4 40)">
<title>%3</title>
<polygon fill="#ffffff" stroke="transparent" points="-4,4 -4,-40 784.6563,-40 784.6563,4 -4,4"/>
<!-- plage -->
<g id="node1" class="node">
<title>plage</title>
<ellipse fill="none" stroke="#000000" cx="29.8973" cy="-18" rx="29.795" ry="18"/>
<text text-anchor="middle" x="29.8973" y="-14.3" font-family="Times,serif" font-size="14.00" fill="#000000">plage</text>
</g>
<!-- forêt de palmiers -->
<g id="node2" class="node">
<title>forêt de palmiers</title>
<ellipse fill="none" stroke="#000000" cx="203.2884" cy="-18" rx="71.4873" ry="18"/>
<text text-anchor="middle" x="203.2884" y="-14.3" font-family="Times,serif" font-size="14.00" fill="#000000">forêt de palmiers</text>
</g>
<!-- plage&#45;&gt;forêt de palmiers -->
<g id="edge1" class="edge">
<title>plage&#45;&gt;forêt de palmiers</title>
<path fill="none" stroke="#000000" d="M60.0998,-18C77.2644,-18 99.662,-18 121.6272,-18"/>
<polygon fill="#000000" stroke="#000000" points="121.6686,-21.5001 131.6686,-18 121.6686,-14.5001 121.6686,-21.5001"/>
</g>
<!-- cabane de pêcheurs -->
<g id="node3" class="node">
<title>cabane de pêcheurs</title>
<ellipse fill="none" stroke="#000000" cx="426.075" cy="-18" rx="79.0865" ry="18"/>
<text text-anchor="middle" x="426.075" y="-14.3" font-family="Times,serif" font-size="14.00" fill="#000000">cabane de pêcheurs</text>
</g>
<!-- forêt de palmiers&#45;&gt;cabane de pêcheurs -->
<g id="edge2" class="edge">
<title>forêt de palmiers&#45;&gt;cabane de pêcheurs</title>
<path fill="none" stroke="#000000" d="M275.0058,-18C294.5929,-18 316.0628,-18 336.5111,-18"/>
<polygon fill="#000000" stroke="#000000" points="336.7739,-21.5001 346.7739,-18 336.7739,-14.5001 336.7739,-21.5001"/>
</g>
<!-- volcan -->
<g id="node4" class="node">
<title>volcan</title>
<ellipse fill="none" stroke="#000000" cx="611.8149" cy="-18" rx="34.394" ry="18"/>
<text text-anchor="middle" x="611.8149" y="-14.3" font-family="Times,serif" font-size="14.00" fill="#000000">volcan</text>
</g>
<!-- cabane de pêcheurs&#45;&gt;volcan -->
<g id="edge3" class="edge">
<title>cabane de pêcheurs&#45;&gt;volcan</title>
<path fill="none" stroke="#000000" d="M505.3842,-18C526.4177,-18 548.3997,-18 566.8885,-18"/>
<polygon fill="#000000" stroke="#000000" points="567.054,-21.5001 577.054,-18 567.054,-14.5001 567.054,-21.5001"/>
</g>
<!-- grotte -->
<g id="node5" class="node">
<title>grotte</title>
<ellipse fill="none" stroke="#000000" cx="749.4591" cy="-18" rx="31.3957" ry="18"/>
<text text-anchor="middle" x="749.4591" y="-14.3" font-family="Times,serif" font-size="14.00" fill="#000000">grotte</text>
</g>
<!-- volcan&#45;&gt;grotte -->
<g id="edge4" class="edge">
<title>volcan&#45;&gt;grotte</title>
<path fill="none" stroke="#000000" d="M646.5483,-18C665.1805,-18 688.2722,-18 707.8577,-18"/>
<polygon fill="#000000" stroke="#000000" points="708.0317,-21.5001 718.0317,-18 708.0316,-14.5001 708.0317,-21.5001"/>
</g>
</g>
</svg>
