<?xml version="1.0" encoding="UTF-8" standalone="no"?>
<!-- Created with Inkscape (http://www.inkscape.org/) -->

<svg
   xmlns:dc="http://purl.org/dc/elements/1.1/"
   xmlns:cc="http://creativecommons.org/ns#"
   xmlns:rdf="http://www.w3.org/1999/02/22-rdf-syntax-ns#"
   xmlns:svg="http://www.w3.org/2000/svg"
   xmlns="http://www.w3.org/2000/svg"
   xmlns:sodipodi="http://sodipodi.sourceforge.net/DTD/sodipodi-0.dtd"
   xmlns:inkscape="http://www.inkscape.org/namespaces/inkscape"
   width="210mm"
   height="297mm"
   viewBox="0 0 744.09448819 1052.3622047"
   id="svg2"
   version="1.1"
   inkscape:version="0.91 r13725"
   sodipodi:docname="dessin3.svg">
  <defs
     id="defs4">
    <inkscape:path-effect
       effect="powerstroke"
       id="path-effect4211"
       is_visible="true"
       offset_points="0,0.49905208"
       sort_points="true"
       interpolator_type="CubicBezierJohan"
       interpolator_beta="0.2"
       start_linecap_type="zerowidth"
       linejoin_type="round"
       miter_limit="4"
       end_linecap_type="zerowidth"
       cusp_linecap_type="round" />
  </defs>
  <sodipodi:namedview
     id="base"
     pagecolor="#ffffff"
     bordercolor="#666666"
     borderopacity="1.0"
     inkscape:pageopacity="0.0"
     inkscape:pageshadow="2"
     inkscape:zoom="0.35355339"
     inkscape:cx="-212.03272"
     inkscape:cy="627.63782"
     inkscape:document-units="px"
     inkscape:current-layer="layer1"
     showgrid="false"
     inkscape:window-width="924"
     inkscape:window-height="775"
     inkscape:window-x="118"
     inkscape:window-y="54"
     inkscape:window-maximized="0"
     showguides="false"
     inkscape:guide-bbox="true"
     inkscape:snap-to-guides="true">
    <sodipodi:guide
       position="270,950.00002"
       orientation="0,1"
       id="guide5726" />
    <sodipodi:guide
       position="612,50.000001"
       orientation="0,1"
       id="guide5728" />
    <sodipodi:guide
       position="99.702057,1015.9357"
       orientation="1,0"
       id="guide5730" />
    <sodipodi:guide
       position="701.44993,1047.9323"
       orientation="1,0"
       id="guide5732" />
    <sodipodi:guide
       position="400.25,913.50002"
       orientation="1,0"
       id="guide5734" />
    <sodipodi:guide
       position="359.5638,979.34291"
       orientation="1,0"
       id="guide5738" />
    <sodipodi:guide
       position="440,995.00002"
       orientation="1,0"
       id="guide5740" />
    <sodipodi:guide
       position="592,758.00002"
       orientation="0,1"
       id="guide5742" />
    <sodipodi:guide
       position="400.25,561.4428"
       orientation="0,1"
       id="guide5744" />
  </sodipodi:namedview>
  <metadata
     id="metadata7">
    <rdf:RDF>
      <cc:Work
         rdf:about="">
        <dc:format>image/svg+xml</dc:format>
        <dc:type
           rdf:resource="http://purl.org/dc/dcmitype/StillImage" />
        <dc:title></dc:title>
      </cc:Work>
    </rdf:RDF>
  </metadata>
  <g
     inkscape:label="Calque 1"
     inkscape:groupmode="layer"
     id="layer1">
    <path
       style="opacity:1;fill:none;fill-opacity:1;stroke:#000000;stroke-width:1.60000002;stroke-miterlimit:4;stroke-dasharray:none;stroke-opacity:1"
       d="m 76.506765,305.11912 87.446895,-0.25254 c 0,0 0.11382,86.39357 -8.78281,99.3394 -9.8227,14.2934 -33.64669,27.68986 -34.97499,27.74552 -1.3283,0.0557 -27.400895,-15.5081 -35.355335,-28.84758 -8.57976,-14.38814 -8.33376,-97.9848 -8.33376,-97.9848 z"
       id="rect4136-8-6"
       inkscape:connector-curvature="0"
       sodipodi:nodetypes="ccszsc" />
    <path
       style="opacity:1;fill:none;fill-opacity:1;stroke:#000000;stroke-width:1.60000002;stroke-miterlimit:4;stroke-dasharray:none;stroke-opacity:1"
       d="m 76.31315,89.40748 87.4469,-0.25254 c 0,0 0.11382,86.39357 -8.78281,99.3394 -9.8227,14.2934 -33.64669,27.68986 -34.97499,27.74552 -1.3283,0.0557 -27.4009,-15.5081 -35.35534,-28.84758 -8.57976,-14.38814 -8.33376,-97.9848 -8.33376,-97.9848 z"
       id="rect4136-8-6-0"
       inkscape:connector-curvature="0"
       sodipodi:nodetypes="ccszsc" />
    <path
       style="opacity:1;fill:none;fill-opacity:1;stroke:#000000;stroke-width:1.60000002;stroke-miterlimit:4;stroke-dasharray:none;stroke-opacity:1"
       d="m 589.29591,89.50579 87.4469,-0.25254 c 0,0 0.11382,86.39357 -8.78281,99.3394 -9.8227,14.2934 -33.64669,27.68986 -34.97499,27.74552 -1.3283,0.0557 -27.4009,-15.5081 -35.35534,-28.84758 -8.57976,-14.38814 -8.33376,-97.9848 -8.33376,-97.9848 z"
       id="rect4136-8-6-0-6"
       inkscape:connector-curvature="0"
       sodipodi:nodetypes="ccszsc" />
    <path
       style="opacity:1;fill:none;fill-opacity:1;stroke:#000000;stroke-width:1.60000002;stroke-miterlimit:4;stroke-dasharray:none;stroke-opacity:1"
       d="m 247.46461,305.36295 87.4469,-0.25254 c 0,0 0.11382,86.39357 -8.78281,99.3394 -9.8227,14.2934 -33.64669,27.68986 -34.97499,27.74552 -1.3283,0.0557 -27.4009,-15.5081 -35.35534,-28.84757 -8.57976,-14.38815 -8.33376,-97.98481 -8.33376,-97.98481 z"
       id="rect4136-8-6-5"
       inkscape:connector-curvature="0"
       sodipodi:nodetypes="ccszsc" />
    <path
       style="opacity:1;fill:none;fill-opacity:1;stroke:#000000;stroke-width:1.60000002;stroke-miterlimit:4;stroke-dasharray:none;stroke-opacity:1"
       d="m 416.72946,89.20774 87.4469,-0.25254 c 0,0 0.11382,86.39357 -8.78281,99.3394 -9.8227,14.2934 -33.64669,27.68986 -34.97499,27.74552 -1.3283,0.0557 -27.4009,-15.5081 -35.35534,-28.84758 -8.57976,-14.38814 -8.33376,-97.9848 -8.33376,-97.9848 z"
       id="rect4136-8-6-9"
       inkscape:connector-curvature="0"
       sodipodi:nodetypes="ccszsc" />
    <path
       style="opacity:1;fill:none;fill-opacity:1;stroke:#000000;stroke-width:1.60000002;stroke-miterlimit:4;stroke-dasharray:none;stroke-opacity:1"
       d="m 417.02688,305.07305 87.4469,-0.25254 c 0,0 0.11382,86.39357 -8.78281,99.3394 -9.8227,14.2934 -33.64669,27.68986 -34.97499,27.74552 -1.3283,0.0557 -27.4009,-15.5081 -35.35534,-28.84758 -8.57976,-14.38814 -8.33376,-97.9848 -8.33376,-97.9848 z"
       id="rect4136-8-6-0-2"
       inkscape:connector-curvature="0"
       sodipodi:nodetypes="ccszsc" />
    <path
       style="opacity:1;fill:none;fill-opacity:1;stroke:#000000;stroke-width:1.60000002;stroke-miterlimit:4;stroke-dasharray:none;stroke-opacity:1"
       d="m 676.89367,305.41318 -87.4469,-0.25254 c 0,0 -0.11382,86.39357 8.78281,99.3394 9.8227,14.2934 33.64669,27.68986 34.97499,27.74552 1.3283,0.0557 27.4009,-15.5081 35.35534,-28.84758 8.57976,-14.38814 8.33376,-97.9848 8.33376,-97.9848 z"
       id="rect4136-8-6-0-6-9"
       inkscape:connector-curvature="0"
       sodipodi:nodetypes="ccszsc" />
    <path
       style="opacity:1;fill:none;fill-opacity:1;stroke:#000000;stroke-width:1.60000002;stroke-miterlimit:4;stroke-dasharray:none;stroke-opacity:1"
       d="m 334.71526,89.36061 -87.4469,-0.25254 c 0,0 -0.11382,86.39357 8.78281,99.3394 9.8227,14.2934 33.64669,27.68986 34.97499,27.74552 1.3283,0.0557 27.4009,-15.5081 35.35534,-28.84758 8.57976,-14.38814 8.33376,-97.9848 8.33376,-97.9848 z"
       id="rect4136-8-6-0-6-9-3"
       inkscape:connector-curvature="0"
       sodipodi:nodetypes="ccszsc" />
    <path
       style="opacity:1;fill:none;fill-opacity:1;stroke:#000000;stroke-width:1.60000002;stroke-miterlimit:4;stroke-dasharray:none;stroke-opacity:1"
       d="m 81.741015,788.58315 87.446895,-0.25254 c 0,0 0.11382,86.39357 -8.78281,99.3394 -9.8227,14.2934 -33.64669,27.68986 -34.97499,27.74552 -1.3283,0.0557 -27.400895,-15.5081 -35.355335,-28.84758 -8.57976,-14.38814 -8.33376,-97.9848 -8.33376,-97.9848 z"
       id="rect4136-8-6-4"
       inkscape:connector-curvature="0"
       sodipodi:nodetypes="ccszsc" />
    <path
       style="opacity:1;fill:none;fill-opacity:1;stroke:#000000;stroke-width:1.60000002;stroke-miterlimit:4;stroke-dasharray:none;stroke-opacity:1"
       d="m 81.5474,564.87151 87.4469,-0.25254 c 0,0 0.11382,86.39358 -8.78281,99.3394 -9.8227,14.2934 -33.64669,27.68986 -34.97499,27.74552 -1.3283,0.0557 -27.4009,-15.5081 -35.35534,-28.84757 C 81.3014,648.46818 81.5474,564.87151 81.5474,564.87151 Z"
       id="rect4136-8-6-0-21"
       inkscape:connector-curvature="0"
       sodipodi:nodetypes="ccszsc" />
    <path
       style="opacity:1;fill:none;fill-opacity:1;stroke:#000000;stroke-width:1.60000002;stroke-miterlimit:4;stroke-dasharray:none;stroke-opacity:1"
       d="m 594.53016,564.96982 87.4469,-0.25254 c 0,0 0.11382,86.39358 -8.78281,99.3394 -9.8227,14.2934 -33.64669,27.68986 -34.97499,27.74552 -1.3283,0.0557 -27.4009,-15.5081 -35.35534,-28.84757 -8.57976,-14.38814 -8.33376,-97.98481 -8.33376,-97.98481 z"
       id="rect4136-8-6-0-6-8"
       inkscape:connector-curvature="0"
       sodipodi:nodetypes="ccszsc" />
    <path
       style="opacity:1;fill:none;fill-opacity:1;stroke:#000000;stroke-width:1.60000002;stroke-miterlimit:4;stroke-dasharray:none;stroke-opacity:1"
       d="m 252.69886,788.82698 87.4469,-0.25254 c 0,0 0.11382,86.39357 -8.78281,99.3394 -9.8227,14.2934 -33.64669,27.68986 -34.97499,27.74552 -1.3283,0.0557 -27.4009,-15.5081 -35.35534,-28.84757 -8.57976,-14.38815 -8.33376,-97.98481 -8.33376,-97.98481 z"
       id="rect4136-8-6-5-7"
       inkscape:connector-curvature="0"
       sodipodi:nodetypes="ccszsc" />
    <path
       style="opacity:1;fill:none;fill-opacity:1;stroke:#000000;stroke-width:1.60000002;stroke-miterlimit:4;stroke-dasharray:none;stroke-opacity:1"
       d="m 421.96371,564.67177 87.4469,-0.25254 c 0,0 0.11382,86.39358 -8.78281,99.3394 -9.8227,14.2934 -33.64669,27.68986 -34.97499,27.74552 -1.3283,0.0557 -27.4009,-15.5081 -35.35534,-28.84757 -8.57976,-14.38814 -8.33376,-97.98481 -8.33376,-97.98481 z"
       id="rect4136-8-6-9-9"
       inkscape:connector-curvature="0"
       sodipodi:nodetypes="ccszsc" />
    <path
       style="opacity:1;fill:none;fill-opacity:1;stroke:#000000;stroke-width:1.60000002;stroke-miterlimit:4;stroke-dasharray:none;stroke-opacity:1"
       d="m 422.26113,788.53708 87.4469,-0.25254 c 0,0 0.11382,86.39357 -8.78281,99.3394 -9.8227,14.2934 -33.64669,27.68986 -34.97499,27.74552 -1.3283,0.0557 -27.4009,-15.5081 -35.35534,-28.84758 -8.57976,-14.38814 -8.33376,-97.9848 -8.33376,-97.9848 z"
       id="rect4136-8-6-0-2-8"
       inkscape:connector-curvature="0"
       sodipodi:nodetypes="ccszsc" />
    <path
       style="opacity:1;fill:none;fill-opacity:1;stroke:#000000;stroke-width:1.60000002;stroke-miterlimit:4;stroke-dasharray:none;stroke-opacity:1"
       d="m 682.12792,788.87721 -87.4469,-0.25254 c 0,0 -0.11382,86.39357 8.78281,99.3394 9.8227,14.2934 33.64669,27.68986 34.97499,27.74552 1.3283,0.0557 27.4009,-15.5081 35.35534,-28.84758 8.57976,-14.38814 8.33376,-97.9848 8.33376,-97.9848 z"
       id="rect4136-8-6-0-6-9-1"
       inkscape:connector-curvature="0"
       sodipodi:nodetypes="ccszsc" />
    <path
       style="opacity:1;fill:none;fill-opacity:1;stroke:#000000;stroke-width:1.60000002;stroke-miterlimit:4;stroke-dasharray:none;stroke-opacity:1"
       d="m 339.94951,564.82464 -87.4469,-0.25254 c 0,0 -0.11382,86.39358 8.78281,99.3394 9.8227,14.2934 33.64669,27.68986 34.97499,27.74552 1.3283,0.0557 27.4009,-15.5081 35.35534,-28.84757 8.57976,-14.38814 8.33376,-97.98481 8.33376,-97.98481 z"
       id="rect4136-8-6-0-6-9-3-2"
       inkscape:connector-curvature="0"
       sodipodi:nodetypes="ccszsc" />
  </g>
</svg>
