<?xml version="1.0" encoding="UTF-8" standalone="no"?>
<!DOCTYPE svg PUBLIC "-//W3C//DTD SVG 1.1//EN" "http://www.w3.org/Graphics/SVG/1.1/DTD/svg11.dtd">
<!-- Generated by graphviz version 2.40.1 (20161225.0304)
 -->
<!-- Title: finite_state_machine Pages: 1 -->
<svg width="576pt" height="190pt" viewBox="0.00 0.00 576.00 190.13" xmlns="http://www.w3.org/2000/svg" xmlns:xlink="http://www.w3.org/1999/xlink">
<g id="graph0" class="graph" transform="scale(.2934 .2934) rotate(0) translate(4 643.9298)">
<title>finite_state_machine</title>
<polygon fill="#ffffff" stroke="transparent" points="-4,4 -4,-643.9298 1958.9256,-643.9298 1958.9256,4 -4,4"/>
<!-- Pl -->
<g id="node1" class="node">
<title>Pl</title>
<ellipse fill="none" stroke="#000000" cx="90.7983" cy="-437.6494" rx="50.3974" ry="50.3974"/>
<text text-anchor="middle" x="90.7983" y="-433.4494" font-family="Times,serif" font-size="14.00" fill="#000000">Pont-levis</text>
</g>
<!-- E -->
<g id="node8" class="node">
<title>E</title>
<ellipse fill="none" stroke="#000000" cx="260.5075" cy="-204.6494" rx="39.9838" ry="39.9838"/>
<text text-anchor="middle" x="260.5075" y="-200.4494" font-family="Times,serif" font-size="14.00" fill="#000000">Ecuries</text>
</g>
<!-- Pl&#45;&gt;E -->
<g id="edge3" class="edge">
<title>Pl-&gt;E</title>
<path fill="none" stroke="#000000" d="M120.3594,-397.0639C151.3422,-354.5265 199.7448,-288.0727 230.7872,-245.4536"/>
<polygon fill="#000000" stroke="#000000" points="233.6954,-247.4055 236.7539,-237.2617 228.0372,-243.2842 233.6954,-247.4055"/>
<text text-anchor="middle" x="180.7561" y="-346.8494" font-family="Times,serif" font-size="14.00" fill="#000000">cadabra</text>
</g>
<!-- Cr -->
<g id="node11" class="node">
<title>Cr</title>
<ellipse fill="none" stroke="#000000" cx="439.69" cy="-448.6494" rx="77.5936" ry="77.5936"/>
<text text-anchor="middle" x="439.69" y="-444.4494" font-family="Times,serif" font-size="14.00" fill="#000000">Chemin de ronde</text>
</g>
<!-- Pl&#45;&gt;Cr -->
<g id="edge2" class="edge">
<title>Pl-&gt;Cr</title>
<path fill="none" stroke="#000000" d="M141.1576,-439.2372C196.1726,-440.9717 285.3262,-443.7826 351.9043,-445.8817"/>
<polygon fill="#000000" stroke="#000000" points="351.8661,-449.3821 361.9714,-446.1991 352.0867,-442.3856 351.8661,-449.3821"/>
<text text-anchor="middle" x="260.5075" y="-448.8494" font-family="Times,serif" font-size="14.00" fill="#000000">cada</text>
</g>
<!-- O -->
<g id="node2" class="node">
<title>O</title>
<ellipse fill="none" stroke="#000000" cx="439.69" cy="-268.6494" rx="50.958" ry="50.958"/>
<text text-anchor="middle" x="439.69" y="-264.4494" font-family="Times,serif" font-size="14.00" fill="#000000">Oubliettes</text>
</g>
<!-- O&#45;&gt;O -->
<g id="edge19" class="edge">
<title>O-&gt;O</title>
<path fill="none" stroke="#000000" d="M419.5895,-315.2273C420.65,-327.8073 427.3502,-337.3779 439.69,-337.3779 448.5593,-337.3779 454.515,-332.4337 457.5574,-324.9816"/>
<polygon fill="#000000" stroke="#000000" points="460.9705,-325.7562 459.7904,-315.2273 454.147,-324.194 460.9705,-325.7562"/>
<text text-anchor="middle" x="439.69" y="-341.5779" font-family="Times,serif" font-size="14.00" fill="#000000">abra</text>
</g>
<!-- Sg -->
<g id="node6" class="node">
<title>Sg</title>
<ellipse fill="none" stroke="#000000" cx="694.0912" cy="-282.6494" rx="73.492" ry="73.492"/>
<text text-anchor="middle" x="694.0912" y="-278.4494" font-family="Times,serif" font-size="14.00" fill="#000000">Salle des gardes</text>
</g>
<!-- O&#45;&gt;Sg -->
<g id="edge20" class="edge">
<title>O-&gt;Sg</title>
<path fill="none" stroke="#000000" d="M490.5604,-271.4489C524.8417,-273.3354 570.8605,-275.8679 610.4676,-278.0475"/>
<polygon fill="#000000" stroke="#000000" points="610.4759,-281.5532 620.6532,-278.608 610.8606,-274.5637 610.4759,-281.5532"/>
<text text-anchor="middle" x="569.0412" y="-281.8494" font-family="Times,serif" font-size="14.00" fill="#000000">cadabra</text>
</g>
<!-- St -->
<g id="node3" class="node">
<title>St</title>
<ellipse fill="none" stroke="#000000" cx="1329.3323" cy="-507.6494" rx="65.4489" ry="65.4489"/>
<ellipse fill="none" stroke="#000000" cx="1329.3323" cy="-507.6494" rx="69.4474" ry="69.4474"/>
<text text-anchor="middle" x="1329.3323" y="-503.4494" font-family="Times,serif" font-size="14.00" fill="#000000">Salle du trône</text>
</g>
<!-- Sb -->
<g id="node5" class="node">
<title>Sb</title>
<ellipse fill="none" stroke="#000000" cx="1553.727" cy="-497.6494" rx="75.3041" ry="75.3041"/>
<text text-anchor="middle" x="1553.727" y="-493.4494" font-family="Times,serif" font-size="14.00" fill="#000000">Salle du banquet</text>
</g>
<!-- St&#45;&gt;Sb -->
<g id="edge33" class="edge">
<title>St-&gt;Sb</title>
<path fill="none" stroke="#000000" d="M1398.7955,-504.5538C1420.7717,-503.5745 1445.3195,-502.4805 1468.2802,-501.4573"/>
<polygon fill="#000000" stroke="#000000" points="1468.5215,-504.9501 1478.3557,-501.0083 1468.2098,-497.957 1468.5215,-504.9501"/>
<text text-anchor="middle" x="1438.5655" y="-506.8494" font-family="Times,serif" font-size="14.00" fill="#000000">cadabra</text>
</g>
<!-- ST -->
<g id="node9" class="node">
<title>ST</title>
<ellipse fill="none" stroke="#000000" cx="1112.8593" cy="-537.6494" rx="67.4608" ry="67.4608"/>
<text text-anchor="middle" x="1112.8593" y="-533.4494" font-family="Times,serif" font-size="14.00" fill="#000000">Salle du trésor</text>
</g>
<!-- St&#45;&gt;ST -->
<g id="edge32" class="edge">
<title>St-&gt;ST</title>
<path fill="none" stroke="#000000" d="M1260.5872,-517.9755C1254.2573,-518.8932 1247.9405,-519.7968 1241.8587,-520.6494 1225.0283,-523.0089 1206.9489,-525.4498 1189.8081,-527.7204"/>
<polygon fill="#000000" stroke="#000000" points="1189.297,-524.2575 1179.8409,-529.0358 1190.2129,-531.1973 1189.297,-524.2575"/>
<text text-anchor="middle" x="1220.0992" y="-529.8494" font-family="Times,serif" font-size="14.00" fill="#000000">abra</text>
</g>
<!-- C -->
<g id="node4" class="node">
<title>C</title>
<ellipse fill="none" stroke="#000000" cx="1907.1502" cy="-327.6494" rx="40.5867" ry="40.5867"/>
<text text-anchor="middle" x="1907.1502" y="-323.4494" font-family="Times,serif" font-size="14.00" fill="#000000">Cuisine</text>
</g>
<!-- C&#45;&gt;Sb -->
<g id="edge29" class="edge">
<title>C-&gt;Sb</title>
<path fill="none" stroke="#000000" d="M1890.7213,-365.2591C1879.6765,-386.3122 1863.1448,-411.3307 1841.3748,-426.6494 1808.9318,-449.4783 1711.159,-470.5726 1638.5593,-483.735"/>
<polygon fill="#000000" stroke="#000000" points="1637.7175,-480.33 1628.4916,-485.539 1638.9522,-487.2203 1637.7175,-480.33"/>
<text text-anchor="middle" x="1746.9672" y="-475.8494" font-family="Times,serif" font-size="14.00" fill="#000000">bra</text>
</g>
<!-- C&#45;&gt;Sg -->
<g id="edge28" class="edge">
<title>C-&gt;Sg</title>
<path fill="none" stroke="#000000" d="M1884.3239,-293.7659C1856.5718,-257.0517 1806.0501,-203.6494 1746.9672,-203.6494 885.0983,-203.6494 885.0983,-203.6494 885.0983,-203.6494 843.2624,-203.6494 799.918,-220.033 765.1152,-237.8782"/>
<polygon fill="#000000" stroke="#000000" points="763.2098,-234.9261 755.9969,-242.6865 766.475,-241.1179 763.2098,-234.9261"/>
<text text-anchor="middle" x="1329.3323" y="-207.8494" font-family="Times,serif" font-size="14.00" fill="#000000">abra</text>
</g>
<!-- Sb&#45;&gt;St -->
<g id="edge31" class="edge">
<title>Sb-&gt;St</title>
<path fill="none" stroke="#000000" d="M1480.446,-479.5654C1459.833,-476.656 1437.4174,-475.5436 1416.806,-478.8494 1412.7212,-479.5045 1408.5686,-480.3215 1404.4034,-481.2608"/>
<polygon fill="#000000" stroke="#000000" points="1403.5597,-477.8639 1394.6883,-483.6561 1405.2355,-484.6604 1403.5597,-477.8639"/>
<text text-anchor="middle" x="1438.5655" y="-483.8494" font-family="Times,serif" font-size="14.00" fill="#000000">braca</text>
</g>
<!-- Sb&#45;&gt;C -->
<g id="edge30" class="edge">
<title>Sb-&gt;C</title>
<path fill="none" stroke="#000000" d="M1621.8705,-464.8717C1692.1286,-431.0769 1799.7696,-379.3005 1860.7652,-349.9611"/>
<polygon fill="#000000" stroke="#000000" points="1862.6467,-352.9399 1870.1412,-345.4511 1859.6124,-346.6318 1862.6467,-352.9399"/>
<text text-anchor="middle" x="1746.9672" y="-428.8494" font-family="Times,serif" font-size="14.00" fill="#000000">abra</text>
</g>
<!-- D -->
<g id="node14" class="node">
<title>D</title>
<ellipse fill="none" stroke="#000000" cx="1746.9672" cy="-544.6494" rx="43.9983" ry="43.9983"/>
<text text-anchor="middle" x="1746.9672" y="-540.4494" font-family="Times,serif" font-size="14.00" fill="#000000">Dortoire</text>
</g>
<!-- Sb&#45;&gt;D -->
<!-- Sg&#45;&gt;O -->
<g id="edge18" class="edge">
<title>Sg-&gt;O</title>
<path fill="none" stroke="#000000" d="M624.0155,-260.7516C616.9197,-259.1633 609.7758,-257.8103 602.8456,-256.8494 568.9791,-252.1535 530.8824,-254.4841 500.0241,-258.2708"/>
<polygon fill="#000000" stroke="#000000" points="499.314,-254.8338 489.8532,-259.6028 500.2231,-261.7746 499.314,-254.8338"/>
<text text-anchor="middle" x="569.0412" y="-261.8494" font-family="Times,serif" font-size="14.00" fill="#000000">abracadabra</text>
</g>
<!-- TM -->
<g id="node7" class="node">
<title>TM</title>
<ellipse fill="none" stroke="#000000" cx="885.0983" cy="-427.6494" rx="80.5239" ry="80.5239"/>
<text text-anchor="middle" x="885.0983" y="-423.4494" font-family="Times,serif" font-size="14.00" fill="#000000">Tour du Magicien</text>
</g>
<!-- Sg&#45;&gt;TM -->
<!-- TM&#45;&gt;O -->
<!-- TM&#45;&gt;ST -->
<g id="edge12" class="edge">
<title>TM-&gt;ST</title>
<path fill="none" stroke="#000000" d="M958.1031,-462.908C985.2225,-476.0057 1015.9078,-490.8255 1042.7617,-503.7949"/>
<polygon fill="#000000" stroke="#000000" points="1041.5613,-507.1019 1052.0883,-508.2993 1044.6056,-500.7986 1041.5613,-507.1019"/>
<text text-anchor="middle" x="1005.6194" y="-500.8494" font-family="Times,serif" font-size="14.00" fill="#000000">cadabra</text>
</g>
<!-- Cv -->
<g id="node10" class="node">
<title>Cv</title>
<ellipse fill="none" stroke="#000000" cx="1329.3323" cy="-343.6494" rx="53.8541" ry="53.8541"/>
<text text-anchor="middle" x="1329.3323" y="-339.4494" font-family="Times,serif" font-size="14.00" fill="#000000">Cave à vin</text>
</g>
<!-- TM&#45;&gt;Cv -->
<g id="edge11" class="edge">
<title>TM-&gt;Cv</title>
<path fill="none" stroke="#000000" d="M966.1112,-429.9244C1026.0776,-429.8123 1109.332,-425.8621 1180.3397,-408.6494 1212.2502,-400.9141 1245.9303,-386.7839 1273.1802,-373.6692"/>
<polygon fill="#000000" stroke="#000000" points="1274.7208,-376.812 1282.1631,-369.2713 1271.6427,-370.525 1274.7208,-376.812"/>
<text text-anchor="middle" x="1112.8593" y="-431.8494" font-family="Times,serif" font-size="14.00" fill="#000000">bra</text>
</g>
<!-- Bi -->
<g id="node16" class="node">
<title>Bi</title>
<ellipse fill="none" stroke="#000000" cx="1112.8593" cy="-334.6494" rx="64.868" ry="64.868"/>
<text text-anchor="middle" x="1112.8593" y="-330.4494" font-family="Times,serif" font-size="14.00" fill="#000000">Bibliothèque</text>
</g>
<!-- TM&#45;&gt;Bi -->
<g id="edge13" class="edge">
<title>TM-&gt;Bi</title>
<path fill="none" stroke="#000000" d="M959.9912,-397.0689C986.7813,-386.1299 1016.8451,-373.8542 1043.1771,-363.1022"/>
<polygon fill="#000000" stroke="#000000" points="1044.7617,-366.2358 1052.6965,-359.2152 1042.1155,-359.7552 1044.7617,-366.2358"/>
<text text-anchor="middle" x="1005.6194" y="-391.8494" font-family="Times,serif" font-size="14.00" fill="#000000">pocus</text>
</g>
<!-- E&#45;&gt;O -->
<!-- E&#45;&gt;C -->
<g id="edge5" class="edge">
<title>E-&gt;C</title>
<path fill="none" stroke="#000000" d="M271.4636,-165.8592C285.4708,-123.47 313.8765,-56.6747 362.1432,-19.6494 390.2982,1.9482 404.2053,-.6494 439.69,-.6494 439.69,-.6494 439.69,-.6494 1746.9672,-.6494 1808.0516,-.6494 1868.1954,-187.0001 1894.0079,-278.3478"/>
<polygon fill="#000000" stroke="#000000" points="1890.7007,-279.5175 1896.7644,-288.2056 1897.4421,-277.6324 1890.7007,-279.5175"/>
<text text-anchor="middle" x="1112.8593" y="-4.8494" font-family="Times,serif" font-size="14.00" fill="#000000">cadabra</text>
</g>
<!-- E&#45;&gt;ST -->
<g id="edge4" class="edge">
<title>E-&gt;ST</title>
<path fill="none" stroke="#000000" d="M267.637,-244.3109C282.5792,-323.1076 319.3584,-495.2622 362.1432,-535.6494 387.9472,-560.0074 404.2053,-554.6494 439.69,-554.6494 439.69,-554.6494 439.69,-554.6494 885.0983,-554.6494 935.3117,-554.6494 991.5798,-550.4895 1035.6253,-546.2853"/>
<polygon fill="#000000" stroke="#000000" points="1036.0739,-549.7582 1045.6869,-545.304 1035.3944,-542.7913 1036.0739,-549.7582"/>
<text text-anchor="middle" x="694.0912" y="-558.8494" font-family="Times,serif" font-size="14.00" fill="#000000">abracada</text>
</g>
<!-- F -->
<g id="node12" class="node">
<title>F</title>
<ellipse fill="none" stroke="#000000" cx="439.69" cy="-87.6494" rx="58.529" ry="58.529"/>
<text text-anchor="middle" x="439.69" y="-83.4494" font-family="Times,serif" font-size="14.00" fill="#000000">Fauconnerie</text>
</g>
<!-- E&#45;&gt;F -->
<g id="edge6" class="edge">
<title>E-&gt;F</title>
<path fill="none" stroke="#000000" d="M288.7977,-176.277C297.881,-167.9006 308.2526,-159.0549 318.4994,-151.8494 336.6583,-139.0802 357.665,-127.0966 377.0366,-117.02"/>
<polygon fill="#000000" stroke="#000000" points="378.793,-120.0529 386.0995,-112.3804 375.6031,-113.8219 378.793,-120.0529"/>
<text text-anchor="middle" x="331.3213" y="-156.8494" font-family="Times,serif" font-size="14.00" fill="#000000">cada</text>
</g>
<!-- ST&#45;&gt;St -->
<g id="edge22" class="edge">
<title>ST-&gt;St</title>
<path fill="none" stroke="#000000" d="M1174.6048,-510.1149C1182.4643,-507.5422 1190.5015,-505.3428 1198.3397,-503.8494 1214.9672,-500.6814 1232.9937,-499.6757 1250.2018,-499.843"/>
<polygon fill="#000000" stroke="#000000" points="1250.1457,-503.3426 1260.2223,-500.0696 1250.304,-496.3443 1250.1457,-503.3426"/>
<text text-anchor="middle" x="1220.0992" y="-507.8494" font-family="Times,serif" font-size="14.00" fill="#000000">cadabra</text>
</g>
<!-- ST&#45;&gt;ST -->
<g id="edge21" class="edge">
<title>ST-&gt;ST</title>
<path fill="none" stroke="#000000" d="M1094.0045,-602.5061C1096.3263,-614.6073 1102.6112,-623.1298 1112.8593,-623.1298 1120.0649,-623.1298 1125.3113,-618.9164 1128.5983,-612.2081"/>
<polygon fill="#000000" stroke="#000000" points="1131.9888,-613.0973 1131.7141,-602.5061 1125.324,-610.957 1131.9888,-613.0973"/>
<text text-anchor="middle" x="1112.8593" y="-627.3298" font-family="Times,serif" font-size="14.00" fill="#000000">abra</text>
</g>
<!-- ST&#45;&gt;Cv -->
<!-- Cv&#45;&gt;C -->
<g id="edge24" class="edge">
<title>Cv-&gt;C</title>
<path fill="none" stroke="#000000" d="M1372.7486,-311.6491C1401.1917,-292.7316 1440.0657,-270.5871 1478.325,-260.6494 1614.5343,-225.2697 1780.2363,-277.1711 1859.9044,-307.8336"/>
<polygon fill="#000000" stroke="#000000" points="1859.0575,-311.2605 1869.6454,-311.6429 1861.6069,-304.7412 1859.0575,-311.2605"/>
<text text-anchor="middle" x="1666.1739" y="-262.8494" font-family="Times,serif" font-size="14.00" fill="#000000">da</text>
</g>
<!-- Cv&#45;&gt;Sg -->
<g id="edge23" class="edge">
<title>Cv-&gt;Sg</title>
<path fill="none" stroke="#000000" d="M1285.9161,-311.6491C1257.473,-292.7316 1218.599,-270.5871 1180.3397,-260.6494 1041.7612,-224.6543 873.6236,-245.942 775.7557,-264.4553"/>
<polygon fill="#000000" stroke="#000000" points="775.0816,-261.0207 765.925,-266.3505 776.4068,-267.8942 775.0816,-261.0207"/>
<text text-anchor="middle" x="1005.6194" y="-245.8494" font-family="Times,serif" font-size="14.00" fill="#000000">abra</text>
</g>
<!-- G -->
<g id="node17" class="node">
<title>G</title>
<ellipse fill="none" stroke="#000000" cx="1553.727" cy="-310.6494" rx="40.5461" ry="40.5461"/>
<text text-anchor="middle" x="1553.727" y="-306.4494" font-family="Times,serif" font-size="14.00" fill="#000000">Grenier</text>
</g>
<!-- Cv&#45;&gt;G -->
<g id="edge25" class="edge">
<title>Cv-&gt;G</title>
<path fill="none" stroke="#000000" d="M1382.5107,-335.8289C1419.0779,-330.4512 1467.3377,-323.354 1503.2985,-318.0655"/>
<polygon fill="#000000" stroke="#000000" points="1504.1809,-321.4735 1513.5652,-316.5557 1503.1624,-314.548 1504.1809,-321.4735"/>
<text text-anchor="middle" x="1438.5655" y="-334.8494" font-family="Times,serif" font-size="14.00" fill="#000000">abraca</text>
</g>
<!-- Cr&#45;&gt;Sg -->
<g id="edge9" class="edge">
<title>Cr-&gt;Sg</title>
<path fill="none" stroke="#000000" d="M504.8743,-406.1158C541.2641,-382.371 586.6194,-352.7761 623.8019,-328.5141"/>
<polygon fill="#000000" stroke="#000000" points="626.1159,-331.1834 632.5781,-322.7875 622.2906,-325.321 626.1159,-331.1834"/>
<text text-anchor="middle" x="569.0412" y="-389.8494" font-family="Times,serif" font-size="14.00" fill="#000000">abra</text>
</g>
<!-- Cr&#45;&gt;TM -->
<g id="edge10" class="edge">
<title>Cr-&gt;TM</title>
<path fill="none" stroke="#000000" d="M517.2742,-444.9915C594.3582,-441.3571 712.5267,-435.7858 794.0198,-431.9436"/>
<polygon fill="#000000" stroke="#000000" points="794.4448,-435.4275 804.2688,-431.4603 794.115,-428.4353 794.4448,-435.4275"/>
<text text-anchor="middle" x="694.0912" y="-444.8494" font-family="Times,serif" font-size="14.00" fill="#000000">ra</text>
</g>
<!-- P -->
<g id="node13" class="node">
<title>P</title>
<ellipse fill="none" stroke="#000000" cx="694.0912" cy="-128.6494" rx="48.6694" ry="48.6694"/>
<text text-anchor="middle" x="694.0912" y="-124.4494" font-family="Times,serif" font-size="14.00" fill="#000000">Poulailler</text>
</g>
<!-- F&#45;&gt;P -->
<g id="edge7" class="edge">
<title>F-&gt;P</title>
<path fill="none" stroke="#000000" d="M497.7359,-97.0042C539.1921,-103.6854 594.7285,-112.6358 636.159,-119.3129"/>
<polygon fill="#000000" stroke="#000000" points="635.6741,-122.7798 646.1036,-120.9156 636.7879,-115.869 635.6741,-122.7798"/>
<text text-anchor="middle" x="569.0412" y="-117.8494" font-family="Times,serif" font-size="14.00" fill="#000000">bra</text>
</g>
<!-- P&#45;&gt;E -->
<g id="edge8" class="edge">
<title>P-&gt;E</title>
<path fill="none" stroke="#000000" d="M645.901,-137.0963C562.9737,-151.6321 394.123,-181.2288 310.1823,-195.9422"/>
<polygon fill="#000000" stroke="#000000" points="309.3801,-192.5294 300.1346,-197.7034 310.5887,-199.4243 309.3801,-192.5294"/>
<text text-anchor="middle" x="439.69" y="-190.8494" font-family="Times,serif" font-size="14.00" fill="#000000">bracadabra</text>
</g>
<!-- D&#45;&gt;C -->
<g id="edge15" class="edge">
<title>D-&gt;C</title>
<path fill="none" stroke="#000000" d="M1786.2203,-524.4431C1804.8789,-513.2724 1826.3359,-497.9411 1841.3748,-479.6494 1866.1983,-449.4568 1883.2055,-408.4701 1893.6979,-376.6661"/>
<polygon fill="#000000" stroke="#000000" points="1897.0407,-377.7035 1896.7465,-367.1128 1890.372,-375.5754 1897.0407,-377.7035"/>
<text text-anchor="middle" x="1825.0452" y="-512.8494" font-family="Times,serif" font-size="14.00" fill="#000000">pocus</text>
</g>
<!-- Ba -->
<g id="node15" class="node">
<title>Ba</title>
<ellipse fill="none" stroke="#000000" cx="1907.1502" cy="-562.6494" rx="47.5518" ry="47.5518"/>
<text text-anchor="middle" x="1907.1502" y="-558.4494" font-family="Times,serif" font-size="14.00" fill="#000000">Les bains</text>
</g>
<!-- D&#45;&gt;Ba -->
<g id="edge16" class="edge">
<title>D-&gt;Ba</title>
<path fill="none" stroke="#000000" d="M1789.2241,-556.9843C1795.7034,-558.4719 1802.3527,-559.7727 1808.7156,-560.6494 1821.5423,-562.4168 1835.3967,-563.3133 1848.5476,-563.6997"/>
<polygon fill="#000000" stroke="#000000" points="1848.8424,-567.2062 1858.9104,-563.907 1848.9825,-560.2076 1848.8424,-567.2062"/>
<text text-anchor="middle" x="1825.0452" y="-566.8494" font-family="Times,serif" font-size="14.00" fill="#000000">hocus</text>
</g>
<!-- Ba&#45;&gt;D -->
<g id="edge17" class="edge">
<title>Ba-&gt;D</title>
<path fill="none" stroke="#000000" d="M1862.7376,-545.028C1855.6908,-542.8829 1848.4065,-541.0336 1841.3748,-539.8494 1828.2207,-537.6342 1813.9024,-537.3096 1800.4852,-537.8983"/>
<polygon fill="#000000" stroke="#000000" points="1800.2036,-534.4089 1790.4349,-538.5103 1800.6292,-541.3959 1800.2036,-534.4089"/>
<text text-anchor="middle" x="1825.0452" y="-543.8494" font-family="Times,serif" font-size="14.00" fill="#000000">pocus</text>
</g>
<!-- Bi&#45;&gt;Sg -->
<g id="edge14" class="edge">
<title>Bi-&gt;Sg</title>
<path fill="none" stroke="#000000" d="M1048.6374,-326.6747C975.8106,-317.6316 856.852,-302.86 777.0525,-292.951"/>
<polygon fill="#000000" stroke="#000000" points="777.3901,-289.4661 767.035,-291.7071 776.5275,-296.4128 777.3901,-289.4661"/>
<text text-anchor="middle" x="885.0983" y="-320.8494" font-family="Times,serif" font-size="14.00" fill="#000000">hocus</text>
</g>
<!-- J -->
<g id="node18" class="node">
<title>J</title>
<ellipse fill="none" stroke="#000000" cx="1746.9672" cy="-333.6494" rx="34.769" ry="34.769"/>
<text text-anchor="middle" x="1746.9672" y="-329.4494" font-family="Times,serif" font-size="14.00" fill="#000000">Jardin</text>
</g>
<!-- G&#45;&gt;J -->
<g id="edge26" class="edge">
<title>G-&gt;J</title>
<path fill="none" stroke="#000000" d="M1594.2365,-315.471C1625.7936,-319.227 1669.5716,-324.4376 1702.1709,-328.3176"/>
<polygon fill="#000000" stroke="#000000" points="1701.989,-331.8206 1712.3326,-329.5271 1702.8164,-324.8697 1701.989,-331.8206"/>
<text text-anchor="middle" x="1666.1739" y="-330.8494" font-family="Times,serif" font-size="14.00" fill="#000000">dagran</text>
</g>
<!-- J&#45;&gt;Cv -->
<g id="edge27" class="edge">
<title>J-&gt;Cv</title>
<path fill="none" stroke="#000000" d="M1713.5366,-343.4274C1690.135,-349.7478 1658.0134,-357.3826 1629.129,-360.6494 1547.8412,-369.8429 1453.5629,-361.378 1392.7628,-353.4488"/>
<polygon fill="#000000" stroke="#000000" points="1392.9321,-349.9403 1382.5559,-352.0815 1392.0026,-356.8783 1392.9321,-349.9403"/>
<text text-anchor="middle" x="1553.727" y="-369.8494" font-family="Times,serif" font-size="14.00" fill="#000000">tesque</text>
</g>
<!-- qi -->
<g id="node19" class="node">
<title>qi</title>
<ellipse fill="#000000" stroke="#000000" cx="1.8" cy="-437.6494" rx="1.8" ry="1.8"/>
</g>
<!-- qi&#45;&gt;Pl -->
<g id="edge1" class="edge">
<title>qi-&gt;Pl</title>
<path fill="none" stroke="#000000" d="M3.6589,-437.6494C7.7163,-437.6494 17.9803,-437.6494 30.101,-437.6494"/>
<polygon fill="#000000" stroke="#000000" points="30.1366,-441.1495 40.1365,-437.6494 30.1365,-434.1495 30.1366,-441.1495"/>
</g>
</g>
</svg>