<?xml version="1.0" encoding="UTF-8" standalone="no"?>
<!DOCTYPE svg PUBLIC "-//W3C//DTD SVG 1.1//EN" "http://www.w3.org/Graphics/SVG/1.1/DTD/svg11.dtd">
<!-- Generated by graphviz version 2.40.1 (20161225.0304)
 -->
<!-- Title: finite_state_machine Pages: 1 -->
<svg width="576pt" height="149pt" viewBox="0.00 0.00 576.00 148.98" xmlns="http://www.w3.org/2000/svg" xmlns:xlink="http://www.w3.org/1999/xlink">
<g id="graph0" class="graph" transform="scale(.6261 .6261) rotate(0) translate(4 233.9305)">
<title>finite_state_machine</title>
<polygon fill="#ffffff" stroke="transparent" points="-4,4 -4,-233.9305 915.9383,-233.9305 915.9383,4 -4,4"/>
<!-- Pl -->
<g id="node1" class="node">
<title>Pl</title>
<ellipse fill="none" stroke="#000000" cx="90.7983" cy="-141.402" rx="50.3974" ry="50.3974"/>
<text text-anchor="middle" x="90.7983" y="-137.202" font-family="Times,serif" font-size="14.00" fill="#000000">Pont-levis</text>
</g>
<!-- O -->
<g id="node2" class="node">
<title>O</title>
<ellipse fill="none" stroke="#000000" cx="861.2098" cy="-144.402" rx="50.958" ry="50.958"/>
<text text-anchor="middle" x="861.2098" y="-140.202" font-family="Times,serif" font-size="14.00" fill="#000000">Oubliettes</text>
</g>
<!-- Pl&#45;&gt;O -->
<g id="edge2" class="edge">
<title>Pl-&gt;O</title>
<path fill="none" stroke="#000000" d="M136.3072,-162.8828C169.9844,-176.8207 217.3966,-192.402 261.0589,-192.402 261.0589,-192.402 261.0589,-192.402 661.4887,-192.402 710.4726,-192.402 764.3899,-178.5829 803.8442,-165.7743"/>
<polygon fill="#000000" stroke="#000000" points="805.1655,-169.0236 813.5516,-162.5487 802.9581,-162.3807 805.1655,-169.0236"/>
<text text-anchor="middle" x="437.094" y="-196.602" font-family="Times,serif" font-size="14.00" fill="#000000">abra</text>
</g>
<!-- C -->
<g id="node4" class="node">
<title>C</title>
<ellipse fill="none" stroke="#000000" cx="261.0589" cy="-89.402" rx="40.5867" ry="40.5867"/>
<text text-anchor="middle" x="261.0589" y="-85.202" font-family="Times,serif" font-size="14.00" fill="#000000">Cuisine</text>
</g>
<!-- Pl&#45;&gt;C -->
<g id="edge3" class="edge">
<title>Pl-&gt;C</title>
<path fill="none" stroke="#000000" d="M139.1328,-126.64C161.9987,-119.6564 189.2503,-111.3333 212.1847,-104.3289"/>
<polygon fill="#000000" stroke="#000000" points="213.5129,-107.5829 222.0544,-101.3145 211.4682,-100.8882 213.5129,-107.5829"/>
<text text-anchor="middle" x="180.7561" y="-124.602" font-family="Times,serif" font-size="14.00" fill="#000000">cadabra</text>
</g>
<!-- O&#45;&gt;O -->
<g id="edge6" class="edge">
<title>O-&gt;O</title>
<path fill="none" stroke="#000000" d="M844.5985,-192.5757C845.8289,-204.3604 851.3661,-213.1305 861.2098,-213.1305 867.9774,-213.1305 872.7094,-208.9852 875.4059,-202.565"/>
<polygon fill="#000000" stroke="#000000" points="878.8729,-203.1182 877.8211,-192.5757 872.069,-201.473 878.8729,-203.1182"/>
<text text-anchor="middle" x="861.2098" y="-217.3305" font-family="Times,serif" font-size="14.00" fill="#000000">abracadabra</text>
</g>
<!-- St -->
<g id="node3" class="node">
<title>St</title>
<ellipse fill="none" stroke="#000000" cx="661.4887" cy="-95.402" rx="65.4489" ry="65.4489"/>
<ellipse fill="none" stroke="#000000" cx="661.4887" cy="-95.402" rx="69.4474" ry="69.4474"/>
<text text-anchor="middle" x="661.4887" y="-91.202" font-family="Times,serif" font-size="14.00" fill="#000000">Salle du trône</text>
</g>
<!-- St&#45;&gt;O -->
<g id="edge10" class="edge">
<title>St-&gt;O</title>
<path fill="none" stroke="#000000" d="M729.1051,-111.9911C752.6652,-117.7714 778.9076,-124.2098 801.7556,-129.8154"/>
<polygon fill="#000000" stroke="#000000" points="801.1102,-133.2607 811.6561,-132.2444 802.7781,-126.4624 801.1102,-133.2607"/>
<text text-anchor="middle" x="770.7218" y="-131.602" font-family="Times,serif" font-size="14.00" fill="#000000">cadabra</text>
</g>
<!-- Sb -->
<g id="node5" class="node">
<title>Sb</title>
<ellipse fill="none" stroke="#000000" cx="437.094" cy="-75.402" rx="75.3041" ry="75.3041"/>
<text text-anchor="middle" x="437.094" y="-71.202" font-family="Times,serif" font-size="14.00" fill="#000000">Salle du banquet</text>
</g>
<!-- St&#45;&gt;Sb -->
<g id="edge9" class="edge">
<title>St-&gt;Sb</title>
<path fill="none" stroke="#000000" d="M596.7334,-69.0582C589.1761,-66.8249 581.4945,-64.9193 574.015,-63.602 557.1225,-60.6267 538.9199,-60.253 521.475,-61.2545"/>
<polygon fill="#000000" stroke="#000000" points="521.0268,-57.7777 511.307,-61.9937 521.5345,-64.7593 521.0268,-57.7777"/>
<text text-anchor="middle" x="552.2555" y="-68.602" font-family="Times,serif" font-size="14.00" fill="#000000">abra</text>
</g>
<!-- C&#45;&gt;C -->
<g id="edge4" class="edge">
<title>C-&gt;C</title>
<path fill="none" stroke="#000000" d="M247.9732,-127.9694C248.4255,-139.2261 252.7874,-147.9453 261.0589,-147.9453 266.6163,-147.9453 270.4089,-144.0093 272.4366,-138.0122"/>
<polygon fill="#000000" stroke="#000000" points="275.9183,-138.4148 274.1447,-127.9694 269.0174,-137.241 275.9183,-138.4148"/>
<text text-anchor="middle" x="261.0589" y="-152.1453" font-family="Times,serif" font-size="14.00" fill="#000000">cadabra</text>
</g>
<!-- C&#45;&gt;Sb -->
<g id="edge5" class="edge">
<title>C-&gt;Sb</title>
<path fill="none" stroke="#000000" d="M301.8874,-86.1549C316.8305,-84.9665 334.35,-83.5732 351.7313,-82.1908"/>
<polygon fill="#000000" stroke="#000000" points="352.2377,-85.6617 361.9287,-81.3798 351.6826,-78.6837 352.2377,-85.6617"/>
<text text-anchor="middle" x="331.6471" y="-89.602" font-family="Times,serif" font-size="14.00" fill="#000000">abra</text>
</g>
<!-- Sb&#45;&gt;St -->
<g id="edge8" class="edge">
<title>Sb-&gt;St</title>
<path fill="none" stroke="#000000" d="M512.4384,-82.1173C534.7417,-84.1052 559.2307,-86.2879 581.799,-88.2993"/>
<polygon fill="#000000" stroke="#000000" points="581.7471,-91.8085 592.0183,-89.2102 582.3686,-84.8361 581.7471,-91.8085"/>
<text text-anchor="middle" x="552.2555" y="-91.602" font-family="Times,serif" font-size="14.00" fill="#000000">cadabra</text>
</g>
<!-- Sb&#45;&gt;C -->
<g id="edge7" class="edge">
<title>Sb-&gt;C</title>
<path fill="none" stroke="#000000" d="M363.0635,-60.0835C348.5628,-59.1195 333.5354,-59.5644 319.6022,-62.602 315.1824,-63.5655 310.697,-64.8942 306.2772,-66.4484"/>
<polygon fill="#000000" stroke="#000000" points="304.8045,-63.2658 296.7571,-70.1571 307.3455,-69.7884 304.8045,-63.2658"/>
<text text-anchor="middle" x="331.6471" y="-67.602" font-family="Times,serif" font-size="14.00" fill="#000000">abra</text>
</g>
<!-- qi -->
<g id="node6" class="node">
<title>qi</title>
<ellipse fill="#000000" stroke="#000000" cx="1.8" cy="-141.402" rx="1.8" ry="1.8"/>
</g>
<!-- qi&#45;&gt;Pl -->
<g id="edge1" class="edge">
<title>qi-&gt;Pl</title>
<path fill="none" stroke="#000000" d="M3.6589,-141.402C7.7163,-141.402 17.9803,-141.402 30.101,-141.402"/>
<polygon fill="#000000" stroke="#000000" points="30.1366,-144.9021 40.1365,-141.402 30.1365,-137.9021 30.1366,-144.9021"/>
</g>
</g>
</svg>