<?xml version="1.0" encoding="UTF-8" standalone="no"?>
<!DOCTYPE svg PUBLIC "-//W3C//DTD SVG 1.1//EN" "http://www.w3.org/Graphics/SVG/1.1/DTD/svg11.dtd">
<!-- Generated by graphviz version 2.40.1 (20161225.0304)
 -->
<!-- Title: finite_state_machine Pages: 1 -->
<svg width="408pt" height="92pt" viewBox="0.00 0.00 407.81 91.80" xmlns="http://www.w3.org/2000/svg" xmlns:xlink="http://www.w3.org/1999/xlink">
<g id="graph0" class="graph" transform="scale(1 1) rotate(0) translate(4 87.8)">
<title>finite_state_machine</title>
<polygon fill="#ffffff" stroke="transparent" points="-4,4 -4,-87.8 403.8146,-87.8 403.8146,4 -4,4"/>
<!-- n1 -->
<g id="node1" class="node">
<title>n1</title>
<ellipse fill="none" stroke="#000000" cx="58.6" cy="-22" rx="18" ry="18"/>
<text text-anchor="middle" x="58.6" y="-17.8" font-family="Times,serif" font-size="14.00" fill="#000000">1</text>
</g>
<!-- n2 -->
<g id="node2" class="node">
<title>n2</title>
<ellipse fill="none" stroke="#000000" cx="136.8146" cy="-52" rx="18" ry="18"/>
<text text-anchor="middle" x="136.8146" y="-47.8" font-family="Times,serif" font-size="14.00" fill="#000000">2</text>
</g>
<!-- n1&#45;&gt;n2 -->
<g id="edge2" class="edge">
<title>n1-&gt;n2</title>
<path fill="none" stroke="#000000" d="M75.5714,-28.5096C85.7183,-32.4015 98.8297,-37.4305 110.316,-41.8362"/>
<polygon fill="#000000" stroke="#000000" points="109.2861,-45.1897 119.8763,-45.5032 111.793,-38.654 109.2861,-45.1897"/>
<text text-anchor="middle" x="97.7073" y="-42.2" font-family="Times,serif" font-size="14.00" fill="#000000">a</text>
</g>
<!-- n4 -->
<g id="node4" class="node">
<title>n4</title>
<ellipse fill="none" stroke="#000000" cx="298.8146" cy="-22" rx="18" ry="18"/>
<ellipse fill="none" stroke="#000000" cx="298.8146" cy="-22" rx="22" ry="22"/>
<text text-anchor="middle" x="298.8146" y="-17.8" font-family="Times,serif" font-size="14.00" fill="#000000">4</text>
</g>
<!-- n1&#45;&gt;n4 -->
<g id="edge3" class="edge">
<title>n1-&gt;n4</title>
<path fill="none" stroke="#000000" d="M76.6551,-22C117.0956,-22 215.4048,-22 266.6084,-22"/>
<polygon fill="#000000" stroke="#000000" points="266.7819,-25.5001 276.7819,-22 266.7818,-18.5001 266.7819,-25.5001"/>
<text text-anchor="middle" x="176.3146" y="-26.2" font-family="Times,serif" font-size="14.00" fill="#000000">b</text>
</g>
<!-- n3 -->
<g id="node3" class="node">
<title>n3</title>
<ellipse fill="none" stroke="#000000" cx="215.8146" cy="-52" rx="18" ry="18"/>
<text text-anchor="middle" x="215.8146" y="-47.8" font-family="Times,serif" font-size="14.00" fill="#000000">3</text>
</g>
<!-- n2&#45;&gt;n3 -->
<g id="edge4" class="edge">
<title>n2-&gt;n3</title>
<path fill="none" stroke="#000000" d="M152.8715,-60.2833C158.9518,-62.9892 166.0425,-65.6456 172.8146,-67 178.7747,-68.192 185.0327,-67.3155 190.8724,-65.5053"/>
<polygon fill="#000000" stroke="#000000" points="192.1971,-68.7451 200.1787,-61.7776 189.5942,-62.2469 192.1971,-68.7451"/>
<text text-anchor="middle" x="176.3146" y="-71.2" font-family="Times,serif" font-size="14.00" fill="#000000">a</text>
</g>
<!-- n3&#45;&gt;n2 -->
<g id="edge5" class="edge">
<title>n3-&gt;n2</title>
<path fill="none" stroke="#000000" d="M197.869,-47.8472C190.175,-46.5168 181.0744,-45.5389 172.8146,-46.2 170.2194,-46.4077 167.529,-46.6984 164.841,-47.04"/>
<polygon fill="#000000" stroke="#000000" points="164.0714,-43.6156 154.6916,-48.5421 165.0963,-50.5402 164.0714,-43.6156"/>
<text text-anchor="middle" x="176.3146" y="-51.2" font-family="Times,serif" font-size="14.00" fill="#000000">a</text>
</g>
<!-- n3&#45;&gt;n4 -->
<g id="edge6" class="edge">
<title>n3-&gt;n4</title>
<path fill="none" stroke="#000000" d="M233.0123,-45.784C243.2507,-42.0833 256.5363,-37.2813 268.4865,-32.962"/>
<polygon fill="#000000" stroke="#000000" points="269.8996,-36.1729 278.1144,-29.482 267.5201,-29.5897 269.8996,-36.1729"/>
<text text-anchor="middle" x="255.3146" y="-43.2" font-family="Times,serif" font-size="14.00" fill="#000000">b</text>
</g>
<!-- n5 -->
<g id="node5" class="node">
<title>n5</title>
<ellipse fill="none" stroke="#000000" cx="381.8146" cy="-22" rx="18" ry="18"/>
<text text-anchor="middle" x="381.8146" y="-17.8" font-family="Times,serif" font-size="14.00" fill="#000000">5</text>
</g>
<!-- n4&#45;&gt;n5 -->
<g id="edge7" class="edge">
<title>n4-&gt;n5</title>
<path fill="none" stroke="#000000" d="M321.0571,-22C331.069,-22 343.0023,-22 353.6318,-22"/>
<polygon fill="#000000" stroke="#000000" points="353.7073,-25.5001 363.7073,-22 353.7072,-18.5001 353.7073,-25.5001"/>
<text text-anchor="middle" x="342.3146" y="-26.2" font-family="Times,serif" font-size="14.00" fill="#000000">b</text>
</g>
<!-- n5&#45;&gt;n4 -->
<g id="edge8" class="edge">
<title>n5-&gt;n4</title>
<path fill="none" stroke="#000000" d="M367.1801,-11.2066C360.9281,-7.2363 353.3443,-3.2189 345.8146,-1.2 338.9816,.6321 331.8731,-.6655 325.3152,-3.3301"/>
<polygon fill="#000000" stroke="#000000" points="323.4977,-.3286 316.197,-8.0066 326.6923,-6.5572 323.4977,-.3286"/>
<text text-anchor="middle" x="342.3146" y="-6.2" font-family="Times,serif" font-size="14.00" fill="#000000">b</text>
</g>
<!-- p -->
<g id="node6" class="node">
<title>p</title>
<ellipse fill="#000000" stroke="#000000" cx="1.8" cy="-22" rx="1.8" ry="1.8"/>
</g>
<!-- p&#45;&gt;n1 -->
<g id="edge1" class="edge">
<title>p-&gt;n1</title>
<path fill="none" stroke="#000000" d="M3.6898,-22C8.0522,-22 19.3107,-22 30.5058,-22"/>
<polygon fill="#000000" stroke="#000000" points="30.5696,-25.5001 40.5696,-22 30.5696,-18.5001 30.5696,-25.5001"/>
</g>
</g>
</svg>