<?xml version="1.0" encoding="UTF-8" standalone="no"?>
<svg
   xmlns:dc="http://purl.org/dc/elements/1.1/"
   xmlns:cc="http://creativecommons.org/ns#"
   xmlns:rdf="http://www.w3.org/1999/02/22-rdf-syntax-ns#"
   xmlns:svg="http://www.w3.org/2000/svg"
   xmlns="http://www.w3.org/2000/svg"
   xmlns:sodipodi="http://sodipodi.sourceforge.net/DTD/sodipodi-0.dtd"
   xmlns:inkscape="http://www.inkscape.org/namespaces/inkscape"
   sodipodi:docname="anchor.svg"
   inkscape:version="1.0 (4035a4fb49, 2020-05-01)"
   id="svg8"
   version="1.1"
   viewBox="0 0 210 297"
   height="297mm"
   width="210mm">
  <defs
     id="defs2" />
  <sodipodi:namedview
     inkscape:window-maximized="0"
     inkscape:window-y="34"
     inkscape:window-x="130"
     inkscape:window-height="967"
     inkscape:window-width="1375"
     showgrid="false"
     inkscape:document-rotation="0"
     inkscape:current-layer="layer1"
     inkscape:document-units="mm"
     inkscape:cy="675.36742"
     inkscape:cx="408.48903"
     inkscape:zoom="0.49497475"
     inkscape:pageshadow="2"
     inkscape:pageopacity="0.0"
     borderopacity="1.0"
     bordercolor="#666666"
     pagecolor="#ffffff"
     id="base" />
  <metadata
     id="metadata5">
    <rdf:RDF>
      <cc:Work
         rdf:about="">
        <dc:format>image/svg+xml</dc:format>
        <dc:type
           rdf:resource="http://purl.org/dc/dcmitype/StillImage" />
        <dc:title></dc:title>
      </cc:Work>
    </rdf:RDF>
  </metadata>
  <g
     id="layer1"
     inkscape:groupmode="layer"
     inkscape:label="Layer 1">
    <path
       id="path982"
       d="m 84.047417,154.04887 c -0.576666,-1.55377 -1.668511,-2.89238 -3.630083,-4.45048 -2.801453,-2.22524 -4.563645,-3.85497 -6.419996,-5.93741 -2.507569,-2.81301 -4.451624,-5.81747 -5.720237,-8.84046 -0.776669,-1.85074 -1.533795,-4.68418 -1.789069,-6.6954 -0.425213,-3.35011 -0.282994,-6.38146 0.489476,-10.43295 0.139996,-0.73428 0.225158,-1.3504 0.189233,-1.36913 -0.03593,-0.0187 -0.849642,-0.12396 -1.808272,-0.23383 -0.958636,-0.10986 -1.84843,-0.2541 -1.977324,-0.32052 -0.347116,-0.17887 -0.426962,-0.50628 -0.22096,-0.90605 0.09399,-0.1824 0.840306,-1.06542 1.658474,-1.96227 0.818168,-0.89685 2.021136,-2.21472 2.673263,-2.92861 0.652123,-0.71389 1.809133,-1.98167 2.571131,-2.81729 2.489086,-2.72957 2.449951,-2.6968 2.927436,-2.45075 0.335761,0.17302 0.454403,0.44205 0.604279,1.3702 0.05296,0.32795 0.145219,0.8857 0.205027,1.23945 0.05981,0.35375 0.178999,1.06208 0.264858,1.57408 0.08586,0.51201 0.230461,1.34186 0.321327,1.84415 0.09088,0.50227 0.221925,1.2483 0.291233,1.65783 0.227765,1.34587 0.489267,2.87405 0.643085,3.75811 0.414949,2.38485 0.432739,2.56131 0.286813,2.84449 -0.09557,0.18548 -0.217607,0.29283 -0.376183,0.33096 -0.210765,0.0507 -0.404481,-0.0263 -1.897767,-0.75396 l -1.663,-0.8105 0.0017,1.35115 c 0.0038,2.97989 0.360348,5.27351 1.203139,7.74044 0.894508,2.61827 2.331632,5.19158 3.817318,6.83533 2.658193,2.94094 6.818938,4.74238 9.284859,4.01997 1.047942,-0.30701 1.85412,-1.02739 3.244868,-2.89952 0.746215,-1.00451 1.088409,-1.59574 5.33215,-9.21267 2.494118,-4.4766 5.561425,-9.99876 6.816255,-12.27147 1.25482,-2.27272 3.67854,-6.63819 5.38605,-9.70106 1.70751,-3.06286 3.1003,-5.581112 3.09509,-5.596122 -0.005,-0.015 -2.00452,-1.06005 -4.44288,-2.32241 l -4.4336,-2.29478 -0.37765,0.15775 c -0.56254,0.23499 -1.049016,0.34003 -1.740538,0.37581 -0.81822,0.0423 -1.353835,-0.0707 -2.269622,-0.47874 -1.361121,-0.60645 -2.25524,-1.55619 -2.702919,-2.87074 -0.446912,-1.31228 -0.373938,-2.35781 0.248624,-3.56214 0.642741,-1.24337 1.463566,-1.94073 2.72183,-2.31242 1.313708,-0.38808 2.429089,-0.26652 3.736555,0.40723 0.39421,0.20314 0.89736,0.52766 1.1273,0.72724 0.73437,0.63713 1.38582,1.74873 1.51521,2.5854 l 0.0634,0.40973 4.53815,2.33854 4.53815,2.33854 0.85656,-1.53741 c 0.4711,-0.8456 1.20199,-2.15561 1.6242,-2.91115 l 0.76765,-1.3737 -0.30291,-0.33624 c -0.95462,-1.05958 -1.73409,-2.86195 -1.91082,-4.418358 -0.14472,-1.274483 0.0157,-2.489636 0.4965,-3.760705 1.19717,-3.165011 4.37062,-5.198271 7.91365,-5.07036 1.1306,0.04082 1.69851,0.157874 2.82848,0.583005 3.72369,1.400969 6.00539,4.883193 5.68893,8.682176 -0.22304,2.677632 -1.84688,5.105272 -4.23004,6.323932 -1.26373,0.64624 -2.89805,0.99514 -4.21941,0.90078 l -0.72954,-0.0521 -0.67628,1.4208 c -0.37195,0.78144 -1.01621,2.1361 -1.4317,3.01035 l -0.75541,1.58954 4.53083,2.33476 4.53082,2.334772 0.53376,-0.23067 c 0.64283,-0.27781 1.86375,-0.4078 2.58147,-0.27486 0.74274,0.13759 2.38471,0.9872 2.87947,1.49056 1.45426,1.47738 1.77517,3.57861 0.82742,5.41781 -0.79117,1.53533 -2.15815,2.39978 -3.941,2.49216 -2.26465,0.11736 -4.69081,-1.72094 -5.11383,-3.87474 l -0.0867,-0.44137 -4.48479,-2.31105 -4.48479,-2.31104 -0.45594,0.9989 c -0.44375,0.97215 -5.52461,11.64833 -7.07331,14.86279 -0.42501,0.88215 -1.04457,2.1762 -1.37679,2.87568 -0.33222,0.69948 -2.40629,5.06351 -4.60903,9.69784 -4.024603,8.4673 -4.200954,8.86655 -4.748937,10.7515 -0.222625,0.76578 -0.388615,1.78393 -0.37981,2.32973 0.01046,0.64823 0.367103,1.51999 0.908965,2.22183 1.797912,2.32871 5.576022,3.99983 9.201902,4.07015 1.64111,0.0318 2.67207,-0.0587 4.33813,-0.38084 3.32681,-0.64329 6.10553,-1.86112 9.13325,-4.00283 l 1.18051,-0.83506 -1.6276,-0.88517 c -1.46167,-0.79494 -1.63674,-0.90811 -1.71782,-1.10916 -0.0608,-0.15085 -0.0444,-0.31299 0.0504,-0.49692 0.14566,-0.28267 0.5284,-0.50144 2.427,-1.38728 0.42519,-0.19838 0.93551,-0.44462 1.13402,-0.5472 0.19852,-0.10257 0.74466,-0.36589 1.21365,-0.58517 0.469,-0.21926 0.99597,-0.47151 1.17106,-0.56055 0.17508,-0.089 0.59789,-0.29686 0.93955,-0.46184 0.34168,-0.16498 0.92722,-0.44991 1.30121,-0.63317 0.37399,-0.18326 1.20925,-0.58427 1.85614,-0.89112 0.64691,-0.30684 1.42266,-0.68114 1.72391,-0.83177 0.30127,-0.15063 0.6721,-0.30525 0.8241,-0.34359 0.29005,-0.0732 0.65421,0.0607 0.83016,0.30522 0.15712,0.21833 0.13707,0.34897 -0.51686,3.36891 -0.21452,0.99062 -0.59513,2.76398 -0.84582,3.94081 -1.36827,6.42325 -1.404,6.55687 -1.8011,6.7353 -0.34315,0.15418 -0.70083,-0.0609 -1.39376,-0.83819 -0.93569,-1.04956 -1.81627,-1.98348 -1.85324,-1.96551 -0.0176,0.009 -0.43746,0.43522 -0.93298,0.94812 -1.05765,1.09478 -1.70599,1.72138 -2.7023,2.61168 -3.44334,3.07698 -7.4313,5.1739 -11.82579,6.21817 -1.64174,0.39011 -1.97547,0.44944 -3.29083,0.58498 -4.94063,0.50909 -9.795675,-0.0451 -15.969692,-1.82298 -2.547005,-0.73343 -4.311733,-0.83121 -5.953634,-0.32989 -0.348965,0.10655 -0.687332,0.16523 -0.751919,0.1304 -0.06477,-0.0345 -0.256257,-0.43743 -0.425942,-0.89463 z m 1.157051,0.52053 c 1.575042,-0.48372 3.380508,-0.37754 5.89571,0.34673 6.174017,1.77786 11.029072,2.33206 15.969692,1.82297 1.31536,-0.13553 1.64908,-0.19486 3.29083,-0.58498 2.75076,-0.65367 5.24394,-1.68249 7.84899,-3.23893 2.02381,-1.20917 4.22138,-3.05023 6.74127,-5.64766 0.49535,-0.5106 0.94596,-0.92065 1.00135,-0.91123 0.0554,0.009 0.27668,0.2112 0.49175,0.44846 0.21509,0.23723 0.78907,0.8711 1.27556,1.4086 0.88999,0.98338 1.0484,1.09388 1.3691,0.95502 0.29267,-0.12672 0.25631,0.0168 1.62949,-6.42949 0.25068,-1.17684 0.6303,-2.94734 0.8436,-3.93446 0.67989,-3.14645 0.69084,-3.2274 0.46556,-3.44551 -0.18288,-0.17703 -0.48738,-0.12116 -1.18095,0.21675 -0.32903,0.1603 -1.11884,0.54057 -1.75513,0.84502 -0.63631,0.30447 -1.42621,0.68718 -1.75536,0.85047 -0.32915,0.16329 -0.80191,0.38973 -1.05057,0.50321 -0.24866,0.11348 -0.64858,0.30548 -0.8887,0.42669 -0.24013,0.12121 -0.90253,0.44122 -1.47199,0.71114 -0.56947,0.26995 -1.19739,0.57494 -1.39536,0.67779 -0.19798,0.10283 -0.70785,0.3493 -1.13306,0.54768 -1.50891,0.70402 -2.28719,1.11599 -2.35428,1.24619 -0.0374,0.0725 -0.0117,0.24776 0.0571,0.38935 0.11745,0.24178 0.22328,0.30806 1.7378,1.0885 1.5347,0.79085 1.60907,0.83817 1.54047,0.97131 -0.17843,0.34625 -2.81672,2.11234 -4.36978,2.92516 -2.67053,1.39768 -6.48992,2.43242 -9.17894,2.48671 -2.56616,0.0518 -4.31007,-0.27104 -6.49165,-1.20186 -2.519392,-1.07493 -4.412213,-2.71927 -4.936563,-4.28849 -0.374813,-1.1217 -0.237905,-2.15371 0.633419,-4.7747 0.250297,-0.75292 0.789813,-1.929 3.627814,-7.90822 0.6641,-1.39914 1.96641,-4.14325 2.89402,-6.09802 0.92761,-1.95476 2.32639,-4.87964 3.10839,-6.49971 0.78201,-1.62008 1.92462,-4.00648 2.53915,-5.30312 0.61453,-1.29664 1.6705,-3.51818 2.3466,-4.93675 0.6761,-1.41856 1.72086,-3.62014 2.32169,-4.8924 0.60085,-1.27227 1.11299,-2.31922 1.13811,-2.32658 0.0251,-0.007 2.11129,1.05073 4.63597,2.35126 l 4.59029,2.36467 0.0736,0.29778 c 0.32326,1.3084 0.79691,2.08292 1.72191,2.81575 0.69755,0.5526 1.06868,0.73651 1.88349,0.93334 1.5413,0.37225 3.21479,-0.0751 4.32158,-1.15517 1.71516,-1.6738 1.66269,-4.51952 -0.11665,-6.32713 -0.48626,-0.49398 -1.84189,-1.19579 -2.57029,-1.33124 -0.71773,-0.13295 -1.93865,-0.003 -2.58148,0.27484 l -0.53375,0.23067 -4.68454,-2.413972 -4.68453,-2.41397 0.66141,-1.40518 c 0.36378,-0.77285 1.04131,-2.19417 1.50562,-3.15849 l 0.8442,-1.75332 0.73057,0.0526 c 2.23052,0.16069 4.65523,-0.77313 6.25908,-2.41053 2.126,-2.17048 2.68129,-5.55411 1.3941,-8.495061 -1.0945,-2.500721 -3.27485,-4.295461 -6.034,-4.966852 -0.84162,-0.204795 -2.43808,-0.218333 -3.42533,-0.02905 -4.64239,0.890079 -7.33988,5.157226 -6.10895,9.663741 0.30382,1.11232 0.97004,2.38619 1.6486,3.1523 l 0.29351,0.33137 -0.3393,0.66324 c -0.18662,0.36478 -0.94861,1.74259 -1.69329,3.06178 l -1.35397,2.39855 -4.69008,-2.41683 -4.69007,-2.41683 -0.0634,-0.40972 c -0.12938,-0.83668 -0.78085,-1.94826 -1.51521,-2.58541 -1.945139,-1.68763 -4.881579,-1.55756 -6.599696,0.29232 -0.729493,0.78544 -1.183289,2.20806 -1.040023,3.26044 0.09001,0.66122 0.427873,1.58653 0.779351,2.13441 0.441411,0.68807 1.268463,1.38126 2.035854,1.70635 0.78784,0.33376 1.35297,0.44112 2.114413,0.40172 0.696473,-0.036 1.177939,-0.14079 1.755221,-0.38191 l 0.39232,-0.16388 4.57546,2.38746 c 2.5165,1.31309 4.57981,2.39973 4.58515,2.41474 0.005,0.0151 -1.72921,3.150954 -3.85449,6.968654 -2.12526,3.81769 -4.29388,7.7255 -4.81913,8.68403 -0.52526,0.95853 -1.22766,2.23085 -1.560872,2.82737 -0.333218,0.59654 -2.389076,4.29329 -4.568565,8.21497 -5.143179,9.25445 -5.097926,9.17609 -6.004452,10.39664 -1.367375,1.84102 -2.180038,2.56475 -3.223012,2.87029 -1.586079,0.46467 -4.001532,-0.11796 -6.291705,-1.51758 -2.011852,-1.22954 -3.149403,-2.2847 -4.428137,-4.10744 -1.815899,-2.58847 -3.168184,-6.03178 -3.642661,-9.27537 -0.246479,-1.68494 -0.354709,-5.05806 -0.173572,-5.40957 0.06691,-0.12985 0.160242,-0.0914 1.683576,0.69357 1.514522,0.78045 1.629945,0.82811 1.894975,0.7835 0.480612,-0.081 0.480636,-0.073 -0.0085,-2.88438 -0.153822,-0.88405 -0.415324,-2.41223 -0.643084,-3.75811 -0.06931,-0.40953 -0.200363,-1.15555 -0.291234,-1.65783 -0.09087,-0.50228 -0.235467,-1.33215 -0.321326,-1.84415 -0.08586,-0.51199 -0.20505,-1.22033 -0.264858,-1.57408 -0.05981,-0.35375 -0.152077,-0.91149 -0.205028,-1.23945 -0.18816,-1.16524 -0.386836,-1.46636 -0.815779,-1.23637 -0.263473,0.14127 -0.490619,0.37497 -2.406768,2.47625 -0.761993,0.83561 -1.919196,2.10328 -2.571564,2.81705 -0.652367,0.71377 -1.874219,2.0537 -2.715224,2.97763 -2.213884,2.43217 -2.223359,2.38376 0.528044,2.698 1.03607,0.11835 1.928416,0.24993 1.982986,0.29241 0.06409,0.0499 -8.01e-4,0.61967 -0.183305,1.60941 -0.629412,3.41343 -0.825237,6.04819 -0.639795,8.60832 0.251018,3.46546 1.219031,7.01016 2.752305,10.0785 1.734099,3.47021 4.461474,6.96983 7.935799,10.18282 0.851286,0.78725 2.055386,1.80413 3.416701,2.88545 1.935096,1.53707 3.049191,2.89298 3.609825,4.39334 0.159233,0.42613 0.307668,0.78548 0.329862,0.79854 0.0224,0.0126 0.299849,-0.0559 0.617014,-0.15334 z M 118.66615,85.735408 c -1.35223,-1.23314 -1.90097,-3.027962 -1.44386,-4.722689 0.54884,-2.034852 2.49288,-3.417347 4.65357,-3.309367 0.80641,0.0403 1.38651,0.199096 2.12592,0.58195 1.2032,0.622944 1.95837,1.493492 2.40844,2.7762 0.31841,0.907469 0.35769,1.717134 0.12609,2.599077 -0.63358,2.412719 -3.06437,3.827479 -5.59272,3.255069 -0.54356,-0.12305 -1.8745,-0.81279 -2.2774,-1.1803 z m 2.19868,0.95342 c 1.79267,0.40585 3.59249,-0.18136 4.71568,-1.53853 1.17557,-1.420478 1.15626,-3.6534 -0.046,-5.318258 -1.83856,-2.546006 -5.69939,-2.551814 -7.55478,-0.01136 -1.21141,1.658694 -0.80017,4.281453 0.91683,5.847223 0.40163,0.36625 1.42797,0.89861 1.96828,1.02091 z"
       style="fill:#000000;stroke-width:0.0848386" />
  </g>
</svg>
