<?xml version="1.0" encoding="UTF-8" standalone="no"?>
<svg
   xmlns:dc="http://purl.org/dc/elements/1.1/"
   xmlns:cc="http://creativecommons.org/ns#"
   xmlns:rdf="http://www.w3.org/1999/02/22-rdf-syntax-ns#"
   xmlns:svg="http://www.w3.org/2000/svg"
   xmlns="http://www.w3.org/2000/svg"
   xmlns:xlink="http://www.w3.org/1999/xlink"
   xmlns:sodipodi="http://sodipodi.sourceforge.net/DTD/sodipodi-0.dtd"
   xmlns:inkscape="http://www.inkscape.org/namespaces/inkscape"
   sodipodi:docname="fish.svg"
   inkscape:version="1.0 (4035a4fb49, 2020-05-01)"
   id="svg8"
   version="1.1"
   viewBox="0 0 210 297"
   height="297mm"
   width="210mm">
  <defs
     id="defs2" />
  <sodipodi:namedview
     inkscape:window-maximized="0"
     inkscape:window-y="34"
     inkscape:window-x="130"
     inkscape:window-height="967"
     inkscape:window-width="1375"
     showgrid="false"
     inkscape:document-rotation="0"
     inkscape:current-layer="layer1"
     inkscape:document-units="mm"
     inkscape:cy="327.14365"
     inkscape:cx="554.25186"
     inkscape:zoom="0.49497475"
     inkscape:pageshadow="2"
     inkscape:pageopacity="0.0"
     borderopacity="1.0"
     bordercolor="#666666"
     pagecolor="#ffffff"
     id="base" />
  <metadata
     id="metadata5">
    <rdf:RDF>
      <cc:Work
         rdf:about="">
        <dc:format>image/svg+xml</dc:format>
        <dc:type
           rdf:resource="http://purl.org/dc/dcmitype/StillImage" />
        <dc:title></dc:title>
      </cc:Work>
    </rdf:RDF>
  </metadata>
  <g
     id="layer1"
     inkscape:groupmode="layer"
     inkscape:label="Layer 1">
    <path
       id="path895"
       d="m 114.62093,145.44976 c -0.13503,0.16064 -0.39346,0.12664 -1.41832,-0.18661 -1.60066,-0.48924 -2.04718,-0.69594 -3.2918,-1.52382 -0.55939,-0.37209 -1.52541,-0.95277 -2.1467,-1.29039 -1.06525,-0.57888 -1.23443,-0.62166 -2.96919,-0.75088 -2.57925,-0.19214 -2.85248,-0.0925 -3.4339,1.25254 -0.25067,0.5799 -0.52293,1.5417 -0.60501,2.13733 -0.10844,0.78704 -0.21921,1.0805 -0.40528,1.07391 -0.28565,-0.0101 -4.675744,-1.96963 -5.208884,-2.32499 -0.2996,-0.19969 -0.50537,-0.19068 -1.72327,0.0755 -0.76068,0.16623 -1.84664,0.32978 -2.41323,0.36344 -0.85099,0.0506 -1.01032,0.10385 -0.91599,0.30635 0.59468,1.27669 0.71264,2.61409 0.24926,2.82612 -0.50188,0.22965 -0.7598,0.1172 -2.180873,-0.95089 -0.80578,-0.60563 -1.802832,-1.27985 -2.215674,-1.49828 l -0.750616,-0.39714 -3.228832,0.0628 c -2.341279,0.0455 -3.682142,0.003 -4.877979,-0.15479 -1.970305,-0.25994 -6.873714,-1.54187 -9.360454,-2.44717 -0.981894,-0.35747 -2.135971,-0.7398 -2.564615,-0.84965 -0.980419,-0.25123 -2.839005,-1.21476 -3.181104,-1.64914 -0.190364,-0.24172 -0.204752,-0.40285 -0.05431,-0.6082 0.139571,-0.1905 0.147339,-0.34049 0.02443,-0.47157 -0.254485,-0.2714 -0.0287,-0.74943 0.461496,-0.97707 1.846766,-0.85763 4.873019,-1.65221 7.478731,-1.96367 1.851626,-0.22131 3.687785,-0.43751 6.618101,-0.77921 0.718788,-0.0838 2.512336,-0.15789 3.985657,-0.16458 l 2.678761,-0.0122 2.196051,-1.68279 c 2.966965,-2.27353 3.556126,-2.42334 3.993435,-1.01544 0.347955,1.12023 1.091745,2.46743 1.700965,3.08093 0.41515,0.41806 0.51979,0.62202 0.35695,0.6957 -0.35321,0.15981 0.84071,0.44161 3.82122,0.9019 2.614388,0.40375 2.707618,0.40811 4.656428,0.21758 1.689886,-0.1652 2.032876,-0.16195 2.283196,0.0216 0.26721,0.196 0.26666,0.22744 -0.006,0.33851 -0.55122,0.22459 -0.11324,0.41083 1.06413,0.45247 1.49559,0.0529 2.07443,-0.0959 3.85043,-0.98982 1.83324,-0.92272 5.17944,-2.39606 6.18725,-2.72425 0.84076,-0.27379 1.6062,-0.3118 1.59362,-0.0791 -0.004,0.0814 -0.32475,0.69791 -0.71189,1.36992 -0.38714,0.67203 -0.77762,1.58776 -0.86771,2.03499 -0.0901,0.44722 -0.30627,1.17009 -0.48038,1.60638 -0.24531,0.6147 -0.27602,0.90081 -0.13642,1.27105 0.0991,0.2628 0.26775,0.95551 0.37482,1.53936 0.19173,1.04547 1.03144,2.96649 1.49926,3.42984 0.14426,0.14289 0.17374,0.31507 0.0742,0.43347 z m -1.3359,-2.05761 c -0.27962,-0.67035 -0.53682,-1.528 -0.57154,-1.90589 -0.0347,-0.3779 -0.21889,-1.02059 -0.40924,-1.4282 -0.24685,-0.52857 -0.28404,-0.76921 -0.12968,-0.83905 0.24177,-0.10939 0.81004,-1.61681 0.84883,-2.25163 0.0136,-0.22578 0.34042,-1.00789 0.72585,-1.73804 0.38541,-0.73015 0.63673,-1.32981 0.55846,-1.33258 -0.56177,-0.0199 -2.6976,0.86071 -6.73851,2.7782 -2.01234,0.9549 -2.41798,1.09095 -3.40104,1.1408 -0.61391,0.0311 -1.44625,-0.0153 -1.84966,-0.10299 -0.60379,-0.13138 -0.72255,-0.21701 -0.67172,-0.48444 0.034,-0.17867 0.0101,-0.32667 -0.0529,-0.3289 -0.063,-0.002 -0.93821,0.0722 -1.944866,0.16545 -2.07227,0.19192 -3.111768,0.0837 -6.903838,-0.71904 -2.30786,-0.48852 -2.76259,-0.66208 -2.10876,-0.80487 0.39397,-0.086 0.39396,-0.0865 -0.0252,-0.57869 -0.48699,-0.57176 -1.794295,-3.16789 -1.775004,-3.52489 0.03805,-0.70408 -1.230463,0.0718 -5.228275,3.19783 -0.277992,0.21737 -0.623508,0.255 -1.920215,0.20913 -2.056504,-0.0727 -4.748974,0.0635 -6.968817,0.35259 -0.976223,0.12714 -2.559939,0.31106 -3.519369,0.40871 -3.4978,0.356 -7.77081,1.48377 -8.792468,2.3206 -0.331905,0.27186 -0.32581,0.29917 0.171411,0.76819 l 0.515554,0.48632 -0.513513,-0.11841 c -0.452191,-0.10426 -0.493994,-0.0858 -0.350068,0.1549 0.366415,0.61268 1.143469,1.03225 3.076831,1.66132 1.118662,0.36399 2.261996,0.76768 2.540742,0.89709 0.278745,0.12941 1.362725,0.47807 2.408841,0.77479 1.046118,0.29672 2.724295,0.7724 3.729284,1.05707 1.558044,0.44131 2.222239,0.54239 4.508218,0.68605 1.47453,0.0927 3.595172,0.13115 4.712532,0.0855 2.535573,-0.10361 2.641712,-0.0622 5.612042,2.18898 0.848254,0.64289 1.071444,0.74693 1.230644,0.5737 0.26992,-0.29372 0.15771,-1.73656 -0.16968,-2.18217 -0.4488,-0.61083 -0.32533,-0.78722 0.60678,-0.86682 0.46975,-0.0401 1.66166,-0.23838 2.6487,-0.44057 l 1.79461,-0.36763 0.766,0.46756 c 0.42129,0.25716 1.608838,0.83907 2.638988,1.29314 l 1.872996,0.82558 0.17634,-0.97519 c 0.097,-0.53636 0.38783,-1.47107 0.6463,-2.07713 0.44133,-1.0348 0.51464,-1.11459 1.20315,-1.30972 0.85878,-0.24338 2.25807,-0.21979 3.77855,0.0637 1.26274,0.23543 1.95834,0.54562 3.43571,1.53206 1.01182,0.67559 3.43162,1.83171 4.42202,2.11275 0.43415,0.12319 0.43983,0.11586 0.18562,-0.23962 -0.14422,-0.20168 -0.49101,-0.91517 -0.77064,-1.58551 z m -34.217112,-0.27119 c -0.393158,0.23285 -2.303772,0.55542 -3.119028,0.52658 -0.446924,-0.0158 -1.1503,-0.20185 -1.709473,-0.45216 -0.522554,-0.23391 -1.27858,-0.52632 -1.680057,-0.6498 -0.698693,-0.21489 -0.706142,-0.22408 -0.173917,-0.21476 0.305821,0.005 1.052976,0.22193 1.660344,0.48126 0.607367,0.25933 1.281004,0.52385 1.49697,0.58784 0.485323,0.14379 3.238251,-0.39771 3.164578,-0.62247 -0.02883,-0.088 -0.621753,-0.3439 -1.317599,-0.56873 -0.962554,-0.31099 -1.729656,-0.43553 -3.207102,-0.52067 -1.068063,-0.0615 -2.004293,-0.11662 -2.080509,-0.12236 -0.191064,-0.0144 -0.151719,-0.46124 0.04001,-0.45445 0.08487,0.003 0.1959,0.0422 0.246737,0.0871 0.05084,0.0449 0.915647,0.13414 1.921803,0.19834 1.381068,0.0881 2.158994,0.2246 3.174436,0.55691 1.775428,0.58103 2.130575,0.84296 1.582807,1.16739 z m -13.254366,-4.48514 c -0.438424,0.32501 -0.63408,0.34314 -1.130992,0.10482 -0.396432,-0.19013 -0.440587,-0.89569 -0.0731,-1.16811 0.368998,-0.27354 1.038929,-0.1727 1.33295,0.20063 0.347799,0.44162 0.336428,0.51775 -0.128856,0.86266 z"
       style="fill:#000000;stroke-width:0.166716" />
    <path
       style="fill:#000000;stroke-width:0.166716"
       d="m 121.30267,108.94263 c -0.13503,0.16064 -0.39346,0.12664 -1.41832,-0.18661 -1.60066,-0.48924 -2.04718,-0.69594 -3.2918,-1.52382 -0.55939,-0.37209 -1.52541,-0.95277 -2.1467,-1.29039 -1.06525,-0.57888 -1.23443,-0.62166 -2.96919,-0.75088 -2.57925,-0.19214 -2.85248,-0.0925 -3.4339,1.25254 -0.25067,0.5799 -0.52293,1.5417 -0.60501,2.13733 -0.10844,0.78704 -0.21921,1.0805 -0.40528,1.07391 -0.28565,-0.0101 -4.67575,-1.96963 -5.20889,-2.32499 -0.2996,-0.19969 -0.50537,-0.19068 -1.72327,0.0755 -0.760683,0.16623 -1.846643,0.32978 -2.413233,0.36344 -0.85099,0.0506 -1.01032,0.10385 -0.91599,0.30635 0.59468,1.27669 0.71264,2.61409 0.24926,2.82612 -0.50188,0.22965 -0.75979,0.1172 -2.18086,-0.95089 -0.80578,-0.60563 -1.802834,-1.27985 -2.215684,-1.49828 l -0.75061,-0.39714 -3.228835,0.0628 c -2.341279,0.0455 -3.682142,0.003 -4.877979,-0.15479 -1.970305,-0.25994 -6.873714,-1.54187 -9.360454,-2.44717 -0.981894,-0.35747 -2.135971,-0.7398 -2.564615,-0.84965 -0.980419,-0.25123 -2.839005,-1.21476 -3.181104,-1.64914 -0.190364,-0.24172 -0.204752,-0.40285 -0.05431,-0.6082 0.139571,-0.1905 0.147339,-0.34049 0.02443,-0.47157 -0.254485,-0.2714 -0.0287,-0.74943 0.461496,-0.97707 1.846766,-0.85763 4.873019,-1.652212 7.478731,-1.963672 1.851626,-0.22131 3.687785,-0.437509 6.618101,-0.779209 0.718788,-0.0838 2.512336,-0.15789 3.985657,-0.16458 l 2.678761,-0.0122 2.196051,-1.682792 c 2.966974,-2.27353 3.556134,-2.42334 3.993444,-1.01544 0.34795,1.12023 1.09173,2.467432 1.70095,3.080932 0.41515,0.418059 0.51979,0.622019 0.35695,0.695699 -0.35321,0.15981 0.84071,0.44161 3.821223,0.901902 2.61439,0.40375 2.70762,0.40811 4.65643,0.21758 1.68989,-0.1652 2.03288,-0.16195 2.2832,0.0216 0.26721,0.196 0.26666,0.22744 -0.006,0.33851 -0.55122,0.22459 -0.11324,0.41083 1.06413,0.45247 1.49559,0.0529 2.07443,-0.0959 3.85043,-0.98982 1.83324,-0.922722 5.17944,-2.396061 6.18725,-2.724253 0.84076,-0.27379 1.6062,-0.3118 1.59362,-0.0791 -0.004,0.0814 -0.32475,0.697912 -0.71189,1.369922 -0.38714,0.672029 -0.77762,1.587761 -0.86771,2.034991 -0.0901,0.44722 -0.30627,1.17009 -0.48038,1.60638 -0.24531,0.6147 -0.27602,0.90081 -0.13642,1.27105 0.0991,0.2628 0.26775,0.95551 0.37482,1.53936 0.19173,1.04547 1.03144,2.96649 1.49926,3.42984 0.14426,0.14289 0.17374,0.31507 0.0742,0.43347 z m -1.3359,-2.05761 c -0.27962,-0.67035 -0.53682,-1.528 -0.57154,-1.90589 -0.0347,-0.3779 -0.21889,-1.02059 -0.40924,-1.4282 -0.24685,-0.52857 -0.28404,-0.76921 -0.12968,-0.83905 0.24177,-0.10939 0.81004,-1.61681 0.84883,-2.25163 0.0136,-0.22578 0.34042,-1.007892 0.72585,-1.738042 0.38541,-0.730149 0.63673,-1.329811 0.55846,-1.332581 -0.56177,-0.0199 -2.6976,0.860712 -6.73851,2.778203 -2.01234,0.9549 -2.41798,1.09095 -3.40104,1.1408 -0.61391,0.0311 -1.44625,-0.0153 -1.84966,-0.10299 -0.60379,-0.13138 -0.72255,-0.21701 -0.67172,-0.48444 0.034,-0.17867 0.0101,-0.32667 -0.0529,-0.3289 -0.063,-0.002 -0.93821,0.0722 -1.94487,0.16545 -2.07227,0.19192 -3.11177,0.0837 -6.903843,-0.719042 -2.30786,-0.48852 -2.76259,-0.66208 -2.10876,-0.80487 0.39397,-0.086 0.39396,-0.0865 -0.0252,-0.578689 -0.48699,-0.57176 -1.79428,-3.167892 -1.77499,-3.524892 0.038,-0.70408 -1.23047,0.0718 -5.228283,3.197832 -0.277992,0.21737 -0.623508,0.255 -1.920215,0.20913 -2.056504,-0.0727 -4.748974,0.0635 -6.968817,0.352589 -0.976223,0.12714 -2.559939,0.31106 -3.519369,0.40871 -3.4978,0.356 -7.77081,1.483772 -8.792468,2.320602 -0.331905,0.27186 -0.32581,0.29917 0.171411,0.76819 l 0.515554,0.48632 -0.513513,-0.11841 c -0.452191,-0.10426 -0.493994,-0.0858 -0.350068,0.1549 0.366415,0.61268 1.143469,1.03225 3.076831,1.66132 1.118662,0.36399 2.261996,0.76768 2.540742,0.89709 0.278745,0.12941 1.362725,0.47807 2.408841,0.77479 1.046118,0.29672 2.724295,0.7724 3.729284,1.05707 1.558044,0.44131 2.222239,0.54239 4.508218,0.68605 1.47453,0.0927 3.595172,0.13115 4.712532,0.0855 2.535576,-0.10361 2.641716,-0.0622 5.61205,2.18898 0.84825,0.64289 1.07143,0.74693 1.23063,0.5737 0.26992,-0.29372 0.15771,-1.73656 -0.16968,-2.18217 -0.44879,-0.61083 -0.32532,-0.78722 0.60678,-0.86682 0.46975,-0.0401 1.66166,-0.23838 2.6487,-0.44057 l 1.794613,-0.36763 0.766,0.46756 c 0.42129,0.25716 1.60884,0.83907 2.63899,1.29314 l 1.873,0.82558 0.17634,-0.97519 c 0.097,-0.53636 0.38783,-1.47107 0.6463,-2.07713 0.44133,-1.0348 0.51464,-1.11459 1.20315,-1.30972 0.85878,-0.24338 2.25807,-0.21979 3.77855,0.0637 1.26274,0.23543 1.95834,0.54562 3.43571,1.53206 1.01182,0.67559 3.43162,1.83171 4.42202,2.11275 0.43415,0.12319 0.43983,0.11586 0.18562,-0.23962 -0.14422,-0.20168 -0.49101,-0.91517 -0.77064,-1.58551 z m -34.217115,-0.27119 c -0.393158,0.23285 -2.303772,0.55542 -3.119028,0.52658 -0.446924,-0.0158 -1.1503,-0.20185 -1.709473,-0.45216 -0.522554,-0.23391 -1.27858,-0.52632 -1.680057,-0.6498 -0.698693,-0.21489 -0.706142,-0.22408 -0.173917,-0.21476 0.305821,0.005 1.052976,0.22193 1.660344,0.48126 0.607367,0.25933 1.281004,0.52385 1.49697,0.58784 0.485323,0.14379 3.238251,-0.39771 3.164578,-0.62247 -0.02883,-0.088 -0.621753,-0.3439 -1.317599,-0.56873 -0.962554,-0.31099 -1.729656,-0.43553 -3.207102,-0.52067 -1.068063,-0.0615 -2.004293,-0.11662 -2.080509,-0.12236 -0.191064,-0.0144 -0.151719,-0.46124 0.04001,-0.45445 0.08487,0.003 0.1959,0.0422 0.246737,0.0871 0.05084,0.0449 0.915647,0.13414 1.921803,0.19834 1.381068,0.0881 2.158994,0.2246 3.174436,0.55691 1.775428,0.58103 2.130575,0.84296 1.582807,1.16739 z m -13.254366,-4.48514 c -0.438424,0.32501 -0.63408,0.34314 -1.130992,0.10482 -0.396432,-0.19013 -0.440587,-0.89569 -0.0731,-1.16811 0.368998,-0.27354 1.038929,-0.1727 1.33295,0.20063 0.347799,0.44162 0.336428,0.51775 -0.128856,0.86266 z"
       id="path897" />
    <use
       height="100%"
       width="100%"
       transform="translate(-18.142857,-18.89881)"
       id="use899"
       xlink:href="#path895"
       y="0"
       x="0" />
    <use
       height="100%"
       width="100%"
       transform="translate(-5.2466706,-18.003597)"
       id="use903"
       xlink:href="#use901"
       y="0"
       x="0" />
    <use
       height="100%"
       width="100%"
       transform="translate(-54.959851,-12.400496)"
       id="use907"
       xlink:href="#use905"
       y="0"
       x="0" />
    <use
       height="100%"
       width="100%"
       transform="translate(52.117558,-31.537804)"
       id="use909"
       xlink:href="#use907"
       y="0"
       x="0" />
    <rect
       transform="matrix(0.99215623,-0.12500406,0.05983226,0.99820845,0,0)"
       y="87.187157"
       x="117.75179"
       height="1.2338157"
       width="3.0560322"
       id="rect915"
       style="fill:#ffffff;fill-opacity:1;fill-rule:evenodd;stroke:none;stroke-width:0.322581;stroke-dashoffset:5.79969;stroke-opacity:1" />
    <path
       id="path919"
       d="m 116.02838,98.522228 2.6727,0.734991 2.3386,0.334087 3.74178,-1.670434 -5.14494,-3.674956 z"
       style="fill:#ffffff;stroke:none;stroke-width:0.264583px;stroke-linecap:butt;stroke-linejoin:miter;stroke-opacity:1;fill-opacity:1" />
    <use
       height="100%"
       width="100%"
       transform="translate(-1.3789452,-23.105663)"
       id="use905"
       xlink:href="#use903"
       y="0"
       x="0" />
    <path
       id="path921"
       d="m 114.50316,136.99274 -1.77176,-0.75595 -0.47247,-1.72451 0.68508,-0.59059 1.79539,-0.63784 2.52771,1.51191"
       style="fill:#ffffff;stroke:none;stroke-width:0.264583px;stroke-linecap:butt;stroke-linejoin:miter;stroke-opacity:1;fill-opacity:1" />
    <use
       height="100%"
       width="100%"
       transform="translate(68.193138,15.311908)"
       id="use901"
       xlink:href="#use899"
       y="0"
       x="0" />
    <use
       x="0"
       y="0"
       xlink:href="#use907"
       id="use909-1"
       transform="translate(-8.464863,-24.346312)"
       width="100%"
       height="100%" />
    <path
       id="path938"
       d="m 77.532364,63.641739 3.307292,-0.708705 9.07143,-0.850445 4.724701,-0.188989 c 0,0 1.748142,2.882069 1.417413,3.260045 -0.330729,0.377976 -17.812128,1.559153 -17.812128,1.559153 z"
       style="fill:#ffffff;stroke:none;stroke-width:0.264583px;stroke-linecap:butt;stroke-linejoin:miter;stroke-opacity:1;fill-opacity:1" />
    <use
       height="100%"
       width="100%"
       transform="translate(-42.495855,-9.0871643)"
       id="use913"
       xlink:href="#use911"
       y="0"
       x="0" />
    <path
       id="path940"
       d="m 122.04478,72.311503 3.03206,-0.382016 -0.15571,3.476762 z"
       style="fill:#ffffff;stroke:none;stroke-width:0.264583px;stroke-linecap:butt;stroke-linejoin:miter;stroke-opacity:1;fill-opacity:1" />
    <use
       style="fill:#ffffff;fill-opacity:1"
       height="100%"
       width="100%"
       transform="translate(12.027129,25.123336)"
       id="use911"
       xlink:href="#use909"
       y="0"
       x="0" />
  </g>
</svg>
