<svg title="graph" version="1.1" xmlns="http://www.w3.org/2000/svg" xmlns:xlink="http://www.w3.org/1999/xlink">
<style>circle {cursor: pointer;stroke-width: 1.5px;}text {font: 10px arial;}path {stroke: DimGrey;stroke-width: 1.5px;}</style>
<symbol id="tablet">
  <svg
   height="80" width="80"
   xmlns:dc="http://purl.org/dc/elements/1.1/"
   xmlns:cc="http://creativecommons.org/ns#"
   xmlns:rdf="http://www.w3.org/1999/02/22-rdf-syntax-ns#"
   xmlns:svg="http://www.w3.org/2000/svg"
   xmlns="http://www.w3.org/2000/svg"
   xmlns:xlink="http://www.w3.org/1999/xlink"
   xmlns:sodipodi="http://sodipodi.sourceforge.net/DTD/sodipodi-0.dtd"
   xmlns:inkscape="http://www.inkscape.org/namespaces/inkscape"
   viewBox="0 0 105.83334 105.83333"
   version="1.1"
   id="svg8"
   inkscape:version="0.92.4 5da689c313, 2019-01-14"
   sodipodi:docname="plage.svg">
  <defs
     id="defs2">
    <linearGradient
       id="linearGradient5275"
       inkscape:collect="always">
      <stop
         id="stop5269"
         offset="0"
         style="stop-color:#bb9875;stop-opacity:1" />
      <stop
         style="stop-color:#bb9875;stop-opacity:0.88181818"
         offset="0.53822786"
         id="stop1228" />
      <stop
         id="stop5273"
         offset="1"
         style="stop-color:#bb9875;stop-opacity:0.00454545" />
    </linearGradient>
    <linearGradient
       inkscape:collect="always"
       id="linearGradient4569">
      <stop
         style="stop-color:#ecded1;stop-opacity:0"
         offset="0"
         id="stop4565" />
      <stop
         id="stop4862"
         offset="0.22189873"
         style="stop-color:#f0e1d9;stop-opacity:1" />
      <stop
         style="stop-color:#bb9875;stop-opacity:1"
         offset="1"
         id="stop4567" />
    </linearGradient>
    <linearGradient
       inkscape:collect="always"
       xlink:href="#linearGradient4569"
       id="linearGradient4571"
       x1="50.782143"
       y1="108.98002"
       x2="72.709999"
       y2="65.271049"
       gradientUnits="userSpaceOnUse" />
    <filter
       inkscape:collect="always"
       style="color-interpolation-filters:sRGB"
       id="filter5232"
       x="-0.015598863"
       width="1.0311977"
       y="-0.024962912"
       height="1.0499258">
      <feGaussianBlur
         inkscape:collect="always"
         stdDeviation="0.67984232"
         id="feGaussianBlur5234" />
    </filter>
    <linearGradient
       inkscape:collect="always"
       xlink:href="#linearGradient5275"
       id="linearGradient860"
       x1="83.702675"
       y1="41.118923"
       x2="123.32613"
       y2="-0.86452228"
       gradientUnits="userSpaceOnUse" />
  </defs>
  <sodipodi:namedview
     id="base"
     pagecolor="#ffffff"
     bordercolor="#666666"
     borderopacity="1.0"
     inkscape:pageopacity="0.0"
     inkscape:pageshadow="2"
     inkscape:zoom="1.4"
     inkscape:cx="138.39735"
     inkscape:cy="249.6778"
     inkscape:document-units="mm"
     inkscape:current-layer="layer3"
     showgrid="false"
     units="px"
     inkscape:window-width="956"
     inkscape:window-height="1057"
     inkscape:window-x="960"
     inkscape:window-y="0"
     inkscape:window-maximized="0" />
  <metadata
     id="metadata5">
    <rdf:RDF>
      <cc:Work
         rdf:about="">
        <dc:format>image/svg+xml</dc:format>
        <dc:type
           rdf:resource="http://purl.org/dc/dcmitype/StillImage" />
        <dc:title />
      </cc:Work>
    </rdf:RDF>
  </metadata>
  <g
     inkscape:groupmode="layer"
     id="layer3"
     inkscape:label="Layer 3"
     style="display:inline;opacity:1">
    <path
       style="opacity:1;fill:url(#linearGradient860);fill-opacity:1;stroke:#d5a46a;stroke-width:0.26458332;stroke-linecap:butt;stroke-linejoin:miter;stroke-miterlimit:4;stroke-dasharray:0.26458332, 12.69999924;stroke-dashoffset:2.64583325;stroke-opacity:0"
       d="m 70.29951,31.472149 c 0,0 14.245236,-15.830758 30.94379,-13.926604 24.50493,-11.6107398 6.67377,-9.7202821 17.96692,-23.634348 l 2.96523,1.5234776 C 109.76589,8.8036841 139.57427,11.904944 117.7292,31.831075 102.3764,45.835235 101.01685,55.261402 101.01685,55.261402 Z"
       id="path4563-2"
       inkscape:connector-curvature="0"
       sodipodi:nodetypes="ccccscc"
       transform="matrix(0.66622065,0,0,0.66622065,19.249503,22.785305)" />
    <path
       style="opacity:1;fill:url(#linearGradient4571);fill-opacity:1;stroke:#d5a46a;stroke-width:0.26458332;stroke-linecap:butt;stroke-linejoin:miter;stroke-miterlimit:4;stroke-dasharray:0.26458332, 12.69999924;stroke-dashoffset:2.64583325;stroke-opacity:0;filter:url(#filter5232)"
       d="M 7.7366078,84.484433 C 2.9107467,73.689442 79.231205,58.826558 100.88004,75.664539 c 21.64883,16.83798 16.79443,42.449781 1.33634,57.329311 C 87.152617,131.43676 13.553896,90.298628 7.7366078,84.484433 Z"
       id="path4563"
       inkscape:connector-curvature="0"
       transform="matrix(0.66622065,0,0,0.66622065,9.6437028,-1.4526789)"
       sodipodi:nodetypes="cscc" />
  </g>
  <g
     inkscape:groupmode="layer"
     id="layer2"
     inkscape:label="Layer 2"
     style="display:inline;opacity:1">
    <path
       style="display:inline;fill:#628fe9;fill-opacity:1;fill-rule:nonzero;stroke:#0f2b90;stroke-width:0.40000001;stroke-linecap:round;stroke-miterlimit:4;stroke-dasharray:none;stroke-opacity:1"
       d="m 71.430229,69.553651 c -0.274696,0.549949 -1.020318,0.568506 -1.485304,0.271292 -0.852218,-0.544728 -0.848438,-1.750774 -0.294478,-2.504193 0.897078,-1.220073 2.688302,-1.180769 3.797165,-0.287697 1.65442,1.332458 1.565884,3.834451 0.250571,5.365958 -1.851462,2.155782 -5.190458,2.00406 -7.212017,0.182809 -2.724524,-2.45456 -2.495515,-6.757345 -0.08418,-9.336573 3.14215,-3.360929 8.535989,-3.040427 11.740702,0.0455 4.065272,3.914529 4.438815,9.770787 -0.206398,14.42536 -4.645213,4.654573 -9.948728,3.920028 -12.270333,2.674284 -3.54098,-1.900046 -3.761378,-5.71437 0.820213,-7.80857"
       id="path886"
       inkscape:connector-curvature="0"
       sodipodi:nodetypes="cscssssszsc" />
  </g>
  <g
     inkscape:groupmode="layer"
     id="layer5"
     inkscape:label="Layer 5"
     style="display:inline">
    <path
       style="opacity:1;fill:#756656;fill-opacity:1;stroke:none;stroke-width:0.14813924px;stroke-linecap:butt;stroke-linejoin:miter;stroke-opacity:1"
       d="M 9.0465034,54.944406 C 16.357811,57.372213 34.374328,49.581329 35.340615,46.152298 36.306891,42.723265 35.931679,38.122129 23.594367,35.438571 11.257039,32.755016 5.0377782,39.923982 2.6074418,43.542781 0.17710539,47.161578 1.7351939,52.516603 9.0465034,54.944406 Z"
       id="path5624-6-2"
       inkscape:connector-curvature="0"
       sodipodi:nodetypes="zzzzz" />
    <path
       style="opacity:1;fill:#62605d;fill-opacity:1;stroke:none;stroke-width:0.15723357px;stroke-linecap:butt;stroke-linejoin:miter;stroke-opacity:1"
       d="m 22.532933,41.369202 c 1.675576,6.484067 19.130393,6.324233 22.979875,2.787575 3.849473,-3.536663 8.094547,-9.114418 3.899862,-18.400037 -4.194693,-9.285625 -14.554047,-3.981909 -19.393007,-0.951699 -4.838961,3.03021 -9.162309,10.08009 -7.48673,16.564161 z"
       id="path5624-3-9"
       inkscape:connector-curvature="0"
       sodipodi:nodetypes="zzzzz" />
    <path
       style="opacity:1;fill:#6f6b60;fill-opacity:1;stroke:none;stroke-width:0.15296829px;stroke-linecap:butt;stroke-linejoin:miter;stroke-opacity:1"
       d="M 73.28818,20.72535 C 68.079239,16.412554 51.601481,23.38314 49.921525,27.604338 48.241581,31.825532 47.32524,37.766475 56.488624,43.238397 65.652022,48.71032 72.524567,40.580608 75.426306,36.359411 78.328043,32.138214 78.497122,25.038147 73.28818,20.72535 Z"
       id="path5624-8"
       inkscape:connector-curvature="0"
       sodipodi:nodetypes="zzzzz" />
    <path
       style="opacity:1;fill:#957c60;fill-opacity:1;stroke:none;stroke-width:0.10938972px;stroke-linecap:butt;stroke-linejoin:miter;stroke-opacity:1"
       d="m 87.833807,36.458884 c 5.00387,-1.5211 6.758882,-13.028116 4.54098,-15.3415 -2.217908,-2.313377 -5.911875,-4.756994 -13.270475,-1.394181 -7.358604,3.362821 -4.524943,9.858397 -2.790049,12.857125 1.734894,2.998728 6.515675,5.399657 11.519544,3.878556 z"
       id="path5624-0-1"
       inkscape:connector-curvature="0"
       sodipodi:nodetypes="zzzzz" />
    <path
       style="opacity:1;fill:#82776a;fill-opacity:1;stroke:none;stroke-width:0.07856067px;stroke-linecap:butt;stroke-linejoin:miter;stroke-opacity:1"
       d="m 18.252581,45.448044 c -2.146595,2.566867 2.995897,9.611022 5.552394,10.145988 2.556497,0.53496 6.057223,0.636876 8.609086,-3.768289 2.551863,-4.405171 -2.61617,-7.070601 -5.25477,-8.154846 -2.6386,-1.084246 -6.760115,-0.789721 -8.90671,1.777147 z"
       id="path5624-3"
       inkscape:connector-curvature="0"
       sodipodi:nodetypes="zzzzz" />
    <path
       style="opacity:1;fill:#75644f;fill-opacity:1;stroke:none;stroke-width:0.07136876px;stroke-linecap:butt;stroke-linejoin:miter;stroke-opacity:1"
       d="m 61.474089,39.67684 c -2.430281,-2.012175 -10.118128,1.240017 -10.901927,3.209454 -0.783794,1.969439 -1.211321,4.74124 3.063942,7.294216 4.275268,2.552975 7.481713,-1.240016 8.835544,-3.209455 1.353838,-1.969438 1.432722,-5.28204 -0.997559,-7.294215 z"
       id="path5624-7"
       inkscape:connector-curvature="0"
       sodipodi:nodetypes="zzzzz" />
    <path
       style="opacity:1;fill:#756656;fill-opacity:1;stroke:none;stroke-width:0.05841488px;stroke-linecap:butt;stroke-linejoin:miter;stroke-opacity:1"
       d="m 73.957669,41.622535 c 2.281653,1.209668 7.904103,-2.672183 8.205654,-4.380717 0.301547,-1.708533 0.184455,-4.001075 -3.665674,-5.338172 -3.850134,-1.337096 -5.79099,2.23488 -6.54943,4.037967 -0.75844,1.803085 -0.272204,4.471255 2.00945,5.680922 z"
       id="path5624-6"
       inkscape:connector-curvature="0"
       sodipodi:nodetypes="zzzzz" />
    <path
       style="opacity:1;fill:#7b776a;fill-opacity:1;stroke:none;stroke-width:0.08726477px;stroke-linecap:butt;stroke-linejoin:miter;stroke-opacity:1"
       d="m 73.200963,36.919275 c -2.971578,-2.460348 -12.371747,1.516207 -13.330122,3.924299 -0.958368,2.408092 -1.481118,5.797259 3.746374,8.918861 5.2275,3.1216 9.148125,-1.516206 10.803496,-3.924299 1.655373,-2.408092 1.751829,-6.458513 -1.219748,-8.918861 z"
       id="path5624"
       inkscape:connector-curvature="0"
       sodipodi:nodetypes="zzzzz" />
    <path
       style="opacity:1;fill:#957c60;fill-opacity:1;stroke:none;stroke-width:0.09183057px;stroke-linecap:butt;stroke-linejoin:miter;stroke-opacity:1"
       d="m 50.547599,52.791232 c 4.200652,-1.276934 5.673954,-10.936853 3.812064,-12.878895 -1.861895,-1.942035 -4.962904,-3.993403 -11.140307,-1.170387 -6.177407,2.823023 -3.798603,8.275935 -2.342193,10.793309 1.456409,2.517375 5.469783,4.532908 9.670436,3.255973 z"
       id="path5624-0"
       inkscape:connector-curvature="0"
       sodipodi:nodetypes="zzzzz" />
    <path
       style="opacity:1;fill:#a08970;fill-opacity:1;stroke:none;stroke-width:0.06631544px;stroke-linecap:butt;stroke-linejoin:miter;stroke-opacity:1"
       d="m 32.826768,41.105009 c -2.475546,1.570647 -1.806691,9.298149 -0.290949,10.555852 1.515744,1.257697 3.842823,2.430702 7.325604,-0.615402 3.482785,-3.046109 1.050375,-6.968082 -0.30184,-8.729581 -1.352215,-1.7615 -4.257269,-2.781516 -6.732815,-1.210869 z"
       id="path5624-9"
       inkscape:connector-curvature="0"
       sodipodi:nodetypes="zzzzz" />
    <path
       style="opacity:1;fill:#7b776a;fill-opacity:1;stroke:none;stroke-width:0.11418408px;stroke-linecap:butt;stroke-linejoin:miter;stroke-opacity:1"
       d="m 98.277434,43.85027 c -4.073373,-3.073002 -16.958913,1.893757 -18.272632,4.901491 -1.313708,3.007733 -2.030284,7.240839 5.135446,11.139754 7.165733,3.898915 12.540043,-1.893761 14.809194,-4.901493 2.269138,-3.007733 2.401368,-8.066751 -1.672008,-11.139752 z"
       id="path5624-06"
       inkscape:connector-curvature="0"
       sodipodi:nodetypes="zzzzz" />
    <path
       style="opacity:1;fill:#95826c;fill-opacity:1;stroke:none;stroke-width:0.14942408px;stroke-linecap:butt;stroke-linejoin:miter;stroke-opacity:1"
       d="m 83.056523,56.144205 c -5.577986,3.539034 -4.070891,20.950887 -0.655582,23.784781 3.415326,2.833885 8.658779,5.476935 16.5063,-1.386641 7.847509,-6.863586 2.366719,-15.700708 -0.680132,-19.669768 -3.046854,-3.969072 -9.592612,-6.267402 -15.170586,-2.728372 z"
       id="path5624-9-2"
       inkscape:connector-curvature="0"
       sodipodi:nodetypes="zzzzz" />
    <path
       style="opacity:1;fill:#82776a;fill-opacity:1;stroke:none;stroke-width:0.14157456px;stroke-linecap:butt;stroke-linejoin:miter;stroke-opacity:1"
       d="m 86.397995,69.880981 c -5.455652,-2.679816 -15.337785,9.324722 -15.089137,14.036703 0.248654,4.71198 1.686224,10.89738 10.526808,13.510123 8.840605,2.612773 11.093516,-7.583128 11.762549,-12.671665 0.669038,-5.088546 -1.744573,-12.195345 -7.20022,-14.875161 z"
       id="path5624-3-6"
       inkscape:connector-curvature="0"
       sodipodi:nodetypes="zzzzz" />
    <g
       transform="matrix(0.85591853,0,0,0.9260787,11.105001,-0.66503031)"
       id="g884">
      <path
         transform="matrix(0.70225364,0,0,0.58641704,45.594859,15.545864)"
         style="opacity:1;fill:#de6809;fill-opacity:1;fill-rule:nonzero;stroke:none;stroke-width:0.26458332;stroke-miterlimit:4;stroke-dasharray:0.26458331, 12.69999908;stroke-dashoffset:9.99999905;stroke-opacity:1"
         inkscape:transform-center-x="-0.59313448"
         inkscape:transform-center-y="0.68664231"
         d="m -3.4912044,49.796752 c 1.0452041,-1.051527 10.7112142,8.777195 12.1931182,8.487937 1.4819042,-0.289258 6.1933942,-12.871633 7.6689842,-12.408113 1.47559,0.463519 -1.219849,12.244628 -0.149546,13.365856 1.070303,1.121228 10.185463,1.573814 10.51179,3.028095 0.326327,1.454281 -8.167565,3.01032 -8.569565,4.443165 -0.402,1.432845 8.357636,6.211885 7.290194,7.259313 C 24.386329,75.020432 13.378106,71.214598 11.891056,71.628728 10.404005,72.042858 1.1335356,81.075285 -0.32997688,80.56379 -1.7934894,80.052295 5.9653728,70.134015 4.9424146,69.037911 3.9194563,67.941807 -9.0532798,70.445855 -9.3353768,68.95782 -9.6174738,67.469785 3.3474826,63.666276 3.7282356,62.172023 4.1089886,60.67777 -4.5364085,50.848279 -3.4912044,49.796752 Z"
         id="path860"
         inkscape:connector-curvature="0"
         sodipodi:nodetypes="sssssssssssss" />
      <path
         transform="matrix(0.51938029,0,0,0.4417615,47.491666,24.857145)"
         style="opacity:1;fill:#ff8585;fill-opacity:1;fill-rule:nonzero;stroke:none;stroke-width:0.26458332;stroke-miterlimit:4;stroke-dasharray:0.26458331, 12.69999908;stroke-dashoffset:9.99999905;stroke-opacity:1"
         inkscape:transform-center-x="-0.43867694"
         inkscape:transform-center-y="0.51726397"
         d="M -3.4912044,49.796752 C -2.4460003,48.745225 6.5911729,59.095948 8.0730769,58.80669 9.5549808,58.517432 15.27393,44.198124 16.74952,44.661644 c 1.47559,0.463519 -1.598471,13.45956 -0.528168,14.580788 1.070303,1.121228 9.716085,0.991766 10.042412,2.446047 0.326327,1.454281 -7.698187,3.592368 -8.100187,5.025213 -0.402,1.432845 8.995323,7.622309 7.927881,8.669737 C 25.024016,76.430856 13.378106,71.214598 11.891056,71.628728 10.404005,72.042858 0.86787034,82.305568 -0.59564216,81.794073 -2.0591547,81.282578 5.9653728,70.134015 4.9424146,69.037911 3.9194563,67.941807 -6.5025303,69.983901 -6.7846273,68.495866 -7.0667243,67.007831 3.3474826,63.666276 3.7282356,62.172023 4.1089886,60.67777 -4.5364085,50.848279 -3.4912044,49.796752 Z"
         id="path860-3"
         inkscape:connector-curvature="0"
         sodipodi:nodetypes="sssssssssssss" />
    </g>
  </g>
</svg>
</symbol>
<g><g class="links"><line stroke="hsl(25, 25%, 44%)" stroke-width="15px" x1="506.41688427783413" y1="318.7968992628763" x2="472.3170366409816" y2="242.3991437272258"></line><line stroke="hsl(25, 25%, 44%)" stroke-width="15px" x1="472.3170366409816" y1="242.3991437272258" x2="400.3295582832508" y2="291.8889603305794"></line><line stroke="hsl(25, 25%, 44%)" stroke-width="15px" x1="400.3295582832508" y1="291.8889603305794" x2="324.102126319102" y2="246.58200768314745"></line><line stroke="hsl(25, 25%, 44%)" stroke-width="15px" x1="324.102126319102" y1="246.58200768314745" x2="305.1976861931884" y2="328.53603323350063"></line><line stroke="hsl(25, 25%, 44%)" stroke-width="15px" x1="400.3295582832508" y1="291.8889603305794" x2="394.7872156454747" y2="204.21239907217597"></line><line stroke="hsl(25, 25%, 44%)" stroke-width="15px" x1="394.7872156454747" y1="204.21239907217597" x2="324.102126319102" y2="246.58200768314745"></line><line stroke="hsl(25, 25%, 44%)" stroke-width="15px" x1="400.3295582832508" y1="291.8889603305794" x2="437.8066558302527" y2="372.7421694470034"></line><line stroke="hsl(25, 25%, 44%)" stroke-width="15px" x1="437.8066558302527" y1="372.7421694470034" x2="359.03473666009774" y2="394.84155490338907"></line><line stroke="hsl(25, 25%, 44%)" stroke-width="15px" x1="359.03473666009774" y1="394.84155490338907" x2="305.1976861931884" y2="328.53603323350063"></line></g><g class="nodes"><g transform="translate(506.41688427783413,318.7968992628763)" style="transform-origin: center center;">
<use xlink:href="#tablet"  x="-40" y="-40" transform="scale(-1,1)"/>
</g><g transform="translate(472.3170366409816,242.3991437272258)" style="transform-origin: center center;">
<image xlink:href="../images/cabane_peche.svg" x="-40" y="-40" height="80" width="80" transform="scale(1,1)"></image>
</g><g transform="translate(400.3295582832508,291.8889603305794)" style="transform-origin: center center;"><image xlink:href="../images/volcan.svg" x="-40" y="-40" height="80" width="80" transform="scale(-1,1)"></image></g><g transform="translate(324.102126319102,246.58200768314745)" style="transform-origin: center center;"><image xlink:href="../images/palmier.svg" x="-40" y="-40" height="80" width="80" transform="scale(1,1)"></image></g><g transform="translate(305.1976861931884,328.53603323350063)" style="transform-origin: center center;"><image xlink:href="../images/lac.svg" x="-40" y="-40" height="80" width="80" transform="scale(-1,1)"></image></g><g transform="translate(394.7872156454747,204.21239907217597)" style="transform-origin: center center;"><image xlink:href="../images/sapin.svg" x="-40" y="-40" height="80" width="80" transform="scale(1,1)"></image></g><g transform="translate(437.8066558302527,372.7421694470034)" style="transform-origin: center center;"><image xlink:href="../images/cabane_chasse.svg" x="-40" y="-40" height="80" width="80" transform="scale(1,1)"></image></g><g transform="translate(359.03473666009774,394.84155490338907)" style="transform-origin: center center;"><image xlink:href="../images/riviere.svg" x="-40" y="-40" height="80" width="80" transform="scale(1,1)"></image></g></g><g class="labels"><text class="link-label" font-family="Arial, Helvetica, sans-serif" fill="Black" dy=".35em" text-anchor="middle" x="489.3669604594079" y="280.59802149505106" style="font: bold 14px Arial;">1h</text><text class="link-label" font-family="Arial, Helvetica, sans-serif" fill="Black" dy=".35em" text-anchor="middle" x="436.3232974621162" y="267.1440520289026" style="font: bold 14px Arial;">3h</text><text class="link-label" font-family="Arial, Helvetica, sans-serif" fill="Black" dy=".35em" text-anchor="middle" x="362.2158423011764" y="269.23548400686343" style="font: bold 14px Arial;">3h</text><text class="link-label" font-family="Arial, Helvetica, sans-serif" fill="Black" dy=".35em" text-anchor="middle" x="314.6499062561452" y="287.559020458324" style="font: bold 14px Arial;">2h</text><text class="link-label" font-family="Arial, Helvetica, sans-serif" fill="Black" dy=".35em" text-anchor="middle" x="397.55838696436274" y="248.05067970137767" style="font: bold 14px Arial;">3h</text><text class="link-label" font-family="Arial, Helvetica, sans-serif" fill="Black" dy=".35em" text-anchor="middle" x="359.44467098228836" y="225.3972033776617" style="font: bold 14px Arial;">1h</text><text class="link-label" font-family="Arial, Helvetica, sans-serif" fill="Black" dy=".35em" text-anchor="middle" x="419.0681070567517" y="332.3155648887914" style="font: bold 14px Arial;">2h</text><text class="link-label" font-family="Arial, Helvetica, sans-serif" fill="Black" dy=".35em" text-anchor="middle" x="398.42069624517524" y="383.79186217519623" style="font: bold 14px Arial;">1h</text><text class="link-label" font-family="Arial, Helvetica, sans-serif" fill="Black" dy=".35em" text-anchor="middle" x="332.1162114266431" y="361.68879406844485" style="font: bold 14px Arial;">1h</text></g></g></svg>