<?xml version="1.0" encoding="UTF-8" standalone="no"?>
<svg
   xmlns:dc="http://purl.org/dc/elements/1.1/"
   xmlns:cc="http://creativecommons.org/ns#"
   xmlns:rdf="http://www.w3.org/1999/02/22-rdf-syntax-ns#"
   xmlns:svg="http://www.w3.org/2000/svg"
   xmlns="http://www.w3.org/2000/svg"
   id="svg8"
   version="1.1"
   viewBox="0 0 785.14325 150.01347"
   height="150.01347mm"
   width="785.14325mm">
  <defs
     id="defs2">
    <marker
       orient="auto"
       refY="0"
       refX="0"
       id="marker2851"
       style="overflow:visible">
      <path
         id="path2849"
         style="fill:#000000;fill-opacity:1;fill-rule:evenodd;stroke:#000000;stroke-width:0.625;stroke-linejoin:round;stroke-opacity:1"
         d="M 8.7185878,4.0337352 -2.2072895,0.01601326 8.7185884,-4.0017078 c -1.7454984,2.3720609 -1.7354408,5.6174519 -6e-7,8.035443 z"
         transform="matrix(-1.1,0,0,-1.1,-1.1,0)" />
    </marker>
    <marker
       style="overflow:visible"
       id="marker2605"
       refX="0"
       refY="0"
       orient="auto">
      <path
         transform="matrix(-1.1,0,0,-1.1,-1.1,0)"
         d="M 8.7185878,4.0337352 -2.2072895,0.01601326 8.7185884,-4.0017078 c -1.7454984,2.3720609 -1.7354408,5.6174519 -6e-7,8.035443 z"
         style="fill:#000000;fill-opacity:1;fill-rule:evenodd;stroke:#000000;stroke-width:0.625;stroke-linejoin:round;stroke-opacity:1"
         id="path2603" />
    </marker>
    <marker
       orient="auto"
       refY="0"
       refX="0"
       id="marker2341"
       style="overflow:visible">
      <path
         id="path2339"
         style="fill:#000000;fill-opacity:1;fill-rule:evenodd;stroke:#000000;stroke-width:0.625;stroke-linejoin:round;stroke-opacity:1"
         d="M 8.7185878,4.0337352 -2.2072895,0.01601326 8.7185884,-4.0017078 c -1.7454984,2.3720609 -1.7354408,5.6174519 -6e-7,8.035443 z"
         transform="matrix(-1.1,0,0,-1.1,-1.1,0)" />
    </marker>
    <marker
       style="overflow:visible"
       id="marker2127"
       refX="0"
       refY="0"
       orient="auto">
      <path
         transform="matrix(-1.1,0,0,-1.1,-1.1,0)"
         d="M 8.7185878,4.0337352 -2.2072895,0.01601326 8.7185884,-4.0017078 c -1.7454984,2.3720609 -1.7354408,5.6174519 -6e-7,8.035443 z"
         style="fill:#000000;fill-opacity:1;fill-rule:evenodd;stroke:#000000;stroke-width:0.625;stroke-linejoin:round;stroke-opacity:1"
         id="path2125" />
    </marker>
    <marker
       orient="auto"
       refY="0"
       refX="0"
       id="marker1947"
       style="overflow:visible">
      <path
         id="path1945"
         style="fill:#000000;fill-opacity:1;fill-rule:evenodd;stroke:#000000;stroke-width:0.625;stroke-linejoin:round;stroke-opacity:1"
         d="M 8.7185878,4.0337352 -2.2072895,0.01601326 8.7185884,-4.0017078 c -1.7454984,2.3720609 -1.7354408,5.6174519 -6e-7,8.035443 z"
         transform="matrix(-1.1,0,0,-1.1,-1.1,0)" />
    </marker>
    <marker
       style="overflow:visible"
       id="marker1707"
       refX="0"
       refY="0"
       orient="auto">
      <path
         transform="matrix(-1.1,0,0,-1.1,-1.1,0)"
         d="M 8.7185878,4.0337352 -2.2072895,0.01601326 8.7185884,-4.0017078 c -1.7454984,2.3720609 -1.7354408,5.6174519 -6e-7,8.035443 z"
         style="fill:#000000;fill-opacity:1;fill-rule:evenodd;stroke:#000000;stroke-width:0.625;stroke-linejoin:round;stroke-opacity:1"
         id="path1705" />
    </marker>
    <marker
       orient="auto"
       refY="0"
       refX="0"
       id="marker1611"
       style="overflow:visible">
      <path
         id="path1609"
         style="fill:#000000;fill-opacity:1;fill-rule:evenodd;stroke:#000000;stroke-width:0.625;stroke-linejoin:round;stroke-opacity:1"
         d="M 8.7185878,4.0337352 -2.2072895,0.01601326 8.7185884,-4.0017078 c -1.7454984,2.3720609 -1.7354408,5.6174519 -6e-7,8.035443 z"
         transform="matrix(-1.1,0,0,-1.1,-1.1,0)" />
    </marker>
    <marker
       orient="auto"
       refY="0"
       refX="0"
       id="marker1317"
       style="overflow:visible">
      <path
         id="path1315"
         style="fill:#000000;fill-opacity:1;fill-rule:evenodd;stroke:#000000;stroke-width:0.625;stroke-linejoin:round;stroke-opacity:1"
         d="M 8.7185878,4.0337352 -2.2072895,0.01601326 8.7185884,-4.0017078 c -1.7454984,2.3720609 -1.7354408,5.6174519 -6e-7,8.035443 z"
         transform="matrix(-1.1,0,0,-1.1,-1.1,0)" />
    </marker>
    <marker
       style="overflow:visible"
       id="Arrow1Lend"
       refX="0"
       refY="0"
       orient="auto">
      <path
         transform="matrix(-0.8,0,0,-0.8,-10,0)"
         style="fill:#000000;fill-opacity:1;fill-rule:evenodd;stroke:#000000;stroke-width:1.00000003pt;stroke-opacity:1"
         d="M 0,0 5,-5 -12.5,0 5,5 Z"
         id="path824" />
    </marker>
  </defs>
  <metadata
     id="metadata5">
    <rdf:RDF>
      <cc:Work
         rdf:about="">
        <dc:format>image/svg+xml</dc:format>
        <dc:type
           rdf:resource="http://purl.org/dc/dcmitype/StillImage" />
        <dc:title></dc:title>
      </cc:Work>
    </rdf:RDF>
  </metadata>
  <g
     transform="translate(263.3036,-37.605563)"
     id="layer1">
    <path
       d="M -1.7009125,142.40773 A 42.711311,42.711311 0 0 1 -44.410546,185.11904 42.711311,42.711311 0 0 1 -87.123535,142.41109 42.711311,42.711311 0 0 1 -44.417257,99.696419 42.711311,42.711311 0 0 1 -1.700913,142.40102"
       id="path815"
       style="opacity:1;fill:#225500;fill-opacity:0;stroke:#001200;stroke-width:5;stroke-linecap:square;stroke-linejoin:bevel;stroke-miterlimit:4;stroke-dasharray:none;stroke-dashoffset:4.08328629;stroke-opacity:1;paint-order:normal" />
    <path
       style="opacity:1;fill:#225500;fill-opacity:0;stroke:#001200;stroke-width:5;stroke-linecap:square;stroke-linejoin:bevel;stroke-miterlimit:4;stroke-dasharray:none;stroke-dashoffset:4.08328629;stroke-opacity:1;paint-order:normal"
       id="path1673"
       d="M 171.97915,142.40773 A 42.711311,42.711311 0 0 1 129.26952,185.11904 42.711311,42.711311 0 0 1 86.556526,142.41109 42.711311,42.711311 0 0 1 129.2628,99.696419 42.711311,42.711311 0 0 1 171.97915,142.40102" />
    <path
       d="m 345.65922,142.40773 a 42.711311,42.711311 0 0 1 -42.70964,42.71131 42.711311,42.711311 0 0 1 -42.71298,-42.70795 42.711311,42.711311 0 0 1 42.70627,-42.714671 42.711311,42.711311 0 0 1 42.71635,42.704601"
       id="path1675"
       style="opacity:1;fill:#225500;fill-opacity:0;stroke:#001200;stroke-width:5;stroke-linecap:square;stroke-linejoin:bevel;stroke-miterlimit:4;stroke-dasharray:none;stroke-dashoffset:4.08328629;stroke-opacity:1;paint-order:normal" />
    <path
       style="opacity:1;fill:#00ff00;fill-opacity:0;stroke:#001200;stroke-width:5;stroke-linecap:square;stroke-linejoin:bevel;stroke-miterlimit:4;stroke-dasharray:none;stroke-dashoffset:4.08328629;stroke-opacity:1;paint-order:normal"
       id="path1677"
       d="m 519.33924,142.40773 a 42.711311,42.711311 0 0 1 -42.70963,42.71131 42.711311,42.711311 0 0 1 -42.71299,-42.70795 42.711311,42.711311 0 0 1 42.70628,-42.714671 42.711311,42.711311 0 0 1 42.71634,42.704601" />
    <path
       d="m -175.38097,142.40773 a 42.711311,42.711311 0 0 1 -42.70964,42.71131 42.711311,42.711311 0 0 1 -42.71299,-42.70795 42.711311,42.711311 0 0 1 42.70628,-42.714671 42.711311,42.711311 0 0 1 42.71635,42.704601"
       id="path1679"
       style="opacity:1;fill:#00ff00;fill-opacity:0;stroke:#001200;stroke-width:5;stroke-linecap:square;stroke-linejoin:bevel;stroke-miterlimit:4;stroke-dasharray:none;stroke-dashoffset:4.08328629;stroke-opacity:1;paint-order:normal" />
    <path
       id="path1683"
       d="m -176.80896,142.40102 h 86.934545"
       style="fill:none;stroke:#000000;stroke-width:2.5;stroke-linecap:butt;stroke-linejoin:miter;stroke-miterlimit:4;stroke-dasharray:none;stroke-opacity:1;marker-end:url(#marker1611)" />
    <path
       style="fill:none;stroke:#000000;stroke-width:2.5;stroke-linecap:butt;stroke-linejoin:miter;stroke-miterlimit:4;stroke-dasharray:none;stroke-opacity:1;marker-end:url(#marker1707)"
       d="M -3.1288975,142.40102 H 83.805646"
       id="path1703" />
    <path
       id="path1943"
       d="m 170.55117,142.40102 h 86.93454"
       style="fill:none;stroke:#000000;stroke-width:2.5;stroke-linecap:butt;stroke-linejoin:miter;stroke-miterlimit:4;stroke-dasharray:none;stroke-opacity:1;marker-end:url(#marker1947)" />
    <path
       style="fill:none;stroke:#000000;stroke-width:2.5;stroke-linecap:butt;stroke-linejoin:miter;stroke-miterlimit:4;stroke-dasharray:none;stroke-opacity:1;marker-end:url(#marker2127)"
       d="m 344.23122,142.40102 h 86.93454"
       id="path2123" />
    <path
       id="path2331"
       d="m -201.89816,101.43347 c 98.72639,-79.093138 199.9510498,-88.420851 304.75287,2.14615"
       style="fill:none;stroke:#000000;stroke-width:2.5;stroke-linecap:butt;stroke-linejoin:miter;stroke-miterlimit:4;stroke-dasharray:none;stroke-opacity:1;marker-end:url(#marker2341)" />
    <path
       style="fill:none;stroke:#000000;stroke-width:2.5;stroke-linecap:butt;stroke-linejoin:miter;stroke-miterlimit:4;stroke-dasharray:none;stroke-opacity:1;marker-end:url(#marker2605)"
       d="M -28.029117,101.43347 C 70.697273,22.340332 171.92193,13.012619 276.72376,103.57962"
       id="path2601" />
    <path
       id="path2847"
       d="M 145.83991,101.43347 C 244.5663,22.340332 345.79095,13.012619 450.59278,103.57962"
       style="fill:none;stroke:#000000;stroke-width:2.5;stroke-linecap:butt;stroke-linejoin:miter;stroke-miterlimit:4;stroke-dasharray:none;stroke-opacity:1;marker-end:url(#marker2851)" />
  </g>
</svg>
