<?xml version="1.0" encoding="UTF-8" standalone="no"?>
<svg
   viewBox="0 0 343.75 237.5"
   version="1.1"
   id="svg51"
   sodipodi:docname="catapult-roue.svg"
   inkscape:version="1.1.1 (3bf5ae0d25, 2021-09-20)"
   xmlns:inkscape="http://www.inkscape.org/namespaces/inkscape"
   xmlns:sodipodi="http://sodipodi.sourceforge.net/DTD/sodipodi-0.dtd"
   xmlns="http://www.w3.org/2000/svg"
   xmlns:svg="http://www.w3.org/2000/svg">
  <defs
     id="defs55" />
  <sodipodi:namedview
     id="namedview53"
     pagecolor="#ffffff"
     bordercolor="#666666"
     borderopacity="1.0"
     inkscape:pageshadow="2"
     inkscape:pageopacity="0.0"
     inkscape:pagecheckerboard="0"
     showgrid="false"
     inkscape:zoom="2.9052006"
     inkscape:cx="204.28882"
     inkscape:cy="135.79097"
     inkscape:window-width="1920"
     inkscape:window-height="1131"
     inkscape:window-x="0"
     inkscape:window-y="0"
     inkscape:window-maximized="1"
     inkscape:current-layer="svg51" />
  <path
     d="m121.01 231.16c-6.7021-3.0488-13.479-8.0304-15.703-11.543-2.6715-4.2194-3.2259-11.607-1.346-17.937l1.5999-5.3874-2.5408-2.3547c-1.3974-1.2951-3.1728-2.3547-3.9452-2.3547s-3.6941-1.35-6.4925-3-5.7661-3-6.5948-3c-2.6628 0-17.337-8.2097-17.912-10.021-0.92398-2.9112-13.891-10.979-17.646-10.979-1.3291 0-4.9773 0.9-8.107 2-7.2148 2.5358-11.857 2.5249-18.615-0.04385-13.389-5.0888-17.177-8.438-17.886-15.814-1.0892-11.336 5.8153-21.024 17.656-24.774 6.5864-2.0859 6.6145-1.3798-0.39536-9.9372-3.8037-4.6434-6.2246-7.0465-11.207-11.125-1.214-0.99365-2.4954-3.0246-2.8475-4.5131-0.54978-2.3245-0.27076-2.7992 1.9768-3.3633 3.5338-0.88693 8.2984 1.2381 9.2783 4.1381 0.76546 2.2654 5.165 7.7406 13.802 17.177 4.8965 5.3495 7.0113 4.9892 11.408-1.9436 3.6554-5.764 6.8028-7.9026 12.591-8.5549 3.918-0.44161 4.418-0.76704 4.034-2.6255-0.68456-3.3126-1.4043-12.874-2.1169-28.121-0.61317-13.121-0.86672-14.457-4.0363-21.272-1.8601-3.9996-3.382-7.6746-3.382-8.1667s-0.50707-1.0638-1.1268-1.2704-1.339-2.6066-1.5984-5.3333c-0.59986-6.307 1.9885-10.088 7.5185-10.983 2.0387-0.32997 5.556-1.4717 7.8162-2.5372 7.6637-3.6126 16.231-1.7731 20.66 4.436 1.762 2.4702 2.2761 4.7014 2.4486 10.627 0.12008 4.125 0.3834 8.3688 0.58516 9.4307 0.41269 2.1721 6.6039 7.7446 7.79 7.0115 0.42259-0.26117 1.051-0.01752 1.3964 0.54146s1.1176 1.0163 1.7159 1.0163c1.4156 0 0.1362-22.883-1.3817-24.712-0.58795-0.70843-1.6731-1.2881-2.4114-1.2881-3.4079 0-3.976-6.5796-0.83884-9.7168 2.2573-2.2573 7.5436-2.8248 8.6073-0.92389 0.51088 0.91289 2.5494 2.3369 4.53 3.1645 3.5343 1.4767 3.7818 1.4202 13.34-3.0476 7.8363-3.6631 11.273-4.6913 17.594-5.2642 7.4169-0.67226 7.871-0.85157 8.1354-3.212 1.0018-8.9461 2.7064-9.7635 20.72-9.9359 11.838-0.11329 15.544 0.24841 24 2.3419 5.5 1.3617 12.025 2.7162 14.5 3.0098 2.475 0.29368 15.525 3.2882 29 6.6546s25.625 6.112 27 6.1014c2.8913-0.02232 28.445 5.9707 37.961 8.9028 7.1087 2.1904 7.9893 3.0028 8.0481 7.4255 0.04044 3.039 0.4406 3.3649 9.7125 7.9107 4.2088 2.0634 10.278 16.584 10.278 24.59 0 2.4899 0.71011 4.2946 2.25 5.7182 3.2629 3.0164 6.75 7.3138 6.75 8.3185 0 2.1136-2.466 5.9752-4.1589 6.5125-1.0205 0.32389-3.2475-0.10557-4.9489-0.95435-4.2551-2.1227-9.5207-3.0061-10.31-1.7296-0.3556 0.57537-1.1946 0.87607-1.8645 0.66821s-5.1099-0.63153-9.8667-0.9415c-9.9524-0.64855-10.677-0.10406-8.211 6.173 1.3656 3.4766 1.3678 4.2785 0.02024 7.5037-1.7998 4.3075-1.577 4.5587 6.8394 7.712 3.7342 1.3991 7.9533 2.1959 11.173 2.1101 6.8689-0.1831 13.149 2.3492 13.974 5.6344 0.71897 2.8646-0.154 14.867-1.7266 23.74-2.6302 14.84-3.1078 16.416-6.2133 20.506l-3.2062 4.2221-5.6418-0.49268c-3.103-0.27097-8.4246-1.7415-11.826-3.2679l-6.184-2.7752-5.1742 2.5738c-2.8458 1.4156-9.2243 4.2888-14.174 6.3849s-10.525 4.8396-12.39 6.0968-3.9172 2.2857-4.5622 2.2857-3.1258 0.94366-5.513 2.097c-6.6186 3.1978-23.251 10.052-25.785 10.626-1.2375 0.28038-2.2905 1.0198-2.34 1.6432s-0.21223 2.7381-0.36168 4.6993c-0.71097 9.3297-5.72 18.269-12.853 22.939-4.3646 2.8573-5.475 3.1601-9.5443 2.6023-5.6365-0.77257-16.704-5.822-20.309-9.2658l-2.6578-2.539-12.59 5.3488c-6.9244 2.9418-12.591 5.9113-12.592 6.5988s-0.12 1.25-0.26378 1.25-4.9266 2.025-10.628 4.5c-11.798 5.1213-15.288 5.441-22.682 2.0774zm11.572-5.5332c0-2.5602-0.8774-2.9829-3.9608-1.908l-2.7908 0.97287 2.1124 2.3715c2.2819 2.5619 4.6392 1.832 4.6392-1.4364zm6.879 0.31003c-0.8057-0.9708-0.98365-4.0813-0.56936-9.9519 0.4544-6.4388 0.30592-8.4406-0.60351-8.1369-1.2036 0.40203-1.486 2.3172-1.8824 12.768-0.23392 6.1656 0.51199 8.1591 2.7338 7.3065 1.1654-0.4472 1.236-0.88336 0.32149-1.9853zm6.121-1.4709c0-0.48585-0.39162-0.88337-0.87027-0.88337-1.1452 0-0.35447-15.867 1.1711-23.5 0.65953-3.3 1.6492-5.8785 2.1992-5.73 1.0325 0.27883 1.0259 2.0082-0.04177 10.98-0.36911 3.1016-0.23435 5.25 0.32932 5.25 0.82819 0 1.784-5.3716 2.7233-15.305 0.14587-1.5426 0.51067-3.0502 0.81065-3.3501 1.0465-1.0465 2.7559 0.83623 2.2598 2.489-1.3768 4.5866-2.9646 25.815-1.8449 24.666 0.53591-0.55 1.4901-7.075 2.1204-14.5 1.7467-20.576 1.9023-19.563-3.5334-23.01-6.42-4.0715-10.296-4.6179-17.431-2.4575-8.3329 2.523-9.0776 3.8493-3.5376 6.3 6.1552 2.7227 7.9016 5.7404 7.9229 13.69 0.00956 3.5624 0.40106 6.4771 0.87 6.4771s0.91004-0.7875 0.98023-1.75c0.36138-4.9552 0.69456-6.4722 1.6262-7.4038 1.7392-1.7392 2.0437 0.38487 1.0736 7.4875-0.67959 4.9758-0.61378 7.2188 0.24206 8.25 0.90325 1.0884 0.88961 1.7606-0.05891 2.9036-0.67888 0.81799-0.98426 2.1389-0.67862 2.9354s0.07464 1.6085-0.51333 1.8045c-0.65499 0.21833-0.80531 1.557-0.38812 3.4564 0.53632 2.4418 1.0937 2.9921 2.6252 2.5916 1.0694-0.27964 1.9443-0.90596 1.9443-1.3918zm-23.585-0.7462c0.29329-0.47455 2.5569-1.4294 5.0303-2.1219 2.8761-0.80527 4.7206-1.9632 5.1171-3.2125 0.84687-2.6683-0.10401-3.3327-2.9281-2.046-1.3056 0.5949-4.4933 1.3995-7.0838 1.7879s-4.9494 1.3306-5.2422 2.0936c-1.0324 2.6903 3.6315 5.8858 5.1066 3.499zm26.585-4.8628c0-4.5195-1.2769-5.3052-1.5869-0.9764-0.08674 1.2111-0.26846 2.6521-0.40384 3.2021-0.49935 2.0287 0.0196 3.6002 0.9907 3 0.55-0.33992 1-2.6915 1-5.2257zm64.388-3.2227c8.0737-7.3744 10.968-20.265 6.6734-29.724-2.6213-5.7735-5.8877-7.7202-11.831-7.0514-4.0542 0.4562-5.3338 1.1984-8.9512 5.1923-4.7763 5.2734-6.2994 9.5818-6.1975 17.531 0.12124 9.4576 4.1256 16.654 9.9683 17.915 4.371 0.94321 5.564 0.49739 10.338-3.8636zm-4.8884-11.825c-5.4559-2.9753-6.7526-5.8312-3.9295-8.6543 3.0366-3.0366 13.622 0.90567 14.26 5.3107 0.34001 2.3486-2.2918 6.135-4.2354 6.0935-0.60225-0.01285-3.345-1.2504-6.095-2.75zm7-2.2266c0.33992-0.55 0.14148-1-0.44098-1s-1.059 0.45-1.059 1 0.19844 1 0.44098 1 0.7191-0.45 1.059-1zm-4.1442-1.4848c0.69227-1.804-2.8857-4.0849-3.8812-2.4742-0.6683 1.0813 1.1786 3.9589 2.5409 3.9589 0.42381 0 1.027-0.66814 1.3403-1.4848zm-81.782 14.018c1.8844-0.78736 3.4262-2.1295 3.4262-2.9826 0-1.938-1.114-1.948-5.6542-0.05103-1.9745 0.825-4.6102 1.5-5.8571 1.5s-3.3294 0.93153-4.6279 2.0701l-2.3608 2.0701 5.8238-0.58747c3.2031-0.32311 7.3656-1.2317 9.25-2.019zm40.036-1.7104c5.9797-2.8095 8.2689-4.3158 6.993-4.6016-1.0433-0.23366-3.5183 0.46525-5.5 1.5531s-5.9656 2.7448-8.8532 3.682c-5.2007 1.688-6.9756 3.5433-3.3898 3.5433 1.0231 0 5.8606-1.8796 10.75-4.1768zm-56.61-0.86868c0-0.575-1.1986-2.2441-2.6636-3.709-2.5084-2.5084-2.703-2.5512-3.34-0.73527-0.46157 1.3158-0.01258 2.4833 1.4136 3.6758 2.3526 1.967 4.59 2.3416 4.59 0.76855zm52-1.514c2.475-0.97837 5.3876-2.3777 6.4725-3.1097s2.7865-1.3309 3.7814-1.3309c2.1581 0 3.4392-2.707 1.9742-4.1719-0.71656-0.71656-3.1546 0.05201-7.8828 2.485-3.765 1.9373-7.8579 3.8147-9.0954 4.172-1.3856 0.40005-2.25 1.4333-2.25 2.6892 0 1.2302 0.49604 1.8423 1.25 1.5423l5.75-2.2761zm-38.128-1.0673c1.8547-0.7553 4.2172-1.3733 5.25-1.3733 1.5643 0 1.8779-0.76612 1.8779-4.5879v-4.5879l-4.25 0.70774c-3.7912 0.63133-11.75 3.9315-11.75 4.8722 0 0.19992 3.2625-0.25869 7.25-1.0192 8.6113-1.6422 7.75-1.5906 7.75-0.46446 0 0.5063-1.4625 1.2124-3.25 1.5692-9.7156 1.939-13.75 3.5773-13.75 5.5835 0 1.784 0.43381 1.9396 3.75 1.3453 2.0625-0.36962 5.2675-1.29 7.1221-2.0453zm63.181-1.9235c-0.48454-1.6224-0.91966-2.6007-0.96694-2.174s-1.4136 0.08912-3.0363-0.75c-3.6448-1.8848-4.0497-1.893-4.0497-0.08236 0 1.2355 7.9586 6.9314 8.6787 6.2113 0.14035-0.14034-0.14126-1.5826-0.6258-3.2049zm-18.303-6.4742c3.4375-1.8046 6.25-3.8873 6.25-4.6283s-0.45-1.3472-1-1.3472-1 0.375-1 0.83333-0.5625 0.88272-1.25 0.94307c-2.9634 0.26014-13.713 4.4744-13.264 5.2002 0.27111 0.43865-0.28952 0.73586-1.2458 0.66046-1.0916-0.08607-1.8569 0.69266-2.0561 2.0921-0.30847 2.1671-0.21092 2.1916 3.4995 0.87826 2.0993-0.74303 6.6293-2.8274 10.067-4.632zm-54.75-0.07243c2.2517-3.2188 4.9942-5.6978 7.6894-6.9505 2.3041-1.071 4.4598-2.3848 4.7903-2.9196 0.85505-1.3835-6.514-4.2411-9.199-3.5672-2.9148 0.73157-9.5546 7.378-8.9485 8.9575 0.25756 0.6712-0.38681 1.7544-1.4319 2.4071-2.3806 1.4867-2.461 4.7438-0.15022 6.0897 2.8342 1.6508 3.5707 1.2427 7.25-4.0168zm72.64-2.1213c0.54148-6.2646 5.8296-16.421 9.9335-19.079 1.871-1.2116 3.4074-2.5404 3.4142-2.9529s-2.1463-0.75-4.7847-0.75c-4.2335 0-5.222 0.44056-8.4146 3.75-4.4481 4.611-7.8193 10.989-8.4497 15.985-0.4429 3.5102-0.21664 3.9108 3.3431 5.9196 2.1 1.185 3.9914 1.9868 4.2031 1.7817s0.55147-2.2997 0.75501-4.6546zm-28.187 0.2952c0.31377-0.50769 2.0278-1.2343 3.809-1.6148s5.4885-1.8123 8.2385-3.1819c4.106-2.045 5.481-3.4549 7.6904-7.8852 1.4797-2.9672 2.4675-5.395 2.1952-5.395s-3.6676 1.35-7.545 3-8.0985 3-9.3801 3c-4.0056 0-7.4604 1.8135-7.4604 3.9162 0 3.5061 1.0953 3.3802 12.785-1.4693 3.1394-1.3024 4.5814-1.4809 5.3946-0.6676s0.33625 1.2992-1.7847 1.818c-1.592 0.3894-5.1446 1.7169-7.8946 2.95s-5.7875 2.5003-6.75 2.816-1.75 1.2631-1.75 2.1054c0 1.6831 1.5505 2.0677 2.4524 0.60832zm-31.202-1.6349c3.4062-0.60367 4.7138-2.1449 3.1481-3.7106-0.72073-0.72074-7.299 2.1989-9.3515 4.1505-1.2583 1.1965-1.1912 1.3043 0.5 0.80332 1.0744-0.31824 3.6409-0.87769 5.7034-1.2432zm102.7-11.133c0.30325-0.34505-0.27795-0.32874-1.2915 0.03624s-2.9261 0.93545-4.25 1.2677-2.4071 1.0114-2.4071 1.5092c0 0.87532 6.832-1.5426 7.9486-2.8131zm-116.7-0.2513c1.5125-0.75814 2.75-1.7446 2.75-2.1922s1.35-1.5119 3-2.3652 3-1.9673 3-2.4756c0-1.3721-23.969-13.232-27.791-13.752-2.4682-0.3353-4.153 0.21008-6.7366 2.1807-6.2259 4.7487-6.1404 5.7399 0.83817 9.7205 3.4044 1.9418 7.5397 3.8572 9.1897 4.2562s3.675 1.3092 4.5 2.0225c1.9376 1.6753 7.3521 4.5333 8 4.2228 0.275-0.13182 1.7375-0.85997 3.25-1.6181zm118.41-3.1397c5.4093-2.2452 13.33-5.4854 17.602-7.2003s7.6098-3.5904 7.4183-4.1677-1.6615-1.4938-3.2666-2.0367-3.2075-1.3913-3.561-1.8854c-0.72078-1.0075-5.7046 7.3e-4 -7.5423 1.5259-1.9311 1.6027-0.473 4.0014 1.7192 2.8282 2.3704-1.2686 4.9658-1.2591 4.9658 0.01831 0 0.55-0.43666 1-0.97036 1s-3.4299 1.125-6.4359 2.5-6.0038 2.5-6.6616 2.5-2.5992 0.84524-4.3141 1.8783-4.8055 2.1785-6.868 2.5453c-3.4422 0.61225-4.7379 2.2552-3.0833 3.9097 0.88376 0.88377-0.0834 1.1841 10.998-3.4156zm-61.719-0.25539c2.5047-1.1285 5.2443-2.1715 6.0879-2.3178 1.6394-0.28434 6.2787-2.3451 11.966-5.3153 1.925-1.0053 5.6183-2.1111 8.2074-2.4574s5.289-1.179 6-1.8507 3.3176-2.2981 5.7926-3.6144 4.8716-2.7229 5.3258-3.1258c1.4184-1.2583-4.7429 0.2122-6.3258 1.5098-0.825 0.6763-4.875 2.4511-9 3.944s-9.075 3.3217-11 4.0639-9.0082 3.2434-15.741 5.5582c-14.428 4.961-18.556 7.3759-10.813 6.3271 2.7203-0.36849 6.9953-1.5933 9.5-2.7218zm68.547 0.3491c0.35034-0.56686-0.05106-0.7345-0.94098-0.39301-1.7324 0.66479-2.0494 1.3816-0.61096 1.3816 0.51754 0 1.2159-0.44485 1.5519-0.98855zm-65.828-7.5659c8.7095-3.055 17.973-6.2224 20.585-7.0387s4.75-1.6447 4.75-1.8407-2.2646-1.5406-5.0325-2.9879l-5.0325-2.6314-6.2175 2.5997c-3.4196 1.4298-10.042 3.8601-14.718 5.4006-8.5665 2.8228-14.078 5.0495-15 6.0603-0.275 0.30141-1.625 1.052-3 1.6679l-2.5 1.1199 3.5 1.5633c1.925 0.8598 4.2491 1.5809 5.1646 1.6024s8.7906-2.4604 17.5-5.5154zm59.957 1.4348c6.4665-2.5038 8.029-3.4998 7.6663-4.8867-0.42311-1.618-0.92241-1.5788-7.0181 0.55124-3.6094 1.2612-7.724 3.4546-9.1436 4.8741-3.4793 3.4793-1.5686 3.3581 8.4953-0.53869zm-12.622 0.1197c0.5887-1.1 0.84537-2 0.57037-2s-0.98167 0.9-1.5704 2-0.84537 2-0.57037 2 0.98167-0.9 1.5704-2zm-4.0325-1.9393c1.3839-2.5859 0.25279-3.046-3.9354-1.6006-3.2182 1.1106-3.3262 1.2789-1.5 2.338 2.8469 1.651 4.2598 1.4593 5.4354-0.7373zm-83.592-0.51028c-1.1383-0.79728-5.6259-2.8559-9.9725-4.5747s-11.297-4.8473-15.445-6.9523c-7.1366-3.6215-9.5786-4.4065-12.875-4.1386-1.3901 0.11299-0.62612 1.6152 0.82142 1.6152 0.40596 0 1.5588 0.82075 2.562 1.8239 1.3545 1.3545 2.0175 1.5106 2.5762 0.60667 0.54568-0.88292 2.6342-0.15076 7.6047 2.6659 10.369 5.8758 20.506 10.277 23.825 10.344 2.8777 0.05802 2.9065 0.01371 0.90292-1.3897zm9.6246 0.44959c-1.9584-1.2656-3.2822-1.2656-2.5 0 0.33992 0.55 1.379 0.99311 2.309 0.98469 1.4573-0.0132 1.4837-0.14929 0.19098-0.98469zm66.031-1.8144c1.0712-0.99794 4.8784-2.397 8.4605-3.109 5.6458-1.1222 6.915-1.8022 9.5328-5.1074l3.0199-3.8129-4.7722 1.8332c-17.34 6.6611-23.245 9.7784-21.098 11.139 1.9324 1.2251 2.6878 1.0785 4.8575-0.94293zm-59.031-0.2366c0-0.57806-1.6875-1.7182-3.75-2.5336s-5.775-2.3196-8.25-3.3425c-2.475-1.023-6.525-2.6787-9-3.6793-5.3618-2.1678-12-6.3194-12-7.5049 0-1.1337 4.9866 1.0432 7.5644 3.3023 1.1354 0.99504 2.3778 1.8092 2.7609 1.8092s2.604 0.87308 4.9356 1.9402 6.1516 2.4344 8.4891 3.0385 4.25 1.438 4.25 1.8532c0 1.2217 7.7622 2.935 9.1912 2.0287 1.0301-0.65326 0.98934-0.83272-0.19118-0.84259-0.825-0.00689-3.3-0.86416-5.5-1.905s-6.925-3.254-10.5-4.9181-13.531-6.4387-22.124-10.61-15.94-7.5847-16.327-7.5847c-1.7131 0 6.191 5.6474 9.7971 7 4.1118 1.5422 4.9894 3.7633 1.2501 3.1639-1.9894-0.31885-8.3535-3.0698-11.597-5.0128-0.825-0.49425-4.65-2.3631-8.5-4.153s-7.6816-3.8456-8.5148-4.5684-3.3081-1.7381-5.5-2.2563-4.7727-1.2674-5.7352-1.6649c-1.2045-0.4974-1.75-0.26072-1.75 0.75933 0 0.85176 1.2959 1.7412 3.0472 2.0914 1.676 0.3352 4.9385 1.8714 7.25 3.4138 4.858 3.2416 15.021 8.2268 16.771 8.2268 0.65686 0 4.6227 1.7582 8.813 3.9072s10.094 5.0032 13.119 6.3428c14.476 6.4105 19.814 8.835 23.5 10.674 4.3741 2.1826 8.5 2.6799 8.5 1.0246zm-16.596-2.3154c-4.4268-2.5317-11.954-6.142-19.904-9.5466-2.75-1.1777-7.5842-3.5076-10.743-5.1777s-6.0997-2.8158-6.5362-2.546-2.9031-0.71409-5.4812-2.1864l-11.338-6.4763c-6.3639-3.6357-9.4243-4.3433-9.5794-2.2149-0.0395 0.54212 1.8968 2.0561 4.3028 3.3645 10.068 5.4746 20.444 10.388 22.387 10.602 1.1444 0.12562 7.6847 2.7332 14.534 5.7945 23.537 10.52 30.949 13.3 22.358 8.3871zm-50.404-1.7516c0-0.55-0.45-0.72189-1-0.38197s-1 1.068-1 1.618 0.45 0.72189 1 0.38197 1-1.068 1-1.618zm157.73-0.91515c6.2817-2.8483 8.2148-4.3234 8.2512-6.2963 0.01845-0.99927-5.611 0.13743-8.4519 1.7066-4.3433 2.3991-9.1477 7.6228-7.0109 7.6228 0.28707 0 3.5322-1.3649 7.2115-3.0332zm31.767-1.5794c3.3-1.4108 8.925-3.6268 12.5-4.9244 5.8929-2.139 6.5293-2.6444 6.8134-5.4112 0.24641-2.3999-0.07404-3.0486-1.5-3.0366-0.99735 0.00842-2.4884 0.45153-3.3134 0.98469-1.1932 0.7711-0.99887 0.97251 0.95 0.98469 1.4744 0.00921 2.0717 0.36893 1.5 0.90335-1.3266 1.2401-15.888 6.1204-20.726 6.9462-3.4249 0.58468-4.0451 1.0791-4.2952 3.4245-0.36055 3.3817 0.4324 3.3944 8.0713 0.12865zm-107.62 0.5056 3.1753-1.1069-7.1697-3.4781c-3.9433-1.913-7.8926-3.618-8.7761-3.789-1.6412-0.31759-36.248-16.871-48.253-23.081-3.6554-1.8909-7.4124-3.438-8.3489-3.438s-4.6114-1.5984-8.1664-3.5519c-5.6628-3.1118-7.0151-3.4692-10.913-2.8846-2.4473 0.367-4.6604 1.0082-4.918 1.425-0.54573 0.88302 20.243 11.745 23.674 12.369 1.2756 0.23215 9.0692 3.6809 17.319 7.6639 26.805 12.941 37.732 17.981 39.886 18.396 1.1628 0.22429 3.2392 0.86849 4.6142 1.4316 3.2954 1.3495 4.1178 1.354 7.8769 0.04359zm97.123 0.10693c0-0.55-0.45-1-1-1s-1 0.45-1 1 0.45 1 1 1 1-0.45 1-1zm-188-1.3129c0-0.7221 1.35-2.6063 3-4.1871s2.9992-3.1275 2.9982-3.4371c-0.00203-0.64053-8.367-6.0629-9.3531-6.0629-1.1725 0-0.66974 10.988 0.5954 13.014 1.42 2.2739 2.7594 2.6008 2.7594 0.67352zm182.82-0.93709c-0.20536-1.446-1.1236-2.3642-2.5696-2.5696-2.6874-0.38167-2.9696 1.5528-0.5 3.4275 2.548 1.9342 3.431 1.6874 3.0696-0.85795zm-228.18-1.2205c3.2602-1.1361 4.7812-1.1981 7.1795-0.29281 2.3736 0.89592 3.6635 0.85646 5.8635-0.17936l2.8205-1.328-3.0297-1.2776c-3.3462-1.4111-20.759-1.5021-22.138-0.11562-0.763 0.7668 3.0517 4.683 4.5288 4.6494 0.35157-0.00801 2.5006-0.6632 4.7757-1.456zm290.07-3.0295c2.8042-4.9665 2.8532-5.871 0.2424-4.4738-3.163 1.6928-8.7828-0.50788-9.5987-3.7587-1.3605-5.4208 2.4511-7.359 9.6169-4.8902l4.2824 1.4754-0.63207-4.6114c-0.69209-5.0494-2.6975-8.837-4.7834-9.0345-0.73488-0.06955-2.582-0.42362-4.1048-0.7868-2.3129-0.55165-3.3234-0.07209-6.1391 2.9134-5.6018 5.9397-7.0183 16.301-2.8593 20.916 0.86739 0.9625 1.2039 1.75 0.74777 1.75s0.24759 1.1463 1.5638 2.5473c1.8425 1.9613 3.1998 2.4789 5.8994 2.25 2.9137-0.24707 3.888-0.97333 5.7648-4.2973zm-138.21 0.87805c7.932-2.5986 15.433-7.8489 13.695-9.5865-0.44676-0.44676-7.7601-4.2248-16.252-8.3957-14.096-6.9235-15.822-7.5316-19.839-6.9883-2.4195 0.32726-4.8945 0.99459-5.5 1.483s-4.4759 1.6636-8.6009 2.6116c-12.534 2.8805-15.219 3.612-14.8 4.0313 0.79373 0.79372 21.333 10.684 22.8 10.979 0.825 0.16591 5.325 2.1353 10 4.3764s8.9485 4.0829 9.4966 4.0928 4.5981-1.1618 9-2.6039zm23.488-0.62805c1.6261-1.7875 2.9698-3.6004 2.9859-4.0286 0.03133-0.83227 11.425-15.634 19.029-24.721 2.5313-3.025 7.9235-9.775 11.983-15s7.861-9.8306 8.4488-10.235 0.70956-0.74158 0.27064-0.75c-1.1548-0.02216 4.5595-8.0048 8.1982-11.452 4.486-4.2505 4.0538-5.5629-1.8321-5.5629-4.4327 0-5.1612 0.32893-7.1978 3.25-1.2462 1.7875-4.2019 5.4923-6.5681 8.2328s-4.3022 5.3589-4.3022 5.8185-3.9375 5.5817-8.75 11.382c-10.92 13.163-14.099 17.344-14.873 19.566-0.33548 0.9625-1.2325 1.75-1.9933 1.75s-1.3834 0.40679-1.3834 0.90398-3.3532 5.1935-7.4515 10.436l-7.4515 9.5323 3.2015 1.9809c4.2628 2.6376 4.286 2.6342 7.6863-1.1034zm4.0445 1.1004c4.014-5.8667 9.0152-12.218 16.418-20.85 4.4807-5.225 9.1746-11.3 10.431-13.5l2.284-4-3.1576 3.5c-1.7366 1.925-5.2249 6.2-7.7517 9.5s-7.7798 9.815-11.673 14.478c-7.0318 8.4211-10.12 13.022-8.7407 13.022 0.39597 0 1.3818-0.96734 2.1907-2.1496zm16.056-0.93639c3.5283-1.1473 6.8652-2.5636 7.4152-3.1472 0.68535-0.72726 0.52803-0.90355-0.5-0.56029-0.825 0.27547-4.5375 1.5034-8.25 2.7287s-6.75 2.4162-6.75 2.6463c0 0.76846 1.6226 0.43379 8.0848-1.6676zm-160.08-3.8489c0-2.7142-0.44096-6.0947-0.97992-7.5123-1.1487-3.0214-6.1058-5.7956-6.774-3.791-0.22701 0.68103-0.95024 1.2382-1.6072 1.2382-1.2702 0-1.6396-0.39452-8.6389-9.2269-2.475-3.1232-5.0625-5.6998-5.75-5.7258s-1.2695-0.38481-1.2933-0.79731-2.3338-3.225-5.1334-6.25l-5.0901-5.5 4.2259 5.5c7.2257 9.4043 20.064 23.448 22.234 24.322 1.0494 0.42251 1.0293 0.71986-0.10249 1.5098-2.0584 1.4366-4.0802 0.33538-8.7688-4.7762l-4.1782-4.5551-2.308 2.2639c-1.7208 1.688-2.0571 2.6616-1.3219 3.8272 0.54237 0.85983 1.4361 1.6215 1.9861 1.6927s5.725 2.9481 11.5 6.3932 10.838 6.2772 11.25 6.2934 0.75-2.1912 0.75-4.9054zm204.43 3.9286 9.071-2.9665c5.2023-1.6996 5.5596-1.9647 2.6879-1.9937-3.732-0.03774-12.673 2.6056-15.66 4.6299-2.3959 1.6235-0.52779 1.7816 3.9015 0.3303zm-19.791-2.5156c2.9319-1.387 6.8003-2.8071 8.5965-3.1558s4.8341-1.4638 6.7509-2.4782c3.7128-1.9646 9.0148-2.4818 9.0148-0.87937 0 1.3461-3.8289 3.2589-5.0334 2.5145-0.54564-0.33723-2.3318 0.05521-3.9693 0.87209s-4.4188 1.8018-6.1807 2.1888c-3.0063 0.66029-3.0875 0.78848-1.3189 2.0817 2.4381 1.7828 4.4397 1.7447 6.5043-0.1237 1.9407-1.7563 15.046-6.4982 17.959-6.4982 3.2684 0 10.039-3.1082 10.039-4.6086 0-1.8091-0.50211-1.7665-6.9493 0.59005-5.3002 1.9373-7.3794 1.9472-5.4583 0.02612 0.5275-0.5275 3.6475-1.8097 6.9333-2.8494 3.6906-1.1677 6.0978-2.5149 6.2976-3.5242 0.4267-2.1564-1.5486-2.0651-5.9113 0.27321-1.9571 1.0489-7.8004 2.9381-12.985 4.1981s-9.5768 2.6518-9.7602 3.0928-1.3504 0.80194-2.5934 0.80194c-5.9256 0-18.573 6.2473-18.573 9.1743 0 1.2572 0.85858 1.0378 6.6378-1.6962zm-27.507-6.2282c5.4359-8.115 11.453-15.799 16.113-20.577 1.5164-1.5548 2.757-3.2423 2.757-3.75s0.03846-1.1112 0.08547-1.3412 3.8694-4.3674 8.4943-9.1944 8.6997-9.6926 9.0551-10.813 1.5636-3.277 2.6847-4.7934 1.7649-3.0305 1.4306-3.3648c-0.71761-0.7176-6.6782 5.606-6.7209 7.1302-0.01612 0.57588-1.8293 2.8047-4.0293 4.953s-4 4.2414-4 4.6514-1.1452 1.9812-2.5449 3.4915-4.39 5.471-6.6451 8.8015-5.7224 7.8715-7.7051 10.091-5.1799 5.9722-7.1049 8.3393c-1.925 2.3671-4.1272 4.9712-4.8938 5.7869s-2.4405 3.0256-3.7199 4.9107c-2.2116 3.259-2.2306 3.4276-0.38664 3.4276 1.3058 0 3.6354-2.532 7.1308-7.75zm-189.38 4.5008c4.4838 0.16471 5.0351-0.37689 3-2.9472-1.0725-1.3545-2.3862-1.4419-9.25-0.61489-8.3295 1.0036-10.233 1.8163-8.9847 3.8361 0.53042 0.85823 2.1966 0.96749 5.8629 0.38445 2.817-0.44799 7.0344-0.74427 9.3719-0.6584zm192.93-1.5008c0.7688-0.9625 2.4567-3.325 3.7508-5.25 1.2942-1.925 4.8643-6.3765 7.9336-9.8922s5.3642-6.7422 5.0999-7.1699 0.70355-1.7092 2.1509-2.8478c2.5418-1.9994 9.3096-11.712 9.3619-13.435 0.01408-0.46454-1.5993 1.1105-3.5854 3.5s-4.011 4.4946-4.5 4.6779-0.88902 0.8829-0.88902 1.5546-1.6268 2.9967-3.6151 5.1667c-7.3891 8.0643-11.079 12.981-10.655 14.195 0.24013 0.6875-0.27589 1.25-1.1467 1.25s-1.5833 0.41786-1.5833 0.92857-0.56833 1.5232-1.263 2.25c-2.6223 2.7437-4.7865 6.8214-3.6203 6.8214 0.63955 0 1.7918-0.7875 2.5606-1.75zm73.88-0.83176c-2.1928-1.6034-3.5573-1.8225-3.5573-0.57105 0 1.0087 4.2817 3.1046 4.9984 2.4468 0.27413-0.25161-0.37438-1.0957-1.4411-1.8757zm-285.64 1.2988c-0.22917-0.15563-1.3167-0.94313-2.4167-1.75-1.85-1.357-1.8971-1.3358-0.62755 0.28297 0.75484 0.9625 1.8423 1.75 2.4167 1.75s0.85673-0.12734 0.62756-0.28297zm232.5-3.3585c0.52667-1.3725 0.38034-1.4343-0.89301-0.37756-1.7352 1.4401-1.9158 2.019-0.62988 2.019 0.49116 0 1.1765-0.73865 1.5229-1.6414zm-4.9159-1.6301c2.6352-1.3109 13.308-11.976 11.159-11.151-0.91255 0.35018-1.6592 1.0689-1.6592 1.5971s-0.82946 0.69713-1.8432 0.37537c-2.9453-0.93479-7.6219 1.6208-11.533 6.3027-1.9928 2.3852-3.6233 4.5278-3.6233 4.7612 0 0.59332 5.089-0.68586 7.5-1.8852zm74.849 0.80359c0.70524-1.8378-1.1697-3.1117-2.5493-1.732-1.0674 1.0674-0.29966 3.2 1.152 3.2 0.4587 0 1.0875-0.66059 1.3973-1.468zm-284.67-0.97171c2.6833-0.05098 3.2847-0.5249 3.8834-3.0603 0.38964-1.65 0.64555-3.489 0.56868-4.0866s1.0164-1.6134 2.4295-2.2572l2.5692-1.1706-2.131-2.9928c-2.273-3.1921-3.2656-3.8619-2.4068-1.624 0.59632 1.554-6.0889 4.6312-10.061 4.6312-3.369 0-7.5268 2.0415-7.5268 3.6957 0 1.0492 0.45794 1.1296 1.9343 0.33948 2.4765-1.3254 11.066-1.3527 11.066-0.03518 0 0.55-1.5078 1-3.3508 1-6.2772 0-12.649 3.1838-12.649 6.3203 0 0.57133 2.4433 0.61793 6.25 0.11919 3.4375-0.45036 7.6788-0.84599 9.425-0.87917zm268.14-2.0603c-0.22474-1.925-0.09783-3.5 0.28201-3.5s1.3849-1.7351 2.2334-3.8557 2.9569-5.0456 4.6853-6.5l3.1426-2.6443h-2.8806c-3.4664 0-8.4356 4.7355-10.722 10.218-2.0031 4.8025-1.9567 6.7534 0.19932 8.3901 2.7911 2.1187 3.4969 1.6326 3.0602-2.108zm-285.81 1.0567c0-0.79381-1.0125-2.1561-2.25-3.0273-2.0712-1.4582-2.2785-1.4481-2.6087 0.1272-0.19731 0.94118 0.4512 2.3035 1.4411 3.0273 2.3343 1.7069 3.4176 1.6666 3.4176-0.1272zm251.64-3.0505c1.5754-0.82161 4.2143-1.5164 5.8643-1.5439s4.8-0.73258 7-1.5668 5.575-1.9787 7.5-2.5434c4.131-1.2118 12.371-5.8143 11.668-6.5172-0.26883-0.26883-5.8167 1.3896-12.328 3.6855s-13.865 4.886-16.34 5.7559-5.0946 2.1761-5.8214 2.9027c-1.7141 1.7136-1.0735 1.6686 2.4571-0.17281zm-65.671-1.941c-0.80536-0.78917-5.7393-3.6114-10.964-6.2716s-13.479-6.9762-18.342-9.591-8.6609-4.1802-8.4397-3.4784 5.1002 3.6831 10.842 6.6253 14.265 7.3235 18.94 9.7362c9.2995 4.7994 10.144 5.1152 7.9643 2.9795zm-182.48-3.5398c3.038-4.8126 5.5323-6.5252 11.766-8.0788 5.226-1.3025 5.6114-1.8569 2.9597-4.2567-1.6092-1.4563-2.2776-1.4736-6.6064-0.1708-6.1878 1.8623-11.041 4.8833-13.585 8.4559-3.2136 4.513-2.5293 7.6751 1.7196 7.9462 0.6806 0.04342 2.3666-1.7097 3.7466-3.8958zm80.878 2.4747c-0.24623-0.64167-1.0139-1.1667-1.706-1.1667s-6.7967-2.775-13.566-6.1667-12.484-6.1667-12.699-6.1667-0.39103 0.59896-0.39103 1.331c0 1.3711 0.66106 1.7531 10 5.7777 3.025 1.3036 5.725 2.622 6 2.9297 0.83379 0.93292 9.9634 4.6282 11.434 4.6282 0.75619 0 1.1734-0.525 0.92719-1.1667zm167.89-1.6002c1.5118-0.60204 2.4978-1.5008 2.191-1.9972-1.0714-1.7335-3.9626-0.82383-6.9032 2.1719-2.8236 2.8766-2.8472 2.9694-0.5 1.9694 1.3549-0.57723 3.7004-1.5421 5.2122-2.1441zm-77.749 1.1002c-0.33992-0.55-1.154-0.99311-1.809-0.98469-0.71561 0.0092-0.59227 0.40223 0.30902 0.98469 1.9211 1.2415 2.2673 1.2415 1.5 0zm20.183-6.7087 4.3401-6.2087-2.2615-1.2451c-1.2438-0.68481-2.7115-1.2659-3.2615-1.2913s-8.0888-3.6074-16.753-7.96-16.032-7.6344-16.374-7.2929 1.0832 1.4277 3.1659 2.4137 5.0005 2.9179 6.484 4.2929 3.881 3.3054 5.3279 4.2899c3.496 2.3785 4.419 6.2017 2.1124 8.7504-0.97543 1.0778-2.4688 1.9597-3.3185 1.9597-2.1991 0-0.66485 1.2008 6.855 5.365 3.575 1.9797 7.1396 3.495 7.9214 3.3672s3.3744-3.0262 5.7615-6.4409zm-146.59 4.6585c2.8598-1.5305 1.3713-2.9498-3.0938-2.9498-4.3825 0-5.9193 1.3664-3.271 2.9081 2.2861 1.3309 3.9356 1.3417 6.3648 0.0417zm70.948-0.52748c7.554-1.7181 10.265-3.5398 4.2219-2.8374-7.2024 0.83713-14.263 2.5629-14.263 3.486 0 1.3 2.0589 1.1671 10.042-0.64855zm-2.5416-3.3734c3.3-0.59896 7.125-1.5255 8.5-2.059s4.2626-1.2392 6.4169-1.5682 4.9668-0.99737 6.25-1.4852c3.0195-1.148 3.089-3.3348 0.08309-2.6132-1.2375 0.29707-4.05 0.83781-6.25 1.2016s-6.3794 1.5196-9.2875 2.5683-7.1831 1.9093-9.5 1.9124c-5.9986 0.00794-12.449 1.9009-10.624 3.1174 1.4654 0.97633 4.2631 0.76782 14.411-1.074zm122.23-0.59781c3.7244-1.4019 7.1172-2.8944 7.5395-3.3166 1.0418-1.0418 2.5652-14.135 1.6446-14.135-0.40279 0-1.8936 1.4625-3.313 3.25-5.0076 6.3064-8.114 10.065-9.6272 11.649-2.4907 2.6067-4.2586 5.1013-3.6152 5.1013 0.32979 0 3.6469-1.147 7.3713-2.5488zm-219.73-0.53551c1.1314-0.64474 0.88559-0.85359-1-0.8498-1.375 0.00277-3.625 0.68103-5 1.5072-2.4832 1.4922-2.4766 1.4979 1 0.8498 1.925-0.35883 4.175-1.0371 5-1.5072zm25.25 0.31047c3.2113-0.28336 4.75-0.87378 4.75-1.8226 0-1.4746-4.0988-1.9688-5.4201-0.65349-0.41438 0.4125-2.1666 0.75-3.8937 0.75-2.2846 0-3.2423 0.51666-3.5147 1.8959-0.30041 1.5214-0.00864 1.7333 1.4771 1.0726 1.0183-0.45281 3.9889-1.0119 6.6014-1.2424zm89.5 1.1436c1.2375-0.33163 2.25-1.0005 2.25-1.4863 0-1.4147-4.4384-1.019-6.5589 0.58483-1.9153 1.4486-1.9145 1.4684 0.05887 1.4863 1.1 0.00998 3.0125-0.25319 4.25-0.58483zm124.33-1.6197c0.04208-0.6875 0.22726-2.0375 0.41152-3s-0.02343-1.75-0.4615-1.75c-0.77934 0-4.0265 4.4071-4.0265 5.4648 0 1.1588 4.0048 0.45656 4.0765-0.71482zm8.3229 0.41277c0.28459-0.46048 0.72187-3.8926 0.97172-7.627 0.37283-5.5724 0.22323-6.5429-0.83445-5.4128-1.5366 1.6419-2.93 13.877-1.5804 13.877 0.5091 0 1.1585-0.37675 1.4431-0.83723zm45.601-1.6628c0-1.4167-0.57778-2.5-1.3333-2.5-2.1118 0-2.6779 1.1106-1.5963 3.1315 1.4148 2.6435 2.9296 2.317 2.9296-0.63148zm-203.26-1.0534c3.7186-0.33625 9.6862-1.4213 13.261-2.4112s8.2658-2.1903 10.424-2.6676 4.0898-1.3749 4.2923-1.9946c0.79351-2.4283-3.3804-2.2528-14.871 0.6253-6.591 1.6508-13.302 3.0015-14.914 3.0015-5.3107 0-3.0543-1.7732 3.7683-2.9612 3.6844-0.64161 7.1719-1.4639 7.75-1.8273s2.168-0.81403 3.533-1.0014c2.859-0.39234 3.63-0.93149 2.6843-1.8772-0.36692-0.36692-3.1606-0.21516-6.2082 0.33724s-5.7539 0.66-6.0141 0.23912c-0.59051-0.95546 1.6511-1.6496 8.0139-2.4817 2.7268-0.35658 6.9923-1.2606 9.479-2.009 2.5632-0.77141 4.8978-0.98395 5.391-0.49078s-0.47211 1.1646-2.229 1.5505c-4.0479 0.88907-4.1863 3.3349-0.15518 2.7433 2.3007-0.33768 3.086-1.0799 3.5952-3.3983 0.35832-1.6314 0.44408-3.1737 0.19057-3.4272-1.0647-1.0647-41.828 7.3688-43.448 8.989-0.27071 0.2707 1.9686 0.23821 4.9763-0.07222 3.4744-0.35858 5.7156-0.16456 6.1462 0.53208 0.8381 1.3561-1.6906 1.9138-11.19 2.4681-8.1111 0.47326-9.6164 1.1886-6.8138 3.2379 1.3676 1 3.5308 1.2166 7.7484 0.77578 4.0774-0.42617 5.8511-0.26523 5.8511 0.53089 0 0.62835-1.35 1.1425-3 1.1425s-3 0.417-3 0.92668c0 1.3379 3.1331 1.841 5.7388 0.92139 1.2314-0.43455 5.2814-1.0652 9-1.4014zm32.17 0.94902c1.7688-0.88238 2.9774-1.843 2.6857-2.1346-0.74511-0.7451-6.5944 1.792-6.5944 2.8603 0 1.1695 0.17486 1.137 3.9087-0.72566zm131.96-4.1457c1.193-5.3157 1.4159-7.4074 1.2486-11.714-0.10314-2.655-0.27406-2.8054-1.6384-1.441-0.8378 0.8378-1.5544 3.2967-1.5924 5.4643s-0.50956 5.3947-1.0478 7.1715c-0.96505 3.1855-0.521 5.2696 1.1228 5.2696 0.46268 0 1.321-2.1375 1.9072-4.75zm-224.9-0.29012c1.1406-0.668 0.71952-0.90688-1.6385-0.92947-3.8882-0.03726-13.326 2.0665-13.326 2.9705 0 0.87742 13.012-0.89721 14.965-2.041zm104.54 2.0401c-0.33992-0.55-1.154-0.99311-1.809-0.98469-0.71561 0.0092-0.59227 0.40223 0.30902 0.98469 1.9211 1.2415 2.2673 1.2415 1.5 0zm123.16-2.25c-0.27741-0.6875-0.50439-0.125-0.50439 1.25s0.22698 1.9375 0.50439 1.25 0.27741-1.8125 0-2.5zm33.188 1.1522c4.3521-1.5172 4.3154-4.3172-0.04413-3.3597-4.3302 0.95108-7.8354 4.4575-4.4559 4.4575 0.74292 0 2.7679-0.49402 4.5-1.0978zm-134.05-2.1032c0.31843-1.6799-2.7774-4.9942-6.7032-7.1764-1.1107-0.61739-6.4256-4.2869-11.811-8.1544-9.9104-7.1174-14.162-9.966-17.791-11.922-1.1-0.59262-6.8733-4.3671-12.83-8.3878-6.0328-4.0723-12.345-7.5562-14.25-7.8654-4.1873-0.6795-4.446 0.75138-0.67037 3.7081 7.4881 5.864 23.873 17.356 27.273 19.128 2.1124 1.101 4.3764 2.6474 5.0312 3.4364s1.9272 1.4345 2.8276 1.4345 2.1837 0.87538 2.8519 1.9453 3.8139 3.7585 6.9906 5.9746 7.5757 5.3649 9.7757 6.9973c4.3702 3.2427 8.7786 3.6604 9.3054 0.88171zm118.61-2.0107c6.0964-2.3164 11.319-4.5383 11.605-4.9374s1.846-1.2297 3.4661-1.8457c2.344-0.89119 2.6463-1.3094 1.4796-2.0472-2.7199-1.7202-9.412-0.97437-18.464 2.0579-11.042 3.6992-11.087 3.7281-11.956 7.7342-0.94225 4.3431 0.09798 4.271 13.869-0.96171zm11.961 0.12375c6.5287-3.2922 8.7945-4.912 6.8708-4.912-1.6488 0-6.513 2.2532-8.067 3.7368-0.72596 0.69308-2.4135 1.5346-3.75 1.8701s-2.4301 1.0111-2.4301 1.5015c0 1.3641 0.77072 1.1346 7.3763-2.1964zm-264.88 0.24822c7.4149-1.6473 8.0232-1.9742 8.3164-4.4688 0.26305-2.2374-0.07437-2.6922-2-2.6961-3.8033-0.00761-18.816 3.3513-18.816 4.2099 0 0.43712-0.74474 0.79477-1.655 0.79477-1.4883 0-1.4727 0.20141 0.15499 2 2.1936 2.424 3.7316 2.4416 14 0.16026zm45.36-1.1603c1.1769 0 2.1398-0.45 2.1398-1s-1.125-1-2.5-1-2.5 0.45-2.5 1-0.9 1-2 1c-2.2087 0-2.7184 1.5642-0.75 2.3016 0.6875 0.25757 1.7496-0.15493 2.3602-0.91666s2.0731-1.385 3.25-1.385zm71.691 0.08253c-1.3115-2.122-15.639-12.146-16.553-11.581-1.8417 1.1382-1.1551 7.3442 0.93639 8.4635 3.2623 1.7459 4.7143 1.1048 2.0807-0.91866-1.3668-1.0502-2.2504-2.144-1.9636-2.4308 0.55625-0.55625 11.804 4.8478 13.399 6.4378 1.2178 1.2138 2.8471 1.2366 2.101 0.02944zm46.949-2.0825 2.8742-3-2.4371 0.01518c-1.3404 0.00835-4.4493 0.61674-6.9086 1.352l-4.4716 1.3368 2.9716 1.608c4.0873 2.2117 4.6908 2.1124 7.9716-1.3119zm51.676-0.75c3.1049-3.2502 3.6506-4.5623 4.094-9.8444 0.2814-3.3519 0.28844-7.262 0.01564-8.6891-0.4862-2.5434-0.56613-2.5028-4.0433 2.0526-1.951 2.556-3.9181 6.2411-4.3712 8.1891-1.0602 4.5576-1.1065 12.042-0.07456 12.042 0.43838 0 2.4091-1.6875 4.3794-3.75zm-180.68 0.75c-0.33992-0.55-1.0415-1-1.559-1s-0.94099 0.45-0.94099 1 0.70156 1 1.559 1 1.2809-0.45 0.94098-1zm173.62-12.173c1.7153-2.5702 2.9529-4.8307 2.7502-5.0234s1.4314-2.2918 3.6314-4.6647c4.3105-4.6494 5.9353-7.0368 5.2533-7.7188-0.52537-0.52537-9.5956 10.255-11.962 14.218-0.94003 1.574-3.7224 5.5617-6.183 8.8617s-4.504 6.3954-4.5408 6.8786c-0.10484 1.3744 7.5896-7.3646 11.051-12.552zm-179.62 10.13c3.85-0.62992 7.3757-1.501 7.8349-1.9358s-1.1922-1.5646-3.6697-2.5108c-3.9839-1.5215-5.3229-1.574-11.585-0.45497-6.9014 1.2334-7.0803 1.3404-7.0803 4.2368 0 3.3353-1.4236 3.2701 14.5 0.6647zm18.5 0.09693c9.0902-1.1564 12-2.049 12-3.6809 0-1.5123-0.67464-1.4286-11 1.3644-3.025 0.81826-6.743 1.7141-8.2622 1.9907s-3.0521 0.97194-3.4064 1.5452c-0.42077 0.68083 0.1903 0.79348 1.7622 0.32488 1.3235-0.39454 5.3314-1.0894 8.9064-1.5442zm106-0.87061c0-0.44943 3.3255-1.6012 7.3901-2.5594s8.227-2.4089 9.25-3.2237c1.6991-1.3535 1.4709-1.4429-2.6401-1.0351-5.8912 0.5845-14 2.7614-14 3.7585 0 0.43242-1.575 1.0817-3.5 1.4428s-3.5 1.0565-3.5 1.5453 1.575 0.88871 3.5 0.88871 3.5-0.36772 3.5-0.81716zm-4.25-3.2774c2.3375-0.67212 4.25-1.6008 4.25-2.0638s0.69341-0.84171 1.5409-0.84171c2.754 0 14.459-4.1463 14.459-5.1219 0-0.57957-0.72675-0.55953-1.8685 0.05153-1.0277 0.55-2.1502 0.71836-2.4944 0.37413-0.80385-0.80385-11.637 1.7707-11.637 2.7656 0 0.41247-3.1484 1.281-6.9964 1.93s-7.2325 1.5621-7.521 2.0289c-0.70673 1.1435 2.6416 2.9942 4.5175 2.4969 0.825-0.21871 3.4125-0.94758 5.75-1.6197zm100.17-0.3905 2.4192-1.2482-3.4192-1.079c-6.3002-1.9882-7.1825-1.8777-7.9736 0.99899-0.40636 1.4777-0.46957 2.956-0.14045 3.2851 0.7717 0.7717 6.0021-0.35134 9.114-1.9569zm-277.86-2.797-3.3421-3.218 2.7828 3.7772c1.5306 2.0775 3.0345 3.5255 3.3421 3.218s-0.94468-2.0074-2.7828-3.7772zm30.33 3.1335c5.3296-1.0703 5.6983-1.3256 5.4168-3.75-0.56675-4.8807-8.9104-3.5669-12.896 2.0306-1.9716 2.7689-1.9765 2.8679-0.14083 2.8679 1.0457 0 4.4748-0.51683 7.6202-1.1485zm72.925-1.2965c6.247-1.1709 11.366-3.5538 7.6392-3.5558-4.5992-0.00246-17.9 3.4274-18.406 4.7464-0.44679 1.1643-0.07239 1.3394 1.691 0.79068 1.2457-0.38759 5.3297-1.2792 9.0756-1.9813zm162.91-0.59906c0.48371-3.2957-0.63154-4.9313-1.615-2.3684-0.89428 2.3305-0.73387 5.4125 0.28172 5.4125 0.48758 0 1.0876-1.3698 1.3333-3.044zm-192.45-1.5178c-0.3352-0.3352-1.1485 0.44159-1.8073 1.7262-1.1451 2.2329-1.1183 2.2597 0.60945 0.60946 0.99401-0.94941 1.533-2.0004 1.1978-2.3356zm-1.981-2.6835c1.4902-2.2425 3.5501-5.4671 4.5775-7.1659s3.5384-5.1137 5.5801-7.5887c5.2968-6.421 5.8412-7.4928 3.0461-5.9969-1.6347 0.87485-2.8828 0.91301-4.5794 0.14003-2.1039-0.9586-2.6847-0.60154-5.933 3.6471-4.87 6.3698-12.482 18.048-12.482 19.15 0 1.0646 5.1583 2.9839 6.2905 2.3407 0.43479-0.24701 2.0098-2.2839 3.5-4.5263zm7.6744 2.6586c0.9322-1.4227 1.5193-2.7624 1.3047-2.977-0.76183-0.76183-4.7696 2.7005-4.7696 4.1205 0 2.236 1.5956 1.7094 3.4649-1.1435zm7.9742-4.1632c2.0865-2.3375 3.5004-4.25 3.1421-4.25s-0.12024-1.0125 0.52915-2.25c1.1704-2.2304 1.1622-2.2336-0.93929-0.36812-1.166 1.035-2.4171 2.835-2.7803 4s-0.93716 2.347-1.2755 2.6268c-1.9736 1.6318-5.3537 6.1381-4.0425 5.3894 0.86501-0.49393 3.2799-2.8106 5.3664-5.148zm83.4 3.7371c3.4865-1.0929 7.424-1.9871 8.75-1.9871s2.4109-0.3596 2.4109-0.79911c0-1.1527 6.1343-3.2009 9.5866-3.2009 3.2411 0 9.584-3.0118 10.193-4.8401 0.53665-1.61-0.49331-1.4697-6.7942 0.92545-7.7 2.927-19.424 6.5153-26.414 8.0841-3.2603 0.7318-6.1103 1.893-6.3333 2.5806-0.55586 1.7133 1.1968 1.5578 8.6002-0.7629zm-116.84-0.53968c3.9091-0.78393 6.2129-2.8603 10.423-9.3943 1.576-2.4458 3.2582-4.9208 3.7381-5.5s3.0986-4.0491 5.8192-7.7109c4.2108-5.6673 4.7296-6.8378 3.4876-7.8686-0.80248-0.66601-2.0059-3.07-2.6742-5.3423-1.1434-3.8876-3.5481-6.9014-4.8597-6.0908-0.32319 0.19975-2.7753-1.4446-5.4492-3.6542-6.9354-5.7311-8.0923-6.2189-11.736-4.9488-1.7758 0.61905-5.2413 0.80084-8.0823 0.42397l-4.9735-0.65976 0.74957 16.899c1.1849 26.714 1.8099 30.951 4.9505 33.563 1.1584 0.96329 2.7812 1.5791 3.6062 1.3686s3.075-0.69873 5-1.0848zm72-0.94742c-1.4204-1.7114-8-2.0573-8-0.42054 0 0.67129 1.0984 0.83821 2.9048 0.44145 1.6663-0.36598 3.1837-0.18668 3.559 0.42054 0.35982 0.5822 1.1328 1.0586 1.7176 1.0586 0.67059 0 0.60356-0.55411-0.18146-1.5zm-18.469-1.5569c12.884-2.6905 13.781-3.2268 9.105-5.4456-3.7777-1.7926-7.4725-1.6576-15.882 0.58044-3.8831 1.0334-8.0769 4.5906-7.1605 6.0734 0.7785 1.2596 3.0709 1.0609 13.938-1.2083zm51.889 1.186c0.29602-0.47896 1.9694-1.1571 3.7187-1.5069s2.9103-0.90639 2.5799-1.2367c-0.88621-0.88621-10.707 1.8247-10.11 2.7908 0.67135 1.0862 3.1296 1.0559 3.8112-0.0471zm97.188-6.4296c0.05967-2.8598 0.45985-7.5621 0.88929-10.45 0.52382-3.5221 0.43198-5.25-0.27903-5.25-1.4703 0-2.3183 4.5231-2.7481 14.657-0.28456 6.7103-0.09896 8.3711 0.83149 7.4403 0.65881-0.65904 1.2466-3.5381 1.3063-6.3978zm-177.53 2.4177c0.96635-1.8019 2.5416-4.1431 3.5007-5.2028s1.4955-2.1749 1.1922-2.4782c-0.58269-0.58268-4.7696 4.8192-4.7696 6.1536 0 0.42965-1.0125 1.8844-2.25 3.2328-1.2652 1.3786-1.6329 2.2588-0.84012 2.0112 0.77543-0.24225 2.2005-1.9147 3.1669-3.7166zm122.51 0.14007c-0.6935-0.69349-2.5907 0.71555-2.5907 1.9241 0 0.6631 0.57378 0.58723 1.5242-0.20152 0.83829-0.69572 1.3182-1.4709 1.0665-1.7226zm-117.59 0.32597c0-0.77916 0.5625-1.6712 1.25-1.9824s0.35517-0.45597-0.73852-0.32185c-2.0397 0.25013-3.518 3.7209-1.5848 3.7209 0.59032 0 1.0733-0.6375 1.0733-1.4167zm80.995-2.5807c1.0304-0.55145 3.1405-1.0224 4.6892-1.0465s4.6157-0.73638 6.8157-1.5828 7.375-2.596 11.5-3.8881c6.7061-2.1006 7.1019-2.3564 3.7391-2.4172-2.0685-0.03739-5.6685 0.79623-8 1.8525-6.0845 2.7565-15.221 5.165-21.668 5.712-6.4433 0.54669-14.74 3.336-13.043 4.3849 1.2627 0.78041 13.026-1.4405 15.967-3.0147zm7.0049 1.9974c0-1.1737-0.76862-1.1737-3.5 0-1.7722 0.76156-1.6868 0.86743 0.75 0.92971 1.5125 0.03866 2.75-0.37971 2.75-0.92971zm55.443-3.8901c-0.71019-0.71019-3.4587 2.7808-3.41 4.3312 0.0183 0.58238 0.92955-0.01738 2.025-1.3328s1.7187-2.6647 1.385-2.9984zm-45.549 2.1419c0.33323-0.49493 2.8559-1.4753 5.6059-2.1786 9.5623-2.4455 14.5-4.2402 14.5-5.2702 0-0.61368-0.91755-0.75316-2.25-0.34203-1.2375 0.38183-3.825 1.0963-5.75 1.5878-10.595 2.7048-13 3.478-13 4.1786 0 0.42495-0.62356 0.77264-1.3857 0.77264s-2.6746 0.71345-4.25 1.5854l-2.8643 1.5854 4.3941-0.50962c2.4168-0.2803 4.6668-0.91456 5-1.4095zm78.594-1.0018c-0.18426-0.9625-0.39796-2.65-0.47491-3.75-0.1252-1.79-0.23988-1.7502-1.092 0.3789-0.64682 1.6162-0.58724 2.8185 0.18583 3.75 1.5002 1.8077 1.7847 1.7296 1.381-0.3789zm-269.9-2.0728c-1.9352-3.7422-4.2022-5.6162-5.0787-4.198-0.36584 0.59193 0.76669 2.4138 2.5167 4.0486 3.9573 3.6966 4.41 3.723 2.562 0.14948zm159.91 1.8228c2-0.85943 2-0.85943 0-0.9144-1.1-0.03024-2.675 0.38124-3.5 0.9144-1.3333 0.86166-1.3333 0.96326 0 0.9144 0.825-0.03024 2.4-0.44172 3.5-0.9144zm-61.417-4.1892c4.4241-5.4233 6.9025-9.0846 6.9108-10.209 0.01004-1.3692-5.128 4.3132-8.724 9.6483-3.9578 5.8717-2.809 6.227 1.8133 0.5608zm11.88-5.2479c0.06701-1.6723-5.7645 4.5717-6.3392 6.7876-0.40195 1.5498 0.39932 1.0335 2.8721-1.8505 1.8863-2.2 3.4465-4.4217 3.4671-4.9371zm9.0226 5.7805c0.54362-0.53815-4.0391-4.2865-5.283-4.3212-0.8632-0.02405-5.6186 5.0842-5.6704 6.0912-0.03427 0.66529 10.157-0.98162 10.953-1.7701zm30.24 0.32732c0.65297-1.0265 0.99755-5.0579 0.99755-11.671 0-3.4136-0.18783-4-1.2812-4-0.58246 0-0.80012 0.4189-0.48369 0.9309s0.11799 1.2136-0.44098 1.559-1.0163 3.05-1.0163 6.0101c0 4.9239-1.7986 8.6043-2.7743 5.677-0.21579-0.64738-0.80485-1.177-1.309-1.177-1.0839 0-1.2342 3.3492-0.19678 4.3866 0.96566 0.96566 5.572-0.24939 6.5048-1.7158zm108.73-11.921c0.11556-1.9924-2.9916-0.38569-4.8346 2.5-1.1416 1.7875-3.2458 5.05-4.6759 7.25-2.045 3.1458-1.3118 2.612 3.4334-2.5 3.3185-3.575 6.0532-6.8375 6.0771-7.25zm18.057 6.8892c0.00751-1.1766 0.30075-3.212 0.65165-4.5231 0.45828-1.7124 0.26997-2.2612-0.66852-1.9484-1.3763 0.45875-3.9791 7.9293-3.9483 11.332 0.017 1.8801 0.13598 1.8585 1.9848-0.36079 1.0817-1.2984 1.9729-3.3234 1.9804-4.5zm-34.862 2.6108c3.8197-4.1581 7.1417-9.2896 6.4571-9.9742-0.335-0.335-0.73175-0.4216-0.88167-0.19243s-2.4298 3.2292-5.0664 6.6667c-4.8424 6.3134-5.1713 8.5753-0.50905 3.5zm-135.04-3.4112c1.1118-1.5614 1.6533-2.8217 1.2033-2.8009s-2.1289 1.9334-3.731 4.25-2.1436 3.577-1.2033 2.8009 2.6192-2.6886 3.731-4.25zm47.71 0.8719c-0.06148-1.7659 0.21364-4.6732 0.61138-6.4607 0.46863-2.1061 0.34323-3.25-0.35629-3.25-0.59371 0-1.124 1.0125-1.1784 2.25s-0.27956 4.4141-0.50026 7.0592c-0.24566 2.9441-0.02574 4.5771 0.56705 4.2107 0.53259-0.32916 0.91804-2.0433 0.85657-3.8092zm20.176 1.2214 13.185-2.4761c0.92681-0.17392 2.5018-0.73721 3.5-1.2518s6.1011-1.6944 11.34-2.6218c14.354-2.5412 14.597-3.742 0.68332-3.3759-7.1034 0.18695-12.073 0.74536-12.5 1.4045-0.38957 0.60178-3.1833 1.3964-6.2083 1.7658s-10.106 1.6346-15.736 2.8114c-8.1107 1.6954-10.014 2.4081-9.1639 3.4319 0.58983 0.7107 0.75233 1.8101 0.3611 2.4431-0.47567 0.76965-0.09009 0.96504 1.1639 0.58979 1.0314-0.30863 7.0502-1.5331 13.375-2.721zm5.25 2.4056c-0.6875-0.27742-1.8125-0.27742-2.5 0s-0.125 0.50438 1.25 0.50438 1.9375-0.22697 1.25-0.50438zm-38.326-10.588c0.04184-2.0625-0.37392-3.75-0.92392-3.75s-1.0079 0.1125-1.0176 0.25c-1.0612 15.096-1.0859 14.491 0.43885 10.75 0.78461-1.925 1.4608-5.1875 1.5026-7.25zm42.805 9.6458c-0.3323-0.33229-1.1948-0.36782-1.9167-0.07895-0.79773 0.31923-0.56078 0.55619 0.60417 0.60417 1.0542 0.04342 1.6448-0.19293 1.3125-0.52522zm-85.872-4.4738c1.8462-2.223 3.0837-4.3149 2.75-4.6486s-0.74496-0.41926-0.91387-0.19009-1.7817 2.3292-3.584 4.6667c-4.1701 5.4084-2.7194 5.5512 1.7479 0.17206zm92.979 2.0779c0.3849-1.1789 0.18734-1.2554-0.92288-0.35761-0.77694 0.62831-2.3126 1.384-3.4126 1.6793-1.2565 0.33735-0.91348 0.47028 0.92288 0.35761 1.6076-0.09864 3.1433-0.85434 3.4126-1.6793zm81.129-4.75c0.02086-1.3245-0.56652-2.25-1.4281-2.25-1.0886 0-1.4396 1.1933-1.37 4.6585 0.08909 4.4382 0.15662 4.5446 1.4281 2.25 0.73401-1.3247 1.3505-3.421 1.37-4.6585zm-135.04-3.8945c0.06772-1.8898-0.42792-2.1273-4.1732-2-4.1548 0.14123-4.2569 0.228-4.5591 3.8732-0.27299 3.2932 0.07747 3.9654 3 5.7543l3.3091 2.0255 1.1732-3.7543c0.64523-2.0649 1.2077-4.7193 1.25-5.8988zm74.994 7.0276c1.1779-1.0833-0.8207-0.96023-3.9167 0.24114l-3.5 1.3582 3.5-0.60805c1.925-0.33443 3.6875-0.78049 3.9167-0.99124zm40.083-5.5214c0-1.7281-2.227 0.48847-4.3315 4.3113l-1.8315 3.3269 3.0815-3.2658c1.6948-1.7962 3.0815-3.7638 3.0815-4.3724zm-106.54-0.61178c0.56969-2.667 0.38848-3.25-1.0102-3.25-1.3556 0-1.5832 0.60617-1.1122 2.9612 0.32573 1.6287 0.14964 3.2348-0.39132 3.5691s-0.68894 1.0846-0.32886 1.6672c0.8245 1.3341 1.9011-0.53969 2.8426-4.9475zm28.035 1.3733 12-2.3075-7.5-0.73196c-4.125-0.40258-10.425-0.58614-14-0.40791l-6.5 0.32406-0.31602 3.2856c-0.28763 2.9906-0.10804 3.2344 2 2.7154 1.2738-0.31364 7.716-1.6086 14.316-2.8777zm53.3 1.1767c2.781-2.781 0.4802-3.6478-4.4849-1.6899-2.6157 1.0315-2.6734 1.1682-0.8151 1.9297 2.857 1.1708 3.9383 1.1218 5.3-0.23985zm-101.3-4.8079c-0.87279-1.4122-4.2454-1.2296-4.7651 0.25792-0.24017 0.6875 0.50983 1.7771 1.6667 2.4213 1.6802 0.93569 2.2651 0.88381 2.9075-0.25792 0.44227-0.78608 0.52821-1.8757 0.19099-2.4213zm190.77 0.35198c-0.67703-0.27392-2.027-0.2906-3-0.03705s-0.41903 0.47766 1.231 0.49804 2.4461-0.18707 1.769-0.46099zm-41.019-1.0063c-0.6875-0.27742-1.8125-0.27742-2.5 0s-0.125 0.50438 1.25 0.50438 1.9375-0.22697 1.25-0.50438zm-86.75-1.3377c-0.33992-0.55-1.829-0.96837-3.309-0.92972-2.4028 0.06276-2.4768 0.16232-0.69098 0.92972 2.7782 1.1938 4.7378 1.1938 4 0zm41.229 0.39583c-0.3323-0.33229-1.1948-0.36782-1.9167-0.07895-0.79773 0.31923-0.56078 0.55619 0.60417 0.60417 1.0542 0.04342 1.6448-0.19293 1.3125-0.52522zm23 0c-0.33229-0.33229-1.1948-0.36782-1.9167-0.07895-0.79773 0.31923-0.56078 0.55619 0.60417 0.60417 1.0542 0.04342 1.6448-0.19293 1.3125-0.52522zm-85.229-1.3958c-0.33992-0.55-1.379-0.99311-2.309-0.98469-1.4573 0.0132-1.4837 0.14929-0.19098 0.98469 1.9584 1.2656 3.2822 1.2656 2.5 0zm10 0c-0.33992-0.55-1.518-1-2.618-1s-1.7219 0.45-1.382 1 1.518 1 2.618 1 1.7219-0.45 1.382-1zm21 0c-2.7525-1.1828-3.731-1.1828-3 0 0.33992 0.55 1.604 0.96837 2.809 0.92971 2.1124-0.06776 2.1192-0.10112 0.19098-0.92971zm10.75 0.33772c-0.6875-0.27742-1.8125-0.27742-2.5 0s-0.125 0.50438 1.25 0.50438 1.9375-0.22697 1.25-0.50438zm-90.817-1.2292c0.30305-0.49034-1.0204-1.075-2.941-1.2992-3.5886-0.41895-4.8686 0.68432-1.742 1.5014 2.9646 0.77472 4.1098 0.72528 4.683-0.2022zm12.067-0.10847c-1.1-0.47269-3.125-0.85943-4.5-0.85943-2.2788 0-2.323 0.07604-0.5 0.85943 1.1 0.47268 3.125 0.85943 4.5 0.85943 2.2788 0 2.323-0.07604 0.5-0.85943zm19 0c-0.33992-0.55-1.604-0.99311-2.809-0.98469-1.7812 0.01245-1.9105 0.1966-0.69098 0.98469 1.9701 1.2732 4.2869 1.2732 3.5 0zm7.5 0c0-0.55-0.70156-1-1.559-1s-1.2809 0.45-0.94098 1 1.0415 1 1.559 1 0.94098-0.45 0.94098-1zm146.32 0c0.78651-0.80855-3.0083-14.869-4.7168-17.477-0.86132-1.3145-3.064-3.5326-4.8948-4.929-2.9538-2.253-3.7446-2.4241-7.0206-1.5196-2.0305 0.56065-3.7138 1.1107-3.7407 1.2224s-0.6059 5.251-1.2867 11.421c-1.0954 9.9273-1.061 11.271 0.29889 11.678 2.0077 0.60086 20.729 0.25432 21.361-0.3954zm-196.32-1c-1.9759-1.2769-5.2892-1.2769-4.5 0 0.33992 0.55 1.829 0.99311 3.309 0.98468 2.1048-0.01197 2.3642-0.22648 1.191-0.98468zm32.25 0.33772c-0.6875-0.27742-1.8125-0.27742-2.5 0s-0.125 0.50438 1.25 0.50438 1.9375-0.22697 1.25-0.50438zm108.78-1.0375c1.3599-0.93486 3.0338-2.4717 3.7198-3.4152s3.2735-4.0892 5.75-6.9905 4.5027-5.6046 4.5027-6.0073-1.6471-1.2758-3.6603-1.9402c-3.6493-1.2044-3.6732-1.1933-7.9616 3.6724-2.3657 2.6842-4.3186 5.1754-4.3397 5.5358s-1.6548 2.5901-3.6304 4.9547c-3.2477 3.8873-3.4154 4.3688-1.75 5.0243 2.9767 1.1718 4.7423 0.97191 7.3694-0.83413zm20.417-5.5279c0.38951-3.4498 0.96707-7.5701 1.2835-9.1563 0.42351-2.123 0.22621-2.7676-0.74782-2.4429-1.3791 0.45971-1.486 1.0067-2.367 12.113-0.67099 8.4587 0.86701 8.0275 1.8313-0.51341zm5.3007 4.1493c0.13503-1.3319 0.77254-5.4742 1.4167-9.205 0.89234-5.1683 0.89341-7.0611 0.00449-7.95-1.7522-1.7522-2.8956 0.06627-3.6049 5.7333-0.34421 2.75-0.88586 6.4591-1.2037 8.2425s-0.30316 3.9583 0.03256 4.8332c0.87522 2.2808 3.0654 1.201 3.3549-1.654zm4.6981-7.4217c0.37475-4.4 0.90857-8.7875 1.1863-9.75s0.12127-1.75-0.34765-1.75c-0.79763 0-3.361 16.095-3.265 20.5 0.10447 4.7935 1.7813-1.4264 2.4263-9zm-183.44 8.5c-0.825-0.53316-2.175-0.96938-3-0.96938-1.3333 0-1.3333 0.10771 0 0.96938 0.825 0.53315 2.175 0.96937 3 0.96937 1.3333 0 1.3333-0.10771 0-0.96937zm128 0.26602c0-0.64125-1.9886-5.1367-10.133-22.906-1.0437-2.2772-2.4844-4.6273-3.2016-5.2225-1.5377-1.2762-12.726-3.9829-18.862-4.5629-2.3669-0.22376-9.6305-1.8301-16.141-3.5696s-12.124-2.8764-12.474-2.5263-0.68208 2.7481-0.7378 5.329c-0.1188 5.5038-2.3437 26.939-3.0473 29.358-0.26645 0.91621-0.09606 1.9059 0.37865 2.1993s13.372 0.76021 28.661 1.0374 28.044 0.75001 28.344 1.0507c0.82303 0.82303 7.2134 0.65718 7.2134-0.18721zm12-0.62618c0-1.1587-3.0723-8.25-9.6704-22.32-0.91552-1.9523-2.6762-3.5934-4.5597-4.25-3.7351-1.3021-6.7699-1.382-6.7699-0.17841 0 0.49017 2.9098 7.0152 6.4663 14.5l6.4663 13.609h4.0337c2.7345 0 4.0337-0.43808 4.0337-1.3602zm24.994-1.8898-0.00616-3.25-1.4938 2.8643c-1.8438 3.5354-1.8436 3.6357 0.00616 3.6357 1.0269 0 1.4981-1.025 1.4938-3.25zm-3.9609-0.25c1.357-1.85 1.3358-1.8971-0.28297-0.62756-0.9625 0.75485-1.75 1.8424-1.75 2.4167s0.12734 0.85672 0.28297 0.62755 0.94313-1.3167 1.75-2.4167zm51.06-8c-2.3484-12.206-6.041-18.843-12.293-22.095-3.5862-1.8655-3.7997-1.8078-3.7997 1.0279 0 1.5103 0.71921 2.6609 1.8969 3.0346 1.0433 0.33113 3.5395 2.1512 5.5472 4.0447 3.8067 3.5902 5.8207 8.6818 7.1153 17.988 0.79789 5.7358 1.3391 7.0171 2.4657 5.8371 0.43958-0.46042 0.02004-4.8871-0.93231-9.8371zm-171.26 8.5885c1.2957-0.69345 1.7766-2.5458 2.01-7.7424 0.16873-3.757 0.0102-6.5343-0.35228-6.1718s-0.70891 1.034-0.76983 1.4924-0.48227 1.2833-0.93632 1.8333l-3.3047 4c-4.4295 5.3601-2.2722 9.599 3.3531 6.5885zm19.657-0.07557c0.33553-0.54291 0.75809-4.9304 0.93901-9.75s0.61309-9.4384 0.96039-10.264 0.74847-5.6544 0.8915-10.731c0.20313-7.2093-0.04943-9.3484-1.1537-9.7722-1.1563-0.44371-1.3068 0.49415-0.82637 5.149 0.32308 3.1303 0.21184 6.4033-0.2472 7.2732s-1.0968 4.5067-1.4172 8.0817-0.88063 9.7625-1.2449 13.75c-0.44903 4.9159-0.31603 7.25 0.41312 7.25 0.59144 0 1.3499-0.4442 1.6854-0.9871zm-58.074-3.6856c-1.6047-1.2935-5.9399-4.3896-9.6338-6.8803s-6.9875-4.9675-7.3191-5.5041-0.94473-0.76435-1.3625-0.50617-3.1474-1.2361-6.0658-3.3205c-4.3966-3.1402-5.3515-4.3647-5.57-7.1424-0.14505-1.8439-0.87184-3.8298-1.6151-4.4132s-1.9615-2.2452-2.7073-3.6929c-2.8728-5.5767-13.199-10.85-21.272-10.862-4.4434-0.00683-5.9707 1.6868-6.6063 7.3258-0.40655 3.6069-0.01017 5.0144 2.3729 8.4261 1.5735 2.2527 3.8735 4.3625 5.111 4.6883 2.5188 0.66316 3.074 2.5543 0.75 2.5543-1.8167 0-1.8963 0.66018-0.2871 2.3828 0.98901 1.0587 1.563 0.97222 3.1097-0.46873 2.2378-2.0848 4.0208-1.6314 5.483 1.3942 0.71455 1.4787 1.0811 1.6874 1.1268 0.64167 0.03723-0.8525-0.42153-2.0392-1.0194-2.6371-0.73503-0.73504-0.75434-1.2928-0.05961-1.7222 0.56513-0.34927 1.9543 0.35979 3.0871 1.5757 3.2743 3.5146 2.3857 1.2746-1.044-2.6316-2.1322-2.4284-2.6342-3.5348-1.6041-3.5348 0.82474 0 3.3306 2.1375 5.5687 4.75 2.4536 2.8642 4.083 4.1192 4.1041 3.161 0.05475-2.4919-5.0819-8.5461-9.2808-10.939-2.0987-1.1958-3.5913-2.3986-3.317-2.6729 0.73658-0.73658 7.6327 1.712 7.6327 2.7101 0 0.46989 1.4021 1.8527 3.1157 3.0729l3.1157 2.2186-1.2682-2.4005c-1.5447-2.9238-7.9892-8.8015-9.7132-8.8589-1.7474-0.05819-1.5739-2.0416 0.17857-2.0416 0.78572 0 2.0232 0.56897 2.75 1.2644s3.1849 2.7194 5.4624 4.4977c4.3548 3.4003 6.4203 7.9639 4.2199 9.3239-0.89016 0.55015 0.02117 1.9776 3.1346 4.9098 3.972 3.7408 15.073 11.004 16.818 11.004 0.38823 0 1.2885 0.93291 2.0006 2.0731 1.662 2.6612 8.757 5.8519 11.448 5.1482 1.9648-0.51382 1.9205-0.66571-0.84396-2.894zm18.05 1.9227c4.6585-5.6296 7.505-9.6106 7.1359-9.9798-0.45172-0.45171-8.568 8.0239-9.9033 10.342-1.1617 2.0165 1.0372 1.729 2.7674-0.36185zm11.447-8.5116c1.2443-2.0688 3.8297-5.6376 5.7454-7.9305 5.2237-6.2524 7.4258-11.126 6.6898-14.807-0.6317-3.1585-2.2457-2.9195-2.7336 0.40481-0.13461 0.91714-1.9378 4.0135-4.0071 6.8807-3.624 5.0215-3.64 5.0788-0.43596 1.5594 1.8295-2.0096 4.0938-4.7096 5.0318-6 1.1938-1.6423 1.7188-1.8886 1.75-0.82082 0.03883 1.3297-8.4694 13.363-17.912 25.333-1.6739 2.122-3.0435 4.3345-3.0435 4.9167 0 1.5564 6.2903-5.1723 8.915-9.5364zm2.7947 2.6862c2.8653-3.8086 6.1611-8.161 7.3238-9.672s1.9684-3.4645 1.7903-4.341c-0.32575-1.6031-3.7766 2.6706-10.165 12.588-1.5942 2.475-3.2998 4.6517-3.7902 4.8372s-1.3803 1.25-1.9774 2.3657c-2.3957 4.4764 1.7404 0.97119 6.8183-5.7782zm16.447 0.82533c0.08609-3.7125 0.29466-7.875 0.46349-9.25 0.79341-6.4619 0.83622-15.985 0.0707-15.73-0.46952 0.15651-1.0232 2.5223-1.2303 5.2574s-0.6174 8.1228-0.91168 11.973-0.79647 8.2265-1.116 9.7256c-0.61 2.8619 0.04144 4.7744 1.6263 4.7744 0.51754 0 1.0114-3.0375 1.0975-6.75zm3.9073 6c0.03511-0.4125 0.22695-2.1 0.42631-3.75 1.8681-15.461 2.2123-21.063 1.3278-21.611-0.55863-0.3462-0.32675-0.86368 0.53522-1.1944 2.3696-0.90928 1.8236-14.04-0.60318-14.505-1.5233-0.29243-1.75 0.51574-1.75 6.2374 0 4.1936 0.40636 6.5733 1.1224 6.5733 0.76265 0 0.80309 0.40068 0.12615 1.25-2.0538 2.5767-3.8668 27.751-1.9986 27.75 0.4125-1.3e-4 0.77873-0.33773 0.81384-0.75023zm-34.038-13.152c10.443-12.893 23.384-31.022 22.66-31.746-0.26414-0.26415-1.8721-0.51984-3.5732-0.56821-2.4967-0.07099-3.914 0.84447-7.3527 4.7493-6.0971 6.9237-8.014 9.4665-7.1362 9.4665 0.42281 0-0.5845 1.4625-2.2385 3.25s-6.5396 7.7097-10.857 13.16l-7.8499 9.9105 2.3236 1.8815c1.278 1.0348 2.8782 1.7501 3.556 1.5895s5.3885-5.423 10.468-11.694zm123.84 10.149c0.67814-1.2671 0.06572-3.8965-2.2098-9.4876-2.586-6.354-3.6664-7.9154-6.0522-8.7471-3.6493-1.2722-3.6058-1.2759-3.6058 0.31017 0 2.1536 8.8446 19.677 9.9316 19.677 0.54894 0 1.4202-0.78881 1.9362-1.7529zm-114.87-15.057c3.0718-5.0762 0.5934-2.8379-5.6741 5.1246-7.9507 10.101-8.4138 11.098-1.9445 4.1855 3.0886-3.3 6.5169-7.4895 7.6186-9.3101zm-7.2989-14.44c3.0057-4.2625 5.7805-7.75 6.1661-7.75 0.76075 0 4.1324-5.3419 4.1324-6.5472 0-1.6871-15.992 0.52797-24.959 3.4572-5.2027 1.6995-10.474 3.09-11.714 3.09-2.247 0-2.2535 0.04704-1.9372 13.971 0.33594 14.79 0.69863 16 5.4888 18.304 2.5541 1.2287 2.8124 1.0282 9.9902-7.7568 4.0526-4.96 9.8275-12.506 12.833-16.768zm131.03 18.7c2.5447-3.2307 2.3314-3.7618-1.6215-4.0354-1.5609-0.10806-4.2285-0.50189-5.9281-0.87517-2.6985-0.59269-3.0424-0.43123-2.714 1.2743 0.20687 1.0742 1.3683 3.8978 2.5809 6.2747 2.1672 4.248 2.2325 4.2865 3.8299 2.2556l3.8527-4.894zm16.435-8.9497c0.81365-6.1429-0.05156-14.534-1.5524-15.056-0.61043-0.21226-2.2349-0.59-3.6099-0.83942s-5.425-1.1355-9-1.9691c-13.403-3.1253-20.536-4.6518-21.699-4.6436-0.87981 0.00616-0.80537 0.95043 0.27963 3.5472 1.3519 3.2356 1.3128 3.9137-0.45697 7.9145-1.0646 2.4066-2.9498 4.9185-4.1895 5.582-1.7965 0.96147-1.9644 1.3683-0.82732 2.0047 2.1247 1.189 17.798 5.0708 22.393 5.5462 2.2 0.22756 6.25 1.0567 9 1.8424 7.9308 2.2662 8.8936 1.8747 9.6623-3.9285zm11.635-1.8594c4.0743-5.4086 5.6054-9.4277 4.5948-12.061-1.4749-3.8434-4.1726-0.89395-4.856 5.3091-0.34195 3.1038-1.7628 5.0885-5.1353 7.1728-4.0973 2.5323-4.7081 5.9112-0.93833 5.1906 1.4734-0.28166 4.0178-2.5355 6.3348-5.6113zm4.7184 3.715c4.0628-1.559 7.7088-18.356 3.9844-18.356-1.0476 0-1.5 1.0556-1.5 3.5 0 1.925 0.1125 3.6475 0.25 3.8278s-0.91735 1.8678-2.3441 3.75c-4.1799 5.5142-5.2507 7.9222-3.5229 7.9222 0.79937 0 2.209-0.28997 3.1326-0.64438zm-152.39-3.1056c1.2439-1.5861 1.2085-1.6214-0.37756-0.37756-1.6658 1.3064-2.1955 2.1276-1.3724 2.1276 0.20765 0 0.99515-0.7875 1.75-1.75zm13.58-3.4883c-0.23919-1.2439-0.44398-0.46166-0.45508 1.7383s0.18461 3.2177 0.4349 2.2617 0.25937-2.7561 0.02018-4zm-55.707 2.7383c0-0.825-0.17685-1.5-0.39301-1.5s-0.65203 0.675-0.96861 1.5-0.13973 1.5 0.39301 1.5 0.96861-0.675 0.96861-1.5zm185.96-2.9522c0.66289-0.79874 1.3227-2.4862 1.4662-3.75s0.58658-3.3102 0.98457-4.5478c0.86221-2.681-1.1507-3.1615-2.0945-0.5-0.34134 0.9625-1.1685 2.425-1.838 3.25-1.8034 2.222-2.4603 7-0.96234 7 0.68138 0 1.7812-0.65351 2.4441-1.4522zm-52.585-1.8328c0.9666-0.7068 2.001-3.1005 2.2986-5.3193 0.43984-3.2793 0.09994-4.5444-1.8163-6.7601-2.0007-2.3133-4.5518-3.2361-16.857-6.0977-36.956-8.5939-38.186-8.7525-42.365-5.4653-2.0146 1.5847-2.6349 2.9607-2.6349 5.845 0 4.0302 1.387 5.8041 6.5 8.3137 3.3068 1.623 19.267 5.8218 24 6.3139 4.0747 0.42366 17.773 3.3944 18.36 3.9818 1.0324 1.0324 10.865 0.3944 12.515-0.81207zm-77.339-5.4649c-0.41912-4.1647-0.5211-4.3378-0.82767-1.4048-0.31032 2.969 0.21614 6.1548 1.0171 6.1548 0.15873 0 0.07349-2.1375-0.18942-4.75zm4.9483-3.941c0.01685-3.5109-1.6496-5.3459-2.6016-2.8649-0.33155 0.864-0.29272 3.2239 0.0863 5.2442 0.8173 4.3566 2.4906 2.7738 2.5153-2.3793zm123.02 3.132c0-0.79254-0.42203-1.441-0.93785-1.441s-0.87241 0.86882-0.79242 1.9307c0.16425 2.1804 1.7303 1.7372 1.7303-0.48974zm-206.31-5.172c-0.25354-0.97297-0.47766-0.41903-0.49804 1.231s0.18707 2.4461 0.46099 1.769 0.2906-2.027 0.03705-3zm162.31 0.35341c0-0.75765-0.675-1.9378-1.5-2.6224-1.5902-1.3198-1.9517-0.34077-0.89301 2.4182 0.74671 1.9459 2.393 2.0864 2.393 0.20423zm51.5-0.45535c2.2-0.39471 3.55-0.98994 3-1.3228-1.1396-0.68959-30.01-7.7001-45-10.927-5.5-1.1841-13.6-3-18-4.0353-20.127-4.7359-26.251-6.0542-29.625-6.3776-1.9937-0.19105-8.9224-1.7326-15.397-3.4258-11.603-3.0342-20.874-3.7864-26.478-2.1482-2.405 0.70304-2.367 0.76044 1 1.5108 1.925 0.42899 9.125 2.2363 16 4.0162 17.311 4.4819 24.303 6.049 25.66 5.751 1.0501-0.23053 44.835 10.652 51.705 12.851 1.5757 0.50437 3.1567 0.73669 3.5133 0.51627s4.9175 0.65528 10.135 1.946c9.7798 2.4193 16.536 2.8928 23.487 1.6458zm-215.98-2.1671c0.76849 0 1.2846-0.92781 1.193-2.1445-0.21757-2.8882-5.1775-4.9172-9.7397-3.9841-3.8173 0.78072-4.6453 2.461-1.4389 2.9201 1.1196 0.1603 3.3696 1.3611 5 2.6685s3.1144 1.9638 3.2978 1.4586 0.94286-0.91853 1.6878-0.91853zm93.186-2.7498c-0.94294-4.9326 1.6649-9.0515 7.4188-11.717 5.1769-2.3985 5.1894-2.4153 2.2894-3.0972-1.6037-0.37707-8.9504-2.2248-16.326-4.1062s-13.952-3.2128-14.614-2.9588c-0.71467 0.27425-1.4942 3.7958-1.9195 8.6714-0.39388 4.5153-0.95341 8.828-1.2434 9.5837-0.3797 0.98948 0.41231 1.3954 2.8297 1.4501 1.8464 0.04183 6.957 1.126 11.357 2.4094 10.622 3.098 10.844 3.0929 10.208-0.23517zm-49.708-3.2502c7.0445-2.4448 13.317-3.9929 16.191-3.9956 7.1556-0.00676 6.8221 1.8404-0.41192 2.2814l-6.2791 0.38283 6.5-0.08435c6.0451-0.07846 6.5234-0.24991 6.8347-2.4497 0.18407-1.3009-0.07299-2.773-0.57124-3.2712-1.8485-1.8485-14.238 0.91431-22.751 5.0732-4.5744 2.2348-9.0095 4.0634-9.8558 4.0634s-1.8168 0.45-2.1567 1c-0.95691 1.5483 0.18255 1.2748 12.5-3zm-22.165-1.1347c-0.39132-2.7658-3.1477-3.1938-3.6536-0.56729-0.44186 2.2944 1.7999 5.1209 3.0612 3.8597 0.50987-0.50987 0.77644-1.9914 0.59238-3.2924z"
     id="path49" />
  <path
     style="fill:#deaa87;stroke-width:0.271429"
     d="m 202.72552,219.33823 c -4.24996,-1.0314 -7.59165,-5.12414 -9.11491,-11.16349 -0.83787,-3.32193 -0.89958,-11.41593 -0.1096,-14.37474 1.06438,-3.98653 3.44018,-7.74238 7.17181,-11.33772 2.37837,-2.29151 4.10203,-3.11776 7.11073,-3.40862 5.72768,-0.5537 8.83906,1.16253 11.35799,6.26503 2.57193,5.20987 2.95979,11.77656 1.07807,18.25274 -1.50362,5.17493 -5.08079,10.31216 -9.72675,13.96875 -2.7467,2.16178 -4.54921,2.57904 -7.76734,1.79805 z m 12.94156,-13.25973 c 1.9819,-1.3356 3.29567,-4.2809 2.73872,-6.13984 -0.95391,-3.18386 -7.80494,-6.53412 -12.05094,-5.89309 -2.31217,0.34907 -3.90332,2.26636 -3.66148,4.41196 0.17052,1.51286 1.14246,2.77671 3.22076,4.18805 2.00115,1.35896 7.48609,4.04136 8.27072,4.04479 0.31382,0.001 0.98082,-0.27398 1.48222,-0.61187 z"
     id="path595" />
  <path
     style="fill:#a05a2c;stroke-width:0.271429"
     d="m 185.30285,201.53589 c -1.69471,-0.8484 -3.03971,-1.73181 -3.58875,-2.35713 -0.86546,-0.98571 -0.8757,-1.02924 -0.70833,-3.00929 0.47004,-5.56055 4.3276,-12.72139 9.49965,-17.63433 2.652,-2.51915 3.80371,-2.90149 8.22962,-2.73208 1.69411,0.0648 3.20903,0.24673 3.36649,0.40418 0.29258,0.29258 -0.24988,0.81552 -3.53034,3.40328 -2.12397,1.67547 -4.13389,4.45799 -6.13228,8.48948 -1.94731,3.92846 -2.96191,7.11865 -3.39047,10.66061 -0.39554,3.26904 -0.56649,4.13225 -0.81836,4.13225 -0.11916,0 -1.43641,-0.61064 -2.92723,-1.35697 z"
     id="path1482" />
  <path
     style="fill:#a05a2c;stroke-width:0.271429"
     d="m 188.64286,209.53226 c -3.18091,-1.69066 -6.92143,-4.84314 -6.92143,-5.83333 0,-0.96447 0.78812,-0.9082 3.20788,0.22905 1.29602,0.60912 2.72283,1.1445 3.17069,1.18975 0.76951,0.0778 0.84824,0.20167 1.43174,2.2537 0.82751,2.91017 0.77252,3.04386 -0.88888,2.16083 z"
     id="path1558" />
  <path
     style="fill:#a05a2c;stroke-width:0.271429"
     d="m 208.59236,200.81507 c -1.88016,-1.58205 -2.00279,-3.87358 -0.18786,-3.5106 1.1408,0.22816 2.35979,1.43419 2.35979,2.33471 0,0.40216 -0.28158,0.98072 -0.64217,1.31947 l -0.64216,0.60329 z"
     id="path1597" />
  <path
     style="fill:#a05a2c;stroke-width:0.174308"
     d="m 213.76651,202.04378 c -0.28632,-0.6284 0.20041,-1.37205 0.84766,-1.29509 0.61047,0.0726 0.65355,0.3135 0.1808,1.01126 -0.51258,0.75657 -0.7795,0.83023 -1.02846,0.28383 z"
     id="path1792" />
</svg>
