<?xml version="1.0" encoding="UTF-8" standalone="no"?>
<svg
   xmlns:dc="http://purl.org/dc/elements/1.1/"
   xmlns:cc="http://creativecommons.org/ns#"
   xmlns:rdf="http://www.w3.org/1999/02/22-rdf-syntax-ns#"
   xmlns:svg="http://www.w3.org/2000/svg"
   xmlns="http://www.w3.org/2000/svg"
   xmlns:xlink="http://www.w3.org/1999/xlink"
   xmlns:sodipodi="http://sodipodi.sourceforge.net/DTD/sodipodi-0.dtd"
   xmlns:inkscape="http://www.inkscape.org/namespaces/inkscape"
   viewBox="0 0 21000 29700"
   height="297mm"
   width="210mm"
   version="1.1"
   id="svg661"
   sodipodi:docname="board.svg"
   inkscape:version="0.92.4 (5da689c313, 2019-01-14)">
  <metadata
     id="metadata665">
    <rdf:RDF>
      <cc:Work
         rdf:about="">
        <dc:format>image/svg+xml</dc:format>
        <dc:type
           rdf:resource="http://purl.org/dc/dcmitype/StillImage" />
        <dc:title></dc:title>
      </cc:Work>
    </rdf:RDF>
  </metadata>
  <sodipodi:namedview
     pagecolor="#ffffff"
     bordercolor="#666666"
     borderopacity="1"
     objecttolerance="10"
     gridtolerance="10"
     guidetolerance="10"
     inkscape:pageopacity="0"
     inkscape:pageshadow="2"
     inkscape:window-width="1920"
     inkscape:window-height="1019"
     id="namedview663"
     showgrid="false"
     inkscape:zoom="0.2973261"
     inkscape:cx="307.46409"
     inkscape:cy="647.44366"
     inkscape:window-x="0"
     inkscape:window-y="32"
     inkscape:window-maximized="1"
     inkscape:current-layer="svg661" />
  <style
     id="style2">
.greenFill {
	fill: green;
}
.blueFill {
	fill: blue;
}
.redFill {
	fill: red;
}
</style>
  <defs
     id="defs93">
    <filter
       id="brightness">
      <feComponentTransfer
         id="feComponentTransfer10">
        <feFuncR
           type="linear"
           slope="0.6"
           id="feFuncR4" />
        <feFuncG
           type="linear"
           slope="0.6"
           id="feFuncG6" />
        <feFuncB
           type="linear"
           slope="0.6"
           id="feFuncB8" />
      </feComponentTransfer>
    </filter>
    <g
       id="double">
      <path
         id="Shape_1_copy"
         data-name="Shape 1 copy"
         class="cls-1"
         d="M7595.05,3148.63c-26.72,15.03-60.85,10.46-60.85,35.41,0,11.93.61,24.16,1.26,33.68,10.64-.47,16.88-0.77,16.88-0.77s62.22-19.98,8.54,51.25c-28.15,37.34-25.63,196.43-25.63,196.43l8.54,555.13s-23.22,180.89-102.51,204.97-155.43-64.07-170.85-153.73,25.63-743.02,25.63-743.02-0.77-33.68-17.09-51.24c-15.71-16.9-51.82-48.08,17.09-51.03v-34.38s3.27-10.3-34.17-17.08-148.2-36.6,25.62-42.7q18.18-.645,35.24-1.2l7.48-128.37,187.94,1.46,6.38,121.29c30.92-.72,51.46-1.2,61.96-1.72C7614.18,3121.63,7621.77,3133.61,7595.05,3148.63Z"
         transform="translate(-6800 -2306)" />
      <linearGradient
         id="shadow_double_bot"
         x1="7418.907"
         y1="3225.56"
         x2="7415.373"
         y2="3177.44"
         gradientUnits="userSpaceOnUse">
        <stop
           offset="0"
           stop-opacity="0.2"
           id="stop14" />
        <stop
           offset="1"
           stop-opacity="0"
           id="stop16" />
      </linearGradient>
      <path
         class="cls-1"
         d="M7297.01,3189.02l-1.17,36.55,242.59-7.04s-5.72-25.17-3.45-41.1"
         transform="translate(-6800 -2306)"
         fill="url(#shadow_double_bot)"
         id="path19" />
      <linearGradient
         id="shadow_double_top"
         x1="7424.34"
         y1="3130.81"
         x2="7424.34"
         y2="3056"
         gradientUnits="userSpaceOnUse">
        <stop
           offset="0"
           stop-opacity="0.2"
           id="stop21" />
        <stop
           offset="1"
           stop-opacity="0"
           id="stop23" />
      </linearGradient>
      <path
         id="Shape_5_copy"
         data-name="Shape 5 copy"
         class="cls-1"
         d="M7328.01,3063.61l-4.92,67.19,202.51-4.64-3.99-70.15"
         transform="translate(-6800 -2306)"
         fill="url(#shadow_double_top)" />
      <linearGradient
         id="shadow_hat"
         x1="7423.655"
         y1="3005.28"
         x2="7423.655"
         y2="3084.59"
         gradientUnits="userSpaceOnUse">
        <stop
           offset="0"
           stop-opacity="0.29"
           id="stop27" />
        <stop
           offset="1"
           stop-opacity="0"
           id="stop29" />
      </linearGradient>
      <path
         id="ombre_pied_copy_3"
         data-name="ombre pied copy 3"
         class="cls-1"
         d="M7521.73,3084.6l-2.84-76.04-189.13-3.28-4.16,77.87"
         transform="translate(-6800 -2306)"
         fill="url(#shadow_hat)" />
    </g>
    <g
       id="inverted">
      <path
         id="Shape_2_copy"
         data-name="Shape 2 copy"
         class="cls-1"
         d="M7595.05,3242.58c-11.14-.56-33.61-1.06-67.8-1.87l8,223.92,8.54,555.13s-23.22,180.89-102.51,204.97-155.43-64.07-170.85-153.73,25.63-743.02,25.63-743.02l7.8-93.67-7.8-.27c-173.83-6.11-48.1-33.43-10.65-40.21,19.87-3.6,31.38-32.42,36.54-49.57l8.28-138.28,187.94-2.54,8.49,161.27a180.71,180.71,0,0,0,8.59,18.08c14.97,27.45,41.62,19.14,68.34,34.16S7622.72,3243.96,7595.05,3242.58Z"
         transform="translate(-6800 -2306)" />
      <linearGradient
         id="shadow_inverted"
         x1="7414.154"
         y1="3234.34"
         x2="7412.286"
         y2="3332.53"
         gradientUnits="userSpaceOnUse">
        <stop
           offset="0"
           stop-opacity="0.329"
           id="stop35" />
        <stop
           offset="1"
           stop-opacity="0"
           id="stop37" />
      </linearGradient>
      <path
         id="Shape_5_copy_2"
         data-name="Shape 5 copy 2"
         class="cls-1"
         d="M7526.71,3239.79l1.54,92.73-230.06-11.46,4.87-86.73Z"
         transform="translate(-6800 -2306)"
         fill="url(#shadow_inverted)" />
      <linearGradient
         id="linearGradient45"
         x1="7423.655"
         y1="3005.28"
         x2="7423.655"
         y2="3084.59"
         gradientUnits="userSpaceOnUse">
        <stop
           offset="0"
           stop-opacity="0.29"
           id="stop41" />
        <stop
           offset="1"
           stop-opacity="0"
           id="stop43" />
      </linearGradient>
      <path
         id="path47"
         data-name="ombre pied copy 3"
         class="cls-1"
         d="M7521.73,3084.6l-2.84-76.04-189.13-3.28-4.16,77.87"
         transform="translate(-6800 -2306)"
         fill="url(#shadow_hat)" />
    </g>
    <g
       id="without">
      <path
         class="cls-1"
         d="M7535.25,3464.63l8.54,555.13s-23.22,180.89-102.51,204.97-155.43-64.07-170.85-153.73,25.63-743.02,25.63-743.02l32.95-358.7h190.38Z"
         transform="translate(-6800 -2306)"
         id="path50" />
      <linearGradient
         id="linearGradient56"
         x1="7423.655"
         y1="3005.28"
         x2="7423.655"
         y2="3084.59"
         gradientUnits="userSpaceOnUse">
        <stop
           offset="0"
           stop-opacity="0.29"
           id="stop52" />
        <stop
           offset="1"
           stop-opacity="0"
           id="stop54" />
      </linearGradient>
      <path
         id="path58"
         data-name="ombre pied copy 3"
         class="cls-1"
         d="M7521.73,3084.6l-2.84-76.04-189.13-3.28-4.16,77.87"
         transform="translate(-6800 -2306)"
         fill="url(#shadow_hat)" />
    </g>
    <g
       id="flat">
      <path
         id="Shape_6_copy_2"
         data-name="Shape 6 copy 2"
         class="cls-1"
         d="M7321.68,3011.98l-273.36-111.02s-111.62-40.98-145.22-102.49-34.95-115.85,187.93-153.73,346.97-36.03,512.56-17.08,357.53,80.56,341.71,128.11-123.63,169.49-427.13,256.21C7409.77,3037.28,7321.68,3011.98,7321.68,3011.98Z"
         transform="translate(-6800 -2306)"
         filter="url(#brightness)" />
      <path
         id="Shape_6_copy"
         data-name="Shape 6 copy"
         class="cls-1"
         d="M6903.1,2798.47c-33.61-61.51-34.95-115.85,187.93-153.73s346.97-36.03,512.56-17.08,357.53,80.56,341.71,128.11-99.96,117.27-367.34,128.11C7064.34,2904.7,6904.16,2800.42,6903.1,2798.47Z"
         transform="translate(-6800 -2306)" />
    </g>
    <g
       id="g65">
      <path
         id="convex"
         class="cls-1"
         d="M7202.09,3020.52s-141.3-18.72-213.57-51.24-148.47-58.13-25.63-213.51c65.04-75.89,236.23-242.31,495.48-222.05s414.04,146.25,461.3,247.67,90.64,145.58-111.05,196.43S7202.09,3020.52,7202.09,3020.52Z"
         transform="translate(-6800 -2306)" />
    </g>
    <g
       id="bell">
      <path
         id="bell-2"
         data-name="bell"
         class="cls-1"
         d="M7164.17,2975.52c-52.39-27.44-98.61-13.7-73.14-151.43s94.85-317.52,179.4-375.78,112.63-57.69,170.85-59.78,142.26,25.39,205.03,111.03,111.05,150.75,111.05,298.91-12.57,188.61-162.31,213.51C7410.98,3042.6,7174.12,2980.73,7164.17,2975.52Z"
         transform="translate(-6800 -2306)" />
    </g>
    <g
       id="conical">
      <path
         id="concical"
         class="cls-1"
         d="M7056.86,2866.8s-45.74,54.54,34.17,85.4,141.38,71.4,324.62,68.32,282.59-34.22,324.62-68.32,55.3-57.81,8.55-128.11-168.21-288.16-222.11-341.62-86.78-139.24-136.68-76.86S7056.86,2866.8,7056.86,2866.8Z"
         transform="translate(-6800 -2306)" />
    </g>
    <g
       id="dot_flat">
      <path
         id="POINTS"
         class="cls-1"
         d="M6986.69,2709.06a25.625,25.625,0,1,1-25.63,25.63A25.622,25.622,0,0,1,6986.69,2709.06Zm77.67,3c10.9-13.8,27.03-22.49,36.03-19.43s7.46,16.74-3.43,30.53-27.02,22.49-36.02,19.42S7053.47,2725.85,7064.36,2712.06Zm264.04,39.71c-26.11-1.54-53.65,15.66-34.17,25.62s26.01,14.31,34.17,0S7354.51,2753.31,7328.4,2751.77Zm76.88-59.78c-24.45,16.83-26.95,25.73,0,42.7s25.68,4.51,34.17-8.54-6.96-31-17.08-34.16-17.09,0-17.09,0h0Zm102.51,0c24.41,12.54,9.87,28.64,0,34.16s-27.1-5.41-25.62-17.08S7483.39,2679.44,7507.79,2691.99Zm112.52,21.46c-3.86,9.66-16.2,8.79,8.54,17.08s-1.94-11.04,8.54-17.08-10.38-49.49-17.08-25.63S7624.16,2703.78,7620.31,2713.45Zm118.13-12.92c25.1,18.28,87.42,20.32,51.26-8.54s-52.02-28.15-59.8-17.08S7713.35,2682.24,7738.44,2700.53Zm85.43,76.86c-10.35,15.67-5.25,17.01-17.08,25.62s-3.98,31.26,17.08,17.08,41.57-31.19,34.17-51.24S7834.22,2761.72,7823.87,2777.39Zm-162.31,25.62s23.64,14.13,8.54,17.08-38.96,15.61-34.17,0S7661.56,2803.01,7661.56,2803.01Zm-230.65-25.62c15.71,21.74,29.94,43.62,8.54,51.24s-48.27,2.49-51.25-17.08,11.4-44.42,25.62-42.7S7415.2,2755.65,7430.91,2777.39Zm-308.24,84.56c1.64-11.97-8.41-27.02,17.01-20.98s47.04-4.74,39.99,15.02m-150.26-52.98c5.84,25.75,17,35.38,0,42.7s-35.63-8.58-34.17-25.62,7.01-22.78,17.08-25.62S7023.57,2777.26,7029.41,2803.01Zm187.93-102.48c-12.16,22.62-50.51,41.3-25.62,51.24s50.49-2.69,51.25-17.08,12.09-26.8,0-34.16S7229.51,2677.9,7217.34,2700.53Zm346.38,50.16a29.5,29.5,0,1,1-29.5,29.5A29.5,29.5,0,0,1,7563.72,2750.69Zm117.15-86.07c-12.53-15.88-31.08-25.89-41.44-22.36s-8.59,19.27,3.95,35.15,31.08,25.89,41.44,22.36S7693.41,2680.5,7680.87,2664.62Zm-263.72-51.13c30.03-1.78,61.72,18.03,39.3,29.5s-29.92,16.48-39.3,0S7387.11,2615.26,7417.15,2613.49Zm-118.44,8.02c28.13,19.38,31,29.64,0,49.17s-29.54,5.19-39.31-9.83,8.01-35.7,19.65-39.34,19.66,0,19.66,0h0Zm243.77,8.54c-28.07,14.45-11.35,32.99,0,39.34s31.18-6.23,29.48-19.67S7570.55,2615.61,7542.48,2630.05Zm-384.41,8.54c-28.07,14.45-11.35,32.99,0,39.34s31.18-6.23,29.48-19.67S7186.14,2624.15,7158.07,2638.59Zm-4.15,159.52c4.43,11.13,18.62,10.12-9.83,19.67s2.23-12.71-9.83-19.67,11.94-56.98,19.66-29.5S7149.49,2786.98,7153.92,2798.11Zm-235.03-48.87c7.62,12.16,3.87,13.19,12.58,19.88s2.93,24.25-12.58,13.25-30.6-24.2-25.16-39.75S6911.27,2737.08,6918.89,2749.24Zm65.01-9.88s-27.19,16.26-9.83,19.66,44.83,17.97,39.31,0S6983.9,2739.36,6983.9,2739.36Zm300.78,99.13c3.43-22.53-13.11-51.15-29.48-49.17s-1.58-15.2-19.65,9.84-34.44,50.22-9.83,59m485.37-118.8c-6.72,29.65-19.57,40.73,0,49.17s40.98-9.89,39.3-29.51-8.06-26.23-19.65-29.5S7717.8,2709.7,7711.09,2739.36Zm-653.12-46.77c-28.86,21.05-100.56,23.4-58.96-9.83s59.84-32.41,68.79-19.67S7086.84,2671.54,7057.97,2692.59Zm478.23,180.1c18.51-3.18,15.99-7.81,30.37-5.09s25.51-18.5.75-24.15-51.19-8.94-60.74,10.18S7517.68,2875.87,7536.2,2872.69Zm-200.14,11.2c-5.98-25.72-17.2-35.29-.23-42.7s35.67,8.4,34.31,25.44"
         transform="translate(-6800 -2306)" />
    </g>
    <g
       id="dot_convex">
      <path
         id="path73"
         class="cls-1"
         d="M7016.69,2709.06a25.625,25.625,0,1,1-25.63,25.63A25.628,25.628,0,0,1,7016.69,2709.06Zm47.67,3c10.9-13.8,27.03-22.49,36.03-19.43s7.46,16.74-3.43,30.53-27.02,22.49-36.03,19.42S7053.47,2725.85,7064.36,2712.06Zm264.04,39.71c-26.11-1.54-53.66,15.66-34.17,25.62s26.01,14.31,34.17,0S7354.51,2753.31,7328.4,2751.77Zm76.88-59.78c-24.45,16.83-26.95,25.73,0,42.7s25.68,4.51,34.17-8.54-6.96-31-17.08-34.16-17.09,0-17.09,0h0Zm102.51,0c24.41,12.54,9.87,28.64,0,34.16s-27.1-5.41-25.62-17.08S7483.39,2679.44,7507.79,2691.99Zm102.52-8.54c-3.86,9.66-16.2,8.79,8.54,17.08s-1.94-11.04,8.54-17.08-10.38-49.49-17.08-25.63S7614.16,2673.78,7610.31,2683.45Zm128.13,17.08c25.1,18.28,87.42,20.32,51.26-8.54s-52.02-28.15-59.8-17.08S7713.35,2682.24,7738.44,2700.53Zm85.43,76.86c-10.35,15.67-5.25,17.01-17.08,25.62s-3.98,31.26,17.08,17.08,41.57-31.19,34.17-51.24S7834.22,2761.72,7823.87,2777.39Zm-162.31,25.62s23.64,14.13,8.54,17.08-38.96,15.61-34.17,0S7661.56,2803.01,7661.56,2803.01Zm-230.65-25.62c15.71,21.74,29.94,43.62,8.54,51.24s-48.27,2.49-51.25-17.08,11.4-44.42,25.62-42.7S7415.2,2755.65,7430.91,2777.39Zm-68.34,102.49c3.98,18.85,6.07,26.67-8.54,25.62s-12.47-13.06-8.55-25.62S7358.59,2861.02,7362.57,2879.88Zm-51.26,59.78c16.68,21.9,17.6,20.77,0,25.62s-44.98,9.49-42.71-8.54,16.14-24.65,25.63-25.62S7294.64,2917.76,7311.31,2939.66Zm-171.63-78.69c25.42,6.04,47.04-4.74,39.99,15.02s-23.32,49.33-42.03,38.96-16.61-21.03-14.97-33S7114.26,2854.93,7139.68,2860.97Zm-110.27-57.96c5.84,25.75,17,35.38,0,42.7s-35.63-8.58-34.18-25.62,7.02-22.78,17.09-25.62S7023.57,2777.26,7029.41,2803.01Zm187.93-102.48c-12.16,22.62-50.51,41.3-25.62,51.24s50.49-2.69,51.25-17.08,12.09-26.8,0-34.16S7229.51,2677.9,7217.34,2700.53Zm346.38,50.16a29.5,29.5,0,1,1-29.5,29.5A29.5,29.5,0,0,1,7563.72,2750.69Zm107.15-116.07c-12.53-15.88-31.08-25.89-41.44-22.36s-8.59,19.27,3.95,35.15,31.08,25.89,41.44,22.36S7683.41,2650.5,7670.87,2634.62Zm-303.72-31.13c30.03-1.78,61.71,18.03,39.3,29.5s-29.92,16.48-39.3,0S7337.11,2605.26,7367.15,2603.49Zm-88.44,8.02c28.13,19.38,31,29.64,0,49.17s-29.54,5.19-39.31-9.83,8.01-35.7,19.65-39.34,19.66,0,19.66,0h0Zm181.07,8.54c-28.08,14.45-11.36,32.99,0,39.34s31.18-6.23,29.48-19.67S7487.85,2605.61,7459.78,2620.05Zm-341.71,8.54c-28.07,14.45-11.35,32.99,0,39.34s31.18-6.23,29.48-19.67S7146.14,2614.15,7118.07,2628.59Zm35.85,169.52c4.43,11.13,18.62,10.12-9.83,19.67s2.23-12.71-9.83-19.67,11.94-56.98,19.66-29.5S7149.49,2786.98,7153.92,2798.11Zm544.55,105.07c-28.87,21.06-100.56,23.4-58.96-9.83s59.84-32.41,68.78-19.67S7727.33,2882.13,7698.47,2903.18ZM7013.9,2739.36s-27.19,16.26-9.83,19.66,44.83,17.97,39.31,0S7013.9,2739.36,7013.9,2739.36Zm221.65,89.8c-18.07,25.03-34.44,50.22-9.83,59s55.53,2.86,58.96-19.67-13.11-51.15-29.48-49.17S7253.62,2804.12,7235.55,2829.16Zm305.86,49.94c-4.58,21.72-6.99,30.72,9.82,29.51s14.35-15.04,9.83-29.51S7545.98,2857.39,7541.41,2879.1Zm-111.9,26.14c-19.18,25.22-20.24,23.92,0,29.5s51.75,10.93,49.14-9.83-18.57-28.38-29.48-29.5S7448.7,2880.02,7429.51,2905.24Zm281.58-165.88c-6.72,29.65-19.57,40.73,0,49.17s40.98-9.89,39.3-29.51-8.06-26.23-19.65-29.5S7717.8,2709.7,7711.09,2739.36Zm-66.62,201.55a25.625,25.625,0,1,1-25.63,25.62A25.619,25.619,0,0,1,7644.47,2940.91Zm292.02-47.56c28.13,19.38,31,29.63,0,49.17s-29.54,5.19-39.31-9.84,8.01-35.69,19.66-39.33,19.65,0,19.65,0h0Zm-160.64,17.08c-28.07,14.45-11.35,32.98,0,39.34s31.19-6.23,29.48-19.67S7803.93,2895.98,7775.85,2910.43Zm-224.34,84.02c5.45-15.55,17.54-5.53,25.16,6.63m94.49-10.22c-5.51-17.97-29.48-19.67-29.48-19.67s-27.19,16.26-9.82,19.67m-430.04-406.19c-10.36,15.67-5.26,17-17.09,25.62s-3.98,31.26,17.09,17.08m131.36-74.66c12.03,16.26,30.26,26.85,40.72,23.64s9.18-18.98-2.85-35.25m264.73,62.22c-30.08.84-61.12-19.95-38.37-30.71s30.43-15.54,39.29,1.22S7665.86,2602.48,7635.78,2603.32Zm-120.92-50.03c1.28,13.49.34,34.14,28.85,20.58m377.4,255.61c-24.51-19.06-86.74-23.05-51.5,6.93s51.12,29.76,59.24,18.94S7945.62,2848.54,7921.11,2829.48Zm-489.89,181.34c-12.45-15.95-30.95-26.06-41.32-22.58s-8.69,19.22,3.76,35.17m-276-68.03c30.05-1.62,61.63,18.35,39.16,29.71s-30.01,16.32-39.31-.21S7087.62,2957,7117.66,2955.38Zm92.54,17.05c-28.14,14.3-11.52,32.93-.2,39.34s31.21-6.06,29.58-19.51S7238.35,2958.13,7210.2,2972.43Zm-230.93-4.82a25.62,25.62,0,1,1,25.49-25.76A25.613,25.613,0,0,1,6979.27,2967.61Zm-43.21-83.72c-5.98-25.72-17.2-35.29-.23-42.7s35.67,8.4,34.31,25.44-6.89,22.82-16.95,25.71S6942.03,2909.61,6936.06,2883.89Zm110.8,53.19c-7.69-12.12-3.94-13.17-12.68-19.81s-3.06-24.23,12.5-13.32,30.73,24.04,25.37,39.62S7054.55,2949.19,7046.86,2937.08Zm-64.96.23s27.11-16.41,9.72-19.72-44.91-17.73-39.3.21S6981.9,2937.31,6981.9,2937.31Z"
         transform="translate(-6800 -2306)" />
    </g>
    <g
       id="dot_bell">
      <path
         id="path76"
         class="cls-1"
         d="M7328.4,2751.77c-26.11-1.54-53.65,15.66-34.17,25.62s26.01,14.31,34.17,0S7354.51,2753.31,7328.4,2751.77Zm76.88-59.78c-24.45,16.83-26.95,25.73,0,42.7s25.68,4.51,34.17-8.54-6.96-31-17.08-34.16-17.09,0-17.09,0h0Zm102.51,0c24.41,12.54,9.87,28.64,0,34.16s-27.1-5.41-25.62-17.08S7483.39,2679.44,7507.79,2691.99Zm102.52-8.54c-3.86,9.66-16.2,8.79,8.54,17.08s-1.94-11.04,8.54-17.08-10.38-49.49-17.08-25.63S7614.16,2673.78,7610.31,2683.45Zm51.25,119.56s23.64,14.13,8.54,17.08-38.96,15.61-34.17,0S7661.56,2803.01,7661.56,2803.01Zm-230.65-25.62c15.71,21.74,29.94,43.62,8.54,51.24s-48.27,2.49-51.25-17.08,11.4-44.42,25.62-42.7S7415.2,2755.65,7430.91,2777.39Zm-68.34,102.49c3.98,18.85,6.07,26.67-8.54,25.62s-12.47-13.06-8.55-25.62S7358.59,2861.02,7362.57,2879.88Zm-51.26,59.78c16.68,21.9,17.6,20.77,0,25.62s-44.98,9.49-42.71-8.54,16.14-24.65,25.63-25.62S7294.64,2917.76,7311.31,2939.66Zm-171.63-78.69c25.42,6.04,47.04-4.74,39.99,15.02s-23.32,49.33-42.03,38.96-16.61-21.03-14.97-33S7114.26,2854.93,7139.68,2860.97Zm77.66-160.44c-12.16,22.62-50.51,41.3-25.62,51.24s50.49-2.69,51.25-17.08,12.09-26.8,0-34.16S7229.51,2677.9,7217.34,2700.53Zm346.38,50.16a29.5,29.5,0,1,1-29.5,29.5A29.5,29.5,0,0,1,7563.72,2750.69Zm107.15-116.07c-12.53-15.88-31.08-25.89-41.44-22.36s-8.59,19.27,3.95,35.15,31.08,25.89,41.44,22.36S7683.41,2650.5,7670.87,2634.62Zm-303.72-31.13c30.04-1.78,61.72,18.03,39.3,29.5s-29.92,16.48-39.3,0S7337.11,2605.26,7367.15,2603.49Zm-88.44,8.02c28.13,19.38,31,29.64,0,49.17s-29.54,5.19-39.31-9.83,8.01-35.7,19.65-39.34,19.66,0,19.66,0h0Zm181.07,8.54c-28.08,14.45-11.36,32.99,0,39.34s31.18-6.23,29.48-19.67S7487.85,2605.61,7459.78,2620.05Zm-305.86,178.06c4.43,11.13,18.62,10.12-9.83,19.67s2.23-12.71-9.83-19.67,11.94-56.98,19.66-29.5S7149.49,2786.98,7153.92,2798.11Zm544.55,105.07c-28.87,21.06-100.56,23.4-58.96-9.83s59.84-32.41,68.78-19.67S7727.33,2882.13,7698.47,2903.18Zm-462.92-74.02c-18.07,25.03-34.44,50.22-9.83,59s55.53,2.86,58.96-19.67-13.11-51.15-29.48-49.17S7253.62,2804.12,7235.55,2829.16Zm305.86,49.94c-4.58,21.72-6.99,30.72,9.82,29.51s14.35-15.04,9.83-29.51S7545.98,2857.39,7541.41,2879.1Zm-111.9,26.14c-19.18,25.22-20.24,23.92,0,29.5s51.75,10.93,49.14-9.83-18.57-28.38-29.48-29.5S7448.7,2880.02,7429.51,2905.24Zm281.58-165.88c-6.72,29.65-19.57,40.73,0,49.17s40.98-9.89,39.3-29.51-8.06-26.23-19.65-29.5S7717.8,2709.7,7711.09,2739.36Zm-106.62,201.55a25.625,25.625,0,1,1-25.63,25.62A25.619,25.619,0,0,1,7604.47,2940.91Zm-72.79,30.28-9.82,19.67s44.82,17.97,39.3,0S7531.68,2971.19,7531.68,2971.19Zm68.75-467.52c24.97-16.05,27.75-24.88,1.34-42.68s-25.53-5.31-34.42,7.47,5.99,31.2,16.01,34.68,17.07,0.53,17.07.53h0Zm-102.46-3.2c-24-13.3-8.97-28.94,1.07-34.15s26.92,6.25,25.08,17.88S7521.97,2513.77,7497.97,2500.47Zm-102.73,5.33c4.15-9.54,16.46-8.28-8-17.34s1.59,11.09-9.08,16.81,8.83,49.78,16.28,26.14S7391.09,2515.34,7395.24,2505.8Zm-119.6,53.2c-10.24,25.55-8.81,25.76-21.99,13.15s-31.22-33.75-14.58-41.05,29.44,1.21,35.14,8.86S7285.89,2533.45,7275.64,2559Zm168.25-109.01a29.5,29.5,0,1,1,30.39-28.57A29.495,29.495,0,0,1,7443.89,2449.99Zm-110.71,102.72c12.03,16.26,30.26,26.85,40.72,23.64s9.18-18.98-2.85-35.25-30.26-26.85-40.72-23.65S7321.15,2536.44,7333.18,2552.71Zm302.6,40.61c-30.08.84-61.12-19.95-38.37-30.71s30.43-15.54,39.29,1.22S7665.86,2592.48,7635.78,2593.32Zm-92.07-19.45c28.52-13.56,12.38-32.62,1.23-39.32s-31.36,5.25-30.08,18.74S7515.2,2587.43,7543.71,2573.87Zm-212.07-136.59c-30.75-2.67-60.78-3.8-55.69,21.83s26.03,49.14,47.13,40.53,37.18-37.49,27.08-50.53S7362.4,2439.96,7331.64,2437.28Zm89.79,539.41c-20.11-2.39-40.41,3.64-45.34,13.48s7.38,19.74,27.49,22.14,40.41-3.64,45.34-13.47S7441.54,2979.09,7421.43,2976.69Z"
         transform="translate(-6800 -2306)" />
    </g>
    <g
       id="dot_conical">
      <path
         id="path79"
         class="cls-1"
         d="M7328.4,2751.77c-26.11-1.54-53.65,15.66-34.17,25.62s26.01,14.31,34.17,0S7354.51,2753.31,7328.4,2751.77Zm76.88-59.78c-24.45,16.83-26.95,25.73,0,42.7s25.68,4.51,34.17-8.54-6.96-31-17.08-34.16-17.09,0-17.09,0h0Zm102.51,0c24.41,12.54,9.87,28.64,0,34.16s-27.1-5.41-25.62-17.08S7483.39,2679.44,7507.79,2691.99Zm102.52,15.8c-3.86,9.66-16.2,8.79,8.54,17.08s-1.94-11.04,8.54-17.08-10.38-49.48-17.08-25.62S7614.16,2698.13,7610.31,2707.79Zm51.25,95.22s23.64,14.13,8.54,17.08-38.96,15.61-34.17,0S7661.56,2803.01,7661.56,2803.01Zm-230.65-25.62c15.71,21.74,29.94,43.62,8.54,51.24s-48.27,2.49-51.25-17.08,11.4-44.42,25.62-42.7S7415.2,2755.65,7430.91,2777.39Zm-68.34,102.49c3.98,18.85,6.07,26.67-8.54,25.62s-12.47-13.06-8.55-25.62S7358.59,2861.02,7362.57,2879.88Zm-51.26,59.78c16.68,21.9,17.6,20.77,0,25.62s-44.98,9.49-42.71-8.54,16.14-24.65,25.63-25.62S7294.64,2917.76,7311.31,2939.66Zm-171.63-78.69c25.42,6.04,47.04-4.74,39.99,15.02s-23.32,49.33-42.03,38.96-16.61-21.03-14.97-33S7114.26,2854.93,7139.68,2860.97Zm77.66-160.44c-12.16,22.62-50.51,41.3-25.62,51.24s50.49-2.69,51.25-17.08,12.09-26.8,0-34.16S7229.51,2677.9,7217.34,2700.53Zm346.38,50.16a29.5,29.5,0,1,1-29.5,29.5A29.5,29.5,0,0,1,7563.72,2750.69Zm-196.57-147.2c30.04-1.78,61.72,18.03,39.3,29.5s-29.92,16.48-39.3,0S7337.11,2605.26,7367.15,2603.49Zm-88.44,8.02c28.13,19.38,31,29.64,0,49.17s-29.54,5.19-39.31-9.83,8.01-35.7,19.65-39.34,19.66,0,19.66,0h0Zm181.07,8.54c-28.08,14.45-11.36,32.99,0,39.34s31.18-6.23,29.48-19.67S7487.85,2605.61,7459.78,2620.05Zm-305.86,178.06c4.43,11.13,18.62,10.12-9.83,19.67s2.23-12.71-9.83-19.67,11.94-56.98,19.66-29.5S7149.49,2786.98,7153.92,2798.11Zm544.55,105.07c-28.87,21.06-100.56,23.4-58.96-9.83s59.84-32.41,68.78-19.67S7727.33,2882.13,7698.47,2903.18Zm-462.92-74.02c-18.07,25.03-34.44,50.22-9.83,59s55.53,2.86,58.96-19.67-13.11-51.15-29.48-49.17S7253.62,2804.12,7235.55,2829.16Zm305.86,49.94c-4.58,21.72-6.99,30.72,9.82,29.51s14.35-15.04,9.83-29.51S7545.98,2857.39,7541.41,2879.1Zm-111.9,26.14c-19.18,25.22-20.24,23.92,0,29.5s51.75,10.93,49.14-9.83-18.57-28.38-29.48-29.5S7448.7,2880.02,7429.51,2905.24Zm166.34,35.19c-28.07,14.45-11.35,32.98,0,39.34s31.19-6.23,29.48-19.67S7623.93,2925.98,7595.85,2940.43Zm-97.88-439.96c-24-13.3-8.97-28.94,1.07-34.15s26.92,6.26,25.08,17.88S7521.97,2513.77,7497.97,2500.47Zm-102.73,5.33c4.15-9.54,16.46-8.28-8-17.34s1.59,11.09-9.08,16.81,8.83,49.78,16.28,26.14S7391.09,2515.34,7395.24,2505.8Zm35.13-46.88a29.5,29.5,0,1,1,30.38-28.56A29.49,29.49,0,0,1,7430.37,2458.92Zm-97.19,93.79c12.03,16.26,30.26,26.85,40.72,23.64s9.18-18.98-2.85-35.25-30.26-26.85-40.72-23.65S7321.15,2536.44,7333.18,2552.71Zm252.6,90.61c-30.08.84-61.12-19.95-38.37-30.71s30.43-15.54,39.29,1.22S7615.86,2642.48,7585.78,2643.32Zm-42.07-69.45c28.52-13.56,12.38-32.62,1.23-39.32s-31.36,5.25-30.08,18.74S7515.2,2587.43,7543.71,2573.87Zm-156.05,401.51c30.05-1.62,61.63,18.35,39.16,29.71s-30.01,16.32-39.31-.21S7357.62,2977,7387.66,2975.38Zm-197.46-42.95c-28.14,14.3-11.52,32.93-.2,39.34s31.21-6.06,29.58-19.51S7218.35,2918.13,7190.2,2932.43Zm-119-14.29c-7.68-12.12-3.93-13.17-12.68-19.81s-3.06-24.23,12.51-13.31,30.73,24.03,25.37,39.61S7078.89,2930.26,7071.2,2918.14Z"
         transform="translate(-6800 -2306)" />
    </g>
    <g
       id="cow">
      <path
         id="vache"
         class="cls-1"
         d="M9610.68,2756v62c0,10.41,17.03,21,17.03,21v26.15S9627.69,2876,9640,2876s12.31-10.85,12.31-10.85V2839.6h5.68v25.55S9659.68,2876,9669,2876s13.11-10.85,13.11-10.85V2839.6h53.92v25.55S9735.37,2876,9748,2876s12.63-10.85,12.63-10.85V2839.6H9767l14,21.4s14.16,9.35,19.36,4.15,0-16.15,0-16.15l-9.36-18s9.36-8.58,9.36-27c20.34-2.34,27.64-6,27.64-6s17-4.83,17-23-6-46-6-46,20.5-6.92,16-21-24-8-24-8-3.86-13-26-13c-0.38-3.31-1.54-13.89-11-12s-2,15-2,15l-23,3s-0.33-14.15-8.37-13-8.53,4.21-6.63,19c-6.14.13-12.08,3.75-13.97,14-4,.32-15.35.32-21.03,12.14h-82s-19.22-1.54-26.32,18.86c-4.83,4.59-28.83-14.92-31.68-15s1.4-10.68-9-12-6.25-1.52-14,0,2.04,12.03,4,16,15,0,15,0S9593.66,2750.8,9610.68,2756Zm47.31-8s-3.32,15,24.12,15,26.89-5.17,26.89-13-2.77-13-26.89-13S9657.99,2741.38,9657.99,2748ZM9644,2725.14s-3.99,8.86,13.99,8.86,14.01-8.86,14.01-8.86h-28ZM9627.71,2787c-7.09,0-6.71,10.96-6.71,19s0.56,11,6.71,11,5.29-6.56,5.29-14S9634.81,2787,9627.71,2787Zm83.29,1s-20-2.86-20,9,6.79,10,20,10,18,1.57,18-10S9711,2788,9711,2788Zm36.51-4.87c-5.53-24.75,11.13-28.74,43.82-31.69s47.24-3.45,51.67,18.56-17.31,31.74-44.64,32S9753.04,2807.88,9747.51,2783.13Zm36.62-13.2c1.06-.29,2.46-0.98,3.54,6.96s0.48,9.32-.88,9.67-1.99.09-3.98-8.49S9783.07,2770.23,9784.13,2769.93Zm23.98-4.99c1.06-.3,2.46-1,3.56,6.95s0.5,9.31-.87,9.66-1.99.1-3.99-8.47S9807.05,2765.23,9808.11,2764.94ZM9761,2719c-6.09,2.81-4.72,16.25-3,15s-0.21-10.28,4-12,9.28,10.4,11,9S9767.09,2716.19,9761,2719Zm40-7c-6.09,2.81-4.72,16.25-3,15s-0.21-10.28,4-12,9.28,10.4,11,9S9807.09,2709.19,9801,2712Z"
         transform="translate(-8101 -2306)"
         fill-rule="evenodd" />
    </g>
    <g
       id="snail">
      <path
         class="cls-1"
         d="M9607,3154h-27s-35.99,16.1,0,23,156.41,4.8,165,5,49.13-1.26,64-20,17.75-40.66,18-46,1.73-12.95,12-21,9.85-18.36,9-24-8.87-13.78-11-15-3.41-2.14-3-6,5.62-44.32,7-45,6.04-6.53.39-8.05-6.56,5.3-3.39,8.05c-0.96,6.06-8.76,38.87-10,43s-9.59,2.75-10,0-1-44-1-44a2.913,2.913,0,0,0,3-3c0-3.03-1.93-5-4-5s-4-.44-4,3,3,6,3,6l-4,45s-16.39,9.09-23,27-6.66,34-9,34-22-52-22-52-32.5-58.9-111-32S9607,3154,9607,3154Z"
         transform="translate(-8101 -2306)"
         fill-rule="evenodd"
         id="path84" />
    </g>
    <g
       id="bird">
      <path
         class="cls-1"
         d="M9617,3500s-33.52,27.06-45,43-2.26,14.45,6,11,3.8,5.22,21-6,60-36,60-36,2.97-7.23,19-2,46,4,46,4,15.13,14.6,21,18-7.74,5.44-5,8,10.81-4.05,18-4,6.59,0.23,9-1,11.5,0.44,12,4,2.8-1.8,1-4,3.44-1.47,7-2,5.7-2.73,10,0,5.84-.64,1-4-8.8-2.92-13-2-9.21.47-15-5-14-13-14-13,44.52-10.4,48-80,29.16-68.08,39-70-13.96-.57-21-17-14.53-23.49-36-25-30.59,16.01-34,24-7.08,34.35-49,62-49.23,42.67-69,62-24.42,27.38-26,31,2.19,6.34,6,4S9617,3500,9617,3500Zm124,13c5.53-.98,1.21-3.8,14,8s10.32,9.83,7,10-5.95,2-17-9S9735.47,3513.98,9741,3513Z"
         transform="translate(-8101 -2306)"
         fill-rule="evenodd"
         id="path87" />
    </g>
    <g
       id="death">
      <path
         class="cls-1"
         d="M9637,3818c-4.86-8.22-5.62-22.16-3-33-15.32-26.16-32.26-78.08,1-102s55.19-27,75-27,71.5,2.75,87,36,13.06,71.45-6,92c4.48,9.72,2.63,21.14-2,33a92.031,92.031,0,0,1,16-8,31.8,31.8,0,0,0,10-15c3-9.75,28-17.25,29,2s1,11,1,11,20,15.25,12,25-24,7.25-32,6-55.09,22.86-56.21,26.6,11.12,8.31,26.21,13.4c15.22,5.14,10.5,5.75,29,5s20,13.25,15,19-13,9.25-12,22-11.5,17.75-25,5-5.5-11.75-21-20-23-11-23-11-15.48,16.63-45,17-48-17-48-17-26.39,13.89-32,18-4.8,17.01-19,20-18-23-18-23a54.5,54.5,0,0,1-9-9c-4.86-5.98-8.34-9.78,1-18s19.92,0.86,33-4,35-13.26,35-17-37.54-20.52-48-25-11.68-.25-27-1-16.62-10.15-14-18,11-13,11-13,0.04-18.44,11-24,17.96,6.46,21.22,14.15c0,0,5.67,9.23,9.78,11.85S9632.52,3816.13,9637,3818Zm37-55s23.25-3.72,24,6,3.96,10.43-8,25-26.28,15.92-36-8S9674,3763,9674,3763Zm76.05-.29s-24.29-3.69-25.07,5.96-4.14,10.36,8.36,24.84,27.45,15.81,37.6-7.95S9750.05,3762.71,9750.05,3762.71ZM9709,3796l1,34s-14.18,13.59-15-2S9709,3796,9709,3796Zm6,0-1,34.43s14.15,13.76,14.97-2.02S9715,3796,9715,3796Zm-45,42c3.36,1.12,4,7.47,4,10s18.45,7.74,38,7,39.4-6.43,39-9,3.56-8.95,7-10c0.08,6.05-2.88,15.28-4,25s-9.71,23.54-40,24-43.25-13.02-44-19S9668.88,3844.35,9670,3838Z"
         transform="translate(-8101 -2306)"
         fill-rule="evenodd"
         id="path90" />
    </g>
  </defs>
  <use
     class="redFill"
     xlink:href="#without"
     x="0"
     y="0"
     id="use95"
     transform="matrix(1.4444834,0,0,1.4444142,1495.3928,1754.4523)"
     style="fill:#ff0000;stroke-width:0.69230562"
     width="100%"
     height="100%" />
  <use
     class="redFill"
     xlink:href="#conical"
     x="0"
     y="0"
     id="use97"
     transform="matrix(1.4444834,0,0,1.4444142,1495.3928,1754.4523)"
     style="fill:#ff0000;stroke-width:0.69230562"
     width="100%"
     height="100%" />
  <use
     xlink:href="#dot_conical"
     x="0"
     y="0"
     id="use99"
     transform="matrix(1.4444834,0,0,1.4444142,1495.3928,1754.4523)"
     style="fill:#800000;stroke-width:0.69230562"
     width="100%"
     height="100%" />
  <use
     xlink:href="#death"
     x="0"
     y="0"
     id="use101"
     transform="matrix(1.4444834,0,0,1.4444142,1495.3928,1754.4523)"
     width="100%"
     height="100%"
     style="stroke-width:0.69230562" />
  <use
     class="blueFill"
     xlink:href="#double"
     x="0"
     y="2100"
     id="use103"
     transform="matrix(1.4444834,0,0,1.4444142,1495.3928,1754.4523)"
     style="fill:#0000ff;stroke-width:0.69230562"
     width="100%"
     height="100%" />
  <use
     class="blueFill"
     xlink:href="#bell"
     x="0"
     y="2100"
     id="use105"
     transform="matrix(1.4444834,0,0,1.4444142,1495.3928,1754.4523)"
     style="fill:#0000ff;stroke-width:0.69230562"
     width="100%"
     height="100%" />
  <use
     xlink:href="#dot_bell"
     x="0"
     y="2100"
     id="use107"
     transform="matrix(1.4444834,0,0,1.4444142,1495.3928,1754.4523)"
     style="fill:#800000;stroke-width:0.69230562"
     width="100%"
     height="100%" />
  <use
     xlink:href="#cow"
     x="0"
     y="2100"
     id="use109"
     transform="matrix(1.4444834,0,0,1.4444142,1495.3928,1754.4523)"
     width="100%"
     height="100%"
     style="stroke-width:0.69230562" />
  <use
     class="redFill"
     xlink:href="#without"
     x="0"
     y="4200"
     id="use111"
     transform="matrix(1.4444834,0,0,1.4444142,1495.3928,1754.4523)"
     style="fill:#ff0000;stroke-width:0.69230562"
     width="100%"
     height="100%" />
  <use
     class="redFill"
     xlink:href="#flat"
     x="0"
     y="4200"
     id="use113"
     transform="matrix(1.4444834,0,0,1.4444142,1495.3928,1754.4523)"
     style="fill:#ff0000;stroke-width:0.69230562"
     width="100%"
     height="100%" />
  <use
     xlink:href="#dot_flat"
     x="0"
     y="4200"
     id="use115"
     transform="matrix(1.4444834,0,0,1.4444142,1495.3928,1754.4523)"
     style="fill:#800000;stroke-width:0.69230562"
     width="100%"
     height="100%" />
  <use
     xlink:href="#bird"
     x="0"
     y="4200"
     id="use117"
     transform="matrix(1.4444834,0,0,1.4444142,1495.3928,1754.4523)"
     width="100%"
     height="100%"
     style="stroke-width:0.69230562" />
  <use
     class="blueFill"
     xlink:href="#inverted"
     x="0"
     y="6300"
     id="use119"
     transform="matrix(1.4444834,0,0,1.4444142,1495.3928,1754.4523)"
     style="fill:#0000ff;stroke-width:0.69230562"
     width="100%"
     height="100%" />
  <use
     class="blueFill"
     xlink:href="#conical"
     x="0"
     y="6300"
     id="use121"
     transform="matrix(1.4444834,0,0,1.4444142,1495.3928,1754.4523)"
     style="fill:#0000ff;stroke-width:0.69230562"
     width="100%"
     height="100%" />
  <use
     xlink:href="#snail"
     x="0"
     y="6300"
     id="use123"
     transform="matrix(1.4444834,0,0,1.4444142,1495.3928,1754.4523)"
     width="100%"
     height="100%"
     style="stroke-width:0.69230562" />
  <use
     xlink:href="#bird"
     x="0"
     y="6300"
     id="use125"
     transform="matrix(1.4444834,0,0,1.4444142,1495.3928,1754.4523)"
     width="100%"
     height="100%"
     style="stroke-width:0.69230562" />
  <use
     xlink:href="#death"
     x="0"
     y="6300"
     id="use127"
     transform="matrix(1.4444834,0,0,1.4444142,1495.3928,1754.4523)"
     width="100%"
     height="100%"
     style="stroke-width:0.69230562" />
  <use
     class="blueFill"
     xlink:href="#inverted"
     x="0"
     y="8400"
     id="use129"
     transform="matrix(1.4444834,0,0,1.4444142,1495.3928,1754.4523)"
     style="fill:#0000ff;stroke-width:0.69230562"
     width="100%"
     height="100%" />
  <use
     class="blueFill"
     xlink:href="#conical"
     x="0"
     y="8400"
     id="use131"
     transform="matrix(1.4444834,0,0,1.4444142,1495.3928,1754.4523)"
     style="fill:#0000ff;stroke-width:0.69230562"
     width="100%"
     height="100%" />
  <use
     xlink:href="#snail"
     x="0"
     y="8400"
     id="use133"
     transform="matrix(1.4444834,0,0,1.4444142,1495.3928,1754.4523)"
     width="100%"
     height="100%"
     style="stroke-width:0.69230562" />
  <use
     xlink:href="#bird"
     x="0"
     y="8400"
     id="use135"
     transform="matrix(1.4444834,0,0,1.4444142,1495.3928,1754.4523)"
     width="100%"
     height="100%"
     style="stroke-width:0.69230562" />
  <use
     xlink:href="#death"
     x="0"
     y="8400"
     id="use137"
     transform="matrix(1.4444834,0,0,1.4444142,1495.3928,1754.4523)"
     width="100%"
     height="100%"
     style="stroke-width:0.69230562" />
  <use
     class="blueFill"
     xlink:href="#inverted"
     x="0"
     y="10500"
     id="use139"
     transform="matrix(1.4444834,0,0,1.4444142,1495.3928,1754.4523)"
     style="fill:#0000ff;stroke-width:0.69230562"
     width="100%"
     height="100%" />
  <use
     class="blueFill"
     xlink:href="#convex"
     x="0"
     y="10500"
     id="use141"
     transform="matrix(1.4444834,0,0,1.4444142,1495.3928,1754.4523)"
     style="fill:#0000ff;stroke-width:0.69230562"
     width="100%"
     height="100%" />
  <use
     xlink:href="#dot_convex"
     x="0"
     y="10500"
     id="use143"
     transform="matrix(1.4444834,0,0,1.4444142,1495.3928,1754.4523)"
     style="fill:#800000;stroke-width:0.69230562"
     width="100%"
     height="100%" />
  <use
     xlink:href="#death"
     x="0"
     y="10500"
     id="use145"
     transform="matrix(1.4444834,0,0,1.4444142,1495.3928,1754.4523)"
     width="100%"
     height="100%"
     style="stroke-width:0.69230562" />
  <use
     class="greenFill"
     xlink:href="#without"
     x="0"
     y="12600"
     id="use147"
     transform="matrix(1.4444834,0,0,1.4444142,1495.3928,1754.4523)"
     style="fill:#008000;stroke-width:0.69230562"
     width="100%"
     height="100%" />
  <use
     class="greenFill"
     xlink:href="#flat"
     x="0"
     y="12600"
     id="use149"
     transform="matrix(1.4444834,0,0,1.4444142,1495.3928,1754.4523)"
     style="fill:#008000;stroke-width:0.69230562"
     width="100%"
     height="100%" />
  <use
     xlink:href="#cow"
     x="0"
     y="12600"
     id="use151"
     transform="matrix(1.4444834,0,0,1.4444142,1495.3928,1754.4523)"
     width="100%"
     height="100%"
     style="stroke-width:0.69230562" />
  <use
     xlink:href="#snail"
     x="0"
     y="12600"
     id="use153"
     transform="matrix(1.4444834,0,0,1.4444142,1495.3928,1754.4523)"
     width="100%"
     height="100%"
     style="stroke-width:0.69230562" />
  <use
     xlink:href="#bird"
     x="0"
     y="12600"
     id="use155"
     transform="matrix(1.4444834,0,0,1.4444142,1495.3928,1754.4523)"
     width="100%"
     height="100%"
     style="stroke-width:0.69230562" />
  <use
     class="redFill"
     xlink:href="#inverted"
     x="0"
     y="14700"
     id="use157"
     transform="matrix(1.4444834,0,0,1.4444142,1495.3928,1754.4523)"
     style="fill:#ff0000;stroke-width:0.69230562"
     width="100%"
     height="100%" />
  <use
     class="redFill"
     xlink:href="#flat"
     x="0"
     y="14700"
     id="use159"
     transform="matrix(1.4444834,0,0,1.4444142,1495.3928,1754.4523)"
     style="fill:#ff0000;stroke-width:0.69230562"
     width="100%"
     height="100%" />
  <use
     xlink:href="#cow"
     x="0"
     y="14700"
     id="use161"
     transform="matrix(1.4444834,0,0,1.4444142,1495.3928,1754.4523)"
     width="100%"
     height="100%"
     style="stroke-width:0.69230562" />
  <use
     xlink:href="#bird"
     x="0"
     y="14700"
     id="use163"
     transform="matrix(1.4444834,0,0,1.4444142,1495.3928,1754.4523)"
     width="100%"
     height="100%"
     style="stroke-width:0.69230562" />
  <use
     xlink:href="#death"
     x="0"
     y="14700"
     id="use165"
     transform="matrix(1.4444834,0,0,1.4444142,1495.3928,1754.4523)"
     width="100%"
     height="100%"
     style="stroke-width:0.69230562" />
  <use
     class="blueFill"
     xlink:href="#inverted"
     x="2100"
     y="0"
     id="use167"
     transform="matrix(1.4444834,0,0,1.4444142,1495.3928,1754.4523)"
     style="fill:#0000ff;stroke-width:0.69230562"
     width="100%"
     height="100%" />
  <use
     class="blueFill"
     xlink:href="#convex"
     x="2100"
     y="0"
     id="use169"
     transform="matrix(1.4444834,0,0,1.4444142,1495.3928,1754.4523)"
     style="fill:#0000ff;stroke-width:0.69230562"
     width="100%"
     height="100%" />
  <use
     xlink:href="#dot_convex"
     x="2100"
     y="0"
     id="use171"
     transform="matrix(1.4444834,0,0,1.4444142,1495.3928,1754.4523)"
     style="fill:#800000;stroke-width:0.69230562"
     width="100%"
     height="100%" />
  <use
     xlink:href="#death"
     x="2100"
     y="0"
     id="use173"
     transform="matrix(1.4444834,0,0,1.4444142,1495.3928,1754.4523)"
     width="100%"
     height="100%"
     style="stroke-width:0.69230562" />
  <use
     class="greenFill"
     xlink:href="#without"
     x="2100"
     y="2100"
     id="use175"
     transform="matrix(1.4444834,0,0,1.4444142,1495.3928,1754.4523)"
     style="fill:#008000;stroke-width:0.69230562"
     width="100%"
     height="100%" />
  <use
     class="greenFill"
     xlink:href="#flat"
     x="2100"
     y="2100"
     id="use177"
     transform="matrix(1.4444834,0,0,1.4444142,1495.3928,1754.4523)"
     style="fill:#008000;stroke-width:0.69230562"
     width="100%"
     height="100%" />
  <use
     xlink:href="#cow"
     x="2100"
     y="2100"
     id="use179"
     transform="matrix(1.4444834,0,0,1.4444142,1495.3928,1754.4523)"
     width="100%"
     height="100%"
     style="stroke-width:0.69230562" />
  <use
     xlink:href="#snail"
     x="2100"
     y="2100"
     id="use181"
     transform="matrix(1.4444834,0,0,1.4444142,1495.3928,1754.4523)"
     width="100%"
     height="100%"
     style="stroke-width:0.69230562" />
  <use
     xlink:href="#bird"
     x="2100"
     y="2100"
     id="use183"
     transform="matrix(1.4444834,0,0,1.4444142,1495.3928,1754.4523)"
     width="100%"
     height="100%"
     style="stroke-width:0.69230562" />
  <use
     class="greenFill"
     xlink:href="#double"
     x="2100"
     y="4200"
     id="use185"
     transform="matrix(1.4444834,0,0,1.4444142,1495.3928,1754.4523)"
     style="fill:#008000;stroke-width:0.69230562"
     width="100%"
     height="100%" />
  <use
     class="greenFill"
     xlink:href="#flat"
     x="2100"
     y="4200"
     id="use187"
     transform="matrix(1.4444834,0,0,1.4444142,1495.3928,1754.4523)"
     style="fill:#008000;stroke-width:0.69230562"
     width="100%"
     height="100%" />
  <use
     xlink:href="#dot_flat"
     x="2100"
     y="4200"
     id="use189"
     transform="matrix(1.4444834,0,0,1.4444142,1495.3928,1754.4523)"
     style="fill:#800000;stroke-width:0.69230562"
     width="100%"
     height="100%" />
  <use
     xlink:href="#snail"
     x="2100"
     y="4200"
     id="use191"
     transform="matrix(1.4444834,0,0,1.4444142,1495.3928,1754.4523)"
     width="100%"
     height="100%"
     style="stroke-width:0.69230562" />
  <use
     xlink:href="#bird"
     x="2100"
     y="4200"
     id="use193"
     transform="matrix(1.4444834,0,0,1.4444142,1495.3928,1754.4523)"
     width="100%"
     height="100%"
     style="stroke-width:0.69230562" />
  <use
     xlink:href="#death"
     x="2100"
     y="4200"
     id="use195"
     transform="matrix(1.4444834,0,0,1.4444142,1495.3928,1754.4523)"
     width="100%"
     height="100%"
     style="stroke-width:0.69230562" />
  <use
     class="redFill"
     xlink:href="#without"
     x="2100"
     y="6300"
     id="use197"
     transform="matrix(1.4444834,0,0,1.4444142,1495.3928,1754.4523)"
     style="fill:#ff0000;stroke-width:0.69230562"
     width="100%"
     height="100%" />
  <use
     class="redFill"
     xlink:href="#bell"
     x="2100"
     y="6300"
     id="use199"
     transform="matrix(1.4444834,0,0,1.4444142,1495.3928,1754.4523)"
     style="fill:#ff0000;stroke-width:0.69230562"
     width="100%"
     height="100%" />
  <use
     xlink:href="#cow"
     x="2100"
     y="6300"
     id="use201"
     transform="matrix(1.4444834,0,0,1.4444142,1495.3928,1754.4523)"
     width="100%"
     height="100%"
     style="stroke-width:0.69230562" />
  <use
     xlink:href="#bird"
     x="2100"
     y="6300"
     id="use203"
     transform="matrix(1.4444834,0,0,1.4444142,1495.3928,1754.4523)"
     width="100%"
     height="100%"
     style="stroke-width:0.69230562" />
  <use
     xlink:href="#death"
     x="2100"
     y="6300"
     id="use205"
     transform="matrix(1.4444834,0,0,1.4444142,1495.3928,1754.4523)"
     width="100%"
     height="100%"
     style="stroke-width:0.69230562" />
  <use
     class="redFill"
     xlink:href="#inverted"
     x="2100"
     y="8400"
     id="use207"
     transform="matrix(1.4444834,0,0,1.4444142,1495.3928,1754.4523)"
     style="fill:#ff0000;stroke-width:0.69230562"
     width="100%"
     height="100%" />
  <use
     class="redFill"
     xlink:href="#flat"
     x="2100"
     y="8400"
     id="use209"
     transform="matrix(1.4444834,0,0,1.4444142,1495.3928,1754.4523)"
     style="fill:#ff0000;stroke-width:0.69230562"
     width="100%"
     height="100%" />
  <use
     xlink:href="#cow"
     x="2100"
     y="8400"
     id="use211"
     transform="matrix(1.4444834,0,0,1.4444142,1495.3928,1754.4523)"
     width="100%"
     height="100%"
     style="stroke-width:0.69230562" />
  <use
     xlink:href="#bird"
     x="2100"
     y="8400"
     id="use213"
     transform="matrix(1.4444834,0,0,1.4444142,1495.3928,1754.4523)"
     width="100%"
     height="100%"
     style="stroke-width:0.69230562" />
  <use
     xlink:href="#death"
     x="2100"
     y="8400"
     id="use215"
     transform="matrix(1.4444834,0,0,1.4444142,1495.3928,1754.4523)"
     width="100%"
     height="100%"
     style="stroke-width:0.69230562" />
  <use
     class="greenFill"
     xlink:href="#inverted"
     x="2100"
     y="10500"
     id="use217"
     transform="matrix(1.4444834,0,0,1.4444142,1495.3928,1754.4523)"
     style="fill:#008000;stroke-width:0.69230562"
     width="100%"
     height="100%" />
  <use
     class="greenFill"
     xlink:href="#convex"
     x="2100"
     y="10500"
     id="use219"
     transform="matrix(1.4444834,0,0,1.4444142,1495.3928,1754.4523)"
     style="fill:#008000;stroke-width:0.69230562"
     width="100%"
     height="100%" />
  <use
     xlink:href="#dot_convex"
     x="2100"
     y="10500"
     id="use221"
     transform="matrix(1.4444834,0,0,1.4444142,1495.3928,1754.4523)"
     style="fill:#800000;stroke-width:0.69230562"
     width="100%"
     height="100%" />
  <use
     xlink:href="#cow"
     x="2100"
     y="10500"
     id="use223"
     transform="matrix(1.4444834,0,0,1.4444142,1495.3928,1754.4523)"
     width="100%"
     height="100%"
     style="stroke-width:0.69230562" />
  <use
     xlink:href="#snail"
     x="2100"
     y="10500"
     id="use225"
     transform="matrix(1.4444834,0,0,1.4444142,1495.3928,1754.4523)"
     width="100%"
     height="100%"
     style="stroke-width:0.69230562" />
  <use
     xlink:href="#bird"
     x="2100"
     y="10500"
     id="use227"
     transform="matrix(1.4444834,0,0,1.4444142,1495.3928,1754.4523)"
     width="100%"
     height="100%"
     style="stroke-width:0.69230562" />
  <use
     xlink:href="#death"
     x="2100"
     y="10500"
     id="use229"
     transform="matrix(1.4444834,0,0,1.4444142,1495.3928,1754.4523)"
     width="100%"
     height="100%"
     style="stroke-width:0.69230562" />
  <use
     class="greenFill"
     xlink:href="#without"
     x="2100"
     y="12600"
     id="use231"
     transform="matrix(1.4444834,0,0,1.4444142,1495.3928,1754.4523)"
     style="fill:#008000;stroke-width:0.69230562"
     width="100%"
     height="100%" />
  <use
     class="greenFill"
     xlink:href="#conical"
     x="2100"
     y="12600"
     id="use233"
     transform="matrix(1.4444834,0,0,1.4444142,1495.3928,1754.4523)"
     style="fill:#008000;stroke-width:0.69230562"
     width="100%"
     height="100%" />
  <use
     xlink:href="#dot_conical"
     x="2100"
     y="12600"
     id="use235"
     transform="matrix(1.4444834,0,0,1.4444142,1495.3928,1754.4523)"
     style="fill:#800000;stroke-width:0.69230562"
     width="100%"
     height="100%" />
  <use
     xlink:href="#snail"
     x="2100"
     y="12600"
     id="use237"
     transform="matrix(1.4444834,0,0,1.4444142,1495.3928,1754.4523)"
     width="100%"
     height="100%"
     style="stroke-width:0.69230562" />
  <use
     xlink:href="#death"
     x="2100"
     y="12600"
     id="use239"
     transform="matrix(1.4444834,0,0,1.4444142,1495.3928,1754.4523)"
     width="100%"
     height="100%"
     style="stroke-width:0.69230562" />
  <use
     class="greenFill"
     xlink:href="#inverted"
     x="2100"
     y="14700"
     id="use241"
     transform="matrix(1.4444834,0,0,1.4444142,1495.3928,1754.4523)"
     style="fill:#008000;stroke-width:0.69230562"
     width="100%"
     height="100%" />
  <use
     class="greenFill"
     xlink:href="#bell"
     x="2100"
     y="14700"
     id="use243"
     transform="matrix(1.4444834,0,0,1.4444142,1495.3928,1754.4523)"
     style="fill:#008000;stroke-width:0.69230562"
     width="100%"
     height="100%" />
  <use
     xlink:href="#cow"
     x="2100"
     y="14700"
     id="use245"
     transform="matrix(1.4444834,0,0,1.4444142,1495.3928,1754.4523)"
     width="100%"
     height="100%"
     style="stroke-width:0.69230562" />
  <use
     xlink:href="#snail"
     x="2100"
     y="14700"
     id="use247"
     transform="matrix(1.4444834,0,0,1.4444142,1495.3928,1754.4523)"
     width="100%"
     height="100%"
     style="stroke-width:0.69230562" />
  <use
     xlink:href="#bird"
     x="2100"
     y="14700"
     id="use249"
     transform="matrix(1.4444834,0,0,1.4444142,1495.3928,1754.4523)"
     width="100%"
     height="100%"
     style="stroke-width:0.69230562" />
  <use
     class="blueFill"
     xlink:href="#without"
     x="4200"
     y="0"
     id="use251"
     transform="matrix(1.4444834,0,0,1.4444142,1495.3928,1754.4523)"
     style="fill:#0000ff;stroke-width:0.69230562"
     width="100%"
     height="100%" />
  <use
     class="blueFill"
     xlink:href="#bell"
     x="4200"
     y="0"
     id="use253"
     transform="matrix(1.4444834,0,0,1.4444142,1495.3928,1754.4523)"
     style="fill:#0000ff;stroke-width:0.69230562"
     width="100%"
     height="100%" />
  <use
     xlink:href="#cow"
     x="4200"
     y="0"
     id="use255"
     transform="matrix(1.4444834,0,0,1.4444142,1495.3928,1754.4523)"
     width="100%"
     height="100%"
     style="stroke-width:0.69230562" />
  <use
     xlink:href="#snail"
     x="4200"
     y="0"
     id="use257"
     transform="matrix(1.4444834,0,0,1.4444142,1495.3928,1754.4523)"
     width="100%"
     height="100%"
     style="stroke-width:0.69230562" />
  <use
     xlink:href="#bird"
     x="4200"
     y="0"
     id="use259"
     transform="matrix(1.4444834,0,0,1.4444142,1495.3928,1754.4523)"
     width="100%"
     height="100%"
     style="stroke-width:0.69230562" />
  <use
     xlink:href="#death"
     x="4200"
     y="0"
     id="use261"
     transform="matrix(1.4444834,0,0,1.4444142,1495.3928,1754.4523)"
     width="100%"
     height="100%"
     style="stroke-width:0.69230562" />
  <use
     class="redFill"
     xlink:href="#without"
     x="4200"
     y="2100"
     id="use263"
     transform="matrix(1.4444834,0,0,1.4444142,1495.3928,1754.4523)"
     style="fill:#ff0000;stroke-width:0.69230562"
     width="100%"
     height="100%" />
  <use
     class="redFill"
     xlink:href="#flat"
     x="4200"
     y="2100"
     id="use265"
     transform="matrix(1.4444834,0,0,1.4444142,1495.3928,1754.4523)"
     style="fill:#ff0000;stroke-width:0.69230562"
     width="100%"
     height="100%" />
  <use
     xlink:href="#cow"
     x="4200"
     y="2100"
     id="use267"
     transform="matrix(1.4444834,0,0,1.4444142,1495.3928,1754.4523)"
     width="100%"
     height="100%"
     style="stroke-width:0.69230562" />
  <use
     xlink:href="#bird"
     x="4200"
     y="2100"
     id="use269"
     transform="matrix(1.4444834,0,0,1.4444142,1495.3928,1754.4523)"
     width="100%"
     height="100%"
     style="stroke-width:0.69230562" />
  <use
     xlink:href="#death"
     x="4200"
     y="2100"
     id="use271"
     transform="matrix(1.4444834,0,0,1.4444142,1495.3928,1754.4523)"
     width="100%"
     height="100%"
     style="stroke-width:0.69230562" />
  <use
     class="greenFill"
     xlink:href="#double"
     x="4200"
     y="4200"
     id="use273"
     transform="matrix(1.4444834,0,0,1.4444142,1495.3928,1754.4523)"
     style="fill:#008000;stroke-width:0.69230562"
     width="100%"
     height="100%" />
  <use
     class="greenFill"
     xlink:href="#conical"
     x="4200"
     y="4200"
     id="use275"
     transform="matrix(1.4444834,0,0,1.4444142,1495.3928,1754.4523)"
     style="fill:#008000;stroke-width:0.69230562"
     width="100%"
     height="100%" />
  <use
     xlink:href="#dot_conical"
     x="4200"
     y="4200"
     id="use277"
     transform="matrix(1.4444834,0,0,1.4444142,1495.3928,1754.4523)"
     style="fill:#800000;stroke-width:0.69230562"
     width="100%"
     height="100%" />
  <use
     xlink:href="#cow"
     x="4200"
     y="4200"
     id="use279"
     transform="matrix(1.4444834,0,0,1.4444142,1495.3928,1754.4523)"
     width="100%"
     height="100%"
     style="stroke-width:0.69230562" />
  <use
     xlink:href="#snail"
     x="4200"
     y="4200"
     id="use281"
     transform="matrix(1.4444834,0,0,1.4444142,1495.3928,1754.4523)"
     width="100%"
     height="100%"
     style="stroke-width:0.69230562" />
  <use
     xlink:href="#bird"
     x="4200"
     y="4200"
     id="use283"
     transform="matrix(1.4444834,0,0,1.4444142,1495.3928,1754.4523)"
     width="100%"
     height="100%"
     style="stroke-width:0.69230562" />
  <use
     xlink:href="#death"
     x="4200"
     y="4200"
     id="use285"
     transform="matrix(1.4444834,0,0,1.4444142,1495.3928,1754.4523)"
     width="100%"
     height="100%"
     style="stroke-width:0.69230562" />
  <use
     class="redFill"
     xlink:href="#without"
     x="4200"
     y="6300"
     id="use287"
     transform="matrix(1.4444834,0,0,1.4444142,1495.3928,1754.4523)"
     style="fill:#ff0000;stroke-width:0.69230562"
     width="100%"
     height="100%" />
  <use
     class="redFill"
     xlink:href="#bell"
     x="4200"
     y="6300"
     id="use289"
     transform="matrix(1.4444834,0,0,1.4444142,1495.3928,1754.4523)"
     style="fill:#ff0000;stroke-width:0.69230562"
     width="100%"
     height="100%" />
  <use
     xlink:href="#cow"
     x="4200"
     y="6300"
     id="use291"
     transform="matrix(1.4444834,0,0,1.4444142,1495.3928,1754.4523)"
     width="100%"
     height="100%"
     style="stroke-width:0.69230562" />
  <use
     xlink:href="#bird"
     x="4200"
     y="6300"
     id="use293"
     transform="matrix(1.4444834,0,0,1.4444142,1495.3928,1754.4523)"
     width="100%"
     height="100%"
     style="stroke-width:0.69230562" />
  <use
     xlink:href="#death"
     x="4200"
     y="6300"
     id="use295"
     transform="matrix(1.4444834,0,0,1.4444142,1495.3928,1754.4523)"
     width="100%"
     height="100%"
     style="stroke-width:0.69230562" />
  <use
     class="greenFill"
     xlink:href="#double"
     x="4200"
     y="8400"
     id="use297"
     transform="matrix(1.4444834,0,0,1.4444142,1495.3928,1754.4523)"
     style="fill:#008000;stroke-width:0.69230562"
     width="100%"
     height="100%" />
  <use
     class="greenFill"
     xlink:href="#conical"
     x="4200"
     y="8400"
     id="use299"
     transform="matrix(1.4444834,0,0,1.4444142,1495.3928,1754.4523)"
     style="fill:#008000;stroke-width:0.69230562"
     width="100%"
     height="100%" />
  <use
     xlink:href="#cow"
     x="4200"
     y="8400"
     id="use301"
     transform="matrix(1.4444834,0,0,1.4444142,1495.3928,1754.4523)"
     width="100%"
     height="100%"
     style="stroke-width:0.69230562" />
  <use
     xlink:href="#snail"
     x="4200"
     y="8400"
     id="use303"
     transform="matrix(1.4444834,0,0,1.4444142,1495.3928,1754.4523)"
     width="100%"
     height="100%"
     style="stroke-width:0.69230562" />
  <use
     xlink:href="#bird"
     x="4200"
     y="8400"
     id="use305"
     transform="matrix(1.4444834,0,0,1.4444142,1495.3928,1754.4523)"
     width="100%"
     height="100%"
     style="stroke-width:0.69230562" />
  <use
     class="blueFill"
     xlink:href="#double"
     x="4200"
     y="10500"
     id="use307"
     transform="matrix(1.4444834,0,0,1.4444142,1495.3928,1754.4523)"
     style="fill:#0000ff;stroke-width:0.69230562"
     width="100%"
     height="100%" />
  <use
     class="blueFill"
     xlink:href="#convex"
     x="4200"
     y="10500"
     id="use309"
     transform="matrix(1.4444834,0,0,1.4444142,1495.3928,1754.4523)"
     style="fill:#0000ff;stroke-width:0.69230562"
     width="100%"
     height="100%" />
  <use
     xlink:href="#snail"
     x="4200"
     y="10500"
     id="use311"
     transform="matrix(1.4444834,0,0,1.4444142,1495.3928,1754.4523)"
     width="100%"
     height="100%"
     style="stroke-width:0.69230562" />
  <use
     class="greenFill"
     xlink:href="#without"
     x="4200"
     y="12600"
     id="use313"
     transform="matrix(1.4444834,0,0,1.4444142,1495.3928,1754.4523)"
     style="fill:#008000;stroke-width:0.69230562"
     width="100%"
     height="100%" />
  <use
     class="greenFill"
     xlink:href="#convex"
     x="4200"
     y="12600"
     id="use315"
     transform="matrix(1.4444834,0,0,1.4444142,1495.3928,1754.4523)"
     style="fill:#008000;stroke-width:0.69230562"
     width="100%"
     height="100%" />
  <use
     xlink:href="#cow"
     x="4200"
     y="12600"
     id="use317"
     transform="matrix(1.4444834,0,0,1.4444142,1495.3928,1754.4523)"
     width="100%"
     height="100%"
     style="stroke-width:0.69230562" />
  <use
     xlink:href="#snail"
     x="4200"
     y="12600"
     id="use319"
     transform="matrix(1.4444834,0,0,1.4444142,1495.3928,1754.4523)"
     width="100%"
     height="100%"
     style="stroke-width:0.69230562" />
  <use
     xlink:href="#bird"
     x="4200"
     y="12600"
     id="use321"
     transform="matrix(1.4444834,0,0,1.4444142,1495.3928,1754.4523)"
     width="100%"
     height="100%"
     style="stroke-width:0.69230562" />
  <use
     class="blueFill"
     xlink:href="#inverted"
     x="4200"
     y="14700"
     id="use323"
     transform="matrix(1.4444834,0,0,1.4444142,1495.3928,1754.4523)"
     style="fill:#0000ff;stroke-width:0.69230562"
     width="100%"
     height="100%" />
  <use
     class="blueFill"
     xlink:href="#flat"
     x="4200"
     y="14700"
     id="use325"
     transform="matrix(1.4444834,0,0,1.4444142,1495.3928,1754.4523)"
     style="fill:#0000ff;stroke-width:0.69230562"
     width="100%"
     height="100%" />
  <use
     xlink:href="#dot_flat"
     x="4200"
     y="14700"
     id="use327"
     transform="matrix(1.4444834,0,0,1.4444142,1495.3928,1754.4523)"
     style="fill:#800000;stroke-width:0.69230562"
     width="100%"
     height="100%" />
  <use
     xlink:href="#death"
     x="4200"
     y="14700"
     id="use329"
     transform="matrix(1.4444834,0,0,1.4444142,1495.3928,1754.4523)"
     width="100%"
     height="100%"
     style="stroke-width:0.69230562" />
  <use
     class="blueFill"
     xlink:href="#double"
     x="6300"
     y="0"
     id="use331"
     transform="matrix(1.4444834,0,0,1.4444142,1495.3928,1754.4523)"
     style="fill:#0000ff;stroke-width:0.69230562"
     width="100%"
     height="100%" />
  <use
     class="blueFill"
     xlink:href="#conical"
     x="6300"
     y="0"
     id="use333"
     transform="matrix(1.4444834,0,0,1.4444142,1495.3928,1754.4523)"
     style="fill:#0000ff;stroke-width:0.69230562"
     width="100%"
     height="100%" />
  <use
     xlink:href="#dot_conical"
     x="6300"
     y="0"
     id="use335"
     transform="matrix(1.4444834,0,0,1.4444142,1495.3928,1754.4523)"
     style="fill:#800000;stroke-width:0.69230562"
     width="100%"
     height="100%" />
  <use
     xlink:href="#cow"
     x="6300"
     y="0"
     id="use337"
     transform="matrix(1.4444834,0,0,1.4444142,1495.3928,1754.4523)"
     width="100%"
     height="100%"
     style="stroke-width:0.69230562" />
  <use
     xlink:href="#bird"
     x="6300"
     y="0"
     id="use339"
     transform="matrix(1.4444834,0,0,1.4444142,1495.3928,1754.4523)"
     width="100%"
     height="100%"
     style="stroke-width:0.69230562" />
  <use
     class="greenFill"
     xlink:href="#double"
     x="6300"
     y="2100"
     id="use341"
     transform="matrix(1.4444834,0,0,1.4444142,1495.3928,1754.4523)"
     style="fill:#008000;stroke-width:0.69230562"
     width="100%"
     height="100%" />
  <use
     class="greenFill"
     xlink:href="#conical"
     x="6300"
     y="2100"
     id="use343"
     transform="matrix(1.4444834,0,0,1.4444142,1495.3928,1754.4523)"
     style="fill:#008000;stroke-width:0.69230562"
     width="100%"
     height="100%" />
  <use
     xlink:href="#cow"
     x="6300"
     y="2100"
     id="use345"
     transform="matrix(1.4444834,0,0,1.4444142,1495.3928,1754.4523)"
     width="100%"
     height="100%"
     style="stroke-width:0.69230562" />
  <use
     xlink:href="#snail"
     x="6300"
     y="2100"
     id="use347"
     transform="matrix(1.4444834,0,0,1.4444142,1495.3928,1754.4523)"
     width="100%"
     height="100%"
     style="stroke-width:0.69230562" />
  <use
     xlink:href="#bird"
     x="6300"
     y="2100"
     id="use349"
     transform="matrix(1.4444834,0,0,1.4444142,1495.3928,1754.4523)"
     width="100%"
     height="100%"
     style="stroke-width:0.69230562" />
  <use
     class="redFill"
     xlink:href="#without"
     x="6300"
     y="4200"
     id="use351"
     transform="matrix(1.4444834,0,0,1.4444142,1495.3928,1754.4523)"
     style="fill:#ff0000;stroke-width:0.69230562"
     width="100%"
     height="100%" />
  <use
     class="redFill"
     xlink:href="#bell"
     x="6300"
     y="4200"
     id="use353"
     transform="matrix(1.4444834,0,0,1.4444142,1495.3928,1754.4523)"
     style="fill:#ff0000;stroke-width:0.69230562"
     width="100%"
     height="100%" />
  <use
     xlink:href="#cow"
     x="6300"
     y="4200"
     id="use355"
     transform="matrix(1.4444834,0,0,1.4444142,1495.3928,1754.4523)"
     width="100%"
     height="100%"
     style="stroke-width:0.69230562" />
  <use
     xlink:href="#bird"
     x="6300"
     y="4200"
     id="use357"
     transform="matrix(1.4444834,0,0,1.4444142,1495.3928,1754.4523)"
     width="100%"
     height="100%"
     style="stroke-width:0.69230562" />
  <use
     xlink:href="#death"
     x="6300"
     y="4200"
     id="use359"
     transform="matrix(1.4444834,0,0,1.4444142,1495.3928,1754.4523)"
     width="100%"
     height="100%"
     style="stroke-width:0.69230562" />
  <use
     class="redFill"
     xlink:href="#without"
     x="6300"
     y="6300"
     id="use361"
     transform="matrix(1.4444834,0,0,1.4444142,1495.3928,1754.4523)"
     style="fill:#ff0000;stroke-width:0.69230562"
     width="100%"
     height="100%" />
  <use
     class="redFill"
     xlink:href="#conical"
     x="6300"
     y="6300"
     id="use363"
     transform="matrix(1.4444834,0,0,1.4444142,1495.3928,1754.4523)"
     style="fill:#ff0000;stroke-width:0.69230562"
     width="100%"
     height="100%" />
  <use
     xlink:href="#dot_conical"
     x="6300"
     y="6300"
     id="use365"
     transform="matrix(1.4444834,0,0,1.4444142,1495.3928,1754.4523)"
     style="fill:#800000;stroke-width:0.69230562"
     width="100%"
     height="100%" />
  <use
     xlink:href="#death"
     x="6300"
     y="6300"
     id="use367"
     transform="matrix(1.4444834,0,0,1.4444142,1495.3928,1754.4523)"
     width="100%"
     height="100%"
     style="stroke-width:0.69230562" />
  <use
     class="blueFill"
     xlink:href="#without"
     x="6300"
     y="8400"
     id="use369"
     transform="matrix(1.4444834,0,0,1.4444142,1495.3928,1754.4523)"
     style="fill:#0000ff;stroke-width:0.69230562"
     width="100%"
     height="100%" />
  <use
     class="blueFill"
     xlink:href="#flat"
     x="6300"
     y="8400"
     id="use371"
     transform="matrix(1.4444834,0,0,1.4444142,1495.3928,1754.4523)"
     style="fill:#0000ff;stroke-width:0.69230562"
     width="100%"
     height="100%" />
  <use
     xlink:href="#cow"
     x="6300"
     y="8400"
     id="use373"
     transform="matrix(1.4444834,0,0,1.4444142,1495.3928,1754.4523)"
     width="100%"
     height="100%"
     style="stroke-width:0.69230562" />
  <use
     xlink:href="#snail"
     x="6300"
     y="8400"
     id="use375"
     transform="matrix(1.4444834,0,0,1.4444142,1495.3928,1754.4523)"
     width="100%"
     height="100%"
     style="stroke-width:0.69230562" />
  <use
     xlink:href="#death"
     x="6300"
     y="8400"
     id="use377"
     transform="matrix(1.4444834,0,0,1.4444142,1495.3928,1754.4523)"
     width="100%"
     height="100%"
     style="stroke-width:0.69230562" />
  <use
     class="redFill"
     xlink:href="#without"
     x="6300"
     y="10500"
     id="use379"
     transform="matrix(1.4444834,0,0,1.4444142,1495.3928,1754.4523)"
     style="fill:#ff0000;stroke-width:0.69230562"
     width="100%"
     height="100%" />
  <use
     class="redFill"
     xlink:href="#flat"
     x="6300"
     y="10500"
     id="use381"
     transform="matrix(1.4444834,0,0,1.4444142,1495.3928,1754.4523)"
     style="fill:#ff0000;stroke-width:0.69230562"
     width="100%"
     height="100%" />
  <use
     xlink:href="#cow"
     x="6300"
     y="10500"
     id="use383"
     transform="matrix(1.4444834,0,0,1.4444142,1495.3928,1754.4523)"
     width="100%"
     height="100%"
     style="stroke-width:0.69230562" />
  <use
     xlink:href="#bird"
     x="6300"
     y="10500"
     id="use385"
     transform="matrix(1.4444834,0,0,1.4444142,1495.3928,1754.4523)"
     width="100%"
     height="100%"
     style="stroke-width:0.69230562" />
  <use
     xlink:href="#death"
     x="6300"
     y="10500"
     id="use387"
     transform="matrix(1.4444834,0,0,1.4444142,1495.3928,1754.4523)"
     width="100%"
     height="100%"
     style="stroke-width:0.69230562" />
  <use
     class="redFill"
     xlink:href="#double"
     x="6300"
     y="12600"
     id="use389"
     transform="matrix(1.4444834,0,0,1.4444142,1495.3928,1754.4523)"
     style="fill:#ff0000;stroke-width:0.69230562"
     width="100%"
     height="100%" />
  <use
     class="redFill"
     xlink:href="#flat"
     x="6300"
     y="12600"
     id="use391"
     transform="matrix(1.4444834,0,0,1.4444142,1495.3928,1754.4523)"
     style="fill:#ff0000;stroke-width:0.69230562"
     width="100%"
     height="100%" />
  <use
     xlink:href="#dot_flat"
     x="6300"
     y="12600"
     id="use393"
     transform="matrix(1.4444834,0,0,1.4444142,1495.3928,1754.4523)"
     style="fill:#800000;stroke-width:0.69230562"
     width="100%"
     height="100%" />
  <use
     xlink:href="#bird"
     x="6300"
     y="12600"
     id="use395"
     transform="matrix(1.4444834,0,0,1.4444142,1495.3928,1754.4523)"
     width="100%"
     height="100%"
     style="stroke-width:0.69230562" />
  <use
     class="greenFill"
     xlink:href="#inverted"
     x="6300"
     y="14700"
     id="use397"
     transform="matrix(1.4444834,0,0,1.4444142,1495.3928,1754.4523)"
     style="fill:#008000;stroke-width:0.69230562"
     width="100%"
     height="100%" />
  <use
     class="greenFill"
     xlink:href="#flat"
     x="6300"
     y="14700"
     id="use399"
     transform="matrix(1.4444834,0,0,1.4444142,1495.3928,1754.4523)"
     style="fill:#008000;stroke-width:0.69230562"
     width="100%"
     height="100%" />
  <use
     xlink:href="#dot_flat"
     x="6300"
     y="14700"
     id="use401"
     transform="matrix(1.4444834,0,0,1.4444142,1495.3928,1754.4523)"
     style="fill:#800000;stroke-width:0.69230562"
     width="100%"
     height="100%" />
  <use
     xlink:href="#cow"
     x="6300"
     y="14700"
     id="use403"
     transform="matrix(1.4444834,0,0,1.4444142,1495.3928,1754.4523)"
     width="100%"
     height="100%"
     style="stroke-width:0.69230562" />
  <use
     xlink:href="#snail"
     x="6300"
     y="14700"
     id="use405"
     transform="matrix(1.4444834,0,0,1.4444142,1495.3928,1754.4523)"
     width="100%"
     height="100%"
     style="stroke-width:0.69230562" />
  <use
     xlink:href="#bird"
     x="6300"
     y="14700"
     id="use407"
     transform="matrix(1.4444834,0,0,1.4444142,1495.3928,1754.4523)"
     width="100%"
     height="100%"
     style="stroke-width:0.69230562" />
  <use
     xlink:href="#death"
     x="6300"
     y="14700"
     id="use409"
     transform="matrix(1.4444834,0,0,1.4444142,1495.3928,1754.4523)"
     width="100%"
     height="100%"
     style="stroke-width:0.69230562" />
  <use
     class="blueFill"
     xlink:href="#without"
     x="8400"
     y="0"
     id="use411"
     transform="matrix(1.4444834,0,0,1.4444142,1495.3928,1754.4523)"
     style="fill:#0000ff;stroke-width:0.69230562"
     width="100%"
     height="100%" />
  <use
     class="blueFill"
     xlink:href="#convex"
     x="8400"
     y="0"
     id="use413"
     transform="matrix(1.4444834,0,0,1.4444142,1495.3928,1754.4523)"
     style="fill:#0000ff;stroke-width:0.69230562"
     width="100%"
     height="100%" />
  <use
     xlink:href="#dot_convex"
     x="8400"
     y="0"
     id="use415"
     transform="matrix(1.4444834,0,0,1.4444142,1495.3928,1754.4523)"
     style="fill:#800000;stroke-width:0.69230562"
     width="100%"
     height="100%" />
  <use
     xlink:href="#death"
     x="8400"
     y="0"
     id="use417"
     transform="matrix(1.4444834,0,0,1.4444142,1495.3928,1754.4523)"
     width="100%"
     height="100%"
     style="stroke-width:0.69230562" />
  <use
     class="blueFill"
     xlink:href="#without"
     x="8400"
     y="2100"
     id="use419"
     transform="matrix(1.4444834,0,0,1.4444142,1495.3928,1754.4523)"
     style="fill:#0000ff;stroke-width:0.69230562"
     width="100%"
     height="100%" />
  <use
     class="blueFill"
     xlink:href="#flat"
     x="8400"
     y="2100"
     id="use421"
     transform="matrix(1.4444834,0,0,1.4444142,1495.3928,1754.4523)"
     style="fill:#0000ff;stroke-width:0.69230562"
     width="100%"
     height="100%" />
  <use
     xlink:href="#cow"
     x="8400"
     y="2100"
     id="use423"
     transform="matrix(1.4444834,0,0,1.4444142,1495.3928,1754.4523)"
     width="100%"
     height="100%"
     style="stroke-width:0.69230562" />
  <use
     xlink:href="#snail"
     x="8400"
     y="2100"
     id="use425"
     transform="matrix(1.4444834,0,0,1.4444142,1495.3928,1754.4523)"
     width="100%"
     height="100%"
     style="stroke-width:0.69230562" />
  <use
     xlink:href="#death"
     x="8400"
     y="2100"
     id="use427"
     transform="matrix(1.4444834,0,0,1.4444142,1495.3928,1754.4523)"
     width="100%"
     height="100%"
     style="stroke-width:0.69230562" />
  <use
     class="blueFill"
     xlink:href="#double"
     x="8400"
     y="4200"
     id="use429"
     transform="matrix(1.4444834,0,0,1.4444142,1495.3928,1754.4523)"
     style="fill:#0000ff;stroke-width:0.69230562"
     width="100%"
     height="100%" />
  <use
     class="blueFill"
     xlink:href="#conical"
     x="8400"
     y="4200"
     id="use431"
     transform="matrix(1.4444834,0,0,1.4444142,1495.3928,1754.4523)"
     style="fill:#0000ff;stroke-width:0.69230562"
     width="100%"
     height="100%" />
  <use
     xlink:href="#cow"
     x="8400"
     y="4200"
     id="use433"
     transform="matrix(1.4444834,0,0,1.4444142,1495.3928,1754.4523)"
     width="100%"
     height="100%"
     style="stroke-width:0.69230562" />
  <use
     xlink:href="#snail"
     x="8400"
     y="4200"
     id="use435"
     transform="matrix(1.4444834,0,0,1.4444142,1495.3928,1754.4523)"
     width="100%"
     height="100%"
     style="stroke-width:0.69230562" />
  <use
     xlink:href="#bird"
     x="8400"
     y="4200"
     id="use437"
     transform="matrix(1.4444834,0,0,1.4444142,1495.3928,1754.4523)"
     width="100%"
     height="100%"
     style="stroke-width:0.69230562" />
  <use
     class="blueFill"
     xlink:href="#inverted"
     x="8400"
     y="6300"
     id="use439"
     transform="matrix(1.4444834,0,0,1.4444142,1495.3928,1754.4523)"
     style="fill:#0000ff;stroke-width:0.69230562"
     width="100%"
     height="100%" />
  <use
     class="blueFill"
     xlink:href="#bell"
     x="8400"
     y="6300"
     id="use441"
     transform="matrix(1.4444834,0,0,1.4444142,1495.3928,1754.4523)"
     style="fill:#0000ff;stroke-width:0.69230562"
     width="100%"
     height="100%" />
  <use
     xlink:href="#dot_bell"
     x="8400"
     y="6300"
     id="use443"
     transform="matrix(1.4444834,0,0,1.4444142,1495.3928,1754.4523)"
     style="fill:#800000;stroke-width:0.69230562"
     width="100%"
     height="100%" />
  <use
     xlink:href="#bird"
     x="8400"
     y="6300"
     id="use445"
     transform="matrix(1.4444834,0,0,1.4444142,1495.3928,1754.4523)"
     width="100%"
     height="100%"
     style="stroke-width:0.69230562" />
  <use
     xlink:href="#death"
     x="8400"
     y="6300"
     id="use447"
     transform="matrix(1.4444834,0,0,1.4444142,1495.3928,1754.4523)"
     width="100%"
     height="100%"
     style="stroke-width:0.69230562" />
  <use
     class="redFill"
     xlink:href="#double"
     x="8400"
     y="8400"
     id="use449"
     transform="matrix(1.4444834,0,0,1.4444142,1495.3928,1754.4523)"
     style="fill:#ff0000;stroke-width:0.69230562"
     width="100%"
     height="100%" />
  <use
     class="redFill"
     xlink:href="#flat"
     x="8400"
     y="8400"
     id="use451"
     transform="matrix(1.4444834,0,0,1.4444142,1495.3928,1754.4523)"
     style="fill:#ff0000;stroke-width:0.69230562"
     width="100%"
     height="100%" />
  <use
     xlink:href="#bird"
     x="8400"
     y="8400"
     id="use453"
     transform="matrix(1.4444834,0,0,1.4444142,1495.3928,1754.4523)"
     width="100%"
     height="100%"
     style="stroke-width:0.69230562" />
  <use
     xlink:href="#death"
     x="8400"
     y="8400"
     id="use455"
     transform="matrix(1.4444834,0,0,1.4444142,1495.3928,1754.4523)"
     width="100%"
     height="100%"
     style="stroke-width:0.69230562" />
  <use
     class="blueFill"
     xlink:href="#without"
     x="8400"
     y="10500"
     id="use457"
     transform="matrix(1.4444834,0,0,1.4444142,1495.3928,1754.4523)"
     style="fill:#0000ff;stroke-width:0.69230562"
     width="100%"
     height="100%" />
  <use
     class="blueFill"
     xlink:href="#conical"
     x="8400"
     y="10500"
     id="use459"
     transform="matrix(1.4444834,0,0,1.4444142,1495.3928,1754.4523)"
     style="fill:#0000ff;stroke-width:0.69230562"
     width="100%"
     height="100%" />
  <use
     xlink:href="#cow"
     x="8400"
     y="10500"
     id="use461"
     transform="matrix(1.4444834,0,0,1.4444142,1495.3928,1754.4523)"
     width="100%"
     height="100%"
     style="stroke-width:0.69230562" />
  <use
     xlink:href="#snail"
     x="8400"
     y="10500"
     id="use463"
     transform="matrix(1.4444834,0,0,1.4444142,1495.3928,1754.4523)"
     width="100%"
     height="100%"
     style="stroke-width:0.69230562" />
  <use
     xlink:href="#death"
     x="8400"
     y="10500"
     id="use465"
     transform="matrix(1.4444834,0,0,1.4444142,1495.3928,1754.4523)"
     width="100%"
     height="100%"
     style="stroke-width:0.69230562" />
  <use
     class="redFill"
     xlink:href="#inverted"
     x="8400"
     y="12600"
     id="use467"
     transform="matrix(1.4444834,0,0,1.4444142,1495.3928,1754.4523)"
     style="fill:#ff0000;stroke-width:0.69230562"
     width="100%"
     height="100%" />
  <use
     class="redFill"
     xlink:href="#flat"
     x="8400"
     y="12600"
     id="use469"
     transform="matrix(1.4444834,0,0,1.4444142,1495.3928,1754.4523)"
     style="fill:#ff0000;stroke-width:0.69230562"
     width="100%"
     height="100%" />
  <use
     xlink:href="#cow"
     x="8400"
     y="12600"
     id="use471"
     transform="matrix(1.4444834,0,0,1.4444142,1495.3928,1754.4523)"
     width="100%"
     height="100%"
     style="stroke-width:0.69230562" />
  <use
     xlink:href="#bird"
     x="8400"
     y="12600"
     id="use473"
     transform="matrix(1.4444834,0,0,1.4444142,1495.3928,1754.4523)"
     width="100%"
     height="100%"
     style="stroke-width:0.69230562" />
  <use
     xlink:href="#death"
     x="8400"
     y="12600"
     id="use475"
     transform="matrix(1.4444834,0,0,1.4444142,1495.3928,1754.4523)"
     width="100%"
     height="100%"
     style="stroke-width:0.69230562" />
  <use
     class="greenFill"
     xlink:href="#inverted"
     x="8400"
     y="14700"
     id="use477"
     transform="matrix(1.4444834,0,0,1.4444142,1495.3928,1754.4523)"
     style="fill:#008000;stroke-width:0.69230562"
     width="100%"
     height="100%" />
  <use
     class="greenFill"
     xlink:href="#bell"
     x="8400"
     y="14700"
     id="use479"
     transform="matrix(1.4444834,0,0,1.4444142,1495.3928,1754.4523)"
     style="fill:#008000;stroke-width:0.69230562"
     width="100%"
     height="100%" />
  <use
     xlink:href="#dot_bell"
     x="8400"
     y="14700"
     id="use481"
     transform="matrix(1.4444834,0,0,1.4444142,1495.3928,1754.4523)"
     style="fill:#800000;stroke-width:0.69230562"
     width="100%"
     height="100%" />
  <use
     xlink:href="#cow"
     x="8400"
     y="14700"
     id="use483"
     transform="matrix(1.4444834,0,0,1.4444142,1495.3928,1754.4523)"
     width="100%"
     height="100%"
     style="stroke-width:0.69230562" />
  <use
     xlink:href="#snail"
     x="8400"
     y="14700"
     id="use485"
     transform="matrix(1.4444834,0,0,1.4444142,1495.3928,1754.4523)"
     width="100%"
     height="100%"
     style="stroke-width:0.69230562" />
  <use
     xlink:href="#bird"
     x="8400"
     y="14700"
     id="use487"
     transform="matrix(1.4444834,0,0,1.4444142,1495.3928,1754.4523)"
     width="100%"
     height="100%"
     style="stroke-width:0.69230562" />
  <use
     xlink:href="#death"
     x="8400"
     y="14700"
     id="use489"
     transform="matrix(1.4444834,0,0,1.4444142,1495.3928,1754.4523)"
     width="100%"
     height="100%"
     style="stroke-width:0.69230562" />
  <use
     class="blueFill"
     xlink:href="#without"
     x="10500"
     y="0"
     id="use491"
     transform="matrix(1.4444834,0,0,1.4444142,1495.3928,1754.4523)"
     style="fill:#0000ff;stroke-width:0.69230562"
     width="100%"
     height="100%" />
  <use
     class="blueFill"
     xlink:href="#conical"
     x="10500"
     y="0"
     id="use493"
     transform="matrix(1.4444834,0,0,1.4444142,1495.3928,1754.4523)"
     style="fill:#0000ff;stroke-width:0.69230562"
     width="100%"
     height="100%" />
  <use
     xlink:href="#dot_conical"
     x="10500"
     y="0"
     id="use495"
     transform="matrix(1.4444834,0,0,1.4444142,1495.3928,1754.4523)"
     style="fill:#800000;stroke-width:0.69230562"
     width="100%"
     height="100%" />
  <use
     xlink:href="#death"
     x="10500"
     y="0"
     id="use497"
     transform="matrix(1.4444834,0,0,1.4444142,1495.3928,1754.4523)"
     width="100%"
     height="100%"
     style="stroke-width:0.69230562" />
  <use
     class="redFill"
     xlink:href="#inverted"
     x="10500"
     y="2100"
     id="use499"
     transform="matrix(1.4444834,0,0,1.4444142,1495.3928,1754.4523)"
     style="fill:#ff0000;stroke-width:0.69230562"
     width="100%"
     height="100%" />
  <use
     class="redFill"
     xlink:href="#flat"
     x="10500"
     y="2100"
     id="use501"
     transform="matrix(1.4444834,0,0,1.4444142,1495.3928,1754.4523)"
     style="fill:#ff0000;stroke-width:0.69230562"
     width="100%"
     height="100%" />
  <use
     xlink:href="#dot_flat"
     x="10500"
     y="2100"
     id="use503"
     transform="matrix(1.4444834,0,0,1.4444142,1495.3928,1754.4523)"
     style="fill:#800000;stroke-width:0.69230562"
     width="100%"
     height="100%" />
  <use
     xlink:href="#cow"
     x="10500"
     y="2100"
     id="use505"
     transform="matrix(1.4444834,0,0,1.4444142,1495.3928,1754.4523)"
     width="100%"
     height="100%"
     style="stroke-width:0.69230562" />
  <use
     xlink:href="#bird"
     x="10500"
     y="2100"
     id="use507"
     transform="matrix(1.4444834,0,0,1.4444142,1495.3928,1754.4523)"
     width="100%"
     height="100%"
     style="stroke-width:0.69230562" />
  <use
     class="blueFill"
     xlink:href="#double"
     x="10500"
     y="4200"
     id="use509"
     transform="matrix(1.4444834,0,0,1.4444142,1495.3928,1754.4523)"
     style="fill:#0000ff;stroke-width:0.69230562"
     width="100%"
     height="100%" />
  <use
     class="blueFill"
     xlink:href="#flat"
     x="10500"
     y="4200"
     id="use511"
     transform="matrix(1.4444834,0,0,1.4444142,1495.3928,1754.4523)"
     style="fill:#0000ff;stroke-width:0.69230562"
     width="100%"
     height="100%" />
  <use
     xlink:href="#snail"
     x="10500"
     y="4200"
     id="use513"
     transform="matrix(1.4444834,0,0,1.4444142,1495.3928,1754.4523)"
     width="100%"
     height="100%"
     style="stroke-width:0.69230562" />
  <use
     class="redFill"
     xlink:href="#without"
     x="10500"
     y="6300"
     id="use515"
     transform="matrix(1.4444834,0,0,1.4444142,1495.3928,1754.4523)"
     style="fill:#ff0000;stroke-width:0.69230562"
     width="100%"
     height="100%" />
  <use
     class="redFill"
     xlink:href="#bell"
     x="10500"
     y="6300"
     id="use517"
     transform="matrix(1.4444834,0,0,1.4444142,1495.3928,1754.4523)"
     style="fill:#ff0000;stroke-width:0.69230562"
     width="100%"
     height="100%" />
  <use
     xlink:href="#dot_bell"
     x="10500"
     y="6300"
     id="use519"
     transform="matrix(1.4444834,0,0,1.4444142,1495.3928,1754.4523)"
     style="fill:#800000;stroke-width:0.69230562"
     width="100%"
     height="100%" />
  <use
     xlink:href="#bird"
     x="10500"
     y="6300"
     id="use521"
     transform="matrix(1.4444834,0,0,1.4444142,1495.3928,1754.4523)"
     width="100%"
     height="100%"
     style="stroke-width:0.69230562" />
  <use
     xlink:href="#death"
     x="10500"
     y="6300"
     id="use523"
     transform="matrix(1.4444834,0,0,1.4444142,1495.3928,1754.4523)"
     width="100%"
     height="100%"
     style="stroke-width:0.69230562" />
  <use
     class="greenFill"
     xlink:href="#double"
     x="10500"
     y="8400"
     id="use525"
     transform="matrix(1.4444834,0,0,1.4444142,1495.3928,1754.4523)"
     style="fill:#008000;stroke-width:0.69230562"
     width="100%"
     height="100%" />
  <use
     class="greenFill"
     xlink:href="#conical"
     x="10500"
     y="8400"
     id="use527"
     transform="matrix(1.4444834,0,0,1.4444142,1495.3928,1754.4523)"
     style="fill:#008000;stroke-width:0.69230562"
     width="100%"
     height="100%" />
  <use
     xlink:href="#cow"
     x="10500"
     y="8400"
     id="use529"
     transform="matrix(1.4444834,0,0,1.4444142,1495.3928,1754.4523)"
     width="100%"
     height="100%"
     style="stroke-width:0.69230562" />
  <use
     xlink:href="#snail"
     x="10500"
     y="8400"
     id="use531"
     transform="matrix(1.4444834,0,0,1.4444142,1495.3928,1754.4523)"
     width="100%"
     height="100%"
     style="stroke-width:0.69230562" />
  <use
     xlink:href="#bird"
     x="10500"
     y="8400"
     id="use533"
     transform="matrix(1.4444834,0,0,1.4444142,1495.3928,1754.4523)"
     width="100%"
     height="100%"
     style="stroke-width:0.69230562" />
  <use
     class="redFill"
     xlink:href="#without"
     x="10500"
     y="10500"
     id="use535"
     transform="matrix(1.4444834,0,0,1.4444142,1495.3928,1754.4523)"
     style="fill:#ff0000;stroke-width:0.69230562"
     width="100%"
     height="100%" />
  <use
     class="redFill"
     xlink:href="#flat"
     x="10500"
     y="10500"
     id="use537"
     transform="matrix(1.4444834,0,0,1.4444142,1495.3928,1754.4523)"
     style="fill:#ff0000;stroke-width:0.69230562"
     width="100%"
     height="100%" />
  <use
     xlink:href="#cow"
     x="10500"
     y="10500"
     id="use539"
     transform="matrix(1.4444834,0,0,1.4444142,1495.3928,1754.4523)"
     width="100%"
     height="100%"
     style="stroke-width:0.69230562" />
  <use
     xlink:href="#bird"
     x="10500"
     y="10500"
     id="use541"
     transform="matrix(1.4444834,0,0,1.4444142,1495.3928,1754.4523)"
     width="100%"
     height="100%"
     style="stroke-width:0.69230562" />
  <use
     xlink:href="#death"
     x="10500"
     y="10500"
     id="use543"
     transform="matrix(1.4444834,0,0,1.4444142,1495.3928,1754.4523)"
     width="100%"
     height="100%"
     style="stroke-width:0.69230562" />
  <use
     class="redFill"
     xlink:href="#inverted"
     x="10500"
     y="12600"
     id="use545"
     transform="matrix(1.4444834,0,0,1.4444142,1495.3928,1754.4523)"
     style="fill:#ff0000;stroke-width:0.69230562"
     width="100%"
     height="100%" />
  <use
     class="redFill"
     xlink:href="#flat"
     x="10500"
     y="12600"
     id="use547"
     transform="matrix(1.4444834,0,0,1.4444142,1495.3928,1754.4523)"
     style="fill:#ff0000;stroke-width:0.69230562"
     width="100%"
     height="100%" />
  <use
     xlink:href="#dot_flat"
     x="10500"
     y="12600"
     id="use549"
     transform="matrix(1.4444834,0,0,1.4444142,1495.3928,1754.4523)"
     style="fill:#800000;stroke-width:0.69230562"
     width="100%"
     height="100%" />
  <use
     xlink:href="#cow"
     x="10500"
     y="12600"
     id="use551"
     transform="matrix(1.4444834,0,0,1.4444142,1495.3928,1754.4523)"
     width="100%"
     height="100%"
     style="stroke-width:0.69230562" />
  <use
     xlink:href="#bird"
     x="10500"
     y="12600"
     id="use553"
     transform="matrix(1.4444834,0,0,1.4444142,1495.3928,1754.4523)"
     width="100%"
     height="100%"
     style="stroke-width:0.69230562" />
  <use
     class="redFill"
     xlink:href="#without"
     x="10500"
     y="14700"
     id="use555"
     transform="matrix(1.4444834,0,0,1.4444142,1495.3928,1754.4523)"
     style="fill:#ff0000;stroke-width:0.69230562"
     width="100%"
     height="100%" />
  <use
     class="redFill"
     xlink:href="#flat"
     x="10500"
     y="14700"
     id="use557"
     transform="matrix(1.4444834,0,0,1.4444142,1495.3928,1754.4523)"
     style="fill:#ff0000;stroke-width:0.69230562"
     width="100%"
     height="100%" />
  <use
     xlink:href="#cow"
     x="10500"
     y="14700"
     id="use559"
     transform="matrix(1.4444834,0,0,1.4444142,1495.3928,1754.4523)"
     width="100%"
     height="100%"
     style="stroke-width:0.69230562" />
  <use
     xlink:href="#bird"
     x="10500"
     y="14700"
     id="use561"
     transform="matrix(1.4444834,0,0,1.4444142,1495.3928,1754.4523)"
     width="100%"
     height="100%"
     style="stroke-width:0.69230562" />
  <use
     xlink:href="#death"
     x="10500"
     y="14700"
     id="use563"
     transform="matrix(1.4444834,0,0,1.4444142,1495.3928,1754.4523)"
     width="100%"
     height="100%"
     style="stroke-width:0.69230562" />
  <rect
     x="1495.3926"
     y="1754.4523"
     width="3033.415"
     height="3033.2698"
     style="fill:none;stroke:#c4c4c4;stroke-width:3.00000024;stroke-opacity:1"
     id="rect565" />
  <rect
     x="1495.3926"
     y="4787.7222"
     width="3033.415"
     height="3033.2698"
     style="fill:none;stroke:#c4c4c4;stroke-width:3.00000024;stroke-opacity:1"
     id="rect567" />
  <rect
     x="1495.3926"
     y="7820.9917"
     width="3033.415"
     height="3033.2698"
     style="fill:none;stroke:#c4c4c4;stroke-width:3.00000024;stroke-opacity:1"
     id="rect569" />
  <rect
     x="1495.3926"
     y="10854.262"
     width="3033.415"
     height="3033.2698"
     style="fill:none;stroke:#c4c4c4;stroke-width:3.00000024;stroke-opacity:1"
     id="rect571" />
  <rect
     x="1495.3926"
     y="13887.531"
     width="3033.415"
     height="3033.2698"
     style="fill:none;stroke:#c4c4c4;stroke-width:3.00000024;stroke-opacity:1"
     id="rect573" />
  <rect
     x="1495.3926"
     y="16920.801"
     width="3033.415"
     height="3033.2698"
     style="fill:none;stroke:#c4c4c4;stroke-width:3.00000024;stroke-opacity:1"
     id="rect575" />
  <rect
     x="1495.3926"
     y="19954.072"
     width="3033.415"
     height="3033.2698"
     style="fill:none;stroke:#c4c4c4;stroke-width:3.00000024;stroke-opacity:1"
     id="rect577" />
  <rect
     x="1495.3926"
     y="22987.342"
     width="3033.415"
     height="3033.2698"
     style="fill:none;stroke:#c4c4c4;stroke-width:3.00000024;stroke-opacity:1"
     id="rect579" />
  <rect
     x="4528.8076"
     y="1754.4523"
     width="3033.415"
     height="3033.2698"
     style="fill:none;stroke:#c4c4c4;stroke-width:3.00000024;stroke-opacity:1"
     id="rect581" />
  <rect
     x="4528.8076"
     y="4787.7222"
     width="3033.415"
     height="3033.2698"
     style="fill:none;stroke:#c4c4c4;stroke-width:3.00000024;stroke-opacity:1"
     id="rect583" />
  <rect
     x="4528.8076"
     y="7820.9917"
     width="3033.415"
     height="3033.2698"
     style="fill:none;stroke:#c4c4c4;stroke-width:3.00000024;stroke-opacity:1"
     id="rect585" />
  <rect
     x="4528.8076"
     y="10854.262"
     width="3033.415"
     height="3033.2698"
     style="fill:none;stroke:#c4c4c4;stroke-width:3.00000024;stroke-opacity:1"
     id="rect587" />
  <rect
     x="4528.8076"
     y="13887.531"
     width="3033.415"
     height="3033.2698"
     style="fill:none;stroke:#c4c4c4;stroke-width:3.00000024;stroke-opacity:1"
     id="rect589" />
  <rect
     x="4528.8076"
     y="16920.801"
     width="3033.415"
     height="3033.2698"
     style="fill:none;stroke:#c4c4c4;stroke-width:3.00000024;stroke-opacity:1"
     id="rect591" />
  <rect
     x="4528.8076"
     y="19954.072"
     width="3033.415"
     height="3033.2698"
     style="fill:none;stroke:#c4c4c4;stroke-width:3.00000024;stroke-opacity:1"
     id="rect593" />
  <rect
     x="4528.8076"
     y="22987.342"
     width="3033.415"
     height="3033.2698"
     style="fill:none;stroke:#c4c4c4;stroke-width:3.00000024;stroke-opacity:1"
     id="rect595" />
  <rect
     x="7562.2227"
     y="1754.4523"
     width="3033.415"
     height="3033.2698"
     style="fill:none;stroke:#c4c4c4;stroke-width:3.00000024;stroke-opacity:1"
     id="rect597" />
  <rect
     x="7562.2227"
     y="4787.7222"
     width="3033.415"
     height="3033.2698"
     style="fill:none;stroke:#c4c4c4;stroke-width:3.00000024;stroke-opacity:1"
     id="rect599" />
  <rect
     x="7562.2227"
     y="7820.9917"
     width="3033.415"
     height="3033.2698"
     style="fill:none;stroke:#c4c4c4;stroke-width:3.00000024;stroke-opacity:1"
     id="rect601" />
  <rect
     x="7562.2227"
     y="10854.262"
     width="3033.415"
     height="3033.2698"
     style="fill:none;stroke:#c4c4c4;stroke-width:3.00000024;stroke-opacity:1"
     id="rect603" />
  <rect
     x="7562.2227"
     y="13887.531"
     width="3033.415"
     height="3033.2698"
     style="fill:none;stroke:#c4c4c4;stroke-width:3.00000024;stroke-opacity:1"
     id="rect605" />
  <rect
     x="7562.2227"
     y="16920.801"
     width="3033.415"
     height="3033.2698"
     style="fill:none;stroke:#c4c4c4;stroke-width:3.00000024;stroke-opacity:1"
     id="rect607" />
  <rect
     x="7562.2227"
     y="19954.072"
     width="3033.415"
     height="3033.2698"
     style="fill:none;stroke:#c4c4c4;stroke-width:3.00000024;stroke-opacity:1"
     id="rect609" />
  <rect
     x="7562.2227"
     y="22987.342"
     width="3033.415"
     height="3033.2698"
     style="fill:none;stroke:#c4c4c4;stroke-width:3.00000024;stroke-opacity:1"
     id="rect611" />
  <rect
     x="10595.639"
     y="1754.4523"
     width="3033.415"
     height="3033.2698"
     style="fill:none;stroke:#c4c4c4;stroke-width:3.00000024;stroke-opacity:1"
     id="rect613" />
  <rect
     x="10595.639"
     y="4787.7222"
     width="3033.415"
     height="3033.2698"
     style="fill:none;stroke:#c4c4c4;stroke-width:3.00000024;stroke-opacity:1"
     id="rect615" />
  <rect
     x="10595.639"
     y="7820.9917"
     width="3033.415"
     height="3033.2698"
     style="fill:none;stroke:#c4c4c4;stroke-width:3.00000024;stroke-opacity:1"
     id="rect617" />
  <rect
     x="10595.639"
     y="10854.262"
     width="3033.415"
     height="3033.2698"
     style="fill:none;stroke:#c4c4c4;stroke-width:3.00000024;stroke-opacity:1"
     id="rect619" />
  <rect
     x="10595.639"
     y="13887.531"
     width="3033.415"
     height="3033.2698"
     style="fill:none;stroke:#c4c4c4;stroke-width:3.00000024;stroke-opacity:1"
     id="rect621" />
  <rect
     x="10595.639"
     y="16920.801"
     width="3033.415"
     height="3033.2698"
     style="fill:none;stroke:#c4c4c4;stroke-width:3.00000024;stroke-opacity:1"
     id="rect623" />
  <rect
     x="10595.639"
     y="19954.072"
     width="3033.415"
     height="3033.2698"
     style="fill:none;stroke:#c4c4c4;stroke-width:3.00000024;stroke-opacity:1"
     id="rect625" />
  <rect
     x="10595.639"
     y="22987.342"
     width="3033.415"
     height="3033.2698"
     style="fill:none;stroke:#c4c4c4;stroke-width:3.00000024;stroke-opacity:1"
     id="rect627" />
  <rect
     x="13629.053"
     y="1754.4523"
     width="3033.415"
     height="3033.2698"
     style="fill:none;stroke:#c4c4c4;stroke-width:3.00000024;stroke-opacity:1"
     id="rect629" />
  <rect
     x="13629.053"
     y="4787.7222"
     width="3033.415"
     height="3033.2698"
     style="fill:none;stroke:#c4c4c4;stroke-width:3.00000024;stroke-opacity:1"
     id="rect631" />
  <rect
     x="13629.053"
     y="7820.9917"
     width="3033.415"
     height="3033.2698"
     style="fill:none;stroke:#c4c4c4;stroke-width:3.00000024;stroke-opacity:1"
     id="rect633" />
  <rect
     x="13629.053"
     y="10854.262"
     width="3033.415"
     height="3033.2698"
     style="fill:none;stroke:#c4c4c4;stroke-width:3.00000024;stroke-opacity:1"
     id="rect635" />
  <rect
     x="13629.053"
     y="13887.531"
     width="3033.415"
     height="3033.2698"
     style="fill:none;stroke:#c4c4c4;stroke-width:3.00000024;stroke-opacity:1"
     id="rect637" />
  <rect
     x="13629.053"
     y="16920.801"
     width="3033.415"
     height="3033.2698"
     style="fill:none;stroke:#c4c4c4;stroke-width:3.00000024;stroke-opacity:1"
     id="rect639" />
  <rect
     x="13629.053"
     y="19954.072"
     width="3033.415"
     height="3033.2698"
     style="fill:none;stroke:#c4c4c4;stroke-width:3.00000024;stroke-opacity:1"
     id="rect641" />
  <rect
     x="13629.053"
     y="22987.342"
     width="3033.415"
     height="3033.2698"
     style="fill:none;stroke:#c4c4c4;stroke-width:3.00000024;stroke-opacity:1"
     id="rect643" />
  <rect
     x="16662.469"
     y="1754.4523"
     width="3033.415"
     height="3033.2698"
     style="fill:none;stroke:#c4c4c4;stroke-width:3.00000024;stroke-opacity:1"
     id="rect645" />
  <rect
     x="16662.469"
     y="4787.7222"
     width="3033.415"
     height="3033.2698"
     style="fill:none;stroke:#c4c4c4;stroke-width:3.00000024;stroke-opacity:1"
     id="rect647" />
  <rect
     x="16662.469"
     y="7820.9917"
     width="3033.415"
     height="3033.2698"
     style="fill:none;stroke:#c4c4c4;stroke-width:3.00000024;stroke-opacity:1"
     id="rect649" />
  <rect
     x="16662.469"
     y="10854.262"
     width="3033.415"
     height="3033.2698"
     style="fill:none;stroke:#c4c4c4;stroke-width:3.00000024;stroke-opacity:1"
     id="rect651" />
  <rect
     x="16662.469"
     y="13887.531"
     width="3033.415"
     height="3033.2698"
     style="fill:none;stroke:#c4c4c4;stroke-width:3.00000024;stroke-opacity:1"
     id="rect653" />
  <rect
     x="16662.469"
     y="16920.801"
     width="3033.415"
     height="3033.2698"
     style="fill:none;stroke:#c4c4c4;stroke-width:3.00000024;stroke-opacity:1"
     id="rect655" />
  <rect
     x="16662.469"
     y="19954.072"
     width="3033.415"
     height="3033.2698"
     style="fill:none;stroke:#c4c4c4;stroke-width:3.00000024;stroke-opacity:1"
     id="rect657" />
  <rect
     x="16662.469"
     y="22987.342"
     width="3033.415"
     height="3033.2698"
     style="fill:none;stroke:#c4c4c4;stroke-width:3.00000024;stroke-opacity:1"
     id="rect659" />
</svg>
