<svg id="pieds" xmlns="http://www.w3.org/2000/svg" xmlns:xlink="http://www.w3.org/1999/xlink" width="150" height="240" viewBox="0 0 150 240">
  <metadata><?xpacket begin="﻿" id="W5M0MpCehiHzreSzNTczkc9d"?>
<x:xmpmeta xmlns:x="adobe:ns:meta/" x:xmptk="Adobe XMP Core 5.6-c138 79.159824, 2016/09/14-01:09:01        ">
   <rdf:RDF xmlns:rdf="http://www.w3.org/1999/02/22-rdf-syntax-ns#">
      <rdf:Description rdf:about=""/>
   </rdf:RDF>
</x:xmpmeta>
                                                                                                    
                                                                                                    
                                                                                                    
                                                                                                    
                                                                                                    
                                                                                                    
                                                                                                    
                                                                                                    
                                                                                                    
                                                                                                    
                                                                                                    
                                                                                                    
                                                                                                    
                                                                                                    
                                                                                                    
                                                                                                    
                                                                                                    
                                                                                                    
                                                                                                    
                                                                                                    
                           
<?xpacket end="w"?></metadata>
<defs>
    <style>
      .cls-1 {
        fill: #666;
      }

      .cls-1, .cls-2, .cls-4, .cls-5 {
        fill-rule: evenodd;
      }

      .cls-2 {
        fill: url(#linear-gradient);
      }

      .cls-3 {
        fill: #b02e2e;
        mix-blend-mode: color;
      }

      .cls-4 {
        fill: #ea1c1c;
      }

      .cls-5 {
        fill: #630;
      }
    </style>
    <linearGradient id="linear-gradient" x1="70" y1="78" x2="70" y2="88" gradientUnits="userSpaceOnUse">
      <stop offset="0"/>
      <stop offset="1" stop-opacity="0"/>
    </linearGradient>
  </defs>
  <g id="sans_colerette" data-name="sans colerette">
    <path class="cls-1" d="M84,137l1,65s-2.719,21.18-12,24-18.195-7.5-20-18,3-87,3-87l3.857-42H82.143Z"/>
  </g>
  <path id="ombre_pied" data-name="ombre pied" class="cls-2" d="M84,87l-1-9L56,79l1,9"/>
  <rect id="couleur_pied" data-name="couleur pied" class="cls-3" x="4" y="2" width="132" height="243"/>
  <path id="convex" class="cls-4" d="M45,85s-16.541-2.192-25-6S2.619,72.194,17,54c7.613-8.885,27.653-28.372,58-26s48.468,17.124,54,29,10.61,17.046-13,23S45,85,45,85Z"/>
  <rect id="couleur_chapeaux" data-name="couleur chapeaux" class="cls-3" x="4" y="2" width="132" height="243"/>
  <path id="POINTS" class="cls-5" d="M24,49a3,3,0,1,1-3,3A3,3,0,0,1,24,49Zm9.092,0.35c1.275-1.615,3.163-2.633,4.217-2.274s0.874,1.959-.4,3.574-3.163,2.633-4.217,2.274S31.817,50.965,33.092,49.35ZM64,54c-3.057-.181-6.281,1.834-4,3s3.045,1.676,4,0S67.057,54.181,64,54Zm9-7c-2.863,1.971-3.155,3.014,0,5s3.006,0.528,4-1-0.815-3.63-2-4a2.994,2.994,0,0,0-2,0h0Zm12,0c2.857,1.469,1.155,3.354,0,4s-3.173-.633-3-2S82.143,45.531,85,47Zm12-1c-0.451,1.132-1.9,1.029,1,2s-0.227-1.292,1-2-1.215-5.794-2-3S97.451,44.869,97,46Zm15,2c2.937,2.141,10.233,2.38,6-1s-6.09-3.3-7-2S109.063,45.859,112,48Zm10,9c-1.212,1.835-.615,1.991-2,3s-0.466,3.66,2,2,4.866-3.652,4-6S123.212,55.165,122,57Zm-19,3s2.767,1.654,1,2-4.561,1.827-4,0S103,60,103,60ZM76,57c1.839,2.545,3.5,5.108,1,6s-5.651.291-6-2,1.334-5.2,3-5S74.161,54.455,76,57ZM68,69c0.466,2.208.71,3.124-1,3s-1.46-1.529-1-3S67.534,66.792,68,69Zm-6,7c1.952,2.564,2.06,2.433,0,3s-5.266,1.111-5-1a3.315,3.315,0,0,1,3-3C61.11,74.886,60.048,73.436,62,76ZM41.909,66.786c2.976,0.707,5.507-.555,4.68,1.759s-2.729,5.776-4.919,4.561-1.945-2.463-1.753-3.864S38.933,66.079,41.909,66.786ZM29,60c0.684,3.015,1.991,4.143,0,5a3,3,0,0,1-4-3c0.17-1.994.821-2.668,2-3S28.316,56.985,29,60ZM51,48c-1.424,2.649-5.913,4.837-3,6s5.91-.315,6-2,1.415-3.138,0-4S52.424,45.351,51,48Zm40.547,5.875a3.453,3.453,0,1,1-3.453,3.453A3.453,3.453,0,0,1,91.547,53.875ZM104.09,40.283c-1.467-1.86-3.639-3.032-4.851-2.618s-1.005,2.256.462,4.115,3.639,3.032,4.851,2.619S105.557,42.143,104.09,40.283ZM68.536,36.638c3.516-.208,7.225,2.111,4.6,3.454s-3.5,1.93-4.6,0S65.02,36.846,68.536,36.638Zm-10.353.94c3.293,2.269,3.63,3.47,0,5.757s-3.458.608-4.6-1.151,0.937-4.18,2.3-4.606a3.44,3.44,0,0,1,2.3,0h0Zm21.2,1c-3.286,1.692-1.329,3.862,0,4.606s3.65-.729,3.451-2.3S82.665,36.886,79.379,38.577Zm-40,1c-3.286,1.692-1.329,3.862,0,4.606s3.65-.729,3.451-2.3S42.665,37.886,39.379,39.577Zm4.2,19.849c0.518,1.3,2.18,1.185-1.15,2.3s0.261-1.488-1.15-2.3,1.4-6.671,2.3-3.454S43.057,58.123,43.575,59.426Zm63.745,12.3c-3.379,2.465-11.771,2.74-6.9-1.151s7-3.795,8.053-2.3S110.7,69.264,107.32,71.729ZM16.063,53.7c0.892,1.424.453,1.545,1.472,2.327s0.343,2.839-1.472,1.551-3.582-2.833-2.945-4.654S15.171,52.281,16.063,53.7Zm7.61-1.158s-3.183,1.9-1.15,2.3,5.247,2.1,4.6,0S23.673,52.546,23.673,52.546ZM53.131,63.061c-2.115,2.931-4.031,5.881-1.15,6.909s6.5,0.335,6.9-2.3-1.535-5.989-3.451-5.757S55.246,60.13,53.131,63.061Zm35.8,5.848c-0.536,2.542-.817,3.6,1.15,3.454s1.679-1.761,1.15-3.454S89.47,66.368,88.935,68.91Zm-13.1,3.06c-2.246,2.953-2.369,2.8,0,3.454s6.057,1.279,5.752-1.151a3.815,3.815,0,0,0-3.451-3.454C76.86,70.687,78.082,69.017,75.837,71.97ZM108.8,52.546c-0.786,3.472-2.29,4.77,0,5.757a3.452,3.452,0,0,0,4.6-3.454c-0.2-2.3-.945-3.072-2.3-3.454S109.584,49.075,108.8,52.546ZM101,82a3,3,0,1,1-3,3A3,3,0,0,1,101,82Zm9.092,0.35c1.275-1.615,3.163-2.633,4.217-2.274s0.874,1.959-.4,3.574-3.163,2.633-4.217,2.274S108.817,83.965,110.092,82.35ZM141,87c-3.057-.181-6.281,1.834-4,3s3.045,1.676,4,0S144.057,87.181,141,87Zm9-7c-2.863,1.971-3.155,3.013,0,5s3.006,0.528,4-1-0.815-3.63-2-4a2.994,2.994,0,0,0-2,0h0Zm12,0c2.857,1.469,1.155,3.354,0,4s-3.173-.633-3-2S159.143,78.531,162,80Zm12-1c-0.451,1.132-1.9,1.029,1,2s-0.227-1.292,1-2-1.215-5.794-2-3S174.451,77.869,174,79Zm15,2c2.937,2.141,10.233,2.38,6-1s-6.09-3.3-7-2S186.063,78.859,189,81Zm10,9c-1.212,1.835-.615,1.991-2,3s-0.466,3.66,2,2,4.866-3.652,4-6S200.212,88.165,199,90Zm-19,3s2.767,1.654,1,2-4.561,1.827-4,0S180,93,180,93Zm-27-3c1.839,2.545,3.5,5.108,1,6s-5.651.291-6-2,1.334-5.2,3-5S151.161,87.455,153,90Zm-8,12c0.466,2.208.71,3.124-1,3s-1.46-1.529-1-3S144.534,99.792,145,102Zm-6,7c1.952,2.564,2.06,2.432,0,3s-5.266,1.111-5-1a3.315,3.315,0,0,1,3-3C138.11,107.886,137.048,106.436,139,109Zm-20.091-9.214c2.976,0.707,5.507-.555,4.68,1.759s-2.729,5.776-4.919,4.561-1.945-2.462-1.752-3.863S115.933,99.079,118.909,99.786ZM106,93c0.684,3.015,1.991,4.143,0,5a3,3,0,0,1-4-3c0.17-1.994.821-2.668,2-3S105.316,89.985,106,93Zm22-12c-1.424,2.649-5.913,4.837-3,6s5.91-.314,6-2,1.415-3.138,0-4S129.424,78.351,128,81Zm40.547,5.875a3.453,3.453,0,1,1-3.453,3.453A3.453,3.453,0,0,1,168.547,86.875ZM181.09,73.283c-1.467-1.86-3.639-3.032-4.851-2.618s-1,2.256.462,4.115,3.639,3.032,4.851,2.618S182.557,75.143,181.09,73.283Zm-35.554-3.646c3.516-.208,7.225,2.111,4.6,3.454s-3.5,1.93-4.6,0S142.02,69.846,145.536,69.638Zm-10.353.94c3.293,2.269,3.63,3.47,0,5.757s-3.458.608-4.6-1.151,0.937-4.18,2.3-4.606a3.441,3.441,0,0,1,2.3,0h0Zm21.2,1c-3.286,1.692-1.329,3.862,0,4.606s3.65-.729,3.451-2.3S159.665,69.886,156.379,71.577Zm-40,1c-3.286,1.692-1.329,3.862,0,4.606s3.65-.729,3.451-2.3S119.665,70.886,116.379,72.577Zm4.2,19.849c0.519,1.3,2.181,1.185-1.15,2.3s0.261-1.488-1.15-2.3,1.4-6.671,2.3-3.454S120.057,91.123,120.575,92.426Zm63.745,12.3c-3.379,2.465-11.771,2.74-6.9-1.152s7-3.794,8.053-2.3S187.7,102.264,184.32,104.729ZM93.063,86.7c0.892,1.424.453,1.545,1.472,2.327s0.343,2.839-1.472,1.551-3.582-2.833-2.945-4.654S92.171,85.281,93.063,86.7Zm7.61-1.158s-3.183,1.9-1.15,2.3,5.247,2.1,4.6,0S100.673,85.546,100.673,85.546Zm29.458,10.515c-2.116,2.931-4.032,5.881-1.151,6.909s6.5,0.335,6.9-2.3-1.535-5.989-3.451-5.757S132.246,93.13,130.131,96.061Zm35.8,5.849c-0.536,2.542-.818,3.6,1.15,3.454s1.679-1.761,1.15-3.454S166.47,99.368,165.935,101.91Zm-13.1,3.06c-2.246,2.953-2.37,2.8,0,3.454s6.057,1.279,5.751-1.151a3.815,3.815,0,0,0-3.451-3.455C153.86,103.687,155.082,102.017,152.837,104.97ZM185.8,85.546c-0.786,3.472-2.29,4.77,0,5.757a3.452,3.452,0,0,0,4.6-3.454c-0.2-2.3-.945-3.072-2.3-3.454S186.584,82.075,185.8,85.546ZM-58,22a3,3,0,0,1,3,3,3,3,0,0,1-3,3,3,3,0,0,1-3-3A3,3,0,0,1-58,22Zm9.092,0.35c1.275-1.615,3.163-2.633,4.217-2.274s0.874,1.959-.4,3.574-3.163,2.633-4.217,2.274S-50.183,23.965-48.908,22.35ZM-18,27c-3.057-.181-6.281,1.834-4,3s3.045,1.676,4,0S-14.943,27.181-18,27Zm9-7c-2.863,1.971-3.155,3.014,0,5s3.006,0.528,4-1-0.815-3.63-2-4a2.994,2.994,0,0,0-2,0h0ZM3,20c2.857,1.469,1.155,3.354,0,4s-3.173-.633-3-2S0.143,18.531,3,20Zm12-1c-0.451,1.131-1.9,1.029,1,2s-0.227-1.292,1-2-1.215-5.794-2-3S15.451,17.869,15,19Zm15,2c2.937,2.141,10.233,2.38,6-1s-6.09-3.3-7-2S27.063,18.859,30,21Zm10,9c-1.212,1.835-.615,1.991-2,3s-0.466,3.66,2,2,4.866-3.652,4-6S41.212,28.165,40,30ZM21,33s2.767,1.654,1,2-4.561,1.827-4,0S21,33,21,33ZM-6,30c1.839,2.545,3.5,5.108,1,6s-5.651.291-6-2,1.334-5.2,3-5S-7.839,27.455-6,30Zm-8,12c0.466,2.208.71,3.124-1,3s-1.46-1.529-1-3S-14.466,39.792-14,42Zm-6,7c1.952,2.564,2.06,2.432,0,3s-5.266,1.111-5-1a3.315,3.315,0,0,1,3-3C-20.89,47.886-21.952,46.436-20,49Zm-20.091-9.214c2.976,0.707,5.507-.555,4.68,1.759s-2.729,5.776-4.919,4.561-1.945-2.462-1.753-3.864S-43.067,39.079-40.091,39.786ZM-53,33c0.684,3.015,1.991,4.143,0,5a3,3,0,0,1-4-3c0.17-1.994.821-2.668,2-3S-53.684,29.985-53,33Zm22-12c-1.424,2.649-5.913,4.837-3,6s5.91-.314,6-2,1.415-3.138,0-4S-29.576,18.351-31,21ZM9.547,26.875a3.453,3.453,0,1,1-3.453,3.453A3.453,3.453,0,0,1,9.547,26.875ZM22.09,13.283c-1.467-1.86-3.639-3.032-4.851-2.619s-1.005,2.256.462,4.116,3.639,3.032,4.851,2.619S23.557,15.143,22.09,13.283ZM-13.464,9.638c3.516-.208,7.225,2.111,4.6,3.454s-3.5,1.93-4.6,0S-16.98,9.846-13.464,9.638Zm-10.353.94c3.293,2.269,3.63,3.47,0,5.757s-3.458.608-4.6-1.151,0.937-4.18,2.3-4.606a3.44,3.44,0,0,1,2.3,0h0Zm21.2,1c-3.286,1.691-1.329,3.862,0,4.606s3.65-.729,3.451-2.3S0.665,9.886-2.621,11.577Zm-40,1c-3.286,1.691-1.329,3.862,0,4.606s3.65-.729,3.451-2.3S-39.335,10.886-42.621,12.577Zm4.2,19.848c0.518,1.3,2.18,1.185-1.15,2.3s0.261-1.488-1.15-2.3,1.4-6.671,2.3-3.454S-38.943,31.123-38.425,32.426Zm63.745,12.3c-3.379,2.465-11.771,2.74-6.9-1.152s7.005-3.795,8.052-2.3S28.7,42.264,25.32,44.729ZM-65.937,26.7c0.892,1.424.453,1.545,1.472,2.327s0.343,2.839-1.472,1.551-3.582-2.833-2.945-4.654S-66.829,25.281-65.937,26.7Zm7.61-1.158s-3.183,1.9-1.15,2.3,5.247,2.1,4.6,0S-58.327,25.546-58.327,25.546Zm29.458,10.515c-2.115,2.931-4.031,5.881-1.15,6.909s6.5,0.335,6.9-2.3-1.535-5.989-3.451-5.757S-26.754,33.13-28.869,36.061Zm35.8,5.848c-0.536,2.542-.817,3.6,1.15,3.454S9.764,43.6,9.235,41.91,7.47,39.368,6.935,41.91Zm-13.1,3.06c-2.246,2.953-2.369,2.8,0,3.454S-0.106,49.7-.412,47.273a3.815,3.815,0,0,0-3.451-3.454C-5.14,43.687-3.918,42.017-6.163,44.97ZM26.8,25.546c-0.786,3.472-2.29,4.77,0,5.757a3.452,3.452,0,0,0,4.6-3.454c-0.2-2.3-.944-3.072-2.3-3.454S27.584,22.075,26.8,25.546Zm118.086-1.063a3,3,0,1,1,3.092-2.9A3,3,0,0,1,144.883,24.484Zm-9.077-.634c-1.325,1.574-3.244,2.533-4.286,2.141s-0.812-1.986.513-3.56,3.244-2.533,4.286-2.141S137.131,22.275,135.806,23.85Zm-30.747-5.614c3.049,0.276,6.335-1.636,4.092-2.873s-2.991-1.77-4-.125S102.009,17.959,105.059,18.235Zm-9.215,6.715c2.923-1.88,3.248-2.913.156-5s-2.988-.622-4.029.875,0.7,3.654,1.874,4.061a2.993,2.993,0,0,0,2,.063h0ZM83.85,24.575c-2.809-1.558-1.05-3.389.125-4s3.152,0.732,2.936,2.093S86.66,26.133,83.85,24.575ZM71.825,25.2c0.486-1.117,1.927-.97-0.937-2.03s0.186,1.3-1.062,1.968,1.033,5.829,1.905,3.061S71.339,26.316,71.825,25.2Zm-14.93-2.468c-2.869-2.232-10.153-2.7-6.028.812s5.983,3.484,6.934,2.218S59.764,24.963,56.895,22.732Zm-9.714-9.308c1.269-1.8.677-1.971,2.093-2.936s0.58-3.644-1.936-2.062-4.978,3.5-4.186,5.872S45.912,15.22,47.181,13.423Zm19.085-2.4s-2.714-1.739-.937-2.03,4.616-1.684,4,.125S66.265,11.019,66.265,11.019Zm26.893,3.843c-1.758-2.6-3.343-5.215-.812-6.028S98,8.719,98.281,11.02s-1.5,5.157-3.155,4.9S94.917,17.463,93.158,14.862ZM101.53,3.118c-0.4-2.221-.613-3.144,1.093-2.967s1.411,1.574.906,3.03S101.926,5.339,101.53,3.118Zm6.216-6.809c-1.871-2.624-1.983-2.5.093-3s5.3-.946,4.967,1.156a3.316,3.316,0,0,1-3.093,2.9C108.6-2.55,109.617-1.067,107.746-3.691Zm19.793,9.837c-2.952-.8-5.522.383-4.623-1.9s2.908-5.688,5.059-4.405,1.867,2.522,1.631,3.917S130.491,6.946,127.539,6.146Zm12.69,7.187c-0.589-3.035-1.86-4.2.157-5a3,3,0,0,1,3.9,3.124c-0.233,1.988-.9,2.641-2.093,2.936S140.818,16.368,140.229,13.333ZM117.865,24.639c1.506-2.6,6.062-4.649,3.186-5.9s-5.918.13-6.06,1.811-1.512,3.092-.125,4S116.359,27.242,117.865,24.639ZM77.519,17.494a3.454,3.454,0,1,1,3.557-3.345A3.453,3.453,0,0,1,77.519,17.494Zm-12.96,13.2c1.408,1.9,3.542,3.144,4.767,2.769s1.075-2.223-.333-4.128-3.542-3.144-4.767-2.769S63.151,28.787,64.559,30.692Zm35.423,4.756c-3.521.1-7.155-2.336-4.491-3.6s3.561-1.819,4.6.144S103.5,35.349,99.982,35.448Zm10.377-.616c-3.22-2.371-3.519-3.582.18-5.754s3.476-.5,4.563,1.295-1.067,4.148-2.443,4.532a3.442,3.442,0,0,1-2.3-.072h0ZM89.2,33.17c3.337-1.588,1.449-3.819.144-4.6s-3.671.614-3.521,2.194S85.867,34.758,89.2,33.17Zm40.012,0.251c3.337-1.588,1.449-3.819.144-4.6s-3.672.614-3.522,2.194S125.879,35.009,129.217,33.421Zm-3.574-19.97c-0.477-1.319-2.142-1.253,1.222-2.266s-0.307,1.479,1.078,2.338-1.606,6.625-2.408,3.381S126.121,14.769,125.643,13.451ZM62.314-.839C65.768-3.2,74.165-3.21,69.177.527s-7.12,3.574-8.12,2.05S58.86,1.519,62.314-.839Zm90.649,20.87c-0.847-1.451-.4-1.558-1.4-2.372s-0.254-2.849,1.52-1.5,3.492,2.944,2.8,4.744S153.81,21.481,152.963,20.03Zm-7.643.919s3.241-1.8,1.222-2.266-5.178-2.267-4.6-.144S145.32,20.949,145.32,20.949ZM116.206,9.519c2.206-2.863,4.213-5.752,1.366-6.869s-6.487-.538-6.971,2.086,1.347,6.034,3.269,5.862S114,12.382,116.206,9.519ZM80.6,2.553c0.615-2.524.929-3.569-1.042-3.489S77.827,0.772,78.3,2.481,79.988,5.078,80.6,2.553ZM93.79-.1c2.337-2.881,2.456-2.725.108-3.453s-6.014-1.468-5.785.971A3.815,3.815,0,0,0,91.454.983C92.727,1.154,91.453,2.785,93.79-.1ZM60.238,18.288c0.895-3.446,2.438-4.7.18-5.755a3.451,3.451,0,0,0-4.707,3.309c0.124,2.3.848,3.1,2.191,3.525S59.343,21.733,60.238,18.288Zm164.645,37.2a3,3,0,1,1,3.092-2.9A3,3,0,0,1,224.883,55.484Zm-9.077-.634c-1.325,1.574-3.244,2.533-4.286,2.141s-0.812-1.986.513-3.56,3.244-2.533,4.286-2.141S217.131,53.275,215.806,54.85Zm-30.747-5.614c3.049,0.276,6.335-1.636,4.092-2.873s-2.991-1.77-4-.125S182.009,48.959,185.059,49.235Zm-9.215,6.715c2.923-1.88,3.248-2.913.157-5s-2.988-.622-4.03.874,0.7,3.654,1.874,4.06a2.993,2.993,0,0,0,2,.063h0Zm-11.994-.375c-2.809-1.558-1.05-3.389.125-4s3.152,0.732,2.936,2.093S166.659,57.133,163.85,55.575Zm-12.025.624c0.486-1.117,1.926-.97-0.937-2.03s0.186,1.3-1.062,1.968,1.033,5.829,1.905,3.061S151.339,57.316,151.825,56.2ZM136.9,53.732c-2.869-2.232-10.154-2.7-6.029.812s5.984,3.484,6.934,2.218S139.763,55.963,136.9,53.732Zm-9.714-9.308c1.269-1.8.677-1.971,2.093-2.936s0.58-3.644-1.937-2.062-4.977,3.5-4.185,5.872S125.912,46.22,127.181,44.423Zm19.084-2.4s-2.714-1.739-.937-2.03,4.617-1.684,4,.125S146.265,42.019,146.265,42.019Zm26.893,3.843c-1.758-2.6-3.343-5.215-.812-6.028s5.658-.114,5.935,2.187-1.5,5.157-3.155,4.9S174.917,48.463,173.158,45.862Zm8.372-11.744c-0.4-2.221-.613-3.144,1.093-2.967s1.411,1.574.906,3.03S181.926,36.339,181.53,34.118Zm6.216-6.809c-1.871-2.624-1.983-2.5.093-3s5.3-.946,4.967,1.156a3.316,3.316,0,0,1-3.093,2.9C188.6,28.45,189.617,29.933,187.746,27.309Zm19.793,9.837c-2.952-.8-5.522.383-4.623-1.9s2.908-5.688,5.059-4.405,1.867,2.522,1.631,3.916S210.491,37.946,207.539,37.146Zm12.69,7.187c-0.589-3.035-1.86-4.2.157-5a3,3,0,0,1,3.9,3.124c-0.233,1.988-.9,2.641-2.093,2.936S220.818,47.368,220.229,44.333ZM197.865,55.639c1.506-2.6,6.062-4.65,3.186-5.9s-5.918.13-6.06,1.811-1.512,3.092-.125,4S196.359,58.242,197.865,55.639Zm-40.346-7.145a3.454,3.454,0,1,1,3.558-3.345A3.452,3.452,0,0,1,157.519,48.494Zm-12.96,13.2c1.408,1.9,3.543,3.144,4.767,2.769s1.075-2.223-.333-4.128-3.542-3.144-4.766-2.769S143.151,59.787,144.559,61.692Zm35.423,4.756c-3.521.1-7.155-2.336-4.491-3.6s3.561-1.819,4.6.144S183.5,66.349,179.982,66.448Zm10.377-.616c-3.22-2.371-3.519-3.582.18-5.755s3.476-.5,4.563,1.295-1.067,4.148-2.443,4.532a3.442,3.442,0,0,1-2.3-.072h0ZM169.205,64.17c3.337-1.588,1.449-3.819.144-4.6s-3.671.614-3.521,2.194S165.867,65.758,169.205,64.17Zm40.012,0.251c3.337-1.588,1.449-3.819.144-4.6s-3.672.614-3.522,2.194S205.879,66.009,209.217,64.421Zm-3.574-19.97c-0.477-1.319-2.142-1.253,1.222-2.266s-0.307,1.479,1.078,2.338-1.606,6.625-2.408,3.381S206.121,45.769,205.643,44.451Zm-63.329-14.29c3.454-2.358,11.851-2.371,6.863,1.367s-7.121,3.574-8.121,2.05S138.86,32.519,142.314,30.161Zm90.649,20.87c-0.847-1.451-.4-1.558-1.4-2.372s-0.254-2.848,1.52-1.5,3.492,2.944,2.8,4.744S233.81,52.481,232.963,51.03Zm-7.643.919s3.241-1.8,1.222-2.266-5.178-2.267-4.6-.144S225.32,51.949,225.32,51.949ZM196.206,40.519c2.206-2.863,4.213-5.752,1.366-6.87s-6.487-.538-6.971,2.086,1.347,6.034,3.269,5.862S194,43.382,196.206,40.519Zm-35.6-6.965c0.615-2.524.93-3.569-1.041-3.489s-1.734,1.708-1.258,3.417S159.988,36.078,160.6,33.553ZM173.79,30.9c2.337-2.881,2.456-2.725.108-3.453s-6.014-1.468-5.785.971a3.815,3.815,0,0,0,3.341,3.561C172.727,32.154,171.453,33.785,173.79,30.9ZM140.238,49.288c0.894-3.446,2.438-4.7.18-5.754a3.451,3.451,0,0,0-4.707,3.309c0.124,2.3.848,3.1,2.191,3.525S139.343,52.733,140.238,49.288ZM-4.1,93.48A3,3,0,0,1-1.114,96.5,3,3,0,0,1-4.13,99.48a3,3,0,0,1-2.984-3.016A3,3,0,0,1-4.1,93.48Zm9.09,0.4c1.284-1.608,3.177-2.616,4.229-2.252S10.084,93.59,8.8,95.2,5.623,97.814,4.571,97.45,3.708,95.486,4.992,93.878Zm30.883,4.813c-3.056-.2-6.29,1.8-4.016,2.979s3.036,1.692,4,.021S38.93,98.888,35.875,98.691Zm9.037-6.952c-2.873,1.956-3.171,3-.026,5s3,0.544,4.005-.979-0.8-3.634-1.979-4.011a2.994,2.994,0,0,0-2-.011h0Zm12,0.064c2.849,1.484,1.137,3.36-.021,4s-3.17-.65-2.989-2.016S54.062,90.318,56.911,91.8Zm12.005-.937c-0.457,1.129-1.9,1.019.989,2.005s-0.22-1.293,1.011-1.995-1.184-5.8-1.984-3.011S69.373,89.737,68.916,90.866Zm14.989,2.079c2.926,2.156,10.22,2.434,6.005-.968s-6.072-3.328-6.989-2.037S80.98,90.789,83.906,92.945ZM93.858,102c-1.222,1.828-.625,1.988-2.016,2.989s-0.485,3.658,1.989,2.011,4.885-3.627,4.032-5.979S95.08,100.169,93.858,102Zm-19.016,2.9s2.758,1.669.989,2-4.571,1.8-4-.021S74.842,104.9,74.842,104.9Zm-26.984-3.142c1.825,2.554,3.477,5.126.968,6.005s-5.652.261-5.989-2.032,1.362-5.194,3.026-4.984S46.033,99.2,47.859,101.755ZM39.8,113.712c0.454,2.21.694,3.127-1.016,2.995s-1.452-1.537-.984-3S39.341,111.5,39.8,113.712Zm-6.037,6.968c1.939,2.575,2.047,2.444-.016,3s-5.272,1.083-4.995-1.026a3.314,3.314,0,0,1,3.016-2.984C32.875,119.562,31.82,118.106,33.758,120.68Zm-20.042-9.32c2.972,0.723,5.51-.525,4.671,1.784s-2.76,5.762-4.943,4.535-1.932-2.473-1.732-3.873S10.744,110.638,13.716,111.36ZM0.843,104.506c0.668,3.019,1.969,4.153-.026,5a3,3,0,0,1-3.984-3.021c0.181-1.994.835-2.664,2.016-2.99S0.176,101.487.843,104.506ZM22.906,92.623c-1.438,2.641-5.939,4.805-3.032,5.984s5.912-.283,6.011-1.968,1.431-3.13.021-4S24.344,89.981,22.906,92.623Zm40.517,6.095a3.455,3.455,0,1,1-3.469,3.436A3.453,3.453,0,0,1,63.424,98.717ZM76.037,85.187c-1.457-1.867-3.623-3.051-4.837-2.644s-1.017,2.251.44,4.118,3.623,3.051,4.837,2.644S77.494,87.054,76.037,85.187ZM40.5,81.353c3.517-.189,7.213,2.15,4.583,3.479s-3.513,1.911-4.6-.024S36.985,81.543,40.5,81.353Zm-10.358.885c3.281,2.287,3.611,3.489-.03,5.757s-3.461.589-4.6-1.176,0.96-4.175,2.325-4.594a3.44,3.44,0,0,1,2.3.012h0Zm21.19,1.112c-3.3,1.674-1.349,3.855-.024,4.606s3.654-.71,3.463-2.285S54.63,81.676,51.335,83.35Zm-40,.788c-3.3,1.674-1.349,3.855-.024,4.606s3.654-.71,3.463-2.285S14.625,82.465,11.33,84.139Zm4.091,19.87c0.512,1.306,2.174,1.2-1.162,2.3s0.269-1.487-1.138-2.309,1.433-6.664,2.319-3.442S14.91,102.7,15.421,104.009ZM79.1,116.649c-3.392,2.447-11.785,2.678-6.9-1.188s7.025-3.758,8.064-2.26S82.492,114.2,79.1,116.649ZM-12.06,98.142c0.885,1.428.445,1.547,1.46,2.335s0.328,2.841-1.481,1.543-3.567-2.852-2.92-4.669S-12.945,96.714-12.06,98.142Zm7.616-1.118s-3.193,1.887-1.162,2.3,5.236,2.132,4.6.024S-4.444,97.024-4.444,97.024Zm29.4,10.671c-2.131,2.919-4.062,5.86-1.187,6.9s6.5,0.369,6.914-2.266-1.5-6-3.421-5.776S27.088,104.775,24.958,107.7Zm35.772,6.037c-0.549,2.54-.836,3.593,1.132,3.461s1.688-1.752,1.169-3.448S61.279,111.193,60.73,113.732Zm-13.114,2.991c-2.261,2.941-2.384,2.789-.018,3.455s6.05,1.311,5.758-1.121a3.815,3.815,0,0,0-3.433-3.473C48.646,115.446,49.877,113.783,47.616,116.723ZM80.679,97.474c-0.8,3.468-2.315,4.758-.03,5.758a3.452,3.452,0,0,0,4.62-3.43c-0.184-2.3-.928-3.077-2.282-3.466S81.484,94.007,80.679,97.474ZM23.131,80.444a3,3,0,1,1,2.984-3.016A3,3,0,0,1,23.131,80.444Zm-9.094-.3c-1.267,1.622-3.149,2.65-4.2,2.3s-0.884-1.955.382-3.576,3.149-2.65,4.2-2.3S15.3,78.52,14.037,80.142Zm-30.932-4.486c3.058,0.165,6.271-1.867,3.984-3.021s-3.054-1.66-4,.021S-19.952,75.491-16.895,75.656ZM-25.858,82.7c2.852-1.986,3.139-3.03-.026-5s-3.009-.512-3.995,1.021,0.834,3.625,2.021,3.989a2.994,2.994,0,0,0,2-.011h0Zm-12,.064c-2.864-1.454-1.173-3.348-.021-4s3.177,0.616,3.011,1.984S-34.993,84.221-37.857,82.767ZM-49.852,83.83c0.445-1.134,1.89-1.039-1.011-1.995s0.234,1.291-.989,2.005,1.246,5.787,2.016,2.989S-50.3,84.964-49.852,83.83Zm-15.01-1.921c-2.949-2.125-10.245-2.325-5.995,1.032S-64.75,86.2-63.846,84.9-61.914,84.035-64.862,81.91ZM-74.91,72.963c1.2-1.842.6-1.994,1.984-3.011s0.446-3.662-2.011-1.989-4.846,3.678-3.968,6.021S-76.112,74.8-74.91,72.963Zm18.984-3.1s-2.776-1.639-1.011-1.995,4.552-1.851,4-.021S-55.926,69.862-55.926,69.862Zm27.016,2.857c-1.852-2.535-3.532-5.089-1.032-5.995s5.649-.321,6.011,1.968-1.307,5.208-2.974,5.016S-27.058,75.255-28.911,72.719Zm7.936-12.042c-0.477-2.205-.727-3.12.984-3.005s1.468,1.522,1.016,2.995S-20.5,62.882-20.974,60.677Zm5.963-7.032c-1.966-2.554-2.073-2.422-.016-3s5.26-1.139,5.005.973a3.315,3.315,0,0,1-2.984,3.016C-14.116,54.755-13.046,56.2-15.011,53.645Zm20.14,9.107c-2.979-.691-5.5.584-4.69-1.734s2.7-5.791,4.895-4.587,1.958,2.452,1.773,3.854S8.108,63.444,5.128,62.753ZM18.073,69.47c-0.7-3.011-2.013-4.132-.027-5a3,3,0,0,1,4.016,2.979c-0.16,2-.807,2.672-1.984,3.01S18.772,72.482,18.073,69.47ZM-3.863,81.587c1.41-2.656,5.888-4.868,2.968-6.016S-6.8,75.917-6.884,77.6s-1.4,3.145.021,4S-5.273,84.243-3.863,81.587Zm-40.58-5.665a3.453,3.453,0,0,1-3.469-3.436,3.453,3.453,0,0,1,3.433-3.473,3.453,3.453,0,0,1,3.469,3.436A3.453,3.453,0,0,1-44.443,75.921ZM-56.912,89.585c1.477,1.852,3.655,3.013,4.865,2.593s0.993-2.261-.483-4.113-3.655-3.013-4.865-2.593S-58.389,87.733-56.912,89.585Zm35.573,3.457c-3.515.227-7.236-2.073-4.62-3.43s3.492-1.948,4.6-.024S-17.824,92.815-21.339,93.042Zm10.348-.995c-3.3-2.252-3.648-3.451-.03-5.757s3.455-.626,4.607,1.127S-7.329,91.6-8.69,92.035a3.44,3.44,0,0,1-2.3.012h0Zm-21.2-.888c3.277-1.709,1.308-3.869-.024-4.606s-3.646.748-3.439,2.321S-35.469,92.868-32.192,91.16ZM7.8,89.948c3.277-1.709,1.308-3.869-.024-4.606s-3.646.748-3.439,2.321S4.525,91.657,7.8,89.948ZM3.5,70.122c-0.525-1.3-2.187-1.174,1.138-2.309S4.386,69.3,5.8,70.109s-1.362,6.679-2.282,3.467S4.026,71.422,3.5,70.122ZM-60.308,58.157c3.366-2.483,11.756-2.8,6.908,1.115s-6.985,3.832-8.04,2.346S-63.674,60.64-60.308,58.157ZM31.043,75.7c-0.9-1.419-.461-1.542-1.485-2.319s-0.358-2.837,1.464-1.559,3.6,2.814,2.97,4.639S31.943,77.116,31.043,75.7Zm-7.6,1.2s3.173-1.921,1.138-2.309-5.258-2.076-4.6.024S23.439,76.9,23.439,76.9ZM-6.074,66.537c2.1-2.942,4-5.9,1.114-6.915s-6.5-.3-6.89,2.339,1.567,5.981,3.481,5.739S-8.173,69.479-6.074,66.537Zm-35.834-5.659c0.522-2.545.8-3.6-1.169-3.448s-1.67,1.77-1.132,3.46S-42.43,63.423-41.908,60.878Zm13.082-3.13c2.23-2.965,2.354-2.814-.018-3.454s-6.064-1.247-5.745,1.182a3.815,3.815,0,0,0,3.469,3.436C-29.843,59.037-31.056,60.713-28.826,57.749Zm-32.857,19.6c0.768-3.476,2.265-4.782-.03-5.757A3.452,3.452,0,0,0-66.3,75.068c0.208,2.3.961,3.067,2.319,3.442S-62.452,80.822-61.684,77.347Z"/>
</svg>
