<?xml version="1.0" encoding="UTF-8" standalone="no"?>
<!DOCTYPE svg PUBLIC "-//W3C//DTD SVG 1.1//EN"
 "http://www.w3.org/Graphics/SVG/1.1/DTD/svg11.dtd">
<!-- Generated by graphviz version 2.43.0 (0)
 -->
<!-- Title: view Pages: 1 -->
<svg width="691pt" height="188pt"
 viewBox="0.00 0.00 691.48 188.00" xmlns="http://www.w3.org/2000/svg" xmlns:xlink="http://www.w3.org/1999/xlink">
<g id="graph0" class="graph" transform="scale(1 1) rotate(0) translate(4 184)">
<title>view</title>
<polygon fill="white" stroke="transparent" points="-4,4 -4,-184 687.48,-184 687.48,4 -4,4"/>
<!-- l&#39;adversaire joue -->
<g id="node1" class="node">
<title>l&#39;adversaire joue</title>
<ellipse fill="none" stroke="black" cx="361.24" cy="-162" rx="87.99" ry="18"/>
<text text-anchor="middle" x="361.24" y="-158.3" font-family="Times,serif" font-size="14.00">l&#39;adversaire joue</text>
</g>
<!-- il a pris 1 jeton -->
<g id="node2" class="node">
<title>il a pris 1 jeton</title>
<ellipse fill="none" stroke="black" cx="81.24" cy="-90" rx="81.49" ry="18"/>
<text text-anchor="middle" x="81.24" y="-86.3" font-family="Times,serif" font-size="14.00">il a pris 1 jeton</text>
</g>
<!-- l&#39;adversaire joue&#45;&gt;il a pris 1 jeton -->
<g id="edge1" class="edge">
<title>l&#39;adversaire joue&#45;&gt;il a pris 1 jeton</title>
<path fill="none" stroke="black" d="M307.92,-147.67C260.86,-135.9 192.27,-118.76 142.87,-106.41"/>
<polygon fill="black" stroke="black" points="143.5,-102.96 132.95,-103.93 141.8,-109.75 143.5,-102.96"/>
</g>
<!-- il a pris 2 jetons -->
<g id="node3" class="node">
<title>il a pris 2 jetons</title>
<ellipse fill="none" stroke="black" cx="304.24" cy="-90" rx="85.59" ry="18"/>
<text text-anchor="middle" x="304.24" y="-86.3" font-family="Times,serif" font-size="14.00">il a pris 2 jetons</text>
</g>
<!-- l&#39;adversaire joue&#45;&gt;il a pris 2 jetons -->
<g id="edge2" class="edge">
<title>l&#39;adversaire joue&#45;&gt;il a pris 2 jetons</title>
<path fill="none" stroke="black" d="M347.44,-144.05C340.51,-135.54 331.98,-125.07 324.34,-115.68"/>
<polygon fill="black" stroke="black" points="326.94,-113.33 317.91,-107.79 321.51,-117.75 326.94,-113.33"/>
</g>
<!-- il a pris 3 jetons -->
<g id="node4" class="node">
<title>il a pris 3 jetons</title>
<ellipse fill="none" stroke="black" cx="532.24" cy="-90" rx="85.59" ry="18"/>
<text text-anchor="middle" x="532.24" y="-86.3" font-family="Times,serif" font-size="14.00">il a pris 3 jetons</text>
</g>
<!-- l&#39;adversaire joue&#45;&gt;il a pris 3 jetons -->
<g id="edge3" class="edge">
<title>l&#39;adversaire joue&#45;&gt;il a pris 3 jetons</title>
<path fill="none" stroke="black" d="M398.77,-145.64C424.27,-135.2 458.2,-121.31 485.46,-110.15"/>
<polygon fill="black" stroke="black" points="486.88,-113.35 494.8,-106.33 484.22,-106.88 486.88,-113.35"/>
</g>
<!-- je prends 3 jetons -->
<g id="node5" class="node">
<title>je prends 3 jetons</title>
<ellipse fill="none" stroke="black" cx="101.24" cy="-18" rx="94.48" ry="18"/>
<text text-anchor="middle" x="101.24" y="-14.3" font-family="Times,serif" font-size="14.00">je prends 3 jetons</text>
</g>
<!-- il a pris 1 jeton&#45;&gt;je prends 3 jetons -->
<g id="edge4" class="edge">
<title>il a pris 1 jeton&#45;&gt;je prends 3 jetons</title>
<path fill="none" stroke="black" d="M86.19,-71.7C88.41,-63.9 91.1,-54.51 93.58,-45.83"/>
<polygon fill="black" stroke="black" points="96.97,-46.68 96.36,-36.1 90.24,-44.76 96.97,-46.68"/>
</g>
<!-- je prends 2 jetons -->
<g id="node6" class="node">
<title>je prends 2 jetons</title>
<ellipse fill="none" stroke="black" cx="315.24" cy="-18" rx="94.48" ry="18"/>
<text text-anchor="middle" x="315.24" y="-14.3" font-family="Times,serif" font-size="14.00">je prends 2 jetons</text>
</g>
<!-- il a pris 2 jetons&#45;&gt;je prends 2 jetons -->
<g id="edge5" class="edge">
<title>il a pris 2 jetons&#45;&gt;je prends 2 jetons</title>
<path fill="none" stroke="black" d="M306.96,-71.7C308.17,-63.98 309.63,-54.71 310.98,-46.11"/>
<polygon fill="black" stroke="black" points="314.46,-46.53 312.55,-36.1 307.54,-45.44 314.46,-46.53"/>
</g>
<!-- je prends 1 jetons -->
<g id="node7" class="node">
<title>je prends 1 jetons</title>
<ellipse fill="none" stroke="black" cx="589.24" cy="-18" rx="94.48" ry="18"/>
<text text-anchor="middle" x="589.24" y="-14.3" font-family="Times,serif" font-size="14.00">je prends 1 jetons</text>
</g>
<!-- il a pris 3 jetons&#45;&gt;je prends 1 jetons -->
<g id="edge6" class="edge">
<title>il a pris 3 jetons&#45;&gt;je prends 1 jetons</title>
<path fill="none" stroke="black" d="M546.04,-72.05C552.87,-63.67 561.25,-53.38 568.81,-44.1"/>
<polygon fill="black" stroke="black" points="571.58,-46.24 575.18,-36.28 566.15,-41.82 571.58,-46.24"/>
</g>
<!-- je prends 3 jetons&#45;&gt;l&#39;adversaire joue -->
<g id="edge7" class="edge">
<title>je prends 3 jetons&#45;&gt;l&#39;adversaire joue</title>
<path fill="none" stroke="black" d="M124.44,-35.57C138.31,-45.72 156.13,-59.19 171.24,-72 188.99,-87.04 189.37,-95.9 209.24,-108 236.04,-124.32 268.57,-136.52 296.64,-145.07"/>
<polygon fill="black" stroke="black" points="295.79,-148.47 306.37,-147.94 297.77,-141.75 295.79,-148.47"/>
</g>
<!-- je prends 2 jetons&#45;&gt;l&#39;adversaire joue -->
<g id="edge8" class="edge">
<title>je prends 2 jetons&#45;&gt;l&#39;adversaire joue</title>
<path fill="none" stroke="black" d="M356.22,-34.39C372.67,-42.83 389.92,-55.09 399.24,-72 410.78,-92.92 397.77,-118.07 383.93,-136.28"/>
<polygon fill="black" stroke="black" points="381.15,-134.15 377.59,-144.13 386.6,-138.55 381.15,-134.15"/>
</g>
<!-- je prends 1 jetons&#45;&gt;l&#39;adversaire joue -->
<g id="edge9" class="edge">
<title>je prends 1 jetons&#45;&gt;l&#39;adversaire joue</title>
<path fill="none" stroke="black" d="M606.28,-35.93C623.45,-55.04 645.04,-86.31 627.24,-108 605.4,-134.62 521.71,-148.12 453.96,-154.81"/>
<polygon fill="black" stroke="black" points="453.29,-151.35 443.66,-155.78 453.95,-158.32 453.29,-151.35"/>
</g>
</g>
</svg>
