<?xml version="1.0" encoding="UTF-8" standalone="no"?>
<!-- Created with Inkscape (http://www.inkscape.org/) -->

<svg
   xmlns:dc="http://purl.org/dc/elements/1.1/"
   xmlns:cc="http://creativecommons.org/ns#"
   xmlns:rdf="http://www.w3.org/1999/02/22-rdf-syntax-ns#"
   xmlns:svg="http://www.w3.org/2000/svg"
   xmlns="http://www.w3.org/2000/svg"
   xmlns:sodipodi="http://sodipodi.sourceforge.net/DTD/sodipodi-0.dtd"
   xmlns:inkscape="http://www.inkscape.org/namespaces/inkscape"
   width="70mm"
   height="20mm"
   viewBox="0 0 70 20"
   version="1.1"
   id="svg8"
   inkscape:version="0.92.3 (2405546, 2018-03-11)"
   sodipodi:docname="coordinateur.svg">
  <defs
     id="defs2" />
  <sodipodi:namedview
     id="base"
     pagecolor="#ffffff"
     bordercolor="#666666"
     borderopacity="1.0"
     inkscape:pageopacity="0.0"
     inkscape:pageshadow="2"
     inkscape:zoom="1.979899"
     inkscape:cx="122.10147"
     inkscape:cy="-1.4285714"
     inkscape:document-units="mm"
     inkscape:current-layer="layer1"
     showgrid="false"
     inkscape:window-width="1299"
     inkscape:window-height="741"
     inkscape:window-x="67"
     inkscape:window-y="27"
     inkscape:window-maximized="1" />
  <metadata
     id="metadata5">
    <rdf:RDF>
      <cc:Work
         rdf:about="">
        <dc:format>image/svg+xml</dc:format>
        <dc:type
           rdf:resource="http://purl.org/dc/dcmitype/StillImage" />
        <dc:title></dc:title>
      </cc:Work>
    </rdf:RDF>
  </metadata>
  <g
     inkscape:label="Layer 1"
     inkscape:groupmode="layer"
     id="layer1"
     transform="translate(0,-277)">
    <g
       id="g846"
       transform="translate(1.8140873,-0.76726353)">
      <path
         style="stroke-width:0.01953125"
         inkscape:connector-curvature="0"
         d="M 13.561644,291.6509 H 5.4366448 c -0.1718753,0 -0.3124999,0.14063 -0.3124999,0.3125 v 0.62499 c 0,0.17189 0.1406246,0.31251 0.3124999,0.31251 h 8.1249992 c 0.171876,0 0.312501,-0.14062 0.312501,-0.31251 v -0.62499 c 0,-0.17187 -0.140625,-0.3125 -0.312501,-0.3125 z m 1.250001,-6.25 c -0.517579,0 -0.9375,0.41992 -0.9375,0.9375 0,0.13867 0.03125,0.26758 0.08594,0.38672 l -1.414062,0.84766 c -0.300783,0.17968 -0.689455,0.0782 -0.863283,-0.22657 l -1.591796,-2.78515 c 0.208984,-0.17188 0.345703,-0.42969 0.345703,-0.72266 0,-0.51757 -0.419922,-0.9375 -0.9374998,-0.9375 -0.5175784,0 -0.9374999,0.41993 -0.9374999,0.9375 0,0.29297 0.1367186,0.55078 0.3457031,0.72266 l -1.5917979,2.78515 c -0.1738278,0.30469 -0.5644523,0.40625 -0.8632804,0.22657 l -1.4121094,-0.84766 c 0.052736,-0.11719 0.085938,-0.24805 0.085938,-0.38672 0,-0.51758 -0.4199215,-0.9375 -0.9374999,-0.9375 -0.5175783,0 -0.9394533,0.41992 -0.9394533,0.9375 0,0.51758 0.4199224,0.9375 0.9375008,0.9375 0.05078,0 0.1015619,-0.007 0.1503903,-0.0157 l 1.4121094,3.76563 h 7.5 l 1.412109,-3.76563 c 0.04882,0.007 0.09961,0.0157 0.150391,0.0157 0.517577,0 0.937499,-0.41992 0.937499,-0.9375 0,-0.51758 -0.419922,-0.9375 -0.937499,-0.9375 z"
         id="path826" />
      <text
         id="text839"
         y="290.58554"
         x="20.980658"
         style="font-style:normal;font-variant:normal;font-weight:normal;font-stretch:normal;font-size:7.05555534px;line-height:125%;font-family:Ubuntu;-inkscape-font-specification:Ubuntu;letter-spacing:0px;word-spacing:0px;fill:#000000;fill-opacity:1;stroke:none;stroke-width:0.26458332px;stroke-linecap:butt;stroke-linejoin:miter;stroke-opacity:1"
         xml:space="preserve"><tspan
           style="font-style:normal;font-variant:normal;font-weight:normal;font-stretch:normal;font-size:7.05555534px;font-family:Ubuntu;-inkscape-font-specification:Ubuntu;stroke-width:0.26458332px"
           y="290.58554"
           x="20.980658"
           id="tspan837"
           sodipodi:role="line">Coordinateur</tspan></text>
    </g>
    <rect
       style="fill:none;fill-opacity:1;stroke:#000000;stroke-width:0.13211915;stroke-linejoin:miter;stroke-miterlimit:4;stroke-dasharray:none;stroke-dashoffset:0;stroke-opacity:1"
       id="rect841"
       width="70"
       height="20"
       x="0.13363476"
       y="277.13364" />
  </g>
</svg>
