<?xml version="1.0" encoding="UTF-8" standalone="no"?>
<svg
   xmlns:dc="http://purl.org/dc/elements/1.1/"
   xmlns:cc="http://creativecommons.org/ns#"
   xmlns:rdf="http://www.w3.org/1999/02/22-rdf-syntax-ns#"
   xmlns:svg="http://www.w3.org/2000/svg"
   xmlns="http://www.w3.org/2000/svg"
   id="svg8"
   version="1.1"
   viewBox="0 0 70 20"
   height="20mm"
   width="70mm">
  <defs
     id="defs2" />
  <metadata
     id="metadata5">
    <rdf:RDF>
      <cc:Work
         rdf:about="">
        <dc:format>image/svg+xml</dc:format>
        <dc:type
           rdf:resource="http://purl.org/dc/dcmitype/StillImage" />
        <dc:title></dc:title>
      </cc:Work>
    </rdf:RDF>
  </metadata>
  <g
     transform="translate(0,-277)"
     id="layer1">
    <rect
       y="277.13364"
       x="0.13363476"
       height="20"
       width="70"
       id="rect841"
       style="fill:none;fill-opacity:1;stroke:#000000;stroke-width:0.13211915;stroke-linejoin:miter;stroke-miterlimit:4;stroke-dasharray:none;stroke-dashoffset:0;stroke-opacity:1" />
    <g
       transform="translate(-4.7680134,-1.7385967e-5)"
       id="g951">
      <text
         xml:space="preserve"
         style="font-style:normal;font-variant:normal;font-weight:normal;font-stretch:normal;font-size:7.05555534px;line-height:125%;font-family:Ubuntu;-inkscape-font-specification:Ubuntu;letter-spacing:0px;word-spacing:0px;fill:#000000;fill-opacity:1;stroke:none;stroke-width:0.26458332px;stroke-linecap:butt;stroke-linejoin:miter;stroke-opacity:1"
         x="28.189764"
         y="289.81827"
         id="text839"><tspan
           id="tspan837"
           x="28.189764"
           y="289.81827"
           style="font-style:normal;font-variant:normal;font-weight:normal;font-stretch:normal;font-size:7.05555534px;font-family:Ubuntu;-inkscape-font-specification:Ubuntu;stroke-width:0.26458332px">Rassembleur</tspan></text>
      <path
         id="path934"
         d="m 10.700684,285.02476 4.549543,2.06384 c 0.13281,0.0603 0.283003,0.0603 0.415814,0 l 4.549543,-2.06384 c 0.323238,-0.14668 0.323238,-0.63515 0,-0.78183 l -4.549348,-2.06403 a 0.50012942,0.50012942 0 0 0 -0.415814,0 l -4.549738,2.06384 c -0.323238,0.14668 -0.323238,0.63534 0,0.78202 z m 9.515095,1.72419 -1.134554,-0.51425 -3.156985,1.43104 c -0.147654,0.067 -0.304488,0.10097 -0.466009,0.10097 -0.161521,0 -0.318159,-0.034 -0.466008,-0.10097 l -3.15679,-1.43104 -1.134749,0.51425 c -0.323238,0.14649 -0.323238,0.63476 0,0.78124 l 4.549543,2.06228 c 0.13281,0.0602 0.283003,0.0602 0.415814,0 l 4.549738,-2.06228 c 0.323238,-0.14648 0.323238,-0.63475 0,-0.78124 z m 0,2.49606 -1.130257,-0.5123 -3.161282,1.43299 c -0.147654,0.067 -0.304488,0.10098 -0.466009,0.10098 -0.161521,0 -0.318159,-0.034 -0.466008,-0.10098 l -3.161087,-1.43299 -1.130452,0.5123 c -0.323238,0.14648 -0.323238,0.63476 0,0.78124 l 4.549543,2.06227 c 0.13281,0.0602 0.283003,0.0602 0.415814,0 l 4.549738,-2.06227 c 0.323238,-0.14648 0.323238,-0.63476 0,-0.78124 z"
         style="stroke-width:0.01953096" />
    </g>
  </g>
</svg>
