<?xml version="1.0" encoding="UTF-8" standalone="no"?>
<svg
   xmlns:dc="http://purl.org/dc/elements/1.1/"
   xmlns:cc="http://creativecommons.org/ns#"
   xmlns:rdf="http://www.w3.org/1999/02/22-rdf-syntax-ns#"
   xmlns:svg="http://www.w3.org/2000/svg"
   xmlns="http://www.w3.org/2000/svg"
   xmlns:sodipodi="http://sodipodi.sourceforge.net/DTD/sodipodi-0.dtd"
   xmlns:inkscape="http://www.inkscape.org/namespaces/inkscape"
   sodipodi:docname="anchor.svg"
   inkscape:version="1.0 (4035a4fb49, 2020-05-01)"
   id="svg8"
   version="1.1"
   viewBox="0 0 210 297"
   height="297mm"
   width="210mm">
  <defs
     id="defs2" />
  <sodipodi:namedview
     inkscape:window-maximized="0"
     inkscape:window-y="34"
     inkscape:window-x="130"
     inkscape:window-height="967"
     inkscape:window-width="1375"
     showgrid="false"
     inkscape:document-rotation="0"
     inkscape:current-layer="layer1"
     inkscape:document-units="mm"
     inkscape:cy="394.9776"
     inkscape:cx="406.30272"
     inkscape:zoom="1.4"
     inkscape:pageshadow="2"
     inkscape:pageopacity="0.0"
     borderopacity="1.0"
     bordercolor="#666666"
     pagecolor="#ffffff"
     id="base" />
  <metadata
     id="metadata5">
    <rdf:RDF>
      <cc:Work
         rdf:about="">
        <dc:format>image/svg+xml</dc:format>
        <dc:type
           rdf:resource="http://purl.org/dc/dcmitype/StillImage" />
        <dc:title></dc:title>
      </cc:Work>
    </rdf:RDF>
  </metadata>
  <g
     id="layer1"
     inkscape:groupmode="layer"
     inkscape:label="Layer 1">
    <path
       sodipodi:nodetypes="ccsssccscccsscsccccccssssscscccssssscssccssssssssssssssscssssscccsssssscssssssssssssssssscsssssssssscccssscsscccsscsssscc"
       id="path982"
       d="m 121.87582,77.703352 c 0.80641,0.0403 1.38651,0.199096 2.12592,0.58195 1.2032,0.622944 1.95837,1.493492 2.40844,2.7762 0.31841,0.907469 0.35769,1.717134 0.12609,2.599077 -0.63358,2.412719 -3.06437,3.827479 -5.59272,3.255069 -0.54356,-0.12305 -1.8745,-0.81279 -2.2774,-1.1803 l -4e-5,6e-5 c -1.35223,-1.23314 -1.90096,-3.02796 -1.44386,-4.722689 0.52456,-1.944844 2.60898,-3.288113 4.65357,-3.309367 l -0.18267,-3.587687 c -3.37194,0.04022 -6.63868,2.030865 -7.78837,5.07036 -0.4808,1.271069 -0.64122,2.486222 -0.4965,3.760705 0.17673,1.556408 0.9562,3.358778 1.91082,4.418358 l 0.30291,0.33624 -0.76765,1.3737 c -0.42221,0.75554 -1.1531,2.06555 -1.6242,2.91115 l -0.85656,1.53741 -4.53815,-2.33854 -4.53815,-2.33854 -0.0634,-0.40973 c -0.12939,-0.83667 -0.78084,-1.94827 -1.51521,-2.5854 -0.22994,-0.19958 -0.73309,-0.5241 -1.1273,-0.72724 -1.307466,-0.67375 -2.422847,-0.79531 -3.736555,-0.40723 -1.258264,0.37169 -2.079089,1.06905 -2.72183,2.31242 -0.622562,1.20433 -0.695536,2.24986 -0.248624,3.56214 0.447679,1.31455 1.341798,2.26429 2.702919,2.87074 0.915787,0.40804 1.451402,0.52104 2.269622,0.47874 0.691522,-0.03578 1.177998,-0.14082 1.740538,-0.37581 l 0.37765,-0.15775 4.4336,2.29478 c 2.43836,1.26236 4.43788,2.30741 4.44288,2.32241 0.005,0.01501 -1.38758,2.533262 -3.09509,5.596122 -1.70751,3.06287 -4.13123,7.42834 -5.38605,9.70106 -1.25483,2.27271 -4.322137,7.79487 -6.816255,12.27147 -4.243741,7.61693 -4.585935,8.20816 -5.33215,9.21267 -1.390748,1.87213 -2.196926,2.59251 -3.244868,2.89952 -2.465921,0.72241 -6.626666,-1.07903 -9.284859,-4.01997 -1.485686,-1.64375 -2.92281,-4.21706 -3.817318,-6.83533 -0.842791,-2.46693 -1.199339,-4.76055 -1.203139,-7.74044 l -0.0017,-1.35115 1.663,0.8105 c 1.493286,0.72766 1.687002,0.80466 1.897767,0.75396 0.158576,-0.0381 0.280613,-0.14548 0.376183,-0.33096 0.145926,-0.28318 0.128136,-0.45964 -0.286813,-2.84449 -0.153818,-0.88406 -0.41532,-2.41224 -0.643085,-3.75811 -0.06931,-0.40953 -0.200353,-1.15556 -0.291233,-1.65783 -0.09087,-0.50229 -0.235467,-1.33214 -0.321327,-1.84415 -0.08586,-0.512 -0.205048,-1.22033 -0.264858,-1.57408 -0.05981,-0.35375 -0.152067,-0.9115 -0.205027,-1.23945 -0.149876,-0.92815 -0.268518,-1.19718 -0.604279,-1.3702 -0.477485,-0.24605 -0.43835,-0.27882 -2.927436,2.45075 -0.761998,0.83562 -1.919008,2.1034 -2.571131,2.81729 -0.652127,0.71389 -1.855095,2.03176 -2.673263,2.92861 -0.818168,0.89685 -1.564484,1.77987 -1.658474,1.96227 -0.206002,0.39977 -0.126156,0.72718 0.22096,0.90605 0.128894,0.0664 1.018688,0.21066 1.977324,0.32052 0.95863,0.10987 1.772342,0.21513 1.808272,0.23383 0.03592,0.0187 -0.04924,0.63485 -0.189233,1.36913 -0.77247,4.05149 -0.914689,7.08284 -0.489476,10.43295 0.255274,2.01122 1.0124,4.84466 1.789069,6.6954 1.268613,3.02299 3.212668,6.02745 5.720237,8.84046 1.856351,2.08244 3.618543,3.71217 6.419996,5.93741 1.961572,1.5581 3.053417,2.89671 3.630083,4.45048 l -4.44e-4,7.5e-4 c 0.169685,0.4572 0.361172,0.86013 0.425942,0.89463 0.06459,0.0348 0.402954,-0.0239 0.751919,-0.1304 1.641901,-0.50132 3.406629,-0.40354 5.953634,0.32989 6.174017,1.77788 11.029062,2.33207 15.969692,1.82298 1.31536,-0.13554 1.64909,-0.19487 3.29083,-0.58498 4.39449,-1.04427 8.38245,-3.14119 11.82579,-6.21817 0.99631,-0.8903 1.64465,-1.5169 2.7023,-2.61168 0.49552,-0.5129 0.91538,-0.93912 0.93298,-0.94812 0.037,-0.018 0.91755,0.91595 1.85324,1.96551 0.69293,0.77729 1.05061,0.99237 1.39376,0.83819 0.3971,-0.17843 0.43283,-0.31205 1.8011,-6.7353 0.25069,-1.17683 0.6313,-2.95019 0.84582,-3.94081 0.65393,-3.01994 0.67398,-3.15058 0.51686,-3.36891 -0.17595,-0.24452 -0.54011,-0.37842 -0.83016,-0.30522 -0.152,0.0383 -0.52283,0.19296 -0.8241,0.34359 -0.30125,0.15063 -1.077,0.52493 -1.72391,0.83177 -0.64689,0.30685 -1.48215,0.70786 -1.85614,0.89112 -0.37399,0.18326 -0.95953,0.46819 -1.30121,0.63317 -0.34166,0.16498 -0.76447,0.37284 -0.93955,0.46184 -0.17509,0.089 -0.70206,0.34129 -1.17106,0.56055 -0.46899,0.21928 -1.01513,0.4826 -1.21365,0.58517 -0.19851,0.10258 -0.70883,0.34882 -1.13402,0.5472 -1.8986,0.88584 -2.28134,1.10461 -2.427,1.38728 -0.0948,0.18393 -0.1112,0.34607 -0.0504,0.49692 0.0811,0.20105 0.25615,0.31422 1.71782,1.10916 l 1.6276,0.88517 -1.18051,0.83506 c -3.02772,2.14171 -5.80644,3.35954 -9.13325,4.00283 -1.66606,0.32214 -2.69702,0.41264 -4.33813,0.38084 -3.62588,-0.0703 -7.40399,-1.74144 -9.201902,-4.07015 -0.541862,-0.70184 -0.898505,-1.5736 -0.908965,-2.22183 -0.0088,-0.5458 0.157185,-1.56395 0.37981,-2.32973 0.547983,-1.88495 0.724334,-2.2842 4.748937,-10.7515 2.20274,-4.63433 4.27681,-8.99836 4.60903,-9.69784 0.33222,-0.69948 0.95178,-1.99353 1.37679,-2.87568 1.5487,-3.21446 6.62956,-13.89064 7.07331,-14.86279 l 0.45594,-0.9989 4.48479,2.31104 4.48479,2.31105 0.0867,0.44137 c 0.42302,2.1538 2.84918,3.9921 5.11383,3.87474 1.78285,-0.0924 3.14983,-0.95683 3.941,-2.49216 0.94775,-1.8392 0.62684,-3.94043 -0.82742,-5.41781 -0.49476,-0.50336 -2.13673,-1.35297 -2.87947,-1.49056 -0.71772,-0.13294 -1.93864,-0.003 -2.58147,0.27486 l -0.53376,0.23067 -4.53082,-2.334772 -4.53083,-2.33476 0.75541,-1.58954 c 0.41549,-0.87425 1.05975,-2.22891 1.4317,-3.01035 l 0.67628,-1.4208 0.72954,0.0521 c 1.32136,0.09436 2.95568,-0.25454 4.21941,-0.90078 2.38316,-1.21866 4.007,-3.6463 4.23004,-6.323932 0.31646,-3.798983 -1.96524,-7.281207 -5.68893,-8.682176 -1.12997,-0.425131 -1.82316,-0.542188 -2.95376,-0.583005 z"
       style="fill:#4d4a4a;fill-opacity:1;stroke-width:0.0848386" />
  </g>
</svg>
