<?xml version="1.0" encoding="UTF-8" standalone="no"?>
<svg
   xmlns:dc="http://purl.org/dc/elements/1.1/"
   xmlns:cc="http://creativecommons.org/ns#"
   xmlns:rdf="http://www.w3.org/1999/02/22-rdf-syntax-ns#"
   xmlns:svg="http://www.w3.org/2000/svg"
   xmlns="http://www.w3.org/2000/svg"
   xmlns:sodipodi="http://sodipodi.sourceforge.net/DTD/sodipodi-0.dtd"
   xmlns:inkscape="http://www.inkscape.org/namespaces/inkscape"
   width="210mm"
   height="297mm"
   viewBox="0 0 210 297"
   version="1.1"
   id="svg8"
   inkscape:version="1.0.1 (3bc2e813f5, 2020-09-07)"
   sodipodi:docname="anchor.svg">
  <defs
     id="defs2" />
  <sodipodi:namedview
     id="base"
     pagecolor="#ffffff"
     bordercolor="#666666"
     borderopacity="1.0"
     inkscape:pageopacity="0.0"
     inkscape:pageshadow="2"
     inkscape:zoom="3.959798"
     inkscape:cx="142.469"
     inkscape:cy="141.60165"
     inkscape:document-units="mm"
     inkscape:current-layer="layer1"
     inkscape:document-rotation="0"
     showgrid="false"
     inkscape:window-width="1920"
     inkscape:window-height="1017"
     inkscape:window-x="1912"
     inkscape:window-y="-8"
     inkscape:window-maximized="1" />
  <metadata
     id="metadata5">
    <rdf:RDF>
      <cc:Work
         rdf:about="">
        <dc:format>image/svg+xml</dc:format>
        <dc:type
           rdf:resource="http://purl.org/dc/dcmitype/StillImage" />
        <dc:title />
      </cc:Work>
    </rdf:RDF>
  </metadata>
  <g
     inkscape:label="Layer 1"
     inkscape:groupmode="layer"
     id="layer1">
    <path
       sodipodi:nodetypes="ccsssccsccssscsccccccssssscsccssssssssscccssssssssssssssscssssccccsscsscssscscssssssssscscsscssssssscccssscsccccsscssssc"
       id="path982"
       d="m 47.228618,27.672721 c 0.282963,0.0122 0.486517,0.06029 0.745973,0.176229 0.422195,0.188645 0.687181,0.45227 0.845107,0.840709 0.111728,0.274805 0.125511,0.519994 0.04424,0.78707 -0.22232,0.730636 -1.075271,1.159064 -1.962454,0.985723 -0.190733,-0.03726 -0.657752,-0.246135 -0.799128,-0.357427 l -1.3e-5,1.8e-5 c -0.474492,-0.373428 -0.667036,-0.916948 -0.506642,-1.430156 0.184063,-0.588953 0.944488,-0.994836 1.661922,-1.001272 m -0.09311,-1.087343 c -1.183197,0.01218 -2.329476,0.615001 -2.732895,1.535441 -0.168711,0.384914 -0.225002,0.752895 -0.174221,1.138843 0.06202,0.471323 0.335527,1.017129 0.670496,1.337999 l 0.106291,0.101822 -0.269366,0.415993 c -0.148149,0.228797 -0.404616,0.625504 -0.569922,0.881574 l -0.300561,0.46557 -1.592412,-0.708173 -1.592412,-0.708174 -0.02225,-0.124076 c -0.04539,-0.253366 -0.273991,-0.589989 -0.531679,-0.782929 -0.08069,-0.06044 -0.257238,-0.158712 -0.395564,-0.220228 -0.458783,-0.204029 -0.850164,-0.240841 -1.311134,-0.12332 -0.441521,0.112558 -0.729543,0.323737 -0.955077,0.700264 -0.218453,0.364703 -0.244061,0.681316 -0.08725,1.078711 0.157089,0.398081 0.470829,0.685688 0.94844,0.869338 0.321345,0.123566 0.509287,0.157784 0.796398,0.144975 0.242649,-0.01083 0.413353,-0.04264 0.610743,-0.113805 l 0.132516,-0.04777 1.555725,0.694921 c 0.85561,0.382276 1.55723,0.698745 1.558983,0.703288 0.0019,0.0046 -0.486893,0.767141 -1.086051,1.694658 -0.599155,0.927518 -1.449624,2.2495 -1.889934,2.937742 -0.440314,0.688238 -1.516614,2.360496 -2.391786,3.71613 -1.489105,2.306613 -1.609179,2.485653 -1.871022,2.789844 -0.488006,0.566932 -0.770889,0.785084 -1.138605,0.878053 -0.865279,0.218766 -2.325261,-0.326759 -3.258007,-1.217354 -0.521314,-0.497769 -1.025592,-1.277038 -1.339471,-2.06992 -0.29573,-0.747051 -0.420841,-1.441622 -0.422175,-2.344012 l -6.08e-4,-0.409165 0.583537,0.24544 c 0.523985,0.220354 0.591959,0.243675 0.665915,0.228319 0.05564,-0.01154 0.09847,-0.04405 0.132002,-0.100223 0.0512,-0.08575 0.04495,-0.139191 -0.100642,-0.861389 -0.05397,-0.267715 -0.145734,-0.730491 -0.225655,-1.138055 -0.02432,-0.124019 -0.0703,-0.349935 -0.102192,-0.502037 -0.03188,-0.152106 -0.08262,-0.403408 -0.112751,-0.558459 -0.03012,-0.155046 -0.07195,-0.369548 -0.09294,-0.476672 -0.02099,-0.107126 -0.05336,-0.276028 -0.07194,-0.37534 -0.05259,-0.281069 -0.09422,-0.362538 -0.212038,-0.414934 -0.167548,-0.07451 -0.153816,-0.08443 -1.027223,0.742153 -0.267381,0.253048 -0.673368,0.636967 -0.902195,0.853152 -0.228827,0.216186 -0.650942,0.615272 -0.938033,0.886863 -0.287091,0.271589 -0.548968,0.538992 -0.581949,0.594228 -0.07229,0.121061 -0.04426,0.220208 0.07754,0.274375 0.04523,0.02011 0.357452,0.0638 0.693831,0.09706 0.33638,0.03327 0.621906,0.06514 0.634513,0.07081 0.0126,0.0057 -0.01727,0.192249 -0.06639,0.414608 -0.271057,1.226902 -0.32096,2.144875 -0.171756,3.159378 0.08958,0.609053 0.355246,1.467094 0.627775,2.027548 0.44515,0.915444 1.127308,1.825275 2.0072,2.67713 0.651383,0.630618 1.269727,1.124145 2.25274,1.798008 0.688305,0.471839 1.071428,0.877205 1.273777,1.347723 l -1.56e-4,2.34e-4 c 0.05954,0.13845 0.126734,0.260463 0.149461,0.270914 0.02267,0.01054 0.141394,-0.0069 0.263844,-0.03947 0.576134,-0.151812 1.195368,-0.122203 2.089097,0.0999 2.166429,0.538392 3.870038,0.70621 5.603677,0.552048 0.461553,-0.04103 0.578656,-0.05899 1.154735,-0.177146 1.542,-0.316236 2.941354,-0.951238 4.149602,-1.883033 0.349601,-0.2696 0.5771,-0.459357 0.948224,-0.790886 0.173875,-0.15532 0.321202,-0.284391 0.327376,-0.287117 0.01297,-0.0054 0.321964,0.277375 0.650294,0.59521 0.243145,0.235382 0.368652,0.300517 0.489062,0.253823 0.139338,-0.05407 0.151877,-0.09449 0.631996,-2.039627 0.08797,-0.356376 0.221518,-0.893398 0.296793,-1.193382 0.229461,-0.914521 0.236497,-0.954082 0.181364,-1.0202 -0.06175,-0.07405 -0.189524,-0.114595 -0.2913,-0.09243 -0.05333,0.01161 -0.183457,0.05843 -0.289171,0.10405 -0.105708,0.04561 -0.377913,0.158961 -0.604912,0.25188 -0.226989,0.09292 -0.520079,0.21436 -0.651307,0.269857 -0.131231,0.0555 -0.336696,0.14178 -0.456588,0.19174 -0.119887,0.04996 -0.268248,0.112907 -0.329684,0.139857 -0.06145,0.02695 -0.246348,0.103353 -0.410918,0.169751 -0.164566,0.06641 -0.356204,0.146145 -0.425864,0.177205 -0.06966,0.03106 -0.248723,0.105632 -0.397921,0.165707 -0.666208,0.268257 -0.800509,0.334507 -0.851622,0.420106 -0.03325,0.0557 -0.03902,0.104799 -0.01768,0.150481 0.02845,0.06088 0.08988,0.09515 0.602773,0.335884 l 0.571117,0.268051 -0.414234,0.252879 c -1.062411,0.648569 -2.037448,1.01736 -3.20481,1.212167 -0.584608,0.09755 -0.946366,0.124961 -1.522224,0.115331 -1.272301,-0.02134 -2.59802,-0.527359 -3.228896,-1.232556 -0.190138,-0.212536 -0.315281,-0.476526 -0.318951,-0.67283 -0.0031,-0.165281 0.05515,-0.473605 0.133273,-0.705502 0.192285,-0.570815 0.254166,-0.691719 1.666376,-3.255846 0.772931,-1.4034 1.500708,-2.724946 1.617282,-2.936767 0.116573,-0.21182 0.333977,-0.603695 0.483109,-0.870833 0.543432,-0.973425 2.326275,-4.206458 2.481985,-4.500853 l 0.159987,-0.302494 1.573687,0.699845 1.573691,0.699848 0.03042,0.133659 c 0.148435,0.652229 0.999762,1.208917 1.794416,1.173375 0.625591,-0.02798 1.105257,-0.289753 1.382874,-0.754693 0.332559,-0.556959 0.219956,-1.193269 -0.290339,-1.640657 -0.173607,-0.152433 -0.749764,-0.409718 -1.010388,-0.451384 -0.251843,-0.04026 -0.680259,-9.5e-4 -0.905822,0.08324 l -0.187294,0.06985 -1.589841,-0.70703 -1.589843,-0.70703 0.265071,-0.481354 c 0.145792,-0.264747 0.371859,-0.674974 0.502376,-0.911615 l 0.237302,-0.430257 0.255991,0.01578 c 0.463657,0.02857 1.037132,-0.07708 1.480568,-0.272781 0.836238,-0.369042 1.406034,-1.104197 1.484297,-1.915057 0.111045,-1.150434 -0.689593,-2.204946 -1.996215,-2.629197 -0.396501,-0.12874 -0.672891,-0.164189 -1.069614,-0.176549"
       style="fill:#4d4a4a;fill-opacity:1;stroke:#000000;stroke-width:0.25589;stroke-miterlimit:4;stroke-dasharray:none;stroke-opacity:1" />
  </g>
</svg>
