<?xml version="1.0" encoding="UTF-8" standalone="no"?>
<svg
   xmlns:dc="http://purl.org/dc/elements/1.1/"
   xmlns:cc="http://creativecommons.org/ns#"
   xmlns:rdf="http://www.w3.org/1999/02/22-rdf-syntax-ns#"
   xmlns:svg="http://www.w3.org/2000/svg"
   xmlns="http://www.w3.org/2000/svg"
   xmlns:sodipodi="http://sodipodi.sourceforge.net/DTD/sodipodi-0.dtd"
   xmlns:inkscape="http://www.inkscape.org/namespaces/inkscape"
   width="210mm"
   height="297mm"
   viewBox="0 0 210 297"
   version="1.1"
   id="svg8"
   inkscape:version="1.0.1 (3bc2e813f5, 2020-09-07)"
   sodipodi:docname="shell.svg">
  <defs
     id="defs2" />
  <sodipodi:namedview
     id="base"
     pagecolor="#ffffff"
     bordercolor="#666666"
     borderopacity="1.0"
     inkscape:pageopacity="0.0"
     inkscape:pageshadow="2"
     inkscape:zoom="2.8"
     inkscape:cx="98.062797"
     inkscape:cy="91.942283"
     inkscape:document-units="mm"
     inkscape:current-layer="layer1"
     inkscape:document-rotation="0"
     showgrid="false"
     inkscape:window-width="1375"
     inkscape:window-height="967"
     inkscape:window-x="130"
     inkscape:window-y="34"
     inkscape:window-maximized="0" />
  <metadata
     id="metadata5">
    <rdf:RDF>
      <cc:Work
         rdf:about="">
        <dc:format>image/svg+xml</dc:format>
        <dc:type
           rdf:resource="http://purl.org/dc/dcmitype/StillImage" />
        <dc:title />
      </cc:Work>
    </rdf:RDF>
  </metadata>
  <g
     inkscape:label="Layer 1"
     inkscape:groupmode="layer"
     id="layer1">
    <path
       style="fill:#a0522d;stroke:#000000;stroke-width:0.274259;stroke-miterlimit:4;stroke-dasharray:none;stroke-opacity:1"
       d="m 39.220303,30.837229 -0.0074,-2.264395 c 0.0128,-0.927363 0.04693,-1.480796 0.09601,-1.538285 0.0512,-0.06094 0.116601,-0.26244 0.473868,-0.355417 0.463733,-0.120714 0.535314,-0.07354 0.906343,-0.08194 0.400899,-0.0094 0.652021,0.05358 1.491402,0.238801 0.566678,0.125336 1.100851,0.39576 1.100851,0.557236 0,0.114096 -3.96922,20.967047 -4.017119,21.104592 -0.016,0.04622 -0.0062,0.08405 0.0224,0.08405 0.0288,0 0.946562,-4.691034 2.040447,-10.424522 1.09383,-5.733479 2.027409,-10.462785 2.074615,-10.509557 0.04694,-0.04728 0.08535,-0.117668 0.08535,-0.157486 0,-0.107581 0.09815,-0.09036 0.549289,0.09666 0.224346,0.09351 0.506191,0.169041 0.626418,0.169041 0.280565,0 1.011848,0.39681 1.516034,0.822618 0.215385,0.181963 0.478027,0.368024 0.58364,0.41362 0.357801,0.154333 0.569558,0.332619 0.568918,0.478862 -2.56e-4,0.07985 -1.694966,4.40421 -3.765891,9.610687 -2.070935,5.206488 -3.752854,9.480665 -3.737599,9.498189 0.01493,0.01786 0.0512,-0.0061 0.08108,-0.05253 0.0288,-0.04622 1.734448,-4.316684 3.789658,-9.489574 2.0552,-5.172879 3.776932,-9.420571 3.826058,-9.439303 0.04907,-0.01891 0.157244,0.02837 0.240347,0.10506 0.08321,0.0767 0.308942,0.216528 0.501924,0.311713 0.37359,0.184064 1.317441,1.139877 1.732336,1.754182 0.329105,0.487267 0.574252,0.991869 0.53318,1.097192 -0.0288,0.07354 -9.550613,14.949339 -10.03758,15.681269 -0.08748,0.131326 -0.09815,0.181229 -0.03413,0.160217 0.0512,-0.01681 2.346293,-3.543424 5.100933,-7.837163 2.75465,-4.293729 5.044394,-7.796736 5.088323,-7.784455 0.120974,0.03361 0.175488,0.150341 0.2268,0.484326 0.0256,0.16715 0.104545,0.381576 0.17634,0.476656 0.180394,0.240377 0.467573,1.309086 0.467573,1.740252 0,0.350164 -0.0128,0.373487 -0.604656,1.082336 -0.605828,0.725858 -5.490375,6.675632 -6.784197,8.263694 -0.817373,1.003322 -2.856869,3.577716 -2.939684,3.710785 -0.03627,0.05778 -0.03093,0.08405 0.01493,0.06724 0.03947,-0.01366 0.687331,-0.804338 1.438542,-1.756011 0.751232,-0.951737 1.8137,-2.275279 2.361112,-2.941326 0.547369,-0.666079 2.132413,-2.595439 3.522235,-4.287541 1.389834,-1.692113 2.625057,-3.194919 2.744954,-3.339587 0.205783,-0.248256 0.224559,-0.256555 0.335505,-0.147293 0.157457,0.155068 0.147856,0.428118 -0.02453,0.707367 -0.127055,0.205181 -0.140497,0.323164 -0.126949,1.115672 0.01173,0.682467 -0.0128,0.979471 -0.105612,1.291909 -0.334864,1.121397 -1.121216,2.341266 -2.341387,3.632356 -0.697465,0.738045 -1.056546,0.998908 -2.445825,1.776971 -0.249842,0.139939 -0.472373,0.348482 -0.717308,0.672486 -0.195329,0.258343 -0.398659,0.501661 -0.451785,0.540953 -0.05333,0.03888 -0.178687,0.223462 -0.278752,0.409418 -0.163432,0.303623 -0.192662,0.471088 -0.285899,1.642357 -0.07681,0.970542 -0.08535,1.389815 -0.03093,1.638564 0.06615,0.305094 0.0544,0.381368 -0.138576,0.874202 -0.11628,0.2969 -0.211438,0.585814 -0.211438,0.641916 0,0.138048 -0.256669,0.291436 -0.549288,0.328206 -0.132175,0.01681 -0.827295,0.0057 -1.544827,-0.02416 h 1.1e-5 c -0.727763,-0.03046 -1.547366,-0.104009 -1.853791,-0.167571 -0.302114,-0.06198 -0.634205,-0.128593 -0.73811,-0.147503 -0.103478,-0.01891 -0.188822,-0.06409 -0.188822,-0.100858 0,-0.04203 -0.17506,-0.05043 -0.463413,-0.02416 -0.254855,0.02312 -1.081382,0.05569 -1.836625,0.07249 -0.755286,0.01681 -1.48131,0.06198 -1.613474,0.101908 -0.282699,0.08405 -2.196123,0.218524 -3.22696,0.226403 -0.668983,0.005 -0.746752,-0.0085 -1.079974,-0.187847 -0.197462,-0.10632 -0.373589,-0.242057 -0.391404,-0.301626 -0.08748,-0.292697 0.07895,-2.197377 0.218585,-2.508722 0.0416,-0.09245 0.09281,-0.247311 0.113399,-0.34302 0.02027,-0.0956 0.117133,-0.289755 0.214638,-0.431375 0.09708,-0.141516 0.1214,-0.300261 0.139323,-0.354997 0.06294,-0.1931 0.125027,-0.271895 0.272244,-0.520151 0.06935,-0.117562 0.17346,-0.254559 0.201836,-0.459217 0.0384,-0.275046 0.0256,-0.326735 -0.09708,-0.391031 -0.07788,-0.04097 -0.199597,-0.187217 -0.271605,-0.325476 -0.136869,-0.262649 -0.508218,-0.627941 -0.873593,-0.859284 -0.117987,-0.0746 -0.41146,-0.279668 -0.652234,-0.455539 -0.240774,-0.175765 -0.505871,-0.366343 -0.589081,-0.423495 -0.08321,-0.05673 -0.266163,-0.274101 -0.40634,-0.482119 -0.140282,-0.208018 -0.35428,-0.473925 -0.47568,-0.590751 -0.993606,-0.956464 -1.063268,-1.043453 -1.40176,-1.749991 -0.320463,-0.669126 -0.331131,-0.710099 -0.256029,-0.987141 0.07148,-0.26391 0.06294,-0.31665 -0.102412,-0.606405 -0.09921,-0.17461 -0.217091,-0.453228 -0.26211,-0.619222 -0.144016,-0.531393 -0.193195,-2.350691 -0.07148,-2.664683 0.07788,-0.168832 0.03093,-0.423391 0.169086,-0.538011 0.06721,-0.02521 1.510157,1.924159 4.754611,6.426431 2.561626,3.554717 4.678998,6.495749 4.705262,6.535609 0.02667,0.03992 0.06508,0.05463 0.08748,0.03361 0.02133,-0.02101 -2.092932,-2.999372 -4.699395,-6.617566 -2.606451,-3.618195 -4.739014,-6.635448 -4.739014,-6.705008 0,-0.199928 0.873273,-2.25683 1.078512,-2.540429 0.0672,-0.09351 0.173353,-0.244368 0.234907,-0.33535 0.146576,-0.216738 0.359081,-0.36004 0.448905,-0.302782 0.03947,0.02521 1.94772,3.681734 4.240728,8.125846 2.293008,4.444101 4.197097,8.108585 4.231299,8.143297 0.03413,0.03467 0.07468,0.05043 0.08961,0.03361 0.01493,-0.01576 -1.883137,-3.726239 -4.218593,-8.244722 -2.335455,-4.518482 -4.247524,-8.233805 -4.249049,-8.256267 -0.0015,-0.02206 0.07468,-0.12292 0.168872,-0.223252 0.09388,-0.09981 0.171647,-0.205706 0.171647,-0.234283 0,-0.04937 0.07895,-0.161476 0.854177,-1.207473 0.359508,-0.485165 1.15658,-1.23545 1.31247,-1.23545 0.05974,0 0.213678,0.372122 0.427569,1.031162 2.057631,6.339242 6.02314,18.307207 6.065971,18.307207 0.02987,0 0.04053,-0.03782 0.0224,-0.08405 -0.338812,-0.886389 -6.324838,-19.306861 -6.292119,-19.362312 0.118626,-0.200979 1.000008,-0.770403 1.193086,-0.770718 0.04907,-6.3e-5 0.387244,-0.14971 0.751552,-0.332409 0.769581,-0.386095 1.403861,-0.601572 1.496874,-0.508384 0.0352,0.03467 0.761367,4.703535 1.614638,10.374881 1.609804,10.699936 1.611425,10.71039 1.656348,10.666149 0.01493,-0.0147 -0.684025,-4.740874 -1.553457,-10.50233 -0.869433,-5.761445 -1.572168,-10.533857 -1.561564,-10.605361 0.01493,-0.101908 0.189675,-0.183434 0.808838,-0.377689 1.07272,-0.336506 1.809273,-0.470773 2.198,-0.400593 0.689892,0.124601 0.91125,0.187532 0.967577,0.275256 0.03307,0.05043 0.06721,0.761473 0.07574,1.579658 l -0.02027,1.729063 -0.32761,16.880611 c 0.0013,0.660405 -0.0448,1.332515 0.0224,1.319182 0.01173,-0.37916 0.07681,-1.615829 0.06401,-2.01763 z"
       id="path861"
       sodipodi:nodetypes="ccsssssssssssssscscsssssssscsscssssscssssssscssssssssssssssssssssssssssssssssssssssccssssssscssssssssssssssssssssssscccccc" />
  </g>
</svg>
