<?xml version="1.0" encoding="UTF-8" standalone="no"?>
<svg
   xmlns:dc="http://purl.org/dc/elements/1.1/"
   xmlns:cc="http://creativecommons.org/ns#"
   xmlns:rdf="http://www.w3.org/1999/02/22-rdf-syntax-ns#"
   xmlns:svg="http://www.w3.org/2000/svg"
   xmlns="http://www.w3.org/2000/svg"
   xmlns:sodipodi="http://sodipodi.sourceforge.net/DTD/sodipodi-0.dtd"
   xmlns:inkscape="http://www.inkscape.org/namespaces/inkscape"
   width="210mm"
   height="297mm"
   viewBox="0 0 210 297"
   version="1.1"
   id="svg8"
   inkscape:version="1.0 (4035a4fb49, 2020-05-01)"
   sodipodi:docname="shell.svg">
  <defs
     id="defs2" />
  <sodipodi:namedview
     id="base"
     pagecolor="#ffffff"
     bordercolor="#666666"
     borderopacity="1.0"
     inkscape:pageopacity="0.0"
     inkscape:pageshadow="2"
     inkscape:zoom="0.98994949"
     inkscape:cx="365.43002"
     inkscape:cy="349.88047"
     inkscape:document-units="mm"
     inkscape:current-layer="layer1"
     inkscape:document-rotation="0"
     showgrid="false"
     inkscape:window-width="1375"
     inkscape:window-height="967"
     inkscape:window-x="130"
     inkscape:window-y="34"
     inkscape:window-maximized="0" />
  <metadata
     id="metadata5">
    <rdf:RDF>
      <cc:Work
         rdf:about="">
        <dc:format>image/svg+xml</dc:format>
        <dc:type
           rdf:resource="http://purl.org/dc/dcmitype/StillImage" />
        <dc:title />
      </cc:Work>
    </rdf:RDF>
  </metadata>
  <g
     inkscape:label="Layer 1"
     inkscape:groupmode="layer"
     id="layer1">
    <path
       style="fill:#a0522d;stroke-width:0.264583"
       d="m 103.92461,80.980131 -0.0286,-8.860565 c 0.0494,-3.62859 0.182,-5.79434 0.36867,-6.01927 0.19761,-0.23809 0.44924,-1.02681 1.82599,-1.39077 1.78717,-0.47247 2.06305,-0.28786 3.49257,-0.32159 1.54509,-0.0365 2.51277,0.20786 5.74724,0.93421 2.18392,0.49043 4.24225,1.54849 4.24225,2.18068 0,0.44649 -15.2958,82.043854 -15.48038,82.582074 -0.0624,0.1819 -0.0239,0.33073 0.0856,0.33073 0.10947,0 3.64784,-18.35597 7.86305,-40.79104 4.21521,-22.435084 7.81285,-40.940794 7.99475,-41.123814 0.1819,-0.18302 0.33073,-0.46033 0.33073,-0.61625 0,-0.42084 0.37999,-0.35298 2.11666,0.37798 0.86436,0.3638 1.95066,0.66145 2.414,0.66145 1.08126,0 3.89931,1.55269 5.84222,3.21894 0.83014,0.71193 1.84217,1.44021 2.24896,1.61838 1.37876,0.60391 2.19485,1.30135 2.19262,1.87384 -0.001,0.31069 -6.53173,17.23364 -14.51227,37.606554 -7.98054,20.37292 -14.46199,37.09775 -14.40321,37.1663 0.0588,0.0685 0.19865,-0.0239 0.31082,-0.20536 0.11216,-0.18149 6.68389,-16.89117 14.60384,-37.13262 7.91994,-20.241444 14.55479,-36.862614 14.74409,-36.935924 0.18931,-0.0733 0.60602,0.11098 0.92604,0.40954 0.32002,0.29857 1.1904,0.84738 1.93417,1.21957 1.43963,0.72041 5.07689,4.46031 6.67571,6.86408 1.26808,1.90652 2.21309,3.88097 2.05486,4.29332 -0.11069,0.28844 -36.80426,58.496634 -38.68085,61.360674 -0.33665,0.51378 -0.37781,0.70894 -0.13229,0.6271 0.19605,-0.0653 9.0417,-13.86537 19.657,-30.66671 10.6153,-16.80134 19.43906,-30.508574 19.60835,-30.460524 0.46613,0.13229 0.6764,0.58827 0.87397,1.89528 0.0988,0.65389 0.40463,1.49311 0.67954,1.86494 0.69535,0.94052 1.80202,5.12245 1.80202,6.809594 0,1.3703 -0.0502,1.46156 -2.33001,4.23519 -2.33466,2.84036 -21.15769,26.12168 -26.14358,32.33576 -3.14998,3.92591 -11.00923,13.99957 -11.32839,14.52026 -0.1396,0.22774 -0.11836,0.32726 0.0565,0.26458 0.15413,-0.0553 2.64874,-3.14731 5.54358,-6.87124 2.89484,-3.72393 6.98928,-8.90315 9.09876,-11.50938 2.10948,-2.60623 8.21748,-10.15594 13.57333,-16.77714 5.35586,-6.62119 10.11593,-12.50169 10.57796,-13.06775 0.79281,-0.97136 0.86549,-1.00376 1.29283,-0.57642 0.60693,0.60693 0.56966,1.6753 -0.0966,2.76813 -0.48953,0.80298 -0.54128,1.2646 -0.48936,4.36563 0.0447,2.6705 -0.0493,3.83266 -0.40884,5.05521 -1.29054,4.38802 -4.32071,9.16138 -9.02277,14.21338 -2.6879,2.88793 -4.0716,3.90874 -9.42523,6.95328 -0.96278,0.54752 -1.8202,1.3638 -2.76403,2.6314 -0.75255,1.0107 -1.53607,1.9632 -1.74116,2.11666 -0.20509,0.15346 -0.68856,0.87434 -1.07437,1.60194 -0.62995,1.18799 -0.74233,1.84344 -1.1019,6.42656 -0.29796,3.79787 -0.32863,5.4383 -0.11988,6.41166 0.25602,1.19378 0.20936,1.49252 -0.53419,3.42063 -0.4481,1.16194 -0.81472,2.29231 -0.81472,2.51193 0,0.54032 -0.98907,1.14041 -2.11666,1.28423 -0.50933,0.065 -3.18823,0.0222 -5.95313,-0.0949 l 2e-5,-2e-5 c -2.80445,-0.11884 -5.96293,-0.40872 -7.14375,-0.65563 -1.16417,-0.24343 -2.44409,-0.50308 -2.84427,-0.577 -0.40018,-0.0739 -0.7276,-0.25203 -0.7276,-0.3958 0,-0.16266 -0.67462,-0.19896 -1.78594,-0.0961 -0.98227,0.0909 -4.167186,0.21809 -7.077603,0.28256 -2.910417,0.0645 -5.708386,0.24344 -6.217709,0.39771 -1.089527,0.33 -8.462981,0.85517 -12.435417,0.88571 -2.577946,0.0198 -2.877823,-0.0331 -4.161769,-0.73493 -0.761002,-0.41596 -1.439799,-0.94705 -1.508437,-1.18021 -0.337198,-1.14544 0.3024,-8.59833 0.842452,-9.81663 0.161269,-0.3638 0.357968,-0.96782 0.437113,-1.34226 0.07914,-0.37444 0.451411,-1.13395 0.827262,-1.68779 0.375851,-0.55385 0.467686,-1.1748 0.536821,-1.38889 0.244028,-0.75567 0.481774,-1.06403 1.04898,-2.03556 0.268622,-0.4601 0.668457,-0.99619 0.777629,-1.79708 0.146709,-1.07625 0.09743,-1.27845 -0.372972,-1.5302 -0.298109,-0.15954 -0.769152,-0.73258 -1.046761,-1.27342 -0.527611,-1.02789 -1.95861,-2.45711 -3.36641,-3.36223 -0.454697,-0.29234 -1.585791,-1.09438 -2.513542,-1.78231 -0.927753,-0.68793 -1.949357,-1.43359 -2.270233,-1.65702 -0.320874,-0.22343 -1.02557,-1.07238 -1.565995,-1.88656 -0.540422,-0.81418 -1.36538,-1.85446 -1.83324,-2.31173 -3.829127,-3.74246 -4.097597,-4.0828 -5.401797,-6.8477 -1.235012,-2.61822 -1.275985,-2.77862 -0.986658,-3.86258 0.275598,-1.03254 0.241414,-1.23897 -0.392935,-2.3729 -0.382135,-0.68308 -0.836652,-1.77337 -1.010037,-2.42286 -0.55514,-2.07951 -0.744503,-9.19821 -0.277362,-10.42688 0.300487,-0.66076 0.117432,-1.65676 0.651711,-2.10527 0.260696,-0.10004 5.81955,7.52921 18.322397,25.14656 9.871488,13.90959 18.030981,25.4178 18.132211,25.57378 0.101227,0.15599 0.25277,0.2149 0.336762,0.13091 0.08399,-0.084 -8.065316,-11.73651 -18.109571,-25.89449 C 64.819961,111.38575 56.601934,99.579266 56.601934,99.307096 c 0,-0.78236 3.365079,-8.83095 4.156149,-9.94067 0.260734,-0.36576 0.668081,-0.95627 0.905219,-1.31224 0.564975,-0.84811 1.383678,-1.4089 1.729814,-1.18489 0.151805,0.0982 7.50574,14.406594 16.342078,31.796334 8.836335,17.38974 16.173921,31.72883 16.305745,31.86465 0.131823,0.13582 0.287692,0.19535 0.346376,0.13229 0.05869,-0.0631 -7.256865,-14.58074 -16.256781,-32.26152 -8.999916,-17.68078 -16.36829,-32.218794 -16.374166,-32.306684 -0.0059,-0.0879 0.286972,-0.48098 0.650774,-0.87353 0.363802,-0.39255 0.661459,-0.80515 0.661459,-0.91689 0,-0.19419 0.304874,-0.63178 3.291848,-4.72482 1.38543,-1.89845 4.456986,-4.83433 5.057733,-4.83433 0.228716,0 0.823288,1.45603 1.64765,4.03489 7.929314,24.805394 23.210802,71.635944 23.375846,71.635944 0.116819,0 0.156379,-0.14883 0.08791,-0.33073 -1.305576,-3.46855 -24.373407,-75.547554 -24.247333,-75.764534 0.457007,-0.78656 3.853852,-3.01458 4.597683,-3.01565 0.189127,-2.7e-4 1.492356,-0.58561 2.896061,-1.30073 2.965471,-1.51078 5.409914,-2.3538 5.768369,-1.98934 0.134078,0.13632 2.934044,18.40489 6.222146,40.596814 6.20355,41.86876 6.20981,41.90965 6.382926,41.73652 0.058,-0.058 -2.635873,-18.55099 -5.986435,-41.09548 -3.350562,-22.544504 -6.058503,-41.218904 -6.017649,-41.498674 0.05825,-0.39888 0.731094,-0.7179 3.116993,-1.4779 4.133866,-1.31679 6.972242,-1.842 8.470235,-1.56732 2.658496,0.48748 3.511406,0.7338 3.728756,1.07686 0.12558,0.19821 0.25741,2.97974 0.29297,6.1812 l -0.0771,6.76578 -1.2624,66.053704 c 0.005,2.58407 -0.17225,5.2141 0.0864,5.16194 0.0471,-1.48368 0.29535,-6.32272 0.24831,-7.89498 z"
       id="path861"
       sodipodi:nodetypes="ccsssssssssssssscscsssssssscsscssssscssssssscssssssssssssssssssssssssssssssssssssssccssssssscssssssssssssssssssssssscccccc" />
  </g>
</svg>
