<?xml version="1.0" standalone="no"?>
<!DOCTYPE svg PUBLIC "-//W3C//DTD SVG 20010904//EN" "http://www.w3.org/TR/2001/REC-SVG-20010904/DTD/svg10.dtd">
<!-- Created using Krita: https://krita.org -->
<svg xmlns="http://www.w3.org/2000/svg" 
    xmlns:xlink="http://www.w3.org/1999/xlink"
    xmlns:krita="http://krita.org/namespaces/svg/krita"
    xmlns:sodipodi="http://sodipodi.sourceforge.net/DTD/sodipodi-0.dtd"
    width="595.2pt"
    height="841.92pt"
    viewBox="0 0 595.2 841.92">
<defs/>
<rect id="shape0" transform="matrix(0.4270808134223 0 0 0.4270808134223 349.095097921917 151.390247845884)" fill="none" stroke="#000000" stroke-width="1.2" stroke-linecap="square" stroke-linejoin="bevel" width="120.48" height="120.24"/><rect id="shape01" transform="matrix(0.42708081894571 0 0 0.42708081894571 400.547517170065 151.394808950899)" fill="none" stroke="#000000" stroke-width="1.2" stroke-linecap="square" stroke-linejoin="bevel" width="120.48" height="120.24"/><rect id="shape011" transform="matrix(0.427080830459379 0 0 0.427080830459379 451.98285974269 151.382286179709)" fill="none" stroke="#000000" stroke-width="1.2" stroke-linecap="square" stroke-linejoin="bevel" width="120.48" height="120.24"/><rect id="shape02" transform="matrix(0.427080821368108 0 0 0.427080821368108 503.422847128754 151.369762434618)" fill="none" stroke="#000000" stroke-width="1.2" stroke-linecap="square" stroke-linejoin="bevel" width="120.48" height="120.24"/><rect id="shape03" transform="matrix(0.427080808891958 0 0 0.427080808891958 297.645301739498 151.361028005496)" fill="none" stroke="#000000" stroke-width="1.2" stroke-linecap="square" stroke-linejoin="bevel" width="120.48" height="120.24"/><rect id="shape04" transform="matrix(0.427080824358783 0 0 0.427080824358783 349.101435898309 202.760091946522)" fill="none" stroke="#000000" stroke-width="1.2" stroke-linecap="square" stroke-linejoin="bevel" width="120.48" height="120.24"/><rect id="shape05" transform="matrix(0.427080829882192 0 0 0.427080829882192 400.553856464026 202.764653051655)" fill="none" stroke="#000000" stroke-width="1.2" stroke-linecap="square" stroke-linejoin="bevel" width="120.48" height="120.24"/><rect id="shape011" transform="matrix(0.427080841395862 0 0 0.427080841395862 451.989200353782 202.752130280143)" fill="none" stroke="#000000" stroke-width="1.2" stroke-linecap="square" stroke-linejoin="bevel" width="120.48" height="120.24"/><rect id="shape021" transform="matrix(0.42708083230459 0 0 0.42708083230459 503.411158449512 202.703476124239)" fill="none" stroke="#000000" stroke-width="1.2" stroke-linecap="square" stroke-linejoin="bevel" width="120.48" height="120.24"/><rect id="shape031" transform="matrix(0.42708081982844 0 0 0.42708081982844 297.633607790802 202.694741694893)" fill="none" stroke="#000000" stroke-width="1.2" stroke-linecap="square" stroke-linejoin="bevel" width="120.48" height="120.24"/><rect id="shape041" transform="matrix(0.427080834595358 0 0 0.427080834595358 349.099911613765 254.033490415803)" fill="none" stroke="#000000" stroke-width="1.2" stroke-linecap="square" stroke-linejoin="bevel" width="120.48" height="120.24"/><rect id="shape051" transform="matrix(0.427080840118768 0 0 0.427080840118768 400.55233341273 254.038051521044)" fill="none" stroke="#000000" stroke-width="1.2" stroke-linecap="square" stroke-linejoin="bevel" width="120.48" height="120.24"/><rect id="shape012" transform="matrix(0.427080851632437 0 0 0.427080851632437 451.987678535324 254.025528749233)" fill="none" stroke="#000000" stroke-width="1.2" stroke-linecap="square" stroke-linejoin="bevel" width="120.48" height="120.24"/><rect id="shape022" transform="matrix(0.427080842541166 0 0 0.427080842541166 503.409637863572 253.976874592163)" fill="none" stroke="#000000" stroke-width="1.2" stroke-linecap="square" stroke-linejoin="bevel" width="120.48" height="120.24"/><rect id="shape032" transform="matrix(0.427080830065015 0 0 0.427080830065015 297.63208227264 253.968140162607)" fill="none" stroke="#000000" stroke-width="1.2" stroke-linecap="square" stroke-linejoin="bevel" width="120.48" height="120.24"/><rect id="shape042" transform="matrix(0.427080844812375 0 0 0.427080844812375 349.092410751239 305.356980547007)" fill="none" stroke="#000000" stroke-width="1.2" stroke-linecap="square" stroke-linejoin="bevel" width="120.48" height="120.24"/><rect id="shape052" transform="matrix(0.427080850335784 0 0 0.427080850335784 400.544833781096 305.361541652358)" fill="none" stroke="#000000" stroke-width="1.2" stroke-linecap="square" stroke-linejoin="bevel" width="120.48" height="120.24"/><rect id="shape013" transform="matrix(0.427080861849454 0 0 0.427080861849454 451.980180134174 305.349018880248)" fill="none" stroke="#000000" stroke-width="1.2" stroke-linecap="square" stroke-linejoin="bevel" width="120.48" height="120.24"/><rect id="shape023" transform="matrix(0.427080852758182 0 0 0.427080852758182 503.402140692583 305.300364722014)" fill="none" stroke="#000000" stroke-width="1.2" stroke-linecap="square" stroke-linejoin="bevel" width="120.48" height="120.24"/><rect id="shape033" transform="matrix(0.427080840282032 0 0 0.427080840282032 297.624580178854 305.291630292249)" fill="none" stroke="#000000" stroke-width="1.2" stroke-linecap="square" stroke-linejoin="bevel" width="120.48" height="120.24"/><rect id="shape043" transform="matrix(0.427080844812375 0 0 0.427080844812375 349.092976016632 356.703760841349)" fill="none" stroke="#000000" stroke-width="1.2" stroke-linecap="square" stroke-linejoin="bevel" width="120.48" height="120.24"/><rect id="shape053" transform="matrix(0.427080850335784 0 0 0.427080850335784 400.545399046489 356.708321946701)" fill="none" stroke="#000000" stroke-width="1.2" stroke-linecap="square" stroke-linejoin="bevel" width="120.48" height="120.24"/><rect id="shape014" transform="matrix(0.427080861849454 0 0 0.427080861849454 451.980745399567 356.69579917459)" fill="none" stroke="#000000" stroke-width="1.2" stroke-linecap="square" stroke-linejoin="bevel" width="120.48" height="120.24"/><rect id="shape024" transform="matrix(0.427080852758182 0 0 0.427080852758182 503.402705957978 356.647145016356)" fill="none" stroke="#000000" stroke-width="1.2" stroke-linecap="square" stroke-linejoin="bevel" width="120.48" height="120.24"/><rect id="shape034" transform="matrix(0.427080840282032 0 0 0.427080840282032 297.625145444248 356.638410586591)" fill="none" stroke="#000000" stroke-width="1.2" stroke-linecap="square" stroke-linejoin="bevel" width="120.48" height="120.24"/><rect id="shape021" transform="matrix(0.427080790134033 0 0 0.427080790134033 91.811739185547 151.382341190339)" fill="none" stroke="#000000" stroke-width="1.2" stroke-linecap="square" stroke-linejoin="bevel" width="120.48" height="120.24"/><rect id="shape015" transform="matrix(0.427080795657443 0 0 0.427080795657443 143.264155628048 151.386902295105)" fill="none" stroke="#000000" stroke-width="1.2" stroke-linecap="square" stroke-linejoin="bevel" width="120.48" height="120.24"/><rect id="shape016" transform="matrix(0.427080807171111 0 0 0.427080807171111 194.699495395958 151.374379524598)" fill="none" stroke="#000000" stroke-width="1.2" stroke-linecap="square" stroke-linejoin="bevel" width="120.48" height="120.24"/><rect id="shape025" transform="matrix(0.427080798079841 0 0 0.427080798079841 246.139479977054 151.36185578019)" fill="none" stroke="#000000" stroke-width="1.2" stroke-linecap="square" stroke-linejoin="bevel" width="120.48" height="120.24"/><rect id="shape035" transform="matrix(0.427080785603691 0 0 0.427080785603691 40.3619458086311 151.353121351544)" fill="none" stroke="#000000" stroke-width="1.2" stroke-linecap="square" stroke-linejoin="bevel" width="120.48" height="120.24"/><rect id="shape044" transform="matrix(0.427080801070514 0 0 0.427080801070514 91.8180771615929 202.752182489833)" fill="none" stroke="#000000" stroke-width="1.2" stroke-linecap="square" stroke-linejoin="bevel" width="120.48" height="120.24"/><rect id="shape054" transform="matrix(0.427080806593924 0 0 0.427080806593924 143.270494921663 202.756743594717)" fill="none" stroke="#000000" stroke-width="1.2" stroke-linecap="square" stroke-linejoin="bevel" width="120.48" height="120.24"/><rect id="shape0111" transform="matrix(0.427080818107594 0 0 0.427080818107594 194.705836006705 202.744220823889)" fill="none" stroke="#000000" stroke-width="1.2" stroke-linecap="square" stroke-linejoin="bevel" width="120.48" height="120.24"/><rect id="shape0211" transform="matrix(0.427080809016322 0 0 0.427080809016322 246.127791298448 202.695566670637)" fill="none" stroke="#000000" stroke-width="1.2" stroke-linecap="square" stroke-linejoin="bevel" width="120.48" height="120.24"/><rect id="shape0311" transform="matrix(0.427080796540173 0 0 0.427080796540173 40.3502518605726 202.686832241768)" fill="none" stroke="#000000" stroke-width="1.2" stroke-linecap="square" stroke-linejoin="bevel" width="120.48" height="120.24"/><rect id="shape0411" transform="matrix(0.427080811307089 0 0 0.427080811307089 91.8165528771323 254.02557816323)" fill="none" stroke="#000000" stroke-width="1.2" stroke-linecap="square" stroke-linejoin="bevel" width="120.48" height="120.24"/><rect id="shape0511" transform="matrix(0.427080816830499 0 0 0.427080816830499 143.268971870451 254.030139268222)" fill="none" stroke="#000000" stroke-width="1.2" stroke-linecap="square" stroke-linejoin="bevel" width="120.48" height="120.24"/><rect id="shape0121" transform="matrix(0.427080828344168 0 0 0.427080828344168 194.704314188331 254.017616497094)" fill="none" stroke="#000000" stroke-width="1.2" stroke-linecap="square" stroke-linejoin="bevel" width="120.48" height="120.24"/><rect id="shape0221" transform="matrix(0.427080819252896 0 0 0.427080819252896 246.126270712592 253.968962342677)" fill="none" stroke="#000000" stroke-width="1.2" stroke-linecap="square" stroke-linejoin="bevel" width="120.48" height="120.24"/><rect id="shape0321" transform="matrix(0.427080806776746 0 0 0.427080806776746 40.3487263424942 253.960227913597)" fill="none" stroke="#000000" stroke-width="1.2" stroke-linecap="square" stroke-linejoin="bevel" width="120.48" height="120.24"/><rect id="shape0421" transform="matrix(0.427080821524106 0 0 0.427080821524106 91.8090520150154 305.349065495818)" fill="none" stroke="#000000" stroke-width="1.2" stroke-linecap="square" stroke-linejoin="bevel" width="120.48" height="120.24"/><rect id="shape0521" transform="matrix(0.427080827047515 0 0 0.427080827047515 143.261472239225 305.35362660092)" fill="none" stroke="#000000" stroke-width="1.2" stroke-linecap="square" stroke-linejoin="bevel" width="120.48" height="120.24"/><rect id="shape0131" transform="matrix(0.427080838561185 0 0 0.427080838561185 194.696815787589 305.341103829492)" fill="none" stroke="#000000" stroke-width="1.2" stroke-linecap="square" stroke-linejoin="bevel" width="120.48" height="120.24"/><rect id="shape0231" transform="matrix(0.427080829469914 0 0 0.427080829469914 246.118773542013 305.292449673912)" fill="none" stroke="#000000" stroke-width="1.2" stroke-linecap="square" stroke-linejoin="bevel" width="120.48" height="120.24"/><rect id="shape0331" transform="matrix(0.427080816993763 0 0 0.427080816993763 40.3412242491167 305.283715244623)" fill="none" stroke="#000000" stroke-width="1.2" stroke-linecap="square" stroke-linejoin="bevel" width="120.48" height="120.24"/><rect id="shape0431" transform="matrix(0.427080821524106 0 0 0.427080821524106 91.8096172803786 356.695842990275)" fill="none" stroke="#000000" stroke-width="1.2" stroke-linecap="square" stroke-linejoin="bevel" width="120.48" height="120.24"/><rect id="shape0531" transform="matrix(0.427080827047515 0 0 0.427080827047515 143.262037504589 356.700404095377)" fill="none" stroke="#000000" stroke-width="1.2" stroke-linecap="square" stroke-linejoin="bevel" width="120.48" height="120.24"/><rect id="shape0141" transform="matrix(0.427080838561185 0 0 0.427080838561185 194.697381052951 356.68788132395)" fill="none" stroke="#000000" stroke-width="1.2" stroke-linecap="square" stroke-linejoin="bevel" width="120.48" height="120.24"/><rect id="shape0241" transform="matrix(0.427080829469914 0 0 0.427080829469914 246.119338807376 356.639227168369)" fill="none" stroke="#000000" stroke-width="1.2" stroke-linecap="square" stroke-linejoin="bevel" width="120.48" height="120.24"/><rect id="shape0341" transform="matrix(0.427080816993763 0 0 0.427080816993763 40.3417895144799 356.63049273908)" fill="none" stroke="#000000" stroke-width="1.2" stroke-linecap="square" stroke-linejoin="bevel" width="120.48" height="120.24"/><rect id="shape031" transform="matrix(0.427080790134033 0 0 0.427080790134033 349.059882295808 407.959235031323)" fill="none" stroke="#000000" stroke-width="1.2" stroke-linecap="square" stroke-linejoin="bevel" width="120.48" height="120.24"/><rect id="shape017" transform="matrix(0.427080795657443 0 0 0.427080795657443 400.512298738309 407.963796136091)" fill="none" stroke="#000000" stroke-width="1.2" stroke-linecap="square" stroke-linejoin="bevel" width="120.48" height="120.24"/><rect id="shape018" transform="matrix(0.427080807171111 0 0 0.427080807171111 451.947638506218 407.951273365582)" fill="none" stroke="#000000" stroke-width="1.2" stroke-linecap="square" stroke-linejoin="bevel" width="120.48" height="120.24"/><rect id="shape026" transform="matrix(0.427080798079841 0 0 0.427080798079841 503.387623087314 407.938749621175)" fill="none" stroke="#000000" stroke-width="1.2" stroke-linecap="square" stroke-linejoin="bevel" width="120.48" height="120.24"/><rect id="shape036" transform="matrix(0.427080785603691 0 0 0.427080785603691 297.610088918891 407.930015192528)" fill="none" stroke="#000000" stroke-width="1.2" stroke-linecap="square" stroke-linejoin="bevel" width="120.48" height="120.24"/><rect id="shape045" transform="matrix(0.427080801070514 0 0 0.427080801070514 349.066220271853 459.329076330818)" fill="none" stroke="#000000" stroke-width="1.2" stroke-linecap="square" stroke-linejoin="bevel" width="120.48" height="120.24"/><rect id="shape055" transform="matrix(0.427080806593924 0 0 0.427080806593924 400.518638031924 459.333637435701)" fill="none" stroke="#000000" stroke-width="1.2" stroke-linecap="square" stroke-linejoin="bevel" width="120.48" height="120.24"/><rect id="shape0111" transform="matrix(0.427080818107594 0 0 0.427080818107594 451.953979116965 459.321114664874)" fill="none" stroke="#000000" stroke-width="1.2" stroke-linecap="square" stroke-linejoin="bevel" width="120.48" height="120.24"/><rect id="shape0211" transform="matrix(0.427080809016322 0 0 0.427080809016322 503.375934408709 459.272460511623)" fill="none" stroke="#000000" stroke-width="1.2" stroke-linecap="square" stroke-linejoin="bevel" width="120.48" height="120.24"/><rect id="shape0311" transform="matrix(0.427080796540173 0 0 0.427080796540173 297.598394970833 459.263726082753)" fill="none" stroke="#000000" stroke-width="1.2" stroke-linecap="square" stroke-linejoin="bevel" width="120.48" height="120.24"/><rect id="shape0411" transform="matrix(0.427080811307089 0 0 0.427080811307089 349.064695987392 510.602472004214)" fill="none" stroke="#000000" stroke-width="1.2" stroke-linecap="square" stroke-linejoin="bevel" width="120.48" height="120.24"/><rect id="shape0511" transform="matrix(0.427080816830499 0 0 0.427080816830499 400.51711498071 510.607033109207)" fill="none" stroke="#000000" stroke-width="1.2" stroke-linecap="square" stroke-linejoin="bevel" width="120.48" height="120.24"/><rect id="shape0121" transform="matrix(0.427080828344168 0 0 0.427080828344168 451.952457298591 510.594510338078)" fill="none" stroke="#000000" stroke-width="1.2" stroke-linecap="square" stroke-linejoin="bevel" width="120.48" height="120.24"/><rect id="shape0221" transform="matrix(0.427080819252896 0 0 0.427080819252896 503.374413822853 510.545856183661)" fill="none" stroke="#000000" stroke-width="1.2" stroke-linecap="square" stroke-linejoin="bevel" width="120.48" height="120.24"/><rect id="shape0321" transform="matrix(0.427080806776746 0 0 0.427080806776746 297.596869452755 510.537121754582)" fill="none" stroke="#000000" stroke-width="1.2" stroke-linecap="square" stroke-linejoin="bevel" width="120.48" height="120.24"/><rect id="shape0421" transform="matrix(0.427080821524106 0 0 0.427080821524106 349.057195125276 561.925959336802)" fill="none" stroke="#000000" stroke-width="1.2" stroke-linecap="square" stroke-linejoin="bevel" width="120.48" height="120.24"/><rect id="shape0521" transform="matrix(0.427080827047515 0 0 0.427080827047515 400.509615349486 561.930520441905)" fill="none" stroke="#000000" stroke-width="1.2" stroke-linecap="square" stroke-linejoin="bevel" width="120.48" height="120.24"/><rect id="shape0131" transform="matrix(0.427080838561185 0 0 0.427080838561185 451.944958897849 561.917997670478)" fill="none" stroke="#000000" stroke-width="1.2" stroke-linecap="square" stroke-linejoin="bevel" width="120.48" height="120.24"/><rect id="shape0231" transform="matrix(0.427080829469914 0 0 0.427080829469914 503.366916652274 561.869343514898)" fill="none" stroke="#000000" stroke-width="1.2" stroke-linecap="square" stroke-linejoin="bevel" width="120.48" height="120.24"/><rect id="shape0331" transform="matrix(0.427080816993763 0 0 0.427080816993763 297.589367359377 561.860609085608)" fill="none" stroke="#000000" stroke-width="1.2" stroke-linecap="square" stroke-linejoin="bevel" width="120.48" height="120.24"/><rect id="shape0431" transform="matrix(0.427080821524106 0 0 0.427080821524106 349.057760390639 613.272736831259)" fill="none" stroke="#000000" stroke-width="1.2" stroke-linecap="square" stroke-linejoin="bevel" width="120.48" height="120.24"/><rect id="shape0531" transform="matrix(0.427080827047515 0 0 0.427080827047515 400.510180614849 613.277297936361)" fill="none" stroke="#000000" stroke-width="1.2" stroke-linecap="square" stroke-linejoin="bevel" width="120.48" height="120.24"/><rect id="shape0141" transform="matrix(0.427080838561185 0 0 0.427080838561185 451.945524163212 613.264775164934)" fill="none" stroke="#000000" stroke-width="1.2" stroke-linecap="square" stroke-linejoin="bevel" width="120.48" height="120.24"/><rect id="shape0241" transform="matrix(0.427080829469914 0 0 0.427080829469914 503.367481917636 613.216121009353)" fill="none" stroke="#000000" stroke-width="1.2" stroke-linecap="square" stroke-linejoin="bevel" width="120.48" height="120.24"/><rect id="shape0341" transform="matrix(0.427080816993763 0 0 0.427080816993763 297.589932624741 613.207386580064)" fill="none" stroke="#000000" stroke-width="1.2" stroke-linecap="square" stroke-linejoin="bevel" width="120.48" height="120.24"/><rect id="shape041" transform="matrix(0.427080790134033 0 0 0.427080790134033 91.7929582422155 407.976634720664)" fill="none" stroke="#000000" stroke-width="1.2" stroke-linecap="square" stroke-linejoin="bevel" width="120.48" height="120.24"/><rect id="shape019" transform="matrix(0.427080795657443 0 0 0.427080795657443 143.245374684717 407.981195825431)" fill="none" stroke="#000000" stroke-width="1.2" stroke-linecap="square" stroke-linejoin="bevel" width="120.48" height="120.24"/><rect id="shape0110" transform="matrix(0.427080807171111 0 0 0.427080807171111 194.680714452627 407.968673054924)" fill="none" stroke="#000000" stroke-width="1.2" stroke-linecap="square" stroke-linejoin="bevel" width="120.48" height="120.24"/><rect id="shape027" transform="matrix(0.427080798079841 0 0 0.427080798079841 246.120699033722 407.956149310516)" fill="none" stroke="#000000" stroke-width="1.2" stroke-linecap="square" stroke-linejoin="bevel" width="120.48" height="120.24"/><rect id="shape037" transform="matrix(0.427080785603691 0 0 0.427080785603691 40.3431648652992 407.94741488187)" fill="none" stroke="#000000" stroke-width="1.2" stroke-linecap="square" stroke-linejoin="bevel" width="120.48" height="120.24"/><rect id="shape046" transform="matrix(0.427080801070514 0 0 0.427080801070514 91.7992962182613 459.346476020159)" fill="none" stroke="#000000" stroke-width="1.2" stroke-linecap="square" stroke-linejoin="bevel" width="120.48" height="120.24"/><rect id="shape056" transform="matrix(0.427080806593924 0 0 0.427080806593924 143.251713978332 459.351037125042)" fill="none" stroke="#000000" stroke-width="1.2" stroke-linecap="square" stroke-linejoin="bevel" width="120.48" height="120.24"/><rect id="shape0112" transform="matrix(0.427080818107594 0 0 0.427080818107594 194.687055063374 459.338514354214)" fill="none" stroke="#000000" stroke-width="1.2" stroke-linecap="square" stroke-linejoin="bevel" width="120.48" height="120.24"/><rect id="shape0212" transform="matrix(0.427080809016322 0 0 0.427080809016322 246.109010355116 459.289860200964)" fill="none" stroke="#000000" stroke-width="1.2" stroke-linecap="square" stroke-linejoin="bevel" width="120.48" height="120.24"/><rect id="shape0312" transform="matrix(0.427080796540173 0 0 0.427080796540173 40.331470917241 459.281125772094)" fill="none" stroke="#000000" stroke-width="1.2" stroke-linecap="square" stroke-linejoin="bevel" width="120.48" height="120.24"/><rect id="shape0412" transform="matrix(0.427080811307089 0 0 0.427080811307089 91.7977719338006 510.619871693555)" fill="none" stroke="#000000" stroke-width="1.2" stroke-linecap="square" stroke-linejoin="bevel" width="120.48" height="120.24"/><rect id="shape0512" transform="matrix(0.427080816830499 0 0 0.427080816830499 143.250190927119 510.624432798548)" fill="none" stroke="#000000" stroke-width="1.2" stroke-linecap="square" stroke-linejoin="bevel" width="120.48" height="120.24"/><rect id="shape0122" transform="matrix(0.427080828344168 0 0 0.427080828344168 194.685533244999 510.61191002742)" fill="none" stroke="#000000" stroke-width="1.2" stroke-linecap="square" stroke-linejoin="bevel" width="120.48" height="120.24"/><rect id="shape0222" transform="matrix(0.427080819252896 0 0 0.427080819252896 246.107489769261 510.563255873002)" fill="none" stroke="#000000" stroke-width="1.2" stroke-linecap="square" stroke-linejoin="bevel" width="120.48" height="120.24"/><rect id="shape0322" transform="matrix(0.427080806776746 0 0 0.427080806776746 40.3299453991625 510.554521443923)" fill="none" stroke="#000000" stroke-width="1.2" stroke-linecap="square" stroke-linejoin="bevel" width="120.48" height="120.24"/><rect id="shape0422" transform="matrix(0.427080821524106 0 0 0.427080821524106 91.7902710716839 561.943359026144)" fill="none" stroke="#000000" stroke-width="1.2" stroke-linecap="square" stroke-linejoin="bevel" width="120.48" height="120.24"/><rect id="shape0522" transform="matrix(0.427080827047515 0 0 0.427080827047515 143.242691295894 561.947920131246)" fill="none" stroke="#000000" stroke-width="1.2" stroke-linecap="square" stroke-linejoin="bevel" width="120.48" height="120.24"/><rect id="shape0132" transform="matrix(0.427080838561185 0 0 0.427080838561185 194.678034844257 561.935397359819)" fill="none" stroke="#000000" stroke-width="1.2" stroke-linecap="square" stroke-linejoin="bevel" width="120.48" height="120.24"/><rect id="shape0232" transform="matrix(0.427080829469914 0 0 0.427080829469914 246.099992598682 561.886743204238)" fill="none" stroke="#000000" stroke-width="1.2" stroke-linecap="square" stroke-linejoin="bevel" width="120.48" height="120.24"/><rect id="shape0332" transform="matrix(0.427080816993763 0 0 0.427080816993763 40.322443305785 561.878008774949)" fill="none" stroke="#000000" stroke-width="1.2" stroke-linecap="square" stroke-linejoin="bevel" width="120.48" height="120.24"/><rect id="shape0432" transform="matrix(0.427080821524106 0 0 0.427080821524106 91.790836337047 613.2901365206)" fill="none" stroke="#000000" stroke-width="1.2" stroke-linecap="square" stroke-linejoin="bevel" width="120.48" height="120.24"/><rect id="shape0532" transform="matrix(0.427080827047515 0 0 0.427080827047515 143.243256561257 613.294697625702)" fill="none" stroke="#000000" stroke-width="1.2" stroke-linecap="square" stroke-linejoin="bevel" width="120.48" height="120.24"/><rect id="shape0142" transform="matrix(0.427080838561185 0 0 0.427080838561185 194.678600109619 613.282174854275)" fill="none" stroke="#000000" stroke-width="1.2" stroke-linecap="square" stroke-linejoin="bevel" width="120.48" height="120.24"/><rect id="shape0242" transform="matrix(0.427080829469914 0 0 0.427080829469914 246.100557864044 613.233520698694)" fill="none" stroke="#000000" stroke-width="1.2" stroke-linecap="square" stroke-linejoin="bevel" width="120.48" height="120.24"/><rect id="shape0342" transform="matrix(0.427080816993763 0 0 0.427080816993763 40.3230085711484 613.224786269405)" fill="none" stroke="#000000" stroke-width="1.2" stroke-linecap="square" stroke-linejoin="bevel" width="120.48" height="120.24"/>
</svg>
