<?xml version="1.0" standalone="no"?>
<!DOCTYPE svg PUBLIC "-//W3C//DTD SVG 20010904//EN" "http://www.w3.org/TR/2001/REC-SVG-20010904/DTD/svg10.dtd">
<!-- Created using Krita: https://krita.org -->
<svg xmlns="http://www.w3.org/2000/svg" 
    xmlns:xlink="http://www.w3.org/1999/xlink"
    xmlns:krita="http://krita.org/namespaces/svg/krita"
    xmlns:sodipodi="http://sodipodi.sourceforge.net/DTD/sodipodi-0.dtd"
    width="595.2pt"
    height="841.92pt"
    viewBox="0 0 595.2 841.92">
<defs/>
<rect id="shape0" transform="matrix(0.999999979490875 0 0 0.999999979490875 9.60000170283762 120.360020986958)" fill="none" stroke="#000000" stroke-width="1.2" stroke-linecap="square" stroke-linejoin="bevel" width="72" height="72"/><rect id="shape01" transform="matrix(1.00000000684734 0 0 1.00000000684734 81.5999992413479 120.360020002125)" fill="none" stroke="#000000" stroke-width="1.2" stroke-linecap="square" stroke-linejoin="bevel" width="72" height="72"/><rect id="shape01" transform="matrix(0.999999986009225 0 0 0.999999986009225 153.599998514863 120.360020752297)" fill="none" stroke="#000000" stroke-width="1.2" stroke-linecap="square" stroke-linejoin="bevel" width="72" height="72"/><rect id="shape02" transform="matrix(0.999999970703902 0 0 0.999999970703902 225.599997589197 120.360021303289)" fill="none" stroke="#000000" stroke-width="1.2" stroke-linecap="square" stroke-linejoin="bevel" width="72" height="72"/><rect id="shape03" transform="matrix(0.999999967396712 0 0 0.999999967396712 297.599995796209 120.360021422348)" fill="none" stroke="#000000" stroke-width="1.2" stroke-linecap="square" stroke-linejoin="bevel" width="72" height="72"/><rect id="shape04" transform="matrix(0.999999994753185 0 0 0.999999994753185 369.599992463941 120.360020437515)" fill="none" stroke="#000000" stroke-width="1.2" stroke-linecap="square" stroke-linejoin="bevel" width="72" height="72"/><rect id="shape011" transform="matrix(0.999999973915061 0 0 0.999999973915061 441.599990866676 120.360021187687)" fill="none" stroke="#000000" stroke-width="1.2" stroke-linecap="square" stroke-linejoin="bevel" width="72" height="72"/><rect id="shape021" transform="matrix(0.999999958609738 0 0 0.999999958609738 513.59998907023 120.360021738679)" fill="none" stroke="#000000" stroke-width="1.2" stroke-linecap="square" stroke-linejoin="bevel" width="72" height="72"/><rect id="shape05" transform="matrix(0.999999945358899 0 0 0.999999945358899 9.60000980272719 192.360017167754)" fill="none" stroke="#000000" stroke-width="1.2" stroke-linecap="square" stroke-linejoin="bevel" width="72" height="72"/><rect id="shape06" transform="matrix(0.999999972715368 0 0 0.999999972715368 81.6000048837352 192.360016182921)" fill="none" stroke="#000000" stroke-width="1.2" stroke-linecap="square" stroke-linejoin="bevel" width="72" height="72"/><rect id="shape011" transform="matrix(0.999999951877249 0 0 0.999999951877249 153.600001699748 192.360016933093)" fill="none" stroke="#000000" stroke-width="1.2" stroke-linecap="square" stroke-linejoin="bevel" width="72" height="72"/><rect id="shape021" transform="matrix(0.999999936571926 0 0 0.999999936571926 225.599998316581 192.360017484084)" fill="none" stroke="#000000" stroke-width="1.2" stroke-linecap="square" stroke-linejoin="bevel" width="72" height="72"/><rect id="shape031" transform="matrix(0.999999933264736 0 0 0.999999933264736 297.59999406609 192.360017603143)" fill="none" stroke="#000000" stroke-width="1.2" stroke-linecap="square" stroke-linejoin="bevel" width="72" height="72"/><rect id="shape041" transform="matrix(0.999999960621209 0 0 0.999999960621209 369.599988276319 192.360016618311)" fill="none" stroke="#000000" stroke-width="1.2" stroke-linecap="square" stroke-linejoin="bevel" width="72" height="72"/><rect id="shape012" transform="matrix(0.999999939783086 0 0 0.999999939783086 441.599984221552 192.360017368482)" fill="none" stroke="#000000" stroke-width="1.2" stroke-linecap="square" stroke-linejoin="bevel" width="72" height="72"/><rect id="shape022" transform="matrix(0.999999924477763 0 0 0.999999924477763 513.599979967604 192.360017919474)" fill="none" stroke="#000000" stroke-width="1.2" stroke-linecap="square" stroke-linejoin="bevel" width="72" height="72"/><rect id="shape07" transform="matrix(0.999999911226925 0 0 0.999999911226925 9.60001963273581 264.360016919847)" fill="none" stroke="#000000" stroke-width="1.2" stroke-linecap="square" stroke-linejoin="bevel" width="72" height="72"/><rect id="shape013" transform="matrix(0.999999938583393 0 0 0.999999938583393 81.6000122562418 264.360015935015)" fill="none" stroke="#000000" stroke-width="1.2" stroke-linecap="square" stroke-linejoin="bevel" width="72" height="72"/><rect id="shape014" transform="matrix(0.999999917745274 0 0 0.999999917745274 153.600006614752 264.360016685187)" fill="none" stroke="#000000" stroke-width="1.2" stroke-linecap="square" stroke-linejoin="bevel" width="72" height="72"/><rect id="shape023" transform="matrix(0.999999902439952 0 0 0.999999902439952 225.600000774083 264.360017236179)" fill="none" stroke="#000000" stroke-width="1.2" stroke-linecap="square" stroke-linejoin="bevel" width="72" height="72"/><rect id="shape031" transform="matrix(0.999999899132762 0 0 0.999999899132762 297.599994066091 264.360017355237)" fill="none" stroke="#000000" stroke-width="1.2" stroke-linecap="square" stroke-linejoin="bevel" width="72" height="72"/><rect id="shape041" transform="matrix(0.999999926489234 0 0 0.999999926489234 369.599985818817 264.360016370404)" fill="none" stroke="#000000" stroke-width="1.2" stroke-linecap="square" stroke-linejoin="bevel" width="72" height="72"/><rect id="shape0111" transform="matrix(0.999999905651112 0 0 0.999999905651112 441.599979306547 264.360017120577)" fill="none" stroke="#000000" stroke-width="1.2" stroke-linecap="square" stroke-linejoin="bevel" width="72" height="72"/><rect id="shape0211" transform="matrix(0.999999890345788 0 0 0.999999890345788 513.599972595098 264.360017671568)" fill="none" stroke="#000000" stroke-width="1.2" stroke-linecap="square" stroke-linejoin="bevel" width="72" height="72"/><rect id="shape08" transform="matrix(0.999999911226925 0 0 0.999999911226925 9.60001963273581 335.640015459777)" fill="none" stroke="#000000" stroke-width="1.2" stroke-linecap="square" stroke-linejoin="bevel" width="72" height="72"/><rect id="shape015" transform="matrix(0.999999938583393 0 0 0.999999938583393 81.6000122562418 335.640014474945)" fill="none" stroke="#000000" stroke-width="1.2" stroke-linecap="square" stroke-linejoin="bevel" width="72" height="72"/><rect id="shape016" transform="matrix(0.999999917745274 0 0 0.999999917745274 153.600006614752 335.640015225117)" fill="none" stroke="#000000" stroke-width="1.2" stroke-linecap="square" stroke-linejoin="bevel" width="72" height="72"/><rect id="shape024" transform="matrix(0.999999902439952 0 0 0.999999902439952 225.600000774083 335.640015776108)" fill="none" stroke="#000000" stroke-width="1.2" stroke-linecap="square" stroke-linejoin="bevel" width="72" height="72"/><rect id="shape032" transform="matrix(0.999999899132762 0 0 0.999999899132762 297.599994066091 335.640015895167)" fill="none" stroke="#000000" stroke-width="1.2" stroke-linecap="square" stroke-linejoin="bevel" width="72" height="72"/><rect id="shape042" transform="matrix(0.999999926489234 0 0 0.999999926489234 369.599985818816 335.640014910335)" fill="none" stroke="#000000" stroke-width="1.2" stroke-linecap="square" stroke-linejoin="bevel" width="72" height="72"/><rect id="shape0111" transform="matrix(0.999999905651112 0 0 0.999999905651112 441.599979306547 335.640015660507)" fill="none" stroke="#000000" stroke-width="1.2" stroke-linecap="square" stroke-linejoin="bevel" width="72" height="72"/><rect id="shape0211" transform="matrix(0.999999890345788 0 0 0.999999890345788 513.599972595098 336.360016194912)" fill="none" stroke="#000000" stroke-width="1.2" stroke-linecap="square" stroke-linejoin="bevel" width="72" height="72"/><rect id="shape09" transform="matrix(0.999999938031787 0 0 0.999999938031787 9.60001191293557 407.640020510128)" fill="none" stroke="#000000" stroke-width="1.2" stroke-linecap="square" stroke-linejoin="bevel" width="72" height="72"/><rect id="shape010" transform="matrix(0.999999965388256 0 0 0.999999965388256 81.6000064663915 407.640019525294)" fill="none" stroke="#000000" stroke-width="1.2" stroke-linecap="square" stroke-linejoin="bevel" width="72" height="72"/><rect id="shape017" transform="matrix(0.999999944550137 0 0 0.999999944550137 153.600002754852 407.640020275467)" fill="none" stroke="#000000" stroke-width="1.2" stroke-linecap="square" stroke-linejoin="bevel" width="72" height="72"/><rect id="shape025" transform="matrix(0.999999929244813 0 0 0.999999929244813 225.599998844133 407.640020826458)" fill="none" stroke="#000000" stroke-width="1.2" stroke-linecap="square" stroke-linejoin="bevel" width="72" height="72"/><rect id="shape033" transform="matrix(0.999999925937624 0 0 0.999999925937624 297.59999406609 407.640020945517)" fill="none" stroke="#000000" stroke-width="1.2" stroke-linecap="square" stroke-linejoin="bevel" width="72" height="72"/><rect id="shape043" transform="matrix(0.999999953294096 0 0 0.999999953294096 369.599987748767 407.640019960684)" fill="none" stroke="#000000" stroke-width="1.2" stroke-linecap="square" stroke-linejoin="bevel" width="72" height="72"/><rect id="shape018" transform="matrix(0.999999932455973 0 0 0.999999932455973 441.599983166448 407.640020710857)" fill="none" stroke="#000000" stroke-width="1.2" stroke-linecap="square" stroke-linejoin="bevel" width="72" height="72"/><rect id="shape026" transform="matrix(0.999999917150651 0 0 0.999999917150651 513.599978384948 407.640021261849)" fill="none" stroke="#000000" stroke-width="1.2" stroke-linecap="square" stroke-linejoin="bevel" width="72" height="72"/><rect id="shape051" transform="matrix(0.999999903899812 0 0 0.999999903899812 9.60002001282484 479.640013705868)" fill="none" stroke="#000000" stroke-width="1.2" stroke-linecap="square" stroke-linejoin="bevel" width="72" height="72"/><rect id="shape061" transform="matrix(0.99999993125628 0 0 0.99999993125628 81.6000121087787 479.640012721036)" fill="none" stroke="#000000" stroke-width="1.2" stroke-linecap="square" stroke-linejoin="bevel" width="72" height="72"/><rect id="shape0112" transform="matrix(0.999999910418162 0 0 0.999999910418162 153.600005939737 479.640013471208)" fill="none" stroke="#000000" stroke-width="1.2" stroke-linecap="square" stroke-linejoin="bevel" width="72" height="72"/><rect id="shape0212" transform="matrix(0.99999989511284 0 0 0.99999989511284 225.599999571516 479.640014022199)" fill="none" stroke="#000000" stroke-width="1.2" stroke-linecap="square" stroke-linejoin="bevel" width="72" height="72"/><rect id="shape034" transform="matrix(0.99999989180565 0 0 0.99999989180565 297.599992335972 479.640014141258)" fill="none" stroke="#000000" stroke-width="1.2" stroke-linecap="square" stroke-linejoin="bevel" width="72" height="72"/><rect id="shape044" transform="matrix(0.999999919162122 0 0 0.999999919162122 369.599983561145 479.640013156425)" fill="none" stroke="#000000" stroke-width="1.2" stroke-linecap="square" stroke-linejoin="bevel" width="72" height="72"/><rect id="shape0121" transform="matrix(0.999999898324 0 0 0.999999898324 441.599976521324 479.640013906598)" fill="none" stroke="#000000" stroke-width="1.2" stroke-linecap="square" stroke-linejoin="bevel" width="72" height="72"/><rect id="shape0221" transform="matrix(0.999999883018676 0 0 0.999999883018676 513.599969282322 479.640014457589)" fill="none" stroke="#000000" stroke-width="1.2" stroke-linecap="square" stroke-linejoin="bevel" width="72" height="72"/><rect id="shape071" transform="matrix(0.99999986976784 0 0 0.99999986976784 9.60002984283306 551.640010472908)" fill="none" stroke="#000000" stroke-width="1.2" stroke-linecap="square" stroke-linejoin="bevel" width="72" height="72"/><rect id="shape0131" transform="matrix(0.999999897124307 0 0 0.999999897124307 81.6000194812849 551.640009488075)" fill="none" stroke="#000000" stroke-width="1.2" stroke-linecap="square" stroke-linejoin="bevel" width="72" height="72"/><rect id="shape0141" transform="matrix(0.999999876286188 0 0 0.999999876286188 153.600010854741 551.640010238247)" fill="none" stroke="#000000" stroke-width="1.2" stroke-linecap="square" stroke-linejoin="bevel" width="72" height="72"/><rect id="shape0231" transform="matrix(0.999999860980867 0 0 0.999999860980867 225.600002029017 551.640010789239)" fill="none" stroke="#000000" stroke-width="1.2" stroke-linecap="square" stroke-linejoin="bevel" width="72" height="72"/><rect id="shape0311" transform="matrix(0.999999857673677 0 0 0.999999857673677 297.599992335972 551.640010908299)" fill="none" stroke="#000000" stroke-width="1.2" stroke-linecap="square" stroke-linejoin="bevel" width="72" height="72"/><rect id="shape0411" transform="matrix(0.999999885030147 0 0 0.999999885030147 369.599981103643 551.640009923465)" fill="none" stroke="#000000" stroke-width="1.2" stroke-linecap="square" stroke-linejoin="bevel" width="72" height="72"/><rect id="shape0113" transform="matrix(0.999999864192027 0 0 0.999999864192027 441.599971606319 551.640010673637)" fill="none" stroke="#000000" stroke-width="1.2" stroke-linecap="square" stroke-linejoin="bevel" width="72" height="72"/><rect id="shape0213" transform="matrix(0.999999848886704 0 0 0.999999848886704 513.599961909816 551.640011224629)" fill="none" stroke="#000000" stroke-width="1.2" stroke-linecap="square" stroke-linejoin="bevel" width="72" height="72"/><rect id="shape081" transform="matrix(0.99999986976784 0 0 0.99999986976784 9.60002984283306 623.640006011197)" fill="none" stroke="#000000" stroke-width="1.2" stroke-linecap="square" stroke-linejoin="bevel" width="72" height="72"/><rect id="shape0151" transform="matrix(0.999999897124307 0 0 0.999999897124307 81.6000194812849 623.640005026364)" fill="none" stroke="#000000" stroke-width="1.2" stroke-linecap="square" stroke-linejoin="bevel" width="72" height="72"/><rect id="shape0161" transform="matrix(0.999999876286188 0 0 0.999999876286188 153.600010854741 623.640005776535)" fill="none" stroke="#000000" stroke-width="1.2" stroke-linecap="square" stroke-linejoin="bevel" width="72" height="72"/><rect id="shape0241" transform="matrix(0.999999860980867 0 0 0.999999860980867 225.600002029017 623.640006327528)" fill="none" stroke="#000000" stroke-width="1.2" stroke-linecap="square" stroke-linejoin="bevel" width="72" height="72"/><rect id="shape0321" transform="matrix(0.999999857673677 0 0 0.999999857673677 297.599992335972 623.640006446586)" fill="none" stroke="#000000" stroke-width="1.2" stroke-linecap="square" stroke-linejoin="bevel" width="72" height="72"/><rect id="shape0421" transform="matrix(0.999999885030147 0 0 0.999999885030147 369.599981103643 623.640005461753)" fill="none" stroke="#000000" stroke-width="1.2" stroke-linecap="square" stroke-linejoin="bevel" width="72" height="72"/><rect id="shape01111" transform="matrix(0.999999864192027 0 0 0.999999864192027 441.599971606319 623.640006211926)" fill="none" stroke="#000000" stroke-width="1.2" stroke-linecap="square" stroke-linejoin="bevel" width="72" height="72"/><rect id="shape02111" transform="matrix(0.999999848886704 0 0 0.999999848886704 513.599961909816 623.640006762917)" fill="none" stroke="#000000" stroke-width="1.2" stroke-linecap="square" stroke-linejoin="bevel" width="72" height="72"/>
</svg>
