<?xml version="1.0" standalone="no"?>
<!DOCTYPE svg PUBLIC "-//W3C//DTD SVG 20010904//EN" "http://www.w3.org/TR/2001/REC-SVG-20010904/DTD/svg10.dtd">
<!-- Created using Krita: https://krita.org -->
<svg xmlns="http://www.w3.org/2000/svg" 
    xmlns:xlink="http://www.w3.org/1999/xlink"
    xmlns:krita="http://krita.org/namespaces/svg/krita"
    xmlns:sodipodi="http://sodipodi.sourceforge.net/DTD/sodipodi-0.dtd"
    width="595.2pt"
    height="841.92pt"
    viewBox="0 0 595.2 841.92">
<defs/>
<rect id="shape0" transform="translate(9.60000189972531, 120.360006276994)" fill="none" stroke="#000000" stroke-width="1.2" stroke-linecap="square" stroke-linejoin="bevel" width="72" height="72"/><rect id="shape0" transform="matrix(1.00000002735647 0 0 1.00000002735647 81.6000009148925 120.360005292161)" fill="none" stroke="#000000" stroke-width="1.2" stroke-linecap="square" stroke-linejoin="bevel" width="72" height="72"/><rect id="shape01" transform="matrix(1.00000000651835 0 0 1.00000000651835 153.600001665065 120.360006042333)" fill="none" stroke="#000000" stroke-width="1.2" stroke-linecap="square" stroke-linejoin="bevel" width="72" height="72"/><rect id="shape02" transform="matrix(0.999999991213026 0 0 0.999999991213026 225.600002216056 120.360006593325)" fill="none" stroke="#000000" stroke-width="1.2" stroke-linecap="square" stroke-linejoin="bevel" width="72" height="72"/><rect id="shape03" transform="matrix(0.999999987905836 0 0 0.999999987905836 297.600001899725 120.360006712384)" fill="#000000" stroke="#000000" stroke-width="1.2" stroke-linecap="square" stroke-linejoin="bevel" width="72" height="72"/><rect id="shape04" transform="matrix(1.00000001526231 0 0 1.00000001526231 369.600000044113 120.360005727551)" fill="#000000" stroke="#000000" stroke-width="1.2" stroke-linecap="square" stroke-linejoin="bevel" width="72" height="72"/><rect id="shape01" transform="matrix(0.999999994424186 0 0 0.999999994424186 441.599999923505 120.360006477723)" fill="none" stroke="#000000" stroke-width="1.2" stroke-linecap="square" stroke-linejoin="bevel" width="72" height="72"/><rect id="shape02" transform="matrix(0.999999979118862 0 0 0.999999979118862 513.599999603716 120.360007028715)" fill="none" stroke="#000000" stroke-width="1.2" stroke-linecap="square" stroke-linejoin="bevel" width="72" height="72"/><rect id="shape05" transform="matrix(0.999999965868023 0 0 0.999999965868023 9.60000999961505 192.360003934446)" fill="none" stroke="#000000" stroke-width="1.2" stroke-linecap="square" stroke-linejoin="bevel" width="72" height="72"/><rect id="shape06" transform="matrix(0.999999993224493 0 0 0.999999993224493 81.60000655728 192.360002949613)" fill="none" stroke="#000000" stroke-width="1.2" stroke-linecap="square" stroke-linejoin="bevel" width="72" height="72"/><rect id="shape011" transform="matrix(0.999999972386373 0 0 0.999999972386373 153.60000484995 192.360003699785)" fill="none" stroke="#000000" stroke-width="1.2" stroke-linecap="square" stroke-linejoin="bevel" width="72" height="72"/><rect id="shape021" transform="matrix(0.99999995708105 0 0 0.99999995708105 225.60000294344 192.360004250777)" fill="#000000" stroke="#000000" stroke-width="1.2" stroke-linecap="square" stroke-linejoin="bevel" width="72" height="72"/><rect id="shape03" transform="matrix(0.99999995377386 0 0 0.99999995377386 297.600000169606 192.360004369836)" fill="none" stroke="#000000" stroke-width="1.2" stroke-linecap="square" stroke-linejoin="bevel" width="72" height="72"/><rect id="shape04" transform="matrix(0.999999981130333 0 0 0.999999981130333 369.599995856491 192.360003385003)" fill="none" stroke="#000000" stroke-width="1.2" stroke-linecap="square" stroke-linejoin="bevel" width="72" height="72"/><rect id="shape012" transform="matrix(0.99999996029221 0 0 0.99999996029221 441.599993278381 192.360004135175)" fill="#000000" stroke="#000000" stroke-width="1.2" stroke-linecap="square" stroke-linejoin="bevel" width="72" height="72"/><rect id="shape022" transform="matrix(0.999999944986886 0 0 0.999999944986886 513.59999050109 192.360004686167)" fill="none" stroke="#000000" stroke-width="1.2" stroke-linecap="square" stroke-linejoin="bevel" width="72" height="72"/><rect id="shape07" transform="matrix(0.999999931736048 0 0 0.999999931736048 9.60001982962387 264.360005163197)" fill="none" stroke="#000000" stroke-width="1.2" stroke-linecap="square" stroke-linejoin="bevel" width="72" height="72"/><rect id="shape013" transform="matrix(0.999999959092517 0 0 0.999999959092517 81.6000139297867 264.360004178364)" fill="none" stroke="#000000" stroke-width="1.2" stroke-linecap="square" stroke-linejoin="bevel" width="72" height="72"/><rect id="shape014" transform="matrix(0.999999938254397 0 0 0.999999938254397 153.600009764954 264.360004928537)" fill="none" stroke="#000000" stroke-width="1.2" stroke-linecap="square" stroke-linejoin="bevel" width="72" height="72"/><rect id="shape023" transform="matrix(0.999999922949075 0 0 0.999999922949075 225.600005400942 264.360005479529)" fill="#000000" stroke="#000000" stroke-width="1.2" stroke-linecap="square" stroke-linejoin="bevel" width="72" height="72"/><rect id="shape031" transform="matrix(0.999999919641885 0 0 0.999999919641885 297.600000169607 264.360005598587)" fill="none" stroke="#000000" stroke-width="1.2" stroke-linecap="square" stroke-linejoin="bevel" width="72" height="72"/><rect id="shape041" transform="matrix(0.999999946998357 0 0 0.999999946998357 369.599993398989 264.360004613754)" fill="none" stroke="#000000" stroke-width="1.2" stroke-linecap="square" stroke-linejoin="bevel" width="72" height="72"/><rect id="shape011" transform="matrix(0.999999926160235 0 0 0.999999926160235 441.599988363376 264.360005363927)" fill="#000000" stroke="#000000" stroke-width="1.2" stroke-linecap="square" stroke-linejoin="bevel" width="72" height="72"/><rect id="shape021" transform="matrix(0.999999910854911 0 0 0.999999910854911 513.599983128584 264.360005914918)" fill="#000000" stroke="#000000" stroke-width="1.2" stroke-linecap="square" stroke-linejoin="bevel" width="72" height="72"/><rect id="shape08" transform="matrix(0.999999931736048 0 0 0.999999931736048 9.60001982962387 335.640005165017)" fill="#000000" stroke="#000000" stroke-width="1.2" stroke-linecap="square" stroke-linejoin="bevel" width="72" height="72"/><rect id="shape015" transform="matrix(0.999999959092517 0 0 0.999999959092517 81.6000139297867 335.640004180185)" fill="none" stroke="#000000" stroke-width="1.2" stroke-linecap="square" stroke-linejoin="bevel" width="72" height="72"/><rect id="shape016" transform="matrix(0.999999938254397 0 0 0.999999938254397 153.600009764954 335.640004930357)" fill="none" stroke="#000000" stroke-width="1.2" stroke-linecap="square" stroke-linejoin="bevel" width="72" height="72"/><rect id="shape024" transform="matrix(0.999999922949075 0 0 0.999999922949075 225.600005400942 335.640005481348)" fill="none" stroke="#000000" stroke-width="1.2" stroke-linecap="square" stroke-linejoin="bevel" width="72" height="72"/><rect id="shape032" transform="matrix(0.999999919641885 0 0 0.999999919641885 297.600000169607 335.640005600407)" fill="#000000" stroke="#000000" stroke-width="1.2" stroke-linecap="square" stroke-linejoin="bevel" width="72" height="72"/><rect id="shape042" transform="matrix(0.999999946998357 0 0 0.999999946998357 369.599993398988 335.640004615575)" fill="#000000" stroke="#000000" stroke-width="1.2" stroke-linecap="square" stroke-linejoin="bevel" width="72" height="72"/><rect id="shape0111" transform="matrix(0.999999926160235 0 0 0.999999926160235 441.599988363376 335.640005365747)" fill="none" stroke="#000000" stroke-width="1.2" stroke-linecap="square" stroke-linejoin="bevel" width="72" height="72"/><rect id="shape0211" transform="matrix(0.999999910854911 0 0 0.999999910854911 513.599983128584 336.360005914918)" fill="none" stroke="#000000" stroke-width="1.2" stroke-linecap="square" stroke-linejoin="bevel" width="72" height="72"/><rect id="shape09" transform="matrix(0.999999958540911 0 0 0.999999958540911 9.60001210982347 407.640011692025)" fill="#000000" stroke="#000000" stroke-width="1.2" stroke-linecap="square" stroke-linejoin="bevel" width="72" height="72"/><rect id="shape010" transform="matrix(0.99999998589738 0 0 0.99999998589738 81.6000081399363 407.640010707191)" fill="#000000" stroke="#000000" stroke-width="1.2" stroke-linecap="square" stroke-linejoin="bevel" width="72" height="72"/><rect id="shape017" transform="matrix(0.999999965059261 0 0 0.999999965059261 153.600005905054 407.640011457364)" fill="#000000" stroke="#000000" stroke-width="1.2" stroke-linecap="square" stroke-linejoin="bevel" width="72" height="72"/><rect id="shape025" transform="matrix(0.999999949753937 0 0 0.999999949753937 225.600003470992 407.640012008355)" fill="#000000" stroke="#000000" stroke-width="1.2" stroke-linecap="square" stroke-linejoin="bevel" width="72" height="72"/><rect id="shape033" transform="matrix(0.999999946446748 0 0 0.999999946446748 297.600000169606 407.640012127414)" fill="none" stroke="#000000" stroke-width="1.2" stroke-linecap="square" stroke-linejoin="bevel" width="72" height="72"/><rect id="shape043" transform="matrix(0.99999997380322 0 0 0.99999997380322 369.599995328939 407.640011142581)" fill="none" stroke="#000000" stroke-width="1.2" stroke-linecap="square" stroke-linejoin="bevel" width="72" height="72"/><rect id="shape018" transform="matrix(0.999999952965097 0 0 0.999999952965097 441.599992223277 407.640011892754)" fill="#000000" stroke="#000000" stroke-width="1.2" stroke-linecap="square" stroke-linejoin="bevel" width="72" height="72"/><rect id="shape026" transform="matrix(0.999999937659774 0 0 0.999999937659774 513.599988918434 407.640012443746)" fill="none" stroke="#000000" stroke-width="1.2" stroke-linecap="square" stroke-linejoin="bevel" width="72" height="72"/><rect id="shape05" transform="matrix(0.999999924408935 0 0 0.999999924408935 9.60002020971291 479.640006364422)" fill="none" stroke="#000000" stroke-width="1.2" stroke-linecap="square" stroke-linejoin="bevel" width="72" height="72"/><rect id="shape06" transform="matrix(0.999999951765404 0 0 0.999999951765404 81.6000137823236 479.64000537959)" fill="#000000" stroke="#000000" stroke-width="1.2" stroke-linecap="square" stroke-linejoin="bevel" width="72" height="72"/><rect id="shape0112" transform="matrix(0.999999930927285 0 0 0.999999930927285 153.600009089939 479.640006129762)" fill="none" stroke="#000000" stroke-width="1.2" stroke-linecap="square" stroke-linejoin="bevel" width="72" height="72"/><rect id="shape0212" transform="matrix(0.999999915621963 0 0 0.999999915621963 225.600004198375 479.640006680753)" fill="none" stroke="#000000" stroke-width="1.2" stroke-linecap="square" stroke-linejoin="bevel" width="72" height="72"/><rect id="shape034" transform="matrix(0.999999912314773 0 0 0.999999912314773 297.599998439487 479.640006799812)" fill="none" stroke="#000000" stroke-width="1.2" stroke-linecap="square" stroke-linejoin="bevel" width="72" height="72"/><rect id="shape044" transform="matrix(0.999999939671245 0 0 0.999999939671245 369.599991141317 479.640005814979)" fill="none" stroke="#000000" stroke-width="1.2" stroke-linecap="square" stroke-linejoin="bevel" width="72" height="72"/><rect id="shape012" transform="matrix(0.999999918833123 0 0 0.999999918833123 441.599985578153 479.640006565152)" fill="#000000" stroke="#000000" stroke-width="1.2" stroke-linecap="square" stroke-linejoin="bevel" width="72" height="72"/><rect id="shape022" transform="matrix(0.999999903527799 0 0 0.999999903527799 513.599979815808 479.640007116143)" fill="none" stroke="#000000" stroke-width="1.2" stroke-linecap="square" stroke-linejoin="bevel" width="72" height="72"/><rect id="shape07" transform="matrix(0.999999890276962 0 0 0.999999890276962 9.60003003972133 551.640004608119)" fill="none" stroke="#000000" stroke-width="1.2" stroke-linecap="square" stroke-linejoin="bevel" width="72" height="72"/><rect id="shape013" transform="matrix(0.99999991763343 0 0 0.99999991763343 81.60002115483 551.640003623286)" fill="none" stroke="#000000" stroke-width="1.2" stroke-linecap="square" stroke-linejoin="bevel" width="72" height="72"/><rect id="shape014" transform="matrix(0.999999896795311 0 0 0.999999896795311 153.600014004943 551.640004373458)" fill="#000000" stroke="#000000" stroke-width="1.2" stroke-linecap="square" stroke-linejoin="bevel" width="72" height="72"/><rect id="shape023" transform="matrix(0.999999881489989 0 0 0.999999881489989 225.600006655876 551.64000492445)" fill="#000000" stroke="#000000" stroke-width="1.2" stroke-linecap="square" stroke-linejoin="bevel" width="72" height="72"/><rect id="shape031" transform="matrix(0.999999878182799 0 0 0.999999878182799 297.599998439487 551.64000504351)" fill="#000000" stroke="#000000" stroke-width="1.2" stroke-linecap="square" stroke-linejoin="bevel" width="72" height="72"/><rect id="shape041" transform="matrix(0.99999990553927 0 0 0.99999990553927 369.599988683815 551.640004058676)" fill="#000000" stroke="#000000" stroke-width="1.2" stroke-linecap="square" stroke-linejoin="bevel" width="72" height="72"/><rect id="shape0113" transform="matrix(0.999999884701149 0 0 0.999999884701149 441.599980663148 551.640004808848)" fill="none" stroke="#000000" stroke-width="1.2" stroke-linecap="square" stroke-linejoin="bevel" width="72" height="72"/><rect id="shape0213" transform="matrix(0.999999869395826 0 0 0.999999869395826 513.599972443302 551.64000535984)" fill="none" stroke="#000000" stroke-width="1.2" stroke-linecap="square" stroke-linejoin="bevel" width="72" height="72"/><rect id="shape08" transform="matrix(0.999999890276962 0 0 0.999999890276962 9.60003003972133 623.640001623065)" fill="none" stroke="#000000" stroke-width="1.2" stroke-linecap="square" stroke-linejoin="bevel" width="72" height="72"/><rect id="shape015" transform="matrix(0.99999991763343 0 0 0.99999991763343 81.60002115483 623.640000638232)" fill="none" stroke="#000000" stroke-width="1.2" stroke-linecap="square" stroke-linejoin="bevel" width="72" height="72"/><rect id="shape016" transform="matrix(0.999999896795311 0 0 0.999999896795311 153.600014004943 623.640001388403)" fill="none" stroke="#000000" stroke-width="1.2" stroke-linecap="square" stroke-linejoin="bevel" width="72" height="72"/><rect id="shape024" transform="matrix(0.999999881489989 0 0 0.999999881489989 225.600006655876 623.640001939396)" fill="#000000" stroke="#000000" stroke-width="1.2" stroke-linecap="square" stroke-linejoin="bevel" width="72" height="72"/><rect id="shape032" transform="matrix(0.999999878182799 0 0 0.999999878182799 297.599998439487 623.640002058454)" fill="#000000" stroke="#000000" stroke-width="1.2" stroke-linecap="square" stroke-linejoin="bevel" width="72" height="72"/><rect id="shape042" transform="matrix(0.99999990553927 0 0 0.99999990553927 369.599988683815 623.640001073621)" fill="none" stroke="#000000" stroke-width="1.2" stroke-linecap="square" stroke-linejoin="bevel" width="72" height="72"/><rect id="shape0111" transform="matrix(0.999999884701149 0 0 0.999999884701149 441.599980663148 623.640001823794)" fill="none" stroke="#000000" stroke-width="1.2" stroke-linecap="square" stroke-linejoin="bevel" width="72" height="72"/><rect id="shape0211" transform="matrix(0.999999869395826 0 0 0.999999869395826 513.599972443302 623.640002374785)" fill="none" stroke="#000000" stroke-width="1.2" stroke-linecap="square" stroke-linejoin="bevel" width="72" height="72"/>
</svg>
