<?xml version="1.0" standalone="no"?>
<!DOCTYPE svg PUBLIC "-//W3C//DTD SVG 20010904//EN" "http://www.w3.org/TR/2001/REC-SVG-20010904/DTD/svg10.dtd">
<!-- Created using Krita: https://krita.org -->
<svg xmlns="http://www.w3.org/2000/svg" 
    xmlns:xlink="http://www.w3.org/1999/xlink"
    xmlns:krita="http://krita.org/namespaces/svg/krita"
    xmlns:sodipodi="http://sodipodi.sourceforge.net/DTD/sodipodi-0.dtd"
    width="595.2pt"
    height="841.92pt"
    viewBox="0 0 595.2 841.92">
<defs/>
<rect id="shape0" transform="matrix(0.427080822181354 0 0 0.427080822181354 349.095105081552 151.390233772322)" fill="none" stroke="#000000" stroke-width="1.2" stroke-linecap="square" stroke-linejoin="bevel" width="120.48" height="120.24"/><rect id="shape01" transform="matrix(0.427080827704764 0 0 0.427080827704764 400.547525384944 151.394794877431)" fill="none" stroke="#000000" stroke-width="1.2" stroke-linecap="square" stroke-linejoin="bevel" width="120.48" height="120.24"/><rect id="shape01" transform="matrix(0.427080839218433 0 0 0.427080839218433 451.982869012463 151.382272105984)" fill="none" stroke="#000000" stroke-width="1.2" stroke-linecap="square" stroke-linejoin="bevel" width="120.48" height="120.24"/><rect id="shape02" transform="matrix(0.427080830127162 0 0 0.427080830127162 503.422857453516 151.369748360636)" fill="none" stroke="#000000" stroke-width="1.2" stroke-linecap="square" stroke-linejoin="bevel" width="120.48" height="120.24"/><rect id="shape03" transform="matrix(0.427080817651012 0 0 0.427080817651012 297.645307843943 151.361013931335)" fill="#000000" stroke="#000000" stroke-width="1.2" stroke-linecap="square" stroke-linejoin="bevel" width="120.48" height="120.24"/><rect id="shape04" transform="matrix(0.427080833117837 0 0 0.427080833117837 349.101443058074 202.760078926511)" fill="#000000" stroke="#000000" stroke-width="1.2" stroke-linecap="square" stroke-linejoin="bevel" width="120.48" height="120.24"/><rect id="shape05" transform="matrix(0.427080838641246 0 0 0.427080838641246 400.553864679035 202.764640031737)" fill="none" stroke="#000000" stroke-width="1.2" stroke-linecap="square" stroke-linejoin="bevel" width="120.48" height="120.24"/><rect id="shape011" transform="matrix(0.427080850154916 0 0 0.427080850154916 451.989209623685 202.752117259969)" fill="none" stroke="#000000" stroke-width="1.2" stroke-linecap="square" stroke-linejoin="bevel" width="120.48" height="120.24"/><rect id="shape021" transform="matrix(0.427080841063644 0 0 0.427080841063644 503.411168774034 202.703463103067)" fill="none" stroke="#000000" stroke-width="1.2" stroke-linecap="square" stroke-linejoin="bevel" width="120.48" height="120.24"/><rect id="shape031" transform="matrix(0.427080828587494 0 0 0.427080828587494 297.633613895007 202.694728673542)" fill="none" stroke="#000000" stroke-width="1.2" stroke-linecap="square" stroke-linejoin="bevel" width="120.48" height="120.24"/><rect id="shape041" transform="matrix(0.427080843354412 0 0 0.427080843354412 349.099918773499 254.033478447364)" fill="#000000" stroke="#000000" stroke-width="1.2" stroke-linecap="square" stroke-linejoin="bevel" width="120.48" height="120.24"/><rect id="shape051" transform="matrix(0.427080848877822 0 0 0.427080848877822 400.552341627708 254.038039552699)" fill="none" stroke="#000000" stroke-width="1.2" stroke-linecap="square" stroke-linejoin="bevel" width="120.48" height="120.24"/><rect id="shape012" transform="matrix(0.427080860391492 0 0 0.427080860391492 451.987687805196 254.025516780631)" fill="#000000" stroke="#000000" stroke-width="1.2" stroke-linecap="square" stroke-linejoin="bevel" width="120.48" height="120.24"/><rect id="shape022" transform="matrix(0.42708085130022 0 0 0.42708085130022 503.409648188063 253.976862622563)" fill="none" stroke="#000000" stroke-width="1.2" stroke-linecap="square" stroke-linejoin="bevel" width="120.48" height="120.24"/><rect id="shape032" transform="matrix(0.427080838824069 0 0 0.427080838824069 297.632088376814 253.968128192828)" fill="none" stroke="#000000" stroke-width="1.2" stroke-linecap="square" stroke-linejoin="bevel" width="120.48" height="120.24"/><rect id="shape042" transform="matrix(0.427080853571429 0 0 0.427080853571429 349.092417910819 305.356969631168)" fill="#000000" stroke="#000000" stroke-width="1.2" stroke-linecap="square" stroke-linejoin="bevel" width="120.48" height="120.24"/><rect id="shape052" transform="matrix(0.427080859094839 0 0 0.427080859094839 400.54484199592 305.361530736613)" fill="none" stroke="#000000" stroke-width="1.2" stroke-linecap="square" stroke-linejoin="bevel" width="120.48" height="120.24"/><rect id="shape013" transform="matrix(0.427080870608509 0 0 0.427080870608509 451.980189403892 305.349007964246)" fill="#000000" stroke="#000000" stroke-width="1.2" stroke-linecap="square" stroke-linejoin="bevel" width="120.48" height="120.24"/><rect id="shape023" transform="matrix(0.427080861517237 0 0 0.427080861517237 503.402151016921 305.300353805014)" fill="none" stroke="#000000" stroke-width="1.2" stroke-linecap="square" stroke-linejoin="bevel" width="120.48" height="120.24"/><rect id="shape033" transform="matrix(0.427080849041086 0 0 0.427080849041086 297.624586282874 305.29161937507)" fill="none" stroke="#000000" stroke-width="1.2" stroke-linecap="square" stroke-linejoin="bevel" width="120.48" height="120.24"/><rect id="shape043" transform="matrix(0.427080853571429 0 0 0.427080853571429 349.092983176224 356.703750978588)" fill="none" stroke="#000000" stroke-width="1.2" stroke-linecap="square" stroke-linejoin="bevel" width="120.48" height="120.24"/><rect id="shape053" transform="matrix(0.427080859094839 0 0 0.427080859094839 400.545407261325 356.708312084033)" fill="none" stroke="#000000" stroke-width="1.2" stroke-linecap="square" stroke-linejoin="bevel" width="120.48" height="120.24"/><rect id="shape014" transform="matrix(0.427080870608509 0 0 0.427080870608509 451.980754669297 356.695789311666)" fill="#000000" stroke="#000000" stroke-width="1.2" stroke-linecap="square" stroke-linejoin="bevel" width="120.48" height="120.24"/><rect id="shape024" transform="matrix(0.427080861517237 0 0 0.427080861517237 503.402716282327 356.647135152434)" fill="none" stroke="#000000" stroke-width="1.2" stroke-linecap="square" stroke-linejoin="bevel" width="120.48" height="120.24"/><rect id="shape034" transform="matrix(0.427080849041086 0 0 0.427080849041086 297.625151548279 356.63840072249)" fill="#000000" stroke="#000000" stroke-width="1.2" stroke-linecap="square" stroke-linejoin="bevel" width="120.48" height="120.24"/><rect id="shape02" transform="matrix(0.427080798893086 0 0 0.427080798893086 91.8117410685255 151.382327116615)" fill="none" stroke="#000000" stroke-width="1.2" stroke-linecap="square" stroke-linejoin="bevel" width="120.48" height="120.24"/><rect id="shape015" transform="matrix(0.427080804416496 0 0 0.427080804416496 143.264158566271 151.386888221475)" fill="none" stroke="#000000" stroke-width="1.2" stroke-linecap="square" stroke-linejoin="bevel" width="120.48" height="120.24"/><rect id="shape016" transform="matrix(0.427080815930165 0 0 0.427080815930165 194.699499389074 151.374365450711)" fill="#000000" stroke="#000000" stroke-width="1.2" stroke-linecap="square" stroke-linejoin="bevel" width="120.48" height="120.24"/><rect id="shape025" transform="matrix(0.427080806838894 0 0 0.427080806838894 246.139485025159 151.361841706046)" fill="#000000" stroke="#000000" stroke-width="1.2" stroke-linecap="square" stroke-linejoin="bevel" width="120.48" height="120.24"/><rect id="shape035" transform="matrix(0.427080794362744 0 0 0.427080794362744 40.3619466364194 151.353107277221)" fill="none" stroke="#000000" stroke-width="1.2" stroke-linecap="square" stroke-linejoin="bevel" width="120.48" height="120.24"/><rect id="shape044" transform="matrix(0.427080809829568 0 0 0.427080809829568 91.8180790447014 202.75216946966)" fill="none" stroke="#000000" stroke-width="1.2" stroke-linecap="square" stroke-linejoin="bevel" width="120.48" height="120.24"/><rect id="shape054" transform="matrix(0.427080815352978 0 0 0.427080815352978 143.270497860016 202.756730574637)" fill="#000000" stroke="#000000" stroke-width="1.2" stroke-linecap="square" stroke-linejoin="bevel" width="120.48" height="120.24"/><rect id="shape011" transform="matrix(0.427080826866648 0 0 0.427080826866648 194.705839999951 202.744207803552)" fill="none" stroke="#000000" stroke-width="1.2" stroke-linecap="square" stroke-linejoin="bevel" width="120.48" height="120.24"/><rect id="shape021" transform="matrix(0.427080817775376 0 0 0.427080817775376 246.127796346314 202.695553649303)" fill="none" stroke="#000000" stroke-width="1.2" stroke-linecap="square" stroke-linejoin="bevel" width="120.48" height="120.24"/><rect id="shape031" transform="matrix(0.427080805299226 0 0 0.427080805299226 40.350252688121 202.686819220254)" fill="none" stroke="#000000" stroke-width="1.2" stroke-linecap="square" stroke-linejoin="bevel" width="120.48" height="120.24"/><rect id="shape041" transform="matrix(0.427080820066143 0 0 0.427080820066143 91.8165547602095 254.025566194629)" fill="none" stroke="#000000" stroke-width="1.2" stroke-linecap="square" stroke-linejoin="bevel" width="120.48" height="120.24"/><rect id="shape051" transform="matrix(0.427080825589553 0 0 0.427080825589553 143.268974808772 254.030127299715)" fill="#000000" stroke="#000000" stroke-width="1.2" stroke-linecap="square" stroke-linejoin="bevel" width="120.48" height="120.24"/><rect id="shape012" transform="matrix(0.427080837103222 0 0 0.427080837103222 194.704318181546 254.01760452833)" fill="none" stroke="#000000" stroke-width="1.2" stroke-linecap="square" stroke-linejoin="bevel" width="120.48" height="120.24"/><rect id="shape022" transform="matrix(0.42708082801195 0 0 0.42708082801195 246.126275760427 253.968950372915)" fill="none" stroke="#000000" stroke-width="1.2" stroke-linecap="square" stroke-linejoin="bevel" width="120.48" height="120.24"/><rect id="shape032" transform="matrix(0.4270808155358 0 0 0.4270808155358 40.3487271700113 253.960215943656)" fill="none" stroke="#000000" stroke-width="1.2" stroke-linecap="square" stroke-linejoin="bevel" width="120.48" height="120.24"/><rect id="shape042" transform="matrix(0.42708083028316 0 0 0.42708083028316 91.8090538979388 305.349054579817)" fill="none" stroke="#000000" stroke-width="1.2" stroke-linecap="square" stroke-linejoin="bevel" width="120.48" height="120.24"/><rect id="shape052" transform="matrix(0.427080835806569 0 0 0.427080835806569 143.261475177393 305.353615685013)" fill="#000000" stroke="#000000" stroke-width="1.2" stroke-linecap="square" stroke-linejoin="bevel" width="120.48" height="120.24"/><rect id="shape013" transform="matrix(0.427080847320239 0 0 0.427080847320239 194.69681978065 305.341092913328)" fill="none" stroke="#000000" stroke-width="1.2" stroke-linecap="square" stroke-linejoin="bevel" width="120.48" height="120.24"/><rect id="shape023" transform="matrix(0.427080838228968 0 0 0.427080838228968 246.118778589694 305.29243875675)" fill="none" stroke="#000000" stroke-width="1.2" stroke-linecap="square" stroke-linejoin="bevel" width="120.48" height="120.24"/><rect id="shape033" transform="matrix(0.427080825752817 0 0 0.427080825752817 40.34122507648 305.283704327282)" fill="none" stroke="#000000" stroke-width="1.2" stroke-linecap="square" stroke-linejoin="bevel" width="120.48" height="120.24"/><rect id="shape043" transform="matrix(0.42708083028316 0 0 0.42708083028316 91.8096191633136 356.695833127351)" fill="none" stroke="#000000" stroke-width="1.2" stroke-linecap="square" stroke-linejoin="bevel" width="120.48" height="120.24"/><rect id="shape053" transform="matrix(0.427080835806569 0 0 0.427080835806569 143.262040442768 356.700394232547)" fill="none" stroke="#000000" stroke-width="1.2" stroke-linecap="square" stroke-linejoin="bevel" width="120.48" height="120.24"/><rect id="shape014" transform="matrix(0.427080847320239 0 0 0.427080847320239 194.697385046024 356.687871460863)" fill="#000000" stroke="#000000" stroke-width="1.2" stroke-linecap="square" stroke-linejoin="bevel" width="120.48" height="120.24"/><rect id="shape024" transform="matrix(0.427080838228968 0 0 0.427080838228968 246.119343855068 356.639217304284)" fill="#000000" stroke="#000000" stroke-width="1.2" stroke-linecap="square" stroke-linejoin="bevel" width="120.48" height="120.24"/><rect id="shape034" transform="matrix(0.427080825752817 0 0 0.427080825752817 40.3417903418548 356.630482874816)" fill="none" stroke="#000000" stroke-width="1.2" stroke-linecap="square" stroke-linejoin="bevel" width="120.48" height="120.24"/><rect id="shape03" transform="matrix(0.427080798893086 0 0 0.427080798893086 349.059889454721 407.959226219767)" fill="none" stroke="#000000" stroke-width="1.2" stroke-linecap="square" stroke-linejoin="bevel" width="120.48" height="120.24"/><rect id="shape017" transform="matrix(0.427080804416496 0 0 0.427080804416496 400.512306952466 407.963787324628)" fill="#000000" stroke="#000000" stroke-width="1.2" stroke-linecap="square" stroke-linejoin="bevel" width="120.48" height="120.24"/><rect id="shape018" transform="matrix(0.427080815930165 0 0 0.427080815930165 451.947647775269 407.951264553863)" fill="none" stroke="#000000" stroke-width="1.2" stroke-linecap="square" stroke-linejoin="bevel" width="120.48" height="120.24"/><rect id="shape026" transform="matrix(0.427080806838894 0 0 0.427080806838894 503.387633411354 407.938740809199)" fill="none" stroke="#000000" stroke-width="1.2" stroke-linecap="square" stroke-linejoin="bevel" width="120.48" height="120.24"/><rect id="shape036" transform="matrix(0.427080794362744 0 0 0.427080794362744 297.610095022614 407.930006380373)" fill="none" stroke="#000000" stroke-width="1.2" stroke-linecap="square" stroke-linejoin="bevel" width="120.48" height="120.24"/><rect id="shape045" transform="matrix(0.427080809829568 0 0 0.427080809829568 349.066227430896 459.329068572812)" fill="#000000" stroke="#000000" stroke-width="1.2" stroke-linecap="square" stroke-linejoin="bevel" width="120.48" height="120.24"/><rect id="shape055" transform="matrix(0.427080815352978 0 0 0.427080815352978 400.518646246211 459.333629677789)" fill="none" stroke="#000000" stroke-width="1.2" stroke-linecap="square" stroke-linejoin="bevel" width="120.48" height="120.24"/><rect id="shape0111" transform="matrix(0.427080826866648 0 0 0.427080826866648 451.953988386146 459.321106906705)" fill="none" stroke="#000000" stroke-width="1.2" stroke-linecap="square" stroke-linejoin="bevel" width="120.48" height="120.24"/><rect id="shape0211" transform="matrix(0.427080817775376 0 0 0.427080817775376 503.375944732509 459.272452752456)" fill="none" stroke="#000000" stroke-width="1.2" stroke-linecap="square" stroke-linejoin="bevel" width="120.48" height="120.24"/><rect id="shape0311" transform="matrix(0.427080805299226 0 0 0.427080805299226 297.598401074316 459.263718323407)" fill="#000000" stroke="#000000" stroke-width="1.2" stroke-linecap="square" stroke-linejoin="bevel" width="120.48" height="120.24"/><rect id="shape0411" transform="matrix(0.427080820066143 0 0 0.427080820066143 349.064703146404 510.602465297781)" fill="none" stroke="#000000" stroke-width="1.2" stroke-linecap="square" stroke-linejoin="bevel" width="120.48" height="120.24"/><rect id="shape0511" transform="matrix(0.427080825589553 0 0 0.427080825589553 400.517123194966 510.607026402867)" fill="none" stroke="#000000" stroke-width="1.2" stroke-linecap="square" stroke-linejoin="bevel" width="120.48" height="120.24"/><rect id="shape0121" transform="matrix(0.427080837103222 0 0 0.427080837103222 451.952466567741 510.594503631482)" fill="none" stroke="#000000" stroke-width="1.2" stroke-linecap="square" stroke-linejoin="bevel" width="120.48" height="120.24"/><rect id="shape0221" transform="matrix(0.42708082801195 0 0 0.42708082801195 503.374424146622 510.545849476067)" fill="none" stroke="#000000" stroke-width="1.2" stroke-linecap="square" stroke-linejoin="bevel" width="120.48" height="120.24"/><rect id="shape0321" transform="matrix(0.4270808155358 0 0 0.4270808155358 297.596875556206 510.537115046809)" fill="none" stroke="#000000" stroke-width="1.2" stroke-linecap="square" stroke-linejoin="bevel" width="120.48" height="120.24"/><rect id="shape0421" transform="matrix(0.42708083028316 0 0 0.42708083028316 349.057202284134 561.925953682969)" fill="none" stroke="#000000" stroke-width="1.2" stroke-linecap="square" stroke-linejoin="bevel" width="120.48" height="120.24"/><rect id="shape0521" transform="matrix(0.427080835806569 0 0 0.427080835806569 400.509623563588 561.930514788165)" fill="none" stroke="#000000" stroke-width="1.2" stroke-linecap="square" stroke-linejoin="bevel" width="120.48" height="120.24"/><rect id="shape0131" transform="matrix(0.427080847320239 0 0 0.427080847320239 451.944968166845 561.917992016481)" fill="none" stroke="#000000" stroke-width="1.2" stroke-linecap="square" stroke-linejoin="bevel" width="120.48" height="120.24"/><rect id="shape0231" transform="matrix(0.427080838228968 0 0 0.427080838228968 503.366926975889 561.869337859903)" fill="none" stroke="#000000" stroke-width="1.2" stroke-linecap="square" stroke-linejoin="bevel" width="120.48" height="120.24"/><rect id="shape0331" transform="matrix(0.427080825752817 0 0 0.427080825752817 297.589373462675 561.860603430434)" fill="#000000" stroke="#000000" stroke-width="1.2" stroke-linecap="square" stroke-linejoin="bevel" width="120.48" height="120.24"/><rect id="shape0431" transform="matrix(0.42708083028316 0 0 0.42708083028316 349.057767549508 613.272732230503)" fill="#000000" stroke="#000000" stroke-width="1.2" stroke-linecap="square" stroke-linejoin="bevel" width="120.48" height="120.24"/><rect id="shape0531" transform="matrix(0.427080835806569 0 0 0.427080835806569 400.510188828962 613.277293335699)" fill="none" stroke="#000000" stroke-width="1.2" stroke-linecap="square" stroke-linejoin="bevel" width="120.48" height="120.24"/><rect id="shape0141" transform="matrix(0.427080847320239 0 0 0.427080847320239 451.945533432219 613.264770564015)" fill="none" stroke="#000000" stroke-width="1.2" stroke-linecap="square" stroke-linejoin="bevel" width="120.48" height="120.24"/><rect id="shape0241" transform="matrix(0.427080838228968 0 0 0.427080838228968 503.367492241263 613.216116407436)" fill="none" stroke="#000000" stroke-width="1.2" stroke-linecap="square" stroke-linejoin="bevel" width="120.48" height="120.24"/><rect id="shape0341" transform="matrix(0.427080825752817 0 0 0.427080825752817 297.58993872805 613.207381977968)" fill="none" stroke="#000000" stroke-width="1.2" stroke-linecap="square" stroke-linejoin="bevel" width="120.48" height="120.24"/><rect id="shape04" transform="matrix(0.427080798893086 0 0 0.427080798893086 91.7929601248088 407.976625909465)" fill="none" stroke="#000000" stroke-width="1.2" stroke-linecap="square" stroke-linejoin="bevel" width="120.48" height="120.24"/><rect id="shape019" transform="matrix(0.427080804416496 0 0 0.427080804416496 143.245377622554 407.981187014325)" fill="none" stroke="#000000" stroke-width="1.2" stroke-linecap="square" stroke-linejoin="bevel" width="120.48" height="120.24"/><rect id="shape0110" transform="matrix(0.427080815930165 0 0 0.427080815930165 194.680718445358 407.968664243561)" fill="none" stroke="#000000" stroke-width="1.2" stroke-linecap="square" stroke-linejoin="bevel" width="120.48" height="120.24"/><rect id="shape027" transform="matrix(0.427080806838894 0 0 0.427080806838894 246.120704081442 407.956140498897)" fill="#000000" stroke="#000000" stroke-width="1.2" stroke-linecap="square" stroke-linejoin="bevel" width="120.48" height="120.24"/><rect id="shape037" transform="matrix(0.427080794362744 0 0 0.427080794362744 40.3431656927023 407.947406070071)" fill="none" stroke="#000000" stroke-width="1.2" stroke-linecap="square" stroke-linejoin="bevel" width="120.48" height="120.24"/><rect id="shape046" transform="matrix(0.427080809829568 0 0 0.427080809829568 90.839298135493 459.34646826251)" fill="none" stroke="#000000" stroke-width="1.2" stroke-linecap="square" stroke-linejoin="bevel" width="120.48" height="120.24"/><rect id="shape056" transform="matrix(0.427080815352978 0 0 0.427080815352978 142.291716950807 459.351029367487)" fill="#000000" stroke="#000000" stroke-width="1.2" stroke-linecap="square" stroke-linejoin="bevel" width="120.48" height="120.24"/><rect id="shape0112" transform="matrix(0.427080826866648 0 0 0.427080826866648 193.727059090743 459.338506596402)" fill="#000000" stroke="#000000" stroke-width="1.2" stroke-linecap="square" stroke-linejoin="bevel" width="120.48" height="120.24"/><rect id="shape0212" transform="matrix(0.427080817775376 0 0 0.427080817775376 246.109015402597 459.289852442154)" fill="#000000" stroke="#000000" stroke-width="1.2" stroke-linecap="square" stroke-linejoin="bevel" width="120.48" height="120.24"/><rect id="shape0312" transform="matrix(0.427080805299226 0 0 0.427080805299226 40.3314717444042 459.281118013105)" fill="none" stroke="#000000" stroke-width="1.2" stroke-linecap="square" stroke-linejoin="bevel" width="120.48" height="120.24"/><rect id="shape0412" transform="matrix(0.427080820066143 0 0 0.427080820066143 91.7977738164927 510.619864987479)" fill="#000000" stroke="#000000" stroke-width="1.2" stroke-linecap="square" stroke-linejoin="bevel" width="120.48" height="120.24"/><rect id="shape0512" transform="matrix(0.427080825589553 0 0 0.427080825589553 143.250193865055 510.624426092565)" fill="none" stroke="#000000" stroke-width="1.2" stroke-linecap="square" stroke-linejoin="bevel" width="120.48" height="120.24"/><rect id="shape0122" transform="matrix(0.427080837103222 0 0 0.427080837103222 194.685537237829 510.61190332118)" fill="none" stroke="#000000" stroke-width="1.2" stroke-linecap="square" stroke-linejoin="bevel" width="120.48" height="120.24"/><rect id="shape0222" transform="matrix(0.42708082801195 0 0 0.42708082801195 246.10749481671 510.563249165765)" fill="#000000" stroke="#000000" stroke-width="1.2" stroke-linecap="square" stroke-linejoin="bevel" width="120.48" height="120.24"/><rect id="shape0322" transform="matrix(0.4270808155358 0 0 0.4270808155358 40.3299462262944 510.554514736506)" fill="none" stroke="#000000" stroke-width="1.2" stroke-linecap="square" stroke-linejoin="bevel" width="120.48" height="120.24"/><rect id="shape0422" transform="matrix(0.42708083028316 0 0 0.42708083028316 91.7902729542221 561.943353372667)" fill="none" stroke="#000000" stroke-width="1.2" stroke-linecap="square" stroke-linejoin="bevel" width="120.48" height="120.24"/><rect id="shape0522" transform="matrix(0.427080835806569 0 0 0.427080835806569 143.242694233676 561.947914477863)" fill="none" stroke="#000000" stroke-width="1.2" stroke-linecap="square" stroke-linejoin="bevel" width="120.48" height="120.24"/><rect id="shape0132" transform="matrix(0.427080847320239 0 0 0.427080847320239 194.678038836933 561.935391706179)" fill="#000000" stroke="#000000" stroke-width="1.2" stroke-linecap="square" stroke-linejoin="bevel" width="120.48" height="120.24"/><rect id="shape0232" transform="matrix(0.427080838228968 0 0 0.427080838228968 246.099997645978 561.8867375496)" fill="none" stroke="#000000" stroke-width="1.2" stroke-linecap="square" stroke-linejoin="bevel" width="120.48" height="120.24"/><rect id="shape0332" transform="matrix(0.427080825752817 0 0 0.427080825752817 40.3224441327631 561.878003120132)" fill="none" stroke="#000000" stroke-width="1.2" stroke-linecap="square" stroke-linejoin="bevel" width="120.48" height="120.24"/><rect id="shape0432" transform="matrix(0.42708083028316 0 0 0.42708083028316 91.7908382195968 613.290131920201)" fill="none" stroke="#000000" stroke-width="1.2" stroke-linecap="square" stroke-linejoin="bevel" width="120.48" height="120.24"/><rect id="shape0532" transform="matrix(0.427080835806569 0 0 0.427080835806569 143.243259499051 613.294693025397)" fill="#000000" stroke="#000000" stroke-width="1.2" stroke-linecap="square" stroke-linejoin="bevel" width="120.48" height="120.24"/><rect id="shape0142" transform="matrix(0.427080847320239 0 0 0.427080847320239 194.678604102307 613.282170253713)" fill="none" stroke="#000000" stroke-width="1.2" stroke-linecap="square" stroke-linejoin="bevel" width="120.48" height="120.24"/><rect id="shape0242" transform="matrix(0.427080838228968 0 0 0.427080838228968 246.100562911351 613.233516097134)" fill="none" stroke="#000000" stroke-width="1.2" stroke-linecap="square" stroke-linejoin="bevel" width="120.48" height="120.24"/><rect id="shape0342" transform="matrix(0.427080825752817 0 0 0.427080825752817 40.3230093981381 613.224781667666)" fill="none" stroke="#000000" stroke-width="1.2" stroke-linecap="square" stroke-linejoin="bevel" width="120.48" height="120.24"/>
</svg>
