<svg xmlns="http://www.w3.org/2000/svg" xmlns:xlink="http://www.w3.org/1999/xlink" width="1202" height="2000" viewBox="0 0 1202 2000">
  <metadata><?xpacket begin="﻿" id="W5M0MpCehiHzreSzNTczkc9d"?>
<x:xmpmeta xmlns:x="adobe:ns:meta/" x:xmptk="Adobe XMP Core 5.6-c138 79.159824, 2016/09/14-01:09:01        ">
   <rdf:RDF xmlns:rdf="http://www.w3.org/1999/02/22-rdf-syntax-ns#">
      <rdf:Description rdf:about=""/>
   </rdf:RDF>
</x:xmpmeta>
                                                                                                    
                                                                                                    
                                                                                                    
                                                                                                    
                                                                                                    
                                                                                                    
                                                                                                    
                                                                                                    
                                                                                                    
                                                                                                    
                                                                                                    
                                                                                                    
                                                                                                    
                                                                                                    
                                                                                                    
                                                                                                    
                                                                                                    
                                                                                                    
                                                                                                    
                                                                                                    
                           
<?xpacket end="w"?></metadata>
<defs>
    <style>
      .cls-1, .cls-4 {
        fill: #f52929;
      }

      .cls-1, .cls-2, .cls-3, .cls-4, .cls-5 {
        fill-rule: evenodd;
      }

      .cls-2 {
        opacity: 0.66;
        mix-blend-mode: multiply;
        fill: url(#linear-gradient);
      }

      .cls-3 {
        fill: #303030;
      }

      .cls-4 {
        mix-blend-mode: color;
      }

      .cls-5 {
        fill: #630;
      }
    </style>
    <linearGradient id="linear-gradient" x1="6120.155" y1="717.281" x2="6120.155" y2="796.594" gradientUnits="userSpaceOnUse">
      <stop offset="0"/>
      <stop offset="1" stop-opacity="0"/>
    </linearGradient>
  </defs>
  <g id="Artboard_2_copy_8" data-name="Artboard 2 copy 8">
    <g>
      <g id="pieds">
        <g id="sans_colerette" data-name="sans colerette">
          <path class="cls-1" d="M6233.25,1199.63l8.54,555.13s-23.22,180.89-102.51,204.97-155.43-64.07-170.85-153.73,25.63-743.02,25.63-743.02l32.95-358.7h190.38Z" transform="translate(-5497 -41)"/>
          <path id="ombre_pied_copy_2" data-name="ombre pied copy 2" class="cls-2" d="M6220.73,796.605l-2.84-76.045-192.13-3.279-6.16,77.864" transform="translate(-5497 -41)"/>
        </g>
      </g>
      <g id="chapeaux">
        <g id="flat">
          <g id="SHAPES">
            <path class="cls-3" d="M6019.69,746.984L5746.32,635.957S5634.7,594.985,5601.1,533.472s-34.95-115.855,187.93-153.729,346.97-36.037,512.56-17.081,357.53,80.56,341.71,128.107-123.63,169.488-427.13,256.215C6107.77,772.279,6019.69,746.984,6019.69,746.984Z" transform="translate(-5497 -41)"/>
            <path id="Shape_6_copy_3" data-name="Shape 6 copy 3" class="cls-4" d="M6019.69,746.984L5746.32,635.957S5634.7,594.985,5601.1,533.472s-34.95-115.855,187.93-153.729,346.97-36.037,512.56-17.081,357.53,80.56,341.71,128.107-123.63,169.488-427.13,256.215C6107.77,772.279,6019.69,746.984,6019.69,746.984ZM5601.1,533.472c-33.61-61.513-34.95-115.855,187.93-153.729s346.97-36.037,512.56-17.081,357.53,80.56,341.71,128.107-99.96,117.267-367.34,128.107C5762.34,639.7,5602.16,535.421,5601.1,533.472Z" transform="translate(-5497 -41)"/>
            <path id="Shape_6_copy" data-name="Shape 6 copy" class="cls-1" d="M5601.1,533.472c-33.61-61.513-34.95-115.855,187.93-153.729s346.97-36.037,512.56-17.081,357.53,80.56,341.71,128.107-99.96,117.267-367.34,128.107C5762.34,639.7,5602.16,535.421,5601.1,533.472Z" transform="translate(-5497 -41)"/>
          </g>
          <path id="POINTS" class="cls-5" d="M5684.69,444.062a25.625,25.625,0,1,1-25.63,25.625A25.622,25.622,0,0,1,5684.69,444.062Zm77.67,2.994c10.9-13.793,27.03-22.488,36.03-19.422s7.46,16.733-3.43,30.525-27.02,22.488-36.02,19.422S5751.47,460.848,5762.36,447.056Zm264.04,39.713c-26.11-1.543-53.65,15.66-34.17,25.622s26.01,14.313,34.17,0S6052.51,488.313,6026.4,486.769Zm76.88-59.783c-24.45,16.83-26.95,25.737,0,42.7s25.68,4.508,34.17-8.54-6.96-31-17.08-34.162-17.09,0-17.09,0h0Zm102.51,0c24.41,12.546,9.87,28.647,0,34.162s-27.1-5.406-25.62-17.081S6181.39,414.44,6205.79,426.986Zm112.52,21.46c-3.86,9.662-16.2,8.791,8.54,17.08s-1.94-11.036,8.54-17.08-10.38-49.483-17.08-25.622S6322.16,438.782,6318.31,448.446Zm118.14-12.92c25.09,18.285,87.41,20.324,51.25-8.54s-52.02-28.145-59.8-17.081S6411.35,417.242,6436.45,435.526Zm85.42,76.865c-10.35,15.673-5.25,17.006-17.08,25.621s-3.98,31.259,17.08,17.081,41.57-31.191,34.17-51.243S6532.22,496.717,6521.87,512.391Zm-162.31,25.621s23.64,14.124,8.54,17.081-38.96,15.606-34.17,0S6359.56,538.012,6359.56,538.012Zm-230.65-25.621c15.71,21.738,29.94,43.621,8.54,51.243s-48.27,2.482-51.25-17.081,11.4-44.422,25.62-42.7S6113.2,490.653,6128.91,512.391Zm-308.24,84.558c1.64-11.965-8.41-27.016,17.01-20.979s47.04-4.74,39.99,15.022m-150.26-52.98c5.84,25.75,17,35.38,0,42.7s-35.63-8.589-34.17-25.622,7.01-22.786,17.08-25.621S5721.57,512.262,5727.41,538.012Zm187.93-102.486c-12.16,22.624-50.51,41.309-25.62,51.243s50.49-2.686,51.25-17.081,12.09-26.8,0-34.162S5927.51,412.9,5915.34,435.526Zm346.38,50.161a29.5,29.5,0,1,1-29.5,29.5A29.5,29.5,0,0,1,6261.72,485.687Zm117.15-86.065c-12.53-15.882-31.08-25.894-41.44-22.363s-8.59,19.267,3.95,35.149,31.08,25.893,41.44,22.363S6391.41,415.5,6378.87,399.622Zm-263.72-51.135c30.03-1.777,61.72,18.031,39.3,29.5s-29.92,16.481-39.3,0S6085.11,350.264,6115.15,348.487Zm-118.44,8.026c28.13,19.379,31,29.634,0,49.17s-29.54,5.19-39.31-9.834,8.01-35.7,19.65-39.336,19.66,0,19.66,0h0Zm243.77,8.54c-28.07,14.447-11.35,32.986,0,39.336s31.18-6.225,29.48-19.668S6268.55,350.607,6240.48,365.053Zm-384.41,8.54c-28.07,14.447-11.35,32.987,0,39.337s31.18-6.226,29.48-19.668S5884.14,359.147,5856.07,373.593Zm-4.15,159.516c4.43,11.127,18.62,10.124-9.83,19.669s2.23-12.709-9.83-19.669,11.94-56.977,19.66-29.5S5847.49,521.983,5851.92,533.109Zm-235.03-48.867c7.62,12.158,3.87,13.192,12.58,19.875s2.93,24.249-12.58,13.25-30.6-24.195-25.16-39.75S5609.27,472.084,5616.89,484.242Zm65.01-9.887s-27.19,16.263-9.83,19.668,44.83,17.97,39.31,0S5681.9,474.355,5681.9,474.355Zm300.78,99.136c3.43-22.526-13.11-51.15-29.48-49.17s-1.58-15.2-19.65,9.834-34.44,50.229-9.83,59m485.37-118.8c-6.72,29.651-19.57,40.739,0,49.171s40.98-9.889,39.3-29.5-8.06-26.237-19.65-29.5S6415.8,444.705,6409.09,474.355Zm-653.12-46.766c-28.86,21.055-100.56,23.4-58.96-9.834s59.84-32.408,68.79-19.668S5784.84,406.535,5755.97,427.589Zm478.23,180.1c18.51-3.184,15.99-7.815,30.37-5.089s25.51-18.5.75-24.147-51.19-8.941-60.74,10.178S6215.68,610.875,6234.2,607.69Zm-200.14,11.2c-5.98-25.719-17.2-35.289-.23-42.7s35.67,8.4,34.31,25.44" transform="translate(-5497 -41)"/>
        </g>
      </g>
    </g>
  </g>
</svg>
