<svg xmlns="http://www.w3.org/2000/svg" xmlns:xlink="http://www.w3.org/1999/xlink" width="1202" height="2000" viewBox="0 0 1202 2000">
  <metadata><?xpacket begin="﻿" id="W5M0MpCehiHzreSzNTczkc9d"?>
<x:xmpmeta xmlns:x="adobe:ns:meta/" x:xmptk="Adobe XMP Core 5.6-c138 79.159824, 2016/09/14-01:09:01        ">
   <rdf:RDF xmlns:rdf="http://www.w3.org/1999/02/22-rdf-syntax-ns#">
      <rdf:Description rdf:about=""/>
   </rdf:RDF>
</x:xmpmeta>
                                                                                                    
                                                                                                    
                                                                                                    
                                                                                                    
                                                                                                    
                                                                                                    
                                                                                                    
                                                                                                    
                                                                                                    
                                                                                                    
                                                                                                    
                                                                                                    
                                                                                                    
                                                                                                    
                                                                                                    
                                                                                                    
                                                                                                    
                                                                                                    
                                                                                                    
                                                                                                    
                           
<?xpacket end="w"?></metadata>
<defs>
    <style>
      .cls-1 {
        fill: #01ad01;
      }

      .cls-1, .cls-2, .cls-3 {
        fill-rule: evenodd;
      }

      .cls-2 {
        opacity: 0.66;
        mix-blend-mode: multiply;
        fill: url(#linear-gradient);
      }

      .cls-3 {
        fill: #630;
      }
    </style>
    <linearGradient id="linear-gradient" x1="912.157" y1="2982.28" x2="912.157" y2="3061.59" gradientUnits="userSpaceOnUse">
      <stop offset="0"/>
      <stop offset="1" stop-opacity="0"/>
    </linearGradient>
  </defs>
  <g id="Artboard_1_copy_9" data-name="Artboard 1 copy 9">
    <g>
      <g id="pieds">
        <g id="sans_colerette" data-name="sans colerette">
          <path class="cls-1" d="M1025.25,3464.63l8.54,555.13s-23.22,180.89-102.508,204.97S775.85,4160.66,760.429,4071s25.628-743.02,25.628-743.02l32.95-358.7H1009.39Z" transform="translate(-289 -2306)"/>
          <path id="ombre_pied_copy_2" data-name="ombre pied copy 2" class="cls-2" d="M1012.73,3061.6l-2.84-76.04-192.128-3.28-6.163,77.87" transform="translate(-289 -2306)"/>
        </g>
      </g>
      <g id="chapeaux">
        <g id="BELL">
          <path id="bell-2" data-name="bell" class="cls-1" d="M654.173,2975.52c-52.395-27.44-98.612-13.7-73.139-151.43s94.847-317.52,179.4-375.78,112.629-57.69,170.853-59.78,142.258,25.39,205.028,111.03,111.05,150.75,111.05,298.91-12.57,188.61-162.31,213.51C900.98,3042.6,664.123,2980.73,654.173,2975.52Z" transform="translate(-289 -2306)"/>
          <path id="POINTS" class="cls-3" d="M818.4,2751.77c-26.112-1.54-53.653,15.66-34.17,25.62s26.01,14.31,34.17,0S844.511,2753.31,818.4,2751.77Zm76.884-59.78c-24.455,16.83-26.954,25.73,0,42.7s25.679,4.51,34.171-8.54-6.962-31-17.086-34.16-17.085,0-17.085,0h0Zm102.512,0c24.406,12.54,9.866,28.64,0,34.16s-27.107-5.41-25.628-17.08S973.39,2679.44,997.794,2691.99Zm102.516-8.54c-3.86,9.66-16.2,8.79,8.54,17.08s-1.94-11.04,8.54-17.08-10.38-49.49-17.08-25.63S1104.16,2673.78,1100.31,2683.45Zm51.25,119.56s23.64,14.13,8.54,17.08-38.96,15.61-34.17,0S1151.56,2803.01,1151.56,2803.01Zm-230.65-25.62c15.708,21.74,29.938,43.62,8.543,51.24s-48.273,2.49-51.256-17.08,11.4-44.42,25.628-42.7S905.2,2755.65,920.91,2777.39Zm-68.341,102.49c3.978,18.85,6.069,26.67-8.543,25.62s-12.47-13.06-8.542-25.62S848.591,2861.02,852.569,2879.88Zm-51.256,59.78c16.677,21.9,17.6,20.77,0,25.62s-44.983,9.49-42.713-8.54,16.142-24.65,25.628-25.62S784.635,2917.76,801.313,2939.66Zm-171.631-78.69c25.421,6.04,47.043-4.74,39.984,15.02s-23.317,49.33-42.021,38.96-16.617-21.03-14.974-33S604.262,2854.93,629.682,2860.97Zm77.662-160.44c-12.164,22.62-50.516,41.3-25.628,51.24s50.491-2.69,51.256-17.08,12.087-26.8,0-34.16S719.508,2677.9,707.344,2700.53Zm346.376,50.16a29.5,29.5,0,1,1-29.5,29.5A29.5,29.5,0,0,1,1053.72,2750.69Zm107.15-116.07c-12.53-15.88-31.08-25.89-41.44-22.36s-8.59,19.27,3.95,35.15,31.08,25.89,41.44,22.36S1173.41,2650.5,1160.87,2634.62Zm-303.723-31.13c30.038-1.78,61.718,18.03,39.308,29.5s-29.921,16.48-39.308,0S827.11,2605.26,857.147,2603.49Zm-88.441,8.02c28.131,19.38,31.006,29.64,0,49.17s-29.539,5.19-39.307-9.83,8.007-35.7,19.653-39.34,19.654,0,19.654,0h0Zm181.07,8.54c-28.072,14.45-11.352,32.99,0,39.34s31.182-6.23,29.481-19.67S977.849,2605.61,949.776,2620.05Zm-305.86,178.06c4.429,11.13,18.627,10.12-9.827,19.67s2.23-12.71-9.827-19.67,11.939-56.98,19.654-29.5S639.487,2786.98,643.916,2798.11Zm544.554,105.07c-28.87,21.06-100.56,23.4-58.96-9.83s59.84-32.41,68.78-19.67S1217.33,2882.13,1188.47,2903.18Zm-462.924-74.02c-18.07,25.03-34.438,50.22-9.827,59s55.529,2.86,58.961-19.67-13.112-51.15-29.48-49.17S743.615,2804.12,725.546,2829.16Zm305.864,49.94c-4.58,21.72-6.99,30.72,9.82,29.51s14.35-15.04,9.83-29.51S1035.98,2857.39,1031.41,2879.1Zm-111.9,26.14c-19.184,25.22-20.24,23.92,0,29.5s51.745,10.93,49.134-9.83-18.568-28.38-29.48-29.5S938.7,2880.02,919.514,2905.24Zm281.576-165.88c-6.72,29.65-19.57,40.73,0,49.17s40.98-9.89,39.3-29.51-8.06-26.23-19.65-29.5S1207.8,2709.7,1201.09,2739.36Zm-106.62,201.55a25.625,25.625,0,1,1-25.63,25.62A25.619,25.619,0,0,1,1094.47,2940.91Zm-72.79,30.28-9.82,19.67s44.82,17.97,39.3,0S1021.68,2971.19,1021.68,2971.19Zm68.75-467.52c24.97-16.05,27.75-24.88,1.34-42.68s-25.53-5.31-34.42,7.47,5.99,31.2,16.01,34.68,17.07,0.53,17.07.53h0Zm-102.459-3.2c-24-13.3-8.968-28.94,1.068-34.15s26.921,6.25,25.081,17.88S1011.97,2513.77,987.971,2500.47Zm-102.73,5.33c4.152-9.54,16.461-8.28-8-17.34s1.591,11.09-9.073,16.81,8.826,49.78,16.275,26.14S881.091,2515.34,885.241,2505.8Zm-119.6,53.2c-10.246,25.55-8.809,25.76-21.994,13.15s-31.217-33.75-14.578-41.05,29.439,1.21,35.14,8.86S775.889,2533.45,765.643,2559ZM933.89,2449.99a29.5,29.5,0,1,1,30.389-28.57A29.5,29.5,0,0,1,933.89,2449.99ZM823.176,2552.71c12.03,16.26,30.261,26.85,40.72,23.64s9.188-18.98-2.842-35.25-30.26-26.85-40.72-23.65S811.147,2536.44,823.176,2552.71Zm302.6,40.61c-30.08.84-61.12-19.95-38.37-30.71s30.43-15.54,39.29,1.22S1155.86,2592.48,1125.78,2593.32Zm-92.07-19.45c28.52-13.56,12.38-32.62,1.23-39.32s-31.36,5.25-30.08,18.74S1005.2,2587.43,1033.71,2573.87ZM821.641,2437.28c-30.755-2.67-60.782-3.8-55.692,21.83s26.028,49.14,47.127,40.53,37.184-37.49,27.088-50.53S852.4,2439.96,821.641,2437.28Zm89.789,539.41c-20.112-2.39-40.41,3.64-45.34,13.48s7.379,19.74,27.49,22.14,40.411-3.64,45.339-13.47S931.541,2979.09,911.43,2976.69Z" transform="translate(-289 -2306)"/>
        </g>
      </g>
    </g>
  </g>
</svg>
