<svg xmlns="http://www.w3.org/2000/svg" xmlns:xlink="http://www.w3.org/1999/xlink" width="1202" height="2000" viewBox="0 0 1202 2000">
  <metadata><?xpacket begin="﻿" id="W5M0MpCehiHzreSzNTczkc9d"?>
<x:xmpmeta xmlns:x="adobe:ns:meta/" x:xmptk="Adobe XMP Core 5.6-c138 79.159824, 2016/09/14-01:09:01        ">
   <rdf:RDF xmlns:rdf="http://www.w3.org/1999/02/22-rdf-syntax-ns#">
      <rdf:Description rdf:about=""/>
   </rdf:RDF>
</x:xmpmeta>
                                                                                                    
                                                                                                    
                                                                                                    
                                                                                                    
                                                                                                    
                                                                                                    
                                                                                                    
                                                                                                    
                                                                                                    
                                                                                                    
                                                                                                    
                                                                                                    
                                                                                                    
                                                                                                    
                                                                                                    
                                                                                                    
                                                                                                    
                                                                                                    
                                                                                                    
                                                                                                    
                           
<?xpacket end="w"?></metadata>
<defs>
    <style>
      .cls-1 {
        fill: #01a901;
      }

      .cls-1, .cls-2, .cls-3, .cls-4, .cls-5 {
        fill-rule: evenodd;
      }

      .cls-2 {
        fill: url(#linear-gradient);
      }

      .cls-3 {
        fill: url(#linear-gradient-2);
      }

      .cls-4 {
        mix-blend-mode: multiply;
        fill: url(#linear-gradient-3);
      }

      .cls-5 {
        fill: #630;
      }
    </style>
    <linearGradient id="linear-gradient" x1="3518.34" y1="865.813" x2="3518.34" y2="791" gradientUnits="userSpaceOnUse">
      <stop offset="0" stop-opacity="0.2"/>
      <stop offset="1" stop-opacity="0"/>
    </linearGradient>
    <linearGradient id="linear-gradient-2" x1="3512.907" y1="960.563" x2="3509.373" y2="912.438" xlink:href="#linear-gradient"/>
    <linearGradient id="linear-gradient-3" x1="3517.655" y1="740.281" x2="3517.655" y2="819.594" gradientUnits="userSpaceOnUse">
      <stop offset="0" stop-opacity="0.29"/>
      <stop offset="1" stop-opacity="0"/>
    </linearGradient>
  </defs>
  <g id="Artboard_2_copy_6" data-name="Artboard 2 copy 6">
    <g>
      <g id="pieds">
        <g id="double_colerettes" data-name="double colerettes">
          <path id="Shape_1_copy" data-name="Shape 1 copy" class="cls-1" d="M3689.05,883.631c-26.72,15.025-60.85,10.46-60.85,35.41,0,11.93.61,24.159,1.26,33.682,10.64-.476,16.88-0.768,16.88-0.768s62.22-19.981,8.54,51.245c-28.15,37.34-25.63,196.43-25.63,196.43l8.54,555.13s-23.22,180.89-102.51,204.97-155.43-64.07-170.85-153.73,25.63-743.02,25.63-743.02-0.77-33.68-17.09-51.24c-15.71-16.9-51.82-48.078,17.09-51.026V926.333s3.27-10.306-34.17-17.081-148.2-36.6,25.62-42.7q18.18-.639,35.24-1.2l7.48-128.363,187.94,1.46,6.38,121.291c30.92-.722,51.46-1.2,61.96-1.725C3708.18,856.625,3715.77,868.606,3689.05,883.631Z" transform="translate(-2893 -41)"/>
          <path id="Shape_5_copy" data-name="Shape 5 copy" class="cls-2" d="M3422.01,798.606l-4.92,67.193,202.51-4.635-3.99-70.158" transform="translate(-2893 -41)"/>
          <path class="cls-3" d="M3391.01,924.015l-1.17,36.55,242.59-7.034s-5.72-25.173-3.45-41.1" transform="translate(-2893 -41)"/>
          <path id="ombre_pied_copy_3" data-name="ombre pied copy 3" class="cls-4" d="M3615.73,819.605l-2.84-76.045-189.13-3.279-4.16,77.864" transform="translate(-2893 -41)"/>
        </g>
      </g>
      <g id="chapeaux">
        <g id="conical">
          <path id="concical" class="cls-1" d="M3150.86,601.795s-45.74,54.547,34.17,85.405,141.38,71.4,324.62,68.324S3792.24,721.3,3834.27,687.2s55.3-57.814,8.55-128.107-168.21-288.161-222.11-341.619-86.78-139.24-136.68-76.864S3150.86,601.795,3150.86,601.795Z" transform="translate(-2893 -41)"/>
          <path id="POINTS" class="cls-5" d="M3422.4,486.769c-26.11-1.543-53.66,15.66-34.17,25.622s26.01,14.313,34.17,0S3448.51,488.313,3422.4,486.769Zm76.88-59.783c-24.45,16.83-26.95,25.737,0,42.7s25.68,4.508,34.17-8.54-6.96-31-17.08-34.162-17.09,0-17.09,0h0Zm102.51,0c24.41,12.546,9.87,28.647,0,34.162s-27.1-5.406-25.62-17.081S3577.39,414.44,3601.79,426.986Zm102.52,15.8c-3.86,9.663-16.2,8.791,8.54,17.081s-1.94-11.037,8.54-17.081-10.38-49.483-17.08-25.621S3708.16,433.127,3704.31,442.79Zm51.25,95.222s23.64,14.124,8.54,17.081-38.96,15.606-34.17,0S3755.56,538.012,3755.56,538.012Zm-230.65-25.621c15.71,21.738,29.94,43.621,8.54,51.243s-48.27,2.482-51.25-17.081,11.4-44.422,25.62-42.7S3509.2,490.653,3524.91,512.391Zm-68.34,102.485c3.98,18.855,6.07,26.677-8.54,25.622s-12.47-13.062-8.55-25.622S3452.59,596.022,3456.57,614.876Zm-51.26,59.784c16.68,21.9,17.6,20.774,0,25.621s-44.98,9.487-42.71-8.54,16.14-24.648,25.63-25.622S3388.64,652.759,3405.31,674.66Zm-171.63-78.69c25.42,6.038,47.04-4.74,39.99,15.022s-23.32,49.332-42.03,38.955-16.61-21.032-14.97-33S3208.26,589.933,3233.68,595.97Zm77.66-160.444c-12.16,22.624-50.51,41.309-25.62,51.243s50.49-2.686,51.25-17.081,12.09-26.8,0-34.162S3323.51,412.9,3311.34,435.526Zm346.38,50.161a29.5,29.5,0,1,1-29.5,29.5A29.5,29.5,0,0,1,3657.72,485.687Zm-196.57-147.2c30.03-1.777,61.72,18.031,39.3,29.5s-29.92,16.481-39.3,0S3431.11,340.264,3461.15,338.487Zm-88.44,8.026c28.13,19.379,31,29.634,0,49.17s-29.54,5.19-39.31-9.834,8.01-35.7,19.65-39.336,19.66,0,19.66,0h0Zm181.07,8.54c-28.08,14.447-11.36,32.986,0,39.336s31.18-6.225,29.48-19.668S3581.85,340.607,3553.78,355.053ZM3247.92,533.109c4.43,11.127,18.62,10.124-9.83,19.669s2.23-12.709-9.83-19.669,11.94-56.977,19.66-29.5S3243.49,521.983,3247.92,533.109Zm544.55,105.073c-28.87,21.055-100.56,23.4-58.96-9.834s59.84-32.408,68.78-19.668S3821.33,617.128,3792.47,638.182Zm-462.92-74.027c-18.07,25.031-34.44,50.229-9.83,59.005s55.53,2.859,58.96-19.668-13.11-51.151-29.48-49.171S3347.62,539.125,3329.55,564.155ZM3635.41,614.1c-4.58,21.711-6.99,30.717,9.82,29.5s14.35-15.04,9.83-29.5S3639.98,592.394,3635.41,614.1Zm-111.9,26.137c-19.18,25.217-20.24,23.921,0,29.5s51.75,10.923,49.14-9.834-18.57-28.382-29.48-29.5S3542.7,615.023,3523.51,640.241Zm166.34,35.188c-28.07,14.447-11.35,32.986,0,39.336s31.19-6.225,29.48-19.668S3717.93,660.983,3689.85,675.429ZM4181.3,951.578c20.24,5.581,51.74,10.924,49.13-9.834M3591.97,235.469c-24-13.3-8.97-28.942,1.07-34.145s26.92,6.251,25.08,17.874S3615.97,248.772,3591.97,235.469ZM3489.24,240.8c4.15-9.538,16.46-8.281-8-17.339s1.59,11.092-9.08,16.8,8.83,49.783,16.28,26.143S3485.09,250.338,3489.24,240.8Zm35.12-46.878a29.5,29.5,0,1,1,30.39-28.566A29.49,29.49,0,0,1,3524.36,193.922Zm-97.18,93.785c12.03,16.265,30.26,26.853,40.72,23.647s9.18-18.989-2.85-35.254-30.26-26.853-40.72-23.648S3415.15,271.441,3427.18,287.707Zm252.6,90.615c-30.08.837-61.12-19.953-38.37-30.717s30.43-15.538,39.29,1.229S3709.86,377.485,3679.78,378.322Zm-42.07-69.454c28.52-13.562,12.38-32.615,1.23-39.317s-31.36,5.247-30.08,18.737S3609.2,322.429,3637.71,308.868ZM3481.66,710.377c30.05-1.618,61.63,18.358,39.16,29.709s-30.01,16.323-39.31-.207S3451.62,712,3481.66,710.377ZM3284.2,667.433c-28.14,14.3-11.52,32.925-.2,39.335s31.21-6.06,29.58-19.512S3312.35,653.135,3284.2,667.433Zm-119-14.291c-7.68-12.117-3.93-13.171-12.68-19.808s-3.06-24.232,12.51-13.317,30.73,24.033,25.37,39.617S3172.89,665.26,3165.2,653.142Z" transform="translate(-2893 -41)"/>
        </g>
      </g>
    </g>
  </g>
</svg>
