<svg xmlns="http://www.w3.org/2000/svg" xmlns:xlink="http://www.w3.org/1999/xlink" width="1202" height="2000" viewBox="0 0 1202 2000">
  <metadata><?xpacket begin="﻿" id="W5M0MpCehiHzreSzNTczkc9d"?>
<x:xmpmeta xmlns:x="adobe:ns:meta/" x:xmptk="Adobe XMP Core 5.6-c138 79.159824, 2016/09/14-01:09:01        ">
   <rdf:RDF xmlns:rdf="http://www.w3.org/1999/02/22-rdf-syntax-ns#">
      <rdf:Description rdf:about=""/>
   </rdf:RDF>
</x:xmpmeta>
                                                                                                    
                                                                                                    
                                                                                                    
                                                                                                    
                                                                                                    
                                                                                                    
                                                                                                    
                                                                                                    
                                                                                                    
                                                                                                    
                                                                                                    
                                                                                                    
                                                                                                    
                                                                                                    
                                                                                                    
                                                                                                    
                                                                                                    
                                                                                                    
                                                                                                    
                                                                                                    
                           
<?xpacket end="w"?></metadata>
<defs>
    <style>
      .cls-1 {
        fill: #ff2626;
      }

      .cls-1, .cls-2, .cls-3, .cls-4 {
        fill-rule: evenodd;
      }

      .cls-2 {
        opacity: 0.66;
        mix-blend-mode: multiply;
        fill: url(#linear-gradient);
      }

      .cls-3 {
        fill: #f52929;
      }

      .cls-4 {
        fill: #630;
      }
    </style>
    <linearGradient id="linear-gradient" x1="912.157" y1="717.281" x2="912.157" y2="796.594" gradientUnits="userSpaceOnUse">
      <stop offset="0"/>
      <stop offset="1" stop-opacity="0"/>
    </linearGradient>
  </defs>
  <g id="Artboard_1_copy_4" data-name="Artboard 1 copy 4">
    <g>
      <g id="pieds">
        <g id="sans_colerette" data-name="sans colerette">
          <path class="cls-1" d="M1025.25,1199.63l8.54,555.13s-23.22,180.89-102.508,204.97S775.85,1895.66,760.429,1806s25.628-743.02,25.628-743.02l32.95-358.7H1009.39Z" transform="translate(-289 -41)"/>
          <path id="ombre_pied_copy_2" data-name="ombre pied copy 2" class="cls-2" d="M1012.73,796.605l-2.84-76.045-192.128-3.279L811.6,795.145" transform="translate(-289 -41)"/>
        </g>
      </g>
      <g id="chapeaux">
        <g id="conical">
          <path id="concical" class="cls-3" d="M546.863,601.795S501.12,656.342,581.034,687.2s141.376,71.4,324.62,68.324S1188.24,721.3,1230.27,687.2s55.3-57.814,8.55-128.107-168.21-288.161-222.11-341.619S929.926,78.234,880.026,140.61,546.863,601.795,546.863,601.795Z" transform="translate(-289 -41)"/>
          <path id="POINTS" class="cls-4" d="M818.4,486.769c-26.112-1.543-53.653,15.66-34.17,25.622s26.01,14.313,34.17,0S844.511,488.313,818.4,486.769Zm76.884-59.783c-24.455,16.83-26.954,25.737,0,42.7s25.679,4.508,34.171-8.54-6.962-31-17.086-34.162-17.085,0-17.085,0h0Zm102.512,0c24.406,12.546,9.866,28.647,0,34.162s-27.107-5.406-25.628-17.081S973.39,414.44,997.794,426.986Zm102.516,15.8c-3.86,9.663-16.2,8.791,8.54,17.081s-1.94-11.037,8.54-17.081-10.38-49.483-17.08-25.621S1104.16,433.127,1100.31,442.79Zm51.25,95.222s23.64,14.124,8.54,17.081-38.96,15.606-34.17,0S1151.56,538.012,1151.56,538.012ZM920.91,512.391c15.708,21.738,29.938,43.621,8.543,51.243s-48.273,2.482-51.256-17.081,11.4-44.422,25.628-42.7S905.2,490.653,920.91,512.391ZM852.569,614.876c3.978,18.855,6.069,26.677-8.543,25.622s-12.47-13.062-8.542-25.622S848.591,596.022,852.569,614.876ZM801.313,674.66c16.677,21.9,17.6,20.774,0,25.621s-44.983,9.487-42.713-8.54,16.142-24.648,25.628-25.622S784.635,652.759,801.313,674.66ZM629.682,595.97c25.421,6.038,47.043-4.74,39.984,15.022s-23.317,49.332-42.021,38.955-16.617-21.032-14.974-33S604.262,589.933,629.682,595.97Zm77.662-160.444c-12.164,22.624-50.516,41.309-25.628,51.243s50.491-2.686,51.256-17.081,12.087-26.8,0-34.162S719.508,412.9,707.344,435.526Zm346.376,50.161a29.5,29.5,0,1,1-29.5,29.5A29.5,29.5,0,0,1,1053.72,485.687Zm-196.573-147.2c30.038-1.777,61.718,18.031,39.308,29.5s-29.921,16.481-39.308,0S827.11,340.264,857.147,338.487Zm-88.441,8.026c28.131,19.379,31.006,29.634,0,49.17s-29.539,5.19-39.307-9.834,8.007-35.7,19.653-39.336,19.654,0,19.654,0h0Zm181.07,8.54c-28.072,14.447-11.352,32.986,0,39.336s31.182-6.225,29.481-19.668S977.849,340.607,949.776,355.053ZM643.916,533.109c4.429,11.127,18.627,10.124-9.827,19.669s2.23-12.709-9.827-19.669,11.939-56.977,19.654-29.5S639.487,521.983,643.916,533.109ZM1188.47,638.182c-28.87,21.055-100.56,23.4-58.96-9.834s59.84-32.408,68.78-19.668S1217.33,617.128,1188.47,638.182ZM725.546,564.155c-18.07,25.031-34.438,50.229-9.827,59.005s55.529,2.859,58.961-19.668-13.112-51.151-29.48-49.171S743.615,539.125,725.546,564.155ZM1031.41,614.1c-4.58,21.711-6.99,30.717,9.82,29.5s14.35-15.04,9.83-29.5S1035.98,592.394,1031.41,614.1Zm-111.9,26.137c-19.184,25.217-20.24,23.921,0,29.5s51.745,10.923,49.134-9.834-18.568-28.382-29.48-29.5S938.7,615.023,919.514,640.241Zm166.336,35.188c-28.07,14.447-11.35,32.986,0,39.336s31.19-6.225,29.48-19.668S1113.93,660.983,1085.85,675.429ZM1577.3,951.578c20.24,5.581,51.74,10.924,49.13-9.834M987.971,235.469c-24-13.3-8.968-28.942,1.068-34.145s26.921,6.251,25.081,17.874S1011.97,248.772,987.971,235.469ZM885.241,240.8c4.152-9.538,16.461-8.281-8-17.339s1.591,11.092-9.073,16.8,8.826,49.783,16.275,26.143S881.091,250.338,885.241,240.8Zm35.124-46.878a29.5,29.5,0,1,1,30.389-28.566A29.492,29.492,0,0,1,920.365,193.922Zm-97.189,93.785c12.03,16.265,30.261,26.853,40.72,23.647s9.188-18.989-2.842-35.254-30.26-26.853-40.72-23.648S811.147,271.441,823.176,287.707Zm252.6,90.615c-30.08.837-61.12-19.953-38.37-30.717s30.43-15.538,39.29,1.229S1105.86,377.485,1075.78,378.322Zm-42.07-69.454c28.52-13.562,12.38-32.615,1.23-39.317s-31.36,5.247-30.08,18.737S1005.2,322.429,1033.71,308.868ZM877.665,710.377c30.046-1.618,61.621,18.358,39.15,29.709s-30.007,16.323-39.307-.207S847.617,712,877.665,710.377ZM680.2,667.433c-28.148,14.3-11.526,32.925-.207,39.335s31.214-6.06,29.584-19.512S708.353,653.135,680.2,667.433Zm-119-14.291c-7.686-12.117-3.937-13.171-12.683-19.808s-3.057-24.232,12.507-13.317,30.73,24.033,25.368,39.617S568.891,665.26,561.2,653.142Z" transform="translate(-289 -41)"/>
        </g>
      </g>
    </g>
  </g>
</svg>
