<svg xmlns="http://www.w3.org/2000/svg" xmlns:xlink="http://www.w3.org/1999/xlink" width="1202" height="2000" viewBox="0 0 1202 2000">
  <metadata><?xpacket begin="﻿" id="W5M0MpCehiHzreSzNTczkc9d"?>
<x:xmpmeta xmlns:x="adobe:ns:meta/" x:xmptk="Adobe XMP Core 5.6-c138 79.159824, 2016/09/14-01:09:01        ">
   <rdf:RDF xmlns:rdf="http://www.w3.org/1999/02/22-rdf-syntax-ns#">
      <rdf:Description rdf:about=""/>
   </rdf:RDF>
</x:xmpmeta>
                                                                                                    
                                                                                                    
                                                                                                    
                                                                                                    
                                                                                                    
                                                                                                    
                                                                                                    
                                                                                                    
                                                                                                    
                                                                                                    
                                                                                                    
                                                                                                    
                                                                                                    
                                                                                                    
                                                                                                    
                                                                                                    
                                                                                                    
                                                                                                    
                                                                                                    
                                                                                                    
                           
<?xpacket end="w"?></metadata>
<defs>
    <style>
      .cls-1 {
        fill: #ff2626;
      }

      .cls-1, .cls-2, .cls-3 {
        fill-rule: evenodd;
      }

      .cls-2 {
        opacity: 0.66;
        mix-blend-mode: multiply;
        fill: url(#linear-gradient);
      }

      .cls-3 {
        fill: #630;
      }
    </style>
    <linearGradient id="linear-gradient" x1="6120.155" y1="2982.28" x2="6120.155" y2="3061.59" gradientUnits="userSpaceOnUse">
      <stop offset="0"/>
      <stop offset="1" stop-opacity="0"/>
    </linearGradient>
  </defs>
  <g id="Artboard_1_copy_9" data-name="Artboard 1 copy 9">
    <g>
      <g id="pieds">
        <g id="sans_colerette" data-name="sans colerette">
          <path class="cls-1" d="M6233.25,3464.63l8.54,555.13s-23.22,180.89-102.51,204.97-155.43-64.07-170.85-153.73,25.63-743.02,25.63-743.02l32.95-358.7h190.38Z" transform="translate(-5497 -2306)"/>
          <path id="ombre_pied_copy_2" data-name="ombre pied copy 2" class="cls-2" d="M6220.73,3061.6l-2.84-76.04-192.13-3.28-6.16,77.87" transform="translate(-5497 -2306)"/>
        </g>
      </g>
      <g id="chapeaux">
        <g id="BELL">
          <path id="bell-2" data-name="bell" class="cls-1" d="M5862.17,2975.52c-52.39-27.44-98.61-13.7-73.14-151.43s94.85-317.52,179.4-375.78,112.63-57.69,170.85-59.78,142.26,25.39,205.03,111.03,111.05,150.75,111.05,298.91-12.57,188.61-162.31,213.51C6108.98,3042.6,5872.12,2980.73,5862.17,2975.52Z" transform="translate(-5497 -2306)"/>
          <path id="POINTS" class="cls-3" d="M6026.4,2751.77c-26.11-1.54-53.66,15.66-34.17,25.62s26.01,14.31,34.17,0S6052.51,2753.31,6026.4,2751.77Zm76.88-59.78c-24.45,16.83-26.95,25.73,0,42.7s25.68,4.51,34.17-8.54-6.96-31-17.08-34.16-17.09,0-17.09,0h0Zm102.51,0c24.41,12.54,9.87,28.64,0,34.16s-27.1-5.41-25.62-17.08S6181.39,2679.44,6205.79,2691.99Zm102.52-8.54c-3.86,9.66-16.2,8.79,8.54,17.08s-1.94-11.04,8.54-17.08-10.38-49.49-17.08-25.63S6312.16,2673.78,6308.31,2683.45Zm51.25,119.56s23.64,14.13,8.54,17.08-38.96,15.61-34.17,0S6359.56,2803.01,6359.56,2803.01Zm-230.65-25.62c15.71,21.74,29.94,43.62,8.54,51.24s-48.27,2.49-51.25-17.08,11.4-44.42,25.62-42.7S6113.2,2755.65,6128.91,2777.39Zm-68.34,102.49c3.98,18.85,6.07,26.67-8.54,25.62s-12.47-13.06-8.55-25.62S6056.59,2861.02,6060.57,2879.88Zm-51.26,59.78c16.68,21.9,17.6,20.77,0,25.62s-44.98,9.49-42.71-8.54,16.14-24.65,25.63-25.62S5992.64,2917.76,6009.31,2939.66Zm-171.63-78.69c25.42,6.04,47.04-4.74,39.99,15.02s-23.32,49.33-42.03,38.96-16.61-21.03-14.97-33S5812.26,2854.93,5837.68,2860.97Zm77.66-160.44c-12.16,22.62-50.51,41.3-25.62,51.24s50.49-2.69,51.25-17.08,12.09-26.8,0-34.16S5927.51,2677.9,5915.34,2700.53Zm346.38,50.16a29.5,29.5,0,1,1-29.5,29.5A29.5,29.5,0,0,1,6261.72,2750.69Zm107.15-116.07c-12.53-15.88-31.08-25.89-41.44-22.36s-8.59,19.27,3.95,35.15,31.08,25.89,41.44,22.36S6381.41,2650.5,6368.87,2634.62Zm-303.72-31.13c30.03-1.78,61.72,18.03,39.3,29.5s-29.92,16.48-39.3,0S6035.11,2605.26,6065.15,2603.49Zm-88.44,8.02c28.13,19.38,31,29.64,0,49.17s-29.54,5.19-39.31-9.83,8.01-35.7,19.65-39.34,19.66,0,19.66,0h0Zm181.07,8.54c-28.08,14.45-11.36,32.99,0,39.34s31.18-6.23,29.48-19.67S6185.85,2605.61,6157.78,2620.05Zm-305.86,178.06c4.43,11.13,18.62,10.12-9.83,19.67s2.23-12.71-9.83-19.67,11.94-56.98,19.66-29.5S5847.49,2786.98,5851.92,2798.11Zm544.55,105.07c-28.87,21.06-100.56,23.4-58.96-9.83s59.84-32.41,68.78-19.67S6425.33,2882.13,6396.47,2903.18Zm-462.92-74.02c-18.07,25.03-34.44,50.22-9.83,59s55.53,2.86,58.96-19.67-13.11-51.15-29.48-49.17S5951.62,2804.12,5933.55,2829.16Zm305.86,49.94c-4.58,21.72-6.99,30.72,9.82,29.51s14.35-15.04,9.83-29.51S6243.98,2857.39,6239.41,2879.1Zm-111.9,26.14c-19.18,25.22-20.24,23.92,0,29.5s51.75,10.93,49.14-9.83-18.57-28.38-29.48-29.5S6146.7,2880.02,6127.51,2905.24Zm281.58-165.88c-6.72,29.65-19.57,40.73,0,49.17s40.98-9.89,39.3-29.51-8.06-26.23-19.65-29.5S6415.8,2709.7,6409.09,2739.36Zm-106.62,201.55a25.625,25.625,0,1,1-25.63,25.62A25.619,25.619,0,0,1,6302.47,2940.91Zm-72.79,30.28-9.82,19.67s44.82,17.97,39.3,0S6229.68,2971.19,6229.68,2971.19Zm68.75-467.52c24.97-16.05,27.75-24.88,1.34-42.68s-25.53-5.31-34.42,7.47,5.98,31.2,16,34.68,17.08,0.53,17.08.53h0Zm-102.46-3.2c-24-13.3-8.97-28.94,1.07-34.15s26.92,6.25,25.08,17.88S6219.97,2513.77,6195.97,2500.47Zm-102.73,5.33c4.15-9.54,16.46-8.28-8-17.34s1.59,11.09-9.08,16.81,8.83,49.78,16.28,26.14S6089.09,2515.34,6093.24,2505.8Zm-119.6,53.2c-10.24,25.55-8.81,25.76-21.99,13.15s-31.22-33.75-14.58-41.05,29.44,1.21,35.14,8.86S5983.89,2533.45,5973.64,2559Zm168.25-109.01a29.5,29.5,0,1,1,30.39-28.57A29.495,29.495,0,0,1,6141.89,2449.99Zm-110.71,102.72c12.03,16.26,30.26,26.85,40.72,23.64s9.18-18.98-2.85-35.25-30.26-26.85-40.72-23.65S6019.15,2536.44,6031.18,2552.71Zm302.6,40.61c-30.08.84-61.12-19.95-38.37-30.71s30.43-15.54,39.29,1.22S6363.86,2592.48,6333.78,2593.32Zm-92.07-19.45c28.51-13.56,12.38-32.62,1.23-39.32s-31.36,5.25-30.08,18.74S6213.2,2587.43,6241.71,2573.87Zm-212.07-136.59c-30.75-2.67-60.78-3.8-55.69,21.83s26.03,49.14,47.13,40.53,37.18-37.49,27.08-50.53S6060.4,2439.96,6029.64,2437.28Zm89.79,539.41c-20.11-2.39-40.41,3.64-45.34,13.48s7.38,19.74,27.49,22.14,40.41-3.64,45.34-13.47S6139.54,2979.09,6119.43,2976.69Z" transform="translate(-5497 -2306)"/>
        </g>
      </g>
    </g>
  </g>
</svg>
