<svg xmlns="http://www.w3.org/2000/svg" xmlns:xlink="http://www.w3.org/1999/xlink" width="1202" height="2000" viewBox="0 0 1202 2000">
  <metadata><?xpacket begin="﻿" id="W5M0MpCehiHzreSzNTczkc9d"?>
<x:xmpmeta xmlns:x="adobe:ns:meta/" x:xmptk="Adobe XMP Core 5.6-c138 79.159824, 2016/09/14-01:09:01        ">
   <rdf:RDF xmlns:rdf="http://www.w3.org/1999/02/22-rdf-syntax-ns#">
      <rdf:Description rdf:about=""/>
   </rdf:RDF>
</x:xmpmeta>
                                                                                                    
                                                                                                    
                                                                                                    
                                                                                                    
                                                                                                    
                                                                                                    
                                                                                                    
                                                                                                    
                                                                                                    
                                                                                                    
                                                                                                    
                                                                                                    
                                                                                                    
                                                                                                    
                                                                                                    
                                                                                                    
                                                                                                    
                                                                                                    
                                                                                                    
                                                                                                    
                           
<?xpacket end="w"?></metadata>
<defs>
    <style>
      .cls-1 {
        fill: #ff2626;
      }

      .cls-1, .cls-2, .cls-3, .cls-4, .cls-5 {
        fill-rule: evenodd;
      }

      .cls-2 {
        fill: url(#linear-gradient);
      }

      .cls-3 {
        mix-blend-mode: multiply;
        fill: url(#linear-gradient-2);
      }

      .cls-4 {
        fill: #f52929;
      }

      .cls-5 {
        fill: #630;
      }
    </style>
    <linearGradient id="linear-gradient" x1="4810.154" y1="969.344" x2="4808.286" y2="1067.53" gradientUnits="userSpaceOnUse">
      <stop offset="0" stop-opacity="0.612"/>
      <stop offset="1" stop-opacity="0"/>
    </linearGradient>
    <linearGradient id="linear-gradient-2" x1="4819.655" y1="740.281" x2="4819.655" y2="819.594" gradientUnits="userSpaceOnUse">
      <stop offset="0" stop-opacity="0.51"/>
      <stop offset="1" stop-opacity="0"/>
    </linearGradient>
  </defs>
  <g id="Artboard_1_copy_7" data-name="Artboard 1 copy 7">
    <g>
      <g id="pieds">
        <g id="colerette_inverse" data-name="colerette inverse">
          <path id="Shape_2_copy" data-name="Shape 2 copy" class="cls-1" d="M4991.05,977.576c-11.14-.557-33.61-1.061-67.8-1.861l8,223.915,8.54,555.13s-23.22,180.89-102.51,204.97-155.43-64.07-170.85-153.73,25.63-743.02,25.63-743.02l7.8-93.672-7.8-.272c-173.83-6.1-48.1-33.431-10.65-40.206,19.87-3.6,31.38-32.42,36.54-49.567l8.28-138.28,187.94-2.54,8.49,161.269a181.139,181.139,0,0,0,8.59,18.081c14.97,27.445,41.62,19.137,68.34,34.162S5018.72,978.96,4991.05,977.576Z" transform="translate(-4195 -41)"/>
          <path id="Shape_5_copy_2" data-name="Shape 5 copy 2" class="cls-2" d="M4699.06,969.333l-4.87,86.727,230.06,11.46-1.54-92.727" transform="translate(-4195 -41)"/>
          <path id="ombre_pied_copy" data-name="ombre pied copy" class="cls-3" d="M4917.73,819.605l-2.84-76.045-189.13-3.279-4.16,77.864" transform="translate(-4195 -41)"/>
        </g>
      </g>
      <g id="chapeaux">
        <g id="convexe">
          <path id="convex" class="cls-4" d="M4598.09,755.524s-141.3-18.72-213.57-51.243-148.47-58.126-25.63-213.512c65.04-75.885,236.23-242.313,495.48-222.052s414.04,146.248,461.3,247.674,90.64,145.578-111.05,196.431S4598.09,755.524,4598.09,755.524Z" transform="translate(-4195 -41)"/>
          <path id="POINTS" class="cls-5" d="M4412.69,444.062a25.625,25.625,0,1,1-25.63,25.625A25.622,25.622,0,0,1,4412.69,444.062Zm47.67,2.994c10.9-13.793,27.03-22.488,36.03-19.422s7.46,16.733-3.43,30.525-27.02,22.488-36.02,19.422S4449.47,460.848,4460.36,447.056Zm264.04,39.713c-26.11-1.543-53.65,15.66-34.17,25.622s26.01,14.313,34.17,0S4750.51,488.313,4724.4,486.769Zm76.88-59.783c-24.45,16.83-26.95,25.737,0,42.7s25.68,4.508,34.17-8.54-6.96-31-17.08-34.162-17.09,0-17.09,0h0Zm102.51,0c24.41,12.546,9.87,28.647,0,34.162s-27.1-5.406-25.62-17.081S4879.39,414.44,4903.79,426.986Zm102.52-8.54c-3.86,9.663-16.2,8.791,8.54,17.08s-1.94-11.036,8.54-17.08-10.38-49.483-17.08-25.622S5010.16,408.783,5006.31,418.446Zm128.13,17.08c25.1,18.285,87.42,20.324,51.26-8.54s-52.02-28.145-59.8-17.081S5109.35,417.242,5134.44,435.526Zm85.43,76.865c-10.35,15.673-5.25,17.006-17.08,25.621s-3.98,31.259,17.08,17.081,41.57-31.191,34.17-51.243S5230.22,496.717,5219.87,512.391Zm-162.31,25.621s23.64,14.124,8.54,17.081-38.96,15.606-34.17,0S5057.56,538.012,5057.56,538.012Zm-230.65-25.621c15.71,21.738,29.94,43.621,8.54,51.243s-48.27,2.482-51.25-17.081,11.4-44.422,25.62-42.7S4811.2,490.653,4826.91,512.391Zm-68.34,102.485c3.98,18.855,6.07,26.677-8.54,25.622s-12.47-13.062-8.55-25.622S4754.59,596.022,4758.57,614.876Zm-51.26,59.784c16.68,21.9,17.6,20.774,0,25.621s-44.98,9.487-42.71-8.54,16.14-24.648,25.63-25.622S4690.64,652.759,4707.31,674.66Zm-171.63-78.69c25.42,6.038,47.04-4.74,39.99,15.022s-23.32,49.332-42.03,38.955-16.61-21.032-14.97-33S4510.26,589.933,4535.68,595.97Zm-110.27-57.958c5.84,25.75,17,35.38,0,42.7s-35.63-8.589-34.17-25.622,7.01-22.786,17.08-25.621S4419.57,512.262,4425.41,538.012Zm187.93-102.486c-12.16,22.624-50.51,41.309-25.62,51.243s50.49-2.686,51.25-17.081,12.09-26.8,0-34.162S4625.51,412.9,4613.34,435.526Zm346.38,50.161a29.5,29.5,0,1,1-29.5,29.5A29.5,29.5,0,0,1,4959.72,485.687Zm107.15-116.065c-12.53-15.881-31.08-25.894-41.44-22.363s-8.59,19.267,3.95,35.149,31.08,25.893,41.44,22.363S5079.41,385.5,5066.87,369.622Zm-303.72-31.135c30.04-1.777,61.72,18.031,39.3,29.5s-29.92,16.481-39.3,0S4733.11,340.264,4763.15,338.487Zm-88.44,8.026c28.13,19.379,31,29.634,0,49.17s-29.54,5.19-39.31-9.834,8.01-35.7,19.65-39.336,19.66,0,19.66,0h0Zm181.07,8.54c-28.08,14.447-11.36,32.986,0,39.336s31.18-6.225,29.48-19.668S4883.85,340.607,4855.78,355.053Zm-341.71,8.54c-28.07,14.447-11.35,32.987,0,39.337s31.18-6.226,29.48-19.668S4542.14,349.147,4514.07,363.593Zm35.85,169.516c4.43,11.127,18.62,10.124-9.83,19.669s2.23-12.709-9.83-19.669,11.94-56.977,19.66-29.5S4545.49,521.983,4549.92,533.109Zm544.55,105.073c-28.87,21.055-100.56,23.4-58.96-9.834s59.84-32.408,68.78-19.668S5123.33,617.128,5094.47,638.182ZM4409.9,474.355s-27.19,16.263-9.83,19.668,44.83,17.97,39.31,0S4409.9,474.355,4409.9,474.355Zm221.65,89.8c-18.07,25.031-34.44,50.229-9.83,59.005s55.53,2.859,58.96-19.668-13.11-51.151-29.48-49.171S4649.62,539.125,4631.55,564.155ZM4937.41,614.1c-4.58,21.711-6.99,30.717,9.82,29.5s14.35-15.04,9.83-29.5S4941.98,592.394,4937.41,614.1Zm-111.9,26.137c-19.18,25.217-20.24,23.921,0,29.5s51.75,10.923,49.14-9.834-18.57-28.382-29.48-29.5S4844.7,615.023,4825.51,640.241Zm281.58-165.886c-6.72,29.651-19.57,40.739,0,49.171s40.98-9.889,39.3-29.5-8.06-26.237-19.65-29.5S5113.8,444.705,5107.09,474.355Zm-66.62,201.551a25.625,25.625,0,1,1-25.63,25.625A25.622,25.622,0,0,1,5040.47,675.906Zm292.02-47.558c28.13,19.379,31.01,29.635,0,49.171s-29.54,5.19-39.31-9.835,8.01-35.7,19.66-39.336,19.65,0,19.65,0h0Zm-160.64,17.081c-28.07,14.447-11.35,32.986,0,39.336s31.19-6.225,29.48-19.668S5199.93,630.983,5171.85,645.429Zm-224.33,84.024c5.44-15.555,17.53-5.533,25.15,6.625m94.49-10.219c-5.51-17.969-29.48-19.668-29.48-19.668s-27.19,16.262-9.82,19.668M4597.82,319.667c-10.36,15.674-5.26,17.006-17.09,25.622s-3.98,31.258,17.09,17.081m131.36-74.663c12.03,16.265,30.26,26.853,40.72,23.647s9.18-18.989-2.85-35.254m264.73,62.222c-30.08.837-61.12-19.953-38.37-30.717s30.43-15.537,39.29,1.229S5061.86,337.485,5031.78,338.322Zm-120.92-50.034c1.28,13.489.34,34.141,28.85,20.58m377.4,255.608c-24.51-19.06-86.74-23.046-51.5,6.934s51.12,29.758,59.24,18.942S5341.62,583.537,5317.11,564.476ZM4827.22,745.822c-12.45-15.947-30.95-26.058-41.32-22.582s-8.69,19.222,3.76,35.169m-276-68.032c30.05-1.618,61.63,18.358,39.16,29.709s-30.01,16.323-39.31-.207S4483.62,692,4513.66,690.377Zm92.54,17.056c-28.14,14.3-11.52,32.925-.2,39.335s31.21-6.06,29.58-19.512S4634.35,693.135,4606.2,707.433Zm-230.93-4.822a25.621,25.621,0,1,1,25.49-25.757A25.621,25.621,0,0,1,4375.27,702.611Zm-43.21-83.718c-5.98-25.719-17.2-35.289-.23-42.7s35.67,8.4,34.31,25.44-6.89,22.822-16.95,25.711S4338.04,644.612,4332.06,618.893Zm110.8,53.184c-7.69-12.118-3.94-13.171-12.68-19.808s-3.06-24.232,12.5-13.317,30.73,24.033,25.37,39.617S4450.55,684.2,4442.86,672.077Zm-64.96.231s27.11-16.406,9.72-19.72-44.91-17.731-39.3.208S4377.9,672.308,4377.9,672.308Z" transform="translate(-4195 -41)"/>
        </g>
      </g>
    </g>
  </g>
</svg>
