<svg xmlns="http://www.w3.org/2000/svg" xmlns:xlink="http://www.w3.org/1999/xlink" width="1202" height="2000" viewBox="0 0 1202 2000">
  <metadata><?xpacket begin="﻿" id="W5M0MpCehiHzreSzNTczkc9d"?>
<x:xmpmeta xmlns:x="adobe:ns:meta/" x:xmptk="Adobe XMP Core 5.6-c138 79.159824, 2016/09/14-01:09:01        ">
   <rdf:RDF xmlns:rdf="http://www.w3.org/1999/02/22-rdf-syntax-ns#">
      <rdf:Description rdf:about=""/>
   </rdf:RDF>
</x:xmpmeta>
                                                                                                    
                                                                                                    
                                                                                                    
                                                                                                    
                                                                                                    
                                                                                                    
                                                                                                    
                                                                                                    
                                                                                                    
                                                                                                    
                                                                                                    
                                                                                                    
                                                                                                    
                                                                                                    
                                                                                                    
                                                                                                    
                                                                                                    
                                                                                                    
                                                                                                    
                                                                                                    
                           
<?xpacket end="w"?></metadata>
<defs>
    <style>
      .cls-1 {
        fill: #5454ff;
      }

      .cls-1, .cls-2, .cls-3, .cls-4 {
        fill-rule: evenodd;
      }

      .cls-2 {
        fill: url(#linear-gradient);
      }

      .cls-3 {
        mix-blend-mode: multiply;
        fill: url(#linear-gradient-2);
      }

      .cls-4 {
        fill: #630;
      }
    </style>
    <linearGradient id="linear-gradient" x1="3508.154" y1="3234.34" x2="3506.286" y2="3332.53" gradientUnits="userSpaceOnUse">
      <stop offset="0" stop-opacity="0.612"/>
      <stop offset="1" stop-opacity="0"/>
    </linearGradient>
    <linearGradient id="linear-gradient-2" x1="3517.655" y1="3005.28" x2="3517.655" y2="3084.59" gradientUnits="userSpaceOnUse">
      <stop offset="0" stop-opacity="0.51"/>
      <stop offset="1" stop-opacity="0"/>
    </linearGradient>
  </defs>
  <g id="Artboard_1_copy_9" data-name="Artboard 1 copy 9">
    <g>
      <g id="pieds">
        <g id="colerette_inverse" data-name="colerette inverse">
          <path id="Shape_2_copy" data-name="Shape 2 copy" class="cls-1" d="M3689.05,3242.58c-11.14-.56-33.6-1.06-67.8-1.87l8,223.92,8.54,555.13s-23.22,180.89-102.51,204.97-155.43-64.07-170.85-153.73,25.63-743.02,25.63-743.02l7.8-93.67-7.8-.27c-173.83-6.11-48.1-33.43-10.65-40.21,19.87-3.6,31.38-32.42,36.54-49.57l8.28-138.28,187.94-2.54,8.49,161.27a180.71,180.71,0,0,0,8.59,18.08c14.97,27.45,41.62,19.14,68.34,34.16S3716.72,3243.96,3689.05,3242.58Z" transform="translate(-2893 -2306)"/>
          <path id="Shape_5_copy_2" data-name="Shape 5 copy 2" class="cls-2" d="M3397.06,3234.33l-4.87,86.73,230.06,11.46-1.54-92.73" transform="translate(-2893 -2306)"/>
          <path id="ombre_pied_copy" data-name="ombre pied copy" class="cls-3" d="M3615.73,3084.6l-2.84-76.04-189.13-3.28-4.16,77.87" transform="translate(-2893 -2306)"/>
        </g>
      </g>
      <g id="chapeaux">
        <g id="conical">
          <path id="concical" class="cls-1" d="M3150.86,2866.8s-45.74,54.54,34.17,85.4,141.38,71.4,324.62,68.32,282.59-34.22,324.62-68.32,55.3-57.81,8.55-128.11-168.21-288.16-222.11-341.62-86.78-139.24-136.68-76.86S3150.86,2866.8,3150.86,2866.8Z" transform="translate(-2893 -2306)"/>
          <path id="POINTS" class="cls-4" d="M3422.4,2751.77c-26.11-1.54-53.66,15.66-34.17,25.62s26.01,14.31,34.17,0S3448.51,2753.31,3422.4,2751.77Zm76.88-59.78c-24.45,16.83-26.95,25.73,0,42.7s25.68,4.51,34.17-8.54-6.96-31-17.08-34.16-17.09,0-17.09,0h0Zm102.51,0c24.41,12.54,9.87,28.64,0,34.16s-27.1-5.41-25.62-17.08S3577.39,2679.44,3601.79,2691.99Zm102.52,15.8c-3.86,9.66-16.2,8.79,8.54,17.08s-1.94-11.04,8.54-17.08-10.38-49.48-17.08-25.62S3708.16,2698.13,3704.31,2707.79Zm51.25,95.22s23.64,14.13,8.54,17.08-38.96,15.61-34.17,0S3755.56,2803.01,3755.56,2803.01Zm-230.65-25.62c15.71,21.74,29.94,43.62,8.54,51.24s-48.27,2.49-51.25-17.08,11.4-44.42,25.62-42.7S3509.2,2755.65,3524.91,2777.39Zm-68.34,102.49c3.98,18.85,6.07,26.67-8.54,25.62s-12.47-13.06-8.55-25.62S3452.59,2861.02,3456.57,2879.88Zm-51.26,59.78c16.68,21.9,17.6,20.77,0,25.62s-44.98,9.49-42.71-8.54,16.14-24.65,25.63-25.62S3388.64,2917.76,3405.31,2939.66Zm-171.63-78.69c25.42,6.04,47.04-4.74,39.99,15.02s-23.32,49.33-42.03,38.96-16.61-21.03-14.97-33S3208.26,2854.93,3233.68,2860.97Zm77.66-160.44c-12.16,22.62-50.51,41.3-25.62,51.24s50.49-2.69,51.25-17.08,12.09-26.8,0-34.16S3323.51,2677.9,3311.34,2700.53Zm346.38,50.16a29.5,29.5,0,1,1-29.5,29.5A29.5,29.5,0,0,1,3657.72,2750.69Zm-196.57-147.2c30.03-1.78,61.72,18.03,39.3,29.5s-29.92,16.48-39.3,0S3431.11,2605.26,3461.15,2603.49Zm-88.44,8.02c28.13,19.38,31,29.64,0,49.17s-29.54,5.19-39.31-9.83,8.01-35.7,19.65-39.34,19.66,0,19.66,0h0Zm181.07,8.54c-28.08,14.45-11.36,32.99,0,39.34s31.18-6.23,29.48-19.67S3581.85,2605.61,3553.78,2620.05Zm-305.86,178.06c4.43,11.13,18.62,10.12-9.83,19.67s2.23-12.71-9.83-19.67,11.94-56.98,19.66-29.5S3243.49,2786.98,3247.92,2798.11Zm544.55,105.07c-28.87,21.06-100.56,23.4-58.96-9.83s59.84-32.41,68.78-19.67S3821.33,2882.13,3792.47,2903.18Zm-462.92-74.02c-18.07,25.03-34.44,50.22-9.83,59s55.53,2.86,58.96-19.67-13.11-51.15-29.48-49.17S3347.62,2804.12,3329.55,2829.16Zm305.86,49.94c-4.58,21.72-6.99,30.72,9.82,29.51s14.35-15.04,9.83-29.51S3639.98,2857.39,3635.41,2879.1Zm-111.9,26.14c-19.18,25.22-20.24,23.92,0,29.5s51.75,10.93,49.14-9.83-18.57-28.38-29.48-29.5S3542.7,2880.02,3523.51,2905.24Zm166.34,35.19c-28.07,14.45-11.35,32.98,0,39.34s31.19-6.23,29.48-19.67S3717.93,2925.98,3689.85,2940.43Zm491.45,276.15c20.24,5.58,51.74,10.92,49.13-9.84m-638.46-706.27c-24-13.3-8.97-28.94,1.07-34.15s26.92,6.25,25.08,17.88S3615.97,2513.77,3591.97,2500.47Zm-102.73,5.33c4.15-9.54,16.46-8.28-8-17.34s1.59,11.09-9.08,16.81,8.83,49.78,16.28,26.14S3485.09,2515.34,3489.24,2505.8Zm35.12-46.88a29.5,29.5,0,1,1,30.39-28.56A29.489,29.489,0,0,1,3524.36,2458.92Zm-97.18,93.79c12.03,16.26,30.26,26.85,40.72,23.64s9.18-18.98-2.85-35.25-30.26-26.85-40.72-23.65S3415.15,2536.44,3427.18,2552.71Zm252.6,90.61c-30.08.84-61.12-19.95-38.37-30.71s30.43-15.54,39.29,1.22S3709.86,2642.48,3679.78,2643.32Zm-42.07-69.45c28.52-13.56,12.38-32.62,1.23-39.32s-31.36,5.25-30.08,18.74S3609.2,2587.43,3637.71,2573.87Zm-156.05,401.51c30.05-1.62,61.63,18.35,39.16,29.71s-30.01,16.32-39.31-.21S3451.62,2977,3481.66,2975.38Zm-197.46-42.95c-28.14,14.3-11.52,32.93-.2,39.34s31.21-6.06,29.58-19.51S3312.35,2918.13,3284.2,2932.43Zm-119-14.29c-7.68-12.12-3.93-13.17-12.68-19.81s-3.06-24.23,12.51-13.31,30.73,24.03,25.37,39.61S3172.89,2930.26,3165.2,2918.14Z" transform="translate(-2893 -2306)"/>
        </g>
      </g>
    </g>
  </g>
</svg>
