<svg xmlns="http://www.w3.org/2000/svg" xmlns:xlink="http://www.w3.org/1999/xlink" width="1202" height="2000" viewBox="0 0 1202 2000">
  <metadata><?xpacket begin="﻿" id="W5M0MpCehiHzreSzNTczkc9d"?>
<x:xmpmeta xmlns:x="adobe:ns:meta/" x:xmptk="Adobe XMP Core 5.6-c138 79.159824, 2016/09/14-01:09:01        ">
   <rdf:RDF xmlns:rdf="http://www.w3.org/1999/02/22-rdf-syntax-ns#">
      <rdf:Description rdf:about=""/>
   </rdf:RDF>
</x:xmpmeta>
                                                                                                    
                                                                                                    
                                                                                                    
                                                                                                    
                                                                                                    
                                                                                                    
                                                                                                    
                                                                                                    
                                                                                                    
                                                                                                    
                                                                                                    
                                                                                                    
                                                                                                    
                                                                                                    
                                                                                                    
                                                                                                    
                                                                                                    
                                                                                                    
                                                                                                    
                                                                                                    
                           
<?xpacket end="w"?></metadata>
<defs>
    <style>
      .cls-1 {
        fill: #5454ff;
      }

      .cls-1, .cls-2, .cls-3, .cls-4, .cls-5 {
        fill-rule: evenodd;
      }

      .cls-2 {
        fill: url(#linear-gradient);
      }

      .cls-3 {
        fill: url(#linear-gradient-2);
      }

      .cls-4 {
        mix-blend-mode: multiply;
        fill: url(#linear-gradient-3);
      }

      .cls-5 {
        fill: #630;
      }
    </style>
    <linearGradient id="linear-gradient" x1="2216.34" y1="865.813" x2="2216.34" y2="791" gradientUnits="userSpaceOnUse">
      <stop offset="0" stop-opacity="0.2"/>
      <stop offset="1" stop-opacity="0"/>
    </linearGradient>
    <linearGradient id="linear-gradient-2" x1="2210.907" y1="960.563" x2="2207.373" y2="912.438" xlink:href="#linear-gradient"/>
    <linearGradient id="linear-gradient-3" x1="2215.655" y1="740.281" x2="2215.655" y2="819.594" gradientUnits="userSpaceOnUse">
      <stop offset="0" stop-opacity="0.29"/>
      <stop offset="1" stop-opacity="0"/>
    </linearGradient>
  </defs>
  <g id="Artboard_2_copy_5" data-name="Artboard 2 copy 5">
    <g>
      <g id="pieds">
        <g id="double_colerettes" data-name="double colerettes">
          <path id="Shape_1_copy" data-name="Shape 1 copy" class="cls-1" d="M2387.05,883.631c-26.72,15.025-60.85,10.46-60.85,35.41,0,11.93.61,24.159,1.26,33.682,10.64-.476,16.88-0.768,16.88-0.768s62.22-19.981,8.54,51.245c-28.15,37.34-25.63,196.43-25.63,196.43l8.54,555.13s-23.22,180.89-102.51,204.97-155.43-64.07-170.85-153.73,25.63-743.02,25.63-743.02-0.77-33.68-17.09-51.24c-15.71-16.9-51.82-48.078,17.09-51.026V926.333s3.27-10.306-34.17-17.081-148.2-36.6,25.62-42.7q18.18-.639,35.24-1.2l7.48-128.363,187.94,1.46,6.38,121.291c30.92-.722,51.46-1.2,61.96-1.725C2406.18,856.625,2413.77,868.606,2387.05,883.631Z" transform="translate(-1591 -41)"/>
          <path id="Shape_5_copy" data-name="Shape 5 copy" class="cls-2" d="M2120.01,798.606l-4.92,67.193,202.51-4.635-3.99-70.158" transform="translate(-1591 -41)"/>
          <path class="cls-3" d="M2089.01,924.015l-1.17,36.55,242.59-7.034s-5.72-25.173-3.45-41.1" transform="translate(-1591 -41)"/>
          <path id="ombre_pied_copy_3" data-name="ombre pied copy 3" class="cls-4" d="M2313.73,819.605l-2.84-76.045-189.13-3.279-4.16,77.864" transform="translate(-1591 -41)"/>
        </g>
      </g>
      <g id="chapeaux">
        <g id="BELL">
          <path id="bell-2" data-name="bell" class="cls-1" d="M1956.17,710.523c-52.39-27.446-98.61-13.705-73.14-151.43s94.85-317.521,179.4-375.781,112.63-57.693,170.85-59.783,142.26,25.394,205.03,111.026,111.05,150.759,111.05,298.916-12.57,188.608-162.31,213.512C2202.98,777.6,1966.12,715.735,1956.17,710.523Z" transform="translate(-1591 -41)"/>
          <path id="POINTS" class="cls-5" d="M2120.4,486.769c-26.11-1.543-53.66,15.66-34.17,25.622s26.01,14.313,34.17,0S2146.51,488.312,2120.4,486.769Zm76.88-59.783c-24.45,16.83-26.95,25.737,0,42.7s25.68,4.508,34.17-8.54-6.96-31-17.08-34.162-17.09,0-17.09,0h0Zm102.51,0c24.41,12.546,9.87,28.647,0,34.162s-27.1-5.407-25.62-17.081S2275.39,414.44,2299.79,426.986Zm102.52-8.541c-3.86,9.664-16.2,8.792,8.54,17.081s-1.94-11.037,8.54-17.081-10.38-49.482-17.08-25.621S2406.16,408.782,2402.31,418.445Zm51.25,119.567s23.64,14.123,8.54,17.081-38.96,15.606-34.17,0S2453.56,538.012,2453.56,538.012Zm-230.65-25.621c15.71,21.738,29.94,43.621,8.54,51.242s-48.27,2.483-51.25-17.081,11.4-44.422,25.62-42.7S2207.2,490.653,2222.91,512.391Zm-68.34,102.485c3.98,18.855,6.07,26.677-8.54,25.622s-12.47-13.062-8.55-25.622S2150.59,596.021,2154.57,614.876Zm-51.26,59.784c16.68,21.9,17.6,20.774,0,25.621s-44.98,9.487-42.71-8.54,16.14-24.648,25.63-25.622S2086.64,652.759,2103.31,674.66Zm-171.63-78.69c25.42,6.037,47.04-4.74,39.99,15.022s-23.32,49.332-42.03,38.954-16.61-21.031-14.97-33S1906.26,589.933,1931.68,595.97Zm77.66-160.444c-12.16,22.623-50.51,41.309-25.62,51.243s50.49-2.686,51.25-17.081,12.09-26.8,0-34.162S2021.51,412.9,2009.34,435.526Zm346.38,50.161a29.5,29.5,0,1,1-29.5,29.5A29.5,29.5,0,0,1,2355.72,485.687Zm107.15-116.065c-12.53-15.882-31.08-25.894-41.44-22.363s-8.59,19.267,3.95,35.148,31.08,25.894,41.44,22.364S2475.41,385.5,2462.87,369.622Zm-303.72-31.135c30.03-1.777,61.72,18.031,39.3,29.5s-29.92,16.481-39.3,0S2129.11,340.264,2159.15,338.487Zm-88.44,8.025c28.13,19.38,31,29.635,0,49.171s-29.54,5.19-39.31-9.834,8.01-35.7,19.65-39.337,19.66,0,19.66,0h0Zm181.07,8.541c-28.08,14.446-11.36,32.986,0,39.336s31.18-6.225,29.48-19.668S2279.85,340.607,2251.78,355.053ZM1945.92,533.109c4.43,11.127,18.62,10.123-9.83,19.668s2.23-12.708-9.83-19.668,11.94-56.977,19.66-29.5S1941.49,521.983,1945.92,533.109Zm544.55,105.073c-28.87,21.055-100.56,23.4-58.96-9.834s59.84-32.408,68.78-19.668S2519.33,617.128,2490.47,638.182Zm-462.92-74.027c-18.07,25.031-34.44,50.229-9.83,59s55.53,2.859,58.96-19.668-13.11-51.15-29.48-49.17S2045.62,539.125,2027.55,564.155ZM2333.41,614.1c-4.58,21.711-6.99,30.717,9.82,29.5s14.35-15.041,9.83-29.5S2337.98,592.394,2333.41,614.1Zm-111.9,26.137c-19.18,25.217-20.24,23.921,0,29.5s51.75,10.924,49.14-9.833-18.57-28.382-29.48-29.5S2240.7,615.023,2221.51,640.241Zm281.58-165.886c-6.72,29.651-19.57,40.738,0,49.17s40.98-9.888,39.3-29.5-8.06-26.237-19.65-29.5S2509.8,444.705,2503.09,474.355ZM2396.47,675.906a25.625,25.625,0,1,1-25.63,25.625A25.622,25.622,0,0,1,2396.47,675.906Zm-72.79,30.285-9.82,19.668s44.82,17.969,39.3,0S2323.68,706.191,2323.68,706.191Zm68.75-467.518c24.97-16.057,27.75-24.881,1.34-42.681s-25.53-5.308-34.42,7.468,5.98,31.2,16,34.679,17.08,0.534,17.08.534h0Zm-102.46-3.2c-24-13.3-8.97-28.942,1.07-34.146s26.92,6.252,25.08,17.874S2313.97,248.771,2289.97,235.469ZM2187.24,240.8c4.15-9.538,16.46-8.281-8-17.339s1.59,11.092-9.08,16.8,8.83,49.783,16.28,26.143S2183.09,250.338,2187.24,240.8ZM2067.64,294c-10.24,25.55-8.81,25.76-21.99,13.142s-31.22-33.749-14.58-41.047,29.44,1.214,35.14,8.858S2077.89,268.454,2067.64,294Zm168.25-109.016a29.5,29.5,0,1,1,30.39-28.566A29.49,29.49,0,0,1,2235.89,184.987ZM2125.18,287.706c12.03,16.266,30.26,26.853,40.72,23.648s9.18-18.989-2.85-35.255-30.26-26.853-40.72-23.648S2113.15,271.441,2125.18,287.706Zm302.6,40.616c-30.08.837-61.12-19.953-38.37-30.717s30.43-15.538,39.29,1.229S2457.86,327.485,2427.78,328.322Zm-92.07-19.454c28.51-13.562,12.38-32.615,1.23-39.317s-31.36,5.247-30.08,18.737S2307.2,322.429,2335.71,308.868ZM2123.64,172.283c-30.75-2.673-60.78-3.8-55.69,21.829s26.03,49.134,47.13,40.526,37.18-37.492,27.08-50.528S2154.4,174.956,2123.64,172.283ZM2213.43,711.7c-20.11-2.4-40.41,3.637-45.34,13.471s7.38,19.747,27.49,22.141,40.41-3.637,45.34-13.471S2233.54,714.089,2213.43,711.7Z" transform="translate(-1591 -41)"/>
        </g>
      </g>
    </g>
  </g>
</svg>
