<svg xmlns="http://www.w3.org/2000/svg" xmlns:xlink="http://www.w3.org/1999/xlink" width="1202" height="2000" viewBox="0 0 1202 2000">
  <metadata><?xpacket begin="﻿" id="W5M0MpCehiHzreSzNTczkc9d"?>
<x:xmpmeta xmlns:x="adobe:ns:meta/" x:xmptk="Adobe XMP Core 5.6-c138 79.159824, 2016/09/14-01:09:01        ">
   <rdf:RDF xmlns:rdf="http://www.w3.org/1999/02/22-rdf-syntax-ns#">
      <rdf:Description rdf:about=""/>
   </rdf:RDF>
</x:xmpmeta>
                                                                                                    
                                                                                                    
                                                                                                    
                                                                                                    
                                                                                                    
                                                                                                    
                                                                                                    
                                                                                                    
                                                                                                    
                                                                                                    
                                                                                                    
                                                                                                    
                                                                                                    
                                                                                                    
                                                                                                    
                                                                                                    
                                                                                                    
                                                                                                    
                                                                                                    
                                                                                                    
                           
<?xpacket end="w"?></metadata>
<defs>
    <style>
      .cls-1, .cls-4 {
        fill: #01ad01;
      }

      .cls-1, .cls-2, .cls-3, .cls-4 {
        fill-rule: evenodd;
      }

      .cls-2 {
        opacity: 0.66;
        mix-blend-mode: multiply;
        fill: url(#linear-gradient);
      }

      .cls-3 {
        fill: #303030;
      }

      .cls-4 {
        mix-blend-mode: color;
      }
    </style>
    <linearGradient id="linear-gradient" x1="4818.155" y1="2982.28" x2="4818.155" y2="3061.59" gradientUnits="userSpaceOnUse">
      <stop offset="0"/>
      <stop offset="1" stop-opacity="0"/>
    </linearGradient>
  </defs>
  <g id="Artboard_2_copy_9" data-name="Artboard 2 copy 9">
    <g>
      <g id="pieds">
        <g id="sans_colerette" data-name="sans colerette">
          <path class="cls-1" d="M4931.25,3464.63l8.54,555.13s-23.22,180.89-102.51,204.97-155.43-64.07-170.85-153.73,25.63-743.02,25.63-743.02l32.95-358.7h190.38Z" transform="translate(-4195 -2306)"/>
          <path id="ombre_pied_copy_2" data-name="ombre pied copy 2" class="cls-2" d="M4918.73,3061.6l-2.84-76.04-192.13-3.28-6.16,77.87" transform="translate(-4195 -2306)"/>
        </g>
      </g>
      <g id="chapeaux">
        <g id="flat">
          <g id="SHAPES">
            <path class="cls-3" d="M4717.68,3011.98l-273.36-111.02s-111.62-40.98-145.22-102.49-34.95-115.85,187.93-153.73,346.97-36.03,512.56-17.08,357.53,80.56,341.71,128.11-123.63,169.49-427.13,256.21C4805.77,3037.28,4717.68,3011.98,4717.68,3011.98Z" transform="translate(-4195 -2306)"/>
            <path id="Shape_6_copy_3" data-name="Shape 6 copy 3" class="cls-4" d="M4717.68,3011.98l-273.36-111.02s-111.62-40.98-145.22-102.49-34.95-115.85,187.93-153.73,346.97-36.03,512.56-17.08,357.53,80.56,341.71,128.11-123.63,169.49-427.13,256.21C4805.77,3037.28,4717.68,3011.98,4717.68,3011.98ZM4299.1,2798.47c-33.61-61.51-34.95-115.85,187.93-153.73s346.97-36.03,512.56-17.08,357.53,80.56,341.71,128.11-99.96,117.27-367.34,128.11C4460.34,2904.7,4300.16,2800.42,4299.1,2798.47Z" transform="translate(-4195 -2306)"/>
            <path id="Shape_6_copy" data-name="Shape 6 copy" class="cls-1" d="M4299.1,2798.47c-33.61-61.51-34.95-115.85,187.93-153.73s346.97-36.03,512.56-17.08,357.53,80.56,341.71,128.11-99.96,117.27-367.34,128.11C4460.34,2904.7,4300.16,2800.42,4299.1,2798.47Z" transform="translate(-4195 -2306)"/>
          </g>
        </g>
      </g>
    </g>
  </g>
</svg>
