<svg xmlns="http://www.w3.org/2000/svg" xmlns:xlink="http://www.w3.org/1999/xlink" width="1202" height="2000" viewBox="0 0 1202 2000">
  <metadata><?xpacket begin="﻿" id="W5M0MpCehiHzreSzNTczkc9d"?>
<x:xmpmeta xmlns:x="adobe:ns:meta/" x:xmptk="Adobe XMP Core 5.6-c138 79.159824, 2016/09/14-01:09:01        ">
   <rdf:RDF xmlns:rdf="http://www.w3.org/1999/02/22-rdf-syntax-ns#">
      <rdf:Description rdf:about=""/>
   </rdf:RDF>
</x:xmpmeta>
                                                                                                    
                                                                                                    
                                                                                                    
                                                                                                    
                                                                                                    
                                                                                                    
                                                                                                    
                                                                                                    
                                                                                                    
                                                                                                    
                                                                                                    
                                                                                                    
                                                                                                    
                                                                                                    
                                                                                                    
                                                                                                    
                                                                                                    
                                                                                                    
                                                                                                    
                                                                                                    
                           
<?xpacket end="w"?></metadata>
<defs>
    <style>
      .cls-1 {
        fill: #01ad01;
      }

      .cls-1, .cls-2, .cls-3, .cls-4 {
        fill-rule: evenodd;
      }

      .cls-2 {
        fill: url(#linear-gradient);
      }

      .cls-3 {
        fill: url(#linear-gradient-2);
      }

      .cls-4 {
        mix-blend-mode: multiply;
        fill: url(#linear-gradient-3);
      }
    </style>
    <linearGradient id="linear-gradient" x1="914.342" y1="3130.81" x2="914.342" y2="3056" gradientUnits="userSpaceOnUse">
      <stop offset="0" stop-opacity="0.2"/>
      <stop offset="1" stop-opacity="0"/>
    </linearGradient>
    <linearGradient id="linear-gradient-2" x1="908.909" y1="3225.56" x2="905.375" y2="3177.44" xlink:href="#linear-gradient"/>
    <linearGradient id="linear-gradient-3" x1="913.657" y1="3005.28" x2="913.657" y2="3084.59" gradientUnits="userSpaceOnUse">
      <stop offset="0" stop-opacity="0.29"/>
      <stop offset="1" stop-opacity="0"/>
    </linearGradient>
  </defs>
  <g id="Artboard_2_copy_9" data-name="Artboard 2 copy 9">
    <g>
      <g id="pieds">
        <g id="double_colerettes" data-name="double colerettes">
          <path id="Shape_1_copy" data-name="Shape 1 copy" class="cls-1" d="M1085.05,3148.63c-26.72,15.03-60.85,10.46-60.85,35.41,0,11.93.61,24.16,1.26,33.68,10.64-.47,16.88-0.77,16.88-0.77s62.22-19.98,8.54,51.25c-28.15,37.34-25.63,196.43-25.63,196.43l8.54,555.13s-23.22,180.89-102.508,204.97S775.85,4160.66,760.429,4071s25.628-743.02,25.628-743.02-0.764-33.68-17.085-51.24c-15.708-16.9-51.821-48.08,17.085-51.03v-34.38s3.275-10.3-34.17-17.08-148.2-36.6,25.627-42.7q18.18-.645,35.236-1.2l7.477-128.37,187.943,1.46,6.38,121.29c30.92-.72,51.46-1.2,61.96-1.72C1104.18,3121.63,1111.77,3133.61,1085.05,3148.63Z" transform="translate(-289 -2306)"/>
          <path id="Shape_5_copy" data-name="Shape 5 copy" class="cls-2" d="M818.006,3063.61l-4.913,67.19,202.507-4.64-3.99-70.15" transform="translate(-289 -2306)"/>
          <path class="cls-3" d="M787.009,3189.02l-1.171,36.55,242.592-7.04s-5.72-25.17-3.45-41.1" transform="translate(-289 -2306)"/>
          <path id="ombre_pied_copy_3" data-name="ombre pied copy 3" class="cls-4" d="M1011.73,3084.6l-2.84-76.04-189.128-3.28-4.163,77.87" transform="translate(-289 -2306)"/>
        </g>
      </g>
      <g id="chapeaux">
        <g id="BELL">
          <path id="bell-2" data-name="bell" class="cls-1" d="M654.173,2975.52c-52.395-27.44-98.612-13.7-73.139-151.43s94.847-317.52,179.4-375.78,112.629-57.69,170.853-59.78,142.258,25.39,205.028,111.03,111.05,150.75,111.05,298.91-12.57,188.61-162.31,213.51C900.98,3042.6,664.123,2980.73,654.173,2975.52Z" transform="translate(-289 -2306)"/>
        </g>
      </g>
    </g>
  </g>
</svg>
