<svg xmlns="http://www.w3.org/2000/svg" xmlns:xlink="http://www.w3.org/1999/xlink" width="1202" height="2000" viewBox="0 0 1202 2000">
  <metadata><?xpacket begin="﻿" id="W5M0MpCehiHzreSzNTczkc9d"?>
<x:xmpmeta xmlns:x="adobe:ns:meta/" x:xmptk="Adobe XMP Core 5.6-c138 79.159824, 2016/09/14-01:09:01        ">
   <rdf:RDF xmlns:rdf="http://www.w3.org/1999/02/22-rdf-syntax-ns#">
      <rdf:Description rdf:about=""/>
   </rdf:RDF>
</x:xmpmeta>
                                                                                                    
                                                                                                    
                                                                                                    
                                                                                                    
                                                                                                    
                                                                                                    
                                                                                                    
                                                                                                    
                                                                                                    
                                                                                                    
                                                                                                    
                                                                                                    
                                                                                                    
                                                                                                    
                                                                                                    
                                                                                                    
                                                                                                    
                                                                                                    
                                                                                                    
                                                                                                    
                           
<?xpacket end="w"?></metadata>
<defs>
    <style>
      .cls-1 {
        fill: #f52929;
      }

      .cls-1, .cls-2, .cls-3, .cls-4 {
        fill-rule: evenodd;
      }

      .cls-2 {
        fill: url(#linear-gradient);
      }

      .cls-3 {
        fill: url(#linear-gradient-2);
      }

      .cls-4 {
        mix-blend-mode: multiply;
        fill: url(#linear-gradient-3);
      }
    </style>
    <linearGradient id="linear-gradient" x1="914.342" y1="865.813" x2="914.342" y2="791" gradientUnits="userSpaceOnUse">
      <stop offset="0" stop-opacity="0.2"/>
      <stop offset="1" stop-opacity="0"/>
    </linearGradient>
    <linearGradient id="linear-gradient-2" x1="908.909" y1="960.563" x2="905.375" y2="912.438" xlink:href="#linear-gradient"/>
    <linearGradient id="linear-gradient-3" x1="913.657" y1="740.281" x2="913.657" y2="819.594" gradientUnits="userSpaceOnUse">
      <stop offset="0" stop-opacity="0.29"/>
      <stop offset="1" stop-opacity="0"/>
    </linearGradient>
  </defs>
  <g id="Artboard_2_copy_4" data-name="Artboard 2 copy 4">
    <g>
      <g id="pieds">
        <g id="double_colerettes" data-name="double colerettes">
          <path id="Shape_1_copy" data-name="Shape 1 copy" class="cls-1" d="M1085.05,883.631c-26.72,15.025-60.85,10.46-60.85,35.41,0,11.93.61,24.159,1.26,33.682,10.64-.476,16.88-0.768,16.88-0.768s62.22-19.981,8.54,51.245c-28.15,37.34-25.63,196.43-25.63,196.43l8.54,555.13s-23.22,180.89-102.508,204.97S775.85,1895.66,760.429,1806s25.628-743.02,25.628-743.02-0.764-33.68-17.085-51.24c-15.708-16.9-51.821-48.078,17.085-51.026V926.333s3.275-10.306-34.17-17.081-148.2-36.6,25.627-42.7q18.18-.639,35.236-1.2l7.477-128.363,187.943,1.46,6.38,121.291c30.92-.722,51.46-1.2,61.96-1.725C1104.18,856.625,1111.77,868.606,1085.05,883.631Z" transform="translate(-289 -41)"/>
          <path id="Shape_5_copy" data-name="Shape 5 copy" class="cls-2" d="M818.006,798.606L813.093,865.8l202.507-4.635-3.99-70.158" transform="translate(-289 -41)"/>
          <path class="cls-3" d="M787.009,924.015l-1.171,36.55,242.592-7.034s-5.72-25.173-3.45-41.1" transform="translate(-289 -41)"/>
          <path id="ombre_pied_copy_3" data-name="ombre pied copy 3" class="cls-4" d="M1011.73,819.605l-2.84-76.045-189.128-3.279L815.6,818.145" transform="translate(-289 -41)"/>
        </g>
      </g>
      <g id="chapeaux">
        <g id="conical">
          <path id="concical" class="cls-1" d="M546.863,601.795S501.12,656.342,581.034,687.2s141.376,71.4,324.62,68.324S1188.24,721.3,1230.27,687.2s55.3-57.814,8.55-128.107-168.21-288.161-222.11-341.619S929.926,78.234,880.026,140.61,546.863,601.795,546.863,601.795Z" transform="translate(-289 -41)"/>
        </g>
      </g>
    </g>
  </g>
</svg>
