<svg xmlns="http://www.w3.org/2000/svg" xmlns:xlink="http://www.w3.org/1999/xlink" width="1202" height="2000" viewBox="0 0 1202 2000">
  <metadata><?xpacket begin="﻿" id="W5M0MpCehiHzreSzNTczkc9d"?>
<x:xmpmeta xmlns:x="adobe:ns:meta/" x:xmptk="Adobe XMP Core 5.6-c138 79.159824, 2016/09/14-01:09:01        ">
   <rdf:RDF xmlns:rdf="http://www.w3.org/1999/02/22-rdf-syntax-ns#">
      <rdf:Description rdf:about=""/>
   </rdf:RDF>
</x:xmpmeta>
                                                                                                    
                                                                                                    
                                                                                                    
                                                                                                    
                                                                                                    
                                                                                                    
                                                                                                    
                                                                                                    
                                                                                                    
                                                                                                    
                                                                                                    
                                                                                                    
                                                                                                    
                                                                                                    
                                                                                                    
                                                                                                    
                                                                                                    
                                                                                                    
                                                                                                    
                                                                                                    
                           
<?xpacket end="w"?></metadata>
<defs>
    <style>
      .cls-1 {
        fill: #01ad01;
      }

      .cls-1, .cls-2, .cls-3, .cls-4 {
        fill-rule: evenodd;
      }

      .cls-2 {
        fill: url(#linear-gradient);
      }

      .cls-3 {
        mix-blend-mode: multiply;
        fill: url(#linear-gradient-2);
      }

      .cls-4 {
        fill: #630;
      }
    </style>
    <linearGradient id="linear-gradient" x1="3508.154" y1="3234.34" x2="3506.286" y2="3332.53" gradientUnits="userSpaceOnUse">
      <stop offset="0" stop-opacity="0.612"/>
      <stop offset="1" stop-opacity="0"/>
    </linearGradient>
    <linearGradient id="linear-gradient-2" x1="3517.655" y1="3005.28" x2="3517.655" y2="3084.59" gradientUnits="userSpaceOnUse">
      <stop offset="0" stop-opacity="0.51"/>
      <stop offset="1" stop-opacity="0"/>
    </linearGradient>
  </defs>
  <g id="Artboard_2_copy_9" data-name="Artboard 2 copy 9">
    <g>
      <g id="pieds">
        <g id="colerette_inverse" data-name="colerette inverse">
          <path id="Shape_2_copy" data-name="Shape 2 copy" class="cls-1" d="M3689.05,3242.58c-11.14-.56-33.6-1.06-67.8-1.87l8,223.92,8.54,555.13s-23.22,180.89-102.51,204.97-155.43-64.07-170.85-153.73,25.63-743.02,25.63-743.02l7.8-93.67-7.8-.27c-173.83-6.11-48.1-33.43-10.65-40.21,19.87-3.6,31.38-32.42,36.54-49.57l8.28-138.28,187.94-2.54,8.49,161.27a180.71,180.71,0,0,0,8.59,18.08c14.97,27.45,41.62,19.14,68.34,34.16S3716.72,3243.96,3689.05,3242.58Z" transform="translate(-2893 -2306)"/>
          <path id="Shape_5_copy_2" data-name="Shape 5 copy 2" class="cls-2" d="M3397.06,3234.33l-4.87,86.73,230.06,11.46-1.54-92.73" transform="translate(-2893 -2306)"/>
          <path id="ombre_pied_copy" data-name="ombre pied copy" class="cls-3" d="M3615.73,3084.6l-2.84-76.04-189.13-3.28-4.16,77.87" transform="translate(-2893 -2306)"/>
        </g>
      </g>
      <g id="chapeaux">
        <g id="convexe">
          <path id="convex" class="cls-1" d="M3296.09,3020.52s-141.3-18.72-213.57-51.24-148.47-58.13-25.63-213.51c65.04-75.89,236.23-242.31,495.48-222.05s414.04,146.24,461.3,247.67,90.64,145.58-111.05,196.43S3296.09,3020.52,3296.09,3020.52Z" transform="translate(-2893 -2306)"/>
          <path id="POINTS" class="cls-4" d="M3110.69,2709.06a25.625,25.625,0,1,1-25.63,25.63A25.628,25.628,0,0,1,3110.69,2709.06Zm47.67,3c10.9-13.8,27.03-22.49,36.03-19.43s7.46,16.74-3.43,30.53-27.02,22.49-36.02,19.42S3147.47,2725.85,3158.36,2712.06Zm264.04,39.71c-26.11-1.54-53.66,15.66-34.17,25.62s26.01,14.31,34.17,0S3448.51,2753.31,3422.4,2751.77Zm76.88-59.78c-24.45,16.83-26.95,25.73,0,42.7s25.68,4.51,34.17-8.54-6.96-31-17.08-34.16-17.09,0-17.09,0h0Zm102.51,0c24.41,12.54,9.87,28.64,0,34.16s-27.1-5.41-25.62-17.08S3577.39,2679.44,3601.79,2691.99Zm102.52-8.54c-3.86,9.66-16.2,8.79,8.54,17.08s-1.94-11.04,8.54-17.08-10.38-49.49-17.08-25.63S3708.16,2673.78,3704.31,2683.45Zm128.13,17.08c25.1,18.28,87.42,20.32,51.26-8.54s-52.02-28.15-59.8-17.08S3807.35,2682.24,3832.44,2700.53Zm85.43,76.86c-10.35,15.67-5.25,17.01-17.08,25.62s-3.98,31.26,17.08,17.08,41.57-31.19,34.17-51.24S3928.22,2761.72,3917.87,2777.39Zm-162.31,25.62s23.64,14.13,8.54,17.08-38.96,15.61-34.17,0S3755.56,2803.01,3755.56,2803.01Zm-230.65-25.62c15.71,21.74,29.94,43.62,8.54,51.24s-48.27,2.49-51.25-17.08,11.4-44.42,25.62-42.7S3509.2,2755.65,3524.91,2777.39Zm-68.34,102.49c3.98,18.85,6.07,26.67-8.54,25.62s-12.47-13.06-8.55-25.62S3452.59,2861.02,3456.57,2879.88Zm-51.26,59.78c16.68,21.9,17.6,20.77,0,25.62s-44.98,9.49-42.71-8.54,16.14-24.65,25.63-25.62S3388.64,2917.76,3405.31,2939.66Zm-171.63-78.69c25.42,6.04,47.04-4.74,39.99,15.02s-23.32,49.33-42.03,38.96-16.61-21.03-14.97-33S3208.26,2854.93,3233.68,2860.97Zm-110.27-57.96c5.84,25.75,17,35.38,0,42.7s-35.63-8.58-34.18-25.62,7.02-22.78,17.09-25.62S3117.57,2777.26,3123.41,2803.01Zm187.93-102.48c-12.16,22.62-50.51,41.3-25.62,51.24s50.49-2.69,51.25-17.08,12.09-26.8,0-34.16S3323.51,2677.9,3311.34,2700.53Zm346.38,50.16a29.5,29.5,0,1,1-29.5,29.5A29.5,29.5,0,0,1,3657.72,2750.69Zm107.15-116.07c-12.53-15.88-31.08-25.89-41.44-22.36s-8.59,19.27,3.95,35.15,31.08,25.89,41.44,22.36S3777.41,2650.5,3764.87,2634.62Zm-303.72-31.13c30.03-1.78,61.72,18.03,39.3,29.5s-29.92,16.48-39.3,0S3431.11,2605.26,3461.15,2603.49Zm-88.44,8.02c28.13,19.38,31,29.64,0,49.17s-29.54,5.19-39.31-9.83,8.01-35.7,19.65-39.34,19.66,0,19.66,0h0Zm181.07,8.54c-28.08,14.45-11.36,32.99,0,39.34s31.18-6.23,29.48-19.67S3581.85,2605.61,3553.78,2620.05Zm-341.71,8.54c-28.07,14.45-11.35,32.99,0,39.34s31.18-6.23,29.48-19.67S3240.14,2614.15,3212.07,2628.59Zm35.85,169.52c4.43,11.13,18.62,10.12-9.83,19.67s2.23-12.71-9.83-19.67,11.94-56.98,19.66-29.5S3243.49,2786.98,3247.92,2798.11Zm544.55,105.07c-28.87,21.06-100.56,23.4-58.96-9.83s59.84-32.41,68.78-19.67S3821.33,2882.13,3792.47,2903.18ZM3107.9,2739.36s-27.19,16.26-9.83,19.66,44.83,17.97,39.31,0S3107.9,2739.36,3107.9,2739.36Zm221.65,89.8c-18.07,25.03-34.44,50.22-9.83,59s55.53,2.86,58.96-19.67-13.11-51.15-29.48-49.17S3347.62,2804.12,3329.55,2829.16Zm305.86,49.94c-4.58,21.72-6.99,30.72,9.82,29.51s14.35-15.04,9.83-29.51S3639.98,2857.39,3635.41,2879.1Zm-111.9,26.14c-19.18,25.22-20.24,23.92,0,29.5s51.75,10.93,49.14-9.83-18.57-28.38-29.48-29.5S3542.7,2880.02,3523.51,2905.24Zm281.58-165.88c-6.72,29.65-19.57,40.73,0,49.17s40.98-9.89,39.3-29.51-8.06-26.23-19.65-29.5S3811.8,2709.7,3805.09,2739.36Zm-66.62,201.55a25.625,25.625,0,1,1-25.63,25.62A25.619,25.619,0,0,1,3738.47,2940.91Zm292.02-47.56c28.13,19.38,31,29.63,0,49.17s-29.54,5.19-39.31-9.84,8.01-35.69,19.66-39.33,19.65,0,19.65,0h0Zm-160.64,17.08c-28.07,14.45-11.35,32.98,0,39.34s31.19-6.23,29.48-19.67S3897.93,2895.98,3869.85,2910.43Zm-224.33,84.02c5.44-15.55,17.53-5.53,25.15,6.63m94.49-10.22c-5.51-17.97-29.48-19.67-29.48-19.67s-27.19,16.26-9.82,19.67m-430.04-406.19c-10.35,15.67-5.25,17-17.09,25.62s-3.98,31.26,17.09,17.08m131.36-74.66c12.03,16.26,30.26,26.85,40.72,23.64s9.18-18.98-2.85-35.25m264.73,62.22c-30.08.84-61.12-19.95-38.37-30.71s30.43-15.54,39.29,1.22S3759.86,2602.48,3729.78,2603.32Zm-120.92-50.03c1.28,13.49.34,34.14,28.85,20.58m377.4,255.61c-24.51-19.06-86.74-23.05-51.5,6.93s51.12,29.76,59.24,18.94S4039.62,2848.54,4015.11,2829.48Zm-489.89,181.34c-12.45-15.95-30.95-26.06-41.32-22.58s-8.69,19.22,3.76,35.17m-276-68.03c30.05-1.62,61.63,18.35,39.16,29.71s-30.01,16.32-39.31-.21S3181.62,2957,3211.66,2955.38Zm92.54,17.05c-28.14,14.3-11.52,32.93-.2,39.34s31.21-6.06,29.58-19.51S3332.35,2958.13,3304.2,2972.43Zm-230.93-4.82a25.62,25.62,0,1,1,25.49-25.76A25.613,25.613,0,0,1,3073.27,2967.61Zm-43.21-83.72c-5.98-25.72-17.2-35.29-.23-42.7s35.67,8.4,34.31,25.44-6.89,22.82-16.95,25.71S3036.04,2909.61,3030.06,2883.89Zm110.8,53.19c-7.69-12.12-3.94-13.17-12.68-19.81s-3.06-24.23,12.5-13.32,30.73,24.04,25.37,39.62S3148.55,2949.19,3140.86,2937.08Zm-64.96.23s27.11-16.41,9.72-19.72-44.91-17.73-39.3.21S3075.9,2937.31,3075.9,2937.31Z" transform="translate(-2893 -2306)"/>
        </g>
      </g>
    </g>
  </g>
</svg>
