<svg xmlns="http://www.w3.org/2000/svg" xmlns:xlink="http://www.w3.org/1999/xlink" width="1202" height="2000" viewBox="0 0 1202 2000">
  <metadata><?xpacket begin="﻿" id="W5M0MpCehiHzreSzNTczkc9d"?>
<x:xmpmeta xmlns:x="adobe:ns:meta/" x:xmptk="Adobe XMP Core 5.6-c138 79.159824, 2016/09/14-01:09:01        ">
   <rdf:RDF xmlns:rdf="http://www.w3.org/1999/02/22-rdf-syntax-ns#">
      <rdf:Description rdf:about=""/>
   </rdf:RDF>
</x:xmpmeta>
                                                                                                    
                                                                                                    
                                                                                                    
                                                                                                    
                                                                                                    
                                                                                                    
                                                                                                    
                                                                                                    
                                                                                                    
                                                                                                    
                                                                                                    
                                                                                                    
                                                                                                    
                                                                                                    
                                                                                                    
                                                                                                    
                                                                                                    
                                                                                                    
                                                                                                    
                                                                                                    
                           
<?xpacket end="w"?></metadata>
<defs>
    <style>
      .cls-1, .cls-6 {
        fill: #5454ff;
      }

      .cls-1, .cls-2, .cls-3, .cls-4, .cls-5, .cls-6 {
        fill-rule: evenodd;
      }

      .cls-2 {
        fill: url(#linear-gradient);
      }

      .cls-3 {
        fill: url(#linear-gradient-2);
      }

      .cls-4 {
        mix-blend-mode: multiply;
        fill: url(#linear-gradient-3);
      }

      .cls-5 {
        fill: #303030;
      }

      .cls-6 {
        mix-blend-mode: color;
      }
    </style>
    <linearGradient id="linear-gradient" x1="2216.34" y1="865.813" x2="2216.34" y2="791" gradientUnits="userSpaceOnUse">
      <stop offset="0" stop-opacity="0.2"/>
      <stop offset="1" stop-opacity="0"/>
    </linearGradient>
    <linearGradient id="linear-gradient-2" x1="2210.907" y1="960.563" x2="2207.373" y2="912.438" xlink:href="#linear-gradient"/>
    <linearGradient id="linear-gradient-3" x1="2215.655" y1="740.281" x2="2215.655" y2="819.594" gradientUnits="userSpaceOnUse">
      <stop offset="0" stop-opacity="0.29"/>
      <stop offset="1" stop-opacity="0"/>
    </linearGradient>
  </defs>
  <g id="Artboard_1_copy_5" data-name="Artboard 1 copy 5">
    <g>
      <g id="pieds">
        <g id="double_colerettes" data-name="double colerettes">
          <path id="Shape_1_copy" data-name="Shape 1 copy" class="cls-1" d="M2387.05,883.631c-26.72,15.025-60.85,10.46-60.85,35.41,0,11.93.61,24.159,1.26,33.682,10.64-.476,16.88-0.768,16.88-0.768s62.22-19.981,8.54,51.245c-28.15,37.34-25.63,196.43-25.63,196.43l8.54,555.13s-23.22,180.89-102.51,204.97-155.43-64.07-170.85-153.73,25.63-743.02,25.63-743.02-0.77-33.68-17.09-51.24c-15.71-16.9-51.82-48.078,17.09-51.026V926.333s3.27-10.306-34.17-17.081-148.2-36.6,25.62-42.7q18.18-.639,35.24-1.2l7.48-128.363,187.94,1.46,6.38,121.291c30.92-.722,51.46-1.2,61.96-1.725C2406.18,856.625,2413.77,868.606,2387.05,883.631Z" transform="translate(-1591 -41)"/>
          <path id="Shape_5_copy" data-name="Shape 5 copy" class="cls-2" d="M2120.01,798.606l-4.92,67.193,202.51-4.635-3.99-70.158" transform="translate(-1591 -41)"/>
          <path class="cls-3" d="M2089.01,924.015l-1.17,36.55,242.59-7.034s-5.72-25.173-3.45-41.1" transform="translate(-1591 -41)"/>
          <path id="ombre_pied_copy_3" data-name="ombre pied copy 3" class="cls-4" d="M2313.73,819.605l-2.84-76.045-189.13-3.279-4.16,77.864" transform="translate(-1591 -41)"/>
        </g>
      </g>
      <g id="chapeaux">
        <g id="flat">
          <g id="SHAPES">
            <path class="cls-5" d="M2113.68,746.984L1840.32,635.957S1728.7,594.985,1695.1,533.472s-34.95-115.855,187.93-153.729,346.97-36.037,512.56-17.081,357.53,80.56,341.71,128.107-123.63,169.488-427.13,256.215C2201.77,772.279,2113.68,746.984,2113.68,746.984Z" transform="translate(-1591 -41)"/>
            <path id="Shape_6_copy_3" data-name="Shape 6 copy 3" class="cls-6" d="M2113.68,746.984L1840.32,635.957S1728.7,594.985,1695.1,533.472s-34.95-115.855,187.93-153.729,346.97-36.037,512.56-17.081,357.53,80.56,341.71,128.107-123.63,169.488-427.13,256.215C2201.77,772.279,2113.68,746.984,2113.68,746.984ZM1695.1,533.472c-33.61-61.513-34.95-115.855,187.93-153.729s346.97-36.037,512.56-17.081,357.53,80.56,341.71,128.107-99.96,117.267-367.34,128.107C1856.34,639.7,1696.16,535.421,1695.1,533.472Z" transform="translate(-1591 -41)"/>
            <path id="Shape_6_copy" data-name="Shape 6 copy" class="cls-1" d="M1695.1,533.472c-33.61-61.513-34.95-115.855,187.93-153.729s346.97-36.037,512.56-17.081,357.53,80.56,341.71,128.107-99.96,117.267-367.34,128.107C1856.34,639.7,1696.16,535.421,1695.1,533.472Z" transform="translate(-1591 -41)"/>
          </g>
        </g>
      </g>
    </g>
  </g>
</svg>
