<svg xmlns="http://www.w3.org/2000/svg" xmlns:xlink="http://www.w3.org/1999/xlink" width="1202" height="2000" viewBox="0 0 1202 2000">
  <defs>
    <style>
      .cls-1, .cls-5 {
        fill: #5454ff;
      }

      .cls-1, .cls-2, .cls-3, .cls-4, .cls-5, .cls-6 {
        fill-rule: evenodd;
      }

      .cls-2 {
        fill: url(#linear-gradient);
      }

      .cls-3 {
        mix-blend-mode: multiply;
        fill: url(#linear-gradient-2);
      }

      .cls-4 {
        fill: #303030;
      }

      .cls-5 {
        mix-blend-mode: color;
      }

      .cls-6 {
        fill: #630;
      }
    </style>
    <linearGradient id="linear-gradient" x1="4810.154" y1="3234.34" x2="4808.286" y2="3332.53" gradientUnits="userSpaceOnUse">
      <stop offset="0" stop-opacity="0.612"/>
      <stop offset="1" stop-opacity="0"/>
    </linearGradient>
    <linearGradient id="linear-gradient-2" x1="4819.655" y1="3005.28" x2="4819.655" y2="3084.59" gradientUnits="userSpaceOnUse">
      <stop offset="0" stop-opacity="0.51"/>
      <stop offset="1" stop-opacity="0"/>
    </linearGradient>
  </defs>
  <g id="Artboard_1_copy_9" data-name="Artboard 1 copy 9">
    <g>
      <g id="pieds">
        <g id="colerette_inverse" data-name="colerette inverse">
          <path id="Shape_2_copy" data-name="Shape 2 copy" class="cls-1" d="M4991.05,3242.58c-11.14-.56-33.61-1.06-67.8-1.87l8,223.92,8.54,555.13s-23.22,180.89-102.51,204.97-155.43-64.07-170.85-153.73,25.63-743.02,25.63-743.02l7.8-93.67-7.8-.27c-173.83-6.11-48.1-33.43-10.65-40.21,19.87-3.6,31.38-32.42,36.54-49.57l8.28-138.28,187.94-2.54,8.49,161.27a180.71,180.71,0,0,0,8.59,18.08c14.97,27.45,41.62,19.14,68.34,34.16S5018.72,3243.96,4991.05,3242.58Z" transform="translate(-4195 -2306)"/>
          <path id="Shape_5_copy_2" data-name="Shape 5 copy 2" class="cls-2" d="M4699.06,3234.33l-4.87,86.73,230.06,11.46-1.54-92.73" transform="translate(-4195 -2306)"/>
          <path id="ombre_pied_copy" data-name="ombre pied copy" class="cls-3" d="M4917.73,3084.6l-2.84-76.04-189.13-3.28-4.16,77.87" transform="translate(-4195 -2306)"/>
        </g>
      </g>
      <g id="chapeaux">
        <g id="flat">
          <g id="SHAPES">
            <path class="cls-4" d="M4717.68,3011.98l-273.36-111.02s-111.62-40.98-145.22-102.49-34.95-115.85,187.93-153.73,346.97-36.03,512.56-17.08,357.53,80.56,341.71,128.11-123.63,169.49-427.13,256.21C4805.77,3037.28,4717.68,3011.98,4717.68,3011.98Z" transform="translate(-4195 -2306)"/>
            <path id="Shape_6_copy_3" data-name="Shape 6 copy 3" class="cls-5" d="M4717.68,3011.98l-273.36-111.02s-111.62-40.98-145.22-102.49-34.95-115.85,187.93-153.73,346.97-36.03,512.56-17.08,357.53,80.56,341.71,128.11-123.63,169.49-427.13,256.21C4805.77,3037.28,4717.68,3011.98,4717.68,3011.98ZM4299.1,2798.47c-33.61-61.51-34.95-115.85,187.93-153.73s346.97-36.03,512.56-17.08,357.53,80.56,341.71,128.11-99.96,117.27-367.34,128.11C4460.34,2904.7,4300.16,2800.42,4299.1,2798.47Z" transform="translate(-4195 -2306)"/>
            <path id="Shape_6_copy" data-name="Shape 6 copy" class="cls-1" d="M4299.1,2798.47c-33.61-61.51-34.95-115.85,187.93-153.73s346.97-36.03,512.56-17.08,357.53,80.56,341.71,128.11-99.96,117.27-367.34,128.11C4460.34,2904.7,4300.16,2800.42,4299.1,2798.47Z" transform="translate(-4195 -2306)"/>
          </g>
          <path id="POINTS" class="cls-6" d="M4382.69,2709.06a25.625,25.625,0,1,1-25.63,25.63A25.622,25.622,0,0,1,4382.69,2709.06Zm77.67,3c10.9-13.8,27.03-22.49,36.03-19.43s7.46,16.74-3.43,30.53-27.02,22.49-36.02,19.42S4449.47,2725.85,4460.36,2712.06Zm264.04,39.71c-26.11-1.54-53.65,15.66-34.17,25.62s26.01,14.31,34.17,0S4750.51,2753.31,4724.4,2751.77Zm76.88-59.78c-24.45,16.83-26.95,25.73,0,42.7s25.68,4.51,34.17-8.54-6.96-31-17.08-34.16-17.09,0-17.09,0h0Zm102.51,0c24.41,12.54,9.87,28.64,0,34.16s-27.1-5.41-25.62-17.08S4879.39,2679.44,4903.79,2691.99Zm112.52,21.46c-3.86,9.66-16.2,8.79,8.54,17.08s-1.94-11.04,8.54-17.08-10.38-49.49-17.08-25.63S5020.16,2703.78,5016.31,2713.45Zm118.13-12.92c25.1,18.28,87.42,20.32,51.26-8.54s-52.02-28.15-59.8-17.08S5109.35,2682.24,5134.44,2700.53Zm85.43,76.86c-10.35,15.67-5.25,17.01-17.08,25.62s-3.98,31.26,17.08,17.08,41.57-31.19,34.17-51.24S5230.22,2761.72,5219.87,2777.39Zm-162.31,25.62s23.64,14.13,8.54,17.08-38.96,15.61-34.17,0S5057.56,2803.01,5057.56,2803.01Zm-230.65-25.62c15.71,21.74,29.94,43.62,8.54,51.24s-48.27,2.49-51.25-17.08,11.4-44.42,25.62-42.7S4811.2,2755.65,4826.91,2777.39Zm-308.24,84.56c1.64-11.97-8.41-27.02,17.01-20.98s47.04-4.74,39.99,15.02m-150.26-52.98c5.84,25.75,17,35.38,0,42.7s-35.63-8.58-34.17-25.62,7.01-22.78,17.08-25.62S4419.57,2777.26,4425.41,2803.01Zm187.93-102.48c-12.16,22.62-50.51,41.3-25.62,51.24s50.49-2.69,51.25-17.08,12.09-26.8,0-34.16S4625.51,2677.9,4613.34,2700.53Zm346.38,50.16a29.5,29.5,0,1,1-29.5,29.5A29.5,29.5,0,0,1,4959.72,2750.69Zm117.15-86.07c-12.53-15.88-31.08-25.89-41.44-22.36s-8.59,19.27,3.95,35.15,31.08,25.89,41.44,22.36S5089.41,2680.5,5076.87,2664.62Zm-263.72-51.13c30.03-1.78,61.72,18.03,39.3,29.5s-29.92,16.48-39.3,0S4783.11,2615.26,4813.15,2613.49Zm-118.44,8.02c28.13,19.38,31,29.64,0,49.17s-29.54,5.19-39.31-9.83,8.01-35.7,19.65-39.34,19.66,0,19.66,0h0Zm243.77,8.54c-28.07,14.45-11.35,32.99,0,39.34s31.18-6.23,29.48-19.67S4966.55,2615.61,4938.48,2630.05Zm-384.41,8.54c-28.07,14.45-11.35,32.99,0,39.34s31.18-6.23,29.48-19.67S4582.14,2624.15,4554.07,2638.59Zm-4.15,159.52c4.43,11.13,18.62,10.12-9.83,19.67s2.23-12.71-9.83-19.67,11.94-56.98,19.66-29.5S4545.49,2786.98,4549.92,2798.11Zm-235.03-48.87c7.62,12.16,3.87,13.19,12.58,19.88s2.93,24.25-12.58,13.25-30.6-24.2-25.16-39.75S4307.27,2737.08,4314.89,2749.24Zm65.01-9.88s-27.19,16.26-9.83,19.66,44.83,17.97,39.31,0S4379.9,2739.36,4379.9,2739.36Zm300.78,99.13c3.43-22.53-13.11-51.15-29.48-49.17s-1.58-15.2-19.65,9.83-34.44,50.23-9.83,59.01m485.37-118.8c-6.72,29.65-19.57,40.73,0,49.17s40.98-9.89,39.3-29.51-8.06-26.23-19.65-29.5S5113.8,2709.7,5107.09,2739.36Zm-653.12-46.77c-28.86,21.05-100.56,23.4-58.96-9.83s59.84-32.41,68.79-19.67S4482.84,2671.54,4453.97,2692.59Zm478.23,180.1c18.51-3.18,15.99-7.81,30.37-5.09s25.51-18.5.75-24.15-51.19-8.94-60.74,10.18S4913.68,2875.87,4932.2,2872.69Zm-200.14,11.2c-5.98-25.72-17.2-35.29-.23-42.7s35.67,8.4,34.31,25.44" transform="translate(-4195 -2306)"/>
        </g>
      </g>
    </g>
  </g>
</svg>
