<svg xmlns="http://www.w3.org/2000/svg" width="2000" height="2000" viewBox="0 0 2000 2000">
  <metadata><?xpacket begin="﻿" id="W5M0MpCehiHzreSzNTczkc9d"?>
<x:xmpmeta xmlns:x="adobe:ns:meta/" x:xmptk="Adobe XMP Core 5.6-c138 79.159824, 2016/09/14-01:09:01        ">
   <rdf:RDF xmlns:rdf="http://www.w3.org/1999/02/22-rdf-syntax-ns#">
      <rdf:Description rdf:about=""/>
   </rdf:RDF>
</x:xmpmeta>
                                                                                                    
                                                                                                    
                                                                                                    
                                                                                                    
                                                                                                    
                                                                                                    
                                                                                                    
                                                                                                    
                                                                                                    
                                                                                                    
                                                                                                    
                                                                                                    
                                                                                                    
                                                                                                    
                                                                                                    
                                                                                                    
                                                                                                    
                                                                                                    
                                                                                                    
                                                                                                    
                           
<?xpacket end="w"?></metadata>
<defs>
    <style>
      .cls-1 {
        fill: #777;
        fill-rule: evenodd;
      }
    </style>
  </defs>
  <g id="Artboard_1" data-name="Artboard 1">
    <path class="cls-1" d="M9617,3500s-33.52,27.06-45,43-2.26,14.45,6,11,3.8,5.22,21-6,60-36,60-36,2.97-7.23,19-2,46,4,46,4,15.13,14.6,21,18-7.74,5.44-5,8,10.81-4.05,18-4,6.59,0.23,9-1,11.5,0.44,12,4,2.8-1.8,1-4,3.44-1.47,7-2,5.7-2.73,10,0,5.84-.64,1-4-8.8-2.92-13-2-9.21.47-15-5-14-13-14-13,44.52-10.4,48-80,29.16-68.08,39-70-13.96-.57-21-17-14.53-23.49-36-25-30.59,16.01-34,24-7.08,34.35-49,62-49.23,42.67-69,62-24.42,27.38-26,31,2.19,6.34,6,4S9617,3500,9617,3500Zm124,13c5.53-.98,1.21-3.8,14,8s10.32,9.83,7,10-5.95,2-17-9S9735.47,3513.98,9741,3513Z" transform="translate(-8101 -2306)"/>
  </g>
</svg>
