<svg xmlns="http://www.w3.org/2000/svg" width="1200" height="2000" viewBox="0 0 1200 2000">
  <metadata><?xpacket begin="﻿" id="W5M0MpCehiHzreSzNTczkc9d"?>
<x:xmpmeta xmlns:x="adobe:ns:meta/" x:xmptk="Adobe XMP Core 5.6-c138 79.159824, 2016/09/14-01:09:01        ">
   <rdf:RDF xmlns:rdf="http://www.w3.org/1999/02/22-rdf-syntax-ns#">
      <rdf:Description rdf:about=""/>
   </rdf:RDF>
</x:xmpmeta>
                                                                                                    
                                                                                                    
                                                                                                    
                                                                                                    
                                                                                                    
                                                                                                    
                                                                                                    
                                                                                                    
                                                                                                    
                                                                                                    
                                                                                                    
                                                                                                    
                                                                                                    
                                                                                                    
                                                                                                    
                                                                                                    
                                                                                                    
                                                                                                    
                                                                                                    
                                                                                                    
                           
<?xpacket end="w"?></metadata>
<defs>
    <style>
      .cls-1 {
        fill: #630;
        fill-rule: evenodd;
      }
    </style>
  </defs>
  <g id="Artboard_1_copy_10" data-name="Artboard 1 copy 10">
    <g id="chapeaux">
      <g id="conical">
        <path id="POINTS" class="cls-1" d="M7328.4,2751.77c-26.11-1.54-53.65,15.66-34.17,25.62s26.01,14.31,34.17,0S7354.51,2753.31,7328.4,2751.77Zm76.88-59.78c-24.45,16.83-26.95,25.73,0,42.7s25.68,4.51,34.17-8.54-6.96-31-17.08-34.16-17.09,0-17.09,0h0Zm102.51,0c24.41,12.54,9.87,28.64,0,34.16s-27.1-5.41-25.62-17.08S7483.39,2679.44,7507.79,2691.99Zm102.52,15.8c-3.86,9.66-16.2,8.79,8.54,17.08s-1.94-11.04,8.54-17.08-10.38-49.48-17.08-25.62S7614.16,2698.13,7610.31,2707.79Zm51.25,95.22s23.64,14.13,8.54,17.08-38.96,15.61-34.17,0S7661.56,2803.01,7661.56,2803.01Zm-230.65-25.62c15.71,21.74,29.94,43.62,8.54,51.24s-48.27,2.49-51.25-17.08,11.4-44.42,25.62-42.7S7415.2,2755.65,7430.91,2777.39Zm-68.34,102.49c3.98,18.85,6.07,26.67-8.54,25.62s-12.47-13.06-8.55-25.62S7358.59,2861.02,7362.57,2879.88Zm-51.26,59.78c16.68,21.9,17.6,20.77,0,25.62s-44.98,9.49-42.71-8.54,16.14-24.65,25.63-25.62S7294.64,2917.76,7311.31,2939.66Zm-171.63-78.69c25.42,6.04,47.04-4.74,39.99,15.02s-23.32,49.33-42.03,38.96-16.61-21.03-14.97-33S7114.26,2854.93,7139.68,2860.97Zm77.66-160.44c-12.16,22.62-50.51,41.3-25.62,51.24s50.49-2.69,51.25-17.08,12.09-26.8,0-34.16S7229.51,2677.9,7217.34,2700.53Zm346.38,50.16a29.5,29.5,0,1,1-29.5,29.5A29.5,29.5,0,0,1,7563.72,2750.69Zm-196.57-147.2c30.04-1.78,61.72,18.03,39.3,29.5s-29.92,16.48-39.3,0S7337.11,2605.26,7367.15,2603.49Zm-88.44,8.02c28.13,19.38,31,29.64,0,49.17s-29.54,5.19-39.31-9.83,8.01-35.7,19.65-39.34,19.66,0,19.66,0h0Zm181.07,8.54c-28.08,14.45-11.36,32.99,0,39.34s31.18-6.23,29.48-19.67S7487.85,2605.61,7459.78,2620.05Zm-305.86,178.06c4.43,11.13,18.62,10.12-9.83,19.67s2.23-12.71-9.83-19.67,11.94-56.98,19.66-29.5S7149.49,2786.98,7153.92,2798.11Zm544.55,105.07c-28.87,21.06-100.56,23.4-58.96-9.83s59.84-32.41,68.78-19.67S7727.33,2882.13,7698.47,2903.18Zm-462.92-74.02c-18.07,25.03-34.44,50.22-9.83,59s55.53,2.86,58.96-19.67-13.11-51.15-29.48-49.17S7253.62,2804.12,7235.55,2829.16Zm305.86,49.94c-4.58,21.72-6.99,30.72,9.82,29.51s14.35-15.04,9.83-29.51S7545.98,2857.39,7541.41,2879.1Zm-111.9,26.14c-19.18,25.22-20.24,23.92,0,29.5s51.75,10.93,49.14-9.83-18.57-28.38-29.48-29.5S7448.7,2880.02,7429.51,2905.24Zm166.34,35.19c-28.07,14.45-11.35,32.98,0,39.34s31.19-6.23,29.48-19.67S7623.93,2925.98,7595.85,2940.43Zm-97.88-439.96c-24-13.3-8.97-28.94,1.07-34.15s26.92,6.26,25.08,17.88S7521.97,2513.77,7497.97,2500.47Zm-102.73,5.33c4.15-9.54,16.46-8.28-8-17.34s1.59,11.09-9.08,16.81,8.83,49.78,16.28,26.14S7391.09,2515.34,7395.24,2505.8Zm35.13-46.88a29.5,29.5,0,1,1,30.38-28.56A29.49,29.49,0,0,1,7430.37,2458.92Zm-97.19,93.79c12.03,16.26,30.26,26.85,40.72,23.64s9.18-18.98-2.85-35.25-30.26-26.85-40.72-23.65S7321.15,2536.44,7333.18,2552.71Zm252.6,90.61c-30.08.84-61.12-19.95-38.37-30.71s30.43-15.54,39.29,1.22S7615.86,2642.48,7585.78,2643.32Zm-42.07-69.45c28.52-13.56,12.38-32.62,1.23-39.32s-31.36,5.25-30.08,18.74S7515.2,2587.43,7543.71,2573.87Zm-156.05,401.51c30.05-1.62,61.63,18.35,39.16,29.71s-30.01,16.32-39.31-.21S7357.62,2977,7387.66,2975.38Zm-197.46-42.95c-28.14,14.3-11.52,32.93-.2,39.34s31.21-6.06,29.58-19.51S7218.35,2918.13,7190.2,2932.43Zm-119-14.29c-7.68-12.12-3.93-13.17-12.68-19.81s-3.06-24.23,12.51-13.31,30.73,24.03,25.37,39.61S7078.89,2930.26,7071.2,2918.14Z" transform="translate(-6800 -2306)"/>
      </g>
    </g>
  </g>
</svg>
