<svg xmlns="http://www.w3.org/2000/svg" width="1200" height="2000" viewBox="0 0 1200 2000">
  <metadata><?xpacket begin="﻿" id="W5M0MpCehiHzreSzNTczkc9d"?>
<x:xmpmeta xmlns:x="adobe:ns:meta/" x:xmptk="Adobe XMP Core 5.6-c138 79.159824, 2016/09/14-01:09:01        ">
   <rdf:RDF xmlns:rdf="http://www.w3.org/1999/02/22-rdf-syntax-ns#">
      <rdf:Description rdf:about=""/>
   </rdf:RDF>
</x:xmpmeta>
                                                                                                    
                                                                                                    
                                                                                                    
                                                                                                    
                                                                                                    
                                                                                                    
                                                                                                    
                                                                                                    
                                                                                                    
                                                                                                    
                                                                                                    
                                                                                                    
                                                                                                    
                                                                                                    
                                                                                                    
                                                                                                    
                                                                                                    
                                                                                                    
                                                                                                    
                                                                                                    
                           
<?xpacket end="w"?></metadata>
<defs>
    <style>
      .cls-1 {
        fill: #630;
        fill-rule: evenodd;
      }
    </style>
  </defs>
  <g id="Artboard_1_copy_10" data-name="Artboard 1 copy 10">
    <g id="chapeaux">
      <g id="flat">
        <path id="POINTS" class="cls-1" d="M6986.69,2709.06a25.625,25.625,0,1,1-25.63,25.63A25.622,25.622,0,0,1,6986.69,2709.06Zm77.67,3c10.9-13.8,27.03-22.49,36.03-19.43s7.46,16.74-3.43,30.53-27.02,22.49-36.02,19.42S7053.47,2725.85,7064.36,2712.06Zm264.04,39.71c-26.11-1.54-53.65,15.66-34.17,25.62s26.01,14.31,34.17,0S7354.51,2753.31,7328.4,2751.77Zm76.88-59.78c-24.45,16.83-26.95,25.73,0,42.7s25.68,4.51,34.17-8.54-6.96-31-17.08-34.16-17.09,0-17.09,0h0Zm102.51,0c24.41,12.54,9.87,28.64,0,34.16s-27.1-5.41-25.62-17.08S7483.39,2679.44,7507.79,2691.99Zm112.52,21.46c-3.86,9.66-16.2,8.79,8.54,17.08s-1.94-11.04,8.54-17.08-10.38-49.49-17.08-25.63S7624.16,2703.78,7620.31,2713.45Zm118.13-12.92c25.1,18.28,87.42,20.32,51.26-8.54s-52.02-28.15-59.8-17.08S7713.35,2682.24,7738.44,2700.53Zm85.43,76.86c-10.35,15.67-5.25,17.01-17.08,25.62s-3.98,31.26,17.08,17.08,41.57-31.19,34.17-51.24S7834.22,2761.72,7823.87,2777.39Zm-162.31,25.62s23.64,14.13,8.54,17.08-38.96,15.61-34.17,0S7661.56,2803.01,7661.56,2803.01Zm-230.65-25.62c15.71,21.74,29.94,43.62,8.54,51.24s-48.27,2.49-51.25-17.08,11.4-44.42,25.62-42.7S7415.2,2755.65,7430.91,2777.39Zm-308.24,84.56c1.64-11.97-8.41-27.02,17.01-20.98s47.04-4.74,39.99,15.02m-150.26-52.98c5.84,25.75,17,35.38,0,42.7s-35.63-8.58-34.17-25.62,7.01-22.78,17.08-25.62S7023.57,2777.26,7029.41,2803.01Zm187.93-102.48c-12.16,22.62-50.51,41.3-25.62,51.24s50.49-2.69,51.25-17.08,12.09-26.8,0-34.16S7229.51,2677.9,7217.34,2700.53Zm346.38,50.16a29.5,29.5,0,1,1-29.5,29.5A29.5,29.5,0,0,1,7563.72,2750.69Zm117.15-86.07c-12.53-15.88-31.08-25.89-41.44-22.36s-8.59,19.27,3.95,35.15,31.08,25.89,41.44,22.36S7693.41,2680.5,7680.87,2664.62Zm-263.72-51.13c30.03-1.78,61.72,18.03,39.3,29.5s-29.92,16.48-39.3,0S7387.11,2615.26,7417.15,2613.49Zm-118.44,8.02c28.13,19.38,31,29.64,0,49.17s-29.54,5.19-39.31-9.83,8.01-35.7,19.65-39.34,19.66,0,19.66,0h0Zm243.77,8.54c-28.07,14.45-11.35,32.99,0,39.34s31.18-6.23,29.48-19.67S7570.55,2615.61,7542.48,2630.05Zm-384.41,8.54c-28.07,14.45-11.35,32.99,0,39.34s31.18-6.23,29.48-19.67S7186.14,2624.15,7158.07,2638.59Zm-4.15,159.52c4.43,11.13,18.62,10.12-9.83,19.67s2.23-12.71-9.83-19.67,11.94-56.98,19.66-29.5S7149.49,2786.98,7153.92,2798.11Zm-235.03-48.87c7.62,12.16,3.87,13.19,12.58,19.88s2.93,24.25-12.58,13.25-30.6-24.2-25.16-39.75S6911.27,2737.08,6918.89,2749.24Zm65.01-9.88s-27.19,16.26-9.83,19.66,44.83,17.97,39.31,0S6983.9,2739.36,6983.9,2739.36Zm300.78,99.13c3.43-22.53-13.11-51.15-29.48-49.17s-1.58-15.2-19.65,9.84-34.44,50.22-9.83,59m485.37-118.8c-6.72,29.65-19.57,40.73,0,49.17s40.98-9.89,39.3-29.51-8.06-26.23-19.65-29.5S7717.8,2709.7,7711.09,2739.36Zm-653.12-46.77c-28.86,21.05-100.56,23.4-58.96-9.83s59.84-32.41,68.79-19.67S7086.84,2671.54,7057.97,2692.59Zm478.23,180.1c18.51-3.18,15.99-7.81,30.37-5.09s25.51-18.5.75-24.15-51.19-8.94-60.74,10.18S7517.68,2875.87,7536.2,2872.69Zm-200.14,11.2c-5.98-25.72-17.2-35.29-.23-42.7s35.67,8.4,34.31,25.44" transform="translate(-6800 -2306)"/>
      </g>
    </g>
  </g>
</svg>
