<svg xmlns="http://www.w3.org/2000/svg" width="2000" height="2000" viewBox="0 0 2000 2000">
  <metadata><?xpacket begin="﻿" id="W5M0MpCehiHzreSzNTczkc9d"?>
<x:xmpmeta xmlns:x="adobe:ns:meta/" x:xmptk="Adobe XMP Core 5.6-c138 79.159824, 2016/09/14-01:09:01        ">
   <rdf:RDF xmlns:rdf="http://www.w3.org/1999/02/22-rdf-syntax-ns#">
      <rdf:Description rdf:about=""/>
   </rdf:RDF>
</x:xmpmeta>
                                                                                                    
                                                                                                    
                                                                                                    
                                                                                                    
                                                                                                    
                                                                                                    
                                                                                                    
                                                                                                    
                                                                                                    
                                                                                                    
                                                                                                    
                                                                                                    
                                                                                                    
                                                                                                    
                                                                                                    
                                                                                                    
                                                                                                    
                                                                                                    
                                                                                                    
                                                                                                    
                           
<?xpacket end="w"?></metadata>
<defs>
    <style>
      .cls-1 {
        fill: #666;
        fill-rule: evenodd;
      }
    </style>
  </defs>
  <g id="Artboard_1" data-name="Artboard 1">
    <path class="cls-1" d="M9607,3154h-27s-35.99,16.1,0,23,156.41,4.8,165,5,49.13-1.26,64-20,17.75-40.66,18-46,1.73-12.95,12-21,9.85-18.36,9-24-8.87-13.78-11-15-3.41-2.14-3-6,5.62-44.32,7-45,6.04-6.53.39-8.05-6.56,5.3-3.39,8.05c-0.96,6.06-8.76,38.87-10,43s-9.59,2.75-10,0-1-44-1-44a2.913,2.913,0,0,0,3-3c0-3.03-1.93-5-4-5s-4-.44-4,3,3,6,3,6l-4,45s-16.39,9.09-23,27-6.66,34-9,34-22-52-22-52-32.5-58.9-111-32S9607,3154,9607,3154Z" transform="translate(-8101 -2306)"/>
  </g>
</svg>
