<?xml version="1.0" encoding="UTF-8" standalone="no"?>
<svg
   xmlns:dc="http://purl.org/dc/elements/1.1/"
   xmlns:cc="http://creativecommons.org/ns#"
   xmlns:rdf="http://www.w3.org/1999/02/22-rdf-syntax-ns#"
   xmlns:svg="http://www.w3.org/2000/svg"
   xmlns="http://www.w3.org/2000/svg"
   xmlns:sodipodi="http://sodipodi.sourceforge.net/DTD/sodipodi-0.dtd"
   xmlns:inkscape="http://www.inkscape.org/namespaces/inkscape"
   width="210mm"
   height="297mm"
   viewBox="0 0 210 297"
   version="1.1"
   id="svg8"
   inkscape:version="1.0.1 (3bc2e813f5, 2020-09-07)"
   sodipodi:docname="card-example.svg">
  <defs
     id="defs2" />
  <sodipodi:namedview
     id="base"
     pagecolor="#ffffff"
     bordercolor="#666666"
     borderopacity="1.0"
     inkscape:pageopacity="0.0"
     inkscape:pageshadow="2"
     inkscape:zoom="1.979899"
     inkscape:cx="316.48411"
     inkscape:cy="347.04486"
     inkscape:document-units="mm"
     inkscape:current-layer="layer1"
     inkscape:document-rotation="0"
     showgrid="false"
     inkscape:window-width="1920"
     inkscape:window-height="1017"
     inkscape:window-x="-8"
     inkscape:window-y="-8"
     inkscape:window-maximized="1" />
  <metadata
     id="metadata5">
    <rdf:RDF>
      <cc:Work
         rdf:about="">
        <dc:format>image/svg+xml</dc:format>
        <dc:type
           rdf:resource="http://purl.org/dc/dcmitype/StillImage" />
        <dc:title></dc:title>
      </cc:Work>
    </rdf:RDF>
  </metadata>
  <g
     inkscape:label="Layer 1"
     inkscape:groupmode="layer"
     id="layer1">
    <rect
       id="rect10"
       width="125.07471"
       height="64.255951"
       x="28.726189"
       y="47.247025"
       style="fill:#cccccc;stroke-width:0.245292;stroke:#000000;stroke-opacity:1" />
    <rect
       style="fill:#5599ff;stroke-width:0.311474;stroke:#000000;stroke-opacity:1"
       id="rect12"
       width="37.041668"
       height="15.875"
       x="37.041664"
       y="53.672619" />
    <rect
       style="fill:#805f46;stroke-width:0.304593;stroke:#000000;stroke-opacity:1;fill-opacity:1"
       id="rect14"
       width="37.736702"
       height="15.523886"
       x="36.415413"
       y="87.335426" />
    <g
       id="g113"
       transform="matrix(0.0253955,0,0,0.0253955,47.927329,54.881535)">
      <path
         style="fill:#ef8c33"
         d="m 498.576,33.193 -174.531,182.735 11.614,11.614 c 0,0 -51.771,31.576 -69.259,50.386 l -78.298,84.201 -21.02,-21.01 -14.973,-14.973 18.679,-17.366 c 17.966,-17.966 31.708,-53.176 31.708,-53.176 L 214.772,267.88 481.058,15.604 c 2.402,-2.27 5.466,-3.41 8.54,-3.41 3.186,0 6.362,1.221 8.785,3.644 0.224,0.224 0.438,0.458 0.641,0.692 4.123,4.794 4,12.011 -0.448,16.663 z"
         id="path16" />
      <g
         id="g22">
	<path
   style="fill:#f9d366"
   d="m 307.401,94.864 18.904,-3.832 c 8.925,-1.81 8.925,-14.564 0,-16.373 L 307.401,70.827 C 288.772,67.051 274.213,52.49 270.436,33.862 l -3.832,-18.904 c -1.81,-8.925 -14.564,-8.925 -16.373,0 l -3.832,18.904 c -3.776,18.629 -18.337,33.188 -36.965,36.965 l -18.904,3.832 c -8.925,1.81 -8.925,14.564 0,16.373 l 18.904,3.832 c 18.629,3.776 33.188,18.337 36.965,36.965 l 3.832,18.904 c 1.81,8.925 14.564,8.925 16.373,0 l 3.832,-18.904 c 3.777,-18.628 18.336,-33.187 36.965,-36.965 z"
   id="path18" />

	<path
   style="fill:#f9d366"
   d="m 475.893,330.566 21.027,-4.263 c 9.927,-2.012 9.927,-16.2 0,-18.212 l -21.027,-4.263 c -20.721,-4.201 -36.915,-20.396 -41.116,-41.116 l -4.263,-21.027 c -2.012,-9.927 -16.2,-9.927 -18.212,0 l -4.263,21.027 c -4.201,20.721 -20.396,36.915 -41.116,41.116 l -21.027,4.263 c -9.927,2.012 -9.927,16.2 0,18.212 l 21.027,4.263 c 20.721,4.201 36.915,20.396 41.116,41.116 l 4.263,21.027 c 2.012,9.927 16.2,9.927 18.212,0 l 4.263,-21.027 c 4.201,-20.72 20.394,-36.915 41.116,-41.116 z"
   id="path20" />

</g>
      <path
         style="fill:#ef8c33"
         d="M 193.86,367.893 C 177.066,351.099 160.271,334.304 143.477,317.51 103.317,367.637 57.762,413.192 7.634,453.352 24.428,470.146 41.223,486.941 58.017,503.735 98.178,453.607 143.733,408.052 193.86,367.893 Z"
         id="path24" />
      <g
         id="g30">
	<path
   style="fill:#d87625"
   d="m 159.254,333.286 c -5.26,-5.26 -10.518,-10.518 -15.778,-15.778 -40.16,50.128 -85.715,95.683 -135.843,135.843 5.26,5.26 10.518,10.518 15.778,15.778 50.128,-40.16 95.684,-85.715 135.843,-135.843 z"
   id="path26" />

	<path
   style="fill:#d87625"
   d="m 499.024,16.53 -261.012,256.381 -70.928,68.21 -14.973,-14.973 18.679,-17.366 c 17.966,-17.966 31.708,-53.176 31.708,-53.176 l 12.276,12.276 266.284,-252.278 c 2.402,-2.27 5.466,-3.41 8.54,-3.41 3.186,0 6.362,1.221 8.785,3.644 0.224,0.224 0.437,0.458 0.641,0.692 z"
   id="path28" />

</g>
      <path
         d="m 181.691,172.337 c 4.216,0 7.634,-3.418 7.634,-7.634 v -20.231 c 0,-4.216 -3.418,-7.634 -7.634,-7.634 -4.216,0 -7.634,3.418 -7.634,7.634 v 20.231 c 0,4.216 3.418,7.634 7.634,7.634 z"
         id="path32" />
      <path
         d="m 181.691,226.805 c 4.216,0 7.634,-3.418 7.634,-7.634 V 198.94 c 0,-4.216 -3.418,-7.634 -7.634,-7.634 -4.216,0 -7.634,3.418 -7.634,7.634 v 20.231 c 0,4.215 3.418,7.634 7.634,7.634 z"
         id="path34" />
      <path
         d="m 198.809,174.187 c -4.216,0 -7.634,3.418 -7.634,7.634 0,4.216 3.418,7.634 7.634,7.634 h 20.231 c 4.216,0 7.634,-3.418 7.634,-7.634 0,-4.216 -3.418,-7.634 -7.634,-7.634 z"
         id="path36" />
      <path
         d="m 144.342,189.455 h 20.231 c 4.216,0 7.634,-3.418 7.634,-7.634 0,-4.216 -3.418,-7.634 -7.634,-7.634 h -20.231 c -4.216,0 -7.634,3.418 -7.634,7.634 0,4.216 3.418,7.634 7.634,7.634 z"
         id="path38" />
      <path
         d="m 189.011,98.514 18.904,3.832 c 15.657,3.175 27.825,15.343 30.999,31 l 3.833,18.904 c 1.529,7.543 7.972,12.81 15.669,12.81 7.697,0 14.141,-5.268 15.67,-12.81 l 3.832,-18.904 c 3.175,-15.657 15.343,-27.826 31,-31 l 18.904,-3.832 c 7.543,-1.53 12.811,-7.973 12.811,-15.67 0,-7.697 -5.269,-14.139 -12.811,-15.669 l -18.904,-3.832 c -15.657,-3.174 -27.826,-15.343 -31,-31 l -3.832,-18.904 c -1.529,-7.543 -7.972,-12.81 -15.67,-12.81 -7.696,0 -14.14,5.268 -15.669,12.81 l -3.833,18.904 c -3.175,15.657 -15.342,27.826 -30.999,31 l -18.904,3.832 c -7.543,1.53 -12.81,7.973 -12.81,15.669 -0.001,7.697 5.267,14.14 12.81,15.67 z m 3.034,-16.374 18.904,-3.832 c 21.682,-4.396 38.534,-21.248 42.93,-42.93 l 3.832,-18.904 c 0.07,-0.347 0.117,-0.576 0.704,-0.576 0.588,0 0.634,0.229 0.704,0.576 l 3.832,18.904 c 4.396,21.683 21.248,38.534 42.931,42.93 l 18.904,3.832 c 0.347,0.07 0.576,0.117 0.576,0.704 0,0.588 -0.23,0.635 -0.576,0.704 l -18.904,3.832 c -21.684,4.396 -38.534,21.248 -42.931,42.93 l -3.832,18.904 c -0.07,0.347 -0.116,0.576 -0.704,0.576 -0.587,0 -0.634,-0.229 -0.704,-0.576 l -3.832,-18.904 c -4.396,-21.683 -21.248,-38.534 -42.93,-42.93 l -18.904,-3.832 c -0.347,-0.07 -0.576,-0.117 -0.576,-0.704 0,-0.587 0.229,-0.633 0.576,-0.704 z"
         id="path40" />
      <path
         d="m 498.437,300.609 -21.027,-4.263 c -17.753,-3.599 -31.551,-17.397 -35.15,-35.151 l -4.263,-21.027 c -1.619,-7.986 -8.44,-13.563 -16.589,-13.563 -8.148,0 -14.969,5.577 -16.589,13.563 l -4.263,21.027 c -3.599,17.754 -17.397,31.552 -35.151,35.151 l -21.026,4.263 c -7.985,1.618 -13.563,8.44 -13.563,16.588 0,8.148 5.577,14.969 13.563,16.588 l 21.026,4.263 c 17.754,3.599 31.552,17.397 35.151,35.151 l 4.263,21.027 c 1.62,7.986 8.44,13.563 16.589,13.563 8.148,0 14.969,-5.577 16.589,-13.563 l 4.263,-21.027 c 3.599,-17.754 17.397,-31.552 35.15,-35.151 l 21.027,-4.263 c 7.986,-1.618 13.563,-8.44 13.563,-16.588 0,-8.148 -5.578,-14.97 -13.563,-16.588 z m -3.034,18.211 -21.027,4.263 c -23.779,4.821 -42.261,23.302 -47.081,47.081 l -4.263,21.027 c -0.08,0.397 -0.27,1.328 -1.625,1.328 -1.355,0 -1.544,-0.931 -1.625,-1.328 l -4.263,-21.027 c -4.821,-23.779 -23.302,-42.261 -47.082,-47.081 l -21.026,-4.263 c -0.398,-0.08 -1.328,-0.27 -1.328,-1.624 0,-1.354 0.93,-1.543 1.328,-1.624 l 21.026,-4.263 c 23.78,-4.821 42.262,-23.302 47.082,-47.081 l 4.263,-21.027 c 0.08,-0.397 0.27,-1.328 1.625,-1.328 1.355,0 1.544,0.931 1.625,1.328 l 4.263,21.027 c 4.821,23.78 23.302,42.261 47.081,47.081 l 21.027,4.263 c 0.398,0.08 1.328,0.269 1.328,1.624 0,1.355 -0.931,1.544 -1.328,1.624 z"
         id="path42" />
      <path
         d="m 343.235,228.442 c 0.277,-2.325 -0.527,-4.648 -2.182,-6.303 L 334.721,215.807 504.1,38.466 c 7.463,-7.814 7.319,-20.389 -0.322,-28.029 -7.739,-7.738 -20.025,-7.906 -27.971,-0.378 l -260.89,247.173 -7.021,-7.021 c -1.823,-1.823 -4.441,-2.603 -6.965,-2.073 -2.522,0.529 -4.608,2.294 -5.546,4.696 -0.131,0.337 -13.3,33.776 -29.896,50.451 l -13.184,12.259 -3.431,-3.431 c -1.535,-1.535 -3.654,-2.341 -5.817,-2.225 -2.167,0.119 -4.182,1.155 -5.538,2.849 -39.745,49.608 -85.05,94.914 -134.659,134.658 -1.694,1.357 -2.73,3.371 -2.849,5.538 -0.119,2.167 0.69,4.283 2.225,5.817 l 50.384,50.384 c 1.435,1.436 3.378,2.236 5.398,2.236 0.139,0 0.28,-0.004 0.42,-0.011 2.167,-0.119 4.182,-1.155 5.538,-2.849 39.744,-49.609 85.05,-94.915 134.658,-134.658 1.694,-1.357 2.73,-3.371 2.849,-5.538 0.119,-2.167 -0.69,-4.283 -2.225,-5.817 l -0.553,-0.553 73.285,-78.817 c 16.575,-17.826 67.131,-48.76 67.64,-49.07 1.999,-1.221 3.328,-3.29 3.605,-5.615 z M 76.55,469.74 56.931,450.12 c -2.981,-2.981 -7.816,-2.981 -10.796,0 -2.981,2.981 -2.981,7.816 0,10.796 l 20.434,20.434 c -3.076,3.642 -6.134,7.298 -9.149,10.989 L 19.032,453.951 C 58.126,422.003 94.505,386.636 127.588,348.472 l 21.975,21.975 c 1.49,1.49 3.445,2.236 5.398,2.236 1.953,0 3.908,-0.745 5.398,-2.236 2.981,-2.981 2.981,-7.816 0,-10.796 l -22.832,-22.832 c 2.198,-2.626 4.384,-5.263 6.551,-7.914 l 38.388,38.388 c -38.058,31.1 -73.541,65.442 -105.916,102.447 z m 184.26,-197.012 -72.908,78.41 -24.792,-24.792 12.881,-11.977 c 0.068,-0.063 0.134,-0.127 0.2,-0.192 12.712,-12.712 23.19,-32.916 28.859,-45.221 l 4.326,4.326 9.043,9.043 c 1.49,1.49 3.445,2.236 5.398,2.236 1.953,0 3.908,-0.745 5.398,-2.236 2.981,-2.981 2.981,-7.816 0,-10.796 l -3.498,-3.498 260.591,-246.888 c 1.895,-1.796 4.825,-1.756 6.673,0.091 1.823,1.823 1.857,4.822 0.076,6.687 l -169.136,177.086 -3.914,-3.914 c -2.98,-2.982 -7.814,-2.981 -10.796,0 -2.981,2.981 -2.981,7.815 10e-4,10.796 l 9.427,9.427 c 0.003,0.003 0.006,0.007 0.009,0.01 l 4.818,4.818 C 307.915,236 274.669,257.823 260.81,272.728 Z"
         id="path44" />
      <g
         id="g46">
</g>
      <g
         id="g48">
</g>
      <g
         id="g50">
</g>
      <g
         id="g52">
</g>
      <g
         id="g54">
</g>
      <g
         id="g56">
</g>
      <g
         id="g58">
</g>
      <g
         id="g60">
</g>
      <g
         id="g62">
</g>
      <g
         id="g64">
</g>
      <g
         id="g66">
</g>
      <g
         id="g68">
</g>
      <g
         id="g70">
</g>
      <g
         id="g72">
</g>
      <g
         id="g74">
</g>
    </g>
    <g
       id="024---Woodworking"
       fill="none"
       transform="matrix(0.21736384,0,0,0.21736384,48.711886,88.468136)">
      <g
         id="Icons"
         transform="translate(1)">
        <path
           id="Shape"
           d="M 57.5,17.06 44.21,30.35 c -1.75,-1.58 -1.57,-1.4 -1.69,-1.46 -0.408421,-0.243276 -0.930654,-0.172816 -1.26,0.17 L 29.25,42.37 c -0.181823,0.208785 -0.265545,0.485432 -0.23,0.76 0.1,0.92 0.17,1.63 0.23,2.18 L 16.06,58.5 c -0.663412,0.661121 -1.736588,0.661121 -2.4,0 L 0.5,45.34 c -0.66112072,-0.663412 -0.66112072,-1.736588 0,-2.4 L 41.94,1.5 C 42.591648,0.85014177 43.642111,0.83684477 44.31,1.47 L 57.5,14.66 c 0.661121,0.663412 0.661121,1.736588 0,2.4 z"
           fill="#783e22" />
        <path
           id="path116"
           d="M 55.49,15.06 41.78,28.77 c -0.202276,0.03184 -0.386613,0.134639 -0.52,0.29 -2.989,3.364 1.309,-1.079 -27.21,27.44 -0.65004,0.631389 -1.678849,0.6489 -2.35,0.04 -0.1,-0.05 -1.48,-1.48 -11.2,-11.2 -0.66112072,-0.663412 -0.66112072,-1.736588 0,-2.4 L 41.94,1.5 c 0.651648,-0.64985823 1.702111,-0.66315523 2.37,-0.03 l 11.07,11.07 c 0.364057,0.310363 0.582688,0.758115 0.603551,1.236055 0.02086,0.477941 -0.157923,0.94304 -0.493551,1.283945 z"
           fill="#a0522d" />
        <path
           id="path118"
           d="m 40.9,29.46 c -2.5,2.776 -0.474,0.474 -11.65,12.91 -0.341,0.379 -0.23,0.8 -0.14,1.62 -0.736,-0.245 0.677,0.253 -4.28,-1.33 -0.401562,-0.125833 -0.68138,-0.489596 -0.7,-0.91 -0.07,-1.61 -0.02,-0.46 -0.25,-5.55 -0.02006,-0.423087 -0.304496,-0.787642 -0.71,-0.91 -1.62,-0.5 -2.758,-0.867 -3.56,-1.11 -0.716169,-0.156856 -1.411077,-0.398562 -2.07,-0.72 -0.225192,-0.176665 -0.360656,-0.443932 -0.37,-0.73 -0.225,-5.706 -0.228,-5.129 -0.23,-5.17 -0.058,-1.02 -0.207,-1.116 -1,-1.38 0,0 -0.068,0 -5.02,-1.55 -0.405504,-0.122358 -0.689938,-0.486913 -0.71,-0.91 L 9.97,18.17 C 9.9499375,17.746913 9.6655042,17.382358 9.26,17.26 L 3.96,15.62 C 3.5600152,15.491915 3.2812009,15.129457 3.26,14.71 L 3,8.89 C 2.9905335,8.6158005 3.0913899,8.3492516 3.28,8.15 L 8.1,3.14 H 8.11 C 8.59,2.64 8.92,2.29 9.86,1.31 10.250441,0.90654008 10.893094,0.89315148 11.3,1.28 39.06,27.7 31.4,20.43 40.9,29.46 Z"
           fill="#707070" />
        <path
           id="path120"
           d="m 29.25,42.37 c -0.34,0.38 -0.23,0.8 -0.14,1.62 -0.1,-0.034 -2.11,-0.637 -4.28,-1.33 -0.401562,-0.125833 -0.68138,-0.489596 -0.7,-0.91 -0.07,-1.61 -0.02,-0.46 -0.25,-5.55 -0.02006,-0.423087 -0.304496,-0.787642 -0.71,-0.91 -5.753,-1.776 -5.431,-1.674 -5.63,-1.83 -0.225192,-0.176665 -0.360656,-0.443932 -0.37,-0.73 -0.233,-5.907 -0.233,-5.653 -0.32,-5.87 -0.111398,-0.280851 -0.342456,-0.497238 -0.63,-0.59 l -0.28,-0.09 c -0.1,0 0.64,0.217 -5.02,-1.55 -0.405504,-0.122358 -0.689937,-0.486913 -0.71,-0.91 L 9.97,18.17 C 9.9499375,17.746913 9.6655043,17.382358 9.26,17.26 L 3.96,15.62 C 3.5600152,15.491915 3.2812009,15.129457 3.26,14.71 L 3,8.89 C 2.9905335,8.6158005 3.0913899,8.3492516 3.28,8.15 L 8.1,3.14 H 8.11 C 8.4959592,2.9201674 8.9806669,2.9812651 9.3,3.29 36.08,28.78 30.86,23.88 38.98,31.59 Z"
           fill="#9e9e9e" />
        <path
           id="path122"
           d="M 56.3,41.26 C 41.848,28.209 42.754,29.007 42.52,28.89 42.111579,28.646724 41.589346,28.717184 41.26,29.06 L 29.25,42.37 c -0.181823,0.208785 -0.265545,0.485432 -0.23,0.76 0.421,4.011 0.321,4 0.78,4.43 10.991,10.2 9.286,8.377 11.48,10.35 1.869,1.681 5.28,0.94 6.79,-0.73 l 8.88,-9.84 c 1.493575,-1.860164 1.203058,-4.577617 -0.65,-6.08 z m -18.75,7.8 c 12.588,-13.961 8.808,-9.846 9.56,-10.6 l 6.06,5.46 -9.56,10.6 c -2.492,-2.24 -1.172,-1.051 -6.06,-5.46 z"
           fill="#ff9801" />
        <path
           id="path124"
           d="m 56.95,47.34 -8.88,9.84 c -1.51,1.67 -4.92,2.41 -6.79,0.73 -0.8,-0.72 -1.06,-0.95 -1.6,-1.44 1.92,1.26 4.97,0.52 6.38,-1.04 l 8.88,-9.84 c 0.732994,-0.87409 1.08729,-2.004326 0.984434,-3.140431 C 55.821578,41.313465 55.270058,40.265236 54.392,39.537 c 0,0 1.608,1.463 1.908,1.723 0.897947,0.716335 1.47196,1.762164 1.594066,2.904327 C 58.016172,45.30649 57.67622,46.450028 56.95,47.34 Z"
           fill="#f57c00" />
      </g>
      <g
         id="Outline"
         fill="#000000"
         transform="translate(0,-1)">
        <path
           id="path127"
           d="m 0.793,47.047 c 11.892,11.886 10.744,10.8 10.844,10.845 l 2.316,2.315 c 1.053913,1.051501 2.760087,1.051501 3.814,0 l 11.78,-11.78 c 0.279,0.74 -0.369,0.006 12.063,11.226 2.224,2.007 6.293,1.311 8.206,-0.808 l 8.876,-9.838 c 1.86645,-2.267144 1.544754,-5.61744 -0.719,-7.488 L 46.661,31.313 59.207,18.767 c 1.051501,-1.053913 1.051501,-2.760087 0,-3.814 -4.485,-4.483 -8.378,-8.378 -13.16,-13.16 -1.06789,-1.01714286 -2.746111,-1.01714286 -3.814,0 L 28.092,15.934 12.989,1.555 C 12.183739,0.78803742 10.910145,0.81574367 10.139,1.617 L 3.554,8.461 C 3.1796973,8.8585085 2.9801777,9.3893604 3,9.935 l 0.26,5.823 c 0.045179,0.837439 0.6018941,1.560373 1.4,1.818 l 5.306,1.637 0.24,5.555 c 0.03874,0.844086 0.605291,1.572108 1.414,1.817 l 4.434,1.381 -15.261,15.267 c -1.05150118,1.053913 -1.05150118,2.760087 0,3.814 z m 15.56,11.746 c -0.276912,0.260845 -0.709088,0.260845 -0.986,0 l -1.651,-1.652 7.013,-7.456 c 0.244727,-0.260447 0.331917,-0.63167 0.228727,-0.973833 -0.10319,-0.342163 -0.381083,-0.603283 -0.729,-0.685 -0.347916,-0.08172 -0.713,0.02839 -0.957727,0.288833 L 12.3,55.726 9.494,52.92 12.707,49.707 C 13.085972,49.314621 13.080552,48.690915 12.69482,48.305181 12.309085,47.919448 11.685379,47.914028 11.293,48.293 L 8.08,51.506 5.23,48.656 c 2.4621587,-2.331304 5.885439,-3.354243 9.223,-2.756 3.477608,0.62048 7.056323,-0.23976 9.872,-2.373 0.231796,0.517454 0.670013,0.913953 1.208,1.093 l 3.651,1.135 c 0.031,0.285 1.029,-0.822 -12.831,13.038 z m 40.854,-11.126 -8.876,9.838 c -1.21,1.342 -3.986,1.923 -5.381,0.663 L 31.475,47.813 c -0.107,-0.095 -0.043,0.162 -0.463,-3.792 l 11.963,-13.27 c 0.12,0 -0.777,-0.775 13.658,12.253 1.433885,1.136066 1.689562,3.213106 0.574,4.663 z M 58,16.86 c 0,0.416 0.969,-0.678 -12.821,13.112 -0.772,-0.7 -1.213,-1.218 -2.18,-1.222 -0.390344,9.19e-4 -0.772188,0.114084 -1.1,0.326 l -2.207,-2.1 1.628,-1.628 C 41.710741,24.955878 41.709622,24.321241 41.3175,23.9305 40.925378,23.539759 40.290742,23.540878 39.9,23.933 l -1.66,1.667 -3.6,-3.432 c 2.44393,-2.179486 5.753566,-3.115563 8.977,-2.539 4.112947,0.7396 8.325993,-0.597275 11.26,-3.573 l 1.292,-1.312 C 57.971,16.546 58,16.481 58,16.86 Z M 43.647,3.207 c 0.276912,-0.2608453 0.709088,-0.2608453 0.986,0 l 1.63,1.63 -2.828,2.829 c -0.259957,0.2510745 -0.364213,0.6228779 -0.272697,0.9725073 0.09152,0.3496295 0.36456,0.6226744 0.71419,0.7141899 C 44.226122,9.4442126 44.597925,9.3399566 44.849,9.08 l 2.828,-2.828 2.829,2.828 -2.828,2.828 c -0.378972,0.392379 -0.373552,1.016085 0.01218,1.401819 0.385734,0.385733 1.00944,0.391153 1.401819,0.01218 l 2.828,-2.828 2.831,2.831 -1.3,1.323 c -2.471396,2.506008 -6.020147,3.631176 -9.484,3.007 -3.884144,-0.694321 -7.869907,0.462323 -10.779,3.128 l -3.644,-3.47 z M 11.969,19.122 C 11.93056,18.276695 11.364309,17.547057 10.555,17.3 L 5.255,15.662 5,9.843 11.61,3 40.51,30.509 C 28.975,43.293 29.25,42.693 29.062,43.618 l -2.933,-0.909 c -0.048,-1.075 -0.2,-4.357 -0.25,-5.556 -0.03656,-0.844465 -0.602853,-1.573586 -1.412,-1.818 l -5.3,-1.65 C 18.911,28.012 19.02,27.705 18.505,27.034 18.249086,26.705668 17.905532,26.456409 17.514,26.315 L 12.207,24.677 Z M 2.207,44.647 16.994,29.86 c 0.2,4.4 0.155,4.061 0.284,4.448 l -5.985,5.985 c -0.259957,0.251074 -0.364213,0.622878 -0.272697,0.972507 0.09151,0.34963 0.36456,0.622675 0.71419,0.71419 0.349629,0.09152 0.721433,-0.01274 0.972507,-0.272697 l 6.054,-6.054 5.12,1.593 0.175,3.88 c -2.458517,2.359628 -5.897656,3.400439 -9.252,2.8 -3.982009,-0.712129 -8.0646992,0.51996 -10.988,3.316 l -1.609,-1.61 c -0.2700838,-0.272791 -0.2700838,-0.712209 0,-0.985 z" />
        <path
           id="path129"
           d="m 37.778,14.736 c 0.3905,0.390382 1.0235,0.390382 1.414,0 l 2.829,-2.828 c 0.252587,-0.252765 0.351138,-0.621084 0.25853,-0.966213 -0.09261,-0.345129 -0.362305,-0.614636 -0.7075,-0.707 -0.345195,-0.09236 -0.713443,0.0064 -0.96603,0.259213 l -2.828,2.828 c -0.390382,0.3905 -0.390382,1.0235 0,1.414 z" />
        <path
           id="path131"
           d="m 37.882,50.8 6.055,5.462 c 0.409849,0.36988 1.0419,0.337651 1.412,-0.072 l 9.56,-10.595 c 0.177814,-0.197 0.27003,-0.456602 0.256338,-0.721629 C 55.151646,44.608344 55.033169,44.359627 54.836,44.182 L 48.782,38.72 C 48.585,38.542186 48.325398,38.44997 48.060371,38.463662 47.795344,38.477354 47.546627,38.595831 47.369,38.793 L 37.81,49.385 c -0.178559,0.19697 -0.271334,0.456936 -0.257824,0.722451 0.01351,0.265515 0.132194,0.514721 0.329824,0.692549 z m 10.3,-9.925 4.571,4.125 -8.219,9.109 -4.569,-4.123 z" />
        <path
           id="path133"
           d="M 12.385,6.618 C 11.983249,6.250684 11.361492,6.272189 10.98608,6.6663852 10.610668,7.0605814 10.619522,7.6826474 11.006,8.066 c 1.567,1.492 1.652,1.682 2.166,1.682 0.409361,5.125e-4 0.777696,-0.2485262 0.929729,-0.6286085 C 14.253762,8.7393091 14.158787,8.3049467 13.862,8.023 Z" />
        <path
           id="path135"
           d="m 24.983,20.994 c 0.408905,8.2e-5 0.776663,-0.248796 0.928602,-0.628424 C 26.063542,19.985948 25.969047,19.552062 25.673,19.27 l -8.859,-8.435 c -0.402843,-0.358641 -1.017519,-0.333195 -1.389341,0.05751 -0.371822,0.39071 -0.366805,1.005892 0.01134,1.390485 l 8.858,8.435 c 0.185756,0.176981 0.432431,0.275795 0.689,0.276 z" />
      </g>
    </g>
    <g
       id="041---Forging"
       fill="none"
       transform="matrix(0.83902206,0,0,0.83902206,89.28752,52.671589)">
      <g
         id="Icons-6"
         transform="translate(1,1)">
        <path
           id="Shape-5"
           d="M 14,33 C 5,33 1,32 0.035,26.289 -0.04077087,25.986041 0.02388538,25.665068 0.21104237,25.415073 0.39819937,25.165078 0.68796507,25.012631 1,25 h 13 z"
           fill="#545c60" />
        <path
           id="path162"
           d="M 51,52 H 21 c 3.01,-6.64 3.62,-10.36 1.15,-17 h 27.7 C 47.38,41.64 47.99,45.36 51,52 Z"
           fill="#37474f" />
        <path
           id="path164"
           d="M 48,52 H 21 c 3.01,-6.64 3.62,-10.36 1.15,-17 h 24.7 C 44.38,41.64 44.99,45.36 48,52 Z"
           fill="#607d8b" />
        <path
           id="path166"
           d="m 58,10 v 3 c -0.0015,0.538695 -0.219565,1.054156 -0.605155,1.430341 C 57.009256,14.806526 56.488567,15.011818 55.95,15 54.356,14.962 24.55,14.224 19.95,14.1 18.865005,14.07287 17.999661,13.185334 18,12.1 v -1.2 c -3.39e-4,-1.0853343 0.865005,-1.9728667 1.95,-2 5.43,-0.147 31.333,-0.781 36,-0.9 0.539042,-0.01348 1.06069,0.1912672 1.446648,0.567811 C 57.782605,8.9443548 58.000168,9.4607892 58,10 Z"
           fill="#f57c00" />
        <path
           id="path168"
           d="m 55,10 v 3 c 3.41e-4,0.922793 -0.632539,1.725268 -1.53,1.94 C 50.029,14.856 24.946,14.24 19.95,14.1 18.865005,14.072867 17.999661,13.185334 18,12.1 V 10.9 C 17.999661,9.8146657 18.865005,8.9271333 19.95,8.9 25.492,8.75 44.516,8.283 53.48,8.06 54.371215,8.2821753 54.9975,9.0815122 55,10 Z"
           fill="#ff9801" />
        <rect
           id="Rectangle-path"
           fill="#545c60"
           height="6"
           rx="1"
           width="44"
           x="14"
           y="52" />
        <rect
           id="rect171"
           fill="#545c60"
           height="12"
           rx="1"
           width="44"
           x="14"
           y="23" />
        <rect
           id="rect173"
           fill="#7f8e94"
           height="6"
           rx="1"
           width="41"
           x="14"
           y="52" />
        <rect
           id="rect175"
           fill="#7f8e94"
           height="12"
           rx="1"
           width="41"
           x="14"
           y="23" />
        <rect
           id="rect177"
           fill="#624421"
           height="23"
           rx="3"
           width="14"
           x="23"
           y="0" />
        <rect
           id="rect179"
           fill="#825a2c"
           height="23"
           rx="3"
           width="11"
           x="23"
           y="0" />
      </g>
      <g
         id="Outline-5"
         fill="#000000">
        <path
           id="path182"
           d="M 56.925,8 39,8.444 V 4 C 39,1.790861 37.209139,0 35,0 H 27 C 24.790861,0 23,1.790861 23,4 V 8.846 L 20.923,8.9 c -1.629465,0.03544 -2.929931,1.370164 -2.923,3 v 1.2 c -0.0069,1.630216 1.294143,2.965097 2.924,3 L 23,16.154 c 0,5.1 -0.17,5.6 0.556,6.846 H 16 c -1.104569,0 -2,0.89543 -2,2 H 2 C 1.3933113,25.011534 0.82345445,25.293337 0.44602062,25.768467 0.06858678,26.243596 -0.07700389,26.862428 0.049,27.456 1.182,34.162 6.518,34.941 14,34.995 c 0.0044,1.103571 0.896444,1.997882 2,2.005 h 6.446 c 2.03,5.807 1.478,9.192 -1.1,15 H 19 v -4 c 0,-0.552285 -0.447715,-1 -1,-1 -0.552285,0 -1,0.447715 -1,1 v 4 h -1 c -1.10457,0 -2,0.895431 -2,2 v 4 c 0,1.104569 0.89543,2 2,2 h 42 c 1.104569,0 2,-0.895431 2,-2 v -4 c 0,-1.104569 -0.895431,-2 -2,-2 h -1 v -4 c 0,-0.552285 -0.447715,-1 -1,-1 -0.552285,0 -1,0.447715 -1,1 v 4 h -2.349 c -2.575,-5.808 -3.127,-9.193 -1.1,-15 H 58 c 1.104569,0 2,-0.895431 2,-2 V 25 c 0,-1.10457 -0.895431,-2 -2,-2 H 38.444 C 39.159,21.773 39,21.252 39,16.556 c 24.09,0.6 16.481,0.445 18.006,0.445 C 58.660901,16.99769 60.000555,15.654904 60,14 V 11 C 60.000253,10.191184 59.673908,9.4165322 59.094972,8.8517165 58.516036,8.2869009 57.733563,7.9797796 56.925,8 Z M 20.978,14.1 C 20.434325,14.088036 19.999868,13.643806 20,13.1 v -1.2 c -1.44e-4,-0.543426 0.433718,-0.987501 0.977,-1 L 23,10.847 v 3.306 z M 2.021,27.122 C 2.01,27.056 2.021,27.01 2.013,27 H 14 v 5.991 C 5.305,32.9 2.781,31.621 2.021,27.122 Z M 58,58 H 16 V 54 H 58 Z M 50.466,52 H 23.533 c 2.272,-5.331 2.919,-9.175 1.028,-15 h 24.878 c -1.891,5.825 -1.239,9.669 1.028,15 z M 58,35 H 16 V 25 H 58 Z M 27,23 c -1.10457,0 -2,-0.895431 -2,-2 V 4 c 0,-1.1045695 0.89543,-2 2,-2 h 8 c 1.104569,0 2,0.8954305 2,2 v 17 c 0,1.104569 -0.895431,2 -2,2 z m 31,-9 c 8.4e-5,0.269605 -0.108697,0.527823 -0.301676,0.716095 C 57.505345,14.904366 57.244521,15.00674 56.975,15 L 56,14.976 V 13 c 0,-0.552285 -0.447715,-1 -1,-1 -0.552285,0 -1,0.447715 -1,1 v 1.926 L 52,14.877 V 13 c 0,-0.552285 -0.447715,-1 -1,-1 -0.552285,0 -1,0.447715 -1,1 v 1.827 L 39,14.554 V 10.446 L 56.977,10 c 0.269179,-0.00619 0.529482,0.09642 0.722022,0.284636 C 57.891563,10.472847 58.000071,10.73075 58,11 Z" />
        <path
           id="path184"
           d="m 15,0 c -0.552285,0 -1,0.44771525 -1,1 v 11 c 0,0.552285 0.447715,1 1,1 0.552285,0 1,-0.447715 1,-1 V 1 C 16,0.44771525 15.552285,0 15,0 Z" />
        <path
           id="path186"
           d="m 7,16 h 5 c 0.552285,0 1,-0.447715 1,-1 0,-0.552285 -0.447715,-1 -1,-1 H 7 c -0.5522848,0 -1,0.447715 -1,1 0,0.552285 0.4477152,1 1,1 z" />
        <path
           id="path188"
           d="m 6.293,6.293 c -0.3903819,0.3904999 -0.3903819,1.0235002 0,1.414 l 4,4 c 0.392379,0.378972 1.016085,0.373552 1.401819,-0.01218 0.385733,-0.385734 0.391153,-1.00944 0.01218,-1.401819 l -4,-4 C 7.3165001,5.9026181 6.6834998,5.9026181 6.293,6.293 Z" />
        <path
           id="path190"
           d="m 1.293,1.293 c -0.39038194,0.3904998 -0.39038194,1.0235002 0,1.414 l 2,2 C 3.6853789,5.0859722 4.3090848,5.0805524 4.6948186,4.6948186 5.0805524,4.3090848 5.0859722,3.6853789 4.707,3.293 l -2,-2 C 2.3165002,0.90261806 1.6834998,0.90261806 1.293,1.293 Z" />
        <path
           id="path192"
           d="M 1,16 H 3 C 3.5522848,16 4,15.552285 4,15 4,14.447715 3.5522848,14 3,14 H 1 c -0.55228475,0 -1,0.447715 -1,1 0,0.552285 0.44771525,1 1,1 z" />
        <path
           id="path194"
           d="m 21,27 h -2 c -0.552285,0 -1,0.447715 -1,1 0,0.552285 0.447715,1 1,1 h 2 c 0.552285,0 1,-0.447715 1,-1 0,-0.552285 -0.447715,-1 -1,-1 z" />
        <path
           id="path196"
           d="m 24,28 c 0,0.552285 0.447715,1 1,1 h 25 c 0.552285,0 1,-0.447715 1,-1 0,-0.552285 -0.447715,-1 -1,-1 H 25 c -0.552285,0 -1,0.447715 -1,1 z" />
      </g>
    </g>
  </g>
</svg>
