<?xml version="1.0" encoding="UTF-8" standalone="no"?>
<!-- Created with Inkscape (http://www.inkscape.org/) -->

<svg
   xmlns:dc="http://purl.org/dc/elements/1.1/"
   xmlns:cc="http://creativecommons.org/ns#"
   xmlns:rdf="http://www.w3.org/1999/02/22-rdf-syntax-ns#"
   xmlns:svg="http://www.w3.org/2000/svg"
   xmlns="http://www.w3.org/2000/svg"
   xmlns:sodipodi="http://sodipodi.sourceforge.net/DTD/sodipodi-0.dtd"
   xmlns:inkscape="http://www.inkscape.org/namespaces/inkscape"
   width="400"
   height="400"
   viewBox="0 0 105.83334 105.83333"
   version="1.1"
   id="svg8"
   inkscape:version="0.92.4 5da689c313, 2019-01-14"
   sodipodi:docname="montagne.svg">
  <defs
     id="defs2" />
  <sodipodi:namedview
     id="base"
     pagecolor="#ffffff"
     bordercolor="#666666"
     borderopacity="1.0"
     inkscape:pageopacity="0.0"
     inkscape:pageshadow="2"
     inkscape:zoom="0.98994949"
     inkscape:cx="-138.75244"
     inkscape:cy="107.57939"
     inkscape:document-units="mm"
     inkscape:current-layer="layer3"
     showgrid="false"
     units="px"
     inkscape:window-width="956"
     inkscape:window-height="1057"
     inkscape:window-x="960"
     inkscape:window-y="0"
     inkscape:window-maximized="0" />
  <metadata
     id="metadata5">
    <rdf:RDF>
      <cc:Work
         rdf:about="">
        <dc:format>image/svg+xml</dc:format>
        <dc:type
           rdf:resource="http://purl.org/dc/dcmitype/StillImage" />
        <dc:title />
      </cc:Work>
    </rdf:RDF>
  </metadata>
  <g
     inkscape:groupmode="layer"
     id="layer3"
     inkscape:label="Layer 3"
     style="display:inline;opacity:1">
    <path
       style="fill:#8e867a;fill-opacity:1;stroke:none;stroke-width:0.26458332px;stroke-linecap:butt;stroke-linejoin:miter;stroke-opacity:1"
       d="m 50.932667,22.206421 c 7.097024,5.832788 14.267485,10.861756 21.68326,13.205622 l 2.55601,-1.003969 2.885575,0.698762 c 2.827863,5.696666 6.519819,9.978356 11.258152,14.084413 l 2.805379,-2.221469 c 0.618371,0.887944 1.545291,2.869823 2.872252,3.591375 l 2.307614,-2.322529 c 1.532069,5.163732 2.902321,6.706311 5.955661,7.7621 0,0 -0.46298,11.375594 -12.396257,18.952647 C 36.515454,67.920371 50.932667,22.206421 50.932667,22.206421 Z"
       id="path5917"
       inkscape:connector-curvature="0"
       sodipodi:nodetypes="ccccccccccc" />
    <path
       style="fill:#62605d;fill-opacity:1;stroke:none;stroke-width:0.26458332px;stroke-linecap:butt;stroke-linejoin:miter;stroke-opacity:1"
       d="m 50.932668,22.206421 c 0.346605,3.34415 3.52352,11.089775 3.52352,11.089775 l 1.579192,-1.647654 c 0.509208,6.250739 10.328116,21.110189 10.328116,21.110189 0,0 1.134384,-0.765224 2.512416,-1.476347 0.120389,2.11097 1.264441,4.47546 1.264441,4.47546 0,0 0.969896,-0.341016 1.521934,-1.005651 3.111785,6.966977 1.659054,11.054607 19.198026,20.20118 C 73.869622,88.248852 10.36092,83.957762 1.1746425,65.866346 15.623954,49.616927 17.588974,47.874995 27.56871,40.426258 c 1.47627,1.789008 3.146128,2.428929 3.146128,2.428929 0,0 7.602582,-1.738555 20.21783,-20.648766 z"
       id="path5915"
       inkscape:connector-curvature="0"
       sodipodi:nodetypes="cccccccccccc" />
  </g>
</svg>
