<?xml version="1.0" encoding="UTF-8" standalone="no"?>
<!-- Created with Inkscape (http://www.inkscape.org/) -->

<svg
   xmlns:dc="http://purl.org/dc/elements/1.1/"
   xmlns:cc="http://creativecommons.org/ns#"
   xmlns:rdf="http://www.w3.org/1999/02/22-rdf-syntax-ns#"
   xmlns:svg="http://www.w3.org/2000/svg"
   xmlns="http://www.w3.org/2000/svg"
   xmlns:sodipodi="http://sodipodi.sourceforge.net/DTD/sodipodi-0.dtd"
   xmlns:inkscape="http://www.inkscape.org/namespaces/inkscape"
   width="400"
   height="400"
   viewBox="0 0 105.83334 105.83333"
   version="1.1"
   id="svg8"
   inkscape:version="0.92.4 5da689c313, 2019-01-14"
   sodipodi:docname="sapin.svg">
  <defs
     id="defs2" />
  <sodipodi:namedview
     id="base"
     pagecolor="#ffffff"
     bordercolor="#666666"
     borderopacity="1.0"
     inkscape:pageopacity="0.0"
     inkscape:pageshadow="2"
     inkscape:zoom="1.5524753"
     inkscape:cx="259.81559"
     inkscape:cy="168.88913"
     inkscape:document-units="mm"
     inkscape:current-layer="layer3"
     showgrid="false"
     units="px"
     inkscape:window-width="956"
     inkscape:window-height="1057"
     inkscape:window-x="960"
     inkscape:window-y="0"
     inkscape:window-maximized="0" />
  <metadata
     id="metadata5">
    <rdf:RDF>
      <cc:Work
         rdf:about="">
        <dc:format>image/svg+xml</dc:format>
        <dc:type
           rdf:resource="http://purl.org/dc/dcmitype/StillImage" />
        <dc:title />
      </cc:Work>
    </rdf:RDF>
  </metadata>
  <g
     inkscape:groupmode="layer"
     id="layer3"
     inkscape:label="Layer 3"
     style="display:inline;opacity:1">
    <g
       id="g990"
       transform="matrix(0.96895179,0.04845637,-0.04994665,0.99875189,4.7466309,-0.12375064)">
      <path
         sodipodi:nodetypes="ccccccccccc"
         inkscape:connector-curvature="0"
         id="path827"
         d="m 88.442279,48.40488 c 1.699973,0.595569 4.570794,2.969104 6.085467,3.767314 0.793272,0.247232 1.469974,1.19322 2.394632,1.701346 1.262876,0.585779 2.945549,1.046078 4.237102,1.422053 1.80818,-0.08659 2.25127,1.776462 2.13732,3.33549 -0.0764,1.220023 0.27389,3.330029 -1.46019,3.31616 -1.4801,0.813433 -2.223978,-1.005576 -3.1888,0.504861 -1.62042,-2.307566 -2.244829,1.832321 -2.693919,-0.06804 -0.09035,-2.007038 -2.731151,-0.206146 -4.153958,-0.571547 L 79.835615,51.855442 Z"
         style="opacity:1;fill:#005219;fill-opacity:1;stroke:none;stroke-width:0.23470335px;stroke-linecap:butt;stroke-linejoin:miter;stroke-opacity:1" />
      <path
         sodipodi:nodetypes="cccccccccccc"
         inkscape:connector-curvature="0"
         id="path835"
         d="m 80.595783,66.375888 c 1.951541,3.200712 2.878417,0.381485 3.987417,-0.355469 1.52662,-0.155667 1.952127,0.310214 1.590764,1.075852 0.954703,1.691529 1.367002,-2.19791 3.093002,-1.002429 1.368905,-0.475853 5.691024,-1.593249 5.425483,-2.71179 -0.529431,-1.070263 1.065019,-1.801363 0.06744,-2.727656 -0.832716,-0.65993 -2.110509,-2.698693 -2.469727,-3.173346 -0.57717,-0.34525 -0.834244,-1.530187 -2.127198,-1.555412 -1.076577,-0.764675 -3.138349,-1.072151 -3.84116,-2.085234 l -5.964782,-5.468675 -7.119551,-0.235568 z"
         style="opacity:1;fill:#0a6025;fill-opacity:1;stroke:none;stroke-width:0.23470335px;stroke-linecap:butt;stroke-linejoin:miter;stroke-opacity:1" />
      <path
         sodipodi:nodetypes="ccccccccccccccc"
         inkscape:connector-curvature="0"
         id="path831"
         d="m 61.002266,58.505033 c -1.646989,0.838303 -7.725788,2.872327 -9.065614,2.625067 -1.135736,1.27113 -0.685661,-1.046764 -1.515151,0.578469 0.398701,3.641423 -1.683548,0.501355 -2.579684,0.386672 -0.305959,0.564718 -1.828222,1.696164 -1.811908,0.157854 -0.712441,1.489045 -0.671683,1.840064 -1.919666,1.529551 -0.492584,1.290841 -1.641282,-0.485636 -2.085627,0.885877 -0.220821,0.688837 -1.775466,0.651792 -1.511518,-1.002264 0.222838,-2.154064 0.654141,-4.239127 1.96616,-5.846694 0.85122,-0.707083 1.539304,-2.398157 1.666629,-4.03508 0.275069,-2.359176 3.67424,-0.604589 5.219175,-1.53472 1.392131,-0.534982 2.453129,-0.784502 4.017595,-1.510499 1.004007,-0.851642 2.657561,-1.352481 3.308532,-2.028968 0.30708,0.127819 8.121668,-5.601701 8.108606,-5.253836 z"
         style="opacity:1;fill:#005219;fill-opacity:1;stroke:none;stroke-width:0.23470335px;stroke-linecap:butt;stroke-linejoin:miter;stroke-opacity:1" />
      <path
         sodipodi:nodetypes="csccccccccc"
         inkscape:connector-curvature="0"
         id="path833"
         d="m 59.042375,48.952323 c -2.046648,9.227707 -4.170345,7.555242 -6.366797,9.740797 -1.495962,1.48854 -1.738198,5.434945 -1.595844,6.062852 0.792359,1.228184 3.240218,0.745264 3.240218,0.745264 0.58898,0.768659 1.504054,-0.06999 2.260103,1.381417 2.509158,-0.221774 2.478349,-1.677856 2.96752,-0.918647 0.468587,2.368041 1.314557,0.721747 2.619368,0.717607 1.241882,-0.500822 2.392519,1.980076 2.354456,-0.219259 0,0 2.16629,2.154829 2.65993,0.704208 1.12944,0.561737 1.388082,0.651278 1.630535,-0.624705 0.45261,-2.886177 -0.467721,-10.313311 0.09939,-18.002041"
         style="opacity:1;fill:#0a6025;fill-opacity:1;stroke:none;stroke-width:0.23943324px;stroke-linecap:butt;stroke-linejoin:miter;stroke-opacity:1" />
      <path
         sodipodi:nodetypes="cccccccccccc"
         inkscape:connector-curvature="0"
         id="path829"
         d="m 73.980507,48.783452 c 0.648519,3.845822 10.166431,13.793015 5.870691,12.151764 1.404413,2.184328 5.708855,8.242532 1.645766,6.093851 0.651528,0.918774 0.01299,1.754794 -2.266444,1.095876 0,0 1.094103,1.376052 -2.235573,-0.313494 -0.26813,1.833207 -1.626736,-0.892205 -2.392018,0.107308 -1.484733,-0.20603 -1.410417,-1.519234 -3.56086,0.282865 -1.313143,-0.84833 -2.562773,0.272601 -3.271788,-0.986133 -1.052504,0.93841 -2.584213,0.643334 -3.248882,-0.753135 -1.444127,1.700092 0.981199,-3.986379 0.420557,-5.410588 -3.044261,1.89635 2.878885,-11.424382 3.069433,-12.586634 z"
         style="fill:#11692d;fill-opacity:1;stroke:none;stroke-width:0.2408596px;stroke-linecap:butt;stroke-linejoin:miter;stroke-opacity:1" />
      <path
         sodipodi:nodetypes="cccccccccccccc"
         inkscape:connector-curvature="0"
         id="path837"
         d="m 84.5921,41.981444 c 1.442455,0.291814 2.678968,1.067311 4.356241,1.498606 1.428294,0.497674 0.610948,0.928699 2.225685,1.484247 0.919627,0.08826 0.98608,1.725224 1.115532,1.794474 1.296871,0.768269 0.104974,2.578936 -1.045907,2.956532 -0.38978,1.221449 -1.041616,2.005605 -2.807449,1.466544 -1.413714,-1.529964 -1.71009,0.335942 -3.268159,0.32951 -0.03621,0.367928 0.01094,2.316691 -1.366249,1.590475 -1.652983,-0.05503 -2.856914,-0.503963 -3.966179,-1.24639 -0.811342,-1.383061 -3.119988,-0.77364 -3.271282,-2.263034 -0.513721,-0.190179 -1.051143,-1.519422 -1.711708,-1.96499 0.0744,-0.143253 -2.49441,-6.972013 -2.370205,-7.438802 l 9.745239,-1.582686 c 0.698959,1.173903 0.486622,3.096895 2.364441,3.375514 z"
         style="opacity:1;fill:#03621f;fill-opacity:1;stroke:none;stroke-width:0.23470335px;stroke-linecap:butt;stroke-linejoin:miter;stroke-opacity:1" />
      <path
         sodipodi:nodetypes="cccccccccccc"
         inkscape:connector-curvature="0"
         id="path839"
         d="m 60.050283,37.42061 c -1.119363,2.51369 -5.010223,6.012614 -5.447045,7.298712 -0.973108,1.795289 -1.693292,4.198049 -3.9444,4.261879 -0.314713,1.123587 -2.533383,0.738608 -1.466147,1.626264 0.893495,0.206329 2.916852,0.879663 4.189966,0.131801 1.067121,-0.157995 2.157502,-0.234837 3.078385,-1.035285 1.923527,0.906401 2.683965,-0.787949 4.833758,-0.446344 0.115607,-0.776955 3.14071,0.457685 4.291645,-1.181182 0.892771,-0.828512 0.442113,-2.834756 1.652273,-3.852457 0.682623,-1.435555 0.656952,-3.7769 1.563143,-4.626762 -0.05271,-0.177377 1.569408,-6.048978 1.740401,-5.953406 z"
         style="opacity:1;fill:#0d6b29;fill-opacity:1;stroke:none;stroke-width:0.23470335px;stroke-linecap:butt;stroke-linejoin:miter;stroke-opacity:1" />
      <path
         sodipodi:nodetypes="cccccccc"
         inkscape:connector-curvature="0"
         id="path841"
         d="m 64.364295,48.921672 c 0.443015,1.984775 2.017532,-1.511551 2.143631,2.368497 1.355579,2.886177 2.182139,-3.015203 3.478349,-0.180959 1.960304,-0.852891 4.716455,3.953314 5.102465,-0.217675 0.03281,-2.351133 2.3307,1.178055 2.566606,-1.437745 0.189551,-2.323273 -4.594002,-10.376029 -4.232587,-12.377197 l -3.384854,-2.008185 z"
         style="opacity:1;fill:#0f7e30;fill-opacity:1;stroke:none;stroke-width:0.30324778px;stroke-linecap:butt;stroke-linejoin:miter;stroke-opacity:1" />
      <path
         sodipodi:nodetypes="ccccccccc"
         inkscape:connector-curvature="0"
         id="path843"
         d="m 65.315076,22.897344 c -1.349462,1.862923 -2.320076,7.38675 -4.496523,7.606938 -0.219451,1.246098 -1.595247,1.607651 -2.003479,2.596429 -1.266884,0.451366 -1.184014,2.517402 -1.878429,2.913497 2.256686,0.693809 2.783575,3.227584 5.566102,1.68469 1.735549,-0.824612 3.750841,-0.744896 3.230042,0.879088 1.713589,-1.579131 2.564322,-4.420915 4.809473,-4.934156 1.16694,-0.718479 2.006624,-2.288463 2.601805,-3.506959 0.453511,-0.1396 -1.277507,-6.364634 -1.017032,-6.142706"
         style="opacity:1;fill:#008d2a;fill-opacity:1;stroke:none;stroke-width:0.23470335px;stroke-linecap:butt;stroke-linejoin:miter;stroke-opacity:1" />
      <path
         sodipodi:nodetypes="cccccccccccc"
         inkscape:connector-curvature="0"
         id="path845"
         d="m 80.397029,31.34664 c 1.909907,0.367474 2.131643,2.460826 3.819377,2.921667 0.822838,0.411958 1.907589,1.909193 2.297905,2.352867 0.322162,0.703873 1.372827,3.133178 -0.03501,3.20197 l -5.214897,-0.42866 c -0.733226,0.211652 -0.173371,2.99825 -1.561807,0.791992 -0.669446,1.423679 -2.177541,0.828065 -2.981467,-0.01277 -0.317392,1.712644 -2.642799,-0.356202 -3.372192,0.717668 -1.056632,1.793298 -2.429742,-1.112918 -3.575934,-0.293938 -1.787751,-0.101247 -1.237138,-2.618222 -1.846495,-3.219683 -0.637932,-1.171413 -0.555211,-2.497805 -0.582682,-4.03617 0.415287,-0.883979 4.213467,-9.481502 4.783208,-9.347421"
         style="opacity:1;fill:#008227;fill-opacity:1;stroke:none;stroke-width:0.23470335px;stroke-linecap:butt;stroke-linejoin:miter;stroke-opacity:1" />
      <path
         sodipodi:nodetypes="czcccccccccccc"
         inkscape:connector-curvature="0"
         id="path847"
         d="m 66.998073,17.505573 c -0.138538,3.286553 -1.932673,6.120222 -3.743485,7.02094 -1.810813,0.900717 -2.989643,1.79949 -3.876052,2.228444 -1.609638,1.087778 -7.61e-4,1.730611 0.95273,1.069651 0.983684,1.05079 1.684355,1.396853 2.414034,-0.162008 1.528221,-1.911284 2.436699,-0.09441 3.07837,0.367956 0.954936,-0.490214 1.769426,-1.668019 1.76339,-0.154755 1.517094,-2.368811 1.800728,1.158509 3.063693,1.90817 0.04562,1.350909 2.750607,-0.202445 3.144148,0.412853 1.213184,0.530843 1.838757,2.318189 3.079299,3.176711 0.951047,-1.529307 0.490027,-1.553087 3.494327,-0.782569 0.100198,-0.76087 3.116964,-0.224755 2.72778,-1.141459 -1.510846,-3.354275 -1.637647,-1.79414 -4.10061,-3.564431 l -3.50694,-10.112049"
         style="opacity:1;fill:#099231;fill-opacity:1;stroke:none;stroke-width:0.19993192px;stroke-linecap:butt;stroke-linejoin:miter;stroke-opacity:1" />
      <path
         sodipodi:nodetypes="sccccscs"
         inkscape:connector-curvature="0"
         id="path849"
         d="m 67.462193,16.556064 c -1.478394,1.098238 -3.642418,4.006295 -3.051018,5.365287 0.321247,-0.475819 2.348829,-0.791374 3.727411,-0.534345 3.691712,-3.449231 5.097733,-1.36911 4.690927,1.549231 2.750029,1.224146 3.189489,-3.257592 5.905628,0.314043 0.854508,-2.258996 -1.864326,-6.685677 -3.378545,-7.308377 -2.95151,-1.213766 -1.919383,-9.779214 -3.462829,-11.2289808 -1.31447,0.3620236 -1.707343,9.8194248 -4.431574,11.8431418 z"
         style="opacity:1;fill:#009f30;fill-opacity:1;stroke:none;stroke-width:0.24400266px;stroke-linecap:butt;stroke-linejoin:miter;stroke-opacity:1" />
    </g>
  </g>
  <g
     inkscape:groupmode="layer"
     id="layer2"
     inkscape:label="Layer 4"
     style="display:inline">
    <g
       id="g976"
       transform="matrix(0.99488376,-0.1010263,0.09564035,0.94184422,-7.770371,5.808984)">
      <path
         sodipodi:nodetypes="ccccccccccccccc"
         inkscape:connector-curvature="0"
         id="path831-7"
         d="m 46.127477,64.869465 c 1.508545,1.005881 7.076357,3.446519 8.303561,3.149829 1.040265,1.525239 0.628027,-1.25601 1.387785,0.694109 -0.365185,4.369368 1.54203,0.601583 2.362835,0.463971 0.28024,0.677607 1.674541,2.03524 1.659599,0.189414 0.652552,1.786716 0.615221,2.207905 1.758299,1.835309 0.451168,1.54889 1.503314,-0.58271 1.910308,1.06297 0.202259,0.826543 1.626219,0.782093 1.384459,-1.202616 -0.204107,-2.584676 -0.599154,-5.086558 -1.800884,-7.015481 -0.779666,-0.848429 -1.40991,-2.877567 -1.526524,-4.841715 -0.251955,-2.830791 -3.36539,-0.725446 -4.780457,-1.841521 -1.275108,-0.641929 -2.246919,-0.941332 -3.679877,-1.812454 -0.919611,-1.02189 -2.434164,-1.622848 -3.03041,-2.434567 -0.281269,0.153373 -7.438957,-6.721515 -7.426994,-6.304105 z"
         style="display:inline;opacity:1;fill:#005219;fill-opacity:1;stroke:none;stroke-width:0.24605159px;stroke-linecap:butt;stroke-linejoin:miter;stroke-opacity:1" />
      <path
         sodipodi:nodetypes="ccccccccccc"
         inkscape:connector-curvature="0"
         id="path827-3"
         d="m 20.14387,52.750244 c -1.557073,0.714617 -4.186572,3.562643 -5.57392,4.520414 -0.72659,0.296658 -1.346409,1.431754 -2.193339,2.041453 -1.156718,0.702884 -2.697946,1.255194 -3.8809301,1.706332 -1.6561846,-0.103889 -2.0620245,2.131578 -1.9576542,4.002273 0.069932,1.463909 -0.2508707,3.995717 1.3374413,3.979075 1.3556837,0.976041 2.0370323,-1.206599 2.920751,0.605782 1.484207,-2.768859 2.056128,2.198613 2.467467,-0.0816 0.08276,-2.408256 2.501569,-0.247352 3.804776,-0.685798 L 28.027054,56.89063 Z"
         style="display:inline;opacity:1;fill:#005219;fill-opacity:1;stroke:none;stroke-width:0.24605159px;stroke-linecap:butt;stroke-linejoin:miter;stroke-opacity:1" />
      <path
         sodipodi:nodetypes="cccccccccccc"
         inkscape:connector-curvature="0"
         id="path835-6"
         d="m 27.330787,74.313744 c -1.787494,3.840558 -2.636456,0.457747 -3.652233,-0.42653 -1.398292,-0.186787 -1.788031,0.372229 -1.457044,1.290923 -0.874451,2.029676 -1.252092,-2.637286 -2.833004,-1.202821 -1.253834,-0.570976 -5.212634,-1.911742 -4.969415,-3.253886 0.484927,-1.284215 -0.975493,-2.161474 -0.06177,-3.27293 0.762718,-0.791856 1.933099,-3.238179 2.262122,-3.807713 0.528653,-0.414268 0.764117,-1.836085 1.948384,-1.866346 0.986079,-0.917541 2.874538,-1.286487 3.51827,-2.502085 l 5.463382,-6.5619 6.521077,-0.282652 z"
         style="display:inline;opacity:1;fill:#0a6025;fill-opacity:1;stroke:none;stroke-width:0.24605159px;stroke-linecap:butt;stroke-linejoin:miter;stroke-opacity:1" />
      <path
         sodipodi:nodetypes="csccccccccc"
         inkscape:connector-curvature="0"
         id="path833-5"
         d="m 47.497517,52.837453 c 1.874606,11.072378 3.81978,9.065579 5.831599,11.68803 1.370209,1.786113 1.592085,6.521423 1.461694,7.27486 -0.725753,1.473694 -2.967845,0.894246 -2.967845,0.894246 -0.539465,0.922311 -1.377623,-0.08397 -2.070118,1.657564 -2.298229,-0.266106 -2.270015,-2.013269 -2.718068,-1.102294 -0.429197,2.841427 -1.204051,0.86603 -2.399178,0.861067 -1.137494,-0.600947 -2.191408,2.375896 -2.156542,-0.263092 0,0 -1.984192,2.585593 -2.436333,0.844984 -1.034505,0.674033 -1.271404,0.78147 -1.493474,-0.749592 -0.414561,-3.463131 0.428402,-12.374992 -0.09104,-21.600738"
         style="display:inline;opacity:1;fill:#0a6025;fill-opacity:1;stroke:none;stroke-width:0.25101021px;stroke-linecap:butt;stroke-linejoin:miter;stroke-opacity:1" />
      <path
         sodipodi:nodetypes="cccccccccccc"
         inkscape:connector-curvature="0"
         id="path829-3"
         d="m 33.38998,53.204494 c -0.594004,4.61462 -9.311836,16.550305 -5.377199,14.580959 -1.286357,2.620987 -5.228967,9.890259 -1.507422,7.312042 -0.59676,1.102444 -0.0119,2.105592 2.075927,1.31495 0,0 -1.002134,1.651127 2.047648,-0.376158 0.245592,2.199669 1.489993,-1.070571 2.190945,0.128752 1.359924,-0.247213 1.291857,-1.82293 3.261533,0.339417 1.202758,-1.017917 2.347346,0.32709 2.996757,-1.183271 0.964035,1.126011 2.366988,0.771942 2.975782,-0.903686 1.32273,2.039944 -0.898715,-4.783281 -0.385207,-6.492195 2.788362,2.275435 -2.63688,-13.70818 -2.811416,-15.102772 z"
         style="display:inline;opacity:1;fill:#11692d;fill-opacity:1;stroke:none;stroke-width:0.25250551px;stroke-linecap:butt;stroke-linejoin:miter;stroke-opacity:1" />
      <path
         sodipodi:nodetypes="cccccccccccccc"
         inkscape:connector-curvature="0"
         id="path837-5"
         d="m 23.670402,45.042719 c -1.321202,0.350151 -2.453774,1.280674 -3.990054,1.798191 -1.308231,0.597158 -0.559592,1.114351 -2.038594,1.780956 -0.842322,0.105933 -0.903189,2.070099 -1.021759,2.153196 -1.187856,0.921848 -0.09615,3.094474 0.957987,3.547562 0.357016,1.46562 0.954057,2.406533 2.571454,1.759715 1.294877,-1.835815 1.566339,0.403093 2.993437,0.395375 0.03316,0.441482 -0.01002,2.779807 1.251401,1.908416 1.514033,-0.06599 2.61676,-0.604705 3.63278,-1.495549 0.74314,-1.659534 2.857721,-0.928285 2.996297,-2.715421 0.470537,-0.2282 0.962784,-1.823166 1.567821,-2.357799 -0.06814,-0.171899 2.284726,-8.365764 2.170964,-8.925867 l -8.926049,-1.899072 c -0.640205,1.408576 -0.445717,3.715983 -2.165685,4.050297 z"
         style="display:inline;opacity:1;fill:#03621f;fill-opacity:1;stroke:none;stroke-width:0.24605159px;stroke-linecap:butt;stroke-linejoin:miter;stroke-opacity:1" />
      <path
         sodipodi:nodetypes="cccccccccccc"
         inkscape:connector-curvature="0"
         id="path839-6"
         d="m 46.149224,39.570152 c 1.025266,3.01619 4.589059,7.214575 4.989167,8.757759 0.891308,2.154186 1.550954,5.037264 3.612829,5.113859 0.288259,1.348193 2.320426,0.886257 1.342903,1.951357 -0.818388,0.24758 -2.671657,1.05552 -3.837759,0.158153 -0.977419,-0.189576 -1.976143,-0.28178 -2.81961,-1.242242 -1.761834,1.087588 -2.458353,-0.945467 -4.427435,-0.53557 -0.105889,-0.932268 -2.876696,0.549178 -3.930883,-1.417307 -0.817729,-0.994137 -0.404953,-3.401445 -1.513389,-4.622587 -0.625239,-1.722523 -0.601725,-4.531923 -1.431745,-5.55167 0.04828,-0.21284 -1.437481,-7.258206 -1.594094,-7.143529 z"
         style="display:inline;opacity:1;fill:#0d6b29;fill-opacity:1;stroke:none;stroke-width:0.24605159px;stroke-linecap:butt;stroke-linejoin:miter;stroke-opacity:1" />
      <path
         sodipodi:nodetypes="cccccccc"
         inkscape:connector-curvature="0"
         id="path841-2"
         d="m 42.197846,53.370343 c -0.405771,2.381536 -1.847936,-1.813726 -1.963432,2.841965 -1.241633,3.46314 -1.998709,-3.617956 -3.185963,-0.217134 -1.795517,-1.023386 -4.319984,4.743608 -4.673545,-0.261187 -0.03005,-2.821134 -2.134782,1.413561 -2.350857,-1.725159 -0.173617,-2.78771 4.207828,-12.450252 3.876792,-14.851457 l 3.100325,-2.409634 z"
         style="display:inline;opacity:1;fill:#0f7e30;fill-opacity:1;stroke:none;stroke-width:0.31791025px;stroke-linecap:butt;stroke-linejoin:miter;stroke-opacity:1" />
      <path
         sodipodi:nodetypes="ccccccccc"
         inkscape:connector-curvature="0"
         id="path843-9"
         d="m 41.326992,22.14361 c 1.236025,2.235332 2.125051,8.863401 4.118538,9.127606 0.201006,1.4952 1.461155,1.929031 1.835067,3.11547 1.160389,0.541595 1.084489,3.020646 1.720532,3.495921 -2.066993,0.832507 -2.549589,3.872789 -5.098214,2.021472 -1.589659,-0.989464 -3.435547,-0.893816 -2.958526,1.054819 -1.569543,-1.894808 -2.34876,-5.30468 -4.405181,-5.920523 -1.068848,-0.862105 -1.83795,-2.745939 -2.383103,-4.208019 -0.415387,-0.167505 1.170118,-7.636957 0.931539,-7.370663"
         style="display:inline;opacity:1;fill:#008d2a;fill-opacity:1;stroke:none;stroke-width:0.24605159px;stroke-linecap:butt;stroke-linejoin:miter;stroke-opacity:1" />
      <path
         sodipodi:nodetypes="cccccccccccc"
         inkscape:connector-curvature="0"
         id="path845-1"
         d="m 27.512834,32.281966 c -1.749361,0.440933 -1.952456,2.952758 -3.498319,3.505728 -0.75367,0.494307 -1.747237,2.29085 -2.104742,2.823213 -0.295082,0.844574 -1.257427,3.759517 0.03207,3.842065 l 4.77653,-0.514351 c 0.671592,0.253962 0.158798,3.597609 1.430521,0.95031 0.613172,1.70828 1.994496,0.993598 2.730845,-0.01528 0.29071,2.055006 2.420644,-0.427412 3.08872,0.861131 0.967812,2.151786 2.225495,-1.335392 3.275343,-0.3527 1.637467,-0.121486 1.13314,-3.141616 1.691275,-3.863306 0.584308,-1.405594 0.508544,-2.997135 0.533697,-4.843026 -0.380369,-1.060691 -3.859281,-11.376905 -4.381129,-11.21602"
         style="display:inline;opacity:1;fill:#008227;fill-opacity:1;stroke:none;stroke-width:0.24605159px;stroke-linecap:butt;stroke-linejoin:miter;stroke-opacity:1" />
      <path
         sodipodi:nodetypes="czcccccccccccc"
         inkscape:connector-curvature="0"
         id="path847-2"
         d="m 39.78547,15.673996 c 0.126889,3.943553 1.770212,7.343686 3.428806,8.424463 1.658595,1.080775 2.738328,2.159217 3.550225,2.673922 1.47433,1.30523 6.43e-4,2.07657 -0.872638,1.28348 -0.900997,1.260846 -1.542768,1.676091 -2.211114,-0.194395 -1.399756,-2.29336 -2.231864,-0.113284 -2.819595,0.441513 -0.874671,-0.588211 -1.620693,-2.001466 -1.615166,-0.185693 -1.38956,-2.842348 -1.649356,1.390104 -2.806154,2.289625 -0.04177,1.620962 -2.519392,-0.242915 -2.879854,0.495385 -1.111199,0.636959 -1.684186,2.781606 -2.820448,3.811753 -0.871102,-1.835025 -0.448835,-1.863559 -3.200593,-0.939009 -0.09177,-0.912973 -2.854951,-0.269686 -2.498481,-1.369643 1.383843,-4.024812 1.499985,-2.1528 3.75591,-4.276982 l 3.212147,-12.1335"
         style="display:inline;opacity:1;fill:#099231;fill-opacity:1;stroke:none;stroke-width:0.20959893px;stroke-linecap:butt;stroke-linejoin:miter;stroke-opacity:1" />
      <path
         sodipodi:nodetypes="sccccscs"
         inkscape:connector-curvature="0"
         id="path849-7"
         d="m 39.360361,14.534676 c 1.354117,1.317781 3.336237,4.807172 2.794546,6.437836 -0.294242,-0.570939 -2.151385,-0.949575 -3.41408,-0.641165 -3.381385,-4.138748 -4.669218,-1.642801 -4.296609,1.85893 -2.518858,1.468861 -2.921377,-3.908801 -5.409196,0.376824 -0.782676,-2.710582 1.707611,-8.02218 3.094543,-8.769361 C 34.832967,12.341337 33.887602,2.0636108 35.301303,0.32402745 36.505282,0.7584219 36.865127,12.106406 39.360361,14.534676 Z"
         style="display:inline;opacity:1;fill:#009f30;fill-opacity:1;stroke:none;stroke-width:0.25580052px;stroke-linecap:butt;stroke-linejoin:miter;stroke-opacity:1" />
    </g>
  </g>
  <g
     style="display:inline"
     inkscape:label="Layer 4 copy"
     id="g948"
     inkscape:groupmode="layer">
    <g
       id="g962"
       transform="translate(0.510991,-0.26255701)">
      <path
         style="display:inline;opacity:1;fill:#005219;fill-opacity:1;stroke:none;stroke-width:0.24180593px;stroke-linecap:butt;stroke-linejoin:miter;stroke-opacity:1"
         d="m 65.02826,83.751477 c 1.716162,0.853942 8.050259,2.925918 9.446361,2.674044 1.183434,1.294849 0.71446,-1.066289 1.578783,0.589263 -0.415446,3.709368 1.754254,0.510712 2.688026,0.393887 0.318809,0.575253 1.905004,1.727815 1.888005,0.160803 0.742362,1.516829 0.699893,1.874397 2.000289,1.558083 0.513262,1.314927 1.710213,-0.494692 2.173219,0.902406 0.230096,0.701692 1.850033,0.663957 1.575,-1.020959 -0.232198,-2.194257 -0.681614,-4.318226 -2.048735,-5.955783 -0.88697,-0.720272 -1.603953,-2.442905 -1.736616,-4.110366 -0.28663,-2.403196 -3.828561,-0.615867 -5.438381,-1.563356 -1.450598,-0.544966 -2.556157,-0.799143 -4.18633,-1.538681 -1.046173,-0.867531 -2.769172,-1.377713 -3.447478,-2.066821 -0.319979,0.130205 -8.462763,-5.706221 -8.449154,-5.351861 z"
         id="path924"
         inkscape:connector-curvature="0"
         sodipodi:nodetypes="ccccccccccccccc" />
      <path
         style="display:inline;opacity:1;fill:#005219;fill-opacity:1;stroke:none;stroke-width:0.24180593px;stroke-linecap:butt;stroke-linejoin:miter;stroke-opacity:1"
         d="m 35.46859,73.462883 c -1.771369,0.606673 -4.76276,3.024501 -6.341046,3.837599 -0.826589,0.251847 -1.531712,1.215485 -2.495204,1.733088 -1.315914,0.596712 -3.069257,1.065594 -4.415053,1.448588 -1.884121,-0.08819 -2.345816,1.809601 -2.227081,3.397724 0.07956,1.242784 -0.285398,3.392159 1.52151,3.37803 1.542263,0.828607 2.317384,-1.02434 3.322727,0.514276 1.688475,-2.350618 2.339108,1.866511 2.807058,-0.06927 0.09415,-2.044486 2.845855,-0.20999 4.328419,-0.582208 L 44.436718,76.977853 Z"
         id="path926"
         inkscape:connector-curvature="0"
         sodipodi:nodetypes="ccccccccccc" />
      <path
         style="display:inline;opacity:1;fill:#0a6025;fill-opacity:1;stroke:none;stroke-width:0.24180593px;stroke-linecap:butt;stroke-linejoin:miter;stroke-opacity:1"
         d="m 43.644625,91.769183 c -2.033502,3.260437 -2.999306,0.388605 -4.154882,-0.362101 -1.590735,-0.158573 -2.034113,0.316004 -1.657573,1.095927 -0.994799,1.72309 -1.424414,-2.23892 -3.222903,-1.021132 -1.426396,-0.48473 -5.930037,-1.622971 -5.653345,-2.762382 0.551668,-1.090233 -1.109748,-1.83498 -0.07027,-2.778549 0.867689,-0.672246 2.199147,-2.749048 2.573453,-3.232553 0.60141,-0.351692 0.86928,-1.558741 2.216536,-1.584431 1.121791,-0.778946 3.270154,-1.092162 4.002482,-2.124143 l 6.215292,-5.570715 7.418559,-0.239956 z"
         id="path928"
         inkscape:connector-curvature="0"
         sodipodi:nodetypes="cccccccccccc" />
      <path
         style="display:inline;opacity:1;fill:#0a6025;fill-opacity:1;stroke:none;stroke-width:0.24667898px;stroke-linecap:butt;stroke-linejoin:miter;stroke-opacity:1"
         d="m 66.586855,73.536919 c 2.132605,9.399879 4.345488,7.696209 6.634189,9.922536 1.558787,1.516317 1.8112,5.536352 1.662863,6.175981 -0.825637,1.251091 -3.376302,0.759169 -3.376302,0.759169 -0.613711,0.782994 -1.567223,-0.07129 -2.355024,1.407187 -2.614529,-0.22591 -2.582433,-1.709162 -3.092149,-0.935792 -0.488266,2.412226 -1.369762,0.735215 -2.729371,0.731002 -1.294045,-0.510173 -2.493006,2.017014 -2.453343,-0.223351 0,0 -2.257271,2.195035 -2.771639,0.717348 -1.176882,0.572219 -1.446385,0.663427 -1.699018,-0.636366 -0.471615,-2.940019 0.487362,-10.505731 -0.103564,-18.337913"
         id="path930"
         inkscape:connector-curvature="0"
         sodipodi:nodetypes="csccccccccc" />
      <path
         style="display:inline;opacity:1;fill:#11692d;fill-opacity:1;stroke:none;stroke-width:0.24814847px;stroke-linecap:butt;stroke-linejoin:miter;stroke-opacity:1"
         d="M 50.537731,73.848517 C 49.861975,77.766093 39.944328,87.898875 44.42048,86.227 c -1.463395,2.225084 -5.948616,8.396322 -1.714884,6.207548 -0.678891,0.935919 -0.01354,1.787539 2.361631,1.116325 0,0 -1.140054,1.401722 2.329461,-0.319339 0.279393,1.867406 1.695058,-0.908858 2.49248,0.109304 1.547088,-0.209871 1.469652,-1.547573 3.71041,0.288147 1.368291,-0.864158 2.670405,0.277684 3.409194,-1.004535 1.096713,0.955924 2.692751,0.655339 3.385332,-0.767184 1.504774,1.731809 -1.022403,-4.060758 -0.438221,-5.511539 3.172116,1.931727 -2.999789,-11.637539 -3.198346,-12.821475 z"
         id="path932"
         inkscape:connector-curvature="0"
         sodipodi:nodetypes="cccccccccccc" />
      <path
         style="display:inline;opacity:1;fill:#03621f;fill-opacity:1;stroke:none;stroke-width:0.24180593px;stroke-linecap:butt;stroke-linejoin:miter;stroke-opacity:1"
         d="m 39.48047,66.919591 c -1.503037,0.297259 -2.791481,1.087227 -4.539196,1.526572 -1.48828,0.506956 -0.636607,0.946027 -2.31916,1.511939 -0.95825,0.08993 -1.027494,1.757408 -1.162382,1.827953 -1.351338,0.782601 -0.109383,2.627049 1.089832,3.011697 0.406151,1.244236 1.085363,2.043023 2.925358,1.493908 1.473087,-1.558513 1.781911,0.342205 3.405415,0.335653 0.03773,0.374795 -0.0114,2.359913 1.42363,1.620147 1.722405,-0.05602 2.976899,-0.513363 4.132751,-1.269644 0.845416,-1.408859 3.251022,-0.788066 3.40867,-2.305252 0.535296,-0.193731 1.095289,-1.547774 1.783597,-2.00165 -0.07753,-0.145934 2.599167,-7.102103 2.469748,-7.577603 l -10.15452,-1.612214 c -0.728314,1.195808 -0.50706,3.154679 -2.463743,3.438494 z"
         id="path934"
         inkscape:connector-curvature="0"
         sodipodi:nodetypes="cccccccccccccc" />
      <path
         style="display:inline;opacity:1;fill:#0d6b29;fill-opacity:1;stroke:none;stroke-width:0.24180593px;stroke-linecap:butt;stroke-linejoin:miter;stroke-opacity:1"
         d="m 65.052999,62.273664 c 1.166372,2.56059 5.220642,6.124802 5.675815,7.434886 1.013977,1.828793 1.764408,4.276377 4.110056,4.341402 0.327929,1.144547 2.63978,0.752388 1.527723,1.656603 -0.931021,0.210182 -3.039353,0.896082 -4.365942,0.134263 -1.111938,-0.16094 -2.248114,-0.239216 -3.207667,-1.0546 -2.00431,0.923307 -2.79669,-0.802652 -5.036771,-0.454671 -0.120463,-0.791448 -3.27261,0.466223 -4.471882,-1.20322 -0.930271,-0.843971 -0.460685,-2.887652 -1.721674,-3.924339 -0.711288,-1.462333 -0.684538,-3.847369 -1.628792,-4.713082 0.05493,-0.18069 -1.635318,-6.161843 -1.813485,-6.064487 z"
         id="path936"
         inkscape:connector-curvature="0"
         sodipodi:nodetypes="cccccccccccc" />
      <path
         style="display:inline;opacity:1;fill:#0f7e30;fill-opacity:1;stroke:none;stroke-width:0.31242466px;stroke-linecap:butt;stroke-linejoin:miter;stroke-opacity:1"
         d="m 60.557804,73.989314 c -0.461618,2.021802 -2.102264,-1.539759 -2.233657,2.412683 -1.412515,2.940028 -2.273786,-3.071458 -3.624438,-0.184336 -2.042631,-0.868802 -4.914534,4.027081 -5.316754,-0.221734 -0.03419,-2.394998 -2.428587,1.20004 -2.6744,-1.464571 -0.197512,-2.366622 4.786941,-10.569623 4.410345,-12.608123 l 3.527016,-2.045655 z"
         id="path938"
         inkscape:connector-curvature="0"
         sodipodi:nodetypes="cccccccc" />
      <path
         style="display:inline;opacity:1;fill:#008d2a;fill-opacity:1;stroke:none;stroke-width:0.24180593px;stroke-linecap:butt;stroke-linejoin:miter;stroke-opacity:1"
         d="m 59.567095,47.479427 c 1.406136,1.897681 2.417517,7.52457 4.685363,7.748867 0.22867,1.269348 1.662251,1.637647 2.087622,2.644873 1.320092,0.459787 1.233745,2.564374 1.957326,2.967857 -2.351469,0.706756 -2.900483,3.287799 -5.79987,1.716126 -1.80844,-0.840004 -3.908372,-0.758803 -3.365701,0.895488 -1.785555,-1.608595 -2.672014,-4.503401 -5.011455,-5.026219 -1.215951,-0.731884 -2.090903,-2.331162 -2.711084,-3.572392 -0.472557,-0.142204 1.331159,-6.483384 1.059745,-6.257315"
         id="path940"
         inkscape:connector-curvature="0"
         sodipodi:nodetypes="ccccccccc" />
      <path
         style="display:inline;opacity:1;fill:#008227;fill-opacity:1;stroke:none;stroke-width:0.24180593px;stroke-linecap:butt;stroke-linejoin:miter;stroke-opacity:1"
         d="m 43.851726,56.086369 c -1.99012,0.37433 -2.221168,2.506739 -3.979784,2.976182 -0.857396,0.419641 -1.987705,1.944814 -2.394413,2.396762 -0.335693,0.717001 -1.430484,3.191637 0.03648,3.261716 l 5.433914,-0.436658 c 0.76402,0.215601 0.180652,3.054185 1.6274,0.806765 0.697561,1.450242 2.268993,0.843514 3.106684,-0.01298 0.33072,1.744594 2.753792,-0.362851 3.513814,0.731056 1.101008,1.826755 2.531784,-1.13368 3.726121,-0.299425 1.862827,-0.103135 1.289091,-2.66707 1.924041,-3.279747 0.664725,-1.193277 0.578534,-2.544414 0.607148,-4.111481 -0.432719,-0.900471 -4.390425,-9.658406 -4.984093,-9.521823"
         id="path942"
         inkscape:connector-curvature="0"
         sodipodi:nodetypes="cccccccccccc" />
      <path
         style="display:inline;opacity:1;fill:#099231;fill-opacity:1;stroke:none;stroke-width:0.20598225px;stroke-linecap:butt;stroke-linejoin:miter;stroke-opacity:1"
         d="m 57.813417,41.987057 c 0.144352,3.347873 2.013842,6.234412 3.900705,7.151936 1.886863,0.917522 3.115197,1.833064 4.038834,2.270021 1.677239,1.108074 7.31e-4,1.762901 -0.992737,1.089609 -1.024999,1.070394 -1.755096,1.422915 -2.515425,-0.165031 -1.592401,-1.946945 -2.539031,-0.09617 -3.207649,0.374821 -0.995049,-0.49936 -1.843745,-1.69914 -1.837457,-0.157643 -1.580803,-2.413007 -1.876353,1.180126 -3.192359,1.943774 -0.04752,1.376112 -2.866129,-0.206223 -3.276202,0.420556 -1.26413,0.540745 -1.915976,2.36144 -3.208619,3.235982 -0.990989,-1.557842 -0.510608,-1.582066 -3.641083,-0.797171 -0.104406,-0.775066 -3.247871,-0.22895 -2.842342,-1.162756 1.574299,-3.416859 1.706425,-1.827615 4.272827,-3.630937 L 48.966137,42.2595"
         id="path944"
         inkscape:connector-curvature="0"
         sodipodi:nodetypes="czcccccccccccc" />
      <path
         style="display:inline;opacity:1;fill:#009f30;fill-opacity:1;stroke:none;stroke-width:0.25138664px;stroke-linecap:butt;stroke-linejoin:miter;stroke-opacity:1"
         d="m 57.329802,41.019833 c 1.540481,1.118728 3.795395,4.081042 3.179153,5.465391 -0.334739,-0.484697 -2.447475,-0.806139 -3.883953,-0.544315 -3.846757,-3.513586 -5.311831,-1.394655 -4.887941,1.578136 -2.865523,1.246987 -3.323439,-3.318371 -6.153651,0.319903 -0.890395,-2.301144 1.942625,-6.810418 3.520438,-7.444736 3.075465,-1.236412 1.999991,-9.961672 3.608257,-11.438488 1.36968,0.368778 1.779049,10.002632 4.617697,12.064109 z"
         id="path946"
         inkscape:connector-curvature="0"
         sodipodi:nodetypes="sccccscs" />
    </g>
  </g>
</svg>
