<?xml version="1.0" encoding="UTF-8" standalone="no"?>
<svg
   xmlns:dc="http://purl.org/dc/elements/1.1/"
   xmlns:cc="http://creativecommons.org/ns#"
   xmlns:rdf="http://www.w3.org/1999/02/22-rdf-syntax-ns#"
   xmlns:svg="http://www.w3.org/2000/svg"
   xmlns="http://www.w3.org/2000/svg"
   id="svg8"
   version="1.1"
   viewBox="0 0 70 20"
   height="20mm"
   width="70mm">
  <defs
     id="defs2" />
  <metadata
     id="metadata5">
    <rdf:RDF>
      <cc:Work
         rdf:about="">
        <dc:format>image/svg+xml</dc:format>
        <dc:type
           rdf:resource="http://purl.org/dc/dcmitype/StillImage" />
        <dc:title></dc:title>
      </cc:Work>
    </rdf:RDF>
  </metadata>
  <g
     transform="translate(0,-277)"
     id="layer1">
    <rect
       y="277.13364"
       x="0.13363476"
       height="20"
       width="70"
       id="rect841"
       style="fill:none;fill-opacity:1;stroke:#000000;stroke-width:0.13211915;stroke-linejoin:miter;stroke-miterlimit:4;stroke-dasharray:none;stroke-dashoffset:0;stroke-opacity:1" />
    <g
       transform="translate(5.3950197,-2.2753907e-6)"
       id="g884">
      <text
         xml:space="preserve"
         style="font-style:normal;font-variant:normal;font-weight:normal;font-stretch:normal;font-size:7.05555534px;line-height:125%;font-family:Ubuntu;-inkscape-font-specification:Ubuntu;letter-spacing:0px;word-spacing:0px;fill:#000000;fill-opacity:1;stroke:none;stroke-width:0.26458332px;stroke-linecap:butt;stroke-linejoin:miter;stroke-opacity:1"
         x="22.794744"
         y="289.81827"
         id="text839"><tspan
           id="tspan837"
           x="22.794744"
           y="289.81827"
           style="font-style:normal;font-variant:normal;font-weight:normal;font-stretch:normal;font-size:7.05555534px;font-family:Ubuntu;-inkscape-font-specification:Ubuntu;stroke-width:0.26458332px">Analyseur</tspan></text>
      <path
         id="path867"
         d="m 14.925552,290.77928 -1.947076,-1.94708 c -0.08788,-0.0879 -0.207011,-0.1367 -0.331998,-0.1367 h -0.318329 c 0.53901,-0.68939 0.859292,-1.55649 0.859292,-2.49976 0,-2.24392 -1.818182,-4.0621 -4.0621035,-4.0621 -2.243921,0 -4.0621027,1.81818 -4.0621027,4.0621 0,2.24392 1.8181817,4.0621 4.0621027,4.0621 0.9432665,0 1.8103695,-0.32028 2.4997555,-0.85929 v 0.31833 c 0,0.12499 0.04882,0.24412 0.136705,0.332 l 1.947076,1.94708 c 0.183575,0.18357 0.480422,0.18357 0.662045,0 l 0.55268,-0.55268 c 0.183576,-0.18358 0.183576,-0.48043 0.002,-0.664 z M 9.1253375,288.6955 c -1.380724,0 -2.499756,-1.11708 -2.499756,-2.49976 0,-1.38072 1.117079,-2.49975 2.499756,-2.49975 1.3807245,0 2.4997555,1.11707 2.4997555,2.49975 0,1.38073 -1.117078,2.49976 -2.4997555,2.49976 z"
         style="stroke-width:0.01952934" />
    </g>
  </g>
</svg>
