<svg title="graph" version="1.1" xmlns="http://www.w3.org/2000/svg" xmlns:xlink="http://www.w3.org/1999/xlink">
<style>circle {cursor: pointer;stroke-width: 1.5px;}text {font: 10px arial;}path {stroke: DimGrey;stroke-width: 1.5px;}</style>
<g transform="translate(-70,-45) scale(0.3)">
<g class="links">
<line stroke="hsl(25, 25%, 44%)" stroke-width="15px" x1="328.28114220565806" y1="213.35172414329259" x2="403.5856714115957" y2="190.48590296623297"></line>
<line stroke="hsl(25, 25%, 44%)" stroke-width="15px" x1="403.5856714115957" y1="190.48590296623297" x2="471.7554368069929" y2="230.80394899700062"></line><line stroke="hsl(25, 25%, 44%)" stroke-width="15px" x1="471.7554368069929" y1="230.80394899700062" x2="428.6995711089171" y2="300.3609779708846"></line><line stroke="hsl(25, 25%, 44%)" stroke-width="15px" x1="471.7554368069929" y1="230.80394899700062" x2="511.9198939980827" y2="299.5670196944943"></line><line stroke="hsl(25, 25%, 44%)" stroke-width="15px" x1="428.6995711089171" y1="300.3609779708846" x2="511.9198939980827" y2="299.5670196944943"></line><line stroke="hsl(25, 25%, 44%)" stroke-width="15px" x1="511.9198939980827" y1="299.5670196944943" x2="484.87449220434013" y2="380.5620853144484"></line><line stroke="hsl(25, 25%, 44%)" stroke-width="15px" x1="319.72605093586884" y1="364.26392613312305" x2="284.0446711330089" y2="301.8192078584899"></line><line stroke="hsl(25, 25%, 44%)" stroke-width="15px" x1="319.72605093586884" y1="364.26392613312305" x2="367.5915331174157" y2="418.47779341664324"></line></g><g class="nodes"><g transform="translate(328.28114220565806,213.35172414329259)" style="transform-origin: center center;"><image xlink:href="images/sapin.svg" x="-40" y="-40" height="80" width="80" transform="scale(1,1)"></image></g><g transform="translate(403.5856714115957,190.48590296623297)" style="transform-origin: center center;"><image xlink:href="images/sapin.svg" x="-40" y="-40" height="80" width="80" transform="scale(1,1)"></image></g><g transform="translate(471.7554368069929,230.80394899700062)" style="transform-origin: center center;"><image xlink:href="images/cabane_peche.svg" x="-52" y="-52" height="104" width="104" transform="scale(-1,1)"></image></g><g transform="translate(511.9198939980827,299.5670196944943)" style="transform-origin: center center;"><image xlink:href="images/volcan.svg" x="-40" y="-40" height="80" width="80" transform="scale(1,1)"></image></g><g transform="translate(428.6995711089171,300.3609779708846)" style="transform-origin: center center;"><image xlink:href="images/riviere.svg" x="-40" y="-40" height="80" width="80" transform="scale(1,1)"></image></g><g transform="translate(484.87449220434013,380.5620853144484)" style="transform-origin: center center;"><image xlink:href="images/grotte.svg" x="-32" y="-32" height="64" width="64" transform="scale(1,1)"></image></g><g transform="translate(319.72605093586884,364.26392613312305)" style="transform-origin: center center;"><image xlink:href="images/grotte.svg" x="-32" y="-32" height="64" width="64" transform="scale(-1,1)"></image></g><g transform="translate(284.0446711330089,301.8192078584899)" style="transform-origin: center center;"><image xlink:href="images/sapin.svg" x="-40" y="-40" height="80" width="80" transform="scale(1,1)"></image></g><g transform="translate(367.5915331174157,418.47779341664324)" style="transform-origin: center center;"><image xlink:href="images/cabane_peche.svg" x="-52" y="-52" height="104" width="104" transform="scale(1,1)"></image></g></g></g></svg>