<?xml version="1.0" encoding="UTF-8" standalone="no"?>
<!-- Created with Inkscape (http://www.inkscape.org/) -->

<svg
   xmlns:osb="http://www.openswatchbook.org/uri/2009/osb"
   xmlns:dc="http://purl.org/dc/elements/1.1/"
   xmlns:cc="http://creativecommons.org/ns#"
   xmlns:rdf="http://www.w3.org/1999/02/22-rdf-syntax-ns#"
   xmlns:svg="http://www.w3.org/2000/svg"
   xmlns="http://www.w3.org/2000/svg"
   xmlns:xlink="http://www.w3.org/1999/xlink"
   xmlns:sodipodi="http://sodipodi.sourceforge.net/DTD/sodipodi-0.dtd"
   xmlns:inkscape="http://www.inkscape.org/namespaces/inkscape"
   width="400"
   height="400"
   viewBox="0 0 105.83334 105.83333"
   version="1.1"
   id="svg8"
   inkscape:version="0.92.4 5da689c313, 2019-01-14"
   sodipodi:docname="crique.svg">
  <defs
     id="defs2">
    <linearGradient
       inkscape:collect="always"
       id="linearGradient2477">
      <stop
         style="stop-color:#2f3d70;stop-opacity:1;"
         offset="0"
         id="stop2473" />
      <stop
         id="stop2483"
         offset="0.18287028"
         style="stop-color:#2f3d70;stop-opacity:1" />
      <stop
         style="stop-color:#2f3d70;stop-opacity:0;"
         offset="1"
         id="stop2475" />
    </linearGradient>
    <linearGradient
       id="linearGradient942"
       inkscape:collect="always">
      <stop
         id="stop936"
         offset="0"
         style="stop-color:#617ad2;stop-opacity:0.99607843" />
      <stop
         id="stop938"
         offset="0.51877916"
         style="stop-color:#617ad2;stop-opacity:0.99545455" />
      <stop
         id="stop940"
         offset="1"
         style="stop-color:#617ad2;stop-opacity:0" />
    </linearGradient>
    <linearGradient
       id="linearGradient858"
       osb:paint="gradient">
      <stop
         style="stop-color:#617ad2;stop-opacity:0.99545455"
         offset="0"
         id="stop864" />
      <stop
         style="stop-color:#617ad2;stop-opacity:0"
         offset="1"
         id="stop856" />
    </linearGradient>
    <radialGradient
       inkscape:collect="always"
       xlink:href="#linearGradient942"
       id="radialGradient858-3"
       cx="76.087494"
       cy="51.202961"
       fx="76.087494"
       fy="51.202961"
       r="39.929619"
       gradientTransform="matrix(-0.52112166,0.13875201,-0.03284027,-0.40431001,72.233462,80.14223)"
       gradientUnits="userSpaceOnUse" />
    <radialGradient
       inkscape:collect="always"
       xlink:href="#linearGradient942"
       id="radialGradient858-3-9"
       cx="76.087494"
       cy="51.202961"
       fx="76.087494"
       fy="51.202961"
       r="39.929619"
       gradientTransform="matrix(-0.70738082,-0.15705582,0.09412076,-0.31472706,116.5516,103.44304)"
       gradientUnits="userSpaceOnUse" />
    <radialGradient
       inkscape:collect="always"
       xlink:href="#linearGradient942"
       id="radialGradient858-3-93"
       cx="76.087494"
       cy="51.202961"
       fx="76.087494"
       fy="51.202961"
       r="39.929619"
       gradientTransform="matrix(-0.71739147,0.11116877,-0.04520889,-0.32393509,109.17848,83.411828)"
       gradientUnits="userSpaceOnUse" />
    <radialGradient
       inkscape:collect="always"
       xlink:href="#linearGradient2477"
       id="radialGradient2481"
       cx="28.036459"
       cy="18.13921"
       fx="28.036459"
       fy="18.13921"
       r="37.745533"
       gradientTransform="matrix(-0.21405292,-0.1672636,0.31783799,-0.05311573,49.143191,51.559133)"
       gradientUnits="userSpaceOnUse" />
    <radialGradient
       inkscape:collect="always"
       xlink:href="#linearGradient2477"
       id="radialGradient2481-2"
       cx="28.036459"
       cy="18.13921"
       fx="28.036459"
       fy="18.13921"
       r="37.745533"
       gradientTransform="matrix(-0.21405292,-0.27162114,0.31783799,-0.0862552,52.203797,62.988424)"
       gradientUnits="userSpaceOnUse" />
    <radialGradient
       inkscape:collect="always"
       xlink:href="#linearGradient2477"
       id="radialGradient2481-2-5"
       cx="28.036459"
       cy="18.13921"
       fx="28.036459"
       fy="18.13921"
       r="37.745533"
       gradientTransform="matrix(-0.21405292,-0.27162114,0.31783799,-0.0862552,66.712822,62.528945)"
       gradientUnits="userSpaceOnUse" />
    <radialGradient
       inkscape:collect="always"
       xlink:href="#linearGradient2477"
       id="radialGradient2481-2-5-9"
       cx="28.036459"
       cy="18.13921"
       fx="28.036459"
       fy="18.13921"
       r="37.745533"
       gradientTransform="matrix(0.30840619,-0.17674495,0.06743177,0.30114983,30.867955,53.09106)"
       gradientUnits="userSpaceOnUse" />
    <radialGradient
       inkscape:collect="always"
       xlink:href="#linearGradient2477"
       id="radialGradient2481-2-5-9-2"
       cx="28.036459"
       cy="18.13921"
       fx="28.036459"
       fy="18.13921"
       r="37.745533"
       gradientTransform="matrix(-0.21405292,-0.27162114,0.31783799,-0.0862552,69.021077,72.790681)"
       gradientUnits="userSpaceOnUse" />
    <radialGradient
       inkscape:collect="always"
       xlink:href="#linearGradient2477"
       id="radialGradient2481-2-5-9-2-4"
       cx="28.036459"
       cy="18.13921"
       fx="28.036459"
       fy="18.13921"
       r="37.745533"
       gradientTransform="matrix(0.26655386,-0.33382822,0.21076632,0.32749431,26.378394,60.082392)"
       gradientUnits="userSpaceOnUse" />
  </defs>
  <sodipodi:namedview
     id="base"
     pagecolor="#ffffff"
     bordercolor="#666666"
     borderopacity="1.0"
     inkscape:pageopacity="0.0"
     inkscape:pageshadow="2"
     inkscape:zoom="1.365625"
     inkscape:cx="-27.744771"
     inkscape:cy="324.84557"
     inkscape:document-units="mm"
     inkscape:current-layer="layer3"
     showgrid="false"
     units="px"
     inkscape:window-width="956"
     inkscape:window-height="1057"
     inkscape:window-x="960"
     inkscape:window-y="0"
     inkscape:window-maximized="0" />
  <metadata
     id="metadata5">
    <rdf:RDF>
      <cc:Work
         rdf:about="">
        <dc:format>image/svg+xml</dc:format>
        <dc:type
           rdf:resource="http://purl.org/dc/dcmitype/StillImage" />
        <dc:title />
      </cc:Work>
    </rdf:RDF>
  </metadata>
  <g
     inkscape:groupmode="layer"
     id="layer3"
     inkscape:label="Layer 3"
     style="display:inline;opacity:1">
    <rect
       style="display:inline;opacity:1;fill:#1e2336;fill-opacity:1;fill-rule:nonzero;stroke:none;stroke-width:0.52489448;stroke-linecap:round;stroke-miterlimit:4;stroke-dasharray:none;stroke-dashoffset:9.99999905;stroke-opacity:1"
       id="rect867"
       width="11.87102"
       height="7.3516898"
       x="43.423428"
       y="40.091724" />
    <path
       style="display:inline;opacity:1;fill:url(#radialGradient858-3);fill-opacity:1;stroke:none;stroke-width:0.20959878px;stroke-linecap:butt;stroke-linejoin:miter;stroke-opacity:1"
       d="M 5.8075925,78.731724 C 3.2625977,55.28554 52.384066,33.476592 53.531977,62.229787 54.679888,90.982979 8.352587,102.1779 5.8075925,78.731724 Z"
       id="path852-3"
       inkscape:connector-curvature="0"
       sodipodi:nodetypes="zzz" />
    <path
       style="display:inline;opacity:1;fill:#617ad2;fill-opacity:0.99607843;stroke:none;stroke-width:0.17728117px;stroke-linecap:butt;stroke-linejoin:miter;stroke-opacity:1"
       d="M 21.248357,62.557742 C 1.1451785,47.777626 52.706843,36.005804 79.887381,55.040591 107.06792,74.075381 41.351535,77.337856 21.248357,62.557742 Z"
       id="path852"
       inkscape:connector-curvature="0"
       sodipodi:nodetypes="zzz" />
    <path
       style="display:inline;opacity:1;fill:url(#radialGradient858-3-9);fill-opacity:1;stroke:none;stroke-width:0.22012483px;stroke-linecap:butt;stroke-linejoin:miter;stroke-opacity:1"
       d="M 32.796308,69.330319 C 37.44218,50.760183 107.05207,59.121745 98.852645,80.912831 90.65322,102.70392 28.150436,87.900453 32.796308,69.330319 Z"
       id="path852-3-0"
       inkscape:connector-curvature="0"
       sodipodi:nodetypes="zzz" />
    <path
       style="display:inline;opacity:1;fill:url(#radialGradient858-3-93);fill-opacity:1;stroke:none;stroke-width:0.22012483px;stroke-linecap:butt;stroke-linejoin:miter;stroke-opacity:1"
       d="M 17.734657,82.281722 C 14.231143,63.496529 81.853207,46.023096 83.433456,69.060292 85.013703,92.097485 21.238172,101.06691 17.734657,82.281722 Z"
       id="path852-3-2"
       inkscape:connector-curvature="0"
       sodipodi:nodetypes="zzz" />
  </g>
  <g
     inkscape:groupmode="layer"
     id="layer2"
     inkscape:label="Layer 2"
     style="display:inline;opacity:1">
    <path
       style="display:inline;opacity:1;fill:url(#radialGradient2481);fill-opacity:1;stroke:none;stroke-width:0.11271486px;stroke-linecap:butt;stroke-linejoin:miter;stroke-opacity:1"
       d="M 55.459322,54.669737 C 37.00073,55.719661 18.391101,37.86472 41.082952,37.298806 63.7748,36.73289 73.917907,53.619813 55.459322,54.669737 Z"
       id="path852-3-2-9"
       inkscape:connector-curvature="0"
       sodipodi:nodetypes="zzz" />
    <path
       style="display:inline;opacity:1;fill:url(#radialGradient2481-2);fill-opacity:1;stroke:none;stroke-width:0.14363566px;stroke-linecap:butt;stroke-linejoin:miter;stroke-opacity:1"
       d="M 58.519929,68.039766 C 40.061337,69.74475 21.451707,40.749919 44.143559,39.830925 66.835406,38.911929 76.978514,66.334783 58.519929,68.039766 Z"
       id="path852-3-2-9-7"
       inkscape:connector-curvature="0"
       sodipodi:nodetypes="zzz" />
    <path
       style="display:inline;opacity:1;fill:url(#radialGradient2481-2-5);fill-opacity:1;stroke:none;stroke-width:0.14363566px;stroke-linecap:butt;stroke-linejoin:miter;stroke-opacity:1"
       d="M 73.028954,67.580284 C 54.570362,69.285268 35.960732,40.290438 58.652584,39.371444 81.344431,38.452448 91.487542,65.875302 73.028954,67.580284 Z"
       id="path852-3-2-9-7-8"
       inkscape:connector-curvature="0"
       sodipodi:nodetypes="zzz" />
    <path
       style="display:inline;opacity:1;fill:url(#radialGradient2481-2-5-9);fill-opacity:1;stroke:none;stroke-width:0.14363566px;stroke-linecap:butt;stroke-linejoin:miter;stroke-opacity:1"
       d="M 24.947873,58.540643 C 24.577678,41.312486 57.163975,26.371786 56.356001,47.457957 55.54803,68.544123 25.318067,75.768797 24.947873,58.540643 Z"
       id="path852-3-2-9-7-8-1"
       inkscape:connector-curvature="0"
       sodipodi:nodetypes="zzz" />
    <path
       style="display:inline;opacity:1;fill:url(#radialGradient2481-2-5-9-2);fill-opacity:1;stroke:none;stroke-width:0.14363566px;stroke-linecap:butt;stroke-linejoin:miter;stroke-opacity:1"
       d="M 75.337207,77.842019 C 56.878616,79.547003 38.268986,50.552173 60.960838,49.633179 83.652685,48.714182 93.795793,76.137037 75.337207,77.842019 Z"
       id="path852-3-2-9-7-8-1-9"
       inkscape:connector-curvature="0"
       sodipodi:nodetypes="zzz" />
    <path
       style="display:inline;opacity:1;fill:url(#radialGradient2481-2-5-9-2-4);fill-opacity:1;stroke:none;stroke-width:0.17617568px;stroke-linecap:butt;stroke-linejoin:miter;stroke-opacity:1"
       d="M 22.184723,68.914669 C 14.038286,48.760082 43.878219,17.888877 52.434681,43.070042 60.991145,68.251201 30.331153,89.069241 22.184723,68.914669 Z"
       id="path852-3-2-9-7-8-1-9-5"
       inkscape:connector-curvature="0"
       sodipodi:nodetypes="zzz" />
  </g>
  <g
     inkscape:groupmode="layer"
     id="layer5"
     inkscape:label="Layer 5"
     style="display:inline">
    <path
       style="display:inline;opacity:1;fill:#8e867a;fill-opacity:1;stroke:none;stroke-width:0.19352439px;stroke-linecap:butt;stroke-linejoin:miter;stroke-opacity:1"
       d="m 42.099706,26.063585 c -1.076653,1.702103 -2.367633,2.138755 -6.410545,1.573504 l 1.544894,2.242087 c -0.666476,0.659258 -2.249111,0.667007 -2.976704,0.805249 l 1.423054,2.541228 c -3.536007,1.885616 -7.109093,3.023558 -11.67307,3.154664 l -0.791716,1.700119 0.526041,2.002811 c -2.44832,4.20147 -6.903997,7.418158 -11.960412,10.339578 4.616659,10.324121 13.169666,14.127034 13.169666,14.127034 1.081647,-1.722148 2.375041,-2.166676 6.419574,-1.607941 L 29.82959,60.681953 c 0.668597,-0.667769 2.252417,-0.680275 2.980891,-0.822062 L 31.39266,57.297643 c 3.543284,-1.914841 7.121766,-3.074458 11.689467,-3.220522 l 0.796485,-1.719275 -0.520967,-2.021362 c 2.359291,-4.075518 6.564898,-7.240811 11.374203,-10.108753 0.179407,-0.04348 0.385154,-0.09295 0.562601,-0.136007 -0.02386,-0.05266 -0.0494,-0.102542 -0.07347,-0.154863 0.04399,-0.02585 0.08731,-0.05195 0.13139,-0.07774 0,0 -0.14981,0.03582 -0.151083,0.03612 C 50.542881,29.808689 42.099706,26.063585 42.099706,26.063585 Z"
       id="path5917"
       inkscape:connector-curvature="0" />
    <path
       style="display:inline;opacity:1;fill:#736e66;fill-opacity:1;stroke:none;stroke-width:0.12961097px;stroke-linecap:butt;stroke-linejoin:miter;stroke-opacity:1"
       d="m 48.183429,26.200483 c -1.551723,1.282083 -0.504168,1.33851 -0.984056,4.484117 l -1.613726,2.512055 c 0.03581,0.599595 0.271432,4.686559 0.0173,5.337456 l -1.345356,0.93708 c 0.03133,0.395132 -0.02478,0.72536 -0.128993,1.005579 -0.877782,0.762198 -1.585731,1.38104 -1.585731,1.38104 0,0 0.697234,0.345981 1.905995,0.712883 0.146642,0.211593 0.155193,0.451533 -0.07128,0.695927 l 0.690223,2.145685 -1.314985,1.746727 0.297517,1.491566 c 1.523734,0.979014 1.529977,0.04423 5.086149,-0.470497 l 2.906997,0.667575 c 0.143004,-0.0447 0.526975,-0.163674 0.949743,-0.29272 1.78374,2.950136 3.507254,5.668603 3.507254,5.668603 0.289888,-0.885008 1.629418,-2.115435 2.215397,-1.421909 l 2.621879,-0.34453 1.465187,1.343098 1.75841,-0.08211 c 1.628077,-1.203096 0.594684,-1.318389 1.294043,-4.455353 l 1.776764,-2.436301 c 0.0072,-0.60504 0.06528,-4.728791 0.363322,-5.369287 l 1.399568,-0.867542 c -0.0059,-0.817662 0.320801,-1.352118 0.70215,-1.70009 0.434006,-0.225748 1.165969,-0.605122 1.165969,-0.605122 0,0 -0.373467,-0.216573 -1.049409,-0.507736 -0.508294,-0.414488 -0.76902,-0.977898 -0.214266,-1.342155 l 0.0292,-2.304135 1.766406,-1.418356 0.18916,-1.557586 c -1.10855,-1.346139 -1.406408,-0.416926 -4.86739,-0.771546 l -2.489541,-1.37306 c -0.585217,0.03843 -4.044848,0.258453 -5.491114,0.194683 -1.572235,-2.185719 -2.880694,-3.952961 -2.881071,-3.953479 -0.228511,0.892596 -1.488563,2.185511 -2.127281,1.531333 l -2.612368,0.487592 -1.569114,-1.24906 z"
       id="path5917-3"
       inkscape:connector-curvature="0" />
    <path
       style="display:inline;opacity:1;fill:#787269;fill-opacity:1;stroke:none;stroke-width:0.17581217px;stroke-linecap:butt;stroke-linejoin:miter;stroke-opacity:1"
       d="m 83.34073,33.718339 c 1.039752,0.598881 1.049872,2.290486 1.049872,2.290486 l 2.788852,0.145594 c -0.02678,1.266288 3.314106,2.544453 3.998181,0.597513 l 3.890368,0.518106 c -1.277873,6.116329 0.792297,8.868029 0.792297,8.868029 -3.213028,13.275159 -4.076689,11.562493 -1.804643,11.759516 2.254781,0.195532 -3.099924,0.871854 -1.548393,8.655505 -3.715354,5.237825 -21.32154,-2.946375 -25.027543,-6.053446 3.078308,-5.081699 6.381896,-4.092352 6.77465,-8.350686 2.565829,1.025279 4.320192,-2.112745 4.320192,-2.112745 0,0 0.688524,-12.459867 4.766158,-16.317869 z"
       id="path5915-6"
       inkscape:connector-curvature="0"
       sodipodi:nodetypes="ccccccscccccc" />
    <g
       id="g1055"
       transform="matrix(0.95704905,0,0,1.2569911,4.3015233,-21.102272)">
      <path
         sodipodi:nodetypes="cccccccccccc"
         inkscape:connector-curvature="0"
         id="path5915"
         d="m 33.625741,63.024327 c -1.684887,-0.327482 -5.541474,-1.89945 -5.541474,-1.89945 l 0.863971,-0.438257 c -3.152,-0.564606 -10.478599,-4.856384 -10.478599,-4.856384 0,0 0.409012,-0.340923 0.795364,-0.768709 -1.065476,-0.173002 -2.239399,-0.712576 -2.239399,-0.712576 0,0 -2.144254,-0.159557 -2.154131,-1.577255 -4.239268,4.81334 -9.2860104,20.080036 -7.922908,22.521737 5.758911,-5.6492 6.611946,-5.178306 11.737206,-3.680403 -0.876397,-0.617481 4.104241,-2.950048 4.104241,-2.950048 0,0 1.026402,-2.496432 10.835753,-5.638655 z"
         style="display:inline;opacity:1;fill:#62605d;fill-opacity:1;stroke:none;stroke-width:0.11053305px;stroke-linecap:butt;stroke-linejoin:miter;stroke-opacity:1" />
      <path
         sodipodi:nodetypes="ccccccsccccc"
         inkscape:connector-curvature="0"
         id="path5915-6-7-5"
         d="m 32.115324,74.43284 c 0.158104,-0.32506 -0.23609,-0.712875 -0.23609,-0.712875 l 0.766983,-0.538577 c -0.304955,-0.284084 0.354734,-1.181127 1.008291,-0.860845 l 0.995957,-0.823194 c -1.802892,-1.164027 -1.854157,-2.16703 -1.854157,-2.16703 -4.039339,-2.446824 -3.885395,-1.899533 -3.278956,-2.356206 0.601831,-0.453203 0,0 -1.381498,-2.057184 -3.582702,1.127534 -5.93595,2.349042 -9.821537,5.654208 2.077229,0.601696 5.751743,0.402375 6.86421,1.302848 0.496403,-0.698894 1.737026,-0.300785 1.737026,-0.300785 0,0 3.122737,2.718262 5.199776,2.859651 z"
         style="display:inline;opacity:1;fill:#62605d;fill-opacity:1;stroke:none;stroke-width:0.0578009px;stroke-linecap:butt;stroke-linejoin:miter;stroke-opacity:1" />
      <path
         sodipodi:nodetypes="cccccccccccc"
         inkscape:connector-curvature="0"
         id="path5915-0"
         d="m 2.9271979,49.045373 c 1.0961244,1.320833 -0.8204052,5.802399 -0.8204052,5.802399 L 1.1606789,54.639484 c 2.081003,2.433785 2.6330787,8.067131 2.6330787,8.067131 0,0 -0.532445,0.0046 -1.1023905,0.09085 0.7147555,0.808884 1.2811755,1.970092 1.2811755,1.970092 0,0 1.557927,1.481942 0.667387,2.585075 6.3294204,-1.038305 14.3578624,-6.707348 14.8501664,-9.46009 -3.932263,-0.283638 -3.499457,-0.989034 -6.318964,-7.604728 0.286865,1.032987 -2.877392,-0.452589 -2.877392,-0.452589 0,0 2.213709,2.9937 -7.3665599,-0.789865 z"
         style="display:inline;opacity:1;fill:#62605d;fill-opacity:1;stroke:none;stroke-width:0.11053305px;stroke-linecap:butt;stroke-linejoin:miter;stroke-opacity:1" />
      <path
         sodipodi:nodetypes="cccccccccccc"
         inkscape:connector-curvature="0"
         id="path5915-0-9"
         d="m 5.5014191,81.401281 c 0.994306,-1.399087 4.019125,-4.261746 4.019125,-4.261746 l 0.042176,0.967852 c 1.8163559,-2.637183 8.7515969,-7.53625 8.7515969,-7.53625 0,0 0.141452,0.513332 0.371454,1.041893 0.597728,-0.898827 1.574086,-1.744972 1.574086,-1.744972 0,0 -1.160816,-5.448758 0.134322,-4.87206 -2.632007,-5.849118 -9.792048,-8.326763 -12.5787753,-8.094165 0.073916,9.366072 -4.2629221,7.671909 -5.3411062,11.231197 0.9243884,-0.54301 2.3687212,1.070957 2.3687212,1.070957 0,0 1.8493935,1.966066 0.6583924,12.197315 z"
         style="display:inline;opacity:1;fill:#62605d;fill-opacity:1;stroke:none;stroke-width:0.11053305px;stroke-linecap:butt;stroke-linejoin:miter;stroke-opacity:1" />
    </g>
    <path
       style="display:inline;opacity:1;fill:#605a51;fill-opacity:1;stroke:none;stroke-width:0.1272171px;stroke-linecap:butt;stroke-linejoin:miter;stroke-opacity:1"
       d="m 77.165289,16.707671 c -0.596963,2.145651 -2.767938,6.875121 -2.767938,6.875121 l -0.287465,-1.234037 c -1.069759,4.024579 -6.472287,12.722145 -6.47229,12.722145 0,0 -0.266788,-0.613335 -0.622128,-1.216293 -0.344136,1.364373 -1.065129,2.790159 -1.065129,2.790159 0,0 -0.272772,-0.320056 -0.360406,-0.809247 -0.759303,1.575831 -1.251155,2.954607 -1.938252,4.281761 -4.744097,4.172333 -9.195344,8.236303 -9.196247,8.237132 1.637093,-0.04093 4.207395,1.232553 3.180902,2.420217 l 1.428215,3.54994 -1.884086,2.76973 0.69775,2.456246 c 2.614325,1.697534 2.489764,0.17045 8.189044,-0.441996 l 4.815598,1.277591 c 1.059019,-0.299503 8.279176,-2.328681 9.491761,-2.233098 l 1.956488,1.544297 c 3.408224,-1.02056 4.614484,1.474392 4.614484,1.474392 0,0 3.817402,-9.349574 -1.194916,-18.830496 -1.164484,-5.23736 -1.831602,-7.161886 -3.448529,-11.391859 -0.748181,1.017415 -1.394964,1.265762 -1.394964,1.265762 0,0 -2.27553,-1.901618 -3.741892,-15.507467 z"
       id="path5915-3"
       inkscape:connector-curvature="0" />
    <path
       style="display:inline;opacity:1;fill:#62605d;fill-opacity:1;stroke:none;stroke-width:0.08474663px;stroke-linecap:butt;stroke-linejoin:miter;stroke-opacity:1"
       d="m 68.942411,56.542884 -0.53565,2.022255 c 0.299576,0.555395 -1.590524,1.185669 -2.339502,0.54341 l -1.044616,2.453022 c 1.962165,2.304491 1.075664,3.270796 1.075664,3.270796 4.455896,4.857076 4.454361,3.809706 3.479967,4.645532 -0.966994,0.829472 0.336586,-0.289814 1.408239,3.689109 2.856248,0.646348 8.10111,-0.142565 9.542761,1.087671 0.810843,-1.133943 2.510614,-0.68832 2.510614,-0.68832 0,0 4.017579,3.744603 6.94363,3.687208 0.273851,-0.517822 -0.226125,-1.058987 -0.226125,-1.058987 l 1.170367,-0.924366 c -0.389549,-0.394165 0.683103,-1.852874 1.561826,-1.449268 l 1.5388,-1.389378 c -2.381339,-1.542255 -2.301345,-3.06919 -2.301345,-3.06919 -5.359847,-3.208993 -5.225041,-2.392663 -4.294914,-3.170761 0.92306,-0.772181 -2.8e-5,-2.5e-5 -1.647389,-2.963357 -2.5348,-1.25073 -7.48701,-1.062941 -8.630212,-2.830987 -0.918084,1.301583 -2.417593,0.480676 -2.41759,0.480672 0,0 -0.575894,-4.069654 -3.281054,-4.446132 z"
       id="path5915-6-7"
       inkscape:connector-curvature="0" />
    <path
       style="display:inline;opacity:1;fill:#62605d;fill-opacity:1;stroke:none;stroke-width:0.11587471px;stroke-linecap:butt;stroke-linejoin:miter;stroke-opacity:1"
       d="m 41.53499,55.489212 3.027259,-0.538138 c 0.387239,-0.626694 3.044183,1.053007 2.996658,2.209288 l 4.064746,-0.229427 c 0.891683,-3.371329 2.965209,-2.952452 2.965209,-2.952452 1.560841,-7.449031 0.270347,-6.871243 2.270312,-6.286357 1.98477,0.580442 -0.6922,-0.201434 3.150535,-3.539118 -2.042822,-3.417766 -8.231318,-8.606881 -8.147241,-10.829229 -2.205091,-0.24555 -3.345566,-2.313026 -3.345566,-2.313026 0,0 0.624356,-6.367151 -2.356006,-9.472636 -0.911086,-0.0088 -1.081501,0.824966 -1.081501,0.824966 l -2.304062,-0.746267 c -0.09888,0.634465 -2.964935,0.286873 -3.340822,-0.877235 l -3.244045,-0.885489 c 0.465413,3.401435 -1.497742,4.155616 -1.497742,4.155616 1.371069,7.511584 2.244035,6.918006 0.3593,6.348825 -1.870413,-0.564853 -5e-6,4.3e-5 -2.017454,3.396287 0.977628,3.4056 6.133583,8.611629 5.089303,10.809849 2.518525,0.268306 2.996923,2.327518 2.996914,2.327516 0,0 -4.447624,2.856083 -2.222126,5.963416 z"
       id="path5915-6-7-6"
       inkscape:connector-curvature="0" />
  </g>
</svg>
