<?xml version="1.0" encoding="UTF-8" standalone="no"?>
<!-- Created with Inkscape (http://www.inkscape.org/) -->

<svg
   xmlns:dc="http://purl.org/dc/elements/1.1/"
   xmlns:cc="http://creativecommons.org/ns#"
   xmlns:rdf="http://www.w3.org/1999/02/22-rdf-syntax-ns#"
   xmlns:svg="http://www.w3.org/2000/svg"
   xmlns="http://www.w3.org/2000/svg"
   xmlns:xlink="http://www.w3.org/1999/xlink"
   xmlns:sodipodi="http://sodipodi.sourceforge.net/DTD/sodipodi-0.dtd"
   xmlns:inkscape="http://www.inkscape.org/namespaces/inkscape"
   width="400"
   height="400"
   viewBox="0 0 105.83334 105.83333"
   version="1.1"
   id="svg8"
   inkscape:version="0.92.4 5da689c313, 2019-01-14"
   sodipodi:docname="grotte.svg">
  <defs
     id="defs2">
    <linearGradient
       inkscape:collect="always"
       id="linearGradient4569">
      <stop
         style="stop-color:#908b85;stop-opacity:0"
         offset="0"
         id="stop4565" />
      <stop
         id="stop1085"
         offset="0.5033288"
         style="stop-color:#8c7f5f;stop-opacity:1" />
      <stop
         style="stop-color:#000000;stop-opacity:1"
         offset="1"
         id="stop4567" />
    </linearGradient>
    <linearGradient
       inkscape:collect="always"
       xlink:href="#linearGradient4569"
       id="linearGradient4571"
       x1="67.676315"
       y1="125.9101"
       x2="68.513794"
       y2="84.666199"
       gradientUnits="userSpaceOnUse" />
    <filter
       inkscape:collect="always"
       style="color-interpolation-filters:sRGB"
       id="filter1515"
       x="-0.10913922"
       width="1.2182784"
       y="-0.10228312"
       height="1.2045662">
      <feGaussianBlur
         inkscape:collect="always"
         stdDeviation="4.799527"
         id="feGaussianBlur1517" />
    </filter>
  </defs>
  <sodipodi:namedview
     id="base"
     pagecolor="#ffffff"
     bordercolor="#666666"
     borderopacity="1.0"
     inkscape:pageopacity="0.0"
     inkscape:pageshadow="2"
     inkscape:zoom="1.4"
     inkscape:cx="23.226436"
     inkscape:cy="78.925184"
     inkscape:document-units="mm"
     inkscape:current-layer="layer3"
     showgrid="false"
     units="px"
     inkscape:window-width="956"
     inkscape:window-height="1057"
     inkscape:window-x="960"
     inkscape:window-y="0"
     inkscape:window-maximized="0" />
  <metadata
     id="metadata5">
    <rdf:RDF>
      <cc:Work
         rdf:about="">
        <dc:format>image/svg+xml</dc:format>
        <dc:type
           rdf:resource="http://purl.org/dc/dcmitype/StillImage" />
        <dc:title />
      </cc:Work>
    </rdf:RDF>
  </metadata>
  <g
     inkscape:groupmode="layer"
     id="layer3"
     inkscape:label="Layer 3"
     style="display:inline;opacity:1">
    <path
       style="opacity:1;fill:url(#linearGradient4571);fill-opacity:1;stroke:#d5a46a;stroke-width:0.26458332;stroke-linecap:butt;stroke-linejoin:miter;stroke-miterlimit:4;stroke-dasharray:0.26458332, 12.69999924000000036;stroke-dashoffset:2.64583325;stroke-opacity:0;filter:url(#filter1515)"
       d="M 19.083485,125.90053 C 14.257624,115.10554 40.651823,14.006393 62.300658,30.844374 178.23825,75.126565 111.87185,181.39184 19.083485,125.90053 Z"
       id="path4563"
       inkscape:connector-curvature="0"
       transform="matrix(0.64703796,0,0,0.64703796,9.3793669,8.9426614)"
       sodipodi:nodetypes="ccc"
       inkscape:transform-center-x="2.7531953"
       inkscape:transform-center-y="-0.18354565" />
  </g>
  <g
     inkscape:groupmode="layer"
     id="layer5"
     inkscape:label="Layer 5"
     style="display:inline;opacity:1">
    <path
       style="opacity:1;fill:#756656;fill-opacity:1;stroke:none;stroke-width:0.12254102px;stroke-linecap:butt;stroke-linejoin:miter;stroke-opacity:1"
       d="m 27.741382,69.094632 c -5.366895,-1.117204 -16.94328,9.3122 -17.203715,12.753525 -0.260429,3.441324 0.550848,7.783098 9.437941,8.315753 8.887105,0.532648 12.347032,-7.354897 13.60125,-11.219423 1.254218,-3.864526 -0.468579,-8.732654 -5.835476,-9.849855 z"
       id="path5624-6-2"
       inkscape:connector-curvature="0"
       sodipodi:nodetypes="zzzzz" />
    <path
       style="opacity:1;fill:#957c60;fill-opacity:1;stroke:none;stroke-width:0.10624003px;stroke-linecap:butt;stroke-linejoin:miter;stroke-opacity:1"
       d="M 49.690257,28.900142 C 54.55005,27.42284 56.254529,16.247149 54.100488,14.000375 51.946441,11.753607 48.358835,9.3803504 41.212113,12.646337 c -7.146725,3.265994 -4.394654,9.574541 -2.709714,12.486925 1.684941,2.912385 6.328067,5.244183 11.187858,3.76688 z"
       id="path5624-0-1"
       inkscape:connector-curvature="0"
       sodipodi:nodetypes="zzzzz" />
    <path
       style="opacity:1;fill:#75644f;fill-opacity:1;stroke:none;stroke-width:0.06931382px;stroke-linecap:butt;stroke-linejoin:miter;stroke-opacity:1"
       d="m 89.268372,25.944612 c -2.360306,-1.954237 -9.826794,1.204313 -10.588025,3.117044 -0.761226,1.912732 -1.176443,4.604724 2.975721,7.084191 4.152169,2.479466 7.26629,-1.204312 8.58114,-3.117044 1.314856,-1.912732 1.391469,-5.129953 -0.968836,-7.084191 z"
       id="path5624-7"
       inkscape:connector-curvature="0"
       sodipodi:nodetypes="zzzzz" />
    <path
       style="opacity:1;fill:#756656;fill-opacity:1;stroke:none;stroke-width:0.05673292px;stroke-linecap:butt;stroke-linejoin:miter;stroke-opacity:1"
       d="m 11.610347,50.954541 c 2.215957,1.174837 7.676518,-2.595242 7.969386,-4.254582 0.292865,-1.659339 0.179144,-3.885871 -3.560127,-5.184468 -3.739276,-1.298597 -5.624248,2.17053 -6.3608503,3.9217 -0.736602,1.751168 -0.2643663,4.342513 1.9515913,5.51735 z"
       id="path5624-6"
       inkscape:connector-curvature="0"
       sodipodi:nodetypes="zzzzz" />
    <path
       style="opacity:1;fill:#7b776a;fill-opacity:1;stroke:none;stroke-width:0.08475213px;stroke-linecap:butt;stroke-linejoin:miter;stroke-opacity:1"
       d="M 64.49893,8.3991799 C 61.612913,6.0096735 52.483406,9.8717304 51.552626,12.210485 c -0.930773,2.338755 -1.438472,5.630337 3.638503,8.662058 5.076983,3.031719 8.884721,-1.47255 10.492428,-3.811306 1.607709,-2.338755 1.701388,-6.272551 -1.184627,-8.6620571 z"
       id="path5624"
       inkscape:connector-curvature="0"
       sodipodi:nodetypes="zzzzz" />
    <path
       style="opacity:1;fill:#7b776a;fill-opacity:1;stroke:none;stroke-width:0.16131841px;stroke-linecap:butt;stroke-linejoin:miter;stroke-opacity:1"
       d="m 95.281556,34.311328 c -5.012722,-4.98425 -20.869778,3.071576 -22.486453,7.949965 -1.616659,4.878387 -2.498483,11.744266 6.319723,18.068104 8.818205,6.323838 14.108957,0.330204 16.901393,-4.548182 2.792434,-4.878387 4.278051,-16.485639 -0.734663,-21.469887 z"
       id="path5624-06"
       inkscape:connector-curvature="0"
       sodipodi:nodetypes="zzzzz" />
    <path
       style="opacity:1;fill:#95826c;fill-opacity:1;stroke:none;stroke-width:0.13952784px;stroke-linecap:butt;stroke-linejoin:miter;stroke-opacity:1"
       d="m 26.716795,70.83191 c 6.16857,-1.630347 9.549873,-17.006291 7.147291,-20.314155 -2.402601,-3.307861 -6.560568,-6.915822 -15.756894,-2.999326 -9.1963239,3.916505 -6.519547,12.91838 -4.77216,17.110113 1.747387,4.191743 7.213206,7.833716 13.381763,6.203368 z"
       id="path5624-9-2"
       inkscape:connector-curvature="0"
       sodipodi:nodetypes="zzzzz" />
    <path
       style="opacity:1;fill:#82776a;fill-opacity:1;stroke:none;stroke-width:0.13998985px;stroke-linecap:butt;stroke-linejoin:miter;stroke-opacity:1"
       d="m 93.997107,58.978852 c 5.37517,2.095766 5.820207,19.562002 2.582545,22.854502 -3.237669,3.292494 -8.226641,6.784808 -15.808978,2.111907 -7.582367,-4.672896 -2.432538,-13.881361 0.440411,-18.137076 2.872954,-4.255727 7.410851,-8.925096 12.786022,-6.829333 z"
       id="path5624-3-6"
       inkscape:connector-curvature="0"
       sodipodi:nodetypes="zzzzz" />
    <path
       style="opacity:1;fill:#62605d;fill-opacity:1;stroke:none;stroke-width:0.17524785px;stroke-linecap:butt;stroke-linejoin:miter;stroke-opacity:1"
       d="m 16.093823,43.409413 c 1.945667,6.936778 22.214083,6.765785 26.684077,2.9822 4.469981,-3.783589 9.399333,-9.750777 4.528493,-19.684708 -4.870849,-9.933938 -16.900062,-4.259923 -22.51903,-1.018146 -5.618969,3.241776 -10.639212,10.783872 -8.69354,17.720654 z"
       id="path5624-3-9"
       inkscape:connector-curvature="0"
       sodipodi:nodetypes="zzzzz" />
    <path
       style="opacity:1;fill:#6f6b60;fill-opacity:1;stroke:none;stroke-width:0.18129547px;stroke-linecap:butt;stroke-linejoin:miter;stroke-opacity:1"
       d="m 78.694913,17.798669 c -6.696627,-4.712195 -27.880476,2.903922 -30.040232,7.516036 -2.15974,4.61211 -3.337791,11.103231 8.44268,17.081897 11.780488,5.978666 20.615851,-2.903921 24.346332,-7.516034 3.730482,-4.612113 3.94785,-12.369702 -2.74878,-17.081899 z"
       id="path5624-8"
       inkscape:connector-curvature="0"
       sodipodi:nodetypes="zzzzz" />
    <path
       style="opacity:1;fill:#957c60;fill-opacity:1;stroke:none;stroke-width:0.09279325px;stroke-linecap:butt;stroke-linejoin:miter;stroke-opacity:1"
       d="m 9.8468075,79.060111 c 4.0031875,2.122854 12.4634635,-3.260929 12.6101915,-5.87033 0.146718,-2.609399 -0.51516,-6.168316 -7.126161,-8.661365 -6.6110112,-2.493046 -9.0747331,2.817728 -9.9541572,5.522956 -0.8794253,2.705227 0.4669373,6.885884 4.4701267,9.008739 z"
       id="path5624-0"
       inkscape:connector-curvature="0"
       sodipodi:nodetypes="zzzzz" />
  </g>
</svg>
