<?xml version="1.0" encoding="UTF-8" standalone="no"?>
<!-- Created with Inkscape (http://www.inkscape.org/) -->

<svg
   xmlns:dc="http://purl.org/dc/elements/1.1/"
   xmlns:cc="http://creativecommons.org/ns#"
   xmlns:rdf="http://www.w3.org/1999/02/22-rdf-syntax-ns#"
   xmlns:svg="http://www.w3.org/2000/svg"
   xmlns="http://www.w3.org/2000/svg"
   xmlns:sodipodi="http://sodipodi.sourceforge.net/DTD/sodipodi-0.dtd"
   xmlns:inkscape="http://www.inkscape.org/namespaces/inkscape"
   width="400"
   height="400"
   viewBox="0 0 105.83334 105.83333"
   version="1.1"
   id="svg8"
   inkscape:version="0.92.4 5da689c313, 2019-01-14"
   sodipodi:docname="volcan.svg">
  <defs
     id="defs2" />
  <sodipodi:namedview
     id="base"
     pagecolor="#ffffff"
     bordercolor="#666666"
     borderopacity="1.0"
     inkscape:pageopacity="0.0"
     inkscape:pageshadow="2"
     inkscape:zoom="0.70000001"
     inkscape:cx="23.558615"
     inkscape:cy="28.139146"
     inkscape:document-units="mm"
     inkscape:current-layer="layer2"
     showgrid="false"
     units="px"
     inkscape:window-width="956"
     inkscape:window-height="1057"
     inkscape:window-x="960"
     inkscape:window-y="0"
     inkscape:window-maximized="0" />
  <metadata
     id="metadata5">
    <rdf:RDF>
      <cc:Work
         rdf:about="">
        <dc:format>image/svg+xml</dc:format>
        <dc:type
           rdf:resource="http://purl.org/dc/dcmitype/StillImage" />
        <dc:title />
      </cc:Work>
    </rdf:RDF>
  </metadata>
  <g
     inkscape:groupmode="layer"
     id="layer2"
     inkscape:label="Layer 2">
    <path
       style="display:inline;opacity:1;fill:#45423d;fill-opacity:1;stroke:none;stroke-width:0.26458332px;stroke-linecap:butt;stroke-linejoin:miter;stroke-opacity:1"
       d="m 41.023106,32.50864 c 1.55118,1.088754 3.121347,0.451667 3.788566,-1.013058 l 4.041052,0.06314 3.147521,-0.905431 c 2.650916,0.787962 2.746433,-0.08258 5.547638,-0.417724 l 2.33881,1.003131 c 0.618371,0.887944 1.920725,-1.665415 4.049493,0.659755 l 4.404088,0.614888 c 1.526873,2.432312 2.588717,3.875377 2.588717,3.875377 0,0 2.098025,28.550295 -37.994481,33.292525 C 29.332956,55.183211 41.023106,32.50865 41.023106,32.50865 Z"
       id="path5917-3"
       inkscape:connector-curvature="0"
       sodipodi:nodetypes="cccccccccccc" />
    <path
       style="display:inline;opacity:1;fill:#eb7a3d;fill-opacity:1;stroke:none;stroke-width:0.26458332px;stroke-linecap:butt;stroke-linejoin:miter;stroke-opacity:1"
       d="m 41.38472,37.537856 c 0.85028,-0.237137 1.753372,-0.362059 2.55134,-0.566957 1.196924,0 2.393852,0 3.590776,0 0.819608,-0.325634 1.72511,-0.211563 2.55134,-0.566973 1.098135,0.128662 2.105777,-0.318288 3.165065,-0.481278 0.834644,0.01758 1.669892,0.0048 2.504578,0.0088 0.753898,0.480918 1.531011,0.887364 2.409052,1.111831 1.099151,0.346207 2.261098,0.166946 3.396689,0.211079 0.71124,0.126498 1.517224,0.0025 2.135654,0.370006 0.813207,0.516898 1.620639,0.75732 2.547442,0.952906 0.551072,0.522931 2.054582,0.05387 1.795383,1.039438 0.193824,0.373074 0.05105,0.882823 0.09449,1.317975 0.02658,0.665374 0.05051,1.519969 -0.755943,1.705835 -0.817605,0.222946 -0.83226,0.659115 -1.511885,0.755939 -0.404307,0.0429 -0.648732,0.445185 -1.228415,0.472461 -0.797084,0.417103 -1.720051,0.639776 -2.64789,0.891889 -1.116478,0.361888 -2.218803,0.8132 -3.399721,0.99798 -0.757944,0.134148 -1.482198,0.383858 -2.26292,0.37797 -0.511188,0.0079 -1.035899,-0.04151 -1.516841,0.0945 -0.720375,0.149422 -1.457954,0.220429 -2.219904,0.18898 -1.035084,0.01168 -2.076201,0.02415 -3.071765,-0.283479 -0.729922,0.07049 -1.545563,-0.297199 -2.40973,-0.424358 -0.790199,-0.09545 -1.542666,-0.323563 -2.363147,-0.469203 -0.997328,-0.203035 -1.078415,-0.529237 -1.945984,-0.707924 -0.483206,-0.488814 -1.321943,-0.49725 -1.502113,-1.327798 -0.412176,-0.59874 -0.983705,-1.141631 -1.370161,-1.653644 -0.391703,-0.455872 -0.18157,-1.153258 -0.240205,-1.748618 0.184754,-0.419999 0.05472,-0.977891 0.381937,-1.038944 0.391758,-0.458103 0.792998,-0.924586 1.32288,-1.228422 z"
       id="path875"
       inkscape:connector-curvature="0" />
    <path
       style="display:inline;opacity:1;fill:#8e867a;fill-opacity:1;stroke:none;stroke-width:0.26458332px;stroke-linecap:butt;stroke-linejoin:miter;stroke-opacity:1"
       d="m 51.761141,41.706431 c 1.55118,1.088754 5.876179,1.897825 6.543397,0.4331 l 6.41446,-1.463574 2.057048,-3.085981 4.152945,-1.201258 c 4.966021,0.551727 2.688302,1.499254 7.426635,5.605311 l 6.536841,2.261196 c 0.618371,0.887944 4.852583,6.933067 6.179542,7.654619 l 4.103002,0.22881 c 1.910046,2.895875 6.617119,1.997963 6.617119,1.997963 0,0 2.86033,24.534348 -62.890051,20.189416 C 35.300523,59.828001 51.761141,41.706431 51.761141,41.706431 Z"
       id="path5917"
       inkscape:connector-curvature="0"
       sodipodi:nodetypes="cccccccccccc" />
    <path
       style="display:inline;opacity:1;fill:#62605d;fill-opacity:1;stroke:none;stroke-width:0.20908968px;stroke-linecap:butt;stroke-linejoin:miter;stroke-opacity:1"
       d="m 41.023106,32.50864 c 0.817816,1.139176 0.02891,3.071689 0.02891,3.071689 l 2.884043,1.39057 c -0.626936,1.431542 2.306232,4.355418 3.95085,2.436698 l 3.874231,2.298834 c -4.244205,6.410211 -3.353023,10.455616 -3.353023,10.455616 -9.677122,13.720039 -9.781992,11.388702 -7.469473,12.610956 2.294951,1.212966 0,0 -2.036566,9.55303 C 26.878539,73.360102 18.479308,70.810199 3.2669217,61.46874 8.928361,57.028389 20.261517,54.206914 22.690278,49.525764 c 2.232062,2.295294 5.572931,-0.511036 5.572931,-0.511036 0,0 6.618785,-13.899319 12.759897,-16.506088 z"
       id="path5915"
       inkscape:connector-curvature="0"
       sodipodi:nodetypes="ccccccsccccc" />
  </g>
</svg>
