<svg height="512" viewBox="0 0 60 60" width="512" xmlns="http://www.w3.org/2000/svg"><g id="041---Forging" fill="none"><g id="Icons" transform="translate(1 1)"><path id="Shape" d="m14 33c-9 0-13-1-13.965-6.711-.07577087-.3029589-.01111462-.623932.17604237-.8739272.187157-.2499952.4769227-.4024417.78895763-.4150728h13z" fill="#545c60"/><path id="Shape" d="m51 52h-30c3.01-6.64 3.62-10.36 1.15-17h27.7c-2.47 6.64-1.86 10.36 1.15 17z" fill="#37474f"/><path id="Shape" d="m48 52h-27c3.01-6.64 3.62-10.36 1.15-17h24.7c-2.47 6.64-1.86 10.36 1.15 17z" fill="#607d8b"/><path id="Shape" d="m58 10v3c-.0014816.5386949-.2195652 1.0541564-.6051548 1.4303414-.3855895.3761849-.9062779.5814765-1.4448452.5696586-1.594-.038-31.4-.776-36-.9-1.0849951-.0271333-1.9503392-.9146657-1.95-2v-1.2c-.0003392-1.08533429.8650049-1.97286669 1.95-2 5.43-.147 31.333-.781 36-.9.5390423-.0134803 1.0606904.19126723 1.4466478.567811s.6035207.89297822.6033522 1.432189z" fill="#f57c00"/><path id="Shape" d="m55 10v3c.0003412.9227928-.6325387 1.7252679-1.53 1.94-3.441-.084-28.524-.7-33.52-.84-1.0849951-.0271333-1.9503392-.9146657-1.95-2v-1.2c-.0003392-1.08533429.8650049-1.97286669 1.95-2 5.542-.15 24.566-.617 33.53-.84.8912151.22217528 1.5174996 1.02151215 1.52 1.94z" fill="#ff9801"/><rect id="Rectangle-path" fill="#545c60" height="6" rx="1" width="44" x="14" y="52"/><rect id="Rectangle-path" fill="#545c60" height="12" rx="1" width="44" x="14" y="23"/><rect id="Rectangle-path" fill="#7f8e94" height="6" rx="1" width="41" x="14" y="52"/><rect id="Rectangle-path" fill="#7f8e94" height="12" rx="1" width="41" x="14" y="23"/><rect id="Rectangle-path" fill="#624421" height="23" rx="3" width="14" x="23"/><rect id="Rectangle-path" fill="#825a2c" height="23" rx="3" width="11" x="23"/></g><g id="Outline" fill="#000"><path id="Shape" d="m56.925 8-17.925.444v-4.444c0-2.209139-1.790861-4-4-4h-8c-2.209139 0-4 1.790861-4 4v4.846l-2.077.054c-1.6294649.03544051-2.9299309 1.3701644-2.923 3v1.2c-.0069208 1.6302164 1.2941426 2.9650968 2.924 3l2.076.054c0 5.1-.17 5.6.556 6.846h-7.556c-1.1045695 0-2 .8954305-2 2h-12c-.60668873.0115345-1.17654555.2933375-1.55397938.7684669-.37743384.4751294-.52302451 1.0939615-.39702062 1.6875331 1.133 6.706 6.469 7.485 13.951 7.539.0043629 1.1035708.8964435 1.9978817 2 2.005h6.446c2.03 5.807 1.478 9.192-1.1 15h-2.346v-4c0-.5522847-.4477153-1-1-1s-1 .4477153-1 1v4h-1c-1.1045695 0-2 .8954305-2 2v4c0 1.1045695.8954305 2 2 2h42c1.1045695 0 2-.8954305 2-2v-4c0-1.1045695-.8954305-2-2-2h-1v-4c0-.5522847-.4477153-1-1-1s-1 .4477153-1 1v4h-2.349c-2.575-5.808-3.127-9.193-1.1-15h6.449c1.1045695 0 2-.8954305 2-2v-10c0-1.1045695-.8954305-2-2-2h-19.556c.715-1.227.556-1.748.556-6.444 24.09.6 16.481.445 18.006.445 1.6549011-.0033097 2.9945549-1.3460957 2.994-3.001v-3c.0002528-.8088162-.3260923-1.58346784-.9050283-2.1482835-.578936-.56481565-1.3614083-.87193694-2.1699717-.8517165zm-35.947 6.1c-.5436745-.0119637-.9781316-.4561939-.978-1v-1.2c-.0001438-.543426.4337178-.9875012.977-1l2.023-.053v3.306zm-18.957 13.022c-.011-.066 0-.112-.008-.122h11.987v5.991c-8.695-.091-11.219-1.37-11.979-5.869zm55.979 30.878h-42v-4h42zm-7.534-6h-26.933c2.272-5.331 2.919-9.175 1.028-15h24.878c-1.891 5.825-1.239 9.669 1.028 15zm7.534-17h-42v-10h42zm-31-12c-1.1045695 0-2-.8954305-2-2v-17c0-1.1045695.8954305-2 2-2h8c1.1045695 0 2 .8954305 2 2v17c0 1.1045695-.8954305 2-2 2zm31-9c.0000843.2696054-.1086974.5278226-.3016761.7160945s-.4538028.2906456-.7233239.2839055l-.975-.024v-1.976c0-.5522847-.4477153-1-1-1s-1 .4477153-1 1v1.926l-2-.049v-1.877c0-.5522847-.4477153-1-1-1s-1 .4477153-1 1v1.827l-11-.273v-4.108l17.977-.446c.2691788-.00619276.5294817.0964238.7220224.2846356.1925406.1882118.3010488.4461144.3009776.7153644z"/><path id="Shape" d="m15 0c-.5522847 0-1 .44771525-1 1v11c0 .5522847.4477153 1 1 1s1-.4477153 1-1v-11c0-.55228475-.4477153-1-1-1z"/><path id="Shape" d="m7 16h5c.5522847 0 1-.4477153 1-1s-.4477153-1-1-1h-5c-.55228475 0-1 .4477153-1 1s.44771525 1 1 1z"/><path id="Shape" d="m6.293 6.293c-.39038194.39049985-.39038194 1.02350015 0 1.414l4 4c.3923789.3789722 1.0160848.3735524 1.4018186-.0121814s.3911536-1.0094397.0121814-1.4018186l-4-4c-.39049985-.39038194-1.02350015-.39038194-1.414 0z"/><path id="Shape" d="m1.293 1.293c-.39038194.39049985-.39038194 1.02350015 0 1.414l2 2c.39237889.37897221 1.01608478.37355237 1.40181858-.01218142.38573379-.3857338.39115363-1.00943969.01218142-1.40181858l-2-2c-.39049985-.39038194-1.02350015-.39038194-1.414 0z"/><path id="Shape" d="m1 16h2c.55228475 0 1-.4477153 1-1s-.44771525-1-1-1h-2c-.55228475 0-1 .4477153-1 1s.44771525 1 1 1z"/><path id="Shape" d="m21 27h-2c-.5522847 0-1 .4477153-1 1s.4477153 1 1 1h2c.5522847 0 1-.4477153 1-1s-.4477153-1-1-1z"/><path id="Shape" d="m24 28c0 .5522847.4477153 1 1 1h25c.5522847 0 1-.4477153 1-1s-.4477153-1-1-1h-25c-.5522847 0-1 .4477153-1 1z"/></g></g></svg>