<svg height="512" viewBox="0 0 56 60" width="512" xmlns="http://www.w3.org/2000/svg"><g id="Page-1" fill="none" fill-rule="evenodd"><g id="001---Leather-Tag" fill-rule="nonzero"><path id="Shape" d="m28 59c6.028-7.75 17.988-3.636 21.194-2.343.4678181.1855489 1.000641-.0054792 1.244-.446l4.072-7.329c.2613576-.4745414.0973015-1.0709075-.37-1.345-3.694-2.137-7.14-6.255-7.14-15.537 0-8.245 5.439-14.451 7.348-16.375.3601216-.36649.3839-.9462503.055-1.341l-4.05-4.861c-.2231377-.26167556-.5643844-.39138699-.905-.344-10.481 1.371-13.542-5.231-14.259-7.405-.1364418-.4051329-.5175185-.67692723-.945-.674h-12.488c-.4274815-.00292723-.8085582.2688671-.945.674-.717 2.174-3.778 8.776-14.259 7.405-.33895119-.04560591-.6778809.08394056-.9.344l-4.052 4.861c-.32889997.3947497-.30512158.97451.055 1.341 1.906 1.924 7.345 8.13 7.345 16.375 0 9.282-3.446 13.4-7.14 15.537-.46730151.2740925-.63135761.8704586-.37 1.345l4.072 7.329c.24335904.4405208.77618186.6315489 1.244.446 3.206-1.293 15.166-5.407 21.194 2.343z" fill="#a0522d"/><path id="Shape" d="m32.189 1.674c.688 2.087 3.559 8.239 13.066 7.511-7.131-.623-9.455-5.662-10.066-7.511-.1364418-.4051329-.5175185-.67692723-.945-.674l-3-.00002341c.4274815-.00290382.8085582.26889051.945.67402341z" fill="#783e22"/><path id="Shape" d="m54.14 47.537c-3.694-2.137-7.14-6.255-7.14-15.537 0-8.245 5.439-14.451 7.348-16.375.3601216-.36649.3839-.9462503.055-1.341l-4.05-4.861c-.2231377-.26167556-.5643844-.39138699-.905-.344-.7630745.09714773-1.5308837.15256352-2.3.166.0746218.04974151.1419375.10965254.2.178l4.05 4.861c.3289.3947497.3051216.97451-.055 1.341-1.904 1.924-7.343 8.13-7.343 16.375 0 9.282 3.446 13.4 7.14 15.537.4673015.2740925.6313576.8704586.37 1.345l-3.978 7.16c.679.231 1.245.447 1.662.614.4675686.185714 1.0003111-.004857 1.244-.445l4.072-7.329c.2613576-.4745414.0973015-1.0709075-.37-1.345z" fill="#783e22"/><g fill="#ff9801"><path id="Shape" d="m28 54.5c-.2090214-.0003794-.4127555-.0657281-.583-.187-.5064357-.3631457-1.0362501-.6925259-1.586-.986-.3152869-.1680934-.5169472-.4916218-.5290175-.848715-.0120702-.3570932.1672834-.6935003.4705-.8825.3032167-.1889997.6842306-.2018785.9995175-.033785.419.224.83.467 1.228.727.4-.26.809-.5 1.228-.727.3152869-.1680935.6963008-.1552147.9995174.033785.3032167.1889998.4825703.5254069.4705.8825-.0120702.3570932-.2137305.6806215-.5290174.848715-.5497499.2934741-1.0795643.6228543-1.586.986-.1702445.1212719-.3739786.1866206-.583.187z"/><path id="Shape" d="m23.16 52.173c-.0948368.0001089-.1891759-.013705-.28-.041-1.0312575-.2962805-2.0867053-.5007442-3.154-.611-.5492472-.0579899-.9474899-.5502528-.8895-1.0995s.5502528-.9474899 1.0995-.8895c1.1843909.1233177 2.3555962.3508661 3.5.68.4791648.137888.7835411.6076881.7135557 1.1013621-.0699854.4936739-.4929462.8603635-.9915557.8596379zm-10.1-.4c-.5203205-.0019141-.9522293-.4025178-.9932143-.9212251-.0409849-.5187074.322651-.9821699.8362143-1.0657749 1.156398-.186842 2.3227137-.3060446 3.493-.357.3572656-.0146479.6952072.1624158.8865254.4644929.1913183.3020772.2069474.683275.041 1.0000001-.1659473.316725-.4882598.5208591-.8455254.535507-1.0915764.0478093-2.1794287.1593326-3.258.334-.0519744.0075963-.1044818.0109407-.157.01z"/><path id="Shape" d="m7.821 53.041c-.3630356.000015-.6975647-.1967218-.874-.514l-1.523-2.74c-.2333495-.4199416-.13509655-.9464766.234-1.254.48050381-.4011186.93633424-.8309016 1.365-1.287.37861998-.3997514 1.00915528-.4182356 1.41054242-.0413501.40138714.3768854.42260145 1.0073348.04745758 1.4103501-.29266667.312-.59833333.614-.917.906l.737 1.325c.378-.1126667.77166667-.2233333 1.181-.332.34931581-.1031632.7270967-.0082405.9861609.2477867.2590643.2560271.3584352.6326624.2593984.9831704-.0990369.350508-.3808167.6194483-.7355593.7020429-.665.176-1.29.361-1.865.546-.09893631.0315917-.20214249.0477809-.306.048z"/><path id="Shape" d="m10 45.913c-.17598927-.0006003-.34861728-.0482456-.5-.138-.47621135-.2792816-.63601316-.8916313-.357-1.368.59949363-1.0312152 1.0971742-2.1183423 1.486-3.246.1175404-.3374373.4061729-.5865353.7571724-.653461s.7110408.0584884.9445.329c.2334591.2705116.304868.6450237.1873276.982461-.4317251 1.2507602-.9843379 2.4564609-1.65 3.6-.1805059.3077046-.5112638.495947-.868.494zm2.514-7.071c-.0596479-.0000252-.1191891-.0050427-.178-.015-.2611305-.0467623-.4929792-.1953684-.6445177-.4131113-.1515385-.2177428-.2103471-.4867765-.1634823-.7478887.2118186-1.1984487.3504088-2.4086916.415-3.624.036958-.5494793.5069075-.968299 1.057-.942.5510687.0311594.9726855.5029047.942 1.054-.0693035 1.2964434-.2172423 2.5874844-.443 3.866-.0860833.475891-.500386.8219853-.984.822zm.423-7.512c-.5253467.0013633-.9621767-.4040149-1-.928-.0879165-1.201572-.2708212-2.3942981-.547-3.567-.1264732-.5376492.2068508-1.0760268.7445-1.2025s1.0760268.2068508 1.2025.7445c.3000451 1.2756766.4989955 2.5730337.595 3.88.0192637.2645616-.0673765.5259373-.2408546.7266093s-.4195788.3241965-.6841454.3433907zm-1.7-7.317c-.4102993.0000715-.7790098-.2504931-.93-.632-.44953611-1.12697-.97300852-2.2230217-1.567-3.281-.26272829-.4811021-.08916975-1.0840413.3891313-1.3518351s1.0830393-.1006116 1.3558687.3748351c.6372157 1.1357351 1.1987697 2.3122926 1.681 3.522.1223123.3080774.0840181.6567435-.1022444.93093-.1862626.2741865-.4962863.4382592-.8277556.43807z"/><path id="Shape" d="m7.562 17.42c-.31970171.0005102-.62037616-.1518712-.809-.41-.406-.556-.806-1.066-1.188-1.527-.3071709-.3702513-.3071709-.9067487 0-1.277l1.365-1.636c.20472104-.2458812.51473671-.3789575.834-.358.515.035 1.021.052 1.515.052h.4c.5522847-.009665 1.007835.4302153 1.0175.9825s-.4302153 1.007835-.9825 1.0175h-.438c-.372 0-.751-.009-1.134-.027l-.516.618c.24333333.3086667.49.6336667.74.975.2221111.3039546.2546974.7068935.08431582 1.0425895-.17038158.3356961-.5148564.5472587-.89131582.5474105z"/><path id="Shape" d="m14.69 13.531c-.4980319.0009995-.9208891-.3646302-.9918145-.8575869s.231702-.9629673.7098145-1.1024131c1.5131089-.4381224 2.9402885-1.1314205 4.22-2.05.4476268-.32363885 1.0728611-.22312677 1.3965.22450002.3236388.44762678.2231268 1.07286108-.2245 1.39649998-1.4639653 1.0511396-3.0963215 1.8451674-4.827 2.348-.091849.027304-.1871786.041115-.283.041z"/><path id="Shape" d="m22.716 7.715c-.3704903-.00065714-.7102551-.20609761-.8829481-.53387901s-.1500094-.72417933.0589481-1.03012099c.3517263-.51491324.6703687-1.05166195.954-1.607.1711068-.3339509.5147657-.54400759.89-.544h2c.5522847 0 1 .44771525 1 1s-.4477153 1-1 1h-1.4c-.246.44-.511.869-.793 1.28-.1868044.27279877-.4963724.43563079-.827.435z"/><path id="Shape" d="m33.284 7.715c-.330274.00030016-.6393952-.16249369-.826-.435-.282-.411-.547-.84-.793-1.28h-1.4c-.5522847 0-1-.44771525-1-1s.4477153-1 1-1h2c.3752343-.00000759.7188932.2100491.89.544.2836313.55533805.6022737 1.09208676.954 1.607.2089575.30594166.2316411.70233959.0589481 1.03012099s-.5124578.53322187-.8829481.53387901z"/><path id="Shape" d="m41.306 13.531c-.0958693-.0002236-.1911979-.0143713-.283-.042-1.7296068-.5028848-3.3606932-1.2972911-4.823-2.349-.3060926-.2025373-.476633-.5564818-.4442878-.922088.0323451-.36560611.2623771-.68411198.599274-.82976407.336897-.1456521.7265111-.09504054 1.0150138.13185207 1.2793043.9182741 2.7057145 1.6118652 4.218 2.051.4781125.1394458.7807399.6094564.7098145 1.1024131s-.4937826.8585864-.9918145.8575869z"/><path id="Shape" d="m48.438 17.419c-.3761053-.000426-.7201649-.2118462-.8904715-.5471835-.1703066-.3353372-.1380549-.7378733.0834715-1.0418165.25-.342.4966667-.667.74-.975l-.515-.618c-.384.018-.763.027-1.135.027h-.438c-.5522847-.0046944-.9961944-.4562153-.9915-1.0085s.4562153-.9961944 1.0085-.9915h.018.4c.493 0 1-.017 1.514-.052.3193806-.0199733.6292718.1128902.835.358l1.363 1.635c.3077244.3704282.3077244.9075718 0 1.278-.382.461-.782.97-1.188 1.526-.1875833.2567079-.4860609.4089166-.804.41z"/><path id="Shape" d="m45.987 45.892c-.3565418-.0007226-.6857295-.1912247-.864-.5-.6646655-1.1433569-1.2156342-2.3491242-1.645-3.6-.1301311-.340773-.0643847-.7253691.1715579-1.0035622.2359427-.278193.6046459-.4058436.9620915-.3330904.3574455.0727532.6469192.3343668.7553506.6826526.3874154 1.1278795.8837583 2.2153461 1.482 3.247.1808402.3090821.1826051.6912696.004627 1.0020086s-.5085282.5025907-.866627.5029914zm-2.506-7.073c-.4838675-.0006727-.8978397-.347685-.983-.824-.2246654-1.2782538-.3716018-2.5689564-.44-3.865-.0196496-.3572656.1527923-.6978755.4523686-.8935254s.6807741-.2166157 1-.055.5279818.4812598.5476314.8385254c.0641239 1.2152033.2017085 2.425414.412 3.624.0465511.2611063-.0125314.5300106-.1642493.7475542-.1517178.2175435-.3836425.3659053-.6447507.4124458-.0594621.0101267-.1196819.0151451-.18.015zm-.418-7.513h-.074c-.2645666-.0191942-.5106673-.1427187-.6841454-.3433907s-.2601183-.4620477-.2408546-.7266093c.0969454-1.3071805.2975764-2.6045945.6-3.88.0746716-.3553495.3360996-.642299.6829777-.7496522.3468782-.1073533.7246919-.0182389.9870342.2328102s.3679841.6245787.2759881.975842c-.2771206 1.1722958-.4610281 2.3646852-.55 3.566-.039234.5216467-.4738799.924904-.997.925zm1.71-7.315c-.1264916.0000142-.2517922-.0244347-.369-.072-.2468077-.0979351-.4445322-.2900079-.5495816-.5338726-.1050493-.2438646-.1087976-.5194964-.0104184-.7661274.4825039-1.2092766 1.0447396-2.3851945 1.683-3.52.2763771-.4681168.8760889-.629704 1.3502388-.3638103s.6490399.861862.3937612 1.3418103c-.5943346 1.0576067-1.1181421 2.1533264-1.568 3.28-.1503513.3822929-.519204.6337474-.93.634z"/><path id="Shape" d="m48.179 53.041c-.1038575-.0002191-.2070637-.0164083-.306-.048-.575-.185-1.2-.37-1.865-.546-.3547426-.0825946-.6365224-.3515349-.7355593-.7020429-.0990368-.350508.0003341-.7271433.2593984-.9831704.2590642-.2560272.6368451-.3509499.9861609-.2477867.4093333.108.803.2186667 1.181.332l.737-1.325c-.318-.292-.6236667-.594-.917-.906-.2463854-.2601366-.3347668-.6322117-.2316836-.9753599s.3818758-.6049225.7308286-.6862169.7147316.0303162.958855.2925768c.4289236.4558409.8847381.8856088 1.365 1.287.3685756.307398.466788.8332963.234 1.253l-1.523 2.741c-.1764353.3172782-.5109644.514015-.874.514z"/><path id="Shape" d="m32.847 52.171c-.4988012.0012281-.922233-.3653114-.9924923-.8591411-.0702593-.4938296.2341414-.9639211.7134923-1.1018589 1.1444689-.3284424 2.3156718-.5553211 3.5-.678.5492472-.0579899 1.0415101.3402528 1.0995.8895s-.3402528 1.0415101-.8895 1.0995c-1.0676067.1098341-2.1233943.3139642-3.155.61-.0897022.0260572-.182591.0395194-.276.04zm10.1-.4c-.0532696.0001041-.1064548-.0042444-.159-.013-1.0786045-.1744156-2.1664421-.2859373-3.258-.334-.5516925-.0227299-.9805545-.4883003-.958-1.04.0376245-.5446673.4940814-.9651343 1.04-.958 1.169991.0510568 2.3359874.1705948 3.492.358.5135633.083605.8771992.5470675.8362143 1.0657749-.040985.5187073-.4728938.919311-.9932143.9212251z"/></g><circle id="Oval" cx="28" cy="11" fill="#783e22" r="2"/><path id="Shape" d="m8 32c0 7.281-2.172 12.08-6.642 14.672-.93845266.5499781-1.26759859 1.7476789-.742 2.7l4.072 7.328c.48870291.8816997 1.55721371 1.2618718 2.493.887 3.3-1.329 14.478-5.108 20.029 2.03.1894263.2440794.4810387.3868932.79.3868932s.6005737-.1428138.79-.3868932c5.552-7.137 16.734-3.359 20.03-2.03.9355072.3742815 2.003364-.0058104 2.492-.887l4.072-7.33c.5255986-.9523211.1964527-2.1500219-.742-2.7-4.47-2.59-6.642-7.389-6.642-14.67 0-7.94 5.4-14 7.058-15.671.7280216-.7303749.7770792-1.8960376.113-2.685l-4.049-4.86c-.4401183-.52676622-1.1196311-.79102118-1.8-.7-9.487 1.245-12.38-4.284-13.183-6.723-.2707945-.81579407-1.0354456-1.36497093-1.895-1.361h-12.488c-.8595544-.00397093-1.6242055.54520593-1.895 1.361-.8 2.436-3.7 7.969-13.179 6.726-.68036895-.09102118-1.35988171.17323378-1.8.7l-4.05 4.861c-.66407924.7889624-.61502156 1.9546251.113 2.685 1.655 1.667 7.055 7.727 7.055 15.667zm-1.578-21.93c11.278 1.479 14.59-5.814 15.334-8.07l12.484-.013c.747 2.269 4.062 9.558 15.344 8.076l4.054 4.858c-1.792 1.806-7.638 8.379-7.638 17.079 0 8.056 2.5 13.421 7.636 16.4l-4.069 7.333c-3.479-1.4-14.981-5.266-21.567 1.734-2.912-3.098-6.784-4.067-10.5-4.067-3.7983557.0995294-7.54710951.8876351-11.064 2.326l-4.075-7.326c5.139-2.979 7.639-8.344 7.639-16.4 0-8.7-5.846-15.273-7.635-17.076z" fill="#000"/><path id="Shape" d="m28 14c1.6568542 0 3-1.3431458 3-3 0-1.65685425-1.3431458-3-3-3s-3 1.34314575-3 3c0 1.6568542 1.3431458 3 3 3zm0-4c.5522847 0 1 .4477153 1 1s-.4477153 1-1 1-1-.4477153-1-1 .4477153-1 1-1z" fill="#000"/></g></g></svg>