<?xml version="1.0" encoding="iso-8859-1"?>
<!-- Generator: Adobe Illustrator 19.0.0, SVG Export Plug-In . SVG Version: 6.00 Build 0)  -->
<svg version="1.1" id="Capa_1" xmlns="http://www.w3.org/2000/svg" xmlns:xlink="http://www.w3.org/1999/xlink" x="0px" y="0px"
	 viewBox="0 0 511.999 511.999" style="enable-background:new 0 0 511.999 511.999;" xml:space="preserve">
<path style="fill:#EF8C33;" d="M498.576,33.193L324.045,215.928l11.614,11.614c0,0-51.771,31.576-69.259,50.386l-78.298,84.201
	l-21.02-21.01l-14.973-14.973l18.679-17.366c17.966-17.966,31.708-53.176,31.708-53.176l12.276,12.276L481.058,15.604
	c2.402-2.27,5.466-3.41,8.54-3.41c3.186,0,6.362,1.221,8.785,3.644c0.224,0.224,0.438,0.458,0.641,0.692
	C503.147,21.324,503.024,28.541,498.576,33.193z"/>
<g>
	<path style="fill:#F9D366;" d="M307.401,94.864l18.904-3.832c8.925-1.81,8.925-14.564,0-16.373l-18.904-3.832
		c-18.629-3.776-33.188-18.337-36.965-36.965l-3.832-18.904c-1.81-8.925-14.564-8.925-16.373,0l-3.832,18.904
		c-3.776,18.629-18.337,33.188-36.965,36.965l-18.904,3.832c-8.925,1.81-8.925,14.564,0,16.373l18.904,3.832
		c18.629,3.776,33.188,18.337,36.965,36.965l3.832,18.904c1.81,8.925,14.564,8.925,16.373,0l3.832-18.904
		C274.213,113.201,288.772,98.642,307.401,94.864z"/>
	<path style="fill:#F9D366;" d="M475.893,330.566l21.027-4.263c9.927-2.012,9.927-16.2,0-18.212l-21.027-4.263
		c-20.721-4.201-36.915-20.396-41.116-41.116l-4.263-21.027c-2.012-9.927-16.2-9.927-18.212,0l-4.263,21.027
		c-4.201,20.721-20.396,36.915-41.116,41.116l-21.027,4.263c-9.927,2.012-9.927,16.2,0,18.212l21.027,4.263
		c20.721,4.201,36.915,20.396,41.116,41.116l4.263,21.027c2.012,9.927,16.2,9.927,18.212,0l4.263-21.027
		C438.978,350.962,455.171,334.767,475.893,330.566z"/>
</g>
<path style="fill:#EF8C33;" d="M193.86,367.893c-16.794-16.794-33.589-33.589-50.383-50.383
	c-40.16,50.127-85.715,95.682-135.843,135.842c16.794,16.794,33.589,33.589,50.383,50.383
	C98.178,453.607,143.733,408.052,193.86,367.893z"/>
<g>
	<path style="fill:#D87625;" d="M159.254,333.286c-5.26-5.26-10.518-10.518-15.778-15.778
		c-40.16,50.128-85.715,95.683-135.843,135.843c5.26,5.26,10.518,10.518,15.778,15.778
		C73.539,428.969,119.095,383.414,159.254,333.286z"/>
	<path style="fill:#D87625;" d="M499.024,16.53L238.012,272.911l-70.928,68.21l-14.973-14.973l18.679-17.366
		c17.966-17.966,31.708-53.176,31.708-53.176l12.276,12.276L481.058,15.604c2.402-2.27,5.466-3.41,8.54-3.41
		c3.186,0,6.362,1.221,8.785,3.644C498.607,16.062,498.82,16.296,499.024,16.53z"/>
</g>
<path d="M181.691,172.337c4.216,0,7.634-3.418,7.634-7.634v-20.231c0-4.216-3.418-7.634-7.634-7.634
	c-4.216,0-7.634,3.418-7.634,7.634v20.231C174.057,168.919,177.475,172.337,181.691,172.337z"/>
<path d="M181.691,226.805c4.216,0,7.634-3.418,7.634-7.634v-20.231c0-4.216-3.418-7.634-7.634-7.634
	c-4.216,0-7.634,3.418-7.634,7.634v20.231C174.057,223.386,177.475,226.805,181.691,226.805z"/>
<path d="M198.809,174.187c-4.216,0-7.634,3.418-7.634,7.634c0,4.216,3.418,7.634,7.634,7.634h20.231
	c4.216,0,7.634-3.418,7.634-7.634c0-4.216-3.418-7.634-7.634-7.634H198.809z"/>
<path d="M144.342,189.455h20.231c4.216,0,7.634-3.418,7.634-7.634c0-4.216-3.418-7.634-7.634-7.634h-20.231
	c-4.216,0-7.634,3.418-7.634,7.634C136.708,186.037,140.126,189.455,144.342,189.455z"/>
<path d="M189.011,98.514l18.904,3.832c15.657,3.175,27.825,15.343,30.999,31l3.833,18.904c1.529,7.543,7.972,12.81,15.669,12.81
	c7.697,0,14.141-5.268,15.67-12.81l3.832-18.904c3.175-15.657,15.343-27.826,31-31l18.904-3.832
	c7.543-1.53,12.811-7.973,12.811-15.67s-5.269-14.139-12.811-15.669l-18.904-3.832c-15.657-3.174-27.826-15.343-31-31l-3.832-18.904
	c-1.529-7.543-7.972-12.81-15.67-12.81c-7.696,0-14.14,5.268-15.669,12.81l-3.833,18.904c-3.175,15.657-15.342,27.826-30.999,31
	l-18.904,3.832c-7.543,1.53-12.81,7.973-12.81,15.669C176.2,90.541,181.468,96.984,189.011,98.514z M192.045,82.14l18.904-3.832
	c21.682-4.396,38.534-21.248,42.93-42.93l3.832-18.904c0.07-0.347,0.117-0.576,0.704-0.576c0.588,0,0.634,0.229,0.704,0.576
	l3.832,18.904c4.396,21.683,21.248,38.534,42.931,42.93l18.904,3.832c0.347,0.07,0.576,0.117,0.576,0.704
	c0,0.588-0.23,0.635-0.576,0.704l-18.904,3.832c-21.684,4.396-38.534,21.248-42.931,42.93l-3.832,18.904
	c-0.07,0.347-0.116,0.576-0.704,0.576c-0.587,0-0.634-0.229-0.704-0.576l-3.832-18.904c-4.396-21.683-21.248-38.534-42.93-42.93
	l-18.904-3.832c-0.347-0.07-0.576-0.117-0.576-0.704C191.469,82.257,191.698,82.211,192.045,82.14z"/>
<path d="M498.437,300.609l-21.027-4.263c-17.753-3.599-31.551-17.397-35.15-35.151l-4.263-21.027
	c-1.619-7.986-8.44-13.563-16.589-13.563c-8.148,0-14.969,5.577-16.589,13.563l-4.263,21.027
	c-3.599,17.754-17.397,31.552-35.151,35.151l-21.026,4.263c-7.985,1.618-13.563,8.44-13.563,16.588s5.577,14.969,13.563,16.588
	l21.026,4.263c17.754,3.599,31.552,17.397,35.151,35.151l4.263,21.027c1.62,7.986,8.44,13.563,16.589,13.563
	c8.148,0,14.969-5.577,16.589-13.563l4.263-21.027c3.599-17.754,17.397-31.552,35.15-35.151l21.027-4.263
	c7.986-1.618,13.563-8.44,13.563-16.588S506.422,302.227,498.437,300.609z M495.403,318.82l-21.027,4.263
	c-23.779,4.821-42.261,23.302-47.081,47.081l-4.263,21.027c-0.08,0.397-0.27,1.328-1.625,1.328c-1.355,0-1.544-0.931-1.625-1.328
	l-4.263-21.027c-4.821-23.779-23.302-42.261-47.082-47.081l-21.026-4.263c-0.398-0.08-1.328-0.27-1.328-1.624
	s0.93-1.543,1.328-1.624l21.026-4.263c23.78-4.821,42.262-23.302,47.082-47.081l4.263-21.027c0.08-0.397,0.27-1.328,1.625-1.328
	c1.355,0,1.544,0.931,1.625,1.328l4.263,21.027c4.821,23.78,23.302,42.261,47.081,47.081l21.027,4.263
	c0.398,0.08,1.328,0.269,1.328,1.624S495.8,318.74,495.403,318.82z"/>
<path d="M343.235,228.442c0.277-2.325-0.527-4.648-2.182-6.303l-6.332-6.332L504.1,38.466c7.463-7.814,7.319-20.389-0.322-28.029
	c-7.739-7.738-20.025-7.906-27.971-0.378l-260.89,247.173l-7.021-7.021c-1.823-1.823-4.441-2.603-6.965-2.073
	c-2.522,0.529-4.608,2.294-5.546,4.696c-0.131,0.337-13.3,33.776-29.896,50.451l-13.184,12.259l-3.431-3.431
	c-1.535-1.535-3.654-2.341-5.817-2.225c-2.167,0.119-4.182,1.155-5.538,2.849c-39.745,49.608-85.05,94.914-134.659,134.658
	c-1.694,1.357-2.73,3.371-2.849,5.538c-0.119,2.167,0.69,4.283,2.225,5.817l50.384,50.384c1.435,1.436,3.378,2.236,5.398,2.236
	c0.139,0,0.28-0.004,0.42-0.011c2.167-0.119,4.182-1.155,5.538-2.849c39.744-49.609,85.05-94.915,134.658-134.658
	c1.694-1.357,2.73-3.371,2.849-5.538c0.119-2.167-0.69-4.283-2.225-5.817l-0.553-0.553l73.285-78.817
	c16.575-17.826,67.131-48.76,67.64-49.07C341.629,232.836,342.958,230.767,343.235,228.442z M76.55,469.74L56.931,450.12
	c-2.981-2.981-7.816-2.981-10.796,0c-2.981,2.981-2.981,7.816,0,10.796l20.434,20.434c-3.076,3.642-6.134,7.298-9.149,10.989
	l-38.388-38.388c39.094-31.948,75.473-67.315,108.556-105.479l21.975,21.975c1.49,1.49,3.445,2.236,5.398,2.236
	c1.953,0,3.908-0.745,5.398-2.236c2.981-2.981,2.981-7.816,0-10.796l-22.832-22.832c2.198-2.626,4.384-5.263,6.551-7.914
	l38.388,38.388C144.408,398.393,108.925,432.735,76.55,469.74z M260.81,272.728l-72.908,78.41l-24.792-24.792l12.881-11.977
	c0.068-0.063,0.134-0.127,0.2-0.192c12.712-12.712,23.19-32.916,28.859-45.221l4.326,4.326l9.043,9.043
	c1.49,1.49,3.445,2.236,5.398,2.236s3.908-0.745,5.398-2.236c2.981-2.981,2.981-7.816,0-10.796l-3.498-3.498L486.308,21.143
	c1.895-1.796,4.825-1.756,6.673,0.091c1.823,1.823,1.857,4.822,0.076,6.687L323.921,205.007l-3.914-3.914
	c-2.98-2.982-7.814-2.981-10.796,0c-2.981,2.981-2.981,7.815,0.001,10.796l9.427,9.427c0.003,0.003,0.006,0.007,0.009,0.01
	l4.818,4.818C307.915,236,274.669,257.823,260.81,272.728z"/>
<g>
</g>
<g>
</g>
<g>
</g>
<g>
</g>
<g>
</g>
<g>
</g>
<g>
</g>
<g>
</g>
<g>
</g>
<g>
</g>
<g>
</g>
<g>
</g>
<g>
</g>
<g>
</g>
<g>
</g>
</svg>
