<?xml version="1.0" encoding="UTF-8" standalone="no"?>
<svg
   xmlns:dc="http://purl.org/dc/elements/1.1/"
   xmlns:cc="http://creativecommons.org/ns#"
   xmlns:rdf="http://www.w3.org/1999/02/22-rdf-syntax-ns#"
   xmlns:svg="http://www.w3.org/2000/svg"
   xmlns="http://www.w3.org/2000/svg"
   viewBox="0 0 793.70079 1122.5197"
   height="297mm"
   width="210mm"
   id="svg3783"
   version="1.1">
  <metadata
     id="metadata3789">
    <rdf:RDF>
      <cc:Work
         rdf:about="">
        <dc:format>image/svg+xml</dc:format>
        <dc:type
           rdf:resource="http://purl.org/dc/dcmitype/StillImage" />
        <dc:title></dc:title>
      </cc:Work>
    </rdf:RDF>
  </metadata>
  <defs
     id="defs3787" />
  <rect
     style="fill:#ff0000"
     y="28.368744"
     x="85.962265"
     height="96.226418"
     width="100"
     id="rect3817" />
  <path
     style="fill:#ff0000"
     d="m 633.43396,126.02917 -70.9307,1.32921 -70.93069,1.32921 L 525.88678,66.595204 560.201,4.5028137 596.81748,65.26599 Z"
     id="path3853" />
  <path
     style="fill:#ff0000"
     transform="matrix(-0.01323588,0.80037846,-0.67756112,-0.01563506,642.78176,-254.99668)"
     d="m 487.91183,355.53857 -70.93069,1.32921 -70.9307,1.32921 34.31422,-62.09239 34.31421,-62.09239 36.61648,60.76318 z"
     id="path3853-3" />
  <rect
     style="fill:#ff0000;stroke-width:0.97584587"
     y="45.840393"
     x="215.50945"
     height="49.056606"
     width="186.79245"
     id="rect3817-7" />
  <rect
     style="fill:#ff0000"
     y="187.05396"
     x="487.05664"
     height="96.226418"
     width="100"
     id="rect3817-5" />
  <path
     style="fill:#ff0000"
     d="m 197.77362,274.2615 -70.9307,1.32921 -70.930692,1.32921 34.314214,-62.09239 34.314218,-62.09239 36.61648,60.76318 z"
     id="path3853-35" />
  <path
     style="fill:#ff0000"
     transform="matrix(-0.01323588,0.80037846,-0.67756112,-0.01563506,641.83837,-101.85862)"
     d="m 487.91183,355.53857 -70.93069,1.32921 -70.9307,1.32921 34.31422,-62.09239 34.31421,-62.09239 36.61648,60.76318 z"
     id="path3853-3-6" />
  <rect
     style="fill:#ff0000;stroke-width:0.97584587"
     y="202.75201"
     x="214.56607"
     height="49.056606"
     width="186.79245"
     id="rect3817-7-2" />
  <text
     id="text3949"
     y="84.859283"
     x="289.58493"
     style="font-style:normal;font-weight:normal;font-size:40px;line-height:1.25;font-family:sans-serif;letter-spacing:0px;word-spacing:0px;fill:#000000;fill-opacity:1;stroke:none"
     xml:space="preserve"><tspan
       y="84.859283"
       x="289.58493"
       id="tspan3947">1</tspan></text>
  <text
     id="text3953"
     y="239.46307"
     x="301.24527"
     style="font-style:normal;font-weight:normal;font-size:40px;line-height:1.25;font-family:sans-serif;letter-spacing:0px;word-spacing:0px;fill:#000000;fill-opacity:1;stroke:none"
     xml:space="preserve"><tspan
       y="239.46307"
       x="301.24527"
       id="tspan3951">1</tspan></text>
  <rect
     style="fill:#000080"
     y="315.04498"
     x="78.270302"
     height="96.226418"
     width="100"
     id="rect3817-9" />
  <path
     transform="matrix(0.94360693,0,0,0.96778994,21.17473,19.507736)"
     style="fill:#000080"
     d="m 623.742,416.70541 -70.93069,1.32921 -70.9307,1.32921 34.31422,-62.09239 34.31421,-62.09239 36.61648,60.76318 z"
     id="path3853-1" />
  <path
     style="fill:#000080"
     transform="matrix(-0.01323588,0.80037846,-0.67756112,-0.01563506,637.0898,37.67956)"
     d="m 487.91183,355.53857 -70.93069,1.32921 -70.9307,1.32921 34.31422,-62.09239 34.31421,-62.09239 36.61648,60.76318 z"
     id="path3853-3-2" />
  <rect
     style="fill:#000080;stroke-width:0.97584587"
     y="338.51666"
     x="209.81747"
     height="49.056606"
     width="186.79245"
     id="rect3817-7-7" />
  <rect
     style="fill:#000080"
     y="473.73022"
     x="491.36462"
     height="96.226418"
     width="100"
     id="rect3817-5-0" />
  <path
     style="fill:#000080"
     d="m 200.08166,564.93777 -70.93069,1.32921 -70.930698,1.32921 34.314215,-62.09239 34.314213,-62.09239 36.61648,60.76318 z"
     id="path3853-35-9" />
  <path
     style="fill:#000080"
     transform="matrix(-0.01323588,0.80037846,-0.67756112,-0.01563506,636.14641,190.81762)"
     d="m 487.91183,355.53857 -70.93069,1.32921 -70.9307,1.32921 34.31422,-62.09239 34.31421,-62.09239 36.61648,60.76318 z"
     id="path3853-3-6-3" />
  <rect
     style="fill:#000080;stroke-width:0.97584587"
     y="495.42828"
     x="208.8741"
     height="49.056606"
     width="186.79245"
     id="rect3817-7-2-6" />
  <text
     id="text3949-0"
     y="371.53552"
     x="291.89297"
     style="font-style:normal;font-weight:normal;font-size:40px;line-height:1.25;font-family:sans-serif;letter-spacing:0px;word-spacing:0px;fill:#000080;fill-opacity:1;stroke:none"
     xml:space="preserve"><tspan
       y="371.53552"
       x="291.89297"
       id="tspan3947-6">1</tspan></text>
  <text
     id="text3953-2"
     y="528.13928"
     x="297.55331"
     style="font-style:normal;font-weight:normal;font-size:40px;line-height:1.25;font-family:sans-serif;letter-spacing:0px;word-spacing:0px;fill:#000080;fill-opacity:1;stroke:none"
     xml:space="preserve"><tspan
       y="528.13928"
       x="297.55331"
       id="tspan3951-6">1</tspan></text>
  <text
     id="text4007"
     y="374.51965"
     x="300"
     style="font-style:normal;font-weight:normal;font-size:40px;line-height:1.25;font-family:sans-serif;letter-spacing:0px;word-spacing:0px;fill:#000000;fill-opacity:1;stroke:none"
     xml:space="preserve"><tspan
       y="374.51965"
       x="300"
       id="tspan4005">2</tspan></text>
  <text
     id="text4007-1"
     y="529.36346"
     x="307.8125"
     style="font-style:normal;font-weight:normal;font-size:40px;line-height:1.25;font-family:sans-serif;letter-spacing:0px;word-spacing:0px;fill:#000000;fill-opacity:1;stroke:none"
     xml:space="preserve"><tspan
       y="529.36346"
       x="307.8125"
       id="tspan4005-8">2</tspan></text>
  <rect
     style="fill:#008000"
     y="590.17706"
     x="81.289185"
     height="96.226418"
     width="100"
     id="rect3817-9-7" />
  <path
     transform="matrix(0.87311558,0,0,0.87115973,56.287495,75.994395)"
     style="fill:#008000"
     d="m 632.76086,695.83749 -70.93069,1.32921 -70.9307,1.32921 34.31422,-62.09239 34.31421,-62.09239 36.61648,60.76318 z"
     id="path3853-1-9" />
  <path
     style="fill:#008000"
     transform="matrix(-0.01323588,0.80037846,-0.67756112,-0.01563506,642.1087,314.81163)"
     d="m 487.91183,355.53857 -70.93069,1.32921 -70.9307,1.32921 34.31422,-62.09239 34.31421,-62.09239 36.61648,60.76318 z"
     id="path3853-3-2-2" />
  <rect
     style="fill:#008000;stroke-width:0.97584587"
     y="615.64874"
     x="214.8363"
     height="49.056606"
     width="186.79245"
     id="rect3817-7-7-0" />
  <rect
     style="fill:#008000"
     y="724.8623"
     x="492.38354"
     height="96.226418"
     width="100"
     id="rect3817-5-0-2" />
  <path
     style="fill:#008000"
     d="m 187.10051,828.06985 -70.93069,1.32921 -70.930696,1.32921 34.314215,-62.09239 34.314211,-62.09239 36.61648,60.76318 z"
     id="path3853-35-9-3" />
  <path
     style="fill:#008000"
     transform="matrix(-0.01323588,0.80037846,-0.67756112,-0.01563506,631.1653,441.94969)"
     d="m 487.91183,355.53857 -70.93069,1.32921 -70.9307,1.32921 34.31422,-62.09239 34.31421,-62.09239 36.61648,60.76318 z"
     id="path3853-3-6-3-7" />
  <rect
     style="fill:#008000;stroke-width:0.97584587"
     y="746.56036"
     x="199.89294"
     height="49.056606"
     width="186.79245"
     id="rect3817-7-2-6-5" />
  <text
     id="text4107"
     y="652.51965"
     x="310"
     style="font-style:normal;font-weight:normal;font-size:40px;line-height:1.25;font-family:sans-serif;letter-spacing:0px;word-spacing:0px;fill:#000000;fill-opacity:1;stroke:none"
     xml:space="preserve"><tspan
       y="652.51965"
       x="310"
       id="tspan4105">3</tspan><tspan
       id="tspan4109"
       y="702.51965"
       x="310" /></text>
  <text
     id="text4113"
     y="788.51965"
     x="300"
     style="font-style:normal;font-weight:normal;font-size:40px;line-height:1.25;font-family:sans-serif;letter-spacing:0px;word-spacing:0px;fill:#000000;fill-opacity:1;stroke:none"
     xml:space="preserve"><tspan
       y="788.51965"
       x="300"
       id="tspan4111">3</tspan></text>
  <rect
     style="fill:#d45500"
     y="852.17706"
     x="78.289185"
     height="96.226418"
     width="100"
     id="rect3817-9-7-0" />
  <path
     style="fill:#d45500"
     d="m 627.76086,967.83743 -70.93069,1.32921 -70.9307,1.32921 34.31422,-62.09239 34.31421,-62.09239 36.61648,60.76318 z"
     id="path3853-1-9-6" />
  <path
     style="fill:#d45500"
     transform="matrix(-0.01323588,0.80037846,-0.67756112,-0.01563506,637.10872,586.81162)"
     d="m 487.91183,355.53857 -70.93069,1.32921 -70.9307,1.32921 34.31422,-62.09239 34.31421,-62.09239 36.61648,60.76318 z"
     id="path3853-3-2-2-3" />
  <rect
     style="fill:#d45500;stroke-width:0.97584587"
     y="887.64874"
     x="209.83633"
     height="49.056606"
     width="186.79245"
     id="rect3817-7-7-0-2" />
  <rect
     style="fill:#d45500"
     y="988.8623"
     x="485.38354"
     height="96.226418"
     width="100"
     id="rect3817-5-0-2-0" />
  <path
     style="fill:#d45500"
     d="m 182.10051,1100.0698 -70.93069,1.3292 -70.930696,1.3292 34.314215,-62.0924 34.314211,-62.09237 36.61648,60.76317 z"
     id="path3853-35-9-3-6" />
  <path
     style="fill:#d45500"
     transform="matrix(-0.01323588,0.80037846,-0.67756112,-0.01563506,626.16532,713.94968)"
     d="m 487.91183,355.53857 -70.93069,1.32921 -70.9307,1.32921 34.31422,-62.09239 34.31421,-62.09239 36.61648,60.76318 z"
     id="path3853-3-6-3-7-1" />
  <rect
     style="fill:#d45500;stroke-width:0.97584587"
     y="1018.5603"
     x="194.89297"
     height="49.056606"
     width="186.79245"
     id="rect3817-7-2-6-5-5" />
  <text
     id="text4198"
     y="928.51965"
     x="288"
     style="font-style:normal;font-weight:normal;font-size:40px;line-height:1.25;font-family:sans-serif;letter-spacing:0px;word-spacing:0px;fill:#000000;fill-opacity:1;stroke:none"
     xml:space="preserve"><tspan
       y="928.51965"
       x="288"
       id="tspan4196">4</tspan></text>
  <text
     id="text4202"
     y="1056.5197"
     x="288"
     style="font-style:normal;font-weight:normal;font-size:40px;line-height:1.25;font-family:sans-serif;letter-spacing:0px;word-spacing:0px;fill:#000000;fill-opacity:1;stroke:none"
     xml:space="preserve"><tspan
       id="tspan4204"
       y="1056.5197"
       x="288">4</tspan></text>
</svg>
