<svg xmlns="http://www.w3.org/2000/svg" width="2000" height="2000" viewBox="0 0 2000 2000">
  <metadata><?xpacket begin="﻿" id="W5M0MpCehiHzreSzNTczkc9d"?>
<x:xmpmeta xmlns:x="adobe:ns:meta/" x:xmptk="Adobe XMP Core 5.6-c138 79.159824, 2016/09/14-01:09:01        ">
   <rdf:RDF xmlns:rdf="http://www.w3.org/1999/02/22-rdf-syntax-ns#">
      <rdf:Description rdf:about=""/>
   </rdf:RDF>
</x:xmpmeta>
                                                                                                    
                                                                                                    
                                                                                                    
                                                                                                    
                                                                                                    
                                                                                                    
                                                                                                    
                                                                                                    
                                                                                                    
                                                                                                    
                                                                                                    
                                                                                                    
                                                                                                    
                                                                                                    
                                                                                                    
                                                                                                    
                                                                                                    
                                                                                                    
                                                                                                    
                                                                                                    
                           
<?xpacket end="w"?></metadata>
<defs>
    <style>
      .cls-1 {
        fill-rule: evenodd;
      }
    </style>
  </defs>
  <g id="Artboard_1" data-name="Artboard 1">
    <path id="vache" class="cls-1" d="M9610.68,2756v62c0,10.41,17.03,21,17.03,21v26.15S9627.69,2876,9640,2876s12.31-10.85,12.31-10.85V2839.6h5.68v25.55S9659.68,2876,9669,2876s13.11-10.85,13.11-10.85V2839.6h53.92v25.55S9735.37,2876,9748,2876s12.63-10.85,12.63-10.85V2839.6H9767l14,21.4s14.16,9.35,19.36,4.15,0-16.15,0-16.15l-9.36-18s9.36-8.58,9.36-27c20.34-2.34,27.64-6,27.64-6s17-4.83,17-23-6-46-6-46,20.5-6.92,16-21-24-8-24-8-3.86-13-26-13c-0.38-3.31-1.54-13.89-11-12s-2,15-2,15l-23,3s-0.33-14.15-8.37-13-8.53,4.21-6.63,19c-6.14.13-12.08,3.75-13.97,14-4,.32-15.35.32-21.03,12.14h-82s-19.22-1.54-26.32,18.86c-4.83,4.59-28.83-14.92-31.68-15s1.4-10.68-9-12-6.25-1.52-14,0,2.04,12.03,4,16,15,0,15,0S9593.66,2750.8,9610.68,2756Zm47.31-8s-3.32,15,24.12,15,26.89-5.17,26.89-13-2.77-13-26.89-13S9657.99,2741.38,9657.99,2748ZM9644,2725.14s-3.99,8.86,13.99,8.86,14.01-8.86,14.01-8.86h-28ZM9627.71,2787c-7.09,0-6.71,10.96-6.71,19s0.56,11,6.71,11,5.29-6.56,5.29-14S9634.81,2787,9627.71,2787Zm83.29,1s-20-2.86-20,9,6.79,10,20,10,18,1.57,18-10S9711,2788,9711,2788Zm36.51-4.87c-5.53-24.75,11.13-28.74,43.82-31.69s47.24-3.45,51.67,18.56-17.31,31.74-44.64,32S9753.04,2807.88,9747.51,2783.13Zm36.62-13.2c1.06-.29,2.46-0.98,3.54,6.96s0.48,9.32-.88,9.67-1.99.09-3.98-8.49S9783.07,2770.23,9784.13,2769.93Zm23.98-4.99c1.06-.3,2.46-1,3.56,6.95s0.5,9.31-.87,9.66-1.99.1-3.99-8.47S9807.05,2765.23,9808.11,2764.94ZM9761,2719c-6.09,2.81-4.72,16.25-3,15s-0.21-10.28,4-12,9.28,10.4,11,9S9767.09,2716.19,9761,2719Zm40-7c-6.09,2.81-4.72,16.25-3,15s-0.21-10.28,4-12,9.28,10.4,11,9S9807.09,2709.19,9801,2712Z" transform="translate(-8101 -2306)"/>
  </g>
</svg>
