<svg xmlns="http://www.w3.org/2000/svg" width="2000" height="2000" viewBox="0 0 2000 2000">
  <metadata><?xpacket begin="﻿" id="W5M0MpCehiHzreSzNTczkc9d"?>
<x:xmpmeta xmlns:x="adobe:ns:meta/" x:xmptk="Adobe XMP Core 5.6-c138 79.159824, 2016/09/14-01:09:01        ">
   <rdf:RDF xmlns:rdf="http://www.w3.org/1999/02/22-rdf-syntax-ns#">
      <rdf:Description rdf:about=""/>
   </rdf:RDF>
</x:xmpmeta>
                                                                                                    
                                                                                                    
                                                                                                    
                                                                                                    
                                                                                                    
                                                                                                    
                                                                                                    
                                                                                                    
                                                                                                    
                                                                                                    
                                                                                                    
                                                                                                    
                                                                                                    
                                                                                                    
                                                                                                    
                                                                                                    
                                                                                                    
                                                                                                    
                                                                                                    
                                                                                                    
                           
<?xpacket end="w"?></metadata>
<defs>
    <style>
      .cls-1 {
        fill: #777;
        fill-rule: evenodd;
      }
    </style>
  </defs>
  <g id="Artboard_1" data-name="Artboard 1">
    <path class="cls-1" d="M9637,3818c-4.86-8.22-5.62-22.16-3-33-15.32-26.16-32.26-78.08,1-102s55.19-27,75-27,71.5,2.75,87,36,13.06,71.45-6,92c4.48,9.72,2.63,21.14-2,33a92.031,92.031,0,0,1,16-8,31.8,31.8,0,0,0,10-15c3-9.75,28-17.25,29,2s1,11,1,11,20,15.25,12,25-24,7.25-32,6-55.09,22.86-56.21,26.6,11.12,8.31,26.21,13.4c15.22,5.14,10.5,5.75,29,5s20,13.25,15,19-13,9.25-12,22-11.5,17.75-25,5-5.5-11.75-21-20-23-11-23-11-15.48,16.63-45,17-48-17-48-17-26.39,13.89-32,18-4.8,17.01-19,20-18-23-18-23a54.5,54.5,0,0,1-9-9c-4.86-5.98-8.34-9.78,1-18s19.92,0.86,33-4,35-13.26,35-17-37.54-20.52-48-25-11.68-.25-27-1-16.62-10.15-14-18,11-13,11-13,0.04-18.44,11-24,17.96,6.46,21.22,14.15c0,0,5.67,9.23,9.78,11.85S9632.52,3816.13,9637,3818Zm37-55s23.25-3.72,24,6,3.96,10.43-8,25-26.28,15.92-36-8S9674,3763,9674,3763Zm76.05-.29s-24.29-3.69-25.07,5.96-4.14,10.36,8.36,24.84,27.45,15.81,37.6-7.95S9750.05,3762.71,9750.05,3762.71ZM9709,3796l1,34s-14.18,13.59-15-2S9709,3796,9709,3796Zm6,0-1,34.43s14.15,13.76,14.97-2.02S9715,3796,9715,3796Zm-45,42c3.36,1.12,4,7.47,4,10s18.45,7.74,38,7,39.4-6.43,39-9,3.56-8.95,7-10c0.08,6.05-2.88,15.28-4,25s-9.71,23.54-40,24-43.25-13.02-44-19S9668.88,3844.35,9670,3838Z" transform="translate(-8101 -2306)"/>
  </g>
</svg>
