<svg xmlns="http://www.w3.org/2000/svg" width="1200" height="2000" viewBox="0 0 1200 2000">
  <metadata><?xpacket begin="﻿" id="W5M0MpCehiHzreSzNTczkc9d"?>
<x:xmpmeta xmlns:x="adobe:ns:meta/" x:xmptk="Adobe XMP Core 5.6-c138 79.159824, 2016/09/14-01:09:01        ">
   <rdf:RDF xmlns:rdf="http://www.w3.org/1999/02/22-rdf-syntax-ns#">
      <rdf:Description rdf:about=""/>
   </rdf:RDF>
</x:xmpmeta>
                                                                                                    
                                                                                                    
                                                                                                    
                                                                                                    
                                                                                                    
                                                                                                    
                                                                                                    
                                                                                                    
                                                                                                    
                                                                                                    
                                                                                                    
                                                                                                    
                                                                                                    
                                                                                                    
                                                                                                    
                                                                                                    
                                                                                                    
                                                                                                    
                                                                                                    
                                                                                                    
                           
<?xpacket end="w"?></metadata>
<defs>
    <style>
      .cls-1 {
        fill: #5454ff;
        fill-rule: evenodd;
      }
    </style>
  </defs>
  <g id="Artboard_1_copy_10" data-name="Artboard 1 copy 10">
    <g id="pieds">
      <g id="double_colerettes" data-name="double colerettes">
        <path id="Shape_1_copy" data-name="Shape 1 copy" class="cls-1" d="M7595.05,3148.63c-26.72,15.03-60.85,10.46-60.85,35.41,0,11.93.61,24.16,1.26,33.68,10.64-.47,16.88-0.77,16.88-0.77s62.22-19.98,8.54,51.25c-28.15,37.34-25.63,196.43-25.63,196.43l8.54,555.13s-23.22,180.89-102.51,204.97-155.43-64.07-170.85-153.73,25.63-743.02,25.63-743.02-0.77-33.68-17.09-51.24c-15.71-16.9-51.82-48.08,17.09-51.03v-34.38s3.27-10.3-34.17-17.08-148.2-36.6,25.62-42.7q18.18-.645,35.24-1.2l7.48-128.37,187.94,1.46,6.38,121.29c30.92-.72,51.46-1.2,61.96-1.72C7614.18,3121.63,7621.77,3133.61,7595.05,3148.63Z" transform="translate(-6800 -2306)"/>
      </g>
    </g>
  </g>
</svg>
