<svg xmlns="http://www.w3.org/2000/svg" width="1200" height="2000" viewBox="0 0 1200 2000">
<path id="Shape_6_copy_3" fill="#5454ff" d="M7321.69,3011.98l-273.37-111.02s-111.62-40.98-145.22-102.49-34.95-115.85,187.93-153.73,346.97-36.03,512.56-17.08,357.53,80.56,341.71,128.11-123.63,169.49-427.13,256.21C7409.77,3037.28,7321.69,3011.98,7321.69,3011.98ZM6903.1,2798.47c-33.61-61.51-34.95-115.85,187.93-153.73s346.97-36.03,512.56-17.08,357.53,80.56,341.71,128.11-99.96,117.27-367.34,128.11C7064.34,2904.7,6904.16,2800.42,6903.1,2798.47Z" transform="translate(-6800 -2306)"/>
</svg>
