<?xml version="1.0" standalone="no"?>
<!DOCTYPE svg PUBLIC "-//W3C//DTD SVG 20010904//EN"
 "http://www.w3.org/TR/2001/REC-SVG-20010904/DTD/svg10.dtd">
<svg version="1.0" xmlns="http://www.w3.org/2000/svg"
 width="220.000000pt" height="240.000000pt" viewBox="0 0 220.000000 240.000000"
 preserveAspectRatio="xMidYMid meet">

<g transform="translate(0.000000,240.000000) scale(0.100000,-0.100000)"
fill="#000000" stroke="none">
<path d="M1238 2358 c-2 -35 -6 -42 -20 -40 -23 4 -22 0 2 -48 24 -47 26 -83
5 -100 -19 -16 -19 -30 0 -66 8 -16 15 -34 15 -40 0 -6 -39 -34 -87 -61 -49
-28 -143 -83 -211 -122 l-123 -71 -144 0 -145 0 0 -120 c0 -100 -2 -120 -15
-120 -18 0 -19 -5 -2 -33 8 -16 13 -112 17 -340 l5 -318 345 -2 345 -2 3 -50
c2 -27 9 -53 15 -57 18 -11 87 -10 87 2 0 6 -16 10 -35 10 -35 0 -35 1 -35 43
0 84 17 81 -358 74 -252 -5 -333 -3 -339 6 -5 7 -9 135 -10 286 -1 250 0 279
18 325 10 28 19 52 19 52 0 1 -8 4 -19 7 -17 4 -19 16 -20 111 l-2 106 131 0
131 0 97 56 c53 31 147 85 207 120 61 35 118 64 129 64 10 0 91 -42 180 -94
88 -51 180 -103 204 -115 23 -12 42 -23 42 -26 0 -2 -33 -23 -72 -46 -40 -23
-132 -77 -204 -120 -73 -44 -134 -79 -138 -79 -3 0 -100 54 -217 121 -116 66
-213 118 -216 116 -2 -3 90 -59 204 -125 206 -119 208 -120 211 -156 l3 -36
-215 0 -216 0 0 -100 0 -100 210 0 c180 0 210 -2 210 -15 0 -13 -28 -15 -194
-15 -107 0 -201 -3 -210 -6 -13 -5 -16 -23 -16 -95 l0 -89 215 0 215 0 0 -40
0 -40 355 0 355 0 0 180 c0 153 2 180 15 180 19 0 19 17 0 50 -12 20 -14 93
-15 391 l0 367 -31 6 c-17 3 -56 6 -85 6 -48 0 -54 2 -54 20 l0 20 -40 -20
c-36 -18 -58 -20 -248 -20 -148 0 -211 3 -220 12 -16 16 -15 77 3 108 19 33
19 50 0 50 -11 0 -15 11 -15 40 0 53 -18 51 -22 -2z m512 -253 c27 -14 30 -14
30 0 0 12 14 15 69 15 l68 0 7 -207 c12 -338 7 -491 -16 -536 -19 -38 -19 -39
0 -44 17 -4 19 -17 21 -174 l2 -169 -335 0 -336 0 0 30 0 30 198 2 197 3 3 84
c2 61 -1 87 -10 92 -7 5 -100 9 -205 9 -165 0 -193 2 -193 15 0 13 29 15 205
15 l205 0 0 100 0 100 -199 0 -199 0 -4 29 c-4 29 0 33 154 123 264 156 284
169 266 182 -8 6 -106 63 -217 126 -193 110 -201 116 -201 146 0 17 3 34 7 37
3 4 107 7 230 7 181 0 230 -3 253 -15z m-110 -740 l0 -85 -405 0 -405 0 0 85
0 85 405 0 405 0 0 -85z m-2 -217 l3 -78 -406 0 -405 0 0 80 0 80 403 -2 402
-3 3 -77z"/>
<path d="M987 1413 c-11 -10 -8 -93 3 -93 6 0 10 7 10 15 0 8 7 15 15 15 9 0
18 -7 21 -15 4 -8 13 -15 21 -15 12 0 13 3 3 14 -8 11 -9 20 -2 33 15 26 -3
53 -37 53 -15 0 -31 -3 -34 -7z m58 -28 c0 -5 -10 -11 -22 -13 -16 -2 -23 2
-23 13 0 11 7 15 23 13 12 -2 22 -7 22 -13z"/>
<path d="M1277 1413 c-11 -10 -8 -93 3 -93 6 0 10 7 10 15 0 8 6 15 14 15 7 0
19 -7 26 -15 7 -8 17 -15 22 -15 6 0 5 6 -2 14 -8 11 -9 20 -2 33 15 26 -3 53
-37 53 -15 0 -31 -3 -34 -7z m54 -28 c0 -5 -9 -11 -21 -13 -20 -3 -27 8 -13
22 10 9 34 3 34 -9z"/>
<path d="M1442 1408 c-18 -18 -15 -36 8 -48 27 -14 26 -33 -1 -25 -15 5 -19 4
-15 -4 4 -6 18 -11 32 -11 19 0 24 5 24 24 0 16 -7 27 -20 31 -11 3 -20 11
-20 16 0 6 9 7 20 4 24 -7 27 10 4 19 -20 8 -18 8 -32 -6z"/>
<path d="M1132 1383 c-21 -15 -21 -16 -5 -29 21 -16 37 -18 28 -5 -3 6 14 12
37 14 l43 4 -44 1 c-34 2 -42 5 -37 17 7 18 7 18 -22 -2z"/>
<path d="M1375 1350 c3 -5 13 -10 21 -10 8 0 14 5 14 10 0 6 -9 10 -21 10 -11
0 -17 -4 -14 -10z"/>
<path d="M995 1180 c-35 -39 9 -96 60 -76 24 9 19 46 -6 46 -19 0 -20 -2 -8
-16 11 -14 10 -15 -11 -12 -19 2 -25 9 -25 28 0 22 4 25 33 24 34 -2 43 10 16
20 -26 10 -40 7 -59 -14z"/>
<path d="M1105 1184 c-19 -20 -16 -63 6 -77 24 -15 66 -1 72 25 8 28 -17 68
-43 68 -10 0 -26 -7 -35 -16z m60 -34 c0 -18 -6 -26 -23 -28 -24 -4 -38 18
-28 44 3 9 15 14 28 12 17 -2 23 -10 23 -28z"/>
<path d="M1205 1190 c-3 -5 3 -10 14 -10 18 0 21 -6 21 -40 0 -22 5 -40 10
-40 6 0 10 18 10 40 0 22 5 40 10 40 6 0 10 5 10 10 0 6 -15 10 -34 10 -19 0
-38 -4 -41 -10z"/>
<path d="M1305 1184 c-19 -20 -16 -63 6 -77 24 -15 66 -1 72 25 8 28 -17 68
-43 68 -10 0 -26 -7 -35 -16z m60 -34 c0 -18 -6 -26 -23 -28 -13 -2 -25 3 -28
12 -10 26 4 48 28 44 17 -2 23 -10 23 -28z"/>
<path d="M1440 1190 c0 -5 7 -10 16 -10 12 0 14 -5 9 -17 -14 -33 -17 -63 -7
-63 5 0 12 12 15 28 3 15 8 37 12 50 6 19 4 22 -19 22 -14 0 -26 -4 -26 -10z"/>
<path d="M634 1925 c-9 -23 3 -45 23 -44 17 1 17 2 1 6 -25 6 -22 21 5 26 21
4 21 4 -3 6 -23 2 -24 3 -5 11 18 8 18 9 2 9 -10 1 -20 -6 -23 -14z"/>
<path d="M695 1929 c-4 -6 2 -13 14 -16 12 -3 21 -10 21 -15 0 -6 -10 -8 -21
-5 -16 4 -19 3 -11 -5 12 -12 42 -4 42 13 0 6 -10 13 -22 17 -21 5 -21 6 -2
13 16 6 16 8 2 8 -9 1 -20 -4 -23 -10z"/>
<path d="M597 1913 c-4 -3 -7 -13 -7 -22 1 -13 3 -13 11 2 11 19 8 33 -4 20z"/>
<path d="M172 1872 c13 -5 15 -11 8 -22 -5 -8 -9 -26 -9 -40 1 -23 2 -23 9 5
4 17 11 38 15 48 6 13 2 17 -16 16 -19 0 -20 -2 -7 -7z"/>
<path d="M1070 1820 c0 -11 9 -25 20 -32 29 -18 25 -31 -7 -23 -26 6 -27 5
-12 -10 21 -21 59 -11 59 15 0 11 -9 24 -20 30 -27 14 -26 30 2 22 14 -3 19
-2 14 6 -4 7 -18 12 -32 12 -17 0 -24 -5 -24 -20z"/>
<path d="M1300 1796 c0 -25 5 -48 10 -51 6 -3 10 3 10 14 0 26 8 26 36 0 l22
-20 -2 48 c-1 48 -1 48 -38 51 l-38 3 0 -45z m58 16 c2 -7 -6 -12 -17 -12 -21
0 -27 11 -14 24 9 9 26 2 31 -12z"/>
<path d="M1404 1828 c-5 -8 0 -9 14 -6 23 6 39 -6 22 -17 -5 -3 -10 -14 -10
-23 0 -14 3 -13 21 5 13 12 19 28 16 37 -7 18 -52 22 -63 4z"/>
<path d="M1185 1810 c3 -5 13 -10 21 -10 22 0 17 -17 -8 -23 -12 -4 -19 -9
-15 -13 7 -8 67 15 67 26 0 8 -45 30 -61 30 -6 0 -7 -4 -4 -10z"/>
<path d="M165 1380 c-4 -6 -4 -14 -1 -17 3 -4 6 -1 6 5 0 7 5 12 10 12 16 0
12 -27 -5 -34 -23 -8 -19 -46 5 -46 17 0 19 6 17 42 -2 41 -18 60 -32 38z m25
-55 c0 -8 -4 -15 -10 -15 -5 0 -10 7 -10 15 0 8 5 15 10 15 6 0 10 -7 10 -15z"/>
<path d="M167 1204 c-10 -10 -9 -42 2 -48 4 -3 6 6 3 19 -2 15 0 25 7 25 17 0
14 -68 -4 -73 -11 -4 -10 -4 2 -3 14 1 18 10 18 40 0 37 -13 55 -28 40z"/>
<path d="M820 770 c20 -13 70 -13 70 0 0 6 -19 10 -42 10 -32 0 -39 -3 -28
-10z"/>
<path d="M920 770 c0 -5 18 -10 40 -10 22 0 40 5 40 10 0 6 -18 10 -40 10 -22
0 -40 -4 -40 -10z"/>
<path d="M1030 770 c0 -5 18 -10 40 -10 22 0 40 5 40 10 0 6 -18 10 -40 10
-22 0 -40 -4 -40 -10z"/>
<path d="M1140 770 c0 -5 19 -10 43 -9 32 0 37 2 22 9 -28 12 -65 12 -65 0z"/>
<path d="M1360 770 c0 -5 18 -10 40 -10 22 0 40 5 40 10 0 6 -18 10 -40 10
-22 0 -40 -4 -40 -10z"/>
<path d="M1470 770 c0 -5 18 -10 40 -10 22 0 40 5 40 10 0 6 -18 10 -40 10
-22 0 -40 -4 -40 -10z"/>
<path d="M1575 770 c3 -5 24 -10 46 -10 21 0 39 5 39 10 0 6 -21 10 -46 10
-27 0 -43 -4 -39 -10z"/>
<path d="M810 700 c0 -22 5 -40 10 -40 6 0 10 18 10 40 0 22 -4 40 -10 40 -5
0 -10 -18 -10 -40z"/>
<path d="M1640 700 c0 -22 5 -40 10 -40 6 0 10 18 10 40 0 22 -4 40 -10 40 -5
0 -10 -18 -10 -40z"/>
<path d="M192 718 c-15 -15 -16 -60 0 -76 25 -25 49 27 32 72 -7 19 -16 20
-32 4z m28 -39 c0 -19 -5 -29 -15 -29 -15 0 -22 50 -9 63 12 12 24 -4 24 -34z"/>
<path d="M135 710 c-3 -5 -2 -10 4 -10 5 0 12 -15 14 -32 3 -29 4 -27 5 10 2
39 -9 55 -23 32z"/>
<path d="M1226 682 c-10 -17 10 -67 29 -71 16 -3 17 -1 7 12 -7 8 -11 25 -10
37 3 23 -15 39 -26 22z"/>
<path d="M1154 666 c-10 -26 1 -51 24 -54 26 -4 30 14 5 21 -13 3 -12 5 5 6
17 1 22 6 20 19 -4 22 -46 29 -54 8z"/>
<path d="M1281 666 c-7 -8 -10 -24 -6 -36 7 -21 39 -28 50 -10 3 6 -3 10 -14
10 -13 0 -21 7 -21 16 0 12 6 15 21 11 13 -3 19 -1 16 6 -6 18 -32 20 -46 3z"/>
<path d="M810 591 c0 -41 11 -51 56 -51 13 0 24 5 24 10 0 6 -13 10 -30 10
-28 0 -30 3 -30 35 0 19 -4 35 -10 35 -5 0 -10 -18 -10 -39z"/>
<path d="M1640 595 c0 -34 -1 -35 -37 -35 -26 0 -34 -3 -26 -11 6 -6 26 -9 44
-7 32 3 34 5 37 46 2 25 -1 42 -7 42 -6 0 -11 -16 -11 -35z"/>
<path d="M920 550 c0 -5 18 -10 40 -10 22 0 40 5 40 10 0 6 -18 10 -40 10 -22
0 -40 -4 -40 -10z"/>
<path d="M1030 550 c0 -5 18 -10 40 -10 22 0 40 5 40 10 0 6 -18 10 -40 10
-22 0 -40 -4 -40 -10z"/>
<path d="M1140 550 c0 -5 18 -10 40 -10 22 0 40 5 40 10 0 6 -18 10 -40 10
-22 0 -40 -4 -40 -10z"/>
<path d="M1242 548 c-17 -17 -16 -111 1 -106 6 3 13 25 15 51 3 46 4 47 38 47
18 0 34 5 34 10 0 14 -74 12 -88 -2z"/>
<path d="M1360 550 c0 -5 15 -10 34 -10 19 0 38 5 41 10 4 6 -10 10 -34 10
-23 0 -41 -4 -41 -10z"/>
<path d="M1470 550 c0 -5 15 -10 34 -10 19 0 38 5 41 10 4 6 -10 10 -34 10
-23 0 -41 -4 -41 -10z"/>
<path d="M370 238 c0 -28 22 -88 30 -83 5 3 12 20 16 38 4 19 9 26 12 17 16
-50 24 -62 31 -54 13 13 26 101 13 89 -6 -5 -12 -21 -15 -35 -4 -24 -4 -23
-12 8 -4 17 -13 32 -20 32 -7 0 -16 -15 -21 -32 l-8 -33 -3 33 c-4 30 -23 47
-23 20z"/>
<path d="M490 206 c0 -25 5 -48 10 -51 6 -4 10 5 10 20 0 22 4 26 22 23 14 -2
25 -13 29 -28 5 -17 7 -8 7 30 0 30 -2 47 -5 38 -6 -22 -53 -25 -53 -3 0 8 -4
15 -10 15 -5 0 -10 -20 -10 -44z"/>
<path d="M590 206 c0 -25 5 -48 10 -51 6 -4 10 13 10 44 0 28 -4 51 -10 51 -5
0 -10 -20 -10 -44z"/>
<path d="M630 200 c0 -49 1 -50 29 -50 17 0 33 5 36 10 4 6 -5 10 -19 10 -24
0 -26 4 -26 40 0 22 -4 40 -10 40 -5 0 -10 -22 -10 -50z"/>
<path d="M710 200 l0 -50 34 0 c19 0 38 5 41 10 4 6 -7 10 -24 10 -21 0 -31 5
-31 15 0 9 9 15 25 15 34 0 32 18 -2 23 l-28 4 28 2 c40 2 33 21 -8 21 l-35 0
0 -50z"/>
<path d="M847 243 c-15 -14 -5 -32 23 -42 17 -5 30 -15 30 -21 0 -17 -29 -23
-45 -10 -9 8 -15 8 -15 2 0 -6 8 -13 19 -17 52 -16 73 39 21 56 -40 14 -39 33
0 25 19 -3 29 -2 25 4 -7 11 -48 14 -58 3z"/>
<path d="M1081 203 c1 -27 4 -38 6 -25 6 29 27 28 48 -4 9 -14 19 -23 22 -20
3 3 1 12 -6 19 -6 8 -8 27 -5 46 6 30 6 31 -30 31 l-36 0 1 -47z m59 22 c0 -9
-9 -15 -25 -15 -16 0 -25 6 -25 15 0 9 9 15 25 15 16 0 25 -6 25 -15z"/>
<path d="M1210 201 c0 -49 1 -51 29 -51 37 0 53 20 49 62 -3 30 -6 33 -40 36
l-38 3 0 -50z m65 19 c11 -18 -6 -50 -26 -50 -14 0 -19 7 -19 30 0 23 5 30 19
30 11 0 23 -5 26 -10z"/>
<path d="M1322 238 c-28 -28 -3 -88 37 -88 25 0 41 20 41 50 0 31 -17 50 -45
50 -12 0 -26 -5 -33 -12z m62 -25 c8 -21 -17 -48 -38 -40 -9 4 -16 18 -16 32
0 20 5 25 24 25 13 0 27 -8 30 -17z"/>
<path d="M1461 203 c1 -27 4 -38 6 -25 6 29 29 28 49 -3 20 -30 31 -26 12 4
-9 15 -10 23 -1 32 19 19 3 39 -33 39 l-34 0 1 -47z m59 22 c0 -9 -9 -15 -25
-15 -16 0 -25 6 -25 15 0 9 9 15 25 15 16 0 25 -6 25 -15z"/>
<path d="M1751 203 c1 -27 4 -38 6 -25 6 29 29 28 49 -3 9 -14 19 -23 22 -21
3 3 -1 12 -7 20 -8 10 -9 21 -3 33 15 28 3 43 -34 43 l-34 0 1 -47z m60 22 c0
-5 -12 -11 -26 -13 -18 -2 -25 1 -25 13 0 12 7 15 25 13 14 -2 26 -7 26 -13z"/>
<path d="M1977 243 c-15 -14 -5 -32 23 -42 17 -5 30 -15 30 -21 0 -18 -29 -23
-47 -9 -14 12 -16 12 -11 -1 6 -20 35 -25 53 -10 23 19 18 37 -15 49 -36 12
-41 35 -5 29 13 -3 22 -1 19 3 -6 11 -38 12 -47 2z"/>
<path d="M1596 212 c-15 -18 -15 -20 6 -38 18 -16 21 -17 15 -2 -5 14 2 18 41
21 l47 3 -47 2 c-38 2 -46 5 -42 17 8 20 1 19 -20 -3z"/>
<path d="M1888 183 c7 -3 16 -2 19 1 4 3 -2 6 -13 5 -11 0 -14 -3 -6 -6z"/>
<path d="M983 163 c9 -2 23 -2 30 0 6 3 -1 5 -18 5 -16 0 -22 -2 -12 -5z"/>
</g>
</svg>
