<?xml version="1.0" encoding="UTF-8" standalone="no"?>
<!DOCTYPE svg PUBLIC "-//W3C//DTD SVG 1.1//EN" "http://www.w3.org/Graphics/SVG/1.1/DTD/svg11.dtd">
<svg width="100%" height="100%" viewBox="0 0 176 230" version="1.1" xmlns="http://www.w3.org/2000/svg" xmlns:xlink="http://www.w3.org/1999/xlink" xml:space="preserve" xmlns:serif="http://www.serif.com/" style="fill-rule:evenodd;clip-rule:evenodd;stroke-miterlimit:10;">
    <g id="g10" transform="matrix(1.33333,0,0,-1.33333,-13.0316,222.352)">
        <g id="Orange-Lambda-2016022849.svg" transform="matrix(0.0274368,0,0,-0.0274368,41.875,52.1295)">
            <g transform="matrix(1,0,0,1,-1000,-1045)">
                <clipPath id="_clip1">
                    <rect x="0" y="0" width="2000" height="2090"/>
                </clipPath>
                <g clip-path="url(#_clip1)">
                    <g id="Layer_1">
                        <g transform="matrix(0.1,0,0,-0.1,0,2090)">
                            <path d="M0,20900L0,0L20000,0L20000,20900L0,20900ZM9979,19263C10017,19165 10164,18795 10305,18440C10446,18085 10635,17611 10725,17385C10815,17160 11046,16577 11240,16090C11434,15603 11665,15021 11755,14795C11845,14570 11997,14186 12094,13943C12191,13699 12349,13301 12446,13058C12543,12814 12695,12431 12785,12205C12875,11980 13028,11595 13125,11350C13222,11105 13380,10709 13475,10470C13570,10231 13732,9824 13835,9565C13938,9307 14100,8899 14195,8660C14290,8421 14452,8014 14555,7755C14658,7497 14815,7101 14905,6875C14995,6650 15166,6220 15285,5920C15404,5620 15558,5233 15627,5060C15695,4887 15755,4741 15760,4736C15764,4732 15884,4764 16027,4808C16952,5097 18254,5499 18255,5497C18258,5494 18357,5191 18470,4840C18520,4683 18588,4474 18620,4375C18653,4276 18765,3927 18870,3600C18976,3273 19075,2965 19091,2915C19107,2866 19120,2824 19120,2823C19120,2822 19092,2812 19058,2801C19023,2791 18851,2736 18675,2680C18499,2624 18308,2563 18250,2545C18192,2527 17958,2453 17730,2380C17502,2307 17176,2204 17005,2150C16835,2096 16551,2006 16375,1950C16199,1894 16008,1833 15950,1815C15892,1797 15751,1752 15635,1715C15520,1678 15378,1633 15320,1615C15262,1597 15028,1523 14800,1450C13613,1073 13690,1097 13685,1102C13683,1105 13549,1443 13327,2005C13275,2137 13148,2457 13046,2715C12943,2974 12815,3298 12760,3435C12706,3573 12569,3919 12455,4205C12342,4491 12205,4838 12150,4975C12096,5113 11959,5459 11845,5745C11732,6031 11552,6486 11445,6755C11338,7025 11154,7490 11035,7790C10916,8090 10775,8448 10720,8585C10666,8723 10538,9044 10437,9300C10336,9556 10251,9770 10249,9777C10247,9783 10204,9727 10153,9652C10103,9576 9939,9335 9790,9115C9640,8895 9467,8639 9404,8545C9340,8452 9197,8240 9085,8075C8848,7725 8559,7300 8375,7027C8303,6922 8145,6689 8024,6510C7732,6080 7344,5508 7195,5288C7129,5190 6990,4984 6885,4830C6781,4676 6636,4463 6565,4357C6493,4252 6320,3996 6180,3790C5597,2930 5493,2777 5384,2615C5320,2522 5209,2357 5137,2250L5004,2055L3187,2052L1370,2050L1403,2100C1437,2153 2078,3146 2245,3405C2437,3703 3055,4660 3452,5275C3672,5616 3878,5934 3909,5983C3940,6031 4138,6338 4350,6666C4562,6994 4767,7312 4805,7371C4844,7431 5035,7727 5230,8030C5425,8332 5630,8650 5685,8735C5740,8820 5913,9089 6070,9331C6227,9574 6387,9822 6425,9881C6464,9941 6668,10258 6880,10586C7092,10914 7297,11232 7335,11291C7374,11351 7565,11647 7760,11950C7955,12252 8160,12570 8215,12655C8270,12740 8406,12951 8517,13123C8628,13295 8722,13443 8725,13451C8728,13460 8695,13577 8651,13711C8608,13845 8497,14187 8405,14470C8313,14753 8214,15062 8183,15155C8153,15249 8102,15406 8070,15505C7967,15821 7916,15979 7830,16247L7745,16510L5330,16510L5330,19440L9909,19440L9979,19263Z" style="fill:none;fill-rule:nonzero;"/>
                        </g>
                        <path d="M533,146L533,439L774.5,439L872.5,744.9L168.3,1836.6L140.3,1880L500.4,1884.5L1024.9,1112.3L1368.5,1979.8L1912,1807.7L1825.5,1540.3L1576,1616.4L990.9,146L533,146Z" style="fill:rgb(251,126,20);fill-rule:nonzero;"/>
                    </g>
                </g>
            </g>
        </g>
        <g id="g12" transform="matrix(1,0,0,1,41.875,120.162)">
            <g id="g14">
                <g id="g16">
                    <g id="g18">
                        <g id="g20">
                            <path id="path22" d="M18.934,0C18.934,10.457 10.457,18.934 0,18.934C-10.457,18.934 -18.934,10.457 -18.934,0C-18.934,-10.457 -10.457,-18.934 0,-18.934C10.457,-18.934 18.934,-10.457 18.934,0Z" style="fill:white;fill-rule:nonzero;stroke:rgb(0,255,0);stroke-width:0.6px;"/>
                        </g>
                        <g transform="matrix(1,0,0,1,-41.875,-120.162)">
                            <g id="g24">
                                <g id="g26">
                                    <g id="g28">
                                        <g id="text32" transform="matrix(1,0,0,-1,28.111,117.671)">
                                            <text x="0px" y="0px" style="font-family:'ArialMT', 'Arial', sans-serif;font-size:9.963px;">{</text>
                                        </g>
                                        <g id="text36" transform="matrix(1,0,0,-1,34.753,117.671)">
                                            <text x="0px" y="0px" style="font-family:'ArialMT', 'Arial', sans-serif;font-size:9.963px;">p,q</text>
                                        </g>
                                        <g id="text40" transform="matrix(1,0,0,-1,50.658,117.671)">
                                            <text x="0px" y="0px" style="font-family:'ArialMT', 'Arial', sans-serif;font-size:9.963px;">}</text>
                                        </g>
                                    </g>
                                </g>
                            </g>
                        </g>
                    </g>
                    <g id="g46">
                        <g id="g48">
                            <path id="path50" d="M-32.101,0L-21.524,0" style="fill:none;fill-rule:nonzero;stroke:black;stroke-width:0.6px;"/>
                            <g id="g52" transform="matrix(1,0,0,1,-21.5241,0)">
                                <g id="g54">
                                    <path id="path56" d="M2.291,0L-1.375,1.833L0,0L-1.375,-1.833" style="fill-rule:nonzero;"/>
                                </g>
                            </g>
                            <g id="g58">
                            </g>
                        </g>
                    </g>
                    <g id="g66">
                        <g id="g68">
                            <rect id="path70" x="54.993" y="-15.874" width="31.748" height="31.748" style="fill:white;fill-rule:nonzero;stroke:black;stroke-width:0.6px;"/>
                        </g>
                        <g transform="matrix(1,0,0,1,-41.875,-120.162)">
                            <g id="g72">
                                <g id="g74">
                                    <g id="g76">
                                        <g id="text80" transform="matrix(1,0,0,-1,103.697,117.671)">
                                            <text x="0px" y="0px" style="font-family:'ArialMT', 'Arial', sans-serif;font-size:9.963px;">{</text>
                                        </g>
                                        <g id="text84" transform="matrix(1,0,0,-1,110.339,117.671)">
                                            <text x="0px" y="0px" style="font-family:'ArialMT', 'Arial', sans-serif;font-size:9.963px;">q</text>
                                        </g>
                                        <g id="text88" transform="matrix(1,0,0,-1,116.804,117.671)">
                                            <text x="0px" y="0px" style="font-family:'ArialMT', 'Arial', sans-serif;font-size:9.963px;">}</text>
                                        </g>
                                    </g>
                                </g>
                            </g>
                        </g>
                    </g>
                    <g id="g94">
                        <g id="g96">
                            <path id="path98" d="M85.834,-70.867C85.834,-62.601 79.133,-55.9 70.867,-55.9C62.601,-55.9 55.9,-62.601 55.9,-70.867C55.9,-79.133 62.601,-85.834 70.867,-85.834C79.133,-85.834 85.834,-79.133 85.834,-70.867Z" style="fill:white;fill-rule:nonzero;stroke:rgb(0,255,0);stroke-width:0.6px;"/>
                        </g>
                        <g transform="matrix(1,0,0,-1,61.734,-73.357)">
                            <g id="g100">
                                <g id="g102">
                                    <g id="g104">
                                        <g id="text108">
                                            <g>
                                                <text x="0px" y="0px" style="font-family:'ArialMT', 'Arial', sans-serif;font-size:9.963px;">{</text>
                                                <text x="3.327px" y="0px" style="font-family:'MS-UIGothic', 'MS UI Gothic', sans-serif;font-size:9.963px;">∅</text>
                                                <text x="8.309px" y="0px" style="font-family:'ArialMT', 'Arial', sans-serif;font-size:9.963px;">}</text>
                                            </g>
                                        </g>
                                    </g>
                                </g>
                            </g>
                        </g>
                    </g>
                    <g id="g114">
                        <g id="g116">
                            <path id="path118" d="M16.656,9.616C29.607,16.965 41.854,16.872 52.718,10.49" style="fill:none;fill-rule:nonzero;stroke:black;stroke-width:0.6px;"/>
                            <g id="g120" transform="matrix(0.86221,-0.50645,0.50645,0.86221,52.7183,10.4903)">
                                <g id="g122">
                                    <path id="path124" d="M2.291,0L-1.375,1.833L0,0L-1.375,-1.833" style="fill-rule:nonzero;"/>
                                </g>
                            </g>
                            <g transform="matrix(1,0,0,-1,32.512,18.676)">
                                <g id="g126">
                                    <g id="g128">
                                        <g id="g130">
                                            <g id="g132">
                                                <g id="text136">
                                                    <text x="0px" y="0px" style="font-family:'ArialMT', 'Arial', sans-serif;font-size:9.963px;">α</text>
                                                </g>
                                            </g>
                                        </g>
                                    </g>
                                </g>
                            </g>
                        </g>
                    </g>
                    <g id="g142">
                        <g id="g144">
                            <path id="path146" d="M54.694,-9.33C41.854,-16.872 29.607,-16.965 18.649,-10.747" style="fill:none;fill-rule:nonzero;stroke:black;stroke-width:0.6px;"/>
                            <g id="g148" transform="matrix(-0.8697,0.49344,-0.49344,-0.8697,18.6486,-10.7467)">
                                <g id="g150">
                                    <path id="path152" d="M2.291,0L-1.375,1.833L0,0L-1.375,-1.833" style="fill-rule:nonzero;"/>
                                </g>
                            </g>
                            <g transform="matrix(1,0,0,-1,32.636,-25.595)">
                                <g id="g154">
                                    <g id="g156">
                                        <g id="g158">
                                            <g id="g160">
                                                <g id="text164">
                                                    <text x="0px" y="0px" style="font-family:'ArialMT', 'Arial', sans-serif;font-size:9.963px;">β</text>
                                                </g>
                                            </g>
                                        </g>
                                    </g>
                                </g>
                            </g>
                        </g>
                    </g>
                    <g id="g170">
                        <g id="g172">
                            <path id="path174" d="M70.867,-16.173L70.867,-53.31" style="fill:none;fill-rule:nonzero;stroke:black;stroke-width:0.6px;"/>
                            <g id="g176" transform="matrix(-3.82857e-16,-1,1,-3.82857e-16,70.867,-53.3097)">
                                <g id="g178">
                                    <path id="path180" d="M2.291,0L-1.375,1.833L0,0L-1.375,-1.833" style="fill-rule:nonzero;"/>
                                </g>
                            </g>
                            <g transform="matrix(1,0,0,-1,74.486,-37.063)">
                                <g id="g182">
                                    <g id="g184">
                                        <g id="g186">
                                            <g id="g188">
                                                <g id="text192">
                                                    <text x="0px" y="0px" style="font-family:'ArialMT', 'Arial', sans-serif;font-size:9.963px;">γ</text>
                                                </g>
                                            </g>
                                        </g>
                                    </g>
                                </g>
                            </g>
                        </g>
                    </g>
                    <g id="g198">
                        <g id="g200">
                            <path id="path202" d="M56.121,-66.916C29.313,-60.537 12.857,-44.983 5.632,-20.773" style="fill:none;fill-rule:nonzero;stroke:black;stroke-width:0.6px;"/>
                            <g id="g204" transform="matrix(-0.2859,0.95819,-0.95819,-0.2859,5.63232,-20.773)">
                                <g id="g206">
                                    <path id="path208" d="M2.291,0L-1.375,1.833L0,0L-1.375,-1.833" style="fill-rule:nonzero;"/>
                                </g>
                            </g>
                        </g>
                    </g>
                    <g id="g226">
                        <g id="g228">
                            <path id="path230" d="M66.536,16.173C59.534,42.293 82.2,42.293 76.049,19.349" style="fill:none;fill-rule:nonzero;stroke:black;stroke-width:0.6px;"/>
                            <g id="g232" transform="matrix(-0.2589,-0.9659,0.9659,-0.2589,76.0494,19.3486)">
                                <g id="g234">
                                    <path id="path236" d="M2.291,0L-1.375,1.833L0,0L-1.375,-1.833" style="fill-rule:nonzero;"/>
                                </g>
                            </g>
                            <g transform="matrix(1,0,0,-1,68.214,41.319)">
                                <g id="g238">
                                    <g id="g240">
                                        <g id="g242">
                                            <g id="g244">
                                                <g id="text248">
                                                    <text x="0px" y="0px" style="font-family:'ArialMT', 'Arial', sans-serif;font-size:9.963px;">η</text>
                                                </g>
                                            </g>
                                        </g>
                                    </g>
                                </g>
                            </g>
                        </g>
                    </g>
                    <g id="g254">
                        <g id="g256">
                            <path id="path258" d="M74.818,-85.613C81.198,-109.423 60.537,-109.423 66.066,-88.788" style="fill:none;fill-rule:nonzero;stroke:black;stroke-width:0.6px;"/>
                            <g id="g260" transform="matrix(0.25879,0.96593,-0.96593,0.25879,66.0656,-88.7884)">
                                <g id="g262">
                                    <path id="path264" d="M2.291,0L-1.375,1.833L0,0L-1.375,-1.833" style="fill-rule:nonzero;"/>
                                </g>
                            </g>
                            <g transform="matrix(1,0,0,-1,68.464,-114.007)">
                                <g id="g266">
                                    <g id="g268">
                                        <g id="g270">
                                            <g id="g272">
                                                <g id="text276">
                                                    <text x="0px" y="0px" style="font-family:'ArialMT', 'Arial', sans-serif;font-size:9.963px;">δ</text>
                                                </g>
                                            </g>
                                        </g>
                                    </g>
                                </g>
                            </g>
                        </g>
                    </g>
                </g>
            </g>
        </g>
    </g>
</svg>
