<?xml version="1.0" encoding="UTF-8" standalone="no"?>
<!-- Created with Inkscape (http://www.inkscape.org/) -->

<svg
   xmlns:dc="http://purl.org/dc/elements/1.1/"
   xmlns:cc="http://creativecommons.org/ns#"
   xmlns:rdf="http://www.w3.org/1999/02/22-rdf-syntax-ns#"
   xmlns:svg="http://www.w3.org/2000/svg"
   xmlns="http://www.w3.org/2000/svg"
   xmlns:sodipodi="http://sodipodi.sourceforge.net/DTD/sodipodi-0.dtd"
   xmlns:inkscape="http://www.inkscape.org/namespaces/inkscape"
   id="svg4189"
   version="1.0"
   viewBox="0 0 1067.5 962.71"
   inkscape:version="0.92.5 (2060ec1f9f, 2020-04-08)"
   sodipodi:docname="machine0.svg">
  <defs
     id="defs27" />
  <sodipodi:namedview
     pagecolor="#ffffff"
     bordercolor="#666666"
     borderopacity="1"
     objecttolerance="10"
     gridtolerance="10"
     guidetolerance="10"
     inkscape:pageopacity="0"
     inkscape:pageshadow="2"
     inkscape:window-width="1294"
     inkscape:window-height="704"
     id="namedview25"
     showgrid="false"
     inkscape:zoom="0.25552866"
     inkscape:cx="533.75"
     inkscape:cy="481.35501"
     inkscape:window-x="72"
     inkscape:window-y="27"
     inkscape:window-maximized="1"
     inkscape:current-layer="svg4189" />
  <g
     id="layer1"
     transform="translate(830.87 474.7)">
    <path
       id="path15"
       style="fill-rule:evenodd;stroke:#1f1a17;stroke-width:1.2001;fill:#c2c1c1"
       d="m-293.47-451.83c55.69 7.36 111.7 14.76 168.31 22.22 56.903 7.51 114.37 15.12 172.28 22.76 54.55 7.19 101.84 32.58 134.29 68.42 33.34 36.8 51.93 85.12 46.31 136.36-3.31 30.12-6.67 60.97-10.06 92.25-3.48 31.991-7.03 64.773-10.67 98.032-6.55 59.971-39.28 111.98-87.21 146.66-48.778 35.28-112.51 52.05-177.69 40.77-69.19-12-137.72-23.76-205.58-35.52-67.23-11.64-133.85-23.16-199.77-34.51-61.13-10.549-107.7-45.02-133.13-91.009-24.68-44.695-29.27-99.619-8.94-153.98 11.32-30.27 22.43-60.03 33.37-89.2 10.7-28.56 21.17-56.68 31.5-84.25 17.53-46.8 54.19-85.25 98.88-109.96 43.85-24.24 96.5-35.86 148.11-29.04z" />
    <path
       id="path17"
       style="fill-rule:evenodd;stroke:#1f1a17;stroke-width:14.998;fill:#dededd"
       d="m-317.27-465.59c52.81 6.01 106.16 12.07 160.23 18.19 54.72 6.2 110.2 12.49 166.45 18.85 53.146 6.01 98.69 31.32 129.48 68.02 31.65 37.65 48.34 87.6 40.9 140.91-4.36 31.31-8.81 63.19-13.29 95.53-4.53 32.905-9.18 66.475-13.87 100.54-8.4 61.065-42.02 113.92-89.306 148.96-47.847 35.48-109.03 52.13-170.45 40.9-64.94-11.88-129-23.48-191.94-35.04-62.17-11.4-123.3-22.59-183.65-33.542-55.59-10.143-97.59-43.725-120.37-88.704-22.14-43.685-26.07-97.845-7.34-151.88 10.49-30.28 20.84-60.14 31-89.45 10-28.83 19.88-57.29 29.6-85.29 16.56-47.7 50.89-87.7 92.73-114.06 41.37-26.06 91.11-39.48 139.83-33.93z" />
    <path
       id="path19"
       style="fill-rule:evenodd;stroke:#1f1a17;stroke-width:1.2001;fill:#c2c1c1"
       d="m-609.4 103.75c120.88 15.23 243.5 30.63 367.7 46.23 125.96 15.8 253.62 31.89 383.26 48.13 41.5 5.21 65.79 36.21 53.71 69.55-8.97 24.65-18.11 49.75-27.24 75.21-9.29 25.9-18.83 52.25-28.49 78.96-13.54 37.58-61.95 63.69-106.93 57.35-140.71-19.89-279.16-39.49-415.59-58.8-134.32-19.04-266.78-37.83-397.29-56.3-40.91-5.78-54.69-39.04-31.49-73.18 16.56-24.37 33-48.42 49.01-72.02 15.75-23.23 31.53-46.15 46.99-68.78 20.86-30.47 68.4-51.159 106.36-46.35z" />
    <path
       id="path21"
       style="fill-rule:evenodd;stroke:#1f1a17;stroke-width:14.998;fill:#dededd"
       d="m-608.55 102.9c119.07 13.54 239.86 27.2 362.2 41.06 124.06 14.06 249.82 28.33 377.53 42.8 40.89 4.6 64.82 32.12 52.94 61.74-8.86 21.91-17.83 44.22-26.84 66.81-9.17 22.99-18.55 46.43-28.04 70.15-13.38 33.34-61.026 56.54-105.4 50.92-138.57-17.66-274.96-35.08-409.33-52.25-132.34-16.9-262.82-33.59-391.38-49.99-40.31-5.14-53.88-34.68-31.02-64.98 16.31-21.67 32.5-43 48.27-63.98 15.52-20.65 31.07-41.01 46.29-61.1 20.56-27.08 67.38-45.422 104.78-41.18z" />
    <path
       id="path23"
       style="fill-rule:evenodd;stroke:#1f1a17;stroke-width:10.999;fill:#4d4948"
       d="m-302.08-415.86c44.49 5.07 89.51 10.18 135.1 15.34 46.11 5.23 92.904 10.53 140.35 15.9 44.774 5.06 83.165 26.4 109.15 57.35 26.67 31.74 40.73 73.85 34.47 118.8-3.68 26.4-7.39 53.28-11.19 80.54-3.84 27.75-7.722 56.054-11.682 84.783-7.113 51.484-35.441 96.059-75.287 125.6-40.372 29.907-91.977 43.927-143.74 34.467-54.76-10.02-108.75-19.798-161.84-29.537-52.41-9.618-103.95-19.034-154.83-28.288-46.88-8.527-82.29-36.856-101.49-74.762-18.67-36.856-21.98-82.521-6.19-128.08 8.84-25.53 17.58-50.71 26.14-75.42 8.43-24.31 16.76-48.3 24.95-71.91 13.97-40.22 42.91-73.94 78.19-96.17 34.88-21.97 76.82-33.29 117.9-28.61z" />
    <path
       id="path25"
       style="stroke:#1f1a17;stroke-width:10.999;fill:none"
       d="m-612.22 141.01v26.19c0 14.46-15.13 26.18-33.79 26.18s-33.8-11.72-33.8-26.18v-26.19m67.6 0c0 14.43-15.14 26.19-33.8 26.19s-33.8-11.76-33.8-26.19c0-14.47 15.14-26.19 33.8-26.19s33.8 11.72 33.8 26.19z" />
    <path
       id="path27"
       style="stroke:#1f1a17;stroke-width:10.999;fill:none"
       d="m-511.39 153.62v26.18c0 14.47-15.14 26.19-33.79 26.19-18.67 0-33.8-11.72-33.8-26.19v-26.18m67.59 0c0 14.47-15.14 26.18-33.79 26.18-18.67 0-33.8-11.71-33.8-26.18s15.13-26.19 33.8-26.19c18.65 0 33.79 11.72 33.79 26.19z" />
    <path
       id="path29"
       style="stroke:#1f1a17;stroke-width:10.999;fill:none"
       d="m-410.6 163.07v26.19c0 14.47-15.13 26.19-33.79 26.19s-33.8-11.72-33.8-26.19v-26.19m67.59 0c0 14.43-15.13 26.19-33.79 26.19s-33.8-11.76-33.8-26.19c0-14.46 15.14-26.18 33.8-26.18s33.79 11.72 33.79 26.18z" />
    <path
       id="path31"
       style="stroke:#1f1a17;stroke-width:10.999;fill:none"
       d="m-298.76 178.83v26.19c0 14.47-15.14 26.19-33.8 26.19s-33.79-11.72-33.79-26.19v-26.19m67.59 0c0 14.47-15.14 26.19-33.8 26.19s-33.79-11.72-33.79-26.19c0-14.46 15.13-26.18 33.79-26.18s33.8 11.72 33.8 26.18z" />
    <path
       id="path33"
       style="stroke:#1f1a17;stroke-width:10.999;fill:none"
       d="m-188.6 191.4v26.19c0 14.47-15.16 26.19-33.83 26.19-18.63 0-33.78-11.72-33.78-26.19v-26.19m67.61 0c0 14.47-15.16 26.19-33.83 26.19-18.63 0-33.78-11.72-33.78-26.19 0-14.46 15.15-26.18 33.78-26.18 18.67 0 33.83 11.72 33.83 26.18z" />
    <path
       id="path35"
       style="stroke:#1f1a17;stroke-width:10.999;fill:none"
       d="m-82.562 207.2v26.23c0 14.43-15.114 26.19-33.788 26.19-18.67 0-33.78-11.76-33.78-26.19v-26.23m67.568 0c0 14.47-15.114 26.19-33.788 26.19-18.67 0-33.78-11.72-33.78-26.19 0-14.42 15.11-26.18 33.78-26.18 18.674 0 33.788 11.76 33.788 26.18z" />
    <path
       id="path37"
       style="stroke:#1f1a17;stroke-width:10.999;fill:none"
       d="m-661.86 235.69v26.23c0 14.43-15.13 26.19-33.79 26.19s-33.8-11.76-33.8-26.19v-26.23m67.6 0c0 14.47-15.14 26.19-33.8 26.19s-33.79-11.72-33.79-26.19c0-14.42 15.13-26.18 33.79-26.18s33.8 11.76 33.8 26.18z" />
    <path
       id="path39"
       style="stroke:#1f1a17;stroke-width:10.999;fill:none"
       d="m-560.56 248.38v26.19c0 14.47-15.14 26.19-33.79 26.19-18.67 0-33.8-11.72-33.8-26.19v-26.19m67.59 0c0 14.47-15.14 26.19-33.79 26.19-18.67 0-33.8-11.72-33.8-26.19 0-14.46 15.13-26.18 33.8-26.18 18.65 0 33.79 11.72 33.79 26.18z" />
    <path
       id="path41"
       style="stroke:#1f1a17;stroke-width:10.999;fill:none"
       d="m-446.6 262.61v26.19c0 14.46-15.13 26.18-33.8 26.18-18.65 0-33.79-11.72-33.79-26.18v-26.19m67.59 0c0 14.47-15.13 26.19-33.8 26.19-18.65 0-33.79-11.72-33.79-26.19s15.14-26.19 33.79-26.19c18.67 0 33.8 11.72 33.8 26.19z" />
    <path
       id="path43"
       style="stroke:#1f1a17;stroke-width:10.999;fill:none"
       d="m-331.06 276.87v26.19c0 14.47-15.14 26.19-33.8 26.19s-33.8-11.72-33.8-26.19v-26.19m67.6 0c0 14.47-15.14 26.19-33.8 26.19s-33.8-11.72-33.8-26.19c0-14.46 15.14-26.18 33.8-26.18s33.8 11.72 33.8 26.18z" />
    <path
       id="path45"
       style="stroke:#1f1a17;stroke-width:10.999;fill:none"
       d="m-228.17 287.95v26.18c0 14.47-15.15 26.19-33.78 26.19-18.68 0-33.82-11.72-33.82-26.19v-26.18m67.6 0c0 14.46-15.15 26.18-33.78 26.18-18.68 0-33.82-11.72-33.82-26.18 0-14.47 15.14-26.19 33.82-26.19 18.63 0 33.78 11.72 33.78 26.19z" />
    <path
       id="path47"
       style="stroke:#1f1a17;stroke-width:10.999;fill:none"
       d="m-125.32 303.75v26.18c0 14.47-15.11 26.23-33.78 26.23s-33.79-11.76-33.79-26.23v-26.18m67.57 0c0 14.47-15.11 26.18-33.78 26.18s-33.79-11.71-33.79-26.18 15.12-26.19 33.79-26.19 33.78 11.72 33.78 26.19z" />
    <path
       id="path49"
       style="stroke:#1f1a17;stroke-width:10.999;fill:none"
       d="m105.76 272.31v53.83c0 29.7-38.516 53.78-86 53.78s-85.996-24.08-85.996-53.78v-53.83m172 0c0 29.7-38.516 53.83-86 53.83s-85.996-24.13-85.996-53.83c0-29.71 38.512-53.83 85.996-53.83s86 24.12 86 53.83z" />
    <path
       id="path53"
       style="stroke:#1f1a17;stroke-width:15.749;fill:none"
       d="m-317.27-465.59c52.81 6.01 106.16 12.07 160.23 18.19l166.45 18.85c36.86 4.17 70.079 17.63 97.24 37.73 29.33 12.34 54.83 30.39 74.76 52.39 33.34 36.8 51.93 85.12 46.31 136.36-3.31 30.13-6.67 60.97-10.06 92.25-3.48 31.991-7.03 64.773-10.67 98.032-6.55 59.971-39.28 111.98-87.17 146.66-27.157 19.64-58.921 33.54-93.028 40.04 34.673 3.92 69.468 7.89 104.43 11.85 25.01 2.82 43.68 14.22 51.68 29.42 14.03 13.21 19.44 31.92 12.37 51.48-8.97 24.65-18.11 49.79-27.24 75.25-9.29 25.86-18.83 52.25-28.49 78.92-13.54 37.58-61.95 63.69-106.93 57.35-140.71-19.89-279.16-39.49-415.59-58.8-134.32-19.04-266.77-37.83-397.28-56.3-36-5.09-50.99-31.44-38.28-60.94-1.7-10.26 1.65-22.06 10.65-34.03 16.32-21.62 32.51-42.95 48.28-63.93 15.51-20.65 31.06-41.01 46.29-61.1 20.55-27.08 67.38-45.422 104.77-41.18 119.07 13.54 239.87 27.2 362.2 41.06 4.81 0.57 9.66 1.09 14.47 1.66-10.55-1.82-21.1-3.64-31.61-5.5-67.23-11.6-133.84-23.16-199.77-34.51-23.33-4.04-44.54-11.559-63.26-21.864-34.03-16.084-60.24-42.473-76.57-74.722-22.14-43.685-26.07-97.845-7.34-151.88l31-89.45 29.6-85.29c16.56-47.7 50.89-87.7 92.73-114.06 41.37-26.06 91.11-39.48 139.83-33.93z" />
  </g>
  <metadata
     id="metadata22">
    <rdf:RDF>
      <cc:Work>
        <dc:format>image/svg+xml</dc:format>
        <dc:type
           rdf:resource="http://purl.org/dc/dcmitype/StillImage" />
        <cc:license
           rdf:resource="http://creativecommons.org/licenses/publicdomain/" />
        <dc:publisher>
          <cc:Agent
             rdf:about="http://openclipart.org/">
            <dc:title>Openclipart</dc:title>
          </cc:Agent>
        </dc:publisher>
        <dc:title></dc:title>
      </cc:Work>
      <cc:License
         rdf:about="http://creativecommons.org/licenses/publicdomain/">
        <cc:permits
           rdf:resource="http://creativecommons.org/ns#Reproduction" />
        <cc:permits
           rdf:resource="http://creativecommons.org/ns#Distribution" />
        <cc:permits
           rdf:resource="http://creativecommons.org/ns#DerivativeWorks" />
      </cc:License>
    </rdf:RDF>
  </metadata>
  <g
     transform="matrix(6.1257835,0,0,6.1257835,-45.740594,-46.485773)"
     inkscape:label="Layer 1"
     id="layer1-3-9"
     style="opacity:0.5">
    <path
       clip-path="none"
       mask="none"
       d="M 36.536,32.822 C 49.235,0.966 49.705,1.088 62.891,31.7617 c 34.15,2.198 39.384,9.6218 6.5131,23.932 19.821,46.048 -0.79153,28.382 -19.842,13.178 -22.357,25.013 -29.54,22.639 -18.782,-12.117 -7.2813,-8.5014 -45.095,-18.742 5.7558,-23.932 z"
       inkscape:connector-curvature="0"
       style="opacity:0.8;fill:#ffff27;fill-opacity:0;fill-rule:evenodd;stroke:#000000;stroke-width:5;stroke-linecap:round;stroke-linejoin:round"
       sodipodi:nodetypes="cccccc"
       id="path3153-56-7" />
  </g>
  <g
     transform="matrix(6.1257835,0,0,6.1257835,486.31136,-34.745406)"
     inkscape:label="Layer 1"
     id="layer1-3-9-7"
     style="opacity:0.5">
    <path
       clip-path="none"
       mask="none"
       d="M 36.536,32.822 C 49.235,0.966 49.705,1.088 62.891,31.7617 c 34.15,2.198 39.384,9.6218 6.5131,23.932 19.821,46.048 -0.79153,28.382 -19.842,13.178 -22.357,25.013 -29.54,22.639 -18.782,-12.117 -7.2813,-8.5014 -45.095,-18.742 5.7558,-23.932 z"
       inkscape:connector-curvature="0"
       style="opacity:0.8;fill:#ffff27;fill-opacity:0;fill-rule:evenodd;stroke:#000000;stroke-width:5;stroke-linecap:round;stroke-linejoin:round"
       sodipodi:nodetypes="cccccc"
       id="path3153-56-7-5" />
  </g>
  <g
     transform="matrix(6.1257835,0,0,6.1257835,-40.884491,396.14245)"
     inkscape:label="Layer 1"
     id="layer1-3-9-3"
     style="opacity:0.5">
    <path
       clip-path="none"
       mask="none"
       d="M 36.536,32.822 C 49.235,0.966 49.705,1.088 62.891,31.7617 c 34.15,2.198 39.384,9.6218 6.5131,23.932 19.821,46.048 -0.79153,28.382 -19.842,13.178 -22.357,25.013 -29.54,22.639 -18.782,-12.117 -7.2813,-8.5014 -45.095,-18.742 5.7558,-23.932 z"
       inkscape:connector-curvature="0"
       style="opacity:0.8;fill:#ffff27;fill-opacity:0;fill-rule:evenodd;stroke:#000000;stroke-width:5;stroke-linecap:round;stroke-linejoin:round"
       sodipodi:nodetypes="cccccc"
       id="path3153-56-7-56" />
  </g>
  <g
     transform="matrix(6.1257835,0,0,6.1257835,511.47551,405.84245)"
     inkscape:label="Layer 1"
     id="layer1-3-9-2"
     style="opacity:0.5">
    <path
       clip-path="none"
       mask="none"
       d="M 36.536,32.822 C 49.235,0.966 49.705,1.088 62.891,31.7617 c 34.15,2.198 39.384,9.6218 6.5131,23.932 19.821,46.048 -0.79153,28.382 -19.842,13.178 -22.357,25.013 -29.54,22.639 -18.782,-12.117 -7.2813,-8.5014 -45.095,-18.742 5.7558,-23.932 z"
       inkscape:connector-curvature="0"
       style="opacity:0.8;fill:#ffff27;fill-opacity:0;fill-rule:evenodd;stroke:#000000;stroke-width:5;stroke-linecap:round;stroke-linejoin:round"
       sodipodi:nodetypes="cccccc"
       id="path3153-56-7-9" />
  </g>
</svg>
