<?xml version="1.0" standalone="no"?>
<!DOCTYPE svg PUBLIC "-//W3C//DTD SVG 20010904//EN"
 "http://www.w3.org/TR/2001/REC-SVG-20010904/DTD/svg10.dtd">
<svg version="1.0" xmlns="http://www.w3.org/2000/svg"
 width="1280.000000pt" height="1258.000000pt" viewBox="0 0 1280.000000 1258.000000"
 preserveAspectRatio="xMidYMid meet">
<g transform="translate(0.000000,1258.000000) scale(0.100000,-0.100000)"
fill="#000000" stroke="none">
<path d="M2590 12560 c-103 -17 -196 -48 -402 -133 -119 -49 -186 -97 -304
-219 -140 -144 -221 -263 -339 -499 -59 -118 -120 -232 -135 -254 -15 -22 -43
-71 -63 -110 -21 -38 -47 -82 -60 -97 -14 -17 -84 -55 -186 -102 -141 -65
-200 -86 -425 -147 -322 -87 -666 -191 -666 -200 0 -4 21 -33 47 -66 26 -32
48 -60 49 -62 5 -6 373 -73 929 -170 286 -50 529 -93 540 -96 13 -3 59 -69
138 -200 117 -196 117 -197 168 -373 33 -112 62 -243 80 -357 l28 -180 -29
-370 c-16 -203 -33 -392 -39 -420 -5 -27 -14 -84 -20 -125 -7 -41 -16 -103
-21 -137 -6 -35 -15 -93 -20 -130 -6 -38 -15 -95 -21 -127 -20 -115 5 -348 68
-621 54 -235 56 -244 145 -435 126 -272 289 -526 452 -705 189 -206 422 -439
671 -670 297 -275 429 -411 606 -621 l144 -170 64 -157 c59 -143 72 -166 158
-276 88 -114 101 -125 236 -219 78 -54 181 -120 229 -146 71 -38 107 -67 185
-147 54 -55 110 -119 125 -142 15 -23 50 -58 77 -77 27 -20 93 -76 145 -125
53 -50 143 -133 199 -186 56 -52 117 -104 135 -115 18 -10 43 -35 55 -54 12
-19 36 -51 54 -70 l31 -36 -236 -179 -237 -180 -115 -5 c-104 -5 -122 -9 -187
-39 -88 -41 -180 -131 -208 -204 l-18 -47 -81 0 c-51 1 -90 6 -106 15 -38 22
-433 21 -509 -1 -140 -41 -176 -67 -261 -193 -90 -135 -136 -294 -221 -766 -6
-33 -14 -80 -19 -105 -5 -25 -14 -74 -20 -110 -6 -36 -15 -85 -20 -110 -5 -25
-19 -99 -30 -165 -57 -315 -83 -428 -118 -506 l-29 -64 -319 -169 c-176 -92
-323 -172 -329 -177 -5 -5 416 -9 1023 -9 l1031 0 968 632 c1208 788 1083 710
1121 702 47 -10 100 -88 161 -240 44 -111 59 -137 99 -176 61 -59 107 -68 353
-68 135 0 204 -4 246 -15 94 -25 254 -20 381 12 59 14 109 28 111 30 3 1 -6
15 -20 29 -20 21 -21 27 -9 34 8 5 18 10 23 10 14 0 7 18 -10 24 -10 4 -34 15
-53 26 -86 47 -145 64 -260 71 -63 5 -176 12 -250 17 -74 6 -151 15 -170 21
-19 6 -53 11 -75 11 -35 0 -47 6 -82 43 -35 35 -43 52 -53 103 -15 89 -56 183
-98 226 -19 21 -34 39 -31 41 2 3 179 118 393 258 l389 253 -47 12 c-26 7 -50
14 -52 17 -2 2 31 44 73 92 l77 88 -34 26 c-81 62 -77 49 -32 123 l41 66 -56
14 c-46 11 -75 11 -166 1 -61 -7 -113 -11 -115 -8 -2 2 5 17 17 33 12 17 21
33 21 36 0 3 -29 6 -64 6 l-64 0 -553 -293 -554 -294 -54 14 c-30 8 -102 38
-160 68 -58 29 -132 58 -163 65 -32 7 -58 15 -58 17 0 2 41 61 91 131 67 95
99 130 123 140 35 14 56 47 56 87 0 23 26 70 69 126 11 14 26 38 32 53 7 14
15 26 19 26 4 0 13 13 20 29 6 16 20 37 31 47 16 14 19 31 19 99 0 75 -3 86
-31 128 -17 26 -29 54 -25 62 3 8 0 17 -5 21 -6 3 62 55 152 115 117 77 167
106 178 100 11 -6 115 37 331 136 337 155 359 168 427 271 33 49 38 53 67 47
17 -4 49 -19 71 -33 22 -15 96 -56 165 -93 189 -100 302 -162 330 -182 19 -13
46 -17 122 -17 93 0 99 1 107 23 5 13 16 29 25 36 11 10 16 30 16 71 0 55 -6
68 -91 222 -50 90 -100 178 -111 196 -15 25 -17 33 -6 36 7 3 117 21 245 42
l231 37 79 -42 c258 -138 831 -416 840 -408 1 2 -9 39 -24 83 -34 104 -132
250 -247 372 l-40 42 304 -1 c168 0 384 -6 480 -13 l175 -14 205 -91 c163 -73
236 -112 359 -193 325 -216 446 -313 930 -743 420 -373 489 -430 618 -513 80
-51 147 -91 150 -89 2 3 -52 173 -121 378 -68 206 -123 375 -121 377 2 2 27
-1 55 -7 28 -6 118 -11 200 -11 134 0 332 -23 470 -55 22 -6 23 -5 10 8 -8 7
-80 54 -160 102 -80 49 -219 138 -310 199 -99 66 -307 186 -520 301 -326 176
-394 217 -825 505 -468 312 -716 492 -1104 800 -113 89 -260 200 -329 248 -68
47 -174 131 -236 185 -61 55 -178 154 -261 221 -304 244 -521 453 -665 636
-54 69 -165 229 -247 355 -95 146 -209 305 -314 435 -90 113 -221 280 -291
370 -155 201 -356 423 -503 555 -60 54 -177 164 -260 245 -103 101 -227 207
-395 337 -348 270 -420 321 -550 393 -64 35 -208 134 -330 224 -118 89 -267
196 -330 238 -133 88 -476 386 -657 569 l-121 124 -76 204 c-42 112 -98 243
-125 290 -82 145 -167 322 -206 427 -54 143 -136 302 -209 402 -35 48 -85 126
-111 172 -27 47 -102 164 -166 260 -100 149 -136 193 -241 296 -130 128 -289
254 -376 298 -62 31 -117 33 -272 6z m3900 -8809 c0 -33 -6 -44 -42 -77 -24
-22 -73 -58 -110 -82 -42 -28 -70 -54 -79 -73 -8 -20 -53 -62 -131 -121 -66
-49 -121 -88 -122 -86 -2 1 -24 46 -51 98 -26 52 -53 102 -60 110 -7 8 -32 54
-57 102 l-44 87 45 5 c25 3 102 11 171 17 95 8 413 47 473 58 4 0 7 -16 7 -38z
m-691 -1015 c-3 -69 -8 -89 -25 -108 -29 -31 -53 -80 -52 -104 1 -17 -145
-258 -177 -293 -15 -16 -55 -6 -55 13 0 8 -7 19 -15 26 -8 7 -15 24 -15 39 0
19 -16 42 -54 80 -46 46 -65 80 -70 124 -1 8 443 306 458 307 4 0 6 -38 5 -84z
m-1295 -761 c11 -8 35 -15 53 -15 19 0 56 -11 83 -25 35 -18 55 -23 67 -16 56
28 93 39 98 30 12 -18 124 -69 153 -69 18 0 38 10 52 25 27 29 19 29 193 -13
64 -15 106 -30 104 -36 -3 -6 -71 -114 -151 -241 -158 -248 -149 -238 -248
-252 -21 -3 -42 -11 -49 -19 -6 -8 -22 -14 -36 -14 -25 0 -108 -41 -183 -90
-25 -17 -58 -38 -73 -48 -55 -33 -78 -54 -98 -90 -57 -105 -57 -105 -400 -287
l-324 -172 -3 171 c-2 114 2 209 12 286 58 429 69 499 92 569 50 148 140 269
219 290 22 6 47 15 55 21 8 5 92 10 190 10 138 -1 179 -4 194 -15z m1126 -215
c25 -7 62 -21 84 -32 l39 -20 -69 -37 c-200 -108 -324 -171 -324 -166 0 3 43
67 96 141 70 97 101 133 113 130 9 -3 36 -10 61 -16z"/>
</g>
</svg>
