<?xml version="1.0" standalone="no"?>
<!DOCTYPE svg PUBLIC "-//W3C//DTD SVG 20010904//EN"
 "http://www.w3.org/TR/2001/REC-SVG-20010904/DTD/svg10.dtd">
<svg version="1.0" xmlns="http://www.w3.org/2000/svg"
 width="1280.000000pt" height="1280.000000pt" viewBox="0 0 1280.000000 1280.000000"
 preserveAspectRatio="xMidYMid meet">
<g transform="translate(0.000000,1280.000000) scale(0.100000,-0.100000)"
fill="#000000" stroke="none">
<path d="M10692 10029 c-60 -30 -95 -86 -100 -157 -4 -70 17 -114 76 -157 l41
-30 -5 -240 c-22 -1085 -59 -1695 -106 -1793 -9 -18 -29 -31 -67 -44 -174 -58
-434 -210 -533 -310 -261 -264 -454 -783 -659 -1770 -35 -170 -67 -308 -70
-308 -10 0 -100 209 -190 443 -337 874 -480 1195 -694 1557 -317 536 -711 958
-1131 1210 -441 264 -960 433 -1554 507 -115 14 -217 18 -495 18 -306 -1 -371
-3 -515 -23 -594 -81 -1086 -255 -1520 -539 -197 -129 -309 -221 -491 -403
-388 -387 -609 -768 -817 -1410 -285 -881 -318 -1723 -95 -2460 57 -190 100
-296 196 -490 51 -102 93 -188 95 -191 1 -3 -257 -10 -575 -16 l-578 -9 -80
-28 c-248 -87 -468 -254 -541 -411 -30 -63 -32 -152 -5 -210 38 -84 170 -169
331 -214 167 -46 343 -65 735 -81 277 -11 501 -23 1330 -70 1084 -62 1655 -90
2345 -115 2583 -94 4211 19 4841 335 313 158 694 521 945 902 224 339 386 745
450 1123 17 99 22 301 14 535 -3 89 0 115 19 170 48 139 110 221 381 502 227
236 302 329 367 453 75 145 88 205 88 400 0 166 -1 172 -33 264 -75 215 -213
380 -463 551 -61 42 -91 69 -95 86 -24 95 80 815 277 1918 l23 128 50 22 c122
54 164 186 91 282 -90 118 -269 104 -335 -26 -37 -73 -24 -149 37 -212 l36
-37 -52 -248 c-194 -924 -353 -1605 -407 -1750 -8 -23 -23 -44 -32 -48 -27
-12 -263 -18 -306 -8 -32 7 -41 14 -47 37 -7 26 -23 884 -32 1698 l-4 317 29
12 c142 59 159 241 30 330 -50 34 -142 38 -200 8z"/>
</g>
</svg>
