<?xml version="1.0" standalone="no"?>
<!DOCTYPE svg PUBLIC "-//W3C//DTD SVG 20010904//EN"
 "http://www.w3.org/TR/2001/REC-SVG-20010904/DTD/svg10.dtd">
<svg version="1.0" xmlns="http://www.w3.org/2000/svg"
 width="1280.000000pt" height="852.000000pt" viewBox="0 0 1280.000000 852.000000"
 preserveAspectRatio="xMidYMid meet">
<g transform="translate(0.000000,852.000000) scale(0.100000,-0.100000)"
fill="#000000" stroke="none">
<path d="M10173 8502 c-145 -52 -227 -166 -225 -317 1 -38 10 -116 20 -172
l18 -102 -25 -6 c-62 -13 -807 -135 -826 -135 -19 0 -23 13 -48 163 -31 182
-55 244 -117 301 -207 187 -535 62 -557 -212 -4 -52 42 -357 61 -403 5 -12 -2
-20 -26 -30 -69 -28 -217 -137 -303 -224 -127 -126 -243 -308 -291 -454 -9
-29 -22 -54 -28 -56 -6 -1 -56 -8 -111 -14 -121 -14 -263 -61 -371 -122 -98
-55 -225 -179 -278 -271 l-38 -68 -1797 -3 c-1976 -3 -1818 2 -2013 -63 -302
-100 -572 -338 -715 -632 -34 -70 -49 -92 -62 -88 -320 88 -600 211 -1181 516
-246 130 -250 132 -243 158 5 15 8 54 8 87 0 136 -105 251 -349 381 -46 24
-105 51 -132 59 -117 36 -279 28 -434 -21 -118 -37 -115 -33 -100 -149 29
-238 111 -429 219 -514 159 -127 449 -149 615 -48 l39 24 77 -86 c217 -241
466 -446 755 -621 157 -94 468 -245 638 -309 l27 -11 0 -1188 c0 -1304 -1
-1270 60 -1454 64 -189 167 -356 307 -495 90 -88 258 -207 349 -244 42 -18 53
-27 48 -38 -4 -9 -16 -47 -28 -86 -20 -67 -21 -94 -21 -550 0 -543 -1 -537 79
-700 203 -413 703 -401 897 21 64 139 64 143 64 659 0 259 -4 494 -8 523 l-8
52 129 0 128 0 -13 -78 c-11 -59 -13 -179 -10 -522 4 -501 3 -496 81 -655 203
-413 703 -401 897 21 64 139 64 143 64 659 0 259 -4 494 -8 522 l-8 53 1179 0
1178 0 -13 -77 c-11 -60 -13 -180 -10 -523 4 -501 3 -496 81 -655 203 -413
703 -401 897 21 64 139 64 143 64 659 0 259 -4 494 -8 523 l-8 52 150 0 149 0
21 -62 c32 -96 78 -169 321 -514 237 -337 310 -422 417 -487 430 -261 870 61
753 550 -30 125 -72 199 -307 530 l-214 305 53 56 c157 167 269 369 318 576
22 92 40 274 40 411 l0 91 233 38 c803 133 782 129 907 178 180 71 308 157
446 300 173 180 282 389 330 638 8 43 14 135 15 215 0 134 -6 177 -141 990
-77 468 -143 860 -145 873 -5 18 -1 22 20 22 49 0 181 41 272 85 273 133 435
373 420 625 -13 216 -140 387 -362 490 -112 53 -191 71 -329 77 -120 6 -210
-4 -311 -33 l-49 -14 -25 32 c-56 73 -179 191 -260 249 -214 152 -448 229
-699 229 l-120 0 -6 28 c-3 15 -13 72 -22 127 -22 135 -46 195 -100 250 -88
91 -230 127 -341 87z"/>
</g>
</svg>
